<svg width="375" height="641" viewBox="0 0 375 641" fill="none" xmlns="http://www.w3.org/2000/svg">
<g opacity="0.7">
<mask id="mask0_13_71765" style="mask-type:alpha" maskUnits="userSpaceOnUse" x="85" y="-46" width="442" height="287">
<ellipse opacity="0.3" cx="305.665" cy="97.5" rx="227.031" ry="132.08" transform="rotate(16.9402 305.665 97.5)" fill="#389989"/>
</mask>
<g mask="url(#mask0_13_71765)">
<g opacity="0.65" filter="url(#filter0_f_13_71765)">
<ellipse cx="305.665" cy="97.5" rx="227.031" ry="132.08" transform="rotate(16.9402 305.665 97.5)" fill="#389989"/>
</g>
<path d="M228.356 172.62C222.965 171.842 217.733 167.453 215.119 161.469C213.201 157.143 212.561 152.586 211.906 148.131C211.676 146.489 211.395 144.839 211.114 143.189C209.86 136.416 207.368 131.747 203.71 129.402C202.098 128.339 200.116 127.689 197.726 127.344C195.132 126.97 192.429 126.995 189.567 127.049C188.113 127.046 186.551 127.08 185.054 127.02C183.972 126.967 182.839 126.908 181.771 126.753C173.228 125.52 167.582 121.123 166.603 114.96C165.782 109.858 168.587 105.176 170.8 102.07C171.324 101.315 171.907 100.516 172.482 99.7688C175.067 96.2487 177.52 92.9174 178.165 89.1692C178.37 88.1087 178.387 86.9172 178.454 85.7329C178.515 83.873 178.59 81.9113 179.189 79.9214C181.599 71.86 191.021 68.4447 199.296 68.6533C200.277 68.6911 201.316 68.6854 202.246 68.7159C206.547 68.7659 210.63 68.8883 214.292 69.417C224.767 70.9295 230.433 76.2639 233.098 87.2901C233.791 90.0377 234.216 92.8502 234.655 95.561C235.274 99.1803 235.814 102.632 236.841 105.947C239.53 114.641 245.694 123.006 254.671 130.22C255.367 130.788 256.071 131.305 256.768 131.873C261.151 135.309 265.68 138.818 268.019 144.19C269.728 148.175 269.335 153.413 267.033 157.129C265.212 160.033 262.521 161.773 259.375 161.993C258.59 162.036 257.762 162.02 256.846 161.888C256.338 161.814 255.829 161.741 255.328 161.617C254.871 161.551 254.471 161.441 254.014 161.375C253.658 161.323 253.302 161.272 253.04 161.286C249.633 161.158 246.57 163.674 243.325 166.372C239.906 169.201 236.312 172.16 231.661 172.734C230.564 172.783 229.474 172.782 228.356 172.62Z" stroke="url(#paint0_linear_13_71765)" stroke-miterlimit="10"/>
<path d="M265.7 145.153C263.288 139.562 257.888 135.979 253.091 132.172C244.717 125.46 237.543 116.898 234.398 106.685C232.533 100.549 232.114 94.104 230.576 87.8603C226.366 70.6413 214.913 71.5831 199.183 71.2325C192.041 71.0837 183.652 73.8175 181.622 80.6879C180.739 83.5711 181.177 86.6452 180.642 89.6307C179.719 94.9479 175.934 99.229 172.811 103.606C170.524 106.857 168.419 110.654 169.045 114.586C170.095 121.33 178.229 124.321 185.058 124.477C191.881 124.683 199.308 123.576 205.057 127.261C210.138 130.538 212.461 136.739 213.571 142.713C214.681 148.688 214.984 154.857 217.403 160.397C219.872 165.945 225.299 170.777 231.324 170.038C239.616 169.055 244.747 158.324 253.117 158.598C255.18 158.688 257.199 159.447 259.241 159.326C265.359 159.016 268.103 150.795 265.7 145.153Z" stroke="url(#paint1_linear_13_71765)" stroke-miterlimit="10"/>
<path d="M229.456 164.993C226.71 164.597 223.728 161.882 222.157 158.385C220.665 155.055 220.09 151.13 219.486 147.046C219.212 145.346 218.997 143.601 218.629 141.835C216.964 132.874 213.311 126.533 207.802 122.986C205.24 121.318 202.277 120.267 198.768 119.761C195.615 119.306 192.44 119.366 189.374 119.391C187.921 119.389 186.511 119.445 185.167 119.406C184.39 119.398 183.569 119.331 182.755 119.214C179.043 118.678 174.57 116.942 174.08 113.86C173.814 112.109 174.719 109.8 176.94 106.642C177.456 105.938 177.981 105.183 178.549 104.487C181.446 100.597 184.679 96.1839 185.639 90.6124C185.918 89.0434 185.985 87.4959 186.024 86.1518C186.077 84.706 186.122 83.311 186.429 82.2652C187.327 79.2803 191.909 76.3082 198.95 76.4423C199.981 76.4875 200.969 76.4744 201.95 76.5122C206.193 76.6058 209.87 76.6695 213.073 77.132C219.43 78.0498 223.321 80.2209 225.501 89.2048C226.13 91.6833 226.54 94.2343 226.987 96.8942C227.591 100.615 228.232 104.445 229.389 108.298C232.542 118.46 239.553 128.142 249.793 136.317C250.49 136.884 251.237 137.459 251.985 138.035C255.766 140.968 259.358 143.771 260.871 147.312C261.61 149.028 261.403 151.541 260.434 153.218C259.749 154.365 259.066 154.422 258.862 154.393C258.652 154.415 258.347 154.37 257.889 154.304C257.482 154.246 257.075 154.187 256.676 154.077C256.167 154.004 255.615 153.872 255.005 153.784C254.344 153.689 253.777 153.659 253.211 153.629C246.861 153.387 242.321 157.144 238.313 160.458C235.607 162.663 233.068 164.788 230.633 165.111C230.328 165.067 229.914 165.059 229.456 164.993Z" stroke="url(#paint2_linear_13_71765)" stroke-miterlimit="10"/>
<path d="M212.598 87.9641C209.489 82.8952 204.154 79.5812 197.813 82.507C194.752 83.9338 194.027 87.878 192.025 90.5997C189.826 93.6045 185.857 95.2115 184.376 98.6315C182.874 102.204 184.714 106.363 187.252 109.273C188.942 111.23 190.221 111.363 192.561 110.974C194.901 110.585 196.71 110.639 199.122 111.194C204.453 112.38 209.456 114.763 214.94 115.244C216.938 115.428 219.206 115.185 220.421 113.595C221.768 111.817 221.089 109.331 220.351 107.252C218.014 100.789 216.208 93.8839 212.598 87.9641Z" stroke="url(#paint3_linear_13_71765)" stroke-miterlimit="10"/>
<path d="M213.877 112.546C209.018 111.689 204.457 109.836 199.685 108.732C199.083 108.593 198.472 108.505 197.913 108.424C194.15 107.881 189.933 109.763 187.454 105.72C186.367 103.902 186.233 101.598 187.035 99.6378C188.348 96.2975 192.062 95.0171 194.13 92.201C194.967 91.0761 195.558 89.8636 196.141 88.7019C197.015 86.9595 197.751 85.4566 198.922 84.8989C200.536 84.1456 202.077 83.9009 203.552 84.1138C207.06 84.6205 209.381 87.6029 210.424 89.3628C213.063 93.7408 214.813 98.8731 216.426 103.882C217.012 105.576 217.511 107.153 218.206 108.811C218.705 110.025 218.834 111.652 217.786 112.436C217.03 113.001 215.998 112.956 215.083 112.824C214.691 112.663 214.284 112.605 213.877 112.546Z" stroke="url(#paint4_linear_13_71765)" stroke-miterlimit="10"/>
<path d="M211.323 106.155C210.966 106.467 210.428 106.597 209.912 106.575C209.244 106.53 208.612 106.231 207.981 105.932C205.2 104.7 202.309 103.868 199.302 103.485C197.776 103.265 196.185 103.139 194.666 103.231C193.678 103.244 192.035 103.838 191.667 102.435C191.284 101.134 193.335 99.8725 194.215 99.169C195.51 98.1102 197.03 96.9281 198.311 95.2444C199.403 93.7929 199.784 92.2386 200.723 90.765C201.131 90.0972 201.728 89.5604 202.476 89.4089C203.494 89.1925 204.503 89.7535 205.17 90.5247C206.548 92.1252 207.54 94.6044 208.409 96.4948C209.474 98.8287 210.429 101.199 211.486 103.584C211.798 104.303 212.102 105.074 211.745 105.749C211.621 105.887 211.497 106.025 211.323 106.155Z" stroke="url(#paint5_linear_13_71765)" stroke-miterlimit="10"/>
<path d="M205.48 100.952C205.357 101.09 205.182 101.22 204.971 101.242C204.761 101.263 204.506 101.227 204.303 101.197C203.184 101.036 202.088 100.722 200.991 100.408C200.744 100.32 200.439 100.276 200.265 100.043C200.04 99.8032 199.982 99.4834 200.128 99.193C200.289 98.8009 200.87 98.7291 201.132 98.3516C201.452 97.9307 201.635 97.386 201.817 96.8414C202.043 96.3549 202.889 94.8158 203.476 95.7831C203.599 96.0085 203.613 96.2701 203.685 96.4882C203.872 97.7091 204.43 98.8798 205.177 99.8182C205.395 100.109 205.656 100.458 205.553 100.807C205.488 100.901 205.488 100.901 205.48 100.952Z" stroke="url(#paint6_linear_13_71765)" stroke-miterlimit="10"/>
<path d="M241.189 132.997C237.943 131.387 234.837 129.173 231.876 127.032C226.185 122.94 223.678 128.081 222.37 133.187C221.5 136.695 221.385 140.364 222.172 143.904C222.879 147.276 225.948 150.47 225.71 153.914C225.577 155.556 224.992 157.807 226.568 158.398C227.846 158.894 228.981 157.501 230.051 156.565C232.241 154.701 235.394 154.793 238.221 154.267C243.287 153.337 248.037 149.559 248.975 144.503C249.81 139.796 245.988 135.351 241.189 132.997Z" stroke="url(#paint7_linear_13_71765)" stroke-miterlimit="10"/>
<path d="M230.723 150.122C230.672 150.115 230.629 150.056 230.578 150.049C229.293 149.241 229.1 146.981 228.455 145.694C227.934 144.632 227.361 143.563 227.21 142.815C226.539 139.551 226.306 135.417 227.938 132.382C229.227 129.921 231.802 133.303 233.319 134.301C235.119 135.495 236.977 136.646 238.967 137.608C242.067 139.146 244.286 141.75 243.92 143.566C243.437 146.196 240.592 148.64 237.285 149.253C236.755 149.332 236.115 149.447 235.483 149.512C234.059 149.669 232.124 150.843 230.723 150.122Z" stroke="url(#paint8_linear_13_71765)" stroke-miterlimit="10"/>
<path d="M232.164 147.318C231.031 146.895 231.236 145.472 230.744 144.57C230.374 143.894 229.816 142.723 229.723 142.294C229.412 140.848 229.262 139.373 229.271 137.868C229.301 137.302 229.253 135.478 229.915 135.21C230.576 134.942 233.152 137.235 233.777 137.585C235.548 138.619 237.363 139.712 239.134 140.746C239.998 141.234 240.898 141.831 241.071 142.791C241.222 143.539 240.851 144.316 240.305 144.86C239.759 145.404 239.039 145.716 238.276 145.969C236.902 146.497 235.543 146.924 234.147 147.241C233.5 147.408 232.81 147.516 232.171 147.268C232.214 147.326 232.214 147.326 232.164 147.318Z" stroke="url(#paint9_linear_13_71765)" stroke-miterlimit="10"/>
<path d="M334.775 163.589C329.795 156.017 327.094 145.245 333.055 138.475C335.981 135.108 340.415 133.517 344.219 131.263C354.604 125.131 361.402 112.201 357.983 100.651C354.513 89.0928 339.178 82.0509 329.213 88.8658C323.045 93.1143 321.136 96.9913 313.869 98.0703C308.353 98.883 301.365 97.6664 297.818 103.176C295.473 106.834 295.362 112.995 291.016 113.614C289.795 113.801 288.561 113.363 287.442 112.838C276.958 108.158 271.46 96.6187 262.476 89.4556C259.167 86.8494 255.108 84.758 250.908 85.086C246.701 85.4647 242.612 88.9752 242.882 93.2189C243.137 97.2009 246.744 99.902 249.37 102.928C254.657 109.091 256.119 117.659 260.541 124.423C264.659 130.78 271.126 135.243 276.174 140.904C292.06 158.511 274.737 178.538 253.991 170.144C252.815 169.663 251.603 169.073 250.317 168.991C241.003 168.425 255.854 178.459 256.135 179.746C256.915 182.973 256.169 186.343 256.52 189.664C257.193 195.783 261.749 200.905 267.121 203.965C272.493 207.024 278.587 208.32 284.615 209.709C295.358 212.247 304.504 218.291 315.604 219.427C325.528 220.444 336.357 218.063 343.314 210.866C349.471 204.539 351.81 194.806 349.295 186.345C346.707 177.666 339.705 171.152 334.775 163.589Z" stroke="url(#paint10_linear_13_71765)" stroke-miterlimit="10"/>
<path d="M318.969 214.462C318.039 214.431 317.109 214.401 316.143 214.261C310.461 213.701 305.161 211.586 299.562 209.376C295.191 207.654 290.725 205.867 285.808 204.69L284.754 204.434C279.278 203.176 274.106 201.962 269.693 199.456C265.083 196.87 262.117 192.964 261.694 189.061C261.357 186.002 260.165 181.677 262.255 178.708C265.386 174.281 270.911 176.636 275.158 174.55C279.739 172.305 283.544 168.597 285.665 163.972C289.536 155.499 287.488 145.6 280.06 137.364C278 135.094 275.758 133.005 273.654 131.04C270.309 127.962 267.153 125.014 264.898 121.574C263.245 118.999 262.007 116.07 260.697 112.921C258.815 108.341 256.846 103.644 253.292 99.4976C252.624 98.7264 251.95 98.0061 251.275 97.2857C249.744 95.6632 248.119 93.975 248.034 92.7688C247.97 91.7733 249.593 90.2426 251.38 90.0855C251.591 90.064 251.853 90.0498 252.056 90.0792C254.178 90.126 256.661 91.2632 259.317 93.3598C262.532 95.9004 265.324 99.2105 268.254 102.644C273.049 108.268 278.017 114.125 285.379 117.42C286.599 117.959 288.269 118.616 290.238 118.64C290.754 118.663 291.278 118.635 291.757 118.548C297.695 117.693 299.672 112.268 300.825 108.957C301.255 107.773 301.7 106.488 302.167 105.776C303.368 103.925 305.49 103.609 310.141 103.398C311.609 103.298 313.127 103.206 314.661 103.012C321.187 102.034 324.562 99.1471 327.814 96.3983C329.117 95.2886 330.477 94.1353 332.15 92.9753C333.939 91.7283 336.098 91.1575 338.532 91.1975C344.948 91.3452 351.32 96.1067 353.12 101.973C354.378 106.204 353.884 111.064 351.712 115.681C349.547 120.248 345.966 124.196 341.705 126.747C340.745 127.283 339.785 127.819 338.716 128.392C335.575 130.014 332.033 131.891 329.246 135.018C324.151 140.823 321.474 152.532 330.536 166.35C332.239 168.932 334.074 171.326 335.916 173.668C339.549 178.345 342.965 182.732 344.476 187.726C346.471 194.399 344.563 202.221 339.745 207.184C334.943 212.045 327.447 214.7 318.969 214.462Z" stroke="url(#paint11_linear_13_71765)" stroke-miterlimit="10"/>
<path d="M318.075 209.505C313.985 209.07 309.91 207.807 305.931 206.609C296.94 203.806 288 201.01 279.009 198.206C275.632 197.147 269.359 194.217 267.103 191.503C265.413 189.546 265.244 186.044 267.419 184.645C268.568 183.877 270.072 183.886 271.489 183.779C279.983 183.189 287.229 177.227 290.474 169.494C294.288 160.338 292.676 149.567 288.018 140.849C284.293 133.926 276.07 127.963 270.542 122.389C269.817 121.661 269.091 120.934 268.816 119.959C268.542 118.985 268.929 117.744 269.859 117.411C271.168 116.977 272.278 118.279 273.104 119.385C278.413 126.121 288.83 127.314 296.485 124.266C301.058 122.435 303.149 118.74 306.75 115.73C308.584 114.178 310.809 113.149 312.932 112.106C318.734 109.31 324.529 106.565 330.281 103.762C334.069 101.973 338.54 100.127 342.265 102.014C345.742 103.814 347.043 108.466 345.977 112.258C344.91 116.049 341.941 118.994 338.755 121.285C335.569 123.577 331.992 125.344 328.85 127.693C322.79 132.269 318.529 139.129 317.043 146.545C315.608 153.969 316.947 161.948 320.839 168.428C324.137 173.991 329.158 178.402 332.79 183.806C336.43 189.159 338.606 196.377 335.546 202.113C332.981 206.933 327.324 209.439 321.838 209.685C320.647 209.669 319.353 209.638 318.075 209.505Z" stroke="url(#paint12_linear_13_71765)" stroke-miterlimit="10"/>
<path d="M325.053 202.519C323.258 202.364 321.501 201.954 319.75 201.494C309.241 198.782 298.775 196.129 288.265 193.418C287.11 193.147 285.868 192.76 285.289 191.742C284.578 190.549 285.126 188.915 286.144 187.972C287.163 187.029 288.53 186.552 289.809 185.958C302.62 180.281 306.414 165.515 304.26 152.746C303.698 149.446 302.766 146.197 301.507 143.056C300.414 140.199 291.805 134.388 299.554 132.133C301.022 131.67 302.606 131.847 304.183 131.711C308.827 131.188 311.638 126.455 314.847 123.648C318.172 120.754 322.113 118.623 326.068 116.755C329.522 115.125 335.133 114.015 337.883 111.505C338.72 110.743 339.47 109.865 340.473 109.387C341.476 108.909 342.907 109.064 343.444 110.024C343.813 110.7 343.63 111.608 343.172 112.268C342.713 112.929 342.022 113.4 341.338 113.821C335.083 117.953 328.226 121.582 323.255 127.25C318.67 132.401 315.463 138.791 314.124 145.553C312.322 154.792 314.044 164.8 318.849 172.865C321.023 176.501 323.598 179.52 326.086 182.423C327.906 184.555 329.596 186.512 331.01 188.585C333.961 192.956 335.846 200.028 329.115 202.067C327.85 202.559 326.433 202.666 325.053 202.519Z" stroke="url(#paint13_linear_13_71765)" stroke-miterlimit="10"/>
<path d="M325.094 194.323C323.852 194.3 322.406 193.883 321.535 193.809C317.285 193.403 313.078 193.055 308.828 192.649C305.654 192.347 301.919 192.327 298.92 191.167C297.889 190.758 296.997 189.747 297.107 188.621C297.226 187.444 298.767 186.473 299.517 185.595C300.718 184.107 301.825 182.554 302.786 180.928C304.433 178.155 305.636 175.214 306.701 172.149C307.329 170.319 308.593 165.518 311.122 165.624C314.485 165.694 313.85 172.974 315.096 175.126C317.813 180.035 321.57 184.574 325.342 188.649C326.242 189.609 327.134 190.621 327.365 191.9C327.754 193.877 326.54 194.376 325.094 194.323Z" stroke="url(#paint14_linear_13_71765)" stroke-miterlimit="10"/>
<path d="M323.668 190.899C323.391 191.378 322.657 191.428 322.047 191.339C318.465 190.978 314.833 190.609 311.251 190.248C308.44 189.946 305.402 190.493 302.548 189.77C300.645 189.287 300.82 188.794 301.723 187.211C302.415 186.013 303.245 184.939 303.981 183.799C305.204 181.796 306.29 179.669 307.224 177.519C307.843 176.103 308.284 172.689 310.014 172.212C312.028 171.569 312.851 174.854 313.387 176.177C315.414 181.194 318.713 185.667 322.886 189.125C323.394 189.561 324.025 190.223 323.668 190.899ZM323.668 190.899C323.675 190.848 323.675 190.848 323.668 190.899Z" stroke="url(#paint15_linear_13_71765)" stroke-miterlimit="10"/>
<path d="M313.481 186.313C312.043 186.209 308.256 187.271 307.197 185.976C306.008 184.507 307.936 182.294 308.817 181.227C310.761 178.912 312.005 182.518 313.085 184.023C313.433 184.489 315.065 186.489 313.481 186.313Z" stroke="url(#paint16_linear_13_71765)" stroke-miterlimit="10"/>
<path d="M308.002 148.406C305.56 149.143 306.672 143.594 305.724 141.173C305.124 139.581 301.505 139.837 302.81 136.91C304.064 133.977 303.696 136.883 304.176 136.796C308.027 136.366 310.266 130.927 313.098 132.167C315.93 133.406 309.438 140.255 308.596 144.65C308.311 145.907 310.444 147.668 308.002 148.406Z" stroke="url(#paint17_linear_13_71765)" stroke-miterlimit="10"/>
<path d="M357.612 178.722L357.554 178.766C356.689 179.368 356.316 180.508 356.271 181.539C356.135 185.361 358.17 189.6 359.044 193.256C360.084 197.559 360.905 201.934 361.524 206.28C362.818 215.292 364.595 226.709 362.01 235.628C361.469 237.574 360.877 239.876 362.103 241.455C363.51 243.215 366.191 242.98 368.372 242.256C373.381 240.644 376.517 237.618 380.416 234.34C384.497 230.88 389.892 228.752 394.524 226.151C396.502 225.035 398.757 223.44 398.462 221.165C398.204 219 395.757 217.972 393.695 217.155C377.654 210.686 371.504 193.602 361.853 180.632C360.947 179.359 359.402 177.475 357.612 178.722Z" stroke="url(#paint18_linear_13_71765)" stroke-miterlimit="10"/>
<path d="M364.602 236.365C364.59 235.014 365.217 233.547 365.393 232.326C365.804 229.479 365.954 226.645 365.9 223.783C365.821 218.217 365.008 212.701 364.239 207.243L364.059 205.971C363.247 200.455 362.1 195.099 360.589 189.742C360.459 189.204 360.293 188.557 360.664 188.143C361.96 186.721 366.369 192.133 366.905 193.093C370.102 198.279 373.342 203.522 377.345 208.149C381.792 213.307 386.706 216.301 392.587 219.434C393.313 219.799 393.951 220.41 394.197 221.224C394.544 222.416 393.83 223.767 392.79 224.499C390.935 225.84 388.18 226.584 386.151 227.693C383.562 229.084 381.01 230.584 378.711 232.485C378.238 232.883 377.823 233.239 377.351 233.638C375.103 235.545 372.257 238.353 369.459 239.402C368.084 239.931 366.341 239.783 365.354 238.706C364.796 237.898 364.645 237.15 364.602 236.365Z" stroke="url(#paint19_linear_13_71765)" stroke-miterlimit="10"/>
<path d="M368.394 227.724C367.741 227.215 367.503 225.986 367.453 225.252C367.377 222.905 369.022 220.859 368.996 218.519C368.902 213.782 366.634 209.354 365.907 204.681C365.799 203.99 365.692 203.3 365.838 202.646C365.933 201.985 366.29 201.31 366.865 200.926C369.083 199.585 370.48 203.212 371.11 204.601C372.298 207.161 374.329 209.271 376.579 210.945C378.64 212.489 380.942 213.444 383.083 214.791C384.557 215.731 384.874 217.49 382.918 218.09C380.527 218.835 378.462 219.471 376.382 220.935C375.458 221.581 374.571 222.335 373.734 223.097C372.948 223.866 372.314 225.02 371.441 225.673C370.924 226.377 369.905 228.046 368.88 227.95C368.735 227.877 368.539 227.797 368.394 227.724Z" stroke="url(#paint20_linear_13_71765)" stroke-miterlimit="10"/>
<path d="M402.838 -93.8683C400.159 -100.484 395.118 -105.832 389.712 -110.454C361.542 -134.663 322.704 -142.866 285.583 -142.827C277.794 -142.81 269.794 -142.408 262.77 -139.062C254.292 -134.991 248.081 -126.492 246.73 -117.136C244.351 -100.297 262.992 -88.4695 260.105 -72.7943C258.318 -62.93 251.584 -54.4028 253.029 -43.916C253.768 -38.2548 257.938 -32.9808 256.913 -27.315C255.747 -20.6831 248.295 -17.2431 244.769 -11.5229C237.158 0.926514 249.889 19.5316 240.724 30.8743C237.885 34.3576 233.625 36.1822 230.154 39.0034C226.684 41.8246 223.96 46.674 225.981 50.6515C229.574 57.7629 241.098 52.7305 248.14 56.4466C253.346 59.2227 254.825 66.2365 259.549 69.8256C264.97 73.9826 273.329 72.1787 277.994 67.1941C282.651 62.2604 284.261 55.0696 284.307 48.2762C284.352 42.5726 283.38 36.7221 280.568 31.7481C276.097 23.887 266.821 17.3047 268.274 8.32636C269.616 -0.252547 280.486 -5.06795 281.523 -13.6909C282.582 -22.1031 273.693 -29.564 275.202 -37.8593C275.824 -41.0916 277.994 -43.893 280.62 -45.9016C291.975 -54.4364 308.335 -48.3884 319.919 -40.1752C331.503 -31.9619 342.895 -21.3366 357.055 -20.9012C369.871 -20.5041 382.354 -30.018 385.344 -42.4599C387.019 -49.3817 386.166 -57.1356 390.178 -62.9931C393.061 -67.1448 397.926 -69.557 400.998 -73.5776C405.337 -79.1803 405.516 -87.2523 402.838 -93.8683Z" stroke="url(#paint21_linear_13_71765)" stroke-miterlimit="10"/>
<path d="M266.943 67.1565C265.825 66.995 264.895 66.6012 264.097 66.0187C262.696 64.934 261.515 63.0504 260.246 61.0504C258.26 57.9086 256.028 54.3159 251.977 52.1737C250.241 51.2483 248.302 50.6568 245.963 50.3191C243.675 49.9887 241.444 49.978 239.265 49.9748C237.499 49.9794 235.792 49.9405 234.419 49.7422C232.385 49.4486 232.146 48.9468 231.986 48.6124C231.421 47.4926 232.777 44.937 234.835 43.2617C235.898 42.3769 237.156 41.5723 238.472 40.7242C241.047 39.0715 243.912 37.2012 246.191 34.3637C252.378 26.7439 250.997 17.2526 249.775 8.82245C248.819 2.14372 247.913 -4.16437 250.629 -8.5997C251.656 -10.3201 253.395 -11.9378 255.2 -13.6498C258.569 -16.849 262.418 -20.4979 263.444 -26.1637C264.294 -30.9724 262.716 -35.1453 261.276 -38.8313C260.523 -40.8087 259.807 -42.6771 259.584 -44.3704C258.88 -49.5592 260.769 -54.3736 262.913 -59.8779C264.379 -63.5595 265.874 -67.4444 266.636 -71.6429C268.395 -81.3038 263.713 -89.5067 259.576 -96.8005C255.851 -103.36 252.329 -109.527 253.298 -116.239C254.392 -123.815 259.569 -130.906 266.484 -134.216C272.729 -137.208 280.395 -137.451 287.094 -137.47C298 -137.504 308.586 -136.754 318.552 -135.315C346.926 -131.218 370.228 -121.469 387.875 -106.358C391.707 -103.054 397.047 -97.9741 399.573 -91.7435C401.788 -86.2327 401.336 -80.2245 398.409 -76.4943C397.317 -75.0428 395.731 -73.7664 394.022 -72.3521C391.789 -70.5463 389.308 -68.4648 387.4 -65.6775C384.043 -60.7636 383.373 -55.0464 382.806 -50.0411C382.519 -47.6947 382.305 -45.4935 381.801 -43.438C379.366 -33.4076 368.979 -25.4599 358.647 -25.8097C357.717 -25.8401 356.795 -25.9215 355.879 -26.0536C346.879 -27.3532 338.866 -33.3378 330.382 -39.65C328.415 -41.1279 326.354 -42.6714 324.278 -44.1131C316.418 -49.7124 307.821 -53.4454 300.142 -54.5541C292.057 -55.7216 284.709 -54.0833 278.999 -49.7687C275.035 -46.7594 272.391 -42.8325 271.622 -38.5832C270.509 -32.6705 272.993 -27.5879 275.144 -23.0726C276.745 -19.7788 278.215 -16.6596 277.892 -14.0589C277.546 -11.3057 275.253 -8.72975 272.539 -5.74758C269.264 -2.1196 265.552 2.01633 264.671 7.75501C263.358 16.1305 268.42 22.4158 272.859 27.9881C274.657 30.2723 276.376 32.3892 277.572 34.5344C279.637 38.2068 280.676 42.873 280.646 48.4749C280.639 53.1977 279.757 59.6629 275.769 63.9147C273.513 66.2364 269.893 67.5824 266.943 67.1565Z" stroke="url(#paint22_linear_13_71765)" stroke-miterlimit="10"/>
<path d="M266.387 64.8967C265.269 64.3719 264.588 62.9759 263.784 61.7177C262.051 58.9758 260.312 56.2849 257.99 54.029C254.718 50.8053 251.646 49.7907 247.31 48.5417C246.264 48.235 245.124 47.8627 244.53 46.9463C243.812 45.8045 244.192 44.2502 245.066 43.2343C246.805 41.2534 248.586 40.7838 249.977 38.3373C251.704 35.3682 252.784 32.2019 253.174 28.7803C253.969 21.8353 252.331 14.8504 251.345 8.01181C250.555 2.34328 251.878 -3.22761 253.51 -5.89897C254.187 -6.99509 255.752 -8.48223 257.316 -9.96937C259.841 -12.356 261.162 -16.1105 263.469 -18.7881C265.339 -20.9577 268.546 -22.3116 269.994 -19.0398C271.522 -15.6008 268.386 -12.939 266.349 -10.6896C262.447 -6.32147 260.266 -0.562956 259.041 7.56565C257.867 14.975 259.023 23.8629 263.628 30.0821C267.631 35.4357 271.713 40.9566 273.032 47.6359C273.898 52.0694 274.122 62.3799 269.018 64.6537C267.898 65.2187 267.07 65.2029 266.387 64.8967Z" stroke="url(#paint23_linear_13_71765)" stroke-miterlimit="10"/>
<path d="M267.757 57.2039C265.215 56.4735 263.543 52.235 261.635 50.3503C259.408 48.1599 252.601 47.1252 252.869 43.1149C252.936 41.9306 255.514 37.7349 256.134 36.319C257.14 34.0245 258.16 31.9916 260.897 33.8921C264.86 36.6445 267.086 44.2334 267.951 48.6669C268.492 51.3924 269.054 54.6919 267.757 57.2039Z" stroke="url(#paint24_linear_13_71765)" stroke-miterlimit="10"/>
<path d="M296.194 90.6911C288.72 89.6118 284.87 83.9169 285.044 79.1145C285.128 76.7387 286.054 74.6402 286.717 73.2825C288.619 69.4563 291.356 65.9583 294.021 62.6055C298.534 56.8723 302.793 51.4657 302.192 45.2016C301.705 40.3037 298.362 36.1354 294.786 31.7778C293.996 30.7812 293.155 29.7772 292.321 28.7224C286.07 20.6044 284.673 12.3047 288.627 6.49072C289.821 4.6906 291.414 3.36335 292.898 2.07227C294.739 0.469293 296.39 -0.901463 296.858 -2.70268C297.224 -4.1553 296.848 -5.87059 296.437 -7.69493C296.235 -8.45088 296.091 -9.25034 295.954 -10.1006C294.809 -16.9104 297.522 -23.8379 302.599 -27.3615C304.846 -28.9057 307.376 -29.5268 310.122 -29.1303C315.512 -28.352 320.737 -23.912 325.78 -19.6539C329.205 -16.7715 332.441 -14.0201 335.186 -12.8971C336.755 -12.2553 338.425 -11.5989 340.001 -11.008C345.948 -8.69575 352.142 -6.29597 357.44 -2.36445C362.404 1.36312 367.349 8.462 370.229 16.1972C375.628 30.5771 372.928 42.8014 363.184 48.0908C357.323 51.2934 350.509 50.3096 344.451 49.4867C343.79 49.3912 343.179 49.3031 342.518 49.2077C334.775 48.1933 329.52 49.3552 326.804 52.7007C325.538 54.2827 324.808 56.4614 324.071 58.6908L323.969 59.0395C321.494 66.4687 318.986 72.3357 316.079 77.3665C311.796 84.7421 306.972 89.029 301.266 90.4372C299.645 90.878 297.923 90.9408 296.194 90.6911Z" stroke="url(#paint25_linear_13_71765)" stroke-miterlimit="10"/>
<path d="M367.163 18.0376C364.384 10.6804 359.787 4.04706 355.244 0.639821C348.821 -4.12896 340.97 -6.5603 333.52 -9.60862C324.502 -13.2987 312.699 -30.7835 303.411 -24.3382C298.851 -21.1553 296.88 -15.055 297.801 -9.5752C298.277 -6.75534 299.42 -3.89089 298.704 -1.08736C297.564 3.21229 292.606 5.19566 290.101 8.88292C286.205 14.6534 289.477 22.549 293.712 28.0919C297.947 33.6348 303.41 38.9399 304.068 45.887C305.134 57.2015 293.395 65.1616 288.337 75.3843C287.601 76.8872 287.003 78.5139 286.92 80.1631C286.664 86.2515 294.062 90.3823 299.985 88.9017C305.909 87.4211 310.124 82.3196 313.169 77.0492C316.418 71.4449 318.803 65.3525 320.883 59.216C321.715 56.6887 322.504 54.1033 324.2 52.0642C328.255 46.9915 335.811 46.7848 342.233 47.6083C348.647 48.4826 355.613 49.8518 361.3 46.7796C371.378 41.3309 371.295 28.9643 367.163 18.0376Z" stroke="url(#paint26_linear_13_71765)" stroke-miterlimit="10"/>
<path d="M297.296 83.0636C295.109 82.7479 292.692 81.153 292.738 79.3948C292.783 78.7264 293.068 77.8331 293.643 76.7223C295.188 73.5713 297.591 70.5959 300.08 67.3736C305.096 61.0381 310.811 53.8172 309.88 44.4429C309.208 37.2342 304.712 31.7054 300.788 26.8823C299.998 25.8857 299.2 24.9399 298.453 24.0015C295.443 20.0371 292.698 14.2421 295.014 10.7871C295.611 9.88701 296.739 8.90782 297.925 7.88513C300.297 5.83974 303.199 3.35193 304.31 -0.74432C305.143 -3.99815 304.486 -6.99993 303.952 -9.41298C303.794 -10.1107 303.627 -10.7576 303.556 -11.339C302.915 -15.1691 304.323 -19.1704 307.029 -21.0119C307.662 -21.4396 308.25 -21.5622 309.064 -21.4448C312.267 -20.9822 316.795 -17.1099 320.874 -13.7179C324.756 -10.4061 328.464 -7.32712 332.284 -5.73743C333.954 -5.08099 335.624 -4.42455 337.243 -3.77546C342.994 -1.54346 348.404 0.535441 352.904 3.88449C356.7 6.71661 360.723 12.6443 363.083 18.9546C365 24.0072 365.741 28.9418 365.176 32.8572C364.596 36.8744 362.797 39.6254 359.583 41.3934C355.925 43.357 350.935 42.6883 345.595 41.9173C344.934 41.8219 344.273 41.7264 343.612 41.631C333.021 40.2055 325.389 42.3737 320.897 47.9544C318.742 50.654 317.735 53.6751 316.83 56.3475L316.728 56.6961C314.429 63.6315 312.096 69.0047 309.458 73.6073C306.341 79.0229 302.972 82.2221 299.476 83.0669C298.785 83.1748 298.059 83.1737 297.296 83.0636Z" stroke="url(#paint27_linear_13_71765)" stroke-miterlimit="10"/>
<path d="M318.009 36.3259C313.296 34.4515 313.175 28.101 310.405 24.275C308.02 21.0236 303.12 17.9282 303.076 13.5614C303.047 8.3663 310.014 4.33699 310.822 -1.61977C311.255 -4.6199 312.481 -8.07658 315.381 -8.74794C319.67 -9.68604 325.566 -2.34595 329.538 -0.73423C331.251 -0.0196001 332.972 0.64418 334.599 1.24243C340.103 3.38686 344.772 5.20308 348.43 7.91147C353.162 11.4498 361.215 24.7075 356.665 30.3317C354.896 32.516 351.865 33.3761 349.039 33.1756C342.718 32.7302 338.906 31.0896 332.271 32.4674C327.939 33.3473 323.246 37.8087 318.656 36.523C318.503 36.501 318.256 36.4135 318.009 36.3259Z" stroke="url(#paint28_linear_13_71765)" stroke-miterlimit="10"/>
<path d="M320.73 28.6199C318.26 28.1075 318.09 25.3317 317.352 23.2526C316.354 20.461 314.708 17.8356 312.386 15.943C310.804 14.6764 309.128 12.9809 309.32 10.9322C309.401 10.0096 309.839 9.13835 310.319 8.3253C312.228 4.81152 314.137 1.29773 316.046 -2.21605C318.232 -6.20896 320.99 -4.09772 323.529 -1.91415C327.354 1.44115 331.987 3.14832 336.663 4.91369C343.743 7.64903 350 11.7709 352.881 19.1428C353.605 20.9603 353.427 23.2706 351.993 24.569C349.891 26.5494 346.564 25.4981 343.761 24.7819C338.248 23.4149 332.231 24.1033 327.141 26.6387C325.352 27.5224 323.52 28.7113 321.507 28.6283C321.187 28.6859 320.933 28.6492 320.73 28.6199Z" stroke="url(#paint29_linear_13_71765)" stroke-miterlimit="10"/>
<path d="M324.641 18.0758C322.339 17.1205 320.736 14.9166 319.272 12.8364C318.025 11.0471 316.742 9.14878 316.331 6.96115C314.781 -1.36054 322.536 1.73184 326.697 3.47463C331.003 5.2903 335.549 6.88109 339.483 9.47365C340.572 10.2019 343.788 12.0159 343.139 13.6352C342.563 15.1093 334.059 16.8403 332.423 17.3828C330.126 18.1931 327.625 18.974 325.287 18.273C325.084 18.2436 324.837 18.1561 324.641 18.0758Z" stroke="url(#paint30_linear_13_71765)" stroke-miterlimit="10"/>
<path d="M448.031 -2.78042C446.816 -11.2615 445.078 -19.7142 442.089 -27.7765C440.005 -33.4761 437.129 -39.0823 432.558 -43.0128C428.356 -46.6302 423.033 -48.5927 417.863 -50.5332C402.039 -56.3479 403.933 -30.6386 398.974 -22.8934C394.939 -16.5201 388.16 -11.9964 380.747 -10.6271C378.029 -10.1371 375.159 -10.0324 372.773 -8.6119C370.388 -7.19139 368.959 -3.76408 370.67 -1.59629C371.323 -0.723405 372.398 -0.256777 373.298 0.340375C378.306 3.76285 378.949 10.8117 378.395 16.8051C377.841 22.7986 376.596 29.2633 379.4 34.6515C381.146 38.0182 384.361 40.5588 385.714 44.1284C388.096 50.2861 384.3 57.1611 385.017 63.7014C385.64 69.4496 390.733 74.8049 396.538 74.5012C404.132 74.0404 408.236 65.393 409.373 57.8746C410.511 50.3562 410.749 41.8773 416.271 36.7051C422.696 30.6769 433.404 32.0154 440.583 26.8747C444.976 23.7715 447.498 18.5294 448.414 13.2631C449.338 7.9459 448.772 2.51748 448.031 -2.78042Z" stroke="url(#paint31_linear_13_71765)" stroke-miterlimit="10"/>
<path d="M395.104 71.8547C391.392 71.3187 388.048 67.5137 387.553 63.3932C387.281 60.966 387.757 58.3873 388.255 55.6561C389.002 51.5594 389.713 47.3535 388.092 43.1224C387.18 40.8105 385.737 38.941 384.279 37.1732C383.271 35.8856 382.3 34.7071 381.655 33.4201C379.626 29.4935 380.12 24.6334 380.651 19.5191C380.725 18.6473 380.843 17.8337 380.909 17.0127C381.737 8.04796 379.618 1.5128 374.704 -1.84414C374.421 -2.04074 374.13 -2.18649 373.898 -2.37575C373.375 -2.71077 372.896 -2.98759 372.679 -3.27855C372.635 -3.33674 372.418 -3.6277 372.506 -4.2379C372.681 -5.095 373.337 -6.03857 374.079 -6.50246C375.446 -7.34324 377.299 -7.59476 379.261 -7.88244C379.901 -7.99773 380.533 -8.06217 381.173 -8.17746C389.225 -9.6621 396.695 -14.657 401.123 -21.5965C402.871 -24.3548 403.793 -28.5822 404.759 -33.1146C406.932 -43.1309 408.809 -49.66 414.606 -48.823C415.318 -48.7202 416.116 -48.501 416.908 -48.231C421.839 -46.4289 426.915 -44.554 430.84 -41.184C434.396 -38.127 437.172 -33.6253 439.64 -26.9878C442.172 -20.0815 444.014 -12.3406 445.452 -2.52962C446.128 2.13605 446.745 7.57182 445.894 12.7438C444.993 17.9084 442.545 22.2788 439.082 24.6858C436.137 26.7521 432.423 27.6693 428.447 28.6006C423.504 29.7557 418.394 30.9905 414.48 34.7337C409.139 39.7246 408.154 47.265 407.301 53.8902C407.125 55.1106 407.007 56.2874 406.795 57.3988C405.738 64.3579 402.109 71.5165 396.354 71.8275C395.969 71.9795 395.511 71.9134 395.104 71.8547Z" stroke="url(#paint32_linear_13_71765)" stroke-miterlimit="10"/>
<path d="M393.128 62.9C392.577 62.4051 392.215 61.678 392.114 60.9367C391.906 59.505 392.54 57.9874 392.789 56.6218C393.617 51.9657 394.658 46.1982 392.233 39.9822C390.011 34.159 385.096 31.5286 385.099 24.677C385.084 20.47 385.962 16.1845 384.944 12.0923C384.019 8.42896 381.496 5.05382 381.785 1.25423C382.126 -3.62788 386.905 -6.88304 391.34 -8.83814C396.16 -10.9452 400.581 -12.7986 403.799 -17.1097C407.534 -22.1247 409.098 -28.2838 409.311 -34.4304C409.364 -36.2395 409.323 -38.1141 410.27 -39.6385C413.103 -44.1608 418.982 -39.9378 421.653 -37.5797C424.831 -34.7848 426.821 -29.5141 428.508 -25.7406C432.513 -16.8049 434.961 -7.15946 435.572 2.63578C435.863 7.09016 435.688 11.8926 433.038 15.507C429.74 20.0141 423.693 21.2693 418.271 22.5108C411.453 24.07 407.213 26.8319 402.991 32.3475C398.637 38.0519 397.492 45.6212 396.603 52.5006C396.242 55.7188 395.203 60.3964 393.128 62.9Z" stroke="url(#paint33_linear_13_71765)" stroke-miterlimit="10"/>
<path d="M410.385 90.413C408.352 84.7208 403.477 79.2932 397.753 78.6743C393.561 78.2247 389.236 79.7804 385.197 78.6263C379.409 77.0118 376.418 70.766 372.144 66.5672C365.143 59.6905 354.552 58.2649 344.736 57.9377C342.825 57.8695 340.573 58.0114 339.51 59.6228C338.65 60.9003 338.924 62.6009 339.387 64.0693C341.057 69.3977 344.807 73.988 349.59 76.8071C353.852 79.2912 358.784 80.3667 362.972 82.9959C371.334 88.3562 374.739 99.6451 372.356 109.32C369.98 118.943 362.71 126.874 354.194 131.925C349.147 134.882 342.952 137.881 341.912 143.648C341.362 146.735 342.622 149.876 344.609 152.291C346.596 154.707 349.253 156.44 351.939 157.97C354.24 159.288 356.839 160.702 357.772 163.225C358.626 165.58 357.714 168.303 358.299 170.724C359.028 173.58 361.605 175.51 364.131 177.068C366.606 178.62 369.452 180.121 372.381 179.609C374.3 179.263 375.965 178.154 377.486 176.972C384.025 171.947 389.869 165.627 392.351 157.784C393.84 153.223 394.124 148.384 394.756 143.648C396.218 132.802 399.562 122.228 404.604 112.471C407.337 107.207 411.421 101.931 411.423 95.8058C411.36 94.0838 411.007 92.2159 410.385 90.413Z" stroke="url(#paint34_linear_13_71765)" stroke-miterlimit="10"/>
<path d="M370.778 174.186C369.674 174.286 368.613 174.081 367.589 173.621C365.404 172.579 363.743 170.419 363.26 168.013C363.001 166.574 363.105 165.135 363.005 163.667C362.722 158.799 358.44 155.741 354.548 153.57L354.36 153.439C352.298 152.259 350.011 150.838 348.467 148.954C347.277 147.485 346.648 145.733 346.889 144.418C347.344 141.628 351.249 139.389 355.045 137.186C355.613 136.853 356.172 136.57 356.689 136.23C367.248 129.968 374.732 120.563 377.239 110.387C380.28 97.9524 375.527 84.8595 365.64 78.5524C363.027 76.8773 360.326 75.8124 357.719 74.8131C355.707 74.0036 353.739 73.2522 352.113 72.2907C350.393 71.2636 349.043 69.8229 347.818 68.2444C346.324 66.3676 342.61 62.6128 346.709 61.907C348.039 61.6837 349.701 62.391 350.87 62.9232C356.911 65.6642 363.328 65.0853 368.465 70.1356C369.604 71.2344 370.655 72.5802 371.801 73.9915C374.796 77.6943 378.132 81.9135 383.768 83.5059C384.414 83.703 385.075 83.7985 385.787 83.9013C388.279 84.2611 390.699 84.0395 392.806 83.8247C394.383 83.689 395.909 83.546 397.188 83.6787C397.239 83.686 397.289 83.6934 397.391 83.708C400.544 84.1633 404.026 87.7288 405.582 92.0543C406.066 93.3701 406.304 94.5984 406.295 95.7391C406.275 99.4737 404.141 103.111 402.196 106.152C399.793 109.854 397.869 113.833 396.235 117.957C393.084 126.119 391.262 134.785 389.709 143.385C388.573 149.814 387.466 156.402 384.551 162.21C382.408 166.262 376.446 173.758 370.778 174.186Z" stroke="url(#paint35_linear_13_71765)" stroke-miterlimit="10"/>
<path d="M369.72 171.438C369.16 171.357 368.667 171.182 368.137 170.898C366.75 170.075 365.88 168.547 365.592 166.948C365.124 164.441 365.752 162.248 364.695 159.863C363.746 157.805 362.288 156.038 360.583 154.545C357.804 152.223 353.969 151.099 351.415 148.654C350.276 147.555 349.53 145.89 350.012 144.35C350.479 142.912 351.861 141.97 353.199 141.332C365.465 135.473 376.424 124.649 379.772 111.168C383.076 97.6298 377.866 83.381 367.08 76.4768C364.278 74.6706 361.475 73.5911 358.723 72.5188C356.755 71.7675 354.94 71.0382 353.459 70.1495C352.551 69.6032 349.393 67.7457 349.643 66.3801C350.046 63.9467 355.795 67.2685 356.994 67.5973C360.756 68.5039 363.959 69.3298 366.738 72.015C367.739 72.9902 368.798 74.2851 369.849 75.6308C372.932 79.45 376.71 84.2003 383.094 86.0046C383.842 86.2164 384.597 86.3774 385.411 86.4949C388.208 86.8987 390.889 86.6629 392.997 86.4481C394.472 86.2978 395.838 86.1836 396.862 86.2796L396.964 86.2943C398.896 86.5733 401.769 89.3241 403.115 92.9445C403.492 93.9332 403.657 94.9434 403.649 95.7208C403.63 98.7289 401.714 101.93 399.959 104.739C397.555 108.441 395.5 112.609 393.779 116.98C390.54 125.389 388.667 134.411 387.135 142.858L386.945 143.817C385.89 149.686 384.805 155.759 382.182 160.986C380.447 164.37 377.252 168.528 373.906 170.485C372.648 171.29 371.144 171.643 369.72 171.438Z" stroke="url(#paint36_linear_13_71765)" stroke-miterlimit="10"/>
<path d="M371.161 165.417C369.985 164.936 370.454 162.045 370.049 160.533C369.5 158.585 368.682 156.702 367.631 154.993C365.427 151.56 362.125 148.903 358.189 147.764C357.39 147.544 356.497 147.26 356.185 146.54C355.794 145.653 356.45 144.709 357.068 144.02C360.81 139.681 365.269 136.12 369.59 132.435C373.912 128.751 378.168 124.797 381.198 119.992C384.228 115.187 386.01 109.319 384.95 103.715C384.539 101.527 383.707 99.3827 383.296 97.195C382.151 90.3852 387.511 91.7302 392.365 91.5486C394.138 91.4931 396.208 91.5326 397.427 92.7987C398.421 93.8247 398.6 95.4597 398.25 96.8107C397.891 98.2124 397.141 99.4537 396.398 100.644C389.719 111.671 385.145 123.936 382.953 136.597C382.008 142.067 381.52 147.603 379.87 152.919C379.008 155.649 377.994 158.358 376.45 160.782C375.511 162.256 374.127 164.288 372.607 165.107C371.982 165.484 371.502 165.57 371.161 165.417Z" stroke="url(#paint37_linear_13_71765)" stroke-miterlimit="10"/>
<path d="M372.846 156.628C372.745 156.614 372.694 156.606 372.6 156.541C372.026 156.198 372.006 154.898 371.775 154.345C371.326 153.138 370.768 151.968 370.094 150.884C369.028 149.277 367.548 148.025 365.987 146.969C364.95 146.248 361.783 145.168 361.844 143.671C361.897 142.225 364.282 141.168 365.184 140.312C366.617 139.014 368.05 137.715 369.527 136.475C370.116 135.989 370.706 135.503 371.295 135.017C373.9 132.798 376.323 130.397 378.514 127.806C379.576 126.558 380.973 125.15 381.651 123.691C381.958 123.008 382.063 120.48 383.233 120.649C384.046 120.766 379.917 132.109 379.675 133.061C378.726 136.402 378.502 140.107 377.8 143.535C377.09 147.015 376.278 150.479 375.364 153.929C375.16 154.626 374.948 155.374 374.504 155.933C374.198 156.252 373.449 156.767 372.846 156.628Z" stroke="url(#paint38_linear_13_71765)" stroke-miterlimit="10"/>
<path d="M372.812 149.667C372.267 149.847 371.971 149.026 371.935 148.554C371.561 146.112 369.608 145.259 367.764 144.006C367.481 143.809 367.212 143.511 367.155 143.191C366.953 142.435 367.709 141.87 368.189 141.42C368.902 140.796 369.572 140.114 370.234 139.483C370.947 138.859 371.616 138.177 372.329 137.554C372.693 137.191 373.151 136.894 373.523 136.48C373.879 136.168 374.148 135.74 374.512 135.377C374.694 135.196 374.971 135.08 375.174 135.109C375.581 135.168 375.878 135.626 375.863 136.091C375.847 136.556 375.585 136.934 375.476 137.333C375.351 137.834 375.278 138.343 375.205 138.851C375 139.912 374.845 140.98 374.64 142.04C374.23 144.161 373.878 146.239 373.519 148.367C373.46 148.774 373.343 149.224 373.053 149.442C372.98 149.587 372.871 149.623 372.812 149.667Z" stroke="url(#paint39_linear_13_71765)" stroke-miterlimit="10"/>
<path d="M248.219 211.929C247.571 208.149 243.623 204.932 244.827 201.265C245.295 199.827 246.488 198.753 247.347 197.476C248.993 195.066 249.361 191.797 248.246 189.092C247.131 186.388 244.577 184.306 241.693 183.786C236.638 182.848 231.83 186.307 226.7 186.604C215.596 187.285 207.407 173.54 196.354 174.591C188.934 175.285 184.027 182.311 178.04 186.741C170.824 192.136 156.122 189.702 151.575 198.545C150.416 200.817 150.23 203.905 152.175 205.535C153.285 206.474 154.861 206.702 156.3 206.806C169.348 207.756 183.073 202.574 195.185 207.489C199.455 209.196 203.142 212.064 207.163 214.41C215.207 219.101 224.496 221.636 233.803 221.89C237.167 221.961 240.677 221.741 243.607 220.139C246.531 218.589 248.774 215.279 248.219 211.929Z" stroke="url(#paint40_linear_13_71765)" stroke-miterlimit="10"/>
<path d="M227.494 218.851C220.731 217.874 214.159 215.576 208.461 212.261C207.212 211.562 205.978 210.761 204.795 209.967C202.087 208.226 199.336 206.427 196.192 205.195C193.934 204.298 191.588 203.648 188.994 203.273C183.096 202.421 176.984 203.044 171.084 203.646C166.237 204.14 161.23 204.663 156.507 204.292C156.093 204.284 155.788 204.24 155.483 204.196C154.72 204.086 154.176 203.904 153.849 203.649C153.015 202.957 153.235 201.069 153.891 199.762C156.041 195.66 161.398 194.513 167.125 193.315C171.566 192.399 176.225 191.411 179.607 188.836C181.469 187.444 183.201 185.877 184.823 184.347C188.6 180.843 192.187 177.571 196.605 177.171C197.448 177.085 198.276 177.101 199.09 177.219C202.852 177.762 206.402 180.143 210.234 182.721C214.35 185.495 218.662 188.35 223.594 189.062C224.662 189.217 225.795 189.276 226.842 189.22C229.305 189.056 231.595 188.297 233.826 187.581C236.334 186.749 238.733 185.954 240.92 186.269C241.022 186.284 241.123 186.299 241.225 186.313C243.244 186.709 245.058 188.165 245.869 190.099C246.629 192.025 246.401 194.328 245.221 196.026C245.017 196.36 244.711 196.68 244.457 197.006C243.7 197.935 242.819 199.002 242.352 200.44C241.315 203.664 242.88 206.486 244.112 208.74C244.815 209.984 245.467 211.22 245.676 212.288C246.029 214.519 244.303 216.762 242.333 217.827C239.744 219.218 236.452 219.366 233.822 219.245C231.737 219.308 229.579 219.152 227.494 218.851Z" stroke="url(#paint41_linear_13_71765)" stroke-miterlimit="10"/>
<path d="M228.162 213.861C223.507 212.67 218.727 211.98 214.546 209.3C209.697 206.212 204.724 203.261 199.365 201.19C192.481 198.535 184.817 197.324 177.701 199.152C176.408 199.484 175.15 199.926 173.798 199.938C169.076 199.931 171.384 196.527 174.161 195.63C176.945 194.682 180.236 194.898 182.68 193.071C184.717 191.548 186.565 189.894 188.304 188.276C190.159 186.572 192.38 183.778 194.728 182.975C197.839 181.919 201.862 183.538 204.548 185.068C207.996 187.071 211.029 189.793 214.543 191.702C221.048 195.185 229.222 195.379 235.911 192.192C236.689 191.837 237.482 191.38 238.317 191.345C239.153 191.31 240.126 191.762 240.321 192.569C240.451 193.107 240.21 193.695 240.028 194.24C238.671 197.522 236.116 201.202 237.047 204.814C237.77 207.722 240.772 211.374 238.53 214.32C236.928 216.425 234.393 216.007 232.229 215.175C230.857 214.614 229.513 214.212 228.162 213.861Z" stroke="url(#paint42_linear_13_71765)" stroke-miterlimit="10"/>
<path d="M233.485 210.788C233.15 211.31 232.634 211.651 231.885 211.803C229.858 212.185 227.209 210.037 225.401 209.257C221.828 207.755 218.212 206.195 214.64 204.692C207.647 201.71 200.647 198.779 193.604 195.789C192.188 195.169 190.584 194.419 190.179 192.907C189.745 191.235 191.019 189.602 192.539 188.783C197.07 186.167 202.872 188.407 207.234 191.269C211.597 194.131 216.009 197.727 221.218 197.96C224.059 198.058 227.09 197.198 229.668 198.401C231.86 199.393 233.179 201.763 233.568 204.103C233.987 205.877 234.607 209.133 233.485 210.788Z" stroke="url(#paint43_linear_13_71765)" stroke-miterlimit="10"/>
<path d="M445.698 -78.6466C435.604 -82.8033 423.732 -77.8731 416.062 -70.0521C408.45 -62.2746 403.908 -52.0294 398.59 -42.5192C393.272 -33.009 386.456 -23.5591 376.387 -19.2511C373.675 -18.0854 370.76 -17.3123 368.164 -15.8704C365.903 -14.5877 363.982 -12.7887 361.64 -11.6733C355.453 -8.7254 347.98 -11.2579 342.501 -15.3713C337.079 -19.5283 332.953 -25.1074 327.729 -29.5474C321.161 -35.1156 312.913 -38.7464 304.384 -39.7183C299.946 -40.2554 295.244 -40.0518 291.311 -37.9724C287.326 -35.9004 284.282 -31.7199 284.574 -27.2655C285.05 -20.5003 292.779 -14.349 289.82 -8.23565C287.874 -4.10433 282.365 -3.34245 278.873 -0.368724C272.478 5.09281 274.998 15.6829 279.878 22.5129C284.757 29.3428 291.607 35.4709 292.953 43.7633C294.594 53.9669 287.329 63.2998 280.495 71.0858C277.882 74.0826 275.051 77.1518 271.249 78.3159C266.204 79.8196 260.802 77.3265 256.717 73.9854C252.631 70.6442 249.295 66.425 244.955 63.4104C241.696 61.1749 236.502 60.1136 234.463 63.4528C233.108 65.645 234.062 68.7417 235.934 70.5174C237.806 72.293 240.384 73.1325 242.868 73.9064C256.18 78.0607 270.457 83.0811 278.003 94.8122C284.701 105.227 295.752 100.957 304.915 95.0125C313.505 89.4526 319.432 75.7219 331.527 77.5202C337.469 78.4301 342.824 83.408 348.474 85.6253C353.085 87.485 357.812 89.2577 361.724 92.3661C365.635 95.4745 368.651 100.115 368.404 105.062C368.072 113.112 357.583 125.354 351.669 130.366C345.579 135.508 337.546 138.293 336.995 147.505C336.823 150.491 338.441 152.23 339.396 154.964C340.452 158.075 340.6 161.367 341.598 164.522C345.849 178.217 358.361 187.914 352.314 203.548C347.041 217.062 336.995 224.061 325.835 231.143C317.836 234.708 296.212 239.365 282.365 232.913C268.517 226.461 261.318 220.324 259.351 217.767" stroke="url(#paint44_linear_13_71765)" stroke-width="2" stroke-miterlimit="10"/>
<path d="M120.73 199.334C123.563 189.777 130.335 179.905 140.298 179.216C147.949 178.711 154.99 183.881 162.655 184.001C170.887 184.152 177.965 178.633 184.932 174.24C191.899 169.848 201.016 166.388 208.086 170.628C212.195 173.09 214.927 177.897 219.59 179.037C222.197 179.673 224.988 179.038 227.591 178.272C231.545 177.13 235.543 175.682 239.663 175.551C243.791 175.368 248.228 176.632 250.759 179.956C254.987 185.55 251.872 193.457 251.796 200.454C251.692 206.928 254.545 213.413 259.37 217.744" stroke="url(#paint45_linear_13_71765)" stroke-width="2" stroke-miterlimit="10"/>
</g>
</g>
<defs>
<filter id="filter0_f_13_71765" x="-314.936" y="-445.147" width="1241.2" height="1085.29" filterUnits="userSpaceOnUse" color-interpolation-filters="sRGB">
<feFlood flood-opacity="0" result="BackgroundImageFix"/>
<feBlend mode="normal" in="SourceGraphic" in2="BackgroundImageFix" result="shape"/>
<feGaussianBlur stdDeviation="200" result="effect1_foregroundBlur_13_71765"/>
</filter>
<linearGradient id="paint0_linear_13_71765" x1="186.745" y1="144.622" x2="246.255" y2="100.128" gradientUnits="userSpaceOnUse">
<stop stop-color="#86E7FF" stop-opacity="0.3"/>
<stop offset="1" stop-color="#86E7FF" stop-opacity="0.8"/>
</linearGradient>
<linearGradient id="paint1_linear_13_71765" x1="188.801" y1="143.07" x2="244.176" y2="101.669" gradientUnits="userSpaceOnUse">
<stop stop-color="#86E7FF" stop-opacity="0.3"/>
<stop offset="1" stop-color="#86E7FF" stop-opacity="0.8"/>
</linearGradient>
<linearGradient id="paint2_linear_13_71765" x1="173.685" y1="114.123" x2="264.999" y2="127.308" gradientUnits="userSpaceOnUse">
<stop stop-color="#26F7DD"/>
<stop offset="1" stop-color="#00B8DD"/>
</linearGradient>
<linearGradient id="paint3_linear_13_71765" x1="189.5" y1="112.772" x2="216.48" y2="92.6002" gradientUnits="userSpaceOnUse">
<stop stop-color="#86E7FF" stop-opacity="0.3"/>
<stop offset="1" stop-color="#86E7FF" stop-opacity="0.8"/>
</linearGradient>
<linearGradient id="paint4_linear_13_71765" x1="191.315" y1="111.328" x2="214.381" y2="94.0827" gradientUnits="userSpaceOnUse">
<stop stop-color="#86E7FF" stop-opacity="0.3"/>
<stop offset="1" stop-color="#86E7FF" stop-opacity="0.8"/>
</linearGradient>
<linearGradient id="paint5_linear_13_71765" x1="194.533" y1="106.847" x2="209.396" y2="95.7346" gradientUnits="userSpaceOnUse">
<stop stop-color="#86E7FF" stop-opacity="0.3"/>
<stop offset="1" stop-color="#86E7FF" stop-opacity="0.8"/>
</linearGradient>
<linearGradient id="paint6_linear_13_71765" x1="200.565" y1="100.931" x2="205.057" y2="97.5728" gradientUnits="userSpaceOnUse">
<stop stop-color="#86E7FF" stop-opacity="0.3"/>
<stop offset="1" stop-color="#86E7FF" stop-opacity="0.8"/>
</linearGradient>
<linearGradient id="paint7_linear_13_71765" x1="219.927" y1="150.302" x2="243.591" y2="132.61" gradientUnits="userSpaceOnUse">
<stop stop-color="#86E7FF" stop-opacity="0.3"/>
<stop offset="1" stop-color="#86E7FF" stop-opacity="0.8"/>
</linearGradient>
<linearGradient id="paint8_linear_13_71765" x1="226.783" y1="145.633" x2="239.692" y2="135.982" gradientUnits="userSpaceOnUse">
<stop stop-color="#86E7FF" stop-opacity="0.3"/>
<stop offset="1" stop-color="#86E7FF" stop-opacity="0.8"/>
</linearGradient>
<linearGradient id="paint9_linear_13_71765" x1="229.396" y1="144.36" x2="238.008" y2="137.921" gradientUnits="userSpaceOnUse">
<stop stop-color="#86E7FF" stop-opacity="0.3"/>
<stop offset="1" stop-color="#86E7FF" stop-opacity="0.8"/>
</linearGradient>
<linearGradient id="paint10_linear_13_71765" x1="248.859" y1="183.356" x2="359.622" y2="100.544" gradientUnits="userSpaceOnUse">
<stop stop-color="#86E7FF" stop-opacity="0.3"/>
<stop offset="1" stop-color="#86E7FF" stop-opacity="0.8"/>
</linearGradient>
<linearGradient id="paint11_linear_13_71765" x1="252.964" y1="180.284" x2="355.503" y2="103.62" gradientUnits="userSpaceOnUse">
<stop stop-color="#86E7FF" stop-opacity="0.3"/>
<stop offset="1" stop-color="#86E7FF" stop-opacity="0.8"/>
</linearGradient>
<linearGradient id="paint12_linear_13_71765" x1="264.78" y1="188.786" x2="356.898" y2="119.914" gradientUnits="userSpaceOnUse">
<stop stop-color="#86E7FF" stop-opacity="0.3"/>
<stop offset="1" stop-color="#86E7FF" stop-opacity="0.8"/>
</linearGradient>
<linearGradient id="paint13_linear_13_71765" x1="283.683" y1="190.109" x2="360.623" y2="132.585" gradientUnits="userSpaceOnUse">
<stop stop-color="#86E7FF" stop-opacity="0.3"/>
<stop offset="1" stop-color="#86E7FF" stop-opacity="0.8"/>
</linearGradient>
<linearGradient id="paint14_linear_13_71765" x1="299.909" y1="193.684" x2="321.413" y2="177.606" gradientUnits="userSpaceOnUse">
<stop stop-color="#86E7FF" stop-opacity="0.3"/>
<stop offset="1" stop-color="#86E7FF" stop-opacity="0.8"/>
</linearGradient>
<linearGradient id="paint15_linear_13_71765" x1="302.962" y1="191.893" x2="317.977" y2="180.667" gradientUnits="userSpaceOnUse">
<stop stop-color="#86E7FF" stop-opacity="0.3"/>
<stop offset="1" stop-color="#86E7FF" stop-opacity="0.8"/>
</linearGradient>
<linearGradient id="paint16_linear_13_71765" x1="307.403" y1="186.694" x2="312.752" y2="182.695" gradientUnits="userSpaceOnUse">
<stop stop-color="#86E7FF" stop-opacity="0.3"/>
<stop offset="1" stop-color="#86E7FF" stop-opacity="0.8"/>
</linearGradient>
<linearGradient id="paint17_linear_13_71765" x1="303.367" y1="143.909" x2="315.559" y2="134.794" gradientUnits="userSpaceOnUse">
<stop stop-color="#86E7FF" stop-opacity="0.3"/>
<stop offset="1" stop-color="#86E7FF" stop-opacity="0.8"/>
</linearGradient>
<linearGradient id="paint18_linear_13_71765" x1="348.282" y1="223.347" x2="382.063" y2="198.09" gradientUnits="userSpaceOnUse">
<stop stop-color="#86E7FF" stop-opacity="0.3"/>
<stop offset="1" stop-color="#86E7FF" stop-opacity="0.8"/>
</linearGradient>
<linearGradient id="paint19_linear_13_71765" x1="353.788" y1="223.477" x2="381.203" y2="202.981" gradientUnits="userSpaceOnUse">
<stop stop-color="#86E7FF" stop-opacity="0.3"/>
<stop offset="1" stop-color="#86E7FF" stop-opacity="0.8"/>
</linearGradient>
<linearGradient id="paint20_linear_13_71765" x1="363.986" y1="213.654" x2="384.618" y2="216.633" gradientUnits="userSpaceOnUse">
<stop stop-color="#26F7DD"/>
<stop offset="1" stop-color="#00B8DD"/>
</linearGradient>
<linearGradient id="paint21_linear_13_71765" x1="199.939" y1="16.5171" x2="384.062" y2="-121.142" gradientUnits="userSpaceOnUse">
<stop stop-color="#86E7FF" stop-opacity="0.3"/>
<stop offset="1" stop-color="#86E7FF" stop-opacity="0.8"/>
</linearGradient>
<linearGradient id="paint22_linear_13_71765" x1="205.58" y1="13.6631" x2="381.467" y2="-117.839" gradientUnits="userSpaceOnUse">
<stop stop-color="#86E7FF" stop-opacity="0.3"/>
<stop offset="1" stop-color="#86E7FF" stop-opacity="0.8"/>
</linearGradient>
<linearGradient id="paint23_linear_13_71765" x1="247.663" y1="19.2143" x2="278.324" y2="23.6416" gradientUnits="userSpaceOnUse">
<stop stop-color="#26F7DD"/>
<stop offset="1" stop-color="#00B8DD"/>
</linearGradient>
<linearGradient id="paint24_linear_13_71765" x1="256.696" y1="49.9974" x2="267.675" y2="41.7889" gradientUnits="userSpaceOnUse">
<stop stop-color="#86E7FF" stop-opacity="0.3"/>
<stop offset="1" stop-color="#86E7FF" stop-opacity="0.8"/>
</linearGradient>
<linearGradient id="paint25_linear_13_71765" x1="267.325" y1="59.4997" x2="355.906" y2="-6.72801" gradientUnits="userSpaceOnUse">
<stop stop-color="#86E7FF" stop-opacity="0.3"/>
<stop offset="1" stop-color="#86E7FF" stop-opacity="0.8"/>
</linearGradient>
<linearGradient id="paint26_linear_13_71765" x1="268.718" y1="58.9178" x2="353.203" y2="-4.24779" gradientUnits="userSpaceOnUse">
<stop stop-color="#86E7FF" stop-opacity="0.3"/>
<stop offset="1" stop-color="#86E7FF" stop-opacity="0.8"/>
</linearGradient>
<linearGradient id="paint27_linear_13_71765" x1="273.488" y1="54.8957" x2="349.743" y2="-2.11626" gradientUnits="userSpaceOnUse">
<stop stop-color="#86E7FF" stop-opacity="0.3"/>
<stop offset="1" stop-color="#86E7FF" stop-opacity="0.8"/>
</linearGradient>
<linearGradient id="paint28_linear_13_71765" x1="303.048" y1="11.7955" x2="359.338" y2="19.9234" gradientUnits="userSpaceOnUse">
<stop stop-color="#26F7DD"/>
<stop offset="1" stop-color="#00B8DD"/>
</linearGradient>
<linearGradient id="paint29_linear_13_71765" x1="316.164" y1="24.1733" x2="342.902" y2="4.18251" gradientUnits="userSpaceOnUse">
<stop stop-color="#86E7FF" stop-opacity="0.3"/>
<stop offset="1" stop-color="#86E7FF" stop-opacity="0.8"/>
</linearGradient>
<linearGradient id="paint30_linear_13_71765" x1="320.623" y1="15.1145" x2="336.493" y2="3.24955" gradientUnits="userSpaceOnUse">
<stop stop-color="#86E7FF" stop-opacity="0.3"/>
<stop offset="1" stop-color="#86E7FF" stop-opacity="0.8"/>
</linearGradient>
<linearGradient id="paint31_linear_13_71765" x1="365.678" y1="41.0939" x2="449.596" y2="-21.6481" gradientUnits="userSpaceOnUse">
<stop stop-color="#86E7FF" stop-opacity="0.3"/>
<stop offset="1" stop-color="#86E7FF" stop-opacity="0.8"/>
</linearGradient>
<linearGradient id="paint32_linear_13_71765" x1="370.703" y1="6.62698" x2="445.502" y2="17.4273" gradientUnits="userSpaceOnUse">
<stop stop-color="#26F7DD"/>
<stop offset="1" stop-color="#00B8DD"/>
</linearGradient>
<linearGradient id="paint33_linear_13_71765" x1="371.289" y1="34.215" x2="438.454" y2="-16.0011" gradientUnits="userSpaceOnUse">
<stop stop-color="#86E7FF" stop-opacity="0.3"/>
<stop offset="1" stop-color="#86E7FF" stop-opacity="0.8"/>
</linearGradient>
<linearGradient id="paint34_linear_13_71765" x1="332.48" y1="137.582" x2="406.023" y2="82.5982" gradientUnits="userSpaceOnUse">
<stop stop-color="#86E7FF" stop-opacity="0.3"/>
<stop offset="1" stop-color="#86E7FF" stop-opacity="0.8"/>
</linearGradient>
<linearGradient id="paint35_linear_13_71765" x1="337.18" y1="134.854" x2="402.282" y2="86.1808" gradientUnits="userSpaceOnUse">
<stop stop-color="#86E7FF" stop-opacity="0.3"/>
<stop offset="1" stop-color="#86E7FF" stop-opacity="0.8"/>
</linearGradient>
<linearGradient id="paint36_linear_13_71765" x1="340.168" y1="134.47" x2="401.105" y2="88.9096" gradientUnits="userSpaceOnUse">
<stop stop-color="#86E7FF" stop-opacity="0.3"/>
<stop offset="1" stop-color="#86E7FF" stop-opacity="0.8"/>
</linearGradient>
<linearGradient id="paint37_linear_13_71765" x1="358.765" y1="125.005" x2="393.731" y2="130.054" gradientUnits="userSpaceOnUse">
<stop stop-color="#26F7DD"/>
<stop offset="1" stop-color="#00B8DD"/>
</linearGradient>
<linearGradient id="paint38_linear_13_71765" x1="364.912" y1="148.558" x2="390.313" y2="129.567" gradientUnits="userSpaceOnUse">
<stop stop-color="#86E7FF" stop-opacity="0.3"/>
<stop offset="1" stop-color="#86E7FF" stop-opacity="0.8"/>
</linearGradient>
<linearGradient id="paint39_linear_13_71765" x1="368.868" y1="146.155" x2="378.543" y2="138.922" gradientUnits="userSpaceOnUse">
<stop stop-color="#86E7FF" stop-opacity="0.3"/>
<stop offset="1" stop-color="#86E7FF" stop-opacity="0.8"/>
</linearGradient>
<linearGradient id="paint40_linear_13_71765" x1="169.695" y1="229.662" x2="239.901" y2="177.173" gradientUnits="userSpaceOnUse">
<stop stop-color="#86E7FF" stop-opacity="0.3"/>
<stop offset="1" stop-color="#86E7FF" stop-opacity="0.8"/>
</linearGradient>
<linearGradient id="paint41_linear_13_71765" x1="171.755" y1="228.125" x2="237.846" y2="178.712" gradientUnits="userSpaceOnUse">
<stop stop-color="#86E7FF" stop-opacity="0.3"/>
<stop offset="1" stop-color="#86E7FF" stop-opacity="0.8"/>
</linearGradient>
<linearGradient id="paint42_linear_13_71765" x1="171.66" y1="192.739" x2="240.943" y2="202.743" gradientUnits="userSpaceOnUse">
<stop stop-color="#26F7DD"/>
<stop offset="1" stop-color="#00B8DD"/>
</linearGradient>
<linearGradient id="paint43_linear_13_71765" x1="201.325" y1="208.57" x2="225.206" y2="190.715" gradientUnits="userSpaceOnUse">
<stop stop-color="#86E7FF" stop-opacity="0.3"/>
<stop offset="1" stop-color="#86E7FF" stop-opacity="0.8"/>
</linearGradient>
<linearGradient id="paint44_linear_13_71765" x1="234.93" y1="54.3957" x2="422.724" y2="81.5119" gradientUnits="userSpaceOnUse">
<stop stop-color="#26F7DD"/>
<stop offset="1" stop-color="#00B8DD"/>
</linearGradient>
<linearGradient id="paint45_linear_13_71765" x1="123.239" y1="178.312" x2="262.402" y2="198.407" gradientUnits="userSpaceOnUse">
<stop stop-color="#26F7DD"/>
<stop offset="1" stop-color="#00B8DD"/>
</linearGradient>
</defs>
</svg>
