<svg width="1237" height="969" viewBox="0 0 1237 969" fill="none" xmlns="http://www.w3.org/2000/svg">
<g opacity="0.7">
<mask id="mask0_15_2095" style="mask-type:alpha" maskUnits="userSpaceOnUse" x="400" y="-157" width="1122" height="726">
<ellipse opacity="0.3" cx="961.064" cy="206.328" rx="577.105" ry="335.743" transform="rotate(16.9402 961.064 206.328)" fill="#389989"/>
</mask>
<g mask="url(#mask0_15_2095)">
<g opacity="0.65" filter="url(#filter0_f_15_2095)">
<ellipse cx="961.064" cy="206.328" rx="577.105" ry="335.743" transform="rotate(16.9402 961.064 206.328)" fill="#389989"/>
</g>
<path d="M764.556 397.284C750.855 395.306 737.555 384.149 730.91 368.939C726.032 357.942 724.406 346.359 722.742 335.035C722.158 330.86 721.444 326.666 720.73 322.473C717.542 305.254 711.206 293.387 701.907 287.426C697.811 284.723 692.771 283.072 686.696 282.195C680.104 281.243 673.233 281.307 665.956 281.443C662.262 281.438 658.291 281.524 654.486 281.371C651.735 281.237 648.853 281.085 646.139 280.693C624.424 277.558 610.071 266.38 607.583 250.715C605.497 237.746 612.626 225.844 618.252 217.947C619.585 216.029 621.066 213.999 622.528 212.099C629.098 203.151 635.335 194.683 636.974 185.155C637.495 182.46 637.537 179.431 637.708 176.42C637.863 171.693 638.055 166.706 639.577 161.648C645.703 141.156 669.652 132.474 690.688 133.005C693.181 133.101 695.822 133.086 698.186 133.164C709.12 133.291 719.499 133.602 728.806 134.946C755.433 138.791 769.837 152.35 776.611 180.379C778.373 187.363 779.452 194.512 780.568 201.403C782.143 210.603 783.515 219.378 786.125 227.804C792.962 249.904 808.629 271.167 831.448 289.505C833.219 290.948 835.009 292.262 836.78 293.706C847.922 302.44 859.433 311.36 865.379 325.017C869.722 335.145 868.723 348.46 862.873 357.908C858.244 365.289 851.404 369.711 843.406 370.271C841.411 370.379 839.305 370.339 836.979 370.003C835.686 369.817 834.394 369.63 833.12 369.314C831.956 369.146 830.941 368.867 829.778 368.699C828.873 368.569 827.968 368.438 827.303 368.474C818.641 368.147 810.856 374.544 802.608 381.402C793.917 388.592 784.782 396.114 772.959 397.574C770.17 397.699 767.4 397.695 764.556 397.284Z" stroke="url(#paint0_linear_15_2095)" stroke-miterlimit="10"/>
<path d="M859.484 327.465C853.355 313.253 839.627 304.145 827.434 294.467C806.145 277.406 787.912 255.64 779.917 229.679C775.175 214.083 774.11 197.699 770.2 181.828C759.498 138.058 730.387 140.452 690.402 139.561C672.247 139.183 650.923 146.132 645.762 163.596C643.516 170.925 644.631 178.739 643.271 186.328C640.924 199.844 631.303 210.727 623.363 221.852C617.551 230.118 612.199 239.769 613.791 249.763C616.462 266.907 637.136 274.511 654.497 274.906C671.839 275.431 690.719 272.615 705.332 281.983C718.248 290.313 724.153 306.077 726.975 321.263C729.796 336.449 730.567 352.131 736.714 366.214C742.991 380.315 756.788 392.6 772.102 390.72C793.179 388.222 806.223 360.944 827.499 361.641C832.744 361.87 837.875 363.799 843.066 363.493C858.618 362.703 865.594 341.806 859.484 327.465Z" stroke="url(#paint1_linear_15_2095)" stroke-miterlimit="10"/>
<path d="M767.355 377.896C760.375 376.888 752.794 369.987 748.8 361.098C745.008 352.633 743.545 342.657 742.01 332.275C741.314 327.952 740.767 323.519 739.832 319.029C735.599 296.25 726.315 280.131 712.31 271.115C705.797 266.876 698.266 264.205 689.347 262.917C681.333 261.76 673.261 261.914 665.467 261.976C661.773 261.97 658.19 262.113 654.773 262.015C652.797 261.994 650.71 261.825 648.642 261.526C639.206 260.163 627.836 255.751 626.592 247.918C625.915 243.466 628.214 237.596 633.859 229.57C635.173 227.78 636.506 225.862 637.949 224.091C645.315 214.202 653.532 202.985 655.973 188.823C656.681 184.834 656.853 180.901 656.951 177.484C657.085 173.809 657.202 170.263 657.981 167.604C660.264 160.017 671.912 152.462 689.808 152.803C692.43 152.918 694.942 152.884 697.436 152.981C708.221 153.218 717.567 153.38 725.71 154.556C741.867 156.889 751.759 162.408 757.302 185.244C758.899 191.545 759.942 198.029 761.077 204.791C762.614 214.249 764.244 223.985 767.184 233.779C775.198 259.611 793.021 284.221 819.05 305.001C820.821 306.444 822.721 307.906 824.621 309.368C834.232 316.826 843.364 323.95 847.21 332.951C849.088 337.312 848.561 343.702 846.098 347.965C844.358 350.88 842.621 351.025 842.104 350.951C841.569 351.005 840.793 350.893 839.63 350.725C838.596 350.576 837.562 350.427 836.546 350.148C835.254 349.961 833.85 349.627 832.299 349.403C830.619 349.16 829.178 349.084 827.738 349.008C811.597 348.393 800.057 357.943 789.868 366.368C782.989 371.972 776.535 377.374 770.346 378.196C769.571 378.084 768.518 378.064 767.355 377.896Z" stroke="url(#paint2_linear_15_2095)" stroke-miterlimit="10"/>
<path d="M724.506 182.092C716.602 169.207 703.039 160.783 686.923 168.22C679.142 171.847 677.298 181.873 672.208 188.791C666.619 196.429 656.529 200.514 652.766 209.208C648.948 218.289 653.623 228.86 660.076 236.258C664.372 241.233 667.623 241.57 673.571 240.582C679.52 239.593 684.118 239.729 690.248 241.142C703.8 244.155 716.517 250.213 730.459 251.435C735.538 251.904 741.301 251.285 744.391 247.245C747.815 242.725 746.088 236.406 744.213 231.121C738.272 214.692 733.681 197.14 724.506 182.092Z" stroke="url(#paint3_linear_15_2095)" stroke-miterlimit="10"/>
<path d="M727.754 244.579C715.402 242.4 703.81 237.691 691.68 234.884C690.147 234.531 688.596 234.307 687.174 234.101C677.609 232.72 666.89 237.506 660.589 227.228C657.825 222.606 657.483 216.751 659.522 211.767C662.86 203.276 672.302 200.021 677.558 192.863C679.687 190.003 681.187 186.921 682.669 183.968C684.892 179.539 686.764 175.719 689.739 174.301C693.842 172.386 697.759 171.764 701.507 172.306C710.426 173.593 716.325 181.175 718.978 185.648C725.684 196.777 730.134 209.823 734.233 222.555C735.723 226.86 736.991 230.87 738.758 235.084C740.028 238.17 740.354 242.308 737.691 244.299C735.768 245.736 733.146 245.622 730.819 245.286C729.823 244.878 728.788 244.728 727.754 244.579Z" stroke="url(#paint4_linear_15_2095)" stroke-miterlimit="10"/>
<path d="M721.26 228.335C720.354 229.127 718.987 229.458 717.675 229.4C715.976 229.287 714.371 228.527 712.765 227.768C705.696 224.636 698.348 222.519 690.703 221.547C686.826 220.987 682.781 220.667 678.921 220.902C676.409 220.935 672.233 222.443 671.296 218.877C670.322 215.569 675.535 212.364 677.773 210.575C681.064 207.884 684.929 204.879 688.186 200.599C690.962 196.909 691.928 192.958 694.317 189.213C695.354 187.515 696.87 186.151 698.773 185.766C701.36 185.215 703.925 186.641 705.621 188.602C709.124 192.67 711.645 198.972 713.854 203.778C716.56 209.71 718.989 215.735 721.676 221.797C722.468 223.627 723.241 225.586 722.333 227.302C722.018 227.652 721.704 228.003 721.26 228.335Z" stroke="url(#paint5_linear_15_2095)" stroke-miterlimit="10"/>
<path d="M706.411 215.107C706.096 215.458 705.652 215.789 705.117 215.844C704.581 215.899 703.935 215.805 703.418 215.731C700.574 215.32 697.786 214.522 694.998 213.723C694.371 213.501 693.595 213.389 693.153 212.797C692.581 212.187 692.435 211.374 692.805 210.636C693.213 209.639 694.691 209.456 695.357 208.497C696.172 207.427 696.635 206.042 697.099 204.658C697.674 203.421 699.822 199.509 701.314 201.968C701.627 202.541 701.663 203.206 701.847 203.76C702.323 206.864 703.74 209.839 705.639 212.225C706.192 212.964 706.856 213.852 706.596 214.738C706.429 214.978 706.429 214.978 706.411 215.107Z" stroke="url(#paint6_linear_15_2095)" stroke-miterlimit="10"/>
<path d="M797.177 296.565C788.928 292.47 781.031 286.844 773.504 281.402C759.039 271.001 752.666 284.068 749.341 297.047C747.129 305.964 746.838 315.291 748.838 324.288C750.635 332.861 758.435 340.981 757.831 349.734C757.493 353.908 756.006 359.631 760.012 361.133C763.261 362.394 766.147 358.852 768.866 356.474C774.432 351.735 782.448 351.969 789.634 350.632C802.511 348.268 814.586 338.664 816.969 325.813C819.093 313.848 809.377 302.548 797.177 296.565Z" stroke="url(#paint7_linear_15_2095)" stroke-miterlimit="10"/>
<path d="M770.571 340.094C770.441 340.075 770.331 339.927 770.202 339.909C766.936 337.853 766.446 332.109 764.807 328.837C763.481 326.139 762.026 323.421 761.641 321.519C759.936 313.223 759.342 302.713 763.491 294.999C766.769 288.743 773.313 297.341 777.169 299.877C781.745 302.913 786.469 305.838 791.526 308.284C799.407 312.193 805.048 318.813 804.118 323.429C802.889 330.114 795.658 336.327 787.252 337.884C785.903 338.085 784.278 338.378 782.67 338.542C779.05 338.943 774.133 341.928 770.571 340.094Z" stroke="url(#paint8_linear_15_2095)" stroke-miterlimit="10"/>
<path d="M774.238 332.97C771.358 331.894 771.881 328.275 770.628 325.983C769.689 324.264 768.271 321.288 768.033 320.198C767.244 316.522 766.862 312.772 766.886 308.949C766.962 307.508 766.84 302.872 768.522 302.191C770.204 301.51 776.751 307.338 778.338 308.227C782.841 310.856 787.454 313.634 791.957 316.263C794.153 317.504 796.441 319.022 796.88 321.461C797.265 323.364 796.32 325.338 794.933 326.721C793.546 328.105 791.716 328.896 789.776 329.54C786.283 330.883 782.828 331.967 779.28 332.774C777.636 333.197 775.881 333.471 774.257 332.841C774.367 332.989 774.367 332.989 774.238 332.97Z" stroke="url(#paint9_linear_15_2095)" stroke-miterlimit="10"/>
<path d="M1035.07 374.328C1022.41 355.083 1015.55 327.7 1030.7 310.491C1038.14 301.933 1049.41 297.886 1059.08 292.157C1085.48 276.571 1102.76 243.703 1094.07 214.342C1085.24 184.963 1046.26 167.063 1020.94 184.386C1005.26 195.185 1000.4 205.041 981.929 207.783C967.908 209.849 950.145 206.756 941.129 220.761C935.168 230.061 934.886 245.722 923.839 247.294C920.735 247.77 917.597 246.657 914.755 245.323C888.103 233.425 874.129 204.093 851.291 185.885C842.879 179.26 832.562 173.944 821.886 174.777C811.191 175.74 800.797 184.664 801.483 195.451C802.133 205.573 811.302 212.439 817.976 220.133C831.417 235.796 835.133 257.577 846.374 274.771C856.84 290.929 873.279 302.276 886.112 316.664C926.493 361.421 882.459 412.33 829.724 390.993C826.734 389.769 823.652 388.268 820.383 388.06C796.707 386.621 834.457 412.129 835.173 415.399C837.155 423.602 835.258 432.169 836.15 440.611C837.863 456.165 849.442 469.185 863.098 476.963C876.754 484.74 892.245 488.033 907.569 491.565C934.876 498.015 958.124 513.38 986.341 516.267C1011.57 518.853 1039.09 512.8 1056.78 494.505C1072.43 478.423 1078.38 453.683 1071.98 432.175C1065.4 410.112 1047.6 393.555 1035.07 374.328Z" stroke="url(#paint10_linear_15_2095)" stroke-miterlimit="10"/>
<path d="M994.893 503.646C992.529 503.569 990.165 503.491 987.709 503.137C973.268 501.711 959.794 496.335 945.562 490.717C934.45 486.342 923.098 481.8 910.599 478.807L907.922 478.157C894.001 474.959 880.855 471.873 869.635 465.503C857.917 458.929 850.378 448.999 849.303 439.08C848.447 431.303 845.416 420.309 850.728 412.763C858.687 401.508 872.733 407.495 883.527 402.192C895.172 396.484 904.845 387.061 910.238 375.304C920.077 353.765 914.87 328.602 895.989 307.666C890.752 301.896 885.053 296.586 879.704 291.591C871.202 283.766 863.179 276.274 857.448 267.529C853.247 260.985 850.1 253.537 846.769 245.535C841.984 233.892 836.979 221.953 827.944 211.412C826.248 209.451 824.533 207.62 822.818 205.789C818.927 201.665 814.797 197.374 814.58 194.307C814.417 191.777 818.542 187.886 823.086 187.486C823.622 187.432 824.287 187.396 824.804 187.47C830.197 187.589 836.509 190.48 843.261 195.81C851.433 202.268 858.531 210.682 865.979 219.411C878.166 233.706 890.795 248.593 909.511 256.969C912.612 258.341 916.857 260.009 921.862 260.072C923.173 260.13 924.503 260.058 925.723 259.838C940.815 257.663 945.841 243.874 948.772 235.456C949.866 232.447 950.998 229.18 952.183 227.372C955.237 222.666 960.632 221.862 972.453 221.326C976.184 221.073 980.045 220.838 983.942 220.345C1000.53 217.859 1009.11 210.521 1017.38 203.533C1020.69 200.712 1024.15 197.781 1028.4 194.832C1032.95 191.662 1038.44 190.212 1044.62 190.313C1060.93 190.689 1077.13 202.792 1081.71 217.704C1084.9 228.458 1083.65 240.812 1078.12 252.55C1072.62 264.159 1063.52 274.193 1052.69 280.678C1050.25 282.041 1047.81 283.404 1045.09 284.859C1037.1 288.984 1028.1 293.754 1021.02 301.704C1008.07 316.46 1001.26 346.222 1024.3 381.349C1028.63 387.912 1033.29 393.996 1037.97 399.95C1047.21 411.84 1055.89 422.99 1059.73 435.684C1064.8 452.647 1059.95 472.531 1047.71 485.146C1035.5 497.502 1016.45 504.251 994.893 503.646Z" stroke="url(#paint11_linear_15_2095)" stroke-miterlimit="10"/>
<path d="M992.622 491.046C982.225 489.941 971.869 486.73 961.752 483.686C938.897 476.559 916.172 469.451 893.318 462.325C884.734 459.634 868.787 452.185 863.054 445.287C858.758 440.312 858.328 431.41 863.855 427.853C866.777 425.9 870.6 425.924 874.202 425.652C895.795 424.152 914.213 408.998 922.462 389.34C932.156 366.065 928.06 338.687 916.218 316.524C906.751 298.927 885.848 283.769 871.795 269.601C869.951 267.751 868.107 265.901 867.409 263.425C866.711 260.949 867.695 257.792 870.06 256.946C873.386 255.843 876.207 259.153 878.308 261.964C891.802 279.087 918.283 282.119 937.743 274.373C949.367 269.717 954.682 260.324 963.836 252.673C968.496 248.728 974.152 246.114 979.549 243.462C994.298 236.355 1009.03 229.377 1023.65 222.252C1033.28 217.704 1044.64 213.012 1054.11 217.81C1062.95 222.385 1066.26 234.21 1063.55 243.847C1060.84 253.484 1053.29 260.971 1045.19 266.796C1037.09 272.62 1028 277.113 1020.01 283.085C1004.61 294.716 993.777 312.153 990 331.005C986.351 349.875 989.756 370.16 999.649 386.631C1008.03 400.772 1020.8 411.984 1030.03 425.721C1039.28 439.328 1044.81 457.677 1037.03 472.256C1030.51 484.51 1016.13 490.879 1002.19 491.504C999.159 491.463 995.872 491.384 992.622 491.046Z" stroke="url(#paint12_linear_15_2095)" stroke-miterlimit="10"/>
<path d="M1010.36 473.288C1005.8 472.894 1001.33 471.853 996.882 470.682C970.167 463.79 943.562 457.045 916.847 450.153C913.912 449.465 910.755 448.482 909.281 445.894C907.476 442.862 908.867 438.708 911.457 436.311C914.046 433.914 917.52 432.7 920.773 431.191C953.338 416.76 962.98 379.226 957.506 346.767C956.078 338.38 953.708 330.12 950.507 322.137C947.729 314.874 925.846 300.102 945.543 294.37C949.276 293.193 953.302 293.642 957.31 293.298C969.114 291.967 976.261 279.936 984.417 272.8C992.869 265.444 1002.89 260.029 1012.94 255.279C1021.72 251.136 1035.98 248.314 1042.97 241.934C1045.1 239.998 1047.01 237.766 1049.56 236.55C1052.11 235.335 1055.75 235.729 1057.11 238.169C1058.05 239.888 1057.58 242.196 1056.42 243.875C1055.25 245.554 1053.49 246.752 1051.76 247.82C1035.86 258.324 1018.43 267.551 1005.79 281.956C994.135 295.052 985.984 311.293 982.579 328.483C978 351.969 982.376 377.408 994.59 397.909C1000.12 407.152 1006.66 414.827 1012.99 422.206C1017.61 427.624 1021.91 432.599 1025.5 437.868C1033 448.98 1037.8 466.958 1020.69 472.14C1017.47 473.391 1013.87 473.663 1010.36 473.288Z" stroke="url(#paint13_linear_15_2095)" stroke-miterlimit="10"/>
<path d="M1010.47 452.454C1007.31 452.394 1003.63 451.336 1001.42 451.148C990.614 450.116 979.922 449.232 969.119 448.2C961.049 447.43 951.556 447.379 943.932 444.431C941.311 443.393 939.043 440.822 939.325 437.96C939.625 434.968 943.544 432.499 945.45 430.267C948.503 426.485 951.316 422.537 953.76 418.404C957.945 411.355 961.004 403.879 963.712 396.089C965.307 391.437 968.521 379.234 974.948 379.502C983.499 379.681 981.883 398.185 985.051 403.657C991.958 416.134 1001.51 427.673 1011.1 438.031C1013.38 440.472 1015.65 443.043 1016.24 446.294C1017.23 451.319 1014.14 452.589 1010.47 452.454Z" stroke="url(#paint14_linear_15_2095)" stroke-miterlimit="10"/>
<path d="M1006.84 443.75C1006.14 444.968 1004.27 445.094 1002.72 444.87C993.616 443.951 984.383 443.014 975.279 442.095C968.132 441.327 960.41 442.719 953.154 440.88C948.317 439.654 948.762 438.398 951.058 434.376C952.817 431.331 954.927 428.6 956.797 425.704C959.907 420.611 962.667 415.203 965.04 409.74C966.615 406.141 967.736 397.462 972.134 396.249C977.252 394.613 979.345 402.965 980.707 406.328C985.859 419.08 994.246 430.451 1004.85 439.24C1006.14 440.35 1007.75 442.033 1006.84 443.75ZM1006.84 443.75C1006.86 443.62 1006.86 443.62 1006.84 443.75Z" stroke="url(#paint15_linear_15_2095)" stroke-miterlimit="10"/>
<path d="M980.945 432.094C977.289 431.829 967.662 434.53 964.97 431.238C961.947 427.503 966.85 421.877 969.089 419.166C974.029 413.281 977.192 422.447 979.938 426.274C980.823 427.458 984.971 432.543 980.945 432.094Z" stroke="url(#paint16_linear_15_2095)" stroke-miterlimit="10"/>
<path d="M967.016 335.736C960.808 337.61 963.636 323.504 961.226 317.35C959.699 313.303 950.501 313.954 953.818 306.515C957.006 299.059 956.071 306.445 957.291 306.225C967.081 305.132 972.772 291.307 979.97 294.457C987.169 297.608 970.668 315.018 968.527 326.189C967.802 329.383 973.225 333.861 967.016 335.736Z" stroke="url(#paint17_linear_15_2095)" stroke-miterlimit="10"/>
<path d="M1093.12 412.795L1092.98 412.905C1090.78 414.435 1089.83 417.333 1089.71 419.956C1089.37 429.67 1094.54 440.445 1096.76 449.739C1099.41 460.677 1101.49 471.799 1103.07 482.846C1106.36 505.753 1110.87 534.775 1104.3 557.446C1102.93 562.393 1101.42 568.246 1104.54 572.259C1108.11 576.734 1114.93 576.134 1120.47 574.296C1133.21 570.196 1141.18 562.506 1151.09 554.173C1161.46 545.379 1175.18 539.969 1186.95 533.357C1191.98 530.52 1197.71 526.465 1196.96 520.683C1196.31 515.178 1190.09 512.565 1184.84 510.488C1144.07 494.044 1128.44 450.618 1103.9 417.65C1101.6 414.414 1097.67 409.625 1093.12 412.795Z" stroke="url(#paint18_linear_15_2095)" stroke-miterlimit="10"/>
<path d="M1110.89 559.321C1110.86 555.885 1112.45 552.157 1112.9 549.055C1113.95 541.816 1114.33 534.614 1114.19 527.337C1113.99 513.189 1111.92 499.167 1109.97 485.294L1109.51 482.061C1107.45 468.04 1104.53 454.423 1100.69 440.805C1100.36 439.438 1099.94 437.794 1100.88 436.742C1104.17 433.127 1115.38 446.886 1116.75 449.326C1124.87 462.506 1133.11 475.835 1143.28 487.597C1154.59 500.709 1167.08 508.319 1182.03 516.283C1183.87 517.209 1185.5 518.763 1186.12 520.833C1187 523.863 1185.19 527.296 1182.54 529.157C1177.83 532.567 1170.83 534.459 1165.67 537.277C1159.09 540.813 1152.6 544.626 1146.76 549.457C1145.55 550.471 1144.5 551.374 1143.3 552.388C1137.58 557.237 1130.35 564.374 1123.24 567.041C1119.74 568.384 1115.31 568.008 1112.8 565.271C1111.38 563.219 1111 561.316 1110.89 559.321Z" stroke="url(#paint19_linear_15_2095)" stroke-miterlimit="10"/>
<path d="M1120.53 537.357C1118.87 536.062 1118.26 532.939 1118.14 531.074C1117.94 525.108 1122.12 519.906 1122.06 513.958C1121.82 501.916 1116.06 490.659 1114.21 478.781C1113.93 477.026 1113.66 475.271 1114.03 473.609C1114.27 471.929 1115.18 470.212 1116.64 469.236C1122.28 465.827 1125.83 475.049 1127.43 478.579C1130.45 485.085 1135.61 490.449 1141.33 494.705C1146.57 498.629 1152.42 501.057 1157.87 504.482C1161.61 506.87 1162.42 511.341 1157.45 512.867C1151.37 514.76 1146.12 516.377 1140.83 520.1C1138.49 521.74 1136.23 523.658 1134.1 525.594C1132.11 527.549 1130.49 530.483 1128.28 532.142C1126.96 533.931 1124.37 538.175 1121.77 537.931C1121.4 537.746 1120.9 537.542 1120.53 537.357Z" stroke="url(#paint20_linear_15_2095)" stroke-miterlimit="10"/>
<path d="M1208.08 -280.117C1201.28 -296.934 1188.46 -310.528 1174.72 -322.277C1103.11 -383.814 1004.39 -404.667 910.027 -404.569C890.228 -404.525 869.892 -403.503 852.037 -394.997C830.486 -384.649 814.699 -363.045 811.265 -339.262C805.217 -296.459 852.601 -266.393 845.264 -226.547C840.72 -201.473 823.603 -179.797 827.275 -153.14C829.156 -138.749 839.756 -125.343 837.148 -110.941C834.186 -94.0825 815.242 -85.3381 806.281 -70.7977C786.932 -39.1517 819.294 8.14188 795.997 36.9746C788.781 45.829 777.951 50.467 769.13 57.6384C760.309 64.8097 753.383 77.1368 758.521 87.2474C767.655 105.324 796.948 92.5321 814.849 101.978C828.081 109.035 831.84 126.864 843.85 135.987C857.631 146.554 878.878 141.969 890.736 129.298C902.575 116.757 906.666 98.4782 906.784 81.2094C906.898 66.7111 904.427 51.8395 897.28 39.1956C885.915 19.213 862.336 2.48114 866.027 -20.3415C869.44 -42.1488 897.07 -54.3894 899.707 -76.3087C902.399 -97.6922 879.803 -116.657 883.639 -137.744C885.221 -145.96 890.736 -153.081 897.411 -158.187C926.275 -179.882 967.863 -164.508 997.309 -143.631C1026.75 -122.753 1055.71 -95.7438 1091.71 -94.6369C1124.29 -93.6274 1156.01 -117.812 1163.62 -149.438C1167.87 -167.033 1165.7 -186.743 1175.9 -201.633C1183.23 -212.186 1195.6 -218.318 1203.41 -228.538C1214.44 -242.78 1214.89 -263.299 1208.08 -280.117Z" stroke="url(#paint21_linear_15_2095)" stroke-miterlimit="10"/>
<path d="M862.643 129.2C859.8 128.79 857.437 127.789 855.408 126.308C851.847 123.551 848.844 118.763 845.619 113.679C840.571 105.693 834.896 96.5601 824.598 91.1146C820.187 88.7623 815.258 87.2588 809.313 86.4003C803.496 85.5604 797.826 85.5334 792.285 85.5251C787.797 85.5368 783.457 85.4379 779.967 84.934C774.796 84.1874 774.189 82.9121 773.784 82.0619C772.348 79.2155 775.793 72.7194 781.026 68.4608C783.726 66.2116 786.924 64.1664 790.27 62.0105C796.815 57.8093 804.099 53.0551 809.891 45.8423C825.619 26.473 822.109 2.34664 819.002 -19.0826C816.571 -36.0597 814.268 -52.0946 821.174 -63.369C823.785 -67.7424 828.205 -71.8544 832.792 -76.2063C841.355 -84.3384 851.14 -93.6138 853.747 -108.016C855.908 -120.24 851.898 -130.847 848.236 -140.217C846.323 -145.243 844.502 -149.993 843.936 -154.297C842.146 -167.487 846.948 -179.725 852.399 -193.716C856.125 -203.075 859.926 -212.95 861.863 -223.623C866.333 -248.18 854.433 -269.032 843.915 -287.572C834.446 -304.246 825.494 -319.922 827.958 -336.984C830.738 -356.243 843.897 -374.268 861.475 -382.682C877.351 -390.286 896.837 -390.903 913.866 -390.951C941.589 -391.039 968.496 -389.133 993.831 -385.475C1065.96 -375.06 1125.19 -350.278 1170.05 -311.867C1179.79 -303.468 1193.36 -290.556 1199.78 -274.718C1205.41 -260.709 1204.26 -245.437 1196.82 -235.955C1194.05 -232.265 1190.02 -229.02 1185.67 -225.425C1180 -220.835 1173.69 -215.544 1168.84 -208.459C1160.31 -195.968 1158.6 -181.435 1157.16 -168.712C1156.43 -162.747 1155.89 -157.152 1154.61 -151.927C1148.42 -126.43 1122.01 -106.227 1095.75 -107.116C1093.39 -107.194 1091.04 -107.4 1088.72 -107.736C1065.84 -111.04 1045.47 -126.252 1023.9 -142.298C1018.9 -146.055 1013.66 -149.978 1008.39 -153.643C988.406 -167.876 966.552 -177.365 947.034 -180.184C926.482 -183.151 907.803 -178.987 893.288 -168.019C883.211 -160.37 876.491 -150.388 874.536 -139.586C871.706 -124.556 878.021 -111.636 883.49 -100.159C887.559 -91.7859 891.296 -83.8569 890.474 -77.2461C889.595 -70.2475 883.767 -63.6996 876.867 -56.1191C868.542 -46.8969 859.106 -36.3835 856.868 -21.796C853.53 -0.505749 866.398 15.4712 877.68 29.6358C882.251 35.4421 886.62 40.8233 889.66 46.2763C894.909 55.6113 897.551 67.4727 897.474 81.7125C897.456 93.7176 895.215 110.152 885.078 120.96C879.343 126.861 870.14 130.283 862.643 129.2Z" stroke="url(#paint22_linear_15_2095)" stroke-miterlimit="10"/>
<path d="M861.231 123.454C858.389 122.12 856.658 118.572 854.613 115.373C850.209 108.404 845.787 101.563 839.885 95.8289C831.568 87.6345 823.759 85.0554 812.737 81.8806C810.079 81.1009 807.181 80.1546 805.67 77.8251C803.846 74.9227 804.812 70.9717 807.032 68.3893C811.454 63.3538 815.981 62.1601 819.518 55.9412C823.906 48.3938 826.652 40.3453 827.644 31.6477C829.665 13.9939 825.499 -3.76148 822.995 -21.145C820.985 -35.5542 824.35 -49.7152 828.497 -56.5057C830.219 -59.292 834.195 -63.0722 838.172 -66.8525C844.59 -72.9193 847.947 -82.4629 853.812 -89.2693C858.567 -94.7845 866.718 -98.2261 870.399 -89.9093C874.283 -81.1674 866.312 -74.4011 861.132 -68.6833C851.216 -57.5797 845.672 -42.9417 842.556 -22.2791C839.573 -3.44478 842.512 19.1478 854.217 34.9568C864.391 48.5656 874.768 62.5995 878.123 79.578C880.322 90.8477 880.892 117.057 867.918 122.837C865.071 124.273 862.966 124.233 861.231 123.454Z" stroke="url(#paint23_linear_15_2095)" stroke-miterlimit="10"/>
<path d="M864.714 103.901C858.252 102.044 854.002 91.2699 849.152 86.4791C843.49 80.9112 826.188 78.281 826.868 68.0869C827.039 65.0766 833.593 54.4111 835.169 50.812C837.726 44.9795 840.32 39.8119 847.275 44.6429C857.349 51.6395 863.009 70.9302 865.208 82.1998C866.583 89.128 868.011 97.5152 864.714 103.901Z" stroke="url(#paint24_linear_15_2095)" stroke-miterlimit="10"/>
<path d="M937.004 189.024C918.003 186.281 908.218 171.804 908.661 159.597C908.873 153.558 911.227 148.223 912.913 144.772C917.748 135.046 924.706 126.154 931.478 117.632C942.951 103.058 953.777 89.3145 952.249 73.3916C951.012 60.9413 942.513 50.3455 933.425 39.2686C931.415 36.7353 929.277 34.1833 927.157 31.502C911.267 10.8662 907.716 -10.2312 917.767 -25.0101C920.803 -29.586 924.853 -32.9598 928.626 -36.2417C933.304 -40.3164 937.502 -43.8008 938.691 -48.3794C939.62 -52.0719 938.666 -56.4321 937.621 -61.0695C937.106 -62.9911 936.74 -65.0233 936.392 -67.1848C933.482 -84.495 940.379 -102.104 953.284 -111.061C958.997 -114.987 965.427 -116.565 972.407 -115.557C986.108 -113.579 999.389 -102.293 1012.21 -91.4688C1020.92 -84.1418 1029.14 -77.1479 1036.12 -74.2931C1040.11 -72.6618 1044.35 -70.9932 1048.36 -69.4911C1063.48 -63.6136 1079.22 -57.5134 1092.69 -47.5197C1105.31 -38.0443 1117.88 -19.9992 1125.2 -0.336706C1138.92 36.2165 1132.06 67.2903 1107.29 80.7357C1092.39 88.8767 1075.07 86.3758 1059.67 84.284C1057.99 84.0414 1056.44 83.8174 1054.76 83.5748C1035.07 80.9964 1021.72 83.9498 1014.81 92.4539C1011.59 96.4753 1009.74 102.013 1007.86 107.681L1007.6 108.567C1001.32 127.452 994.939 142.365 987.55 155.154C976.662 173.902 964.401 184.799 949.897 188.379C945.776 189.499 941.399 189.659 937.004 189.024Z" stroke="url(#paint25_linear_15_2095)" stroke-miterlimit="10"/>
<path d="M1117.4 4.34242C1110.33 -14.3593 1098.65 -31.221 1087.1 -39.8821C1070.77 -52.0041 1050.82 -58.1845 1031.88 -65.9333C1008.95 -75.3133 978.951 -119.759 955.341 -103.375C943.748 -95.2846 938.738 -79.7778 941.081 -65.8483C942.29 -58.6803 945.197 -51.399 943.376 -44.2725C940.478 -33.343 927.875 -28.3013 921.507 -18.9284C911.604 -4.26012 919.922 15.8102 930.687 29.9001C941.452 43.99 955.339 57.4752 957.012 75.1345C959.72 103.895 929.88 124.13 917.023 150.116C915.152 153.936 913.631 158.071 913.422 162.263C912.771 177.74 931.575 188.24 946.633 184.476C961.692 180.713 972.405 167.745 980.145 154.348C988.404 140.102 994.467 124.615 999.754 109.016C1001.87 102.592 1003.87 96.0201 1008.19 90.8367C1018.49 77.9421 1037.7 77.4169 1054.02 79.51C1070.33 81.7324 1088.04 85.2129 1102.49 77.4036C1128.11 63.5531 1127.9 32.1178 1117.4 4.34242Z" stroke="url(#paint26_linear_15_2095)" stroke-miterlimit="10"/>
<path d="M939.804 169.636C934.246 168.833 928.102 164.779 928.219 160.31C928.332 158.611 929.056 156.34 930.519 153.517C934.447 145.507 940.553 137.943 946.882 129.753C959.632 113.648 974.158 95.2927 971.793 71.4635C970.084 53.1393 958.654 39.0853 948.681 26.8251C946.672 24.2917 944.644 21.8876 942.745 19.5022C935.095 9.42485 928.117 -5.30579 934.004 -14.0884C935.522 -16.3763 938.388 -18.8654 941.403 -21.465C947.432 -26.6643 954.811 -32.9882 957.634 -43.4008C959.752 -51.6719 958.082 -59.3023 956.725 -65.4362C956.321 -67.2099 955.899 -68.8543 955.716 -70.3321C954.087 -80.068 957.667 -90.2392 964.545 -94.9201C966.153 -96.0074 967.65 -96.3191 969.718 -96.0205C977.861 -94.8447 989.371 -85.0016 999.738 -76.3792C1009.61 -67.9608 1019.03 -60.134 1028.74 -56.0931C1032.99 -54.4244 1037.23 -52.7558 1041.35 -51.1058C1055.97 -45.4321 1069.72 -40.1477 1081.16 -31.6345C1090.81 -24.4354 1101.03 -9.36737 1107.03 6.67313C1111.91 19.5167 1113.79 32.0603 1112.35 42.0132C1110.88 52.2246 1106.31 59.2176 1098.14 63.7119C1088.84 68.7031 1076.15 67.0033 1062.58 65.0436C1060.9 64.8009 1059.22 64.5583 1057.54 64.3157C1030.62 60.6921 1011.21 66.2037 999.798 80.3895C994.32 87.2519 991.76 94.9313 989.46 101.725L989.2 102.611C983.355 120.24 977.424 133.899 970.721 145.598C962.795 159.365 954.232 167.497 945.345 169.644C943.59 169.919 941.743 169.916 939.804 169.636Z" stroke="url(#paint27_linear_15_2095)" stroke-miterlimit="10"/>
<path d="M992.455 50.827C980.475 46.0623 980.167 29.9195 973.126 20.194C967.062 11.929 954.607 4.06079 954.495 -7.03951C954.422 -20.2453 972.131 -30.4876 974.186 -45.6295C975.287 -53.2557 978.403 -62.0425 985.775 -63.749C996.676 -66.1337 1011.66 -47.4754 1021.76 -43.3785C1026.12 -41.5619 1030.49 -39.8746 1034.63 -38.3539C1048.62 -32.9028 1060.49 -28.2861 1069.78 -21.4014C1081.81 -12.4072 1102.28 21.2934 1090.72 35.5898C1086.22 41.1424 1078.52 43.3286 1071.33 42.8192C1055.26 41.6868 1045.57 37.5166 1028.71 41.0189C1017.7 43.2556 1005.77 54.5963 994.098 51.3281C993.71 51.2721 993.082 51.0496 992.455 50.827Z" stroke="url(#paint28_linear_15_2095)" stroke-miterlimit="10"/>
<path d="M999.373 31.2416C993.095 29.9393 992.662 22.8833 990.786 17.5982C988.248 10.5021 984.066 3.82838 978.163 -0.982565C974.141 -4.2023 969.881 -8.5121 970.369 -13.7197C970.576 -16.0651 971.688 -18.2797 972.91 -20.3465C977.762 -29.2784 982.614 -38.2103 987.467 -47.1422C993.023 -57.292 1000.03 -51.9253 1006.49 -46.3748C1016.21 -37.8457 1027.99 -33.5061 1039.87 -29.0186C1057.87 -22.0655 1073.78 -11.5879 1081.1 7.15117C1082.94 11.7713 1082.49 17.6439 1078.84 20.9444C1073.5 25.9786 1065.04 23.3063 1057.92 21.4855C1043.9 18.0106 1028.61 19.7607 1015.67 26.2055C1011.12 28.4519 1006.46 31.4739 1001.35 31.263C1000.54 31.4096 999.89 31.3163 999.373 31.2416Z" stroke="url(#paint29_linear_15_2095)" stroke-miterlimit="10"/>
<path d="M1009.31 4.43846C1003.46 2.01016 999.387 -3.59221 995.665 -8.88008C992.495 -13.4283 989.233 -18.2538 988.188 -23.8146C984.249 -44.9681 1003.96 -37.1074 1014.54 -32.6772C1025.48 -28.0619 1037.04 -24.0182 1047.04 -17.428C1049.81 -15.5769 1057.98 -10.9657 1056.33 -6.84946C1054.87 -3.10237 1033.25 1.29775 1029.1 2.6767C1023.26 4.73649 1016.9 6.72162 1010.95 4.9396C1010.44 4.86495 1009.81 4.64237 1009.31 4.43846Z" stroke="url(#paint30_linear_15_2095)" stroke-miterlimit="10"/>
<path d="M1322.97 -48.5768C1319.88 -70.1353 1315.46 -91.6219 1307.86 -112.116C1302.57 -126.604 1295.25 -140.855 1283.63 -150.846C1272.95 -160.041 1259.42 -165.03 1246.28 -169.963C1206.06 -184.743 1210.87 -119.391 1198.26 -99.7033C1188.01 -83.5025 1170.78 -72.0035 1151.93 -68.5227C1145.02 -67.2772 1137.73 -67.0111 1131.66 -63.4002C1125.6 -59.7894 1121.97 -51.0773 1126.32 -45.5668C1127.98 -43.348 1130.71 -42.1618 1133 -40.6439C1145.73 -31.9441 1147.36 -14.0263 1145.96 1.20892C1144.55 16.4441 1141.38 32.8771 1148.51 46.5737C1152.95 55.1317 1161.12 61.5899 1164.56 70.6636C1170.61 86.3163 1160.96 103.792 1162.79 120.418C1164.37 135.029 1177.32 148.642 1192.07 147.87C1211.38 146.699 1221.81 124.717 1224.7 105.606C1227.59 86.4944 1228.2 64.9415 1242.23 51.7939C1258.57 36.4703 1285.78 39.8728 1304.03 26.8054C1315.2 18.9173 1321.61 5.59201 1323.94 -7.79484C1326.29 -21.3109 1324.85 -35.1098 1322.97 -48.5768Z" stroke="url(#paint31_linear_15_2095)" stroke-miterlimit="10"/>
<path d="M1188.43 141.142C1178.99 139.779 1170.49 130.107 1169.23 119.633C1168.54 113.463 1169.75 106.908 1171.02 99.9658C1172.92 89.5519 1174.72 78.8608 1170.6 68.1054C1168.28 62.2286 1164.62 57.4765 1160.91 52.9828C1158.35 49.7099 1155.88 46.7141 1154.24 43.4425C1149.08 33.4613 1150.34 21.1071 1151.69 8.10664C1151.88 5.89059 1152.17 3.82248 1152.34 1.73569C1154.45 -21.0524 1149.06 -37.6646 1136.57 -46.1978C1135.85 -46.6976 1135.11 -47.068 1134.52 -47.5491C1133.19 -48.4007 1131.97 -49.1044 1131.42 -49.844C1131.31 -49.9919 1130.76 -50.7316 1130.98 -52.2827C1131.43 -54.4614 1133.09 -56.8599 1134.98 -58.0391C1138.46 -60.1763 1143.17 -60.8157 1148.15 -61.5469C1149.78 -61.84 1151.39 -62.0038 1153.01 -62.2969C1173.48 -66.0708 1192.47 -78.7676 1203.73 -96.4075C1208.17 -103.419 1210.51 -114.165 1212.97 -125.686C1218.49 -151.147 1223.26 -167.744 1238 -165.616C1239.81 -165.355 1241.84 -164.798 1243.85 -164.111C1256.38 -159.531 1269.29 -154.765 1279.27 -146.198C1288.31 -138.427 1295.36 -126.984 1301.63 -110.112C1308.07 -92.5565 1312.75 -72.8795 1316.41 -47.9403C1318.13 -36.0803 1319.69 -22.2628 1317.53 -9.1158C1315.24 4.01253 1309.02 15.1218 1300.22 21.2404C1292.73 26.4929 1283.29 28.8243 1273.18 31.1916C1260.62 34.1278 1247.63 37.2666 1237.68 46.7818C1224.1 59.4684 1221.6 78.6359 1219.43 95.4767C1218.98 98.5789 1218.68 101.571 1218.14 104.396C1215.46 122.085 1206.23 140.282 1191.6 141.073C1190.62 141.459 1189.46 141.291 1188.43 141.142Z" stroke="url(#paint32_linear_15_2095)" stroke-miterlimit="10"/>
<path d="M1183.4 118.379C1182 117.121 1181.08 115.273 1180.82 113.388C1180.29 109.749 1181.91 105.891 1182.54 102.42C1184.65 90.5843 1187.29 75.9236 1181.13 60.1229C1175.48 45.3204 1162.98 38.6341 1162.99 21.2174C1162.95 10.5236 1165.19 -0.370048 1162.6 -10.7722C1160.25 -20.0844 1153.83 -28.6639 1154.57 -38.3223C1155.44 -50.7324 1167.58 -59.0069 1178.86 -63.9767C1191.11 -69.3329 1202.35 -74.0441 1210.53 -85.0027C1220.02 -97.7508 1224 -113.407 1224.54 -129.031C1224.67 -133.63 1224.57 -138.395 1226.98 -142.27C1234.18 -153.766 1249.12 -143.031 1255.91 -137.037C1263.99 -129.932 1269.05 -116.534 1273.34 -106.942C1283.52 -84.2279 1289.74 -59.7096 1291.29 -34.8104C1292.03 -23.4875 1291.59 -11.2799 1284.85 -2.09226C1276.47 9.36464 1261.1 12.5552 1247.31 15.7112C1229.98 19.6745 1219.21 26.6951 1208.47 40.7158C1197.41 55.2161 1194.5 74.4569 1192.23 91.944C1191.32 100.125 1188.68 112.015 1183.4 118.379Z" stroke="url(#paint33_linear_15_2095)" stroke-miterlimit="10"/>
<path d="M1189.5 53.2845C1185.36 53.6107 1182.84 46.3854 1180.6 42.762C1178.16 38.5842 1176.18 34.0747 1176.24 29.0695C1176.28 26.0406 1176.47 22.9011 1176.68 19.6323C1177.15 11.7835 1177.76 3.02991 1175.5 -6.00504C1174.41 -10.3839 1172.74 -14.3204 1171.27 -17.8319C1169.39 -22.1935 1167.62 -26.4072 1167.92 -29.3988C1168.23 -34.2373 1174.42 -39.6765 1184.44 -44.1679L1186.14 -44.978C1198.54 -50.4448 1211.5 -56.0954 1221.34 -69.4524C1231.63 -83.1413 1233.45 -101.22 1236.62 -117.653C1237.06 -119.832 1237.67 -122.25 1239.69 -123.411C1241.26 -124.24 1243.2 -123.96 1244.64 -122.96C1246.1 -122.09 1247.2 -120.611 1248.31 -119.132C1266.96 -92.9508 1276.51 -57.6598 1278.53 -25.9632C1279.09 -17.9651 1279.1 -7.93615 1274.51 -1.73733C1269.23 5.55016 1257.24 8.17324 1245.64 10.8523L1244.55 11.0908C1233.5 13.586 1222.98 17.8736 1214.07 24.7677C1208.58 28.9889 1204.14 34.1537 1200.05 39.633C1197.25 43.452 1195.92 49.0646 1192.18 52.088C1191.27 52.8808 1190.3 53.2672 1189.5 53.2845Z" stroke="url(#paint34_linear_15_2095)" stroke-miterlimit="10"/>
<path d="M1192.4 39.584C1191.06 39.7851 1189.97 38.1766 1189.99 33.43C1189.98 30.7888 1190.15 27.7786 1190.34 24.6391C1191.15 11.6932 1191.27 -1.88167 1185.34 -13.8219C1183.9 -16.6683 1182.52 -19.9025 1182.97 -23.0047C1183.6 -28.323 1189.53 -29.1821 1193.62 -30.9675C1206.59 -36.7474 1221.38 -43.1894 1233 -58.7971C1239.55 -67.6156 1243.61 -78.3772 1244.79 -89.2909C1245.02 -91.7654 1245.43 -94.6091 1247.68 -95.6031C1249.64 -96.3758 1251.86 -95.2643 1253.06 -93.5079C1257.04 -87.2593 1259.37 -77.8179 1261.76 -70.6112C1265.95 -58.5259 1269.16 -46.0542 1271.16 -33.3627C1272.49 -25.2526 1273.24 -16.7001 1270.03 -9.11396C1264.88 2.80955 1254.85 3.73639 1243.78 5.43739C1232.59 7.11973 1220.13 13.8977 1211.22 20.7919C1207.5 23.686 1204.24 27.0425 1201.23 30.5657C1199.03 33.0188 1194.95 39.2923 1192.4 39.584Z" stroke="url(#paint35_linear_15_2095)" stroke-miterlimit="10"/>
<path d="M1200.28 7.86567C1199.76 7.79101 1199.41 7.47651 1199.06 7.162C1195.89 4.46069 1197.25 -3.12821 1196.59 -6.78616C1195.62 -11.9406 1192.73 -16.5808 1192.01 -21.6979C1191.3 -26.815 1196.44 -26.7334 1200.26 -28.5561C1203.11 -29.9924 1206.08 -31.4101 1208.82 -32.9944C1223.72 -41.1354 1237.99 -52.2695 1244.17 -68.5318C1244.6 -69.6578 1245.04 -70.913 1246.19 -71.5393C1248.63 -72.9023 1249.66 -69.0591 1250.23 -67.5253C1251.79 -63.7367 1252.25 -59.5804 1253.25 -55.608C1254.96 -49.1596 1256.38 -42.4899 1257.4 -35.8763C1258.68 -28.3019 1260.5 -19.8587 1254.01 -14.1983C1249.01 -9.77318 1241.7 -9.37786 1235.18 -8.07635C1226.88 -6.37118 1218.99 -2.89233 1212.2 2.06573C1209.73 3.68732 1203.96 8.92396 1200.28 7.86567Z" stroke="url(#paint36_linear_15_2095)" stroke-miterlimit="10"/>
<path d="M1227.27 188.316C1222.1 173.847 1209.71 160.05 1195.16 158.476C1184.51 157.334 1173.51 161.288 1163.25 158.354C1148.53 154.251 1140.93 138.374 1130.06 127.701C1112.27 110.22 1085.35 106.597 1060.39 105.765C1055.54 105.591 1049.81 105.952 1047.11 110.048C1044.92 113.296 1045.62 117.619 1046.8 121.351C1051.04 134.896 1060.57 146.564 1072.73 153.73C1083.57 160.045 1096.1 162.778 1106.75 169.462C1128.01 183.087 1136.66 211.784 1130.6 236.376C1124.56 260.839 1106.08 280.998 1084.44 293.839C1071.61 301.355 1055.86 308.977 1053.21 323.638C1051.82 331.486 1055.02 339.469 1060.07 345.609C1065.12 351.748 1071.87 356.154 1078.7 360.043C1084.55 363.395 1091.16 366.988 1093.53 373.4C1095.7 379.387 1093.38 386.31 1094.87 392.463C1096.72 399.724 1103.27 404.628 1109.7 408.59C1115.99 412.534 1123.22 416.349 1130.67 415.049C1135.54 414.17 1139.78 411.351 1143.64 408.346C1160.27 395.572 1175.12 379.507 1181.43 359.569C1185.22 347.976 1185.94 335.677 1187.54 323.637C1191.26 296.068 1199.76 269.189 1212.58 244.386C1219.52 231.006 1229.9 217.594 1229.91 202.024C1229.75 197.647 1228.85 192.899 1227.27 188.316Z" stroke="url(#paint37_linear_15_2095)" stroke-miterlimit="10"/>
<path d="M1126.59 401.265C1123.78 401.519 1121.09 400.998 1118.48 399.83C1112.93 397.181 1108.71 391.689 1107.48 385.574C1106.82 381.916 1107.08 378.259 1106.83 374.528C1106.11 362.153 1095.23 354.379 1085.33 348.86L1084.85 348.527C1079.61 345.527 1073.8 341.917 1069.87 337.127C1066.85 333.392 1065.25 328.938 1065.87 325.596C1067.02 318.506 1076.95 312.814 1086.6 307.214C1088.04 306.366 1089.46 305.648 1090.78 304.782C1117.62 288.865 1136.64 264.957 1143.01 239.091C1150.74 207.483 1138.66 174.201 1113.53 158.169C1106.89 153.911 1100.02 151.204 1093.39 148.664C1088.28 146.606 1083.28 144.696 1079.14 142.252C1074.77 139.641 1071.34 135.979 1068.23 131.966C1064.43 127.195 1054.99 117.651 1065.41 115.857C1068.79 115.289 1073.01 117.087 1075.98 118.44C1091.34 125.407 1107.65 123.936 1120.71 136.773C1123.6 139.567 1126.28 142.988 1129.19 146.575C1136.8 155.987 1145.28 166.712 1159.61 170.76C1161.25 171.262 1162.93 171.504 1164.74 171.765C1171.08 172.68 1177.23 172.117 1182.58 171.571C1186.59 171.226 1190.47 170.862 1193.72 171.2C1193.85 171.218 1193.98 171.237 1194.24 171.274C1202.25 172.431 1211.1 181.495 1215.06 192.49C1216.29 195.835 1216.9 198.957 1216.87 201.857C1216.82 211.35 1211.4 220.595 1206.45 228.326C1200.34 237.737 1195.45 247.85 1191.3 258.335C1183.29 279.082 1178.66 301.109 1174.71 322.971C1171.82 339.312 1169.01 356.06 1161.6 370.824C1156.15 381.122 1141 400.178 1126.59 401.265Z" stroke="url(#paint38_linear_15_2095)" stroke-miterlimit="10"/>
<path d="M1123.9 394.28C1122.48 394.074 1121.22 393.629 1119.88 392.907C1116.35 390.814 1114.14 386.933 1113.41 382.868C1112.22 376.494 1113.82 370.919 1111.13 364.857C1108.72 359.627 1105.01 355.133 1100.68 351.34C1093.61 345.438 1083.86 342.579 1077.37 336.363C1074.48 333.57 1072.58 329.338 1073.81 325.424C1074.99 321.769 1078.51 319.373 1081.91 317.753C1113.09 302.858 1140.94 275.344 1149.45 241.077C1157.85 206.663 1144.61 170.443 1117.19 152.892C1110.07 148.301 1102.94 145.557 1095.95 142.831C1090.95 140.922 1086.33 139.068 1082.57 136.809C1080.26 135.42 1072.23 130.698 1072.87 127.227C1073.89 121.041 1088.51 129.485 1091.55 130.321C1101.12 132.626 1109.26 134.725 1116.32 141.551C1118.87 144.03 1121.56 147.321 1124.23 150.742C1132.07 160.45 1141.67 172.525 1157.9 177.112C1159.8 177.65 1161.72 178.059 1163.79 178.358C1170.9 179.384 1177.71 178.785 1183.07 178.239C1186.82 177.857 1190.29 177.567 1192.9 177.811L1193.16 177.848C1198.07 178.557 1205.37 185.55 1208.79 194.753C1209.75 197.266 1210.17 199.834 1210.15 201.81C1210.1 209.456 1205.23 217.594 1200.77 224.735C1194.66 234.145 1189.43 244.739 1185.06 255.851C1176.83 277.226 1172.06 300.158 1168.17 321.632L1167.69 324.069C1165.01 338.989 1162.25 354.425 1155.58 367.713C1151.17 376.313 1143.05 386.884 1134.54 391.858C1131.35 393.903 1127.52 394.802 1123.9 394.28Z" stroke="url(#paint39_linear_15_2095)" stroke-miterlimit="10"/>
<path d="M1127.57 378.974C1124.57 377.75 1125.77 370.401 1124.74 366.558C1123.34 361.606 1121.26 356.82 1118.59 352.475C1112.99 343.749 1104.6 336.995 1094.59 334.099C1092.56 333.542 1090.29 332.818 1089.5 330.988C1088.5 328.734 1090.17 326.335 1091.74 324.583C1101.25 313.553 1112.59 304.501 1123.57 295.135C1134.56 285.769 1145.38 275.72 1153.08 263.504C1160.78 251.289 1165.31 236.373 1162.62 222.129C1161.57 216.568 1159.46 211.116 1158.41 205.555C1155.5 188.245 1169.13 191.664 1181.46 191.202C1185.97 191.061 1191.23 191.162 1194.33 194.38C1196.86 196.988 1197.31 201.144 1196.42 204.578C1195.51 208.142 1193.61 211.297 1191.72 214.323C1174.74 242.353 1163.11 273.53 1157.54 305.714C1155.14 319.618 1153.9 333.69 1149.7 347.203C1147.51 354.144 1144.93 361.029 1141.01 367.192C1138.62 370.938 1135.1 376.104 1131.24 378.185C1129.65 379.143 1128.43 379.363 1127.57 378.974Z" stroke="url(#paint40_linear_15_2095)" stroke-miterlimit="10"/>
<path d="M1131.85 356.633C1131.59 356.595 1131.46 356.577 1131.22 356.41C1129.76 355.54 1129.71 352.234 1129.12 350.829C1127.98 347.761 1126.56 344.786 1124.85 342.031C1122.14 337.945 1118.38 334.763 1114.41 332.079C1111.77 330.246 1103.72 327.501 1103.88 323.696C1104.01 320.021 1110.08 317.334 1112.37 315.158C1116.01 311.857 1119.66 308.557 1123.41 305.404C1124.91 304.169 1126.41 302.934 1127.9 301.698C1134.52 296.057 1140.68 289.953 1146.25 283.367C1148.95 280.195 1152.51 276.617 1154.23 272.907C1155.01 271.172 1155.28 264.745 1158.25 265.175C1160.32 265.473 1149.82 294.307 1149.21 296.725C1146.79 305.218 1146.22 314.636 1144.44 323.351C1142.63 332.195 1140.57 341.002 1138.25 349.772C1137.73 351.544 1137.19 353.445 1136.06 354.866C1135.28 355.677 1133.38 356.986 1131.85 356.633Z" stroke="url(#paint41_linear_15_2095)" stroke-miterlimit="10"/>
<path d="M1131.76 338.939C1130.38 339.399 1129.62 337.31 1129.53 336.11C1128.58 329.903 1123.61 327.734 1118.93 324.55C1118.21 324.051 1117.53 323.292 1117.38 322.479C1116.87 320.558 1118.79 319.12 1120.01 317.977C1121.82 316.391 1123.52 314.658 1125.21 313.053C1127.02 311.468 1128.72 309.734 1130.53 308.148C1131.46 307.226 1132.62 306.471 1133.57 305.42C1134.47 304.627 1135.16 303.538 1136.08 302.616C1136.54 302.155 1137.25 301.86 1137.76 301.935C1138.8 302.084 1139.55 303.249 1139.51 304.431C1139.48 305.613 1138.81 306.573 1138.53 307.588C1138.22 308.862 1138.03 310.154 1137.84 311.447C1137.32 314.143 1136.93 316.857 1136.41 319.553C1135.37 324.944 1134.47 330.225 1133.56 335.636C1133.41 336.67 1133.11 337.814 1132.37 338.367C1132.19 338.736 1131.91 338.828 1131.76 338.939Z" stroke="url(#paint42_linear_15_2095)" stroke-miterlimit="10"/>
<path d="M815.051 497.206C813.403 487.6 803.368 479.421 806.429 470.098C807.617 466.443 810.65 463.714 812.834 460.467C817.018 454.342 817.954 446.032 815.12 439.157C812.286 432.282 805.792 426.99 798.462 425.667C785.611 423.284 773.389 432.076 760.349 432.832C732.125 434.562 711.307 399.624 683.211 402.296C664.351 404.06 651.876 421.919 636.658 433.181C618.316 446.895 580.943 440.707 569.384 463.185C566.439 468.962 565.966 476.81 570.909 480.955C573.731 483.342 577.738 483.92 581.395 484.184C614.562 486.598 649.453 473.427 680.241 485.922C691.094 490.26 700.466 497.551 710.689 503.513C731.135 515.438 754.748 521.883 778.406 522.528C786.957 522.707 795.879 522.148 803.328 518.077C810.759 514.136 816.46 505.723 815.051 497.206Z" stroke="url(#paint43_linear_15_2095)" stroke-miterlimit="10"/>
<path d="M762.367 514.802C745.176 512.32 728.47 506.477 713.984 498.051C710.81 496.273 707.673 494.237 704.666 492.219C697.783 487.795 690.79 483.222 682.798 480.089C677.057 477.809 671.094 476.156 664.502 475.204C649.508 473.039 633.973 474.622 618.973 476.151C606.652 477.407 593.925 478.736 581.921 477.795C580.868 477.775 580.093 477.663 579.317 477.551C577.378 477.271 575.994 476.807 575.164 476.159C573.042 474.401 573.604 469.6 575.271 466.278C580.735 455.851 594.351 452.935 608.91 449.891C620.198 447.562 632.041 445.05 640.639 438.506C645.373 434.967 649.774 430.984 653.899 427.094C663.498 418.187 672.616 409.871 683.847 408.854C685.99 408.635 688.095 408.676 690.163 408.974C699.728 410.355 708.751 416.408 718.493 422.961C728.954 430.014 739.914 437.27 752.452 439.081C755.167 439.473 758.048 439.625 760.707 439.481C766.969 439.066 772.79 437.135 778.463 435.315C784.838 433.201 790.936 431.178 796.494 431.981C796.753 432.018 797.011 432.056 797.27 432.093C802.403 433.098 807.014 436.799 809.076 441.715C811.007 446.612 810.426 452.466 807.428 456.783C806.909 457.632 806.132 458.444 805.484 459.274C803.56 461.635 801.321 464.347 800.134 468.002C797.499 476.198 801.477 483.37 804.608 489.101C806.395 492.262 808.053 495.404 808.584 498.12C809.481 503.791 805.095 509.492 800.086 512.199C793.505 515.735 785.138 516.111 778.452 515.805C773.151 515.963 767.667 515.567 762.367 514.802Z" stroke="url(#paint44_linear_15_2095)" stroke-miterlimit="10"/>
<path d="M764.066 502.116C752.231 499.088 740.081 497.333 729.453 490.52C717.127 482.671 704.487 475.172 690.864 469.906C673.366 463.157 653.885 460.08 635.796 464.725C632.507 465.57 629.311 466.692 625.875 466.724C613.87 466.706 619.738 458.052 626.797 455.773C633.874 453.364 642.24 453.912 648.453 449.267C653.63 445.396 658.328 441.192 662.748 437.08C667.464 432.747 673.108 425.645 679.077 423.604C686.986 420.919 697.212 425.035 704.039 428.924C712.805 434.016 720.515 440.935 729.446 445.787C745.982 454.641 766.759 455.134 783.763 447.033C785.741 446.131 787.756 444.97 789.88 444.881C792.004 444.792 794.477 445.941 794.973 447.992C795.303 449.359 794.691 450.854 794.228 452.238C790.78 460.581 784.283 469.936 786.652 479.119C788.487 486.509 796.12 495.792 790.42 503.282C786.349 508.632 779.904 507.57 774.404 505.456C770.915 504.029 767.5 503.008 764.066 502.116Z" stroke="url(#paint45_linear_15_2095)" stroke-miterlimit="10"/>
<path d="M777.597 494.305C776.745 495.634 775.433 496.5 773.53 496.885C768.375 497.856 761.642 492.397 757.046 490.414C747.965 486.596 738.773 482.629 729.692 478.811C711.917 471.23 694.124 463.779 676.22 456.179C672.621 454.604 668.542 452.696 667.514 448.852C666.412 444.603 669.65 440.452 673.514 438.371C685.03 431.721 699.779 437.413 710.868 444.688C721.957 451.963 733.173 461.104 746.414 461.697C753.635 461.948 761.341 459.761 767.893 462.819C773.467 465.339 776.819 471.365 777.807 477.314C778.872 481.822 780.448 490.098 777.597 494.305Z" stroke="url(#paint46_linear_15_2095)" stroke-miterlimit="10"/>
<path d="M1317.03 -241.425C1291.38 -251.991 1261.2 -239.459 1241.7 -219.578C1222.35 -199.808 1210.81 -173.765 1197.29 -149.591C1183.77 -125.416 1166.44 -101.395 1140.85 -90.4441C1133.95 -87.4809 1126.54 -85.5158 1119.95 -81.8503C1114.2 -78.5899 1109.31 -74.0168 1103.36 -71.1815C1087.63 -63.6881 1068.64 -70.1256 1054.71 -80.5818C1040.93 -91.1486 1030.44 -105.33 1017.16 -116.617C1000.47 -130.771 979.499 -140 957.82 -142.471C946.537 -143.836 934.587 -143.319 924.587 -138.033C914.457 -132.766 906.721 -122.139 907.461 -110.816C908.673 -93.6194 928.319 -77.9831 920.797 -62.4432C915.85 -51.9415 901.847 -50.0048 892.971 -42.4457C876.715 -28.5627 883.121 -1.64306 895.524 15.7184C907.928 33.0799 925.34 48.6574 928.762 69.7362C932.934 95.6736 914.466 119.397 897.093 139.189C890.451 146.807 883.255 154.609 873.591 157.568C860.767 161.39 847.035 155.053 836.65 146.56C826.264 138.067 817.785 127.342 806.751 119.679C798.467 113.996 785.266 111.298 780.081 119.786C776.638 125.359 779.064 133.23 783.822 137.744C788.58 142.258 795.134 144.392 801.448 146.359C835.286 156.919 871.578 169.681 890.76 199.501C907.786 225.975 935.875 215.12 959.17 200.01C981.003 185.877 996.072 150.974 1026.82 155.545C1041.92 157.858 1055.53 170.512 1069.89 176.148C1081.61 180.875 1093.63 185.381 1103.57 193.283C1113.52 201.184 1121.18 212.979 1120.55 225.556C1119.71 246.019 1093.05 277.137 1078.01 289.876C1062.54 302.948 1042.12 310.028 1040.71 333.445C1040.28 341.035 1044.39 345.456 1046.82 352.404C1049.5 360.313 1049.88 368.68 1052.41 376.7C1063.22 411.512 1095.03 436.162 1079.66 475.903C1066.25 510.255 1040.71 528.047 1012.35 546.047C992.014 555.11 937.047 566.947 901.847 550.547C866.647 534.147 848.347 518.547 843.347 512.047" stroke="url(#paint47_linear_15_2095)" stroke-width="2" stroke-miterlimit="10"/>
<path d="M490.979 465.191C498.181 440.896 515.396 415.804 540.72 414.05C560.17 412.768 578.066 425.909 597.551 426.215C618.476 426.597 636.468 412.569 654.178 401.403C671.889 390.238 695.063 381.444 713.036 392.22C723.48 398.479 730.425 410.697 742.278 413.597C748.906 415.213 756 413.599 762.615 411.651C772.667 408.748 782.831 405.069 793.304 404.734C803.795 404.27 815.075 407.482 821.508 415.932C832.254 430.151 824.338 450.253 824.145 468.038C823.88 484.494 831.132 500.98 843.398 511.988" stroke="url(#paint48_linear_15_2095)" stroke-width="2" stroke-miterlimit="10"/>
</g>
</g>
<defs>
<filter id="filter0_f_15_2095" x="0.304688" y="-556.277" width="1921.52" height="1525.21" filterUnits="userSpaceOnUse" color-interpolation-filters="sRGB">
<feFlood flood-opacity="0" result="BackgroundImageFix"/>
<feBlend mode="normal" in="SourceGraphic" in2="BackgroundImageFix" result="shape"/>
<feGaussianBlur stdDeviation="200" result="effect1_foregroundBlur_15_2095"/>
</filter>
<linearGradient id="paint0_linear_15_2095" x1="658.783" y1="326.113" x2="810.057" y2="213.013" gradientUnits="userSpaceOnUse">
<stop stop-color="#86E7FF" stop-opacity="0.3"/>
<stop offset="1" stop-color="#86E7FF" stop-opacity="0.8"/>
</linearGradient>
<linearGradient id="paint1_linear_15_2095" x1="664.01" y1="322.17" x2="804.77" y2="216.93" gradientUnits="userSpaceOnUse">
<stop stop-color="#86E7FF" stop-opacity="0.3"/>
<stop offset="1" stop-color="#86E7FF" stop-opacity="0.8"/>
</linearGradient>
<linearGradient id="paint2_linear_15_2095" x1="625.586" y1="248.585" x2="857.703" y2="282.101" gradientUnits="userSpaceOnUse">
<stop stop-color="#26F7DD"/>
<stop offset="1" stop-color="#00B8DD"/>
</linearGradient>
<linearGradient id="paint3_linear_15_2095" x1="665.789" y1="245.153" x2="734.373" y2="193.876" gradientUnits="userSpaceOnUse">
<stop stop-color="#86E7FF" stop-opacity="0.3"/>
<stop offset="1" stop-color="#86E7FF" stop-opacity="0.8"/>
</linearGradient>
<linearGradient id="paint4_linear_15_2095" x1="670.404" y1="241.483" x2="729.036" y2="197.646" gradientUnits="userSpaceOnUse">
<stop stop-color="#86E7FF" stop-opacity="0.3"/>
<stop offset="1" stop-color="#86E7FF" stop-opacity="0.8"/>
</linearGradient>
<linearGradient id="paint5_linear_15_2095" x1="678.582" y1="230.093" x2="716.364" y2="201.845" gradientUnits="userSpaceOnUse">
<stop stop-color="#86E7FF" stop-opacity="0.3"/>
<stop offset="1" stop-color="#86E7FF" stop-opacity="0.8"/>
</linearGradient>
<linearGradient id="paint6_linear_15_2095" x1="693.915" y1="215.054" x2="705.333" y2="206.517" gradientUnits="userSpaceOnUse">
<stop stop-color="#86E7FF" stop-opacity="0.3"/>
<stop offset="1" stop-color="#86E7FF" stop-opacity="0.8"/>
</linearGradient>
<linearGradient id="paint7_linear_15_2095" x1="743.132" y1="340.553" x2="803.283" y2="295.582" gradientUnits="userSpaceOnUse">
<stop stop-color="#86E7FF" stop-opacity="0.3"/>
<stop offset="1" stop-color="#86E7FF" stop-opacity="0.8"/>
</linearGradient>
<linearGradient id="paint8_linear_15_2095" x1="760.557" y1="328.684" x2="793.37" y2="304.151" gradientUnits="userSpaceOnUse">
<stop stop-color="#86E7FF" stop-opacity="0.3"/>
<stop offset="1" stop-color="#86E7FF" stop-opacity="0.8"/>
</linearGradient>
<linearGradient id="paint9_linear_15_2095" x1="767.203" y1="325.449" x2="789.094" y2="309.083" gradientUnits="userSpaceOnUse">
<stop stop-color="#86E7FF" stop-opacity="0.3"/>
<stop offset="1" stop-color="#86E7FF" stop-opacity="0.8"/>
</linearGradient>
<linearGradient id="paint10_linear_15_2095" x1="816.678" y1="424.577" x2="1098.23" y2="214.072" gradientUnits="userSpaceOnUse">
<stop stop-color="#86E7FF" stop-opacity="0.3"/>
<stop offset="1" stop-color="#86E7FF" stop-opacity="0.8"/>
</linearGradient>
<linearGradient id="paint11_linear_15_2095" x1="827.111" y1="416.767" x2="1087.76" y2="221.891" gradientUnits="userSpaceOnUse">
<stop stop-color="#86E7FF" stop-opacity="0.3"/>
<stop offset="1" stop-color="#86E7FF" stop-opacity="0.8"/>
</linearGradient>
<linearGradient id="paint12_linear_15_2095" x1="857.148" y1="438.38" x2="1091.31" y2="263.309" gradientUnits="userSpaceOnUse">
<stop stop-color="#86E7FF" stop-opacity="0.3"/>
<stop offset="1" stop-color="#86E7FF" stop-opacity="0.8"/>
</linearGradient>
<linearGradient id="paint13_linear_15_2095" x1="905.201" y1="441.742" x2="1100.78" y2="295.518" gradientUnits="userSpaceOnUse">
<stop stop-color="#86E7FF" stop-opacity="0.3"/>
<stop offset="1" stop-color="#86E7FF" stop-opacity="0.8"/>
</linearGradient>
<linearGradient id="paint14_linear_15_2095" x1="946.447" y1="450.828" x2="1001.11" y2="409.961" gradientUnits="userSpaceOnUse">
<stop stop-color="#86E7FF" stop-opacity="0.3"/>
<stop offset="1" stop-color="#86E7FF" stop-opacity="0.8"/>
</linearGradient>
<linearGradient id="paint15_linear_15_2095" x1="954.206" y1="446.277" x2="992.375" y2="417.741" gradientUnits="userSpaceOnUse">
<stop stop-color="#86E7FF" stop-opacity="0.3"/>
<stop offset="1" stop-color="#86E7FF" stop-opacity="0.8"/>
</linearGradient>
<linearGradient id="paint16_linear_15_2095" x1="965.493" y1="433.063" x2="979.09" y2="422.897" gradientUnits="userSpaceOnUse">
<stop stop-color="#86E7FF" stop-opacity="0.3"/>
<stop offset="1" stop-color="#86E7FF" stop-opacity="0.8"/>
</linearGradient>
<linearGradient id="paint17_linear_15_2095" x1="955.236" y1="324.305" x2="986.226" y2="301.135" gradientUnits="userSpaceOnUse">
<stop stop-color="#86E7FF" stop-opacity="0.3"/>
<stop offset="1" stop-color="#86E7FF" stop-opacity="0.8"/>
</linearGradient>
<linearGradient id="paint18_linear_15_2095" x1="1069.41" y1="526.228" x2="1155.28" y2="462.027" gradientUnits="userSpaceOnUse">
<stop stop-color="#86E7FF" stop-opacity="0.3"/>
<stop offset="1" stop-color="#86E7FF" stop-opacity="0.8"/>
</linearGradient>
<linearGradient id="paint19_linear_15_2095" x1="1083.4" y1="526.56" x2="1153.09" y2="474.459" gradientUnits="userSpaceOnUse">
<stop stop-color="#86E7FF" stop-opacity="0.3"/>
<stop offset="1" stop-color="#86E7FF" stop-opacity="0.8"/>
</linearGradient>
<linearGradient id="paint20_linear_15_2095" x1="1109.32" y1="501.591" x2="1161.77" y2="509.164" gradientUnits="userSpaceOnUse">
<stop stop-color="#26F7DD"/>
<stop offset="1" stop-color="#00B8DD"/>
</linearGradient>
<linearGradient id="paint21_linear_15_2095" x1="692.324" y1="0.479077" x2="1160.36" y2="-349.446" gradientUnits="userSpaceOnUse">
<stop stop-color="#86E7FF" stop-opacity="0.3"/>
<stop offset="1" stop-color="#86E7FF" stop-opacity="0.8"/>
</linearGradient>
<linearGradient id="paint22_linear_15_2095" x1="706.659" y1="-6.77773" x2="1153.76" y2="-341.052" gradientUnits="userSpaceOnUse">
<stop stop-color="#86E7FF" stop-opacity="0.3"/>
<stop offset="1" stop-color="#86E7FF" stop-opacity="0.8"/>
</linearGradient>
<linearGradient id="paint23_linear_15_2095" x1="813.634" y1="7.33141" x2="891.573" y2="18.5853" gradientUnits="userSpaceOnUse">
<stop stop-color="#26F7DD"/>
<stop offset="1" stop-color="#00B8DD"/>
</linearGradient>
<linearGradient id="paint24_linear_15_2095" x1="836.598" y1="85.5821" x2="864.506" y2="64.7163" gradientUnits="userSpaceOnUse">
<stop stop-color="#86E7FF" stop-opacity="0.3"/>
<stop offset="1" stop-color="#86E7FF" stop-opacity="0.8"/>
</linearGradient>
<linearGradient id="paint25_linear_15_2095" x1="863.618" y1="109.737" x2="1088.79" y2="-58.6116" gradientUnits="userSpaceOnUse">
<stop stop-color="#86E7FF" stop-opacity="0.3"/>
<stop offset="1" stop-color="#86E7FF" stop-opacity="0.8"/>
</linearGradient>
<linearGradient id="paint26_linear_15_2095" x1="867.152" y1="108.258" x2="1081.91" y2="-52.3062" gradientUnits="userSpaceOnUse">
<stop stop-color="#86E7FF" stop-opacity="0.3"/>
<stop offset="1" stop-color="#86E7FF" stop-opacity="0.8"/>
</linearGradient>
<linearGradient id="paint27_linear_15_2095" x1="879.285" y1="98.0342" x2="1073.12" y2="-46.8882" gradientUnits="userSpaceOnUse">
<stop stop-color="#86E7FF" stop-opacity="0.3"/>
<stop offset="1" stop-color="#86E7FF" stop-opacity="0.8"/>
</linearGradient>
<linearGradient id="paint28_linear_15_2095" x1="954.425" y1="-11.5285" x2="1097.51" y2="9.13235" gradientUnits="userSpaceOnUse">
<stop stop-color="#26F7DD"/>
<stop offset="1" stop-color="#00B8DD"/>
</linearGradient>
<linearGradient id="paint29_linear_15_2095" x1="987.765" y1="19.9387" x2="1055.73" y2="-30.8773" gradientUnits="userSpaceOnUse">
<stop stop-color="#86E7FF" stop-opacity="0.3"/>
<stop offset="1" stop-color="#86E7FF" stop-opacity="0.8"/>
</linearGradient>
<linearGradient id="paint30_linear_15_2095" x1="999.1" y1="-3.0891" x2="1039.44" y2="-33.2494" gradientUnits="userSpaceOnUse">
<stop stop-color="#86E7FF" stop-opacity="0.3"/>
<stop offset="1" stop-color="#86E7FF" stop-opacity="0.8"/>
</linearGradient>
<linearGradient id="paint31_linear_15_2095" x1="1113.63" y1="62.95" x2="1326.95" y2="-96.5379" gradientUnits="userSpaceOnUse">
<stop stop-color="#86E7FF" stop-opacity="0.3"/>
<stop offset="1" stop-color="#86E7FF" stop-opacity="0.8"/>
</linearGradient>
<linearGradient id="paint32_linear_15_2095" x1="1126.4" y1="-24.6645" x2="1316.54" y2="2.78961" gradientUnits="userSpaceOnUse">
<stop stop-color="#26F7DD"/>
<stop offset="1" stop-color="#00B8DD"/>
</linearGradient>
<linearGradient id="paint33_linear_15_2095" x1="1127.89" y1="45.4627" x2="1298.62" y2="-82.1847" gradientUnits="userSpaceOnUse">
<stop stop-color="#86E7FF" stop-opacity="0.3"/>
<stop offset="1" stop-color="#86E7FF" stop-opacity="0.8"/>
</linearGradient>
<linearGradient id="paint34_linear_15_2095" x1="1156.32" y1="13.2282" x2="1279.1" y2="-78.5655" gradientUnits="userSpaceOnUse">
<stop stop-color="#86E7FF" stop-opacity="0.3"/>
<stop offset="1" stop-color="#86E7FF" stop-opacity="0.8"/>
</linearGradient>
<linearGradient id="paint35_linear_15_2095" x1="1171.85" y1="14.5341" x2="1276.1" y2="-63.415" gradientUnits="userSpaceOnUse">
<stop stop-color="#86E7FF" stop-opacity="0.3"/>
<stop offset="1" stop-color="#86E7FF" stop-opacity="0.8"/>
</linearGradient>
<linearGradient id="paint36_linear_15_2095" x1="1192.67" y1="0.0116378" x2="1263.14" y2="-52.6744" gradientUnits="userSpaceOnUse">
<stop stop-color="#86E7FF" stop-opacity="0.3"/>
<stop offset="1" stop-color="#86E7FF" stop-opacity="0.8"/>
</linearGradient>
<linearGradient id="paint37_linear_15_2095" x1="1029.24" y1="308.218" x2="1216.18" y2="168.451" gradientUnits="userSpaceOnUse">
<stop stop-color="#86E7FF" stop-opacity="0.3"/>
<stop offset="1" stop-color="#86E7FF" stop-opacity="0.8"/>
</linearGradient>
<linearGradient id="paint38_linear_15_2095" x1="1041.18" y1="301.286" x2="1206.67" y2="177.56" gradientUnits="userSpaceOnUse">
<stop stop-color="#86E7FF" stop-opacity="0.3"/>
<stop offset="1" stop-color="#86E7FF" stop-opacity="0.8"/>
</linearGradient>
<linearGradient id="paint39_linear_15_2095" x1="1048.78" y1="300.308" x2="1203.68" y2="184.496" gradientUnits="userSpaceOnUse">
<stop stop-color="#86E7FF" stop-opacity="0.3"/>
<stop offset="1" stop-color="#86E7FF" stop-opacity="0.8"/>
</linearGradient>
<linearGradient id="paint40_linear_15_2095" x1="1096.05" y1="276.246" x2="1184.94" y2="289.081" gradientUnits="userSpaceOnUse">
<stop stop-color="#26F7DD"/>
<stop offset="1" stop-color="#00B8DD"/>
</linearGradient>
<linearGradient id="paint41_linear_15_2095" x1="1111.68" y1="336.119" x2="1176.25" y2="287.844" gradientUnits="userSpaceOnUse">
<stop stop-color="#86E7FF" stop-opacity="0.3"/>
<stop offset="1" stop-color="#86E7FF" stop-opacity="0.8"/>
</linearGradient>
<linearGradient id="paint42_linear_15_2095" x1="1121.73" y1="330.013" x2="1146.33" y2="311.626" gradientUnits="userSpaceOnUse">
<stop stop-color="#86E7FF" stop-opacity="0.3"/>
<stop offset="1" stop-color="#86E7FF" stop-opacity="0.8"/>
</linearGradient>
<linearGradient id="paint43_linear_15_2095" x1="615.447" y1="542.283" x2="793.906" y2="408.858" gradientUnits="userSpaceOnUse">
<stop stop-color="#86E7FF" stop-opacity="0.3"/>
<stop offset="1" stop-color="#86E7FF" stop-opacity="0.8"/>
</linearGradient>
<linearGradient id="paint44_linear_15_2095" x1="620.681" y1="538.376" x2="788.681" y2="412.771" gradientUnits="userSpaceOnUse">
<stop stop-color="#86E7FF" stop-opacity="0.3"/>
<stop offset="1" stop-color="#86E7FF" stop-opacity="0.8"/>
</linearGradient>
<linearGradient id="paint45_linear_15_2095" x1="620.439" y1="448.425" x2="796.554" y2="473.855" gradientUnits="userSpaceOnUse">
<stop stop-color="#26F7DD"/>
<stop offset="1" stop-color="#00B8DD"/>
</linearGradient>
<linearGradient id="paint46_linear_15_2095" x1="695.847" y1="488.667" x2="756.55" y2="443.282" gradientUnits="userSpaceOnUse">
<stop stop-color="#86E7FF" stop-opacity="0.3"/>
<stop offset="1" stop-color="#86E7FF" stop-opacity="0.8"/>
</linearGradient>
<linearGradient id="paint47_linear_15_2095" x1="781.271" y1="96.7634" x2="1258.64" y2="165.692" gradientUnits="userSpaceOnUse">
<stop stop-color="#26F7DD"/>
<stop offset="1" stop-color="#00B8DD"/>
</linearGradient>
<linearGradient id="paint48_linear_15_2095" x1="497.356" y1="411.754" x2="851.106" y2="462.833" gradientUnits="userSpaceOnUse">
<stop stop-color="#26F7DD"/>
<stop offset="1" stop-color="#00B8DD"/>
</linearGradient>
</defs>
</svg>
