<svg width="304" height="204" viewBox="0 0 304 204" fill="none" xmlns="http://www.w3.org/2000/svg">
<path d="M143.676 202.869H5.03096C2.77142 202.869 0.932617 201.038 0.932617 198.787V4.68413C0.932617 2.43369 2.77142 0.602295 5.03096 0.602295H143.676C145.935 0.602295 147.774 2.43369 147.774 4.68413V198.787C147.774 201.038 145.935 202.869 143.676 202.869ZM5.03096 0.781786C2.86978 0.781786 1.11212 2.53237 1.11212 4.68484V198.788C1.11212 200.94 2.86978 202.691 5.03096 202.691H143.676C145.837 202.691 147.594 200.94 147.594 198.788V4.68413C147.594 2.53237 145.837 0.781072 143.676 0.781072L5.03096 0.781786Z" fill="#3FBDA8" stroke="#3FBDA8"/>
<path d="M298.976 202.869H160.332C158.072 202.869 156.234 201.038 156.234 198.787V4.68413C156.234 2.43369 158.073 0.602295 160.332 0.602295H298.976C301.237 0.602295 303.075 2.43369 303.075 4.68413V198.787C303.075 201.038 301.237 202.869 298.976 202.869ZM160.332 0.781786C158.172 0.781786 156.414 2.53237 156.414 4.68484V198.788C156.414 200.94 158.172 202.691 160.332 202.691H298.976C301.138 202.691 302.895 200.94 302.895 198.788V4.68413C302.895 2.53237 301.138 0.781072 298.976 0.781072L160.332 0.781786Z" fill="#3FBDA8" stroke="#3FBDA8"/>
<path d="M288.47 82.2368C288.47 80.6163 287.139 79.2905 285.512 79.2905H193.365C191.738 79.2905 190.407 80.6163 190.407 82.2368V91.7205H288.47V82.2368Z" fill="#E6E6E6"/>
<path d="M266.79 85.5064C266.79 86.7364 265.788 87.7339 264.553 87.7339C263.318 87.7339 262.316 86.7364 262.316 85.5064C262.316 84.2757 263.318 83.2788 264.553 83.2788C265.788 83.2788 266.79 84.2757 266.79 85.5064Z" fill="#16655C"/>
<path d="M274.715 85.5064C274.715 86.7364 273.714 87.7339 272.479 87.7339C271.244 87.7339 270.242 86.7364 270.242 85.5064C270.242 84.2757 271.244 83.2788 272.479 83.2788C273.714 83.2788 274.715 84.2757 274.715 85.5064Z" fill="#16655C"/>
<path d="M280.405 87.7339C281.64 87.7339 282.641 86.7366 282.641 85.5064C282.641 84.2761 281.64 83.2788 280.405 83.2788C279.169 83.2788 278.168 84.2761 278.168 85.5064C278.168 86.7366 279.169 87.7339 280.405 87.7339Z" fill="#16655C"/>
<path d="M193.365 155.594H285.513C287.14 155.594 288.471 154.268 288.471 152.648V91.7212H190.407V152.648C190.407 154.268 191.738 155.594 193.365 155.594Z" fill="#3FD9D7"/>
<path d="M295.957 104.541C295.957 102.921 294.625 101.595 292.998 101.595H200.852C199.225 101.595 197.894 102.921 197.894 104.541V114.025H295.957V104.541Z" fill="#3FD9D7"/>
<path d="M274.276 107.81C274.276 109.041 273.274 110.037 272.039 110.037C270.804 110.037 269.803 109.04 269.803 107.81C269.803 106.58 270.804 105.582 272.039 105.582C273.275 105.582 274.276 106.579 274.276 107.81Z" fill="#E6E6E6"/>
<path d="M282.202 107.81C282.202 109.041 281.2 110.037 279.965 110.037C278.729 110.037 277.729 109.04 277.729 107.81C277.729 106.58 278.73 105.582 279.965 105.582C281.2 105.582 282.202 106.579 282.202 107.81Z" fill="#E6E6E6"/>
<path d="M290.127 107.81C290.127 109.041 289.126 110.037 287.891 110.037C286.655 110.037 285.654 109.04 285.654 107.81C285.654 106.58 286.656 105.582 287.891 105.582C289.126 105.582 290.127 106.579 290.127 107.81Z" fill="#E6E6E6"/>
<path d="M200.852 177.897H292.999C294.626 177.897 295.957 176.572 295.957 174.951V114.025H197.894V174.951C197.894 176.572 199.225 177.897 200.852 177.897Z" fill="#C1ECEB"/>
<path d="M9.15918 13.8054C9.15918 12.2686 10.4214 11.0107 11.9651 11.0107H132.875C134.418 11.0107 135.681 12.2679 135.681 13.8054V22.8007H9.15918V13.8054Z" fill="#25ACAA"/>
<path d="M31.8446 19.2015C30.573 19.2015 29.5391 18.1718 29.5391 16.9053C29.5391 15.6389 30.573 14.6091 31.8446 14.6091C33.1161 14.6091 34.1501 15.6389 34.1501 16.9053C34.1501 18.1718 33.1154 19.2015 31.8446 19.2015ZM31.8446 14.976C30.7762 14.976 29.9067 15.8413 29.9067 16.9053C29.9067 17.9694 30.7762 18.8347 31.8446 18.8347C32.9129 18.8347 33.7824 17.9687 33.7824 16.9053C33.7824 15.842 32.9129 14.976 31.8446 14.976Z" fill="white"/>
<path d="M24.3272 19.2015C23.0557 19.2015 22.0225 18.1718 22.0225 16.9053C22.0225 15.6389 23.0557 14.6091 24.3272 14.6091C25.5988 14.6091 26.6327 15.6396 26.6327 16.9053C26.6327 18.1711 25.5988 19.2015 24.3272 19.2015ZM24.3272 14.976C23.2596 14.976 22.3901 15.8413 22.3901 16.9053C22.3901 17.9694 23.2596 18.8347 24.3272 18.8347C25.3956 18.8347 26.2651 17.9687 26.2651 16.9053C26.2651 15.842 25.3956 14.976 24.3272 14.976Z" fill="white"/>
<path d="M16.8097 19.2015C15.5381 19.2015 14.5049 18.1718 14.5049 16.9053C14.5049 15.6389 15.5381 14.6091 16.8097 14.6091C18.0812 14.6091 19.1152 15.6389 19.1152 16.9053C19.1152 18.1718 18.0812 19.2015 16.8097 19.2015ZM16.8097 14.976C15.742 14.976 14.8725 15.8413 14.8725 16.9053C14.8725 17.9694 15.742 18.8347 16.8097 18.8347C17.878 18.8347 18.7475 17.9687 18.7475 16.9053C18.7475 15.842 17.8788 14.976 16.8097 14.976Z" fill="white"/>
<path d="M11.9644 97.5774H132.875C134.418 97.5774 135.681 96.3202 135.681 94.7828V22.8H9.15918V94.7828C9.15918 96.3202 10.4214 97.5774 11.9644 97.5774Z" fill="#A1D5D3"/>
<path d="M39.4941 32.6836C39.4941 31.1468 40.7564 29.8889 42.3001 29.8889H163.211C164.754 29.8889 166.017 31.1461 166.017 32.6836V41.6789H39.4941V32.6836Z" fill="#3D8C7F"/>
<path d="M62.1798 38.0805C60.9082 38.0805 59.875 37.0507 59.875 35.7842C59.875 34.5178 60.9082 33.488 62.1798 33.488C63.4514 33.488 64.4853 34.5178 64.4853 35.7842C64.4853 37.0507 63.4514 38.0805 62.1798 38.0805ZM62.1798 33.8549C61.1121 33.8549 60.2426 34.7209 60.2426 35.785C60.2426 36.849 61.1121 37.7143 62.1798 37.7143C63.2482 37.7143 64.1177 36.849 64.1177 35.785C64.1177 34.7202 63.2482 33.8549 62.1798 33.8549Z" fill="#E6E6E6"/>
<path d="M54.6629 38.0805C53.3913 38.0805 52.3574 37.0507 52.3574 35.7842C52.3574 34.5178 53.3913 33.488 54.6629 33.488C55.9345 33.488 56.9677 34.5178 56.9677 35.7842C56.9677 37.0507 55.9345 38.0805 54.6629 38.0805ZM54.6629 33.8549C53.5945 33.8549 52.725 34.7209 52.725 35.785C52.725 36.849 53.5945 37.7143 54.6629 37.7143C55.7306 37.7143 56.6001 36.849 56.6001 35.785C56.6008 34.7202 55.7313 33.8549 54.6629 33.8549Z" fill="#E6E6E6"/>
<path d="M47.1453 38.0805C45.8738 38.0805 44.8398 37.0507 44.8398 35.7842C44.8398 34.5178 45.8738 33.488 47.1453 33.488C48.4169 33.488 49.4501 34.5178 49.4501 35.7842C49.4501 37.0507 48.4162 38.0805 47.1453 38.0805ZM47.1453 33.8549C46.077 33.8549 45.2075 34.7209 45.2075 35.785C45.2075 36.849 46.077 37.7143 47.1453 37.7143C48.213 37.7143 49.0825 36.849 49.0825 35.785C49.0825 34.7202 48.213 33.8549 47.1453 33.8549Z" fill="#E6E6E6"/>
<path d="M42.3001 130.651H163.211C164.754 130.651 166.017 129.394 166.017 127.857V41.679H39.4941V127.857C39.4941 129.394 40.7571 130.651 42.3001 130.651Z" fill="#C1ECEB"/>
<path d="M224.16 48.0425H181.506C180.994 48.0425 180.574 48.4601 180.574 48.9707V55.9494C180.574 56.46 180.994 56.8776 181.506 56.8776H224.16C224.673 56.8776 225.092 56.46 225.092 55.9494V48.9707C225.092 48.4601 224.673 48.0425 224.16 48.0425Z" fill="#E6E6E6"/>
<path d="M255.848 33.064L181.503 33.5295C180.99 33.5317 180.573 33.9507 180.574 34.4613L180.602 41.4393C180.604 41.9499 181.025 42.3654 181.538 42.3632L255.883 41.8977C256.396 41.8955 256.813 41.4765 256.811 40.9659L256.783 33.9879C256.781 33.478 256.361 33.0618 255.848 33.064Z" fill="#3FD9D7"/>
<path d="M239.554 18.5508H181.506C180.994 18.5508 180.574 18.9684 180.574 19.479V26.457C180.574 26.9676 180.994 27.3852 181.506 27.3852H239.554C240.067 27.3852 240.486 26.9676 240.486 26.457V19.479C240.486 18.9684 240.067 18.5508 239.554 18.5508Z" fill="#3FD9D7"/>
<path d="M32.3963 161.616H17.6062C17.3585 161.616 17.1553 161.818 17.1553 162.066V167.032C17.1553 167.279 17.3578 167.481 17.6062 167.481H32.3963C32.644 167.481 32.8472 167.279 32.8472 167.032V162.066C32.8464 161.818 32.644 161.616 32.3963 161.616Z" fill="#7ABAB2"/>
<path d="M43.6875 151.934L17.482 152.243C17.301 152.244 17.1538 152.522 17.1553 152.861L17.1653 157.494C17.1661 157.833 17.3147 158.109 17.4949 158.107L43.7005 157.798C43.8814 157.797 44.0286 157.519 44.0279 157.18L44.0178 152.547C44.0164 152.208 43.8678 151.932 43.6875 151.934Z" fill="#629992"/>
<path d="M37.8222 142.561H17.6062C17.3585 142.561 17.1553 142.763 17.1553 143.01V147.977C17.1553 148.223 17.3578 148.426 17.6062 148.426H37.8222C38.0699 148.426 38.2731 148.223 38.2731 147.977V143.01C38.2731 142.763 38.0699 142.561 37.8222 142.561Z" fill="#629992"/>
<path d="M43.6875 180.518L17.482 180.827C17.301 180.828 17.1538 181.106 17.1553 181.445L17.1653 186.078C17.1661 186.417 17.3147 186.693 17.4949 186.691L43.7005 186.382C43.8814 186.381 44.0286 186.103 44.0279 185.764L44.0178 181.131C44.0164 180.792 43.8678 180.516 43.6875 180.518Z" fill="#629992"/>
<path d="M37.8222 171.144H17.6062C17.3585 171.144 17.1553 171.346 17.1553 171.593V176.559C17.1553 176.806 17.3578 177.008 17.6062 177.008H37.8222C38.0699 177.008 38.2731 176.807 38.2731 176.559V171.593C38.2731 171.346 38.0699 171.144 37.8222 171.144Z" fill="#629992"/>
<path d="M288.986 20.7405H153.388V155.125H288.986V20.7405Z" fill="#186C64"/>
<path opacity="0.1" d="M197.652 27.4268H153.388V52.7187H197.652V27.4268Z" fill="black"/>
<path opacity="0.2" d="M197.652 78.0105H153.388V103.302H197.652V78.0105Z" fill="black"/>
<path opacity="0.1" d="M197.652 103.302H153.388V128.594H197.652V103.302Z" fill="black"/>
<path d="M283.45 153.371H200.943C199.126 153.371 197.652 151.904 197.652 150.094V27.4268H286.741V150.093C286.741 151.904 285.268 153.371 283.45 153.371Z" fill="#34AFA0"/>
<path opacity="0.3" d="M288.986 20.7405H153.388V27.4267H288.986V20.7405Z" fill="black"/>
<path opacity="0.8" d="M158.671 25.4444C159.426 25.4444 160.037 24.8351 160.037 24.0835C160.037 23.3319 159.426 22.7227 158.671 22.7227C157.916 22.7227 157.305 23.3319 157.305 24.0835C157.305 24.8351 157.916 25.4444 158.671 25.4444Z" fill="#186C64"/>
<path opacity="0.8" d="M164.894 25.4444C165.648 25.4444 166.26 24.8351 166.26 24.0835C166.26 23.3319 165.648 22.7227 164.894 22.7227C164.139 22.7227 163.527 23.3319 163.527 24.0835C163.527 24.8351 164.139 25.4444 164.894 25.4444Z" fill="#186C64"/>
<path opacity="0.8" d="M171.117 25.4444C171.872 25.4444 172.484 24.8351 172.484 24.0835C172.484 23.3319 171.872 22.7227 171.117 22.7227C170.363 22.7227 169.751 23.3319 169.751 24.0835C169.751 24.8351 170.363 25.4444 171.117 25.4444Z" fill="#186C64"/>
<path opacity="0.2" d="M258.495 84.7589H206.577C205.452 84.7589 204.531 83.8422 204.531 82.7216V42.0727C204.531 40.9522 205.452 40.0354 206.577 40.0354H258.495C259.62 40.0354 260.54 40.9522 260.54 42.0727V82.7216C260.54 83.8422 259.62 84.7589 258.495 84.7589Z" fill="#186C64"/>
<path opacity="0.2" d="M279.82 70.8323H239.942C239.078 70.8323 238.371 70.128 238.371 69.2677V38.0454C238.371 37.1844 239.078 36.4807 239.942 36.4807H279.82C280.684 36.4807 281.391 37.1851 281.391 38.0454V69.2677C281.391 70.128 280.684 70.8323 279.82 70.8323Z" fill="#186C64"/>
<path opacity="0.2" d="M257.511 133.539H217.633C216.769 133.539 216.062 132.835 216.062 131.975V100.752C216.062 99.8914 216.77 99.1877 217.633 99.1877H257.511C258.375 99.1877 259.082 99.8921 259.082 100.752V131.975C259.082 132.835 258.375 133.539 257.511 133.539Z" fill="#186C64"/>
<path opacity="0.7" d="M288.986 20.7405H153.388V155.125H288.986V20.7405Z" fill="#34AFA0"/>
<path d="M276.538 33.137H140.94V167.521H276.538V33.137Z" fill="#186C64"/>
<path opacity="0.1" d="M185.205 39.8232H140.94V65.1152H185.205V39.8232Z" fill="black"/>
<path opacity="0.2" d="M185.205 90.407H140.94V115.699H185.205V90.407Z" fill="black"/>
<path opacity="0.1" d="M185.205 115.699H140.94V140.991H185.205V115.699Z" fill="black"/>
<path d="M271.004 165.768H188.497C186.679 165.768 185.206 164.301 185.206 162.491V39.8232H274.295V162.49C274.295 164.301 272.821 165.768 271.004 165.768Z" fill="#34AFA0"/>
<path opacity="0.3" d="M276.538 33.137H140.94V39.8232H276.538V33.137Z" fill="black"/>
<path opacity="0.8" d="M146.224 37.8408C146.978 37.8408 147.59 37.2316 147.59 36.48C147.59 35.7284 146.978 35.1191 146.224 35.1191C145.469 35.1191 144.857 35.7284 144.857 36.48C144.857 37.2316 145.469 37.8408 146.224 37.8408Z" fill="#186C64"/>
<path opacity="0.8" d="M152.447 37.8408C153.202 37.8408 153.814 37.2316 153.814 36.48C153.814 35.7284 153.202 35.1191 152.447 35.1191C151.693 35.1191 151.081 35.7284 151.081 36.48C151.081 37.2316 151.693 37.8408 152.447 37.8408Z" fill="#186C64"/>
<path opacity="0.8" d="M158.671 37.8408C159.426 37.8408 160.037 37.2316 160.037 36.48C160.037 35.7284 159.426 35.1191 158.671 35.1191C157.916 35.1191 157.305 35.7284 157.305 36.48C157.305 37.2316 157.916 37.8408 158.671 37.8408Z" fill="#186C64"/>
<path opacity="0.2" d="M246.047 97.1554H194.13C193.004 97.1554 192.084 96.2386 192.084 95.1181V54.4692C192.084 53.3487 193.004 52.4319 194.13 52.4319H246.047C247.173 52.4319 248.093 53.3487 248.093 54.4692V95.1181C248.093 96.2386 247.173 97.1554 246.047 97.1554Z" fill="#186C64"/>
<path opacity="0.2" d="M268.032 122.117H228.154C227.29 122.117 226.583 121.413 226.583 120.552V89.33C226.583 88.469 227.29 87.7654 228.154 87.7654H268.032C268.895 87.7654 269.603 88.4698 269.603 89.33V120.552C269.603 121.413 268.896 122.117 268.032 122.117Z" fill="#186C64"/>
<path opacity="0.2" d="M245.065 145.936H205.187C204.323 145.936 203.616 145.231 203.616 144.371V113.149C203.616 112.288 204.323 111.584 205.187 111.584H245.065C245.929 111.584 246.636 112.289 246.636 113.149V144.371C246.636 145.232 245.929 145.936 245.065 145.936Z" fill="#186C64"/>
<path opacity="0.5" d="M276.538 33.137H140.94V167.521H276.538V33.137Z" fill="#34AFA0"/>
<path d="M264.092 45.5339H128.494V179.918H264.092V45.5339Z" fill="#186C64"/>
<path opacity="0.1" d="M172.759 52.2202H128.494V77.5121H172.759V52.2202Z" fill="black"/>
<path opacity="0.2" d="M172.759 102.804H128.494V128.096H172.759V102.804Z" fill="black"/>
<path opacity="0.1" d="M172.759 128.095H128.494V153.387H172.759V128.095Z" fill="black"/>
<path d="M258.558 178.164H176.05C174.233 178.164 172.76 176.697 172.76 174.887V52.2202H261.848V174.887C261.848 176.697 260.375 178.164 258.558 178.164Z" fill="#34AFA0"/>
<path opacity="0.3" d="M264.092 45.5339H128.494V52.2202H264.092V45.5339Z" fill="black"/>
<path opacity="0.8" d="M133.777 50.2378C134.532 50.2378 135.144 49.6285 135.144 48.877C135.144 48.1254 134.532 47.5161 133.777 47.5161C133.023 47.5161 132.411 48.1254 132.411 48.877C132.411 49.6285 133.023 50.2378 133.777 50.2378Z" fill="#186C64"/>
<path opacity="0.8" d="M141.367 48.877C141.367 49.6285 140.756 50.2378 140.001 50.2378C139.247 50.2378 138.635 49.6285 138.635 48.877C138.635 48.1254 139.247 47.5161 140.001 47.5161C140.756 47.5161 141.367 48.1254 141.367 48.877Z" fill="#186C64"/>
<path opacity="0.8" d="M146.225 50.2378C146.979 50.2378 147.591 49.6285 147.591 48.877C147.591 48.1254 146.979 47.5161 146.225 47.5161C145.47 47.5161 144.858 48.1254 144.858 48.877C144.858 49.6285 145.47 50.2378 146.225 50.2378Z" fill="#186C64"/>
<path opacity="0.2" d="M202.079 109.437H124.068C122.378 109.437 120.994 108.059 120.994 106.375V45.2957C120.994 43.6124 122.377 42.2344 124.068 42.2344H202.08C203.77 42.2344 205.154 43.6117 205.154 45.2957V106.375C205.153 108.059 203.77 109.437 202.079 109.437Z" fill="#186C64"/>
<path opacity="0.2" d="M244.276 126.685H184.355C183.057 126.685 181.994 125.627 181.994 124.334V77.4191C181.994 76.1262 183.057 75.0679 184.355 75.0679H244.276C245.574 75.0679 246.636 76.1262 246.636 77.4191V124.334C246.636 125.627 245.574 126.685 244.276 126.685Z" fill="#186C64"/>
<path opacity="0.2" d="M265.898 190.435H205.977C204.679 190.435 203.616 189.376 203.616 188.083V141.169C203.616 139.876 204.679 138.817 205.977 138.817H265.898C267.197 138.817 268.258 139.876 268.258 141.169V188.083C268.258 189.376 267.197 190.435 265.898 190.435Z" fill="#186C64"/>
</svg>
