<svg width="157" height="160" viewBox="0 0 157 160" fill="none" xmlns="http://www.w3.org/2000/svg">
<path d="M102.755 143.034C103.058 142.337 103.116 141.545 103.125 140.83L102.62 50.3491C102.626 49.3044 102.448 48.2715 102.123 47.2297C101.783 46.2439 101.352 45.264 100.795 44.3106C99.6998 42.439 98.2163 40.7942 96.4238 39.7555L58.9939 18.3888C57.9267 17.7797 56.4647 17.3061 55.3157 17.6918C55.1183 17.7595 54.9209 17.8272 54.7442 17.9302C56.8296 16.7145 57.4658 16.3437 59.5512 15.128C60.859 14.3657 62.5184 14.7716 63.8716 15.5454L101.302 36.9122C102.215 37.4212 103.029 38.0832 103.743 38.8983C105.837 41.1817 107.443 44.4128 107.478 47.4705L108.002 137.987C107.991 138.372 107.979 138.758 107.932 139.164C107.801 140.235 107.162 141.412 106.208 141.969C104.087 143.205 103.451 143.576 101.33 144.812C101.981 144.385 102.452 143.732 102.755 143.034Z" fill="url(#paint0_linear_806_74605)"/>
<path opacity="0.92" d="M90.0381 34.4874C88.8264 34.1991 88.7108 33.272 89.5092 32.8539C90.7319 32.1886 92.5803 32.674 92.584 33.5718C92.5546 33.6836 92.5252 33.7955 92.4604 33.9279C92.3457 34.1369 92.0982 34.2812 91.8654 34.3695C91.5973 34.4784 91.2731 34.5727 90.999 34.5904C90.8517 34.5815 90.7603 34.5874 90.6129 34.5786C90.4302 34.5904 90.2268 34.5669 90.0381 34.4874Z" fill="#0A2621"/>
<path d="M101.664 141.919C102.005 140.962 101.934 140.435 101.929 137.834C101.944 137.778 101.468 49.6854 101.438 49.2292C101.307 47.79 100.784 46.2478 99.958 44.8352L100.771 44.3612C101.308 45.2794 101.76 46.2948 102.1 47.2807C102.425 48.3226 102.602 49.3556 102.597 50.4004L103.116 140.835C103.129 141.586 103.05 142.342 102.746 143.04C102.443 143.738 101.972 144.391 101.336 144.762C101.124 144.886 100.947 144.989 100.694 145.042C99.5241 145.392 98.0265 144.939 97.0151 144.344L59.58 122.975C57.8079 121.972 56.3035 120.292 55.2086 118.42L56.0216 117.946C56.4142 118.617 56.898 119.282 57.4526 119.906C58.5411 121.118 59.3785 121.577 60.6139 122.231C61.87 122.919 57.7951 120.653 74.6432 130.249C77.406 131.812 80.1482 133.339 82.8756 134.922C85.6031 136.505 88.3305 138.088 91.0727 139.615C92.2167 140.275 93.3755 140.878 94.4842 141.558C95.8022 142.352 96.9876 143.082 97.7777 143.379C99.5112 144.073 101.04 143.608 101.664 141.919Z" fill="url(#paint1_linear_806_74605)"/>
<path d="M105.589 58.2518L104.961 57.9076L105.003 65.8389L105.631 66.1832L105.589 58.2518Z" fill="url(#paint2_linear_806_74605)"/>
<path d="M105.706 57.4752L104.963 57.9083L105.592 58.2529L106.335 57.8198L105.706 57.4752Z" fill="url(#paint3_linear_806_74605)"/>
<path d="M106.332 57.8202L105.59 58.2529L105.632 66.1846L106.374 65.7519L106.332 57.8202Z" fill="url(#paint4_linear_806_74605)"/>
<path opacity="0.92" d="M95.2643 36.1274C95.1317 36.0627 94.9284 36.0391 94.7871 36.1215C94.6458 36.2039 94.6724 36.3304 94.805 36.3951C94.9376 36.4598 95.1409 36.4833 95.2822 36.4009C95.3882 36.3391 95.3969 36.1921 95.2643 36.1274Z" fill="#0A2621"/>
<path opacity="0.75" d="M59.0106 18.4274L96.4457 39.7964C98.2178 40.7999 99.7223 42.4802 100.817 44.352L100.004 44.8259C99.281 43.5899 98.3459 42.4775 97.2666 41.6859C96.6473 41.1944 96.0606 40.9208 95.4119 40.5412C94.1558 39.8526 98.2307 42.1184 81.3825 32.5226C78.6197 30.9601 75.8776 29.4329 73.1501 27.8498C70.4227 26.2667 67.6952 24.6836 64.9531 23.1564C63.809 22.4972 62.6503 21.894 61.5416 21.2143C59.3095 19.9107 58.3481 19.2397 57.1132 19.1545C55.5274 19.037 54.146 20.079 54.1156 22.7014C54.1216 22.7927 54.5698 113.269 54.6143 113.669C54.7038 115.038 55.2473 116.615 56.0943 118.063L55.2812 118.537C54.7441 117.619 54.2924 116.604 53.9527 115.618C53.6277 114.576 53.45 113.543 53.4551 112.498L52.9716 22.0423C52.9592 21.2918 53.0382 20.5354 53.3412 19.8378C53.6236 19.1049 54.186 18.4456 54.8577 18.054C55.0344 17.951 55.2318 17.8833 55.4292 17.8156C56.4663 17.4005 57.9639 17.8536 59.0106 18.4274Z" fill="url(#paint5_linear_806_74605)"/>
<path d="M54.5562 111.942C54.5512 112.987 54.5723 113.59 54.5723 113.59C54.6619 114.959 55.2054 116.536 56.0524 117.984C56.4449 118.655 56.9287 119.32 57.4833 119.944C58.5717 121.156 59.409 121.615 60.6443 122.269C61.8236 122.907 58.3771 120.986 71.4706 128.46L74.6725 130.287C77.4351 131.85 80.177 133.377 82.9043 134.96C83.6649 135.369 84.4109 135.834 85.1362 136.264C87.1175 137.382 89.084 138.556 91.1007 139.654C92.2446 140.313 93.4033 140.916 94.5119 141.596C95.8298 142.39 97.0151 143.12 97.8051 143.417C99.5179 144.076 101.082 143.591 101.685 141.866C102.026 140.909 101.955 140.383 101.95 137.781L101.759 99.5341C101.648 75.6842 101.509 49.4357 101.455 49.1826C101.325 47.7435 100.802 46.2015 99.9753 44.7889C99.2523 43.5529 98.3172 42.4405 97.238 41.6489C96.6187 41.1575 96.032 40.8838 95.3834 40.5042C94.1274 39.8157 98.202 42.0815 81.3552 32.4857C78.5926 30.9232 75.8507 29.3959 73.1234 27.8128C70.3962 26.2297 67.669 24.6466 64.927 23.1194C63.7831 22.4602 62.6244 21.857 61.5158 21.1773C59.2839 19.8737 58.3226 19.2028 57.0878 19.1175C55.5376 18.9793 54.2064 19.9447 54.1082 22.3697C54.1141 22.461 54.0848 22.5728 54.0907 22.664C54.0613 22.7759 54.4459 99.5994 54.5562 111.942Z" fill="url(#paint6_linear_806_74605)"/>
<path d="M101.897 140.445C101.778 142.835 100.447 143.8 98.917 143.697C97.6822 143.612 96.7209 142.941 94.489 141.638C93.345 140.978 92.2011 140.319 91.0778 139.695C88.3152 138.133 85.5879 136.55 82.8814 135.002C80.1188 133.439 77.3768 131.912 74.6496 130.329C57.8028 120.733 61.8567 122.964 60.6214 122.311C59.9728 121.931 59.3861 121.657 58.7668 121.166C56.4904 119.462 54.7432 116.313 54.5494 113.632C54.5049 113.232 54.097 36.6115 54.055 25.0338C54.0499 22.4322 53.9581 21.8701 54.3198 20.9489C54.9432 19.2596 56.5076 18.7739 58.1997 19.3976C59.1224 19.7596 59.665 20.201 64.9041 23.1612C66.4667 24.0499 68.0294 24.9385 69.536 25.8125C70.2613 26.2421 70.8397 27.2309 70.8581 28.0726C70.8774 30.0503 72.2615 32.4163 73.9774 33.4051L81.5045 37.6836C83.2204 38.6723 84.5989 37.8688 84.5796 35.8911C84.5759 34.9935 85.1622 34.6991 85.8875 35.1288C97.4184 41.7143 94.2578 39.9576 95.3811 40.5814C96.6164 41.2347 97.4331 41.6584 98.5422 42.9061C100.241 44.7571 101.266 47.238 101.453 49.2598C101.418 49.2804 101.404 46.826 101.897 140.445Z" fill="url(#paint7_linear_806_74605)"/>
<path d="M69.0914 54.059L69.0919 65.6378L59.0543 59.8436L59.0537 48.2734L69.0914 54.059Z" fill="#389989"/>
<path d="M59.0538 48.2733L60.8725 47.2271L70.9107 53.0124L69.092 54.0586L59.0538 48.2733Z" fill="#44AA99"/>
<path d="M70.91 53.0123L69.0918 54.0586L69.0924 65.6376L70.9106 64.5827L70.91 53.0123Z" fill="#298273"/>
<g opacity="0.5">
<path d="M67.9394 54.5948C67.6796 54.2402 67.2898 53.9635 66.9088 54.1797L66.8914 54.1883L66.8741 54.1969C66.8741 54.1969 66.8655 54.1969 66.8655 54.2056C66.8655 54.2056 66.086 54.6552 66.0774 54.6552C66.0774 54.6552 66.0687 54.6552 66.0687 54.6639C66.0687 54.6639 66.06 54.6638 66.06 54.6725C66.06 54.6725 66.0514 54.6725 66.0514 54.6811C66.0514 54.6811 66.0427 54.6811 66.0427 54.6898C66.0081 54.7071 65.9734 54.733 65.9388 54.7676L63.6352 57.3443L62.154 54.387C61.9462 53.9805 61.4438 53.4185 60.9675 53.7038C60.9588 53.7038 60.0928 54.2053 60.0928 54.2053C59.8156 54.3609 59.7897 54.8538 60.0322 55.3553L62.3275 59.9298C62.544 60.3535 63.0551 60.8983 63.5141 60.6129C64.7785 59.8866 63.9211 60.6648 68.1473 55.9351C68.3812 55.667 68.2945 55.0617 67.9394 54.5948Z" fill="#CCCCCC"/>
<path d="M62.9177 60.5881C62.6925 60.4583 62.476 60.2162 62.3287 59.9222L60.0334 55.3478C59.7649 54.8203 59.8169 54.2928 60.146 54.1804C60.4751 54.0594 60.9514 54.3966 61.2199 54.9241L62.8656 58.2101L65.9487 54.76C66.1825 54.492 66.6588 54.665 67.0053 55.1406C67.3517 55.6162 67.447 56.2128 67.2046 56.4809L63.5499 60.5794C63.4114 60.7351 63.1948 60.7437 62.9523 60.6226C62.9437 60.6053 62.9264 60.5967 62.9177 60.5881Z" fill="white"/>
</g>
<path d="M69.0914 74.9861L69.0919 86.5562L59.0543 80.7707L59.0537 69.1919L69.0914 74.9861Z" fill="#389989"/>
<path d="M59.0538 69.1918L60.8725 68.1456L70.9107 73.9308L69.092 74.9857L59.0538 69.1918Z" fill="#44AA99"/>
<path d="M70.91 73.9307L69.0918 74.9857L69.0924 86.556L70.9106 85.5011L70.91 73.9307Z" fill="#298273"/>
<g opacity="0.5">
<path d="M67.9394 75.5132C67.6796 75.1587 67.2898 74.882 66.9088 75.0981L66.8915 75.1068L66.8741 75.1154C66.8741 75.1154 66.8655 75.1154 66.8655 75.1241C66.8655 75.1241 66.086 75.5737 66.0774 75.5737C66.0774 75.5737 66.0687 75.5737 66.0687 75.5823C66.0687 75.5823 66.06 75.5823 66.06 75.591C66.06 75.591 66.0514 75.591 66.0514 75.5996C66.0514 75.5996 66.0427 75.5996 66.0427 75.6083C66.0081 75.6255 65.9734 75.6515 65.9388 75.6861L63.6352 78.2628L62.154 75.3054C61.9462 74.899 61.4438 74.3369 60.9675 74.6222C60.9588 74.6222 60.0928 75.1237 60.0928 75.1237C59.8156 75.2794 59.7897 75.7723 60.0322 76.2738L62.3275 80.8482C62.5441 81.2719 63.0551 81.8167 63.5141 81.5314C64.7785 80.8051 63.9211 81.5833 68.1473 76.8535C68.3812 76.5855 68.2945 75.9888 67.9394 75.5132Z" fill="#CCCCCC"/>
<path d="M62.9177 81.5148C62.6925 81.3851 62.476 81.143 62.3287 80.849L60.0334 76.2745C59.7649 75.747 59.8169 75.2196 60.146 75.1072C60.4751 74.9861 60.9514 75.3234 61.2199 75.8509L62.8656 79.1369L65.94 75.6782C66.1738 75.4101 66.6502 75.5831 66.9966 76.0587C67.3431 76.5343 67.4384 77.1309 67.1959 77.399L63.5413 81.4975C63.4027 81.6532 63.1862 81.6618 62.9437 81.5407C62.9437 81.5235 62.9263 81.5148 62.9177 81.5148Z" fill="white"/>
</g>
<path d="M69.0904 95.9047L69.0909 107.475L59.0533 101.689L59.0527 90.1191L69.0904 95.9047Z" fill="#389989"/>
<path d="M59.0528 90.1189L60.8715 89.0641L70.9097 94.8493L69.091 95.9041L59.0528 90.1189Z" fill="#44AA99"/>
<path d="M70.909 94.8492L69.0909 95.9041L69.0914 107.474L70.9096 106.428L70.909 94.8492Z" fill="#298273"/>
<g opacity="0.5">
<path d="M67.9384 96.4317C67.6786 96.0771 67.2889 95.8004 66.9078 96.0166L66.8905 96.0252L66.8732 96.0339C66.8732 96.0339 66.8645 96.0339 66.8645 96.0425C66.8645 96.0425 66.085 96.4921 66.0764 96.4921C66.0764 96.4921 66.0677 96.4921 66.0677 96.5008C66.0677 96.5008 66.0591 96.5008 66.0591 96.5094C66.0591 96.5094 66.0504 96.5094 66.0504 96.5181C66.0504 96.5181 66.0417 96.5181 66.0417 96.5267C66.0071 96.544 65.9725 96.5699 65.9378 96.6045L63.6342 99.1813L62.1531 96.2239C61.9452 95.8175 61.4428 95.2554 60.9665 95.5407C60.9578 95.5407 60.0918 96.0422 60.0918 96.0422C59.8147 96.1978 59.7887 96.6907 60.0312 97.1923L62.3265 101.767C62.5431 102.19 63.0541 102.735 63.5131 102.45C64.7775 101.724 63.9201 102.502 68.1464 97.772C68.3802 97.5039 68.2936 96.9073 67.9384 96.4317Z" fill="#CCCCCC"/>
<path d="M62.9167 102.433C62.6915 102.304 62.475 102.061 62.3278 101.767L60.0324 97.193C59.7639 96.6655 59.8159 96.138 60.145 96.0256C60.4741 95.9046 60.9504 96.2418 61.2189 96.7693L62.8646 100.055L65.9477 96.6053C66.1815 96.3372 66.6579 96.5102 67.0043 96.9858C67.3508 97.4614 67.4461 98.058 67.2036 98.3261L63.549 102.425C63.4104 102.58 63.1939 102.589 62.9514 102.468C62.9427 102.442 62.9254 102.442 62.9167 102.433Z" fill="white"/>
</g>
<path d="M95.9326 70.2091C95.9326 71.4253 94.6161 72.1857 93.5623 71.5779L77.6938 62.4262C77.2054 62.1445 76.9045 61.6236 76.9044 61.0599C76.9044 59.8463 78.2178 59.0875 79.2695 59.6936L95.1412 68.8399C95.6308 69.122 95.9326 69.6441 95.9326 70.2091Z" fill="url(#paint8_linear_806_74605)"/>
<path d="M95.9326 90.1244C95.9326 91.3408 94.6162 92.1013 93.5621 91.4939L77.6961 82.3508C77.2063 82.0686 76.9045 81.5464 76.9044 80.9812C76.9044 79.7648 78.2208 79.0043 79.2749 79.6117L95.1409 88.7548C95.6307 89.037 95.9326 89.5592 95.9326 90.1244Z" fill="url(#paint9_linear_806_74605)"/>
<path d="M95.9316 111.597C95.9317 112.813 94.6152 113.574 93.5611 112.966L77.6951 103.823C77.2053 103.541 76.9035 103.019 76.9034 102.453C76.9034 101.237 78.2198 100.476 79.2739 101.084L95.14 110.227C95.6297 110.509 95.9316 111.031 95.9316 111.597Z" fill="url(#paint10_linear_806_74605)"/>
<path d="M74.9001 31.7535C74.5581 31.574 74.2689 31.0796 74.2804 30.6941L74.2652 30.182L82.5941 34.9402C82.936 35.1196 83.2252 35.614 83.2138 35.9996L83.2289 36.5116L74.9001 31.7535Z" fill="#090000"/>
<path d="M73.5583 31.1624L73.5519 30.5032C73.5633 30.1176 73.8461 29.9528 74.1528 30.1529L74.2854 30.2176L74.3006 30.7297C74.2891 31.1152 74.5783 31.6096 74.9203 31.7891L83.2492 36.5473L83.2404 36.6944C83.2524 36.8769 83.1876 37.0093 83.0816 37.0711C82.9756 37.1329 82.8282 37.1241 82.6396 37.0447L74.178 32.2218C73.8154 32.007 73.5468 31.5479 73.5583 31.1624Z" fill="#1A2738"/>
<path opacity="0.25" d="M89.3991 39.6833C89.4014 38.8769 88.8437 37.9235 88.139 37.5292C87.4344 37.1349 86.8688 37.4646 86.9018 38.2504C86.8995 39.0568 87.4572 40.0102 88.1619 40.4045C88.8312 40.8194 89.3968 40.4897 89.3991 39.6833Z" fill="url(#paint11_linear_806_74605)"/>
<path opacity="0.5" d="M60.9049 24.2429C60.9073 23.4365 60.3495 22.4831 59.6449 22.0888C58.9402 21.6945 58.3747 22.0242 58.4077 22.8099C58.4054 23.6163 58.9631 24.5698 59.6678 24.9641C60.3724 25.3583 60.938 25.0287 60.9049 24.2429Z" fill="url(#paint12_linear_806_74605)"/>
<path opacity="0.25" d="M92.9701 41.2467C92.7191 40.8176 92.3257 40.5805 92.0914 40.717C91.8572 40.8536 91.8707 41.3121 92.1217 41.7412C92.3727 42.1702 92.7661 42.4074 93.0003 42.2708C93.2346 42.1343 93.2211 41.6757 92.9701 41.2467Z" fill="url(#paint13_linear_806_74605)"/>
<path opacity="0.5" d="M66.1009 27.3683C66.1124 26.9827 65.8232 26.4884 65.4606 26.2736C65.1186 26.0941 64.8358 26.2589 64.8243 26.6444C64.8128 27.03 65.102 27.5244 65.4647 27.7392C65.8067 27.9187 66.0895 27.7538 66.1009 27.3683Z" fill="url(#paint14_linear_806_74605)"/>
<path opacity="0.5" d="M63.8744 25.589C63.6234 25.1599 63.23 24.9228 62.9958 25.0593C62.7615 25.1959 62.775 25.6544 63.026 26.0835C63.277 26.5125 63.6704 26.7497 63.9046 26.6131C64.1389 26.4765 64.1254 26.018 63.8744 25.589Z" fill="url(#paint15_linear_806_74605)"/>
<path d="M42.9245 95.8827C43.3939 96.164 43.8633 96.4139 44.3327 96.6951C44.0511 96.5389 43.6756 96.5702 43.2374 96.7889C42.3925 97.2888 41.704 98.4449 41.704 99.4135C41.704 98.9136 41.5475 98.5699 41.2659 98.4137C40.9842 98.2574 40.7026 98.1012 40.4209 97.9137C40.64 97.1326 41.2033 96.3202 41.8605 95.9452C42.2673 95.7578 42.6741 95.7265 42.9245 95.8827Z" fill="url(#paint16_linear_806_74605)"/>
<path d="M44.7704 97.6639C44.7704 98.1013 44.6139 98.6012 44.3949 99.0699C43.5186 100.851 42.6111 102.601 41.7348 104.382C40.8899 103.569 40.0136 102.819 39.0748 102.163C38.8244 101.976 38.6992 101.663 38.6992 101.226C38.6992 100.257 39.3877 99.0699 40.2327 98.6012C40.6395 98.3513 41.0463 98.3513 41.2967 98.5075C41.5783 98.6637 41.7348 99.0074 41.7348 99.5074C41.7348 98.5387 42.4233 97.3514 43.2683 96.8827C43.6751 96.6327 44.0819 96.6015 44.3636 96.789C44.6139 96.8515 44.7704 97.1952 44.7704 97.6639Z" fill="url(#paint17_linear_806_74605)"/>
<path d="M38.668 101.194C38.668 101.632 38.8245 101.976 39.0436 102.132C39.9824 102.788 40.8587 103.538 41.7036 104.35L40.2954 103.538C39.4504 102.725 38.5741 101.976 37.6353 101.319C37.3849 101.132 37.2598 100.819 37.2598 100.382C37.2598 99.4134 37.9482 98.2261 38.7932 97.7574C39.2 97.5074 39.6069 97.5074 39.8572 97.6637C40.045 97.7574 40.2328 97.8824 40.3892 97.9761C40.6709 98.1323 40.9525 98.2886 41.2342 98.476C40.9525 98.3198 40.577 98.3511 40.1702 98.5698C39.3565 99.0385 38.668 100.226 38.668 101.194Z" fill="url(#paint18_linear_806_74605)"/>
<path d="M114.994 59.2123C114.378 59.5814 113.762 59.9094 113.146 60.2784C113.515 60.0734 114.008 60.1144 114.583 60.4015C115.692 61.0575 116.595 62.5747 116.595 63.8458C116.595 63.1897 116.801 62.7387 117.17 62.5337C117.54 62.3287 117.91 62.1236 118.279 61.8776C117.992 60.8525 117.253 59.7864 116.39 59.2943C115.856 59.0483 115.322 59.0073 114.994 59.2123Z" fill="url(#paint19_linear_806_74605)"/>
<path d="M112.571 61.5494C112.571 62.1235 112.776 62.7796 113.064 63.3946C114.214 65.7319 115.405 68.0281 116.554 70.3654C117.663 69.2993 118.813 68.3152 120.045 67.4541C120.374 67.2081 120.538 66.798 120.538 66.224C120.538 64.9528 119.635 63.3946 118.526 62.7796C117.992 62.4515 117.458 62.4515 117.129 62.6566C116.76 62.8616 116.554 63.3126 116.554 63.9687C116.554 62.6976 115.651 61.1394 114.542 60.5243C114.008 60.1963 113.474 60.1553 113.105 60.4013C112.776 60.4833 112.571 60.9344 112.571 61.5494Z" fill="url(#paint20_linear_806_74605)"/>
<path d="M120.579 66.1833C120.579 66.7573 120.373 67.2084 120.086 67.4134C118.854 68.2745 117.704 69.2586 116.595 70.3247L118.443 69.2586C119.552 68.1925 120.702 67.2084 121.934 66.3473C122.262 66.1013 122.427 65.6912 122.427 65.1171C122.427 63.846 121.523 62.2878 120.414 61.6728C119.881 61.3447 119.347 61.3447 119.018 61.5498C118.772 61.6728 118.525 61.8368 118.32 61.9598C117.95 62.1648 117.581 62.3699 117.211 62.6159C117.581 62.4109 118.074 62.4519 118.607 62.7389C119.675 63.354 120.579 64.9121 120.579 66.1833Z" fill="url(#paint21_linear_806_74605)"/>
<path d="M134.541 37.2885C132.945 38.1946 131.349 39.132 129.753 40.0381C130.567 39.5382 131.067 38.5071 131.067 37.0698C131.067 34.3826 131.067 31.6955 131.067 29.0083C131.067 26.0399 128.971 22.4467 126.404 20.9781C122.461 18.6971 118.518 16.4162 114.575 14.1665C113.323 13.4478 112.165 13.3541 111.352 13.8228C112.948 12.8854 114.544 11.9793 116.14 11.0419C116.985 10.5732 118.143 10.6357 119.426 11.3543C123.369 13.6353 127.312 15.9163 131.255 18.166C133.821 19.6345 135.918 23.2591 135.918 26.1962C135.918 28.8833 135.918 31.5705 135.918 34.2576C135.887 35.7574 135.355 36.7886 134.541 37.2885Z" fill="url(#paint22_linear_806_74605)"/>
<path d="M131.036 29.0083C131.036 31.6954 131.036 34.3826 131.036 37.0697C131.036 38.507 130.535 39.5382 129.722 40.0381C129.69 40.0381 129.69 40.0693 129.659 40.0693C128.814 40.5693 127.656 40.4755 126.373 39.7569C122.43 37.4759 118.487 35.195 114.544 32.9453L109.881 34.2576C109.881 32.1641 109.881 18.9471 109.881 16.8536C109.881 15.385 110.413 14.3227 111.258 13.854C111.289 13.854 111.289 13.8227 111.32 13.8227C112.165 13.354 113.292 13.4478 114.544 14.1664C118.487 16.4474 122.43 18.7284 126.373 20.9781C128.971 22.4466 131.036 26.0399 131.036 29.0083Z" fill="url(#paint23_linear_806_74605)"/>
<path d="M117.986 25.134C117.986 25.7589 117.485 25.9776 116.828 25.6027C116.202 25.2277 115.67 24.4153 115.67 23.7904C115.67 23.1655 116.171 22.9467 116.828 23.3217C117.485 23.6967 117.986 24.509 117.986 25.134Z" fill="url(#paint24_linear_806_74605)"/>
<path d="M121.616 27.2275C121.616 27.8524 121.115 28.0711 120.458 27.6962C119.832 27.3212 119.3 26.5088 119.3 25.8839C119.3 25.259 119.801 25.0402 120.458 25.4152C121.115 25.7902 121.616 26.6025 121.616 27.2275Z" fill="url(#paint25_linear_806_74605)"/>
<path d="M125.246 29.3208C125.246 29.9457 124.745 30.1644 124.088 29.7895C123.462 29.4145 122.93 28.6021 122.93 27.9772C122.93 27.3523 123.431 27.1336 124.088 27.5085C124.745 27.8835 125.246 28.6958 125.246 29.3208Z" fill="url(#paint26_linear_806_74605)"/>
<path d="M45.3611 115.445C45.3611 115.64 45.3611 115.868 45.3611 116.063L45.9803 116.421L58.4297 123.58C58.4297 123.384 58.4297 123.157 58.4297 122.961C58.4297 120.553 56.735 117.657 54.6818 116.453C52.8242 115.38 50.9665 114.306 49.1415 113.265C48.1312 112.679 47.1861 112.614 46.5343 112.972C45.7847 113.362 45.3611 114.208 45.3611 115.445Z" fill="url(#paint27_linear_806_74605)"/>
<path d="M45.3611 116.778L58.4297 124.327L61.4932 122.57L60.8414 122.212L58.4297 123.612L45.9803 116.42L45.3611 116.778Z" fill="url(#paint28_linear_806_74605)"/>
<path d="M45.3604 123.547L58.4291 131.063L61.46 129.306L60.8408 128.948L58.4291 130.315L45.9797 123.156L45.3604 123.547Z" fill="url(#paint29_linear_806_74605)"/>
<path d="M45.3614 123.547C45.4592 125.89 47.0887 128.656 49.1093 129.827C50.9669 130.901 52.8246 131.975 54.6496 133.016C55.6925 133.602 56.6376 133.667 57.322 133.276C57.9412 132.918 58.3649 132.137 58.3975 131.063L45.3614 123.547Z" fill="url(#paint30_linear_806_74605)"/>
<path d="M49.5007 111.247C48.4904 111.833 47.4801 112.419 46.5024 112.972C47.1868 112.614 48.0994 112.679 49.1096 113.265C50.9673 114.338 52.8249 115.412 54.65 116.453C56.7357 117.657 58.3978 120.553 58.3978 122.961C58.3978 123.156 58.3978 123.384 58.3978 123.579L60.8095 122.18L61.4287 121.822C61.4287 121.627 61.4287 121.399 61.4287 121.204C61.4287 118.796 59.734 115.9 57.6808 114.696C55.8232 113.622 53.9656 112.549 52.1405 111.507C51.1302 110.922 50.1851 110.857 49.5007 111.247Z" fill="url(#paint31_linear_806_74605)"/>
<path d="M58.4297 131.063C58.3971 132.137 57.9734 132.885 57.3542 133.276C58.3645 132.69 59.3748 132.105 60.3851 131.519C61.0369 131.161 61.428 130.38 61.4932 129.306L58.4297 131.063Z" fill="url(#paint32_linear_806_74605)"/>
<path d="M45.9806 123.157L58.3975 130.315C58.3975 130.152 58.3975 130.543 58.3975 124.328L45.3288 116.779V122.571C45.3288 122.636 45.3288 122.734 45.3288 122.799L45.9806 123.157Z" fill="url(#paint33_linear_806_74605)"/>
<path d="M58.4291 124.328C58.4291 130.543 58.4291 130.152 58.4291 130.315L60.8407 128.916L61.46 128.558C61.46 128.395 61.46 128.883 61.46 122.571L58.4291 124.328Z" fill="url(#paint34_linear_806_74605)"/>
<defs>
<linearGradient id="paint0_linear_806_74605" x1="67.7338" y1="87.3772" x2="115.986" y2="59.1524" gradientUnits="userSpaceOnUse">
<stop stop-color="#26675C"/>
<stop offset="1" stop-color="#0F3831"/>
</linearGradient>
<linearGradient id="paint1_linear_806_74605" x1="56.4584" y1="120.556" x2="122.682" y2="81.818" gradientUnits="userSpaceOnUse">
<stop stop-color="#389989"/>
<stop offset="1" stop-color="#63BDAE"/>
</linearGradient>
<linearGradient id="paint2_linear_806_74605" x1="103.422" y1="63.1374" x2="107.166" y2="60.9477" gradientUnits="userSpaceOnUse">
<stop stop-color="#26675C"/>
<stop offset="1" stop-color="#0F3831"/>
</linearGradient>
<linearGradient id="paint3_linear_806_74605" x1="105.118" y1="58.1734" x2="106.179" y2="57.5531" gradientUnits="userSpaceOnUse">
<stop stop-color="#26675C"/>
<stop offset="1" stop-color="#0F3831"/>
</linearGradient>
<linearGradient id="paint4_linear_806_74605" x1="105.996" y1="57.625" x2="104.407" y2="65.3204" gradientUnits="userSpaceOnUse">
<stop offset="0.130058" stop-color="#5A8982"/>
<stop offset="0.224777" stop-color="#8EBCB6"/>
<stop offset="1" stop-color="#8EBCB6"/>
</linearGradient>
<linearGradient id="paint5_linear_806_74605" x1="33.311" y1="80.9788" x2="99.5698" y2="42.2197" gradientUnits="userSpaceOnUse">
<stop stop-color="#389989"/>
<stop offset="1" stop-color="#63BDAE"/>
</linearGradient>
<linearGradient id="paint6_linear_806_74605" x1="45.6781" y1="100.249" x2="110.304" y2="62.4453" gradientUnits="userSpaceOnUse">
<stop stop-color="#26675C"/>
<stop offset="1" stop-color="#0F3831"/>
</linearGradient>
<linearGradient id="paint7_linear_806_74605" x1="136.347" y1="160.257" x2="60.7519" y2="32.5504" gradientUnits="userSpaceOnUse">
<stop stop-color="#6DBAAD"/>
<stop offset="1" stop-color="#067260"/>
</linearGradient>
<linearGradient id="paint8_linear_806_74605" x1="86.4182" y1="58.331" x2="86.4175" y2="72.9445" gradientUnits="userSpaceOnUse">
<stop stop-color="#26675C"/>
<stop offset="1" stop-color="#0F3831"/>
</linearGradient>
<linearGradient id="paint9_linear_806_74605" x1="86.4182" y1="78.2461" x2="86.4175" y2="92.8596" gradientUnits="userSpaceOnUse">
<stop stop-color="#26675C"/>
<stop offset="1" stop-color="#0F3831"/>
</linearGradient>
<linearGradient id="paint10_linear_806_74605" x1="86.4172" y1="99.7182" x2="86.4165" y2="114.332" gradientUnits="userSpaceOnUse">
<stop stop-color="#26675C"/>
<stop offset="1" stop-color="#0F3831"/>
</linearGradient>
<linearGradient id="paint11_linear_806_74605" x1="87.2667" y1="39.482" x2="89.0326" y2="38.449" gradientUnits="userSpaceOnUse">
<stop stop-color="#26675C"/>
<stop offset="1" stop-color="#0F3831"/>
</linearGradient>
<linearGradient id="paint12_linear_806_74605" x1="58.7726" y1="24.0415" x2="60.5384" y2="23.0086" gradientUnits="userSpaceOnUse">
<stop stop-color="#26675C"/>
<stop offset="1" stop-color="#0F3831"/>
</linearGradient>
<linearGradient id="paint13_linear_806_74605" x1="92.1217" y1="41.7412" x2="92.9693" y2="41.2454" gradientUnits="userSpaceOnUse">
<stop stop-color="#26675C"/>
<stop offset="1" stop-color="#0F3831"/>
</linearGradient>
<linearGradient id="paint14_linear_806_74605" x1="65.0119" y1="27.2691" x2="65.9125" y2="26.7423" gradientUnits="userSpaceOnUse">
<stop stop-color="#26675C"/>
<stop offset="1" stop-color="#0F3831"/>
</linearGradient>
<linearGradient id="paint15_linear_806_74605" x1="63.026" y1="26.0835" x2="63.8736" y2="25.5877" gradientUnits="userSpaceOnUse">
<stop stop-color="#26675C"/>
<stop offset="1" stop-color="#0F3831"/>
</linearGradient>
<linearGradient id="paint16_linear_806_74605" x1="42.3768" y1="95.7827" x2="42.3768" y2="99.4135" gradientUnits="userSpaceOnUse">
<stop stop-color="#389989"/>
<stop offset="1" stop-color="#21685C"/>
</linearGradient>
<linearGradient id="paint17_linear_806_74605" x1="41.7348" y1="96.6685" x2="41.7348" y2="104.382" gradientUnits="userSpaceOnUse">
<stop stop-color="#26675C"/>
<stop offset="1" stop-color="#0F3831"/>
</linearGradient>
<linearGradient id="paint18_linear_806_74605" x1="39.4817" y1="97.5562" x2="39.4817" y2="104.35" gradientUnits="userSpaceOnUse">
<stop stop-color="#389989"/>
<stop offset="1" stop-color="#21685C"/>
</linearGradient>
<linearGradient id="paint19_linear_806_74605" x1="115.713" y1="59.0811" x2="115.713" y2="63.8458" gradientUnits="userSpaceOnUse">
<stop stop-color="#389989"/>
<stop offset="1" stop-color="#21685C"/>
</linearGradient>
<linearGradient id="paint20_linear_806_74605" x1="116.554" y1="60.2432" x2="116.554" y2="70.3654" gradientUnits="userSpaceOnUse">
<stop stop-color="#26675C"/>
<stop offset="1" stop-color="#0F3831"/>
</linearGradient>
<linearGradient id="paint21_linear_806_74605" x1="119.511" y1="61.4087" x2="119.511" y2="70.3247" gradientUnits="userSpaceOnUse">
<stop stop-color="#389989"/>
<stop offset="1" stop-color="#21685C"/>
</linearGradient>
<linearGradient id="paint22_linear_806_74605" x1="123.635" y1="10.7417" x2="123.635" y2="40.0381" gradientUnits="userSpaceOnUse">
<stop stop-color="#389989"/>
<stop offset="1" stop-color="#21685C"/>
</linearGradient>
<linearGradient id="paint23_linear_806_74605" x1="120.458" y1="13.5342" x2="120.458" y2="40.3828" gradientUnits="userSpaceOnUse">
<stop stop-color="#26675C"/>
<stop offset="1" stop-color="#0F3831"/>
</linearGradient>
<linearGradient id="paint24_linear_806_74605" x1="120.458" y1="23.1377" x2="120.458" y2="29.9735" gradientUnits="userSpaceOnUse">
<stop stop-color="#389989"/>
<stop offset="1" stop-color="#63BDAE"/>
</linearGradient>
<linearGradient id="paint25_linear_806_74605" x1="120.458" y1="23.1377" x2="120.458" y2="29.9735" gradientUnits="userSpaceOnUse">
<stop stop-color="#389989"/>
<stop offset="1" stop-color="#63BDAE"/>
</linearGradient>
<linearGradient id="paint26_linear_806_74605" x1="120.458" y1="23.1377" x2="120.458" y2="29.9735" gradientUnits="userSpaceOnUse">
<stop stop-color="#389989"/>
<stop offset="1" stop-color="#63BDAE"/>
</linearGradient>
<linearGradient id="paint27_linear_806_74605" x1="51.8954" y1="112.751" x2="51.8954" y2="123.58" gradientUnits="userSpaceOnUse">
<stop stop-color="#26675C"/>
<stop offset="1" stop-color="#0F3831"/>
</linearGradient>
<linearGradient id="paint28_linear_806_74605" x1="53.4271" y1="116.42" x2="53.4271" y2="124.327" gradientUnits="userSpaceOnUse">
<stop stop-color="#389989"/>
<stop offset="1" stop-color="#21685C"/>
</linearGradient>
<linearGradient id="paint29_linear_806_74605" x1="53.4102" y1="123.156" x2="53.4102" y2="131.063" gradientUnits="userSpaceOnUse">
<stop stop-color="#389989"/>
<stop offset="1" stop-color="#21685C"/>
</linearGradient>
<linearGradient id="paint30_linear_806_74605" x1="51.8794" y1="123.547" x2="51.8794" y2="133.522" gradientUnits="userSpaceOnUse">
<stop stop-color="#26675C"/>
<stop offset="1" stop-color="#0F3831"/>
</linearGradient>
<linearGradient id="paint31_linear_806_74605" x1="53.9656" y1="111.001" x2="53.9656" y2="123.579" gradientUnits="userSpaceOnUse">
<stop stop-color="#389989"/>
<stop offset="1" stop-color="#21685C"/>
</linearGradient>
<linearGradient id="paint32_linear_806_74605" x1="59.4237" y1="129.306" x2="59.4237" y2="133.276" gradientUnits="userSpaceOnUse">
<stop stop-color="#389989"/>
<stop offset="1" stop-color="#21685C"/>
</linearGradient>
<linearGradient id="paint33_linear_806_74605" x1="51.8631" y1="116.779" x2="51.8631" y2="130.315" gradientUnits="userSpaceOnUse">
<stop stop-color="#26675C"/>
<stop offset="1" stop-color="#0F3831"/>
</linearGradient>
<linearGradient id="paint34_linear_806_74605" x1="59.9445" y1="122.571" x2="59.9445" y2="130.315" gradientUnits="userSpaceOnUse">
<stop stop-color="#389989"/>
<stop offset="1" stop-color="#21685C"/>
</linearGradient>
</defs>
</svg>
