<svg width="25" height="24" viewBox="0 0 25 24" fill="none" xmlns="http://www.w3.org/2000/svg">
<path d="M2.77307 5.62524C3.56638 4.92494 4.60851 4.5 5.74989 4.5H19.2499C20.3913 4.5 21.4334 4.92494 22.2267 5.62524C22.0423 4.14526 20.7798 3 19.2499 3H5.74989C4.21995 3 2.9575 4.14525 2.77307 5.62524Z" fill="white"/>
<path d="M2.77307 8.62524C3.56638 7.92494 4.60851 7.5 5.74989 7.5H19.2499C20.3913 7.5 21.4334 7.92494 22.2267 8.62524C22.0423 7.14526 20.7798 6 19.2499 6H5.74989C4.21995 6 2.9575 7.14525 2.77307 8.62524Z" fill="white"/>
<path d="M5.75 9C4.09315 9 2.75 10.3431 2.75 12V18C2.75 19.6569 4.09315 21 5.75 21H19.25C20.9069 21 22.25 19.6569 22.25 18V12C22.25 10.3431 20.9069 9 19.25 9H15.5C15.0858 9 14.75 9.33579 14.75 9.75C14.75 10.9926 13.7426 12 12.5 12C11.2574 12 10.25 10.9926 10.25 9.75C10.25 9.33579 9.91421 9 9.5 9H5.75Z" fill="white"/>
</svg>
