<svg width="157" height="160" viewBox="0 0 157 160" fill="none" xmlns="http://www.w3.org/2000/svg">
<g filter="url(#filter0_bd_806_74567)">
<path d="M117.053 114.689V78.0015C117.053 57.6999 100.595 41.2422 80.2933 41.2422H35.5364C35.4969 41.2422 35.4648 41.2742 35.4648 41.3138V78.0015C35.4648 98.3031 51.9225 114.761 72.2241 114.761H116.981C117.021 114.761 117.053 114.729 117.053 114.689Z" fill="#389989" fill-opacity="0.2"/>
</g>
<path d="M101.16 69.068V84.2982C101.16 84.3424 101.099 84.3598 101.068 84.3912L96.9491 88.5371L63.2588 58.0052L67.4701 53.8375C67.4703 53.8134 67.4899 53.7939 67.5141 53.7939H85.8597C94.31 53.7939 101.16 60.6324 101.16 69.068Z" fill="url(#paint0_linear_806_74567)"/>
<path d="M63.2588 58.0493V73.2795C63.2588 81.7151 70.1092 88.5536 78.5595 88.5536H96.9051C96.9294 88.5536 96.9491 88.5339 96.9491 88.5096V73.2795C96.9491 64.8438 90.0987 58.0054 81.6484 58.0054H63.3028C63.2785 58.0054 63.2588 58.025 63.2588 58.0493Z" fill="url(#paint1_linear_806_74567)"/>
<g clip-path="url(#clip0_806_74567)">
<path d="M86.1705 73.2791C86.1705 69.9048 83.4351 67.1694 80.0608 67.1694C76.6865 67.1694 73.9512 69.9048 73.9512 73.2791C73.9512 76.3285 76.1854 78.8561 79.1062 79.3145V75.0451H77.5549V73.2791H79.1062V71.933C79.1062 70.4018 80.0183 69.556 81.4139 69.556C82.0821 69.556 82.7815 69.6753 82.7815 69.6753V71.1789H82.0111C81.2522 71.1789 81.0154 71.6499 81.0154 72.1335V73.2791H82.7099L82.439 75.0451H81.0154V79.3145C83.9363 78.8561 86.1705 76.3285 86.1705 73.2791Z" fill="white"/>
</g>
<path d="M46.8692 88.6387V99.2454C46.8692 99.2762 46.8264 99.2883 46.8047 99.3101L43.9364 102.197L20.4736 80.9343L23.4065 78.0318C23.4066 78.015 23.4203 78.0015 23.4371 78.0015H36.2134C42.0985 78.0015 46.8692 82.7639 46.8692 88.6387Z" fill="url(#paint2_linear_806_74567)"/>
<path d="M20.4736 80.9647V91.5713C20.4736 97.4461 25.2444 102.209 31.1294 102.209H43.9057C43.9227 102.209 43.9364 102.195 43.9364 102.178V91.5713C43.9364 85.6965 39.1656 80.9341 33.2806 80.9341H20.5043C20.4874 80.9341 20.4736 80.9478 20.4736 80.9647Z" fill="url(#paint3_linear_806_74567)"/>
<g clip-path="url(#clip1_806_74567)">
<path d="M32.1748 88.0826C33.3117 88.0826 33.4463 88.0876 33.8934 88.1076C34.3089 88.1258 34.5333 88.1956 34.6829 88.2538C34.8807 88.3303 35.0236 88.4233 35.1715 88.5713C35.3211 88.7209 35.4125 88.8621 35.489 89.0599C35.5472 89.2095 35.617 89.4355 35.6353 89.8494C35.6552 90.2982 35.6602 90.4328 35.6602 91.568C35.6602 92.7048 35.6552 92.8395 35.6353 93.2866C35.617 93.7021 35.5472 93.9265 35.489 94.0761C35.4125 94.2738 35.3195 94.4168 35.1715 94.5647C35.022 94.7143 34.8807 94.8057 34.6829 94.8822C34.5333 94.9403 34.3073 95.0101 33.8934 95.0284C33.4446 95.0484 33.31 95.0533 32.1748 95.0533C31.038 95.0533 30.9033 95.0484 30.4562 95.0284C30.0407 95.0101 29.8163 94.9403 29.6668 94.8822C29.469 94.8057 29.326 94.7126 29.1781 94.5647C29.0285 94.4151 28.9371 94.2738 28.8607 94.0761C28.8025 93.9265 28.7327 93.7004 28.7144 93.2866C28.6944 92.8378 28.6895 92.7032 28.6895 91.568C28.6895 90.4311 28.6944 90.2965 28.7144 89.8494C28.7327 89.4339 28.8025 89.2095 28.8607 89.0599C28.9371 88.8621 29.0302 88.7192 29.1781 88.5713C29.3277 88.4217 29.469 88.3303 29.6668 88.2538C29.8163 88.1956 30.0424 88.1258 30.4562 88.1076C30.9033 88.0876 31.038 88.0826 32.1748 88.0826ZM32.1748 87.3164C31.0197 87.3164 30.8751 87.3214 30.4213 87.3413C29.9693 87.3613 29.6584 87.4344 29.3892 87.5391C29.1083 87.6488 28.8706 87.7934 28.6346 88.0311C28.3969 88.2671 28.2523 88.5048 28.1426 88.784C28.0379 89.0549 27.9648 89.3641 27.9449 89.8162C27.9249 90.2716 27.9199 90.4162 27.9199 91.5713C27.9199 92.7264 27.9249 92.871 27.9449 93.3248C27.9648 93.7769 28.0379 94.0877 28.1426 94.3569C28.2523 94.6378 28.3969 94.8755 28.6346 95.1115C28.8706 95.3475 29.1083 95.4938 29.3875 95.6018C29.6584 95.7065 29.9676 95.7797 30.4197 95.7996C30.8734 95.8196 31.018 95.8246 32.1732 95.8246C33.3283 95.8246 33.4729 95.8196 33.9266 95.7996C34.3787 95.7797 34.6895 95.7065 34.9588 95.6018C35.238 95.4938 35.4757 95.3475 35.7117 95.1115C35.9477 94.8755 36.094 94.6378 36.202 94.3586C36.3067 94.0877 36.3799 93.7785 36.3998 93.3265C36.4198 92.8727 36.4247 92.7281 36.4247 91.573C36.4247 90.4178 36.4198 90.2732 36.3998 89.8195C36.3799 89.3674 36.3067 89.0566 36.202 88.7873C36.0973 88.5048 35.9527 88.2671 35.715 88.0311C35.479 87.7951 35.2413 87.6488 34.9621 87.5408C34.6912 87.4361 34.3821 87.3629 33.93 87.343C33.4746 87.3214 33.33 87.3164 32.1748 87.3164Z" fill="white"/>
<path d="M32.1748 89.3857C30.9682 89.3857 29.9892 90.3646 29.9892 91.5713C29.9892 92.778 30.9682 93.7569 32.1748 93.7569C33.3815 93.7569 34.3604 92.778 34.3604 91.5713C34.3604 90.3646 33.3815 89.3857 32.1748 89.3857ZM32.1748 92.9891C31.392 92.9891 30.7571 92.3541 30.7571 91.5713C30.7571 90.7885 31.392 90.1536 32.1748 90.1536C32.9577 90.1536 33.5926 90.7885 33.5926 91.5713C33.5926 92.3541 32.9577 92.9891 32.1748 92.9891Z" fill="white"/>
<path d="M34.9571 89.2992C34.9571 89.5818 34.7278 89.8095 34.4469 89.8095C34.1643 89.8095 33.9366 89.5801 33.9366 89.2992C33.9366 89.0167 34.166 88.789 34.4469 88.789C34.7278 88.789 34.9571 89.0184 34.9571 89.2992Z" fill="white"/>
</g>
<path d="M93.7421 114.494V126.743C93.7421 126.778 93.6926 126.792 93.6675 126.818L90.3551 130.152L63.2588 105.596L66.6458 102.244C66.646 102.225 66.6618 102.209 66.6812 102.209H81.4361C88.2325 102.209 93.7421 107.709 93.7421 114.494Z" fill="url(#paint4_linear_806_74567)"/>
<path d="M63.2588 105.631V117.88C63.2588 124.665 68.7684 130.165 75.5648 130.165H90.3197C90.3392 130.165 90.3551 130.149 90.3551 130.13V117.88C90.3551 111.096 84.8455 105.596 78.0491 105.596H63.2942C63.2746 105.596 63.2588 105.612 63.2588 105.631Z" fill="url(#paint5_linear_806_74567)"/>
<g clip-path="url(#clip2_806_74567)">
<path d="M74.9501 121.872C78.6577 121.872 80.6862 118.8 80.6862 116.136C80.6862 116.05 80.6843 115.962 80.6805 115.875C81.0751 115.59 81.4156 115.236 81.6861 114.831C81.3186 114.995 80.9284 115.102 80.5288 115.148C80.9495 114.896 81.2645 114.5 81.4154 114.033C81.0196 114.268 80.5868 114.433 80.1355 114.522C79.8314 114.199 79.4294 113.985 78.9915 113.914C78.5537 113.842 78.1044 113.917 77.7131 114.126C77.3219 114.335 77.0105 114.667 76.827 115.071C76.6436 115.475 76.5984 115.929 76.6983 116.361C75.897 116.321 75.113 116.113 74.3972 115.75C73.6814 115.387 73.0499 114.878 72.5435 114.256C72.2861 114.7 72.2073 115.225 72.3232 115.724C72.4391 116.224 72.7409 116.661 73.1673 116.946C72.8472 116.936 72.534 116.85 72.2538 116.695V116.72C72.2535 117.186 72.4145 117.637 72.7094 117.997C73.0044 118.358 73.415 118.605 73.8715 118.697C73.575 118.778 73.2637 118.79 72.9619 118.731C73.0907 119.132 73.3414 119.482 73.6789 119.733C74.0164 119.985 74.4239 120.124 74.8445 120.133C74.1304 120.694 73.2483 120.998 72.3402 120.996C72.1791 120.996 72.0183 120.986 71.8584 120.967C72.7809 121.559 73.854 121.873 74.9501 121.872Z" fill="white"/>
</g>
<path d="M134.74 96.7126V107.324C134.74 107.355 134.697 107.367 134.675 107.389L131.806 110.278L108.332 89.0045L111.266 86.1007C111.266 86.0839 111.28 86.0703 111.297 86.0703H124.079C129.967 86.0703 134.74 90.835 134.74 96.7126Z" fill="url(#paint6_linear_806_74567)"/>
<path d="M108.332 88.7416V99.3532C108.332 105.231 113.105 109.995 118.993 109.995H131.775C131.792 109.995 131.806 109.982 131.806 109.965V99.3532C131.806 93.4756 127.033 88.7109 121.145 88.7109H108.363C108.346 88.7109 108.332 88.7246 108.332 88.7416Z" fill="url(#paint7_linear_806_74567)"/>
<g clip-path="url(#clip3_806_74567)">
<path d="M124.21 97.6504C124.21 97.6504 124.127 97.0634 123.871 96.8057C123.547 96.4665 123.184 96.4648 123.018 96.4449C121.827 96.3584 120.04 96.3584 120.04 96.3584H120.036C120.036 96.3584 118.249 96.3584 117.058 96.4449C116.892 96.4648 116.53 96.4665 116.205 96.8057C115.949 97.0634 115.868 97.6504 115.868 97.6504C115.868 97.6504 115.781 98.3405 115.781 99.0289V99.6741C115.781 100.363 115.866 101.053 115.866 101.053C115.866 101.053 115.949 101.64 116.204 101.897C116.528 102.237 116.954 102.225 117.143 102.262C117.825 102.326 120.038 102.346 120.038 102.346C120.038 102.346 121.827 102.343 123.018 102.258C123.184 102.238 123.547 102.237 123.871 101.897C124.127 101.64 124.21 101.053 124.21 101.053C124.21 101.053 124.295 100.364 124.295 99.6741V99.0289C124.295 98.3405 124.21 97.6504 124.21 97.6504ZM119.159 100.457V98.0645L121.458 99.2651L119.159 100.457Z" fill="white"/>
</g>
<g filter="url(#filter1_f_806_74567)">
<path d="M93.9054 33.6673V43.0999C93.9054 43.1273 93.8673 43.138 93.848 43.1575L91.2972 45.7252L70.4316 26.8157L73.0398 24.2345C73.04 24.2196 73.0521 24.2075 73.0671 24.2075H84.4291C89.6627 24.2075 93.9054 28.4428 93.9054 33.6673Z" fill="url(#paint8_linear_806_74567)"/>
<path d="M70.4316 26.5819V36.0145C70.4316 41.239 74.6743 45.4743 79.9079 45.4743H91.27C91.285 45.4743 91.2972 45.4621 91.2972 45.447V36.0145C91.2972 30.79 87.0546 26.5547 81.821 26.5547H70.4589C70.4438 26.5547 70.4316 26.5669 70.4316 26.5819Z" fill="url(#paint9_linear_806_74567)"/>
<g clip-path="url(#clip4_806_74567)">
<path d="M84.5471 34.501C84.5471 34.501 84.4732 33.9793 84.2456 33.7501C83.9574 33.4486 83.6352 33.4471 83.4873 33.4294C82.429 33.3525 80.8401 33.3525 80.8401 33.3525H80.8371C80.8371 33.3525 79.2482 33.3525 78.1899 33.4294C78.0421 33.4471 77.7198 33.4486 77.4316 33.7501C77.204 33.9793 77.1315 34.501 77.1315 34.501C77.1315 34.501 77.0547 35.1144 77.0547 35.7264V36.2999C77.0547 36.9118 77.1301 37.5252 77.1301 37.5252C77.1301 37.5252 77.204 38.047 77.4301 38.2761C77.7184 38.5776 78.0967 38.5672 78.2652 38.5998C78.8713 38.6574 80.8386 38.6751 80.8386 38.6751C80.8386 38.6751 82.429 38.6722 83.4873 38.5968C83.6352 38.5791 83.9574 38.5776 84.2456 38.2761C84.4732 38.047 84.5471 37.5252 84.5471 37.5252C84.5471 37.5252 84.6225 36.9133 84.6225 36.2999V35.7264C84.6225 35.1144 84.5471 34.501 84.5471 34.501ZM80.0567 36.996V34.8691L82.1009 35.9362L80.0567 36.996Z" fill="white"/>
</g>
</g>
<g opacity="0.4" filter="url(#filter2_f_806_74567)">
<path d="M139.318 46.7926V55.5599C139.318 55.5853 139.283 55.5953 139.265 55.6134L136.894 58L117.5 40.4242L119.924 38.0251C119.924 38.0112 119.936 38 119.95 38H130.51C135.375 38 139.318 41.9366 139.318 46.7926Z" fill="url(#paint10_linear_806_74567)"/>
<path d="M117.5 40.2069V48.9742C117.5 53.8302 121.443 57.7668 126.308 57.7668H136.869C136.883 57.7668 136.894 57.7555 136.894 57.7415V48.9742C136.894 44.1182 132.95 40.1816 128.086 40.1816H117.525C117.511 40.1816 117.5 40.193 117.5 40.2069Z" fill="url(#paint11_linear_806_74567)"/>
<g clip-path="url(#clip5_806_74567)">
<path d="M130.619 47.5675C130.619 47.5675 130.551 47.0825 130.339 46.8696C130.071 46.5893 129.772 46.5879 129.634 46.5714C128.651 46.5 127.174 46.5 127.174 46.5H127.171C127.171 46.5 125.694 46.5 124.71 46.5714C124.573 46.5879 124.274 46.5893 124.006 46.8696C123.794 47.0825 123.727 47.5675 123.727 47.5675C123.727 47.5675 123.655 48.1376 123.655 48.7064V49.2394C123.655 49.8082 123.725 50.3784 123.725 50.3784C123.725 50.3784 123.794 50.8633 124.004 51.0763C124.272 51.3565 124.624 51.3469 124.78 51.3771C125.344 51.4307 127.172 51.4472 127.172 51.4472C127.172 51.4472 128.651 51.4445 129.634 51.3744C129.772 51.3579 130.071 51.3565 130.339 51.0763C130.551 50.8633 130.619 50.3784 130.619 50.3784C130.619 50.3784 130.689 49.8096 130.689 49.2394V48.7064C130.689 48.1376 130.619 47.5675 130.619 47.5675ZM126.446 49.8865V47.9096L128.346 48.9015L126.446 49.8865Z" fill="white"/>
</g>
</g>
<path d="M53.6416 47.2469V56.8105C53.6416 56.8383 53.603 56.8492 53.5834 56.8689L50.9972 59.4723L29.8418 40.3002L32.4862 37.6831C32.4864 37.668 32.4987 37.6558 32.5139 37.6558H44.0337C49.34 37.6558 53.6416 41.9499 53.6416 47.2469Z" fill="url(#paint12_linear_806_74567)"/>
<path d="M29.8418 40.0632V49.6268C29.8418 54.9239 34.1434 59.218 39.4497 59.218H50.9695C50.9848 59.218 50.9972 59.2056 50.9972 59.1904V49.6268C50.9972 44.3298 46.6956 40.0356 41.3893 40.0356H29.8694C29.8542 40.0356 29.8418 40.048 29.8418 40.0632Z" fill="url(#paint13_linear_806_74567)"/>
<path fill-rule="evenodd" clip-rule="evenodd" d="M44.2296 49.6265C44.2296 51.7453 42.5119 53.463 40.3931 53.463C38.2743 53.463 36.5566 51.7453 36.5566 49.6265C36.5566 47.5077 38.2743 45.79 40.3931 45.79C42.5119 45.79 44.2296 47.5077 44.2296 49.6265ZM42.3899 49.0656C42.6995 49.0656 42.9508 49.3169 42.9508 49.6265C42.9508 49.8553 42.8117 50.0528 42.6277 50.1425C42.6367 50.1964 42.6411 50.2502 42.6411 50.3085C42.6411 51.1701 41.6405 51.8656 40.4021 51.8656C39.1636 51.8656 38.163 51.1701 38.163 50.3085C38.163 50.2502 38.1675 50.1919 38.1765 50.138C37.9791 50.0483 37.8444 49.8553 37.8444 49.6265C37.8444 49.3169 38.0957 49.0656 38.4053 49.0656C38.5534 49.0656 38.6925 49.1284 38.7912 49.2227C39.1771 48.94 39.7111 48.765 40.3079 48.747L40.5905 47.4099C40.5995 47.383 40.613 47.3605 40.6354 47.3471C40.6579 47.3336 40.6848 47.3291 40.7117 47.3336L41.6405 47.531C41.7033 47.3964 41.838 47.3067 41.995 47.3067C42.2149 47.3067 42.3944 47.4862 42.3944 47.706C42.3944 47.9259 42.2149 48.1054 41.995 48.1054C41.7796 48.1054 41.6046 47.9349 41.5957 47.724L40.7655 47.549L40.5098 48.747C41.0931 48.7695 41.6226 48.9489 42.004 49.2227C42.1027 49.1239 42.2373 49.0656 42.3899 49.0656ZM39.5136 49.6265C39.2938 49.6265 39.1143 49.806 39.1143 50.0259C39.1143 50.2457 39.2938 50.4252 39.5136 50.4252C39.7335 50.4252 39.913 50.2457 39.913 50.0259C39.913 49.806 39.7335 49.6265 39.5136 49.6265ZM40.3976 51.372C40.5502 51.372 41.0707 51.354 41.3444 51.0803C41.3848 51.0399 41.3848 50.9771 41.3534 50.9322C41.313 50.8919 41.2457 50.8919 41.2053 50.9322C41.0303 51.1028 40.6668 51.1656 40.4021 51.1656C40.1373 51.1656 39.7694 51.1028 39.5989 50.9322C39.5585 50.8919 39.4912 50.8919 39.4508 50.9322C39.4104 50.9726 39.4104 51.0399 39.4508 51.0803C39.72 51.3495 40.245 51.372 40.3976 51.372ZM40.8732 50.0259C40.8732 50.2457 41.0527 50.4252 41.2726 50.4252C41.4925 50.4252 41.6719 50.2457 41.6719 50.0259C41.6719 49.806 41.4925 49.6265 41.2726 49.6265C41.0527 49.6265 40.8732 49.806 40.8732 50.0259Z" fill="white"/>
<defs>
<filter id="filter0_bd_806_74567" x="-44.5352" y="-38.7578" width="241.588" height="233.519" filterUnits="userSpaceOnUse" color-interpolation-filters="sRGB">
<feFlood flood-opacity="0" result="BackgroundImageFix"/>
<feGaussianBlur in="BackgroundImageFix" stdDeviation="40"/>
<feComposite in2="SourceAlpha" operator="in" result="effect1_backgroundBlur_806_74567"/>
<feColorMatrix in="SourceAlpha" type="matrix" values="0 0 0 0 0 0 0 0 0 0 0 0 0 0 0 0 0 0 127 0" result="hardAlpha"/>
<feOffset/>
<feGaussianBlur stdDeviation="17.5"/>
<feColorMatrix type="matrix" values="0 0 0 0 0 0 0 0 0 0 0 0 0 0 0 0 0 0 0.05 0"/>
<feBlend mode="normal" in2="effect1_backgroundBlur_806_74567" result="effect2_dropShadow_806_74567"/>
<feBlend mode="normal" in="SourceGraphic" in2="effect2_dropShadow_806_74567" result="shape"/>
</filter>
<filter id="filter1_f_806_74567" x="64.4316" y="18.2075" width="35.4736" height="33.5176" filterUnits="userSpaceOnUse" color-interpolation-filters="sRGB">
<feFlood flood-opacity="0" result="BackgroundImageFix"/>
<feBlend mode="normal" in="SourceGraphic" in2="BackgroundImageFix" result="shape"/>
<feGaussianBlur stdDeviation="3" result="effect1_foregroundBlur_806_74567"/>
</filter>
<filter id="filter2_f_806_74567" x="107.5" y="28" width="41.8184" height="40" filterUnits="userSpaceOnUse" color-interpolation-filters="sRGB">
<feFlood flood-opacity="0" result="BackgroundImageFix"/>
<feBlend mode="normal" in="SourceGraphic" in2="BackgroundImageFix" result="shape"/>
<feGaussianBlur stdDeviation="5" result="effect1_foregroundBlur_806_74567"/>
</filter>
<linearGradient id="paint0_linear_806_74567" x1="67.6806" y1="53.7939" x2="101.16" y2="88.7476" gradientUnits="userSpaceOnUse">
<stop stop-color="#225F55"/>
<stop offset="0.338542" stop-color="#428A7E"/>
<stop offset="0.442708" stop-color="#59A397"/>
<stop offset="0.567708" stop-color="#428A7E"/>
<stop offset="1" stop-color="#225F55"/>
</linearGradient>
<linearGradient id="paint1_linear_806_74567" x1="80.1039" y1="58.0054" x2="80.1039" y2="88.5536" gradientUnits="userSpaceOnUse">
<stop stop-color="#26675C"/>
<stop offset="1" stop-color="#0F3831"/>
</linearGradient>
<linearGradient id="paint2_linear_806_74567" x1="23.5531" y1="78.0015" x2="46.8692" y2="102.344" gradientUnits="userSpaceOnUse">
<stop stop-color="#225F55"/>
<stop offset="0.338542" stop-color="#428A7E"/>
<stop offset="0.442708" stop-color="#59A397"/>
<stop offset="0.567708" stop-color="#428A7E"/>
<stop offset="1" stop-color="#225F55"/>
</linearGradient>
<linearGradient id="paint3_linear_806_74567" x1="32.205" y1="80.9341" x2="32.205" y2="102.209" gradientUnits="userSpaceOnUse">
<stop stop-color="#26675C"/>
<stop offset="1" stop-color="#0F3831"/>
</linearGradient>
<linearGradient id="paint4_linear_806_74567" x1="66.8152" y1="102.209" x2="93.7421" y2="130.321" gradientUnits="userSpaceOnUse">
<stop stop-color="#225F55"/>
<stop offset="0.338542" stop-color="#428A7E"/>
<stop offset="0.442708" stop-color="#59A397"/>
<stop offset="0.567708" stop-color="#428A7E"/>
<stop offset="1" stop-color="#225F55"/>
</linearGradient>
<linearGradient id="paint5_linear_806_74567" x1="76.8069" y1="105.596" x2="76.8069" y2="130.165" gradientUnits="userSpaceOnUse">
<stop stop-color="#26675C"/>
<stop offset="1" stop-color="#0F3831"/>
</linearGradient>
<linearGradient id="paint6_linear_806_74567" x1="111.413" y1="86.0703" x2="134.74" y2="110.424" gradientUnits="userSpaceOnUse">
<stop stop-color="#225F55"/>
<stop offset="0.338542" stop-color="#428A7E"/>
<stop offset="0.442708" stop-color="#59A397"/>
<stop offset="0.567708" stop-color="#428A7E"/>
<stop offset="1" stop-color="#225F55"/>
</linearGradient>
<linearGradient id="paint7_linear_806_74567" x1="120.069" y1="88.7109" x2="120.069" y2="109.995" gradientUnits="userSpaceOnUse">
<stop stop-color="#26675C"/>
<stop offset="1" stop-color="#0F3831"/>
</linearGradient>
<linearGradient id="paint8_linear_806_74567" x1="73.1702" y1="24.2075" x2="93.9054" y2="45.8556" gradientUnits="userSpaceOnUse">
<stop stop-color="#225F55"/>
<stop offset="0.338542" stop-color="#428A7E"/>
<stop offset="0.442708" stop-color="#59A397"/>
<stop offset="0.567708" stop-color="#428A7E"/>
<stop offset="1" stop-color="#225F55"/>
</linearGradient>
<linearGradient id="paint9_linear_806_74567" x1="80.8644" y1="26.5547" x2="80.8644" y2="45.4743" gradientUnits="userSpaceOnUse">
<stop stop-color="#26675C"/>
<stop offset="1" stop-color="#0F3831"/>
</linearGradient>
<linearGradient id="paint10_linear_806_74567" x1="120.045" y1="38" x2="139.318" y2="58.1212" gradientUnits="userSpaceOnUse">
<stop stop-color="#225F55"/>
<stop offset="0.338542" stop-color="#428A7E"/>
<stop offset="0.442708" stop-color="#59A397"/>
<stop offset="0.567708" stop-color="#428A7E"/>
<stop offset="1" stop-color="#225F55"/>
</linearGradient>
<linearGradient id="paint11_linear_806_74567" x1="127.197" y1="40.1816" x2="127.197" y2="57.7668" gradientUnits="userSpaceOnUse">
<stop stop-color="#26675C"/>
<stop offset="1" stop-color="#0F3831"/>
</linearGradient>
<linearGradient id="paint12_linear_806_74567" x1="32.6184" y1="37.6558" x2="53.6416" y2="59.6045" gradientUnits="userSpaceOnUse">
<stop stop-color="#225F55"/>
<stop offset="0.338542" stop-color="#428A7E"/>
<stop offset="0.442708" stop-color="#59A397"/>
<stop offset="0.567708" stop-color="#428A7E"/>
<stop offset="1" stop-color="#225F55"/>
</linearGradient>
<linearGradient id="paint13_linear_806_74567" x1="40.4195" y1="40.0356" x2="40.4195" y2="59.218" gradientUnits="userSpaceOnUse">
<stop stop-color="#26675C"/>
<stop offset="1" stop-color="#0F3831"/>
</linearGradient>
<clipPath id="clip0_806_74567">
<rect width="12.2193" height="12.2193" fill="white" transform="translate(73.9512 67.1694)"/>
</clipPath>
<clipPath id="clip1_806_74567">
<rect width="8.50981" height="8.50981" fill="white" transform="translate(27.9199 87.3164)"/>
</clipPath>
<clipPath id="clip2_806_74567">
<rect width="9.82767" height="9.82767" fill="white" transform="translate(71.8584 112.966)"/>
</clipPath>
<clipPath id="clip3_806_74567">
<rect width="8.51381" height="8.51381" fill="white" transform="translate(115.781 95.0962)"/>
</clipPath>
<clipPath id="clip4_806_74567">
<rect width="7.56783" height="7.56783" fill="white" transform="translate(77.0547 32.2305)"/>
</clipPath>
<clipPath id="clip5_806_74567">
<rect width="7.03407" height="7.03407" fill="white" transform="translate(123.655 45.457)"/>
</clipPath>
</defs>
</svg>
