<svg width="14" height="18" viewBox="0 0 14 18" fill="none" xmlns="http://www.w3.org/2000/svg">
<path d="M6.47115 7.51754H10.349L6.47115 4.85907V7.51754Z" fill="#A7D7CF"/>
<path d="M13.875 12.8672V4.61719H9.11538C8.82307 4.61719 8.58654 4.40098 8.58654 4.13379V0.75H3.82692C3.53461 0.75 3.29808 0.966208 3.29808 1.2334V3.65039H5.94231C6.2837 3.65039 6.62195 3.75377 6.89465 3.94117L11.1249 6.84108C11.5221 7.11255 11.7596 7.54639 11.7596 8.00098V13.3506H13.3462C13.6385 13.3506 13.875 13.1344 13.875 12.8672Z" fill="#A7D7CF"/>
<path d="M9.64423 3.65035H13.5221L9.64423 0.991887V3.65035Z" fill="#A7D7CF"/>
<path d="M0.653846 17.25H10.1731C10.4654 17.25 10.7019 17.0338 10.7019 16.7666V8.48438H5.94231C5.65 8.48438 5.41346 8.26817 5.41346 8.00098V4.61719H0.653846C0.361535 4.61719 0.125 4.8334 0.125 5.10059V16.7666C0.125 17.0338 0.361535 17.25 0.653846 17.25Z" fill="#A7D7CF"/>
</svg>
