<svg width="140" height="181" viewBox="0 0 140 181" fill="none" xmlns="http://www.w3.org/2000/svg">
<path d="M69.9997 11.5834C62.3939 11.5834 54.8627 13.0814 47.8359 15.992C40.8091 18.9026 34.4245 23.1687 29.0464 28.5468C18.1849 39.4083 12.083 54.1396 12.083 69.5C12.083 95.0992 28.7051 116.818 51.698 124.521C54.5938 124.984 55.5205 123.189 55.5205 121.625V111.837C39.4776 115.312 36.0605 104.076 36.0605 104.076C33.3963 97.3579 29.6318 95.5625 29.6318 95.5625C24.3613 91.9717 30.0372 92.0875 30.0372 92.0875C35.8288 92.4929 38.8984 98.0529 38.8984 98.0529C43.9372 106.856 52.4509 104.25 55.7522 102.86C56.2734 99.0955 57.7793 96.5471 59.4009 95.0992C46.5434 93.6513 33.0488 88.6704 33.0488 66.6042C33.0488 60.1755 35.2497 55.0209 39.0143 50.9088C38.4351 49.4609 36.408 43.4375 39.5934 35.6188C39.5934 35.6188 44.4584 34.055 55.5205 41.5263C60.0959 40.2521 65.0768 39.615 69.9997 39.615C74.9226 39.615 79.9034 40.2521 84.4788 41.5263C95.5409 34.055 100.406 35.6188 100.406 35.6188C103.591 43.4375 101.564 49.4609 100.985 50.9088C104.75 55.0209 106.951 60.1755 106.951 66.6042C106.951 88.7284 93.398 93.5934 80.4826 95.0413C82.5676 96.8367 84.4788 100.37 84.4788 105.756V121.625C84.4788 123.189 85.4055 125.042 88.3593 124.521C111.352 116.76 127.916 95.0992 127.916 69.5C127.916 61.8943 126.418 54.3631 123.508 47.3363C120.597 40.3095 116.331 33.9248 110.953 28.5468C105.575 23.1687 99.1902 18.9026 92.1634 15.992C85.1367 13.0814 77.6054 11.5834 69.9997 11.5834Z" fill="#40D1B4"/>
<g clip-path="url(#clip0_1833_25675)">
<path d="M35.5905 163.801H26.1712C26.0544 163.801 25.9424 163.847 25.8599 163.929C25.7773 164.01 25.7309 164.121 25.7309 164.236V168.78C25.7309 169.019 25.9282 169.215 26.171 169.215H29.8457V174.86C29.8457 174.86 29.0206 175.137 26.7395 175.137C24.0483 175.137 20.2886 174.167 20.2886 166.011C20.2886 157.852 24.2036 156.779 27.8787 156.779C31.06 156.779 32.4307 157.332 33.3026 157.598C33.5767 157.681 33.8302 157.412 33.8302 157.172L34.8808 152.781C34.8808 152.669 34.8423 152.534 34.7126 152.442C34.3585 152.193 32.1979 151 26.7393 151C20.4514 151 14.001 153.64 14.001 166.329C14.001 179.018 21.3859 180.909 27.6092 180.909C32.7618 180.909 35.8875 178.737 35.8875 178.737C36.0166 178.666 36.0304 178.489 36.0304 178.407V164.236C36.0304 163.996 35.8333 163.801 35.5905 163.801ZM84.1088 152.588C84.1088 152.347 83.9146 152.151 83.6715 152.151H78.3678C78.3099 152.152 78.2526 152.163 78.1992 152.185C78.1457 152.207 78.0973 152.24 78.0565 152.28C78.0157 152.321 77.9834 152.369 77.9614 152.422C77.9395 152.475 77.9283 152.531 77.9285 152.588L77.9299 162.701H69.663V152.588C69.663 152.347 69.4678 152.152 69.2253 152.152H63.9213C63.8045 152.152 63.6927 152.199 63.6105 152.281C63.5284 152.362 63.4826 152.473 63.4831 152.588V179.971C63.4831 180.213 63.68 180.409 63.9213 180.409H69.2248C69.4674 180.409 69.6623 180.213 69.6623 179.971V168.258H77.9294L77.915 179.971C77.915 180.212 78.1119 180.409 78.3542 180.409H83.6707C83.9135 180.409 84.1077 180.212 84.1082 179.971L84.1088 152.588ZM45.5815 156.249C45.5815 154.365 44.0503 152.842 42.1614 152.842C40.2743 152.842 38.7419 154.365 38.7419 156.249C38.7419 158.131 40.2743 159.658 42.1614 159.658C44.0503 159.658 45.5815 158.131 45.5815 156.249ZM45.1606 174.209V161.569C45.161 161.454 45.115 161.343 45.0327 161.261C44.9504 161.18 44.8386 161.133 44.7218 161.133H39.4349C39.1923 161.133 38.9756 161.38 38.9756 161.62V179.729C38.9756 180.261 39.3116 180.419 39.7467 180.419H44.5099C45.0327 180.419 45.1606 180.166 45.1606 179.72V174.209ZM104.379 161.133H99.116C98.8745 161.133 98.678 161.329 98.678 161.571V174.997C98.678 174.997 97.3411 175.963 95.4432 175.963C93.5456 175.963 93.042 175.113 93.042 173.28V161.571C93.042 161.329 92.8458 161.133 92.6043 161.133H87.2627C87.0217 161.133 86.8241 161.329 86.8241 161.571V174.166C86.8241 179.612 89.9004 180.944 94.132 180.944C97.6035 180.944 100.402 179.052 100.402 179.052C100.402 179.052 100.536 180.049 100.596 180.167C100.656 180.285 100.813 180.404 100.983 180.404L104.381 180.389C104.622 180.389 104.82 180.193 104.82 179.952L104.818 161.571C104.819 161.455 104.773 161.344 104.69 161.262C104.608 161.18 104.496 161.134 104.379 161.133ZM116.505 175.973C114.68 175.918 113.442 175.101 113.442 175.101V166.429C113.442 166.429 114.663 165.69 116.162 165.558C118.057 165.391 119.883 165.956 119.883 170.416C119.883 175.12 119.059 176.049 116.505 175.973ZM118.581 160.545C115.592 160.545 113.559 161.861 113.559 161.861V152.588C113.559 152.531 113.548 152.475 113.526 152.422C113.505 152.369 113.472 152.321 113.432 152.28C113.391 152.24 113.343 152.207 113.29 152.185C113.236 152.163 113.179 152.152 113.121 152.151H107.802C107.745 152.152 107.687 152.163 107.634 152.185C107.581 152.207 107.532 152.24 107.491 152.28C107.451 152.321 107.419 152.369 107.397 152.422C107.375 152.475 107.364 152.531 107.364 152.588V179.971C107.364 180.212 107.56 180.409 107.803 180.409H111.493C111.66 180.409 111.785 180.325 111.878 180.176C111.97 180.029 112.102 178.914 112.102 178.914C112.102 178.914 114.277 180.947 118.394 180.947C123.228 180.947 126 178.528 126 170.088C126 161.648 121.573 160.545 118.581 160.545ZM60.4255 161.086H56.4471L56.441 155.9C56.441 155.704 56.3386 155.606 56.1085 155.606H50.6871C50.4762 155.606 50.3631 155.697 50.3631 155.897V161.256C50.3631 161.256 47.6463 161.903 47.4625 161.955C47.3709 161.981 47.2904 162.036 47.2331 162.112C47.1758 162.187 47.1449 162.278 47.1449 162.373V165.74C47.1449 165.982 47.3409 166.178 47.5835 166.178H50.3631V174.279C50.3631 180.296 54.6409 180.887 57.5277 180.887C58.8468 180.887 60.4246 180.469 60.6851 180.375C60.8426 180.317 60.9341 180.157 60.9341 179.982L60.9384 176.277C60.9384 176.036 60.7317 175.84 60.4988 175.84C60.2669 175.84 59.6741 175.933 59.0633 175.933C57.1093 175.933 56.4471 175.037 56.4471 173.876L56.4469 166.178H60.4255C60.4835 166.178 60.5408 166.166 60.5943 166.144C60.6477 166.122 60.6962 166.09 60.737 166.049C60.7777 166.008 60.81 165.96 60.8318 165.907C60.8537 165.854 60.8647 165.797 60.8643 165.74V161.522C60.8643 161.281 60.6681 161.086 60.4255 161.086Z" fill="white"/>
</g>
<defs>
<clipPath id="clip0_1833_25675">
<rect width="112" height="30" fill="white" transform="translate(14 151)"/>
</clipPath>
</defs>
</svg>
