<svg width="12" height="16" viewBox="0 0 12 16" fill="none" xmlns="http://www.w3.org/2000/svg">
<path d="M1.5 15.5C1.0875 15.5 0.7345 15.3602 0.441 15.0807C0.1475 14.8012 0.0005 14.4648 0 14.0714V6.92857C0 6.53571 0.147 6.19952 0.441 5.92C0.735 5.64048 1.088 5.50048 1.5 5.5H2.25V4.07143C2.25 3.08333 2.61575 2.24119 3.34725 1.545C4.07875 0.84881 4.963 0.500476 6 0.5C7.0375 0.5 7.922 0.848333 8.6535 1.545C9.385 2.24167 9.7505 3.08381 9.75 4.07143V5.5H10.5C10.9125 5.5 11.2657 5.64 11.5597 5.92C11.8537 6.2 12.0005 6.53619 12 6.92857V14.0714C12 14.4643 11.8532 14.8007 11.5597 15.0807C11.2662 15.3607 10.913 15.5005 10.5 15.5H1.5ZM6 11.9286C6.4125 11.9286 6.76575 11.7888 7.05975 11.5093C7.35375 11.2298 7.5005 10.8933 7.5 10.5C7.5 10.1071 7.35325 9.77095 7.05975 9.49143C6.76625 9.2119 6.413 9.0719 6 9.07143C5.5875 9.07143 5.2345 9.21143 4.941 9.49143C4.6475 9.77143 4.5005 10.1076 4.5 10.5C4.5 10.8929 4.647 11.2293 4.941 11.5093C5.235 11.7893 5.588 11.929 6 11.9286ZM3.75 5.5H8.25V4.07143C8.25 3.47619 8.03125 2.97024 7.59375 2.55357C7.15625 2.1369 6.625 1.92857 6 1.92857C5.375 1.92857 4.84375 2.1369 4.40625 2.55357C3.96875 2.97024 3.75 3.47619 3.75 4.07143V5.5Z" fill="white"/>
</svg>
