<svg width="237" height="28" viewBox="0 0 237 28" fill="none" xmlns="http://www.w3.org/2000/svg">
    <path d="M9.79 14.144C11.374 14.144 12.514 13.766 13.21 13.01C13.906 12.254 14.254 11.198 14.254 9.842C14.254 9.242 14.164 8.696 13.984 8.204C13.804 7.712 13.528 7.292 13.156 6.944C12.796 6.584 12.334 6.308 11.77 6.116C11.218 5.924 10.558 5.828 9.79 5.828H6.622V14.144H9.79ZM9.79 1.274C11.638 1.274 13.222 1.496 14.542 1.94C15.874 2.372 16.966 2.972 17.818 3.74C18.682 4.508 19.318 5.414 19.726 6.458C20.134 7.502 20.338 8.63 20.338 9.842C20.338 11.15 20.128 12.35 19.708 13.442C19.288 14.534 18.646 15.47 17.782 16.25C16.918 17.03 15.82 17.642 14.488 18.086C13.168 18.518 11.602 18.734 9.79 18.734H6.622V27.5H0.538V1.274H9.79ZM27.7506 11.714C28.3266 10.706 28.9866 9.914 29.7306 9.338C30.4866 8.762 31.3506 8.474 32.3226 8.474C33.1626 8.474 33.8466 8.672 34.3746 9.068L34.0146 13.172C33.9546 13.436 33.8526 13.616 33.7086 13.712C33.5766 13.808 33.3906 13.856 33.1506 13.856C33.0546 13.856 32.9286 13.85 32.7726 13.838C32.6166 13.826 32.4546 13.814 32.2866 13.802C32.1186 13.778 31.9446 13.76 31.7646 13.748C31.5966 13.724 31.4406 13.712 31.2966 13.712C30.4806 13.712 29.8266 13.928 29.3346 14.36C28.8546 14.792 28.4466 15.392 28.1106 16.16V27.5H22.5306V8.834H25.8426C26.1186 8.834 26.3466 8.858 26.5266 8.906C26.7186 8.954 26.8746 9.032 26.9946 9.14C27.1266 9.236 27.2226 9.368 27.2826 9.536C27.3546 9.704 27.4146 9.908 27.4626 10.148L27.7506 11.714ZM47.5703 15.926C47.5703 15.482 47.5103 15.05 47.3903 14.63C47.2823 14.21 47.0963 13.838 46.8323 13.514C46.5803 13.178 46.2443 12.908 45.8243 12.704C45.4043 12.5 44.8943 12.398 44.2943 12.398C43.2383 12.398 42.4103 12.704 41.8103 13.316C41.2103 13.916 40.8143 14.786 40.6223 15.926H47.5703ZM40.5503 19.166C40.7303 20.726 41.2043 21.86 41.9723 22.568C42.7403 23.264 43.7303 23.612 44.9423 23.612C45.5903 23.612 46.1483 23.534 46.6163 23.378C47.0843 23.222 47.4983 23.048 47.8583 22.856C48.2303 22.664 48.5663 22.49 48.8663 22.334C49.1783 22.178 49.5023 22.1 49.8383 22.1C50.2823 22.1 50.6183 22.262 50.8463 22.586L52.4663 24.584C51.8903 25.244 51.2663 25.784 50.5943 26.204C49.9343 26.612 49.2503 26.936 48.5423 27.176C47.8463 27.404 47.1443 27.56 46.4363 27.644C45.7403 27.74 45.0743 27.788 44.4383 27.788C43.1303 27.788 41.9003 27.578 40.7483 27.158C39.6083 26.726 38.6063 26.09 37.7423 25.25C36.8903 24.41 36.2123 23.366 35.7083 22.118C35.2163 20.87 34.9703 19.418 34.9703 17.762C34.9703 16.514 35.1803 15.332 35.6003 14.216C36.0323 13.1 36.6443 12.122 37.4363 11.282C38.2403 10.442 39.2063 9.776 40.3343 9.284C41.4743 8.792 42.7583 8.546 44.1863 8.546C45.4223 8.546 46.5503 8.738 47.5703 9.122C48.6023 9.506 49.4843 10.064 50.2163 10.796C50.9603 11.528 51.5363 12.428 51.9443 13.496C52.3643 14.552 52.5743 15.752 52.5743 17.096C52.5743 17.516 52.5563 17.858 52.5203 18.122C52.4843 18.386 52.4183 18.596 52.3223 18.752C52.2263 18.908 52.0943 19.016 51.9263 19.076C51.7703 19.136 51.5663 19.166 51.3143 19.166H40.5503ZM55.3666 27.5V8.834H58.8226C59.5186 8.834 59.9746 9.146 60.1906 9.77L60.4966 10.778C60.8086 10.454 61.1326 10.16 61.4686 9.896C61.8046 9.62 62.1646 9.386 62.5486 9.194C62.9446 8.99 63.3646 8.834 63.8086 8.726C64.2646 8.606 64.7626 8.546 65.3026 8.546C66.4306 8.546 67.3606 8.84 68.0926 9.428C68.8366 10.004 69.4006 10.778 69.7846 11.75C70.0966 11.174 70.4746 10.682 70.9186 10.274C71.3746 9.866 71.8606 9.536 72.3766 9.284C72.9046 9.032 73.4566 8.846 74.0326 8.726C74.6206 8.606 75.2026 8.546 75.7786 8.546C76.8466 8.546 77.7946 8.708 78.6226 9.032C79.4506 9.344 80.1406 9.806 80.6926 10.418C81.2566 11.018 81.6826 11.762 81.9706 12.65C82.2586 13.526 82.4026 14.522 82.4026 15.638V27.5H76.8226V15.638C76.8226 13.706 75.9946 12.74 74.3386 12.74C73.5826 12.74 72.9526 12.992 72.4486 13.496C71.9566 13.988 71.7106 14.702 71.7106 15.638V27.5H66.1306V15.638C66.1306 14.57 65.9206 13.82 65.5006 13.388C65.0806 12.956 64.4626 12.74 63.6466 12.74C63.1426 12.74 62.6626 12.854 62.2066 13.082C61.7626 13.31 61.3426 13.616 60.9466 14V27.5H55.3666ZM91.6937 8.834V27.5H86.1137V8.834H91.6937ZM92.2697 3.722C92.2697 4.166 92.1797 4.586 91.9997 4.982C91.8197 5.366 91.5737 5.708 91.2617 6.008C90.9497 6.296 90.5837 6.53 90.1637 6.71C89.7557 6.878 89.3177 6.962 88.8497 6.962C88.3937 6.962 87.9677 6.878 87.5717 6.71C87.1757 6.53 86.8217 6.296 86.5097 6.008C86.2097 5.708 85.9697 5.366 85.7897 4.982C85.6217 4.586 85.5377 4.166 85.5377 3.722C85.5377 3.266 85.6217 2.84 85.7897 2.444C85.9697 2.048 86.2097 1.7 86.5097 1.4C86.8217 1.1 87.1757 0.865999 87.5717 0.697999C87.9677 0.529999 88.3937 0.446 88.8497 0.446C89.3177 0.446 89.7557 0.529999 90.1637 0.697999C90.5837 0.865999 90.9497 1.1 91.2617 1.4C91.5737 1.7 91.8197 2.048 91.9997 2.444C92.1797 2.84 92.2697 3.266 92.2697 3.722ZM112.325 8.834V27.5H108.869C108.173 27.5 107.717 27.188 107.501 26.564L107.177 25.484C106.817 25.832 106.445 26.15 106.061 26.438C105.677 26.714 105.263 26.954 104.819 27.158C104.387 27.35 103.913 27.5 103.397 27.608C102.893 27.728 102.341 27.788 101.741 27.788C100.721 27.788 99.8153 27.614 99.0233 27.266C98.2433 26.906 97.5833 26.408 97.0433 25.772C96.5033 25.136 96.0953 24.386 95.8193 23.522C95.5433 22.658 95.4053 21.71 95.4053 20.678V8.834H100.985V20.678C100.985 21.602 101.195 22.316 101.615 22.82C102.035 23.324 102.653 23.576 103.469 23.576C104.081 23.576 104.651 23.45 105.179 23.198C105.719 22.934 106.241 22.58 106.745 22.136V8.834H112.325ZM116.117 27.5V8.834H119.573C120.269 8.834 120.725 9.146 120.941 9.77L121.247 10.778C121.559 10.454 121.883 10.16 122.219 9.896C122.555 9.62 122.915 9.386 123.299 9.194C123.695 8.99 124.115 8.834 124.559 8.726C125.015 8.606 125.513 8.546 126.053 8.546C127.181 8.546 128.111 8.84 128.843 9.428C129.587 10.004 130.151 10.778 130.535 11.75C130.847 11.174 131.225 10.682 131.669 10.274C132.125 9.866 132.611 9.536 133.127 9.284C133.655 9.032 134.207 8.846 134.783 8.726C135.371 8.606 135.953 8.546 136.529 8.546C137.597 8.546 138.545 8.708 139.373 9.032C140.201 9.344 140.891 9.806 141.443 10.418C142.007 11.018 142.433 11.762 142.721 12.65C143.009 13.526 143.153 14.522 143.153 15.638V27.5H137.573V15.638C137.573 13.706 136.745 12.74 135.089 12.74C134.333 12.74 133.703 12.992 133.199 13.496C132.707 13.988 132.461 14.702 132.461 15.638V27.5H126.881V15.638C126.881 14.57 126.671 13.82 126.251 13.388C125.831 12.956 125.213 12.74 124.397 12.74C123.893 12.74 123.413 12.854 122.957 13.082C122.513 13.31 122.093 13.616 121.697 14V27.5H116.117Z" fill="#389989" />
    <path d="M165.584 4.64H157.232V27.5H153.758V4.64H145.388V1.706H165.584V4.64ZM171.947 8.978C173.279 8.978 174.479 9.2 175.547 9.644C176.615 10.088 177.527 10.718 178.283 11.534C179.039 12.35 179.615 13.34 180.011 14.504C180.419 15.656 180.623 16.946 180.623 18.374C180.623 19.814 180.419 21.11 180.011 22.262C179.615 23.414 179.039 24.398 178.283 25.214C177.527 26.03 176.615 26.66 175.547 27.104C174.479 27.536 173.279 27.752 171.947 27.752C170.603 27.752 169.391 27.536 168.311 27.104C167.243 26.66 166.331 26.03 165.575 25.214C164.819 24.398 164.237 23.414 163.829 22.262C163.433 21.11 163.235 19.814 163.235 18.374C163.235 16.946 163.433 15.656 163.829 14.504C164.237 13.34 164.819 12.35 165.575 11.534C166.331 10.718 167.243 10.088 168.311 9.644C169.391 9.2 170.603 8.978 171.947 8.978ZM171.947 25.25C173.747 25.25 175.091 24.65 175.979 23.45C176.867 22.238 177.311 20.552 177.311 18.392C177.311 16.22 176.867 14.528 175.979 13.316C175.091 12.104 173.747 11.498 171.947 11.498C171.035 11.498 170.237 11.654 169.553 11.966C168.881 12.278 168.317 12.728 167.861 13.316C167.417 13.904 167.081 14.63 166.853 15.494C166.637 16.346 166.529 17.312 166.529 18.392C166.529 20.552 166.973 22.238 167.861 23.45C168.761 24.65 170.123 25.25 171.947 25.25ZM187.908 0.985999V16.592H188.736C188.976 16.592 189.174 16.562 189.33 16.502C189.498 16.43 189.672 16.292 189.852 16.088L195.612 9.914C195.78 9.71 195.954 9.554 196.134 9.446C196.326 9.326 196.578 9.266 196.89 9.266H199.788L193.074 16.412C192.75 16.82 192.402 17.138 192.03 17.366C192.246 17.51 192.438 17.678 192.606 17.87C192.786 18.05 192.954 18.26 193.11 18.5L200.238 27.5H197.376C197.1 27.5 196.86 27.458 196.656 27.374C196.464 27.278 196.296 27.11 196.152 26.87L190.158 19.4C189.978 19.148 189.798 18.986 189.618 18.914C189.45 18.83 189.186 18.788 188.826 18.788H187.908V27.5H184.686V0.985999H187.908ZM214.152 16.394C214.152 15.65 214.044 14.972 213.828 14.36C213.624 13.736 213.318 13.202 212.91 12.758C212.514 12.302 212.028 11.954 211.452 11.714C210.876 11.462 210.222 11.336 209.49 11.336C207.954 11.336 206.736 11.786 205.836 12.686C204.948 13.574 204.396 14.81 204.18 16.394H214.152ZM216.744 24.944C216.348 25.424 215.874 25.844 215.322 26.204C214.77 26.552 214.176 26.84 213.54 27.068C212.916 27.296 212.268 27.464 211.596 27.572C210.924 27.692 210.258 27.752 209.598 27.752C208.338 27.752 207.174 27.542 206.106 27.122C205.05 26.69 204.132 26.066 203.352 25.25C202.584 24.422 201.984 23.402 201.552 22.19C201.12 20.978 200.904 19.586 200.904 18.014C200.904 16.742 201.096 15.554 201.48 14.45C201.876 13.346 202.44 12.392 203.172 11.588C203.904 10.772 204.798 10.136 205.854 9.68C206.91 9.212 208.098 8.978 209.418 8.978C210.51 8.978 211.518 9.164 212.442 9.536C213.378 9.896 214.182 10.424 214.854 11.12C215.538 11.804 216.072 12.656 216.456 13.676C216.84 14.684 217.032 15.836 217.032 17.132C217.032 17.636 216.978 17.972 216.87 18.14C216.762 18.308 216.558 18.392 216.258 18.392H204.072C204.108 19.544 204.264 20.546 204.54 21.398C204.828 22.25 205.224 22.964 205.728 23.54C206.232 24.104 206.832 24.53 207.528 24.818C208.224 25.094 209.004 25.232 209.868 25.232C210.672 25.232 211.362 25.142 211.938 24.962C212.526 24.77 213.03 24.566 213.45 24.35C213.87 24.134 214.218 23.936 214.494 23.756C214.782 23.564 215.028 23.468 215.232 23.468C215.496 23.468 215.7 23.57 215.844 23.774L216.744 24.944ZM223.992 11.912C224.388 11.468 224.808 11.066 225.252 10.706C225.696 10.346 226.164 10.04 226.656 9.788C227.16 9.524 227.688 9.326 228.24 9.194C228.804 9.05 229.41 8.978 230.058 8.978C231.054 8.978 231.93 9.146 232.686 9.482C233.454 9.806 234.09 10.274 234.594 10.886C235.11 11.486 235.5 12.212 235.764 13.064C236.028 13.916 236.16 14.858 236.16 15.89V27.5H232.938V15.89C232.938 14.51 232.62 13.442 231.984 12.686C231.36 11.918 230.406 11.534 229.122 11.534C228.174 11.534 227.286 11.762 226.458 12.218C225.642 12.674 224.886 13.292 224.19 14.072V27.5H220.968V9.266H222.894C223.35 9.266 223.632 9.488 223.74 9.932L223.992 11.912Z" fill="white" />
</svg>