<svg width="40" height="40" viewBox="0 0 40 40" fill="none" xmlns="http://www.w3.org/2000/svg">
<path d="M20 39.5C9.23045 39.5 0.5 30.7696 0.5 20C0.5 9.23045 9.23045 0.5 20 0.5C30.7696 0.5 39.5 9.23045 39.5 20C39.5 30.7696 30.7696 39.5 20 39.5Z" fill="#389989" stroke="url(#paint0_linear_193_3374)"/>
<path opacity="0.5" d="M13.6654 20.6624H24.8292L22.7377 22.8502C22.1369 23.4786 23.0381 24.4212 23.6388 23.7928L25.5436 21.7972L26.8152 20.4651C27.0616 20.2058 27.0616 19.787 26.8152 19.5277L23.6388 16.2013C23.518 16.0714 23.3516 15.9985 23.1783 16C22.6062 16.0001 22.3255 16.729 22.7377 17.1439L24.8341 19.3317H13.6326C12.7515 19.3774 12.8173 20.7083 13.6654 20.6624V20.6624Z" fill="white"/>
<defs>
<linearGradient id="paint0_linear_193_3374" x1="-0.561406" y1="-5.48373" x2="41.6233" y2="-4.72323" gradientUnits="userSpaceOnUse">
<stop offset="0.0172482" stop-color="white" stop-opacity="0.11"/>
<stop offset="0.515625" stop-color="white"/>
<stop offset="1" stop-color="white" stop-opacity="0"/>
</linearGradient>
</defs>
</svg>
