<svg width="40" height="40" viewBox="0 0 40 40" fill="none" xmlns="http://www.w3.org/2000/svg">
<path d="M20 39.5C30.7696 39.5 39.5 30.7696 39.5 20C39.5 9.23045 30.7696 0.5 20 0.5C9.23045 0.5 0.5 9.23045 0.5 20C0.5 30.7696 9.23045 39.5 20 39.5Z" fill="#389989" stroke="url(#paint0_linear_193_3377)"/>
<path opacity="0.5" d="M26.3346 20.6624H15.1708L17.2623 22.8502C17.8631 23.4786 16.9619 24.4212 16.3612 23.7928L14.4564 21.7972L13.1848 20.4651C12.9384 20.2058 12.9384 19.787 13.1848 19.5277L16.3612 16.2013C16.482 16.0714 16.6484 15.9985 16.8217 16C17.3938 16.0001 17.6745 16.729 17.2623 17.1439L15.1659 19.3317H26.3674C27.2485 19.3774 27.1827 20.7083 26.3346 20.6624V20.6624Z" fill="white"/>
<defs>
<linearGradient id="paint0_linear_193_3377" x1="40.5614" y1="-5.48373" x2="-1.62326" y2="-4.72323" gradientUnits="userSpaceOnUse">
<stop offset="0.0172482" stop-color="white" stop-opacity="0.11"/>
<stop offset="0.515625" stop-color="white"/>
<stop offset="1" stop-color="white" stop-opacity="0"/>
</linearGradient>
</defs>
</svg>
