<svg width="246" height="189" viewBox="0 0 246 189" fill="none" xmlns="http://www.w3.org/2000/svg">
<path d="M244.391 178.011H12.3762C11.4878 178.011 10.7676 177.291 10.7676 176.403C10.7676 175.514 11.4878 174.794 12.3762 174.794H244.391C245.28 174.794 246 175.514 246 176.403C246 177.291 245.28 178.011 244.391 178.011Z" fill="#126564"/>
<path d="M56.7412 24.062L62.1023 16.5032C62.1023 16.5032 67.3451 17.6215 69.0071 24.0678C70.0372 28.0637 74.9073 30.6809 74.9073 30.6809L69.5177 38.2796C69.5177 38.2796 63.0612 35.6532 61.9607 31.0654C60.7969 26.2136 56.7412 24.062 56.7412 24.062Z" fill="#217A79"/>
<path d="M68.0277 30.4983C66.4358 31.5281 64.1709 30.8573 62.9693 28.9998C61.7677 27.1422 62.0842 24.8017 63.6766 23.7718C65.2687 22.7416 67.5334 23.4128 68.735 25.2701C69.9364 27.1277 69.6199 29.4685 68.0277 30.4983Z" fill="#41ABA9"/>
<path d="M191.377 22.4158C194.5 25.8752 194.227 31.2112 190.768 34.3342C187.309 37.4572 181.973 37.1845 178.85 33.7251C175.727 30.2656 175.999 24.9296 179.459 21.8066C182.918 18.6838 188.254 18.9564 191.377 22.4158Z" fill="#217A79"/>
<path d="M189.09 33.2821L188.012 32.0889C187.317 32.6957 186.416 33.1229 185.736 33.2008L185.305 32.1534C185.986 32.0531 186.803 31.723 187.464 31.1257C188.303 30.3686 188.433 29.3723 187.825 28.6989C187.238 28.0494 186.415 28.0635 185.221 28.4984C183.59 29.1136 182.355 29.2421 181.427 28.2144C180.542 27.2339 180.567 25.8606 181.494 24.7022L180.417 23.5091L181.149 22.8479L182.184 23.9938C182.914 23.3776 183.569 23.1293 184.093 23.021L184.501 24.0673C184.125 24.1494 183.406 24.3267 182.65 25.0093C181.741 25.8304 181.889 26.6831 182.315 27.1555C182.87 27.7698 183.584 27.6823 184.996 27.1799C186.66 26.5776 187.829 26.6373 188.778 27.6886C189.62 28.6218 189.76 30.0827 188.725 31.3818L189.834 32.6102L189.09 33.2821Z" fill="#DDE8FD"/>
<path d="M17.3082 113.558C15.1926 117.711 10.1113 119.363 5.95864 117.247C1.80587 115.132 0.154396 110.05 2.26986 105.898C4.38547 101.745 9.46681 100.094 13.6194 102.209C17.7722 104.325 19.4237 109.406 17.3082 113.558Z" fill="#217A79"/>
<path d="M6.34293 115.304L7.07259 113.871C6.25728 113.438 5.53648 112.749 5.2207 112.142L6.04502 111.365C6.38209 111.966 6.98229 112.611 7.77645 113.015C8.78318 113.528 9.76006 113.294 10.1717 112.485C10.5692 111.706 10.2617 110.942 9.42898 109.982C8.27164 108.678 7.71045 107.57 8.33885 106.337C8.93844 105.16 10.2302 104.692 11.6431 105.144L12.3727 103.712L13.2519 104.16L12.551 105.536C13.3875 105.997 13.8533 106.52 14.1417 106.971L13.3105 107.726C13.0995 107.404 12.6769 106.796 11.7695 106.334C10.6777 105.778 9.93407 106.22 9.645 106.788C9.26952 107.525 9.60629 108.161 10.5799 109.3C11.7372 110.639 12.0989 111.753 11.4559 113.015C10.8853 114.135 9.57074 114.787 7.98737 114.284L7.23626 115.759L6.34293 115.304Z" fill="#DDE8FD"/>
<path d="M211.881 118.827L217.242 111.269C217.242 111.269 222.485 112.387 224.147 118.833C225.177 122.829 230.047 125.446 230.047 125.446L224.657 133.045C224.657 133.045 218.201 130.419 217.1 125.831C215.936 120.979 211.881 118.827 211.881 118.827Z" fill="#217A79"/>
<path d="M223.167 125.264C221.575 126.294 219.31 125.623 218.109 123.765C216.907 121.908 217.224 119.567 218.816 118.537C220.408 117.507 222.673 118.178 223.875 120.036C225.076 121.893 224.76 124.234 223.167 125.264Z" fill="#41ABA9"/>
<path d="M16.9141 145.966L22.2752 138.407C22.2752 138.407 27.5179 139.525 29.1798 145.971C30.21 149.967 35.08 152.584 35.08 152.584L29.6906 160.183C29.6906 160.183 23.234 157.557 22.1334 152.969C20.9696 148.117 16.9141 145.966 16.9141 145.966Z" fill="#217A79"/>
<path d="M28.2005 152.402C26.6084 153.432 24.3437 152.761 23.1421 150.903C21.9405 149.046 22.2572 146.705 23.8494 145.675C25.4415 144.645 27.7064 145.316 28.9078 147.174C30.1093 149.031 29.7927 151.372 28.2005 152.402Z" fill="#41ABA9"/>
<path d="M143.497 98.0628L135.719 93.0252C135.719 93.0252 136.615 87.7399 142.985 85.8074C146.934 84.6097 149.344 79.6335 149.344 79.6335L157.163 84.6978C157.163 84.6978 154.811 91.2593 150.274 92.5524C145.476 93.9199 143.497 98.0628 143.497 98.0628Z" fill="#217A79"/>
<path d="M149.451 86.5147C150.547 88.062 149.972 90.3531 148.167 91.6319C146.362 92.9106 144.01 92.6931 142.913 91.1459C141.817 89.5985 142.392 87.3074 144.197 86.0287C146.003 84.7499 148.354 84.9675 149.451 86.5147Z" fill="#41ABA9"/>
<path d="M104.156 152.453L99.0723 149.161C99.0723 149.161 99.6579 145.706 103.822 144.443C106.403 143.66 107.977 140.408 107.977 140.408L113.088 143.718C113.088 143.718 111.551 148.006 108.585 148.852C105.449 149.745 104.156 152.453 104.156 152.453Z" fill="#217A79"/>
<path d="M108.048 144.905C108.764 145.917 108.389 147.414 107.209 148.25C106.029 149.086 104.492 148.944 103.775 147.932C103.059 146.921 103.435 145.424 104.615 144.588C105.794 143.752 107.332 143.894 108.048 144.905Z" fill="#41ABA9"/>
<path d="M74.692 150.945C77.5023 154.663 76.7671 159.955 73.0494 162.765C69.3318 165.576 64.0394 164.841 61.2291 161.123C58.4186 157.405 59.1538 152.113 62.8716 149.302C66.5893 146.492 71.8814 147.227 74.692 150.945Z" fill="#CDFDFD"/>
<path d="M71.4691 161.571L70.4997 160.289C69.7539 160.833 68.8194 161.181 68.1351 161.199L67.7967 160.118C68.4842 160.078 69.3265 159.819 70.0375 159.282C70.939 158.601 71.1547 157.62 70.6077 156.896C70.08 156.198 69.2585 156.14 68.0311 156.47C66.3525 156.941 65.1112 156.961 64.2762 155.857C63.4796 154.804 63.6239 153.438 64.6481 152.364L63.6787 151.082L64.4658 150.487L65.3968 151.718C66.1776 151.168 66.8516 150.978 67.3829 150.915L67.6989 151.993C67.3171 152.042 66.5855 152.156 65.773 152.771C64.7955 153.51 64.8689 154.372 65.2528 154.88C65.7517 155.54 66.471 155.515 67.9209 155.137C69.6315 154.682 70.7908 154.843 71.6449 155.972C72.4031 156.975 72.4151 158.443 71.2706 159.647L72.2687 160.967L71.4691 161.571Z" fill="#DDE8FD"/>
<path d="M190.859 156.496L183.081 151.459C183.081 151.459 183.977 146.174 190.347 144.241C194.296 143.043 196.706 138.067 196.706 138.067L204.525 143.131C204.525 143.131 202.173 149.693 197.636 150.986C192.838 152.354 190.859 156.496 190.859 156.496Z" fill="#217A79"/>
<path d="M196.814 144.948C197.91 146.496 197.335 148.787 195.53 150.066C193.725 151.344 191.373 151.127 190.277 149.58C189.181 148.032 189.755 145.741 191.561 144.463C193.366 143.184 195.718 143.401 196.814 144.948Z" fill="#41ABA9"/>
<path d="M217.054 29.8085L209.275 24.7709C209.275 24.7709 210.172 19.4857 216.542 17.5533C220.491 16.3556 222.9 11.3794 222.9 11.3794L230.72 16.4436C230.72 16.4436 228.368 23.0053 223.831 24.2984C219.033 25.6656 217.054 29.8085 217.054 29.8085Z" fill="#217A79"/>
<path d="M223.008 18.2606C224.105 19.8078 223.53 22.0988 221.724 23.3778C219.919 24.6567 217.567 24.439 216.471 22.8916C215.375 21.3444 215.95 19.0534 217.755 17.7744C219.56 16.4957 221.912 16.7134 223.008 18.2606Z" fill="#41ABA9"/>
<path d="M70.1494 23.0682L78.9606 46.5739L106.668 120.493L109.537 128.146L117.815 125.081L163.746 108.079L142.491 51.5387L131.67 22.754L131.544 22.4154L100.875 11.6946L70.1494 23.0682Z" fill="#126564"/>
<path d="M111.029 18.3123L90.2338 26.0103C92.0994 31.0496 89.526 36.6476 84.4873 38.5139L110.358 107.086C115.399 105.221 120.998 107.794 122.864 112.835L143.659 105.136C141.794 100.096 144.366 94.4982 149.405 92.6317L123.534 24.0595C118.494 25.9253 112.895 23.3525 111.029 18.3123Z" fill="#37D2D0"/>
<path d="M110.821 47.5094C102.454 50.6065 98.1825 59.8997 101.279 68.2663C104.377 76.6328 113.67 80.9045 122.037 77.8074C130.403 74.7101 134.675 65.4169 131.578 57.0505C128.481 48.6838 119.187 44.4121 110.821 47.5094Z" fill="#126564"/>
<path d="M100.875 11.6946L113.079 33.7717L131.67 22.7538L131.983 22.5687L131.544 22.4152L100.875 11.6946Z" fill="#126564"/>
<path opacity="0.2" d="M134.399 30.1264L113.079 33.7718L131.669 22.7539L134.399 30.1264Z" fill="#193F1E"/>
<path opacity="0.2" d="M100.875 11.6946L113.079 33.7717L98.8369 12.449L100.875 11.6946Z" fill="#193F1E"/>
<path opacity="0.2" d="M78.96 46.574L106.667 120.492L117.814 125.081L163.745 108.079L142.49 51.5387H132.636C128.913 51.5387 125.746 57.3025 124.566 65.3505L78.96 46.574Z" fill="#193F1E"/>
<path d="M54.5529 39.9156L32.5469 93.3669L157.362 144.753L179.368 91.302L54.5529 39.9156Z" fill="#126564"/>
<path d="M56.7708 60.0952L48.3291 80.6001C53.298 82.6456 55.6677 88.3328 53.6228 93.3018L142.442 129.871C144.488 124.901 150.176 122.531 155.146 124.577L163.587 104.072C158.618 102.026 156.248 96.3394 158.293 91.3701L69.4739 54.801C67.428 59.7705 61.7406 62.1412 56.7708 60.0952Z" fill="#37D2D0"/>
<path d="M91.8506 85.3167C88.4541 93.5663 92.3884 103.007 100.638 106.404C108.888 109.8 118.329 105.866 121.725 97.6161C125.121 89.3667 121.187 79.9256 112.938 76.5294C104.688 73.1327 95.2468 77.067 91.8506 85.3167Z" fill="#126564"/>
<path d="M126.42 76.4812V133.42H184.224V76.4812H143.545C143.503 65.0952 139.687 55.8955 134.983 55.8955C130.28 55.8955 126.462 65.0952 126.421 76.4812H126.42Z" fill="#126564"/>
<path d="M175.656 55.9773H134.985V119.98H175.656V55.9773Z" fill="#37D2D0"/>
<path d="M161.573 104.663C168.756 101.211 171.779 92.5904 168.327 85.4081C164.875 78.2258 156.254 75.2019 149.072 78.654C141.89 82.1061 138.866 90.727 142.318 97.9093C145.77 105.092 154.391 108.116 161.573 104.663Z" fill="#126564"/>
<path opacity="0.2" d="M126.42 76.4812V82.3137H184.224V55.8955H134.983C130.28 55.8955 126.462 65.0952 126.421 76.4812H126.42Z" fill="#193F1E"/>
<path d="M134.983 55.8955C139.687 55.8955 143.505 65.0952 143.545 76.4812H201.351L201.35 76.4793C201.308 65.0941 197.491 55.8955 192.787 55.8955H134.983Z" fill="#126564"/>
<path d="M145.414 55.8955C147.494 55.8955 149.323 57.7812 150.378 60.6326C153.568 60.7117 156.126 63.1622 156.126 66.1739V66.1884H185.352V66.1739C185.352 63.4081 187.51 61.1154 190.332 60.6982C189.281 57.8101 187.439 55.8955 185.343 55.8955H145.414Z" fill="#37D2D0"/>
<path d="M197.964 29.7459L189.152 53.2516L161.445 127.17L158.576 134.824L150.298 131.759L104.367 114.757L125.622 58.2164L136.443 29.4316L136.569 29.093L167.238 18.3723L197.964 29.7459Z" fill="#126564"/>
<path d="M157.083 24.99L177.878 32.6881C176.013 37.7274 178.586 43.3253 183.625 45.1918L157.754 113.764C152.713 111.898 147.114 114.472 145.248 119.512L124.454 111.813C126.318 106.774 123.746 101.176 118.707 99.3098L144.578 30.7373C149.618 32.6028 155.217 30.0302 157.083 24.99Z" fill="#37D2D0"/>
<path d="M157.291 54.1871C165.658 57.2842 169.93 66.5774 166.833 74.9441C163.735 83.3105 154.442 87.5823 146.076 84.4852C137.709 81.3881 133.437 72.0947 136.534 63.7282C139.632 55.3614 148.925 51.0898 157.291 54.1871Z" fill="#126564"/>
<path d="M167.238 18.3723L155.033 40.4493L136.443 29.4316L136.13 29.2464L136.569 29.093L167.238 18.3723Z" fill="#126564"/>
<path opacity="0.2" d="M133.714 36.804L155.033 40.4491L136.443 29.4314L133.714 36.804Z" fill="#193F1E"/>
<path opacity="0.2" d="M167.238 18.3723L155.033 40.4493L169.276 19.1265L167.238 18.3723Z" fill="#193F1E"/>
<path opacity="0.2" d="M189.152 53.2517L161.445 127.17L150.298 131.759L104.367 114.757L125.622 58.2164H135.477C139.2 58.2164 142.366 63.9804 143.546 72.0282L189.152 53.2517Z" fill="#193F1E"/>
<path d="M213.559 46.5967L88.7441 97.9832L110.75 151.435L235.565 100.048L213.559 46.5967Z" fill="#126564"/>
<path d="M211.34 66.7731L219.782 87.2781C214.813 89.3235 212.443 95.0107 214.488 99.9798L125.669 136.549C123.623 131.579 117.935 129.209 112.965 131.255L104.524 110.75C109.493 108.703 111.863 103.017 109.818 98.0481L198.637 61.479C200.683 66.4484 206.37 68.8193 211.34 66.7731Z" fill="#37D2D0"/>
<path d="M176.261 91.9947C179.658 100.245 175.723 109.685 167.474 113.082C159.224 116.478 149.783 112.544 146.387 104.294C142.99 96.0447 146.925 86.6037 155.174 83.2073C163.424 79.8108 172.865 83.7451 176.261 91.9947Z" fill="#126564"/>
<path d="M141.693 83.1594V140.099H83.8887V83.1594H124.568C124.609 71.7734 128.426 62.5735 133.129 62.5735C137.833 62.5735 141.65 71.7732 141.692 83.1594H141.693Z" fill="#126564"/>
<path d="M133.126 62.6555H92.4551V126.659H133.126V62.6555Z" fill="#37D2D0"/>
<path d="M122.991 108.547C128.625 102.912 128.625 93.7761 122.991 88.1414C117.356 82.5066 108.22 82.5066 102.585 88.1414C96.9507 93.7761 96.9507 102.912 102.585 108.547C108.22 114.181 117.356 114.181 122.991 108.547Z" fill="#126564"/>
<path opacity="0.2" d="M141.693 83.1594V88.9918H83.8887V62.5737H133.129C137.833 62.5737 141.65 71.7734 141.692 83.1596L141.693 83.1594Z" fill="#193F1E"/>
<path d="M133.129 62.5737C128.426 62.5737 124.608 71.7734 124.568 83.1596H66.7617L66.7628 83.1577C66.8042 71.7725 70.6217 62.5739 75.3252 62.5739H133.129V62.5737Z" fill="#126564"/>
<path d="M122.698 62.5737C120.618 62.5737 118.789 64.4594 117.734 67.311C114.544 67.3899 111.986 69.8406 111.986 72.8523V72.8668H82.76V72.8523C82.76 70.0865 80.6021 67.7941 77.7803 67.3766C78.8312 64.4885 80.6727 62.5739 82.7694 62.5739H122.698V62.5737Z" fill="#37D2D0"/>
<path d="M73.377 104.215L78.7382 96.6565C78.7382 96.6565 83.981 97.7747 85.6428 104.221C86.6731 108.217 91.5431 110.834 91.5431 110.834L86.1536 118.433C86.1536 118.433 79.6969 115.807 78.5965 111.219C77.4328 106.367 73.377 104.215 73.377 104.215Z" fill="#217A79"/>
<path d="M84.6635 110.652C83.0714 111.682 80.8066 111.011 79.605 109.153C78.4034 107.296 78.7202 104.955 80.3123 103.925C81.9043 102.895 84.1692 103.566 85.3708 105.424C86.5724 107.281 86.2556 109.622 84.6635 110.652Z" fill="#41ABA9"/>
<path d="M117.058 142.875L122.419 135.316C122.419 135.316 127.661 136.434 129.323 142.881C130.354 146.877 135.224 149.494 135.224 149.494L129.834 157.093C129.834 157.093 123.378 154.466 122.277 149.879C121.113 145.027 117.058 142.875 117.058 142.875Z" fill="#217A79"/>
<path d="M128.344 149.311C126.752 150.341 124.487 149.67 123.286 147.812C122.084 145.955 122.401 143.614 123.993 142.584C125.585 141.555 127.85 142.225 129.051 144.083C130.253 145.941 129.936 148.281 128.344 149.311Z" fill="#41ABA9"/>
<path d="M180.566 120.109L173.7 115.489C173.458 115.849 173.216 116.209 172.974 116.568C172.622 117.09 173.883 118.553 175.79 119.837C177.696 121.12 179.526 121.737 179.877 121.215C179.91 121.167 180.566 120.109 180.566 120.109Z" fill="#217A79"/>
<path d="M180.565 120.193C180.214 120.715 178.384 120.097 176.477 118.814C174.571 117.531 173.31 116.068 173.661 115.546C174.013 115.024 175.843 115.642 177.749 116.925C179.656 118.208 180.916 119.671 180.565 120.193Z" fill="#41ABA9"/>
<path d="M29.444 69.6506L22.5786 65.0303C22.3363 65.3903 22.0941 65.7503 21.8517 66.1104C21.5005 66.6321 22.7612 68.0953 24.6678 69.3784C26.5743 70.6613 28.4045 71.2784 28.7558 70.7567C28.7879 70.7087 29.444 69.6506 29.444 69.6506Z" fill="#217A79"/>
<path d="M29.443 69.7347C29.0917 70.2566 27.2615 69.6396 25.355 68.3564C23.4487 67.0734 22.188 65.6103 22.5392 65.0886C22.8903 64.5667 24.7206 65.1837 26.6271 66.4669C28.5333 67.7496 29.7942 69.2127 29.443 69.7347Z" fill="#41ABA9"/>
<path d="M157.455 156.892L150.589 152.272C150.347 152.632 150.105 152.992 149.862 153.352C149.511 153.874 150.772 155.337 152.678 156.62C154.585 157.903 156.415 158.52 156.766 157.998C156.799 157.95 157.455 156.892 157.455 156.892Z" fill="#217A79"/>
<path d="M157.455 156.976C157.104 157.498 155.273 156.881 153.367 155.598C151.46 154.315 150.2 152.852 150.551 152.33C150.902 151.808 152.732 152.425 154.639 153.708C156.545 154.991 157.806 156.454 157.455 156.976Z" fill="#41ABA9"/>
<path d="M121.38 101.333L114.515 96.7129C114.273 97.0729 114.031 97.4329 113.788 97.7928C113.437 98.3147 114.698 99.7778 116.604 101.061C118.511 102.344 120.341 102.961 120.692 102.439C120.725 102.391 121.38 101.333 121.38 101.333Z" fill="#217A79"/>
<path d="M121.381 101.417C121.029 101.939 119.199 101.322 117.293 100.039C115.386 98.7556 114.125 97.2926 114.477 96.7707C114.828 96.2488 116.658 96.8659 118.565 98.149C120.471 99.4319 121.732 100.895 121.381 101.417Z" fill="#41ABA9"/>
<path d="M119.922 126.067L113.057 121.447C112.815 121.807 112.573 122.167 112.33 122.527C111.979 123.049 113.24 124.512 115.146 125.795C117.053 127.078 118.883 127.695 119.234 127.173C119.267 127.125 119.922 126.067 119.922 126.067Z" fill="#217A79"/>
<path d="M119.922 126.151C119.57 126.673 117.74 126.056 115.834 124.773C113.927 123.49 112.666 122.027 113.018 121.505C113.369 120.983 115.199 121.6 117.106 122.883C119.012 124.166 120.273 125.629 119.922 126.151Z" fill="#41ABA9"/>
<path d="M166.859 124.809L158.584 124.754C158.581 125.188 158.578 125.622 158.575 126.056C158.571 126.685 160.43 127.207 162.728 127.222C165.026 127.237 166.893 126.74 166.897 126.111C166.897 126.053 166.859 124.809 166.859 124.809Z" fill="#217A79"/>
<path d="M166.906 124.879C166.902 125.508 165.035 126.005 162.737 125.99C160.439 125.975 158.58 125.453 158.584 124.824C158.588 124.195 160.455 123.697 162.752 123.713C165.05 123.728 166.91 124.25 166.906 124.879Z" fill="#41ABA9"/>
<path d="M81.531 137.831L75.1099 132.611C74.8363 132.948 74.5626 133.284 74.2887 133.621C73.8918 134.109 75.0157 135.68 76.7986 137.13C78.5817 138.579 80.3489 139.359 80.7458 138.871C80.7824 138.826 81.531 137.831 81.531 137.831Z" fill="#217A79"/>
<path d="M81.5221 137.915C81.1252 138.403 79.3581 137.624 77.575 136.174C75.792 134.724 74.6683 133.153 75.065 132.665C75.462 132.177 77.2291 132.957 79.0121 134.406C80.7952 135.856 81.9189 137.427 81.5221 137.915Z" fill="#41ABA9"/>
<path d="M230.267 34.2923L223.846 29.072C223.573 29.4088 223.299 29.7454 223.025 30.082C222.628 30.5702 223.752 32.1411 225.535 33.5907C227.318 35.0404 229.085 35.8198 229.482 35.3319C229.519 35.2869 230.267 34.2923 230.267 34.2923Z" fill="#217A79"/>
<path d="M230.259 34.3759C229.862 34.8641 228.095 34.0846 226.312 32.6349C224.529 31.1852 223.405 29.6144 223.802 29.1263C224.199 28.6381 225.966 29.4176 227.749 30.8673C229.532 32.3169 230.656 33.8876 230.259 34.3759Z" fill="#41ABA9"/>
<path d="M111.667 88.3328L103.798 90.8932C103.932 91.3057 104.066 91.7184 104.201 92.1309C104.395 92.7291 106.324 92.6378 108.51 91.9267C110.695 91.216 112.309 90.1547 112.114 89.5564C112.096 89.5014 111.667 88.3328 111.667 88.3328Z" fill="#217A79"/>
<path d="M111.733 88.3847C111.928 88.9828 110.314 90.0443 108.129 90.7554C105.943 91.4663 104.014 91.5578 103.82 90.9594C103.625 90.3613 105.239 89.2998 107.424 88.5889C109.609 87.8781 111.538 87.7866 111.733 88.3847Z" fill="#41ABA9"/>
<path d="M245.295 145.563L237.426 148.123C237.56 148.536 237.694 148.948 237.829 149.361C238.023 149.959 239.952 149.868 242.138 149.157C244.323 148.446 245.937 147.385 245.742 146.786C245.724 146.731 245.295 145.563 245.295 145.563Z" fill="#217A79"/>
<path d="M245.361 145.615C245.556 146.213 243.942 147.274 241.757 147.985C239.572 148.696 237.642 148.788 237.448 148.189C237.253 147.591 238.867 146.53 241.052 145.819C243.237 145.108 245.166 145.017 245.361 145.615Z" fill="#41ABA9"/>
<path d="M104.809 163.414L96.9395 165.975C97.0737 166.387 97.208 166.8 97.3422 167.212C97.537 167.811 99.4661 167.719 101.651 167.008C103.837 166.297 105.45 165.236 105.256 164.638C105.238 164.583 104.809 163.414 104.809 163.414Z" fill="#217A79"/>
<path d="M104.875 163.466C105.069 164.065 103.456 165.126 101.27 165.837C99.0852 166.548 97.1559 166.639 96.9612 166.041C96.7666 165.443 98.3803 164.382 100.566 163.671C102.751 162.96 104.68 162.868 104.875 163.466Z" fill="#41ABA9"/>
<path d="M30.5215 121.245L22.6523 123.805C22.7866 124.218 22.9207 124.631 23.0551 125.044C23.2497 125.642 25.179 125.55 27.3642 124.839C29.5494 124.128 31.1633 123.067 30.9685 122.469C30.9505 122.414 30.5215 121.245 30.5215 121.245Z" fill="#217A79"/>
<path d="M30.5875 121.297C30.7821 121.895 29.1684 122.957 26.9832 123.668C24.7981 124.379 22.8687 124.47 22.6741 123.872C22.4794 123.274 24.0931 122.212 26.2783 121.501C28.4637 120.79 30.3928 120.699 30.5875 121.297Z" fill="#41ABA9"/>
<path d="M187.884 162.409L180.015 164.969C180.149 165.382 180.283 165.794 180.417 166.207C180.612 166.805 182.541 166.714 184.727 166.003C186.912 165.292 188.526 164.231 188.331 163.632C188.313 163.577 187.884 162.409 187.884 162.409Z" fill="#217A79"/>
<path d="M187.95 162.461C188.145 163.059 186.531 164.12 184.346 164.831C182.16 165.542 180.231 165.634 180.036 165.035C179.842 164.437 181.456 163.376 183.641 162.665C185.826 161.954 187.755 161.863 187.95 162.461Z" fill="#41ABA9"/>
<path d="M231.833 84.3062L223.964 86.8664C224.098 87.2789 224.233 87.6916 224.367 88.1043C224.561 88.7024 226.49 88.611 228.676 87.9C230.861 87.1892 232.475 86.1279 232.28 85.5296C232.262 85.4746 231.833 84.3062 231.833 84.3062Z" fill="#217A79"/>
<path d="M231.898 84.3582C232.093 84.9563 230.479 86.0177 228.294 86.7287C226.109 87.4396 224.179 87.5311 223.985 86.9329C223.79 86.3346 225.404 85.2733 227.589 84.5622C229.774 83.8513 231.704 83.7601 231.898 84.3582Z" fill="#41ABA9"/>
<path d="M171.061 105.626C169.714 110.088 165.005 112.613 160.544 111.266C156.082 109.92 153.557 105.211 154.903 100.75C156.25 96.288 160.958 93.7626 165.42 95.1092C169.882 96.4559 172.407 101.164 171.061 105.626Z" fill="#CDFDFD"/>
<path d="M160.576 109.286L161.041 107.747C160.162 107.465 159.33 106.915 158.912 106.373L159.586 105.462C160.024 105.994 160.729 106.522 161.582 106.78C162.664 107.106 163.583 106.702 163.846 105.834C164.098 104.996 163.661 104.299 162.671 103.501C161.301 102.423 160.553 101.432 160.953 100.107C161.335 98.8421 162.523 98.1536 163.994 98.3482L164.458 96.8093L165.403 97.0944L164.957 98.5723C165.862 98.8786 166.413 99.3109 166.776 99.7032L166.092 100.594C165.827 100.315 165.304 99.7907 164.329 99.4966C163.156 99.1426 162.502 99.7101 162.318 100.319C162.079 101.112 162.523 101.678 163.683 102.626C165.06 103.74 165.613 104.771 165.203 106.127C164.84 107.331 163.662 108.205 162.015 107.991L161.536 109.575L160.576 109.286Z" fill="#DDE8FD"/>
<path d="M242.4 156.696C245.523 160.155 245.25 165.491 241.79 168.614C238.331 171.737 232.995 171.464 229.872 168.005C226.749 164.545 227.022 159.209 230.481 156.086C233.941 152.964 239.277 153.236 242.4 156.696Z" fill="#CDFDFD"/>
<path d="M240.112 167.562L239.035 166.369C238.339 166.975 237.438 167.403 236.758 167.481L236.327 166.433C237.009 166.333 237.825 166.003 238.487 165.405C239.326 164.648 239.455 163.652 238.847 162.979C238.261 162.329 237.438 162.343 236.244 162.778C234.612 163.393 233.378 163.522 232.45 162.494C231.565 161.514 231.59 160.14 232.517 158.982L231.439 157.789L232.172 157.128L233.206 158.274C233.936 157.658 234.591 157.409 235.115 157.301L235.524 158.347C235.148 158.429 234.429 158.607 233.673 159.289C232.763 160.11 232.911 160.963 233.338 161.435C233.892 162.05 234.607 161.962 236.018 161.46C237.683 160.857 238.852 160.917 239.801 161.969C240.643 162.902 240.783 164.362 239.747 165.662L240.857 166.89L240.112 167.562Z" fill="#DDE8FD"/>
<path d="M134.405 97.207C133.595 95.5518 132.786 93.8967 131.977 92.2413C131.329 90.9152 128.885 92.4497 129.529 93.7665C130.338 95.4216 131.147 97.0768 131.957 98.732C132.605 100.058 135.048 98.5238 134.405 97.207Z" fill="#157675"/>
<path d="M132.397 117.195C132.269 115.834 132.141 114.474 132.014 113.113C131.911 112.023 129.078 112.253 129.179 113.336C129.307 114.696 129.435 116.057 129.562 117.418C129.665 118.508 132.498 118.277 132.397 117.195Z" fill="#126564"/>
<path d="M205.362 27.4245C203.54 27.6986 201.718 27.9723 199.896 28.2464C198.437 28.4657 199.165 31.2577 200.614 31.0398C202.436 30.7657 204.258 30.4918 206.08 30.2178C207.54 29.9984 206.811 27.2064 205.362 27.4245Z" fill="#157675"/>
<path d="M161.063 98.491C160.42 95.7265 159.025 93.3945 156.993 91.4865C156.059 90.6089 154.303 92.4656 155.232 93.3385C156.997 94.9955 158.14 97.094 158.697 99.4846C158.993 100.76 161.359 99.7618 161.063 98.491Z" fill="#61F8F1"/>
<path d="M91.7201 14.226C90.0039 11.9652 87.7787 10.406 85.1445 9.49405C83.9333 9.07477 83.0884 11.4868 84.2933 11.904C86.5807 12.6959 88.4816 14.1443 89.9657 16.0994C90.7571 17.1424 92.509 15.2653 91.7201 14.226Z" fill="#61F8F1"/>
<path d="M178.59 98.7323C177.412 98.6843 177.284 100.598 178.467 100.646C180.121 100.714 181.506 101.556 182.436 102.978C183.102 103.996 184.477 102.724 183.818 101.716C182.633 99.906 180.678 98.818 178.59 98.7323Z" fill="#157675"/>
<path d="M185.187 22.0714C183.664 20.7324 183.061 18.6731 183.717 16.5357C184.109 15.2608 182.126 14.8302 181.731 16.1136C180.862 18.9431 181.493 21.7677 183.545 23.5717C184.463 24.3785 186.113 22.8852 185.187 22.0714Z" fill="#126564"/>
<path d="M182.178 112.132C183.875 113.034 185.177 114.452 185.906 116.18C186.296 117.108 187.799 116.627 187.407 115.697C186.511 113.568 184.926 111.855 182.837 110.745C181.925 110.262 181.267 111.649 182.178 112.132Z" fill="#61F8F1"/>
<path d="M166.136 114.813C165.818 117.156 164.736 119.264 163.051 120.842C162.146 121.689 163.341 123.219 164.248 122.37C166.324 120.428 167.628 117.867 168.018 114.984C168.189 113.725 166.306 113.555 166.136 114.813Z" fill="#126564"/>
<path d="M29.0586 54.3779C26.9979 52.2594 23.2289 53.0995 21.5837 55.7173C20.8636 56.8631 22.6522 57.6516 23.3688 56.5112C24.3406 54.9649 26.583 54.8503 27.6818 55.9799C28.5532 56.8757 29.9252 55.269 29.0586 54.3779Z" fill="#CDFDFD"/>
<path d="M95.1972 83.6158C93.8254 85.484 91.8176 86.035 89.9272 85.2598C88.786 84.7916 88.4637 87.2233 89.5958 87.6875C92.1341 88.7288 94.7959 87.7382 96.6007 85.2803C97.4195 84.1651 96.0115 82.5064 95.1972 83.6158Z" fill="#157675"/>
<path d="M30.3843 30.7929C29.295 30.9417 29.5818 33.1845 30.6659 33.0365C32.7824 32.7474 34.7981 33.6572 36.3866 35.4316C37.2135 36.3553 38.21 34.4428 37.3902 33.5272C35.4405 31.349 32.95 30.4426 30.3843 30.7929Z" fill="#126564"/>
<path d="M18.2193 118.194C17.6709 119.146 19.6207 120.291 20.1666 119.343C21.2323 117.491 23.1847 116.453 25.5601 116.281C26.7965 116.192 25.8928 114.234 24.667 114.322C21.7513 114.533 19.5109 115.949 18.2193 118.194Z" fill="#126564"/>
<path d="M95.8784 108.063C93.239 108.778 91.6984 110.991 91.8935 113.9C91.9733 115.09 93.9826 115.669 93.9023 114.472C93.7517 112.226 94.873 110.501 96.9248 109.945C98.0101 109.651 96.9648 107.769 95.8784 108.063Z" fill="#157675"/>
<path d="M6.29361 78.134C3.74416 77.956 2.31005 76.318 2.56297 73.7381C2.69678 72.3734 0.171635 73.3398 0.037675 74.7055C-0.28755 78.0242 1.5087 80.2499 4.81105 80.4805C6.16146 80.5747 7.65196 78.229 6.29361 78.134Z" fill="#217A79"/>
<path d="M151.142 134.868C148.593 134.69 147.159 133.052 147.412 130.472C147.545 129.107 145.02 130.074 144.886 131.44C144.561 134.758 146.357 136.984 149.66 137.214C151.01 137.309 152.5 134.963 151.142 134.868Z" fill="#CDFDFD"/>
<path d="M230.713 70.4015C229.524 68.139 230.164 66.058 232.491 64.9169C233.722 64.3134 231.573 62.6732 230.341 63.2771C227.346 64.745 226.397 67.4431 227.937 70.3736C228.567 71.572 231.346 71.6068 230.713 70.4015Z" fill="#CDFDFD"/>
<path d="M117.835 92.661C117.345 90.2323 117.903 87.7389 119.291 85.6116C119.97 84.5711 118.276 83.7225 117.601 84.7575C115.925 87.326 115.391 90.3374 115.976 93.2427C116.214 94.4224 118.071 93.8337 117.835 92.661Z" fill="#61F8F1"/>
<path d="M75.6803 118.801C76.5981 116.499 78.4275 114.716 80.7525 113.693C81.8898 113.193 80.9354 111.557 79.8043 112.054C76.997 113.289 74.9037 115.519 73.8062 118.272C73.3604 119.39 75.2373 119.912 75.6803 118.801Z" fill="#CDFDFD"/>
<path d="M237.228 26.6843C235.364 27.8865 233.639 29.3391 232.019 31.0075C230.987 32.0711 232.46 33.9065 233.485 32.8515C234.966 31.3263 236.572 30.0338 238.274 28.936C239.462 28.1703 238.414 25.9196 237.228 26.6843Z" fill="#61F8F1"/>
<path d="M159.94 19.3521C158.076 20.5543 156.351 22.0068 154.731 23.6752C153.699 24.7388 155.172 26.5741 156.197 25.519C157.677 23.994 159.284 22.7014 160.986 21.6036C162.173 20.8381 161.126 18.5873 159.94 19.3521Z" fill="#157675"/>
<path d="M196.023 11.1111C195.101 11.1111 194.353 11.8857 194.353 12.8415C194.353 13.797 195.1 14.5717 196.023 14.5717C196.945 14.5717 197.693 13.797 197.693 12.8415C197.693 11.8857 196.945 11.1111 196.023 11.1111Z" fill="#126564"/>
<path d="M20.8655 93.6748C19.9741 92.8995 18.7036 92.9594 18.0283 93.8087C17.3528 94.6581 17.528 95.9751 18.4197 96.7503C19.3112 97.5256 20.5815 97.4659 21.2569 96.6164C21.9324 95.7672 21.757 94.4501 20.8655 93.6748Z" fill="#126564"/>
<path d="M119.665 112.062C118.743 111.375 117.463 111.599 116.806 112.563C116.148 113.526 116.363 114.865 117.285 115.552C118.207 116.24 119.487 116.016 120.144 115.052C120.802 114.088 120.587 112.75 119.665 112.062Z" fill="#CDFDFD"/>
<path d="M186.617 125.594C185.695 124.907 184.414 125.13 183.757 126.094C183.1 127.058 183.314 128.397 184.236 129.084C185.158 129.772 186.438 129.548 187.096 128.584C187.753 127.62 187.538 126.282 186.617 125.594Z" fill="#CDFDFD"/>
<path d="M149.286 101.77C148.365 101.083 147.084 101.307 146.427 102.271C145.77 103.234 145.984 104.573 146.906 105.261C147.828 105.948 149.108 105.724 149.765 104.76C150.423 103.796 150.208 102.458 149.286 101.77Z" fill="#157675"/>
<path d="M227.538 93.0439C226.581 93.0046 226.477 94.5597 227.438 94.599C228.782 94.6537 229.907 95.3384 230.663 96.4933C231.204 97.3206 232.322 96.287 231.785 95.4678C230.823 93.9973 229.234 93.1133 227.538 93.0439Z" fill="#157675"/>
<path d="M232.512 117.532C232.254 119.436 231.375 121.149 230.005 122.431C229.27 123.119 230.241 124.362 230.978 123.673C232.665 122.094 233.724 120.014 234.041 117.671C234.18 116.648 232.65 116.51 232.512 117.532Z" fill="#157675"/>
<path d="M74.3915 98.5967C73.0662 99.9876 71.3497 100.859 69.4884 101.094C68.4896 101.22 68.5468 102.797 69.5482 102.671C71.8403 102.381 73.9182 101.318 75.5493 99.606C76.2614 98.8586 75.1032 97.8499 74.3915 98.5967Z" fill="#126564"/>
<path d="M226.166 113.053C225.417 112.494 224.377 112.677 223.843 113.46C223.309 114.243 223.483 115.33 224.232 115.889C224.981 116.448 226.021 116.266 226.555 115.483C227.089 114.699 226.915 113.612 226.166 113.053Z" fill="#61F8F1"/>
<path d="M237.463 81.925C236.714 81.3664 235.674 81.5484 235.14 82.3314C234.605 83.1146 234.78 84.2024 235.529 84.761C236.278 85.3195 237.318 85.1377 237.852 84.3545C238.386 83.5716 238.212 82.4838 237.463 81.925Z" fill="#126564"/>
<path d="M16.5967 33.4473C15.4058 32.8553 13.9942 33.3558 13.4441 34.5655C12.894 35.7752 13.4136 37.236 14.6044 37.8283C15.7957 38.4205 17.207 37.9199 17.7571 36.71C18.3072 35.5003 17.7875 34.0394 16.5967 33.4473Z" fill="#157675"/>
<path d="M50.9992 37.8713C50.2239 37.8713 49.5957 38.5284 49.5957 39.3391C49.5957 40.1496 50.2239 40.8068 50.9992 40.8068C51.7743 40.8068 52.4029 40.1496 52.4029 39.3391C52.4027 38.5284 51.7743 37.8713 50.9992 37.8713Z" fill="#157675"/>
<path d="M124.51 12.6657C123.738 11.8829 122.115 13.4567 122.883 14.2359C124.383 15.7568 124.863 17.9157 124.394 20.2506C124.151 21.466 126.279 21.1175 126.521 19.9125C127.096 17.0462 126.328 14.5092 124.51 12.6657Z" fill="#157675"/>
<path d="M112.993 15.3726C111.802 14.7805 110.391 15.2811 109.841 16.491C109.291 17.7008 109.81 19.1615 111.001 19.7536C112.192 20.3458 113.603 19.8451 114.154 18.6354C114.704 17.4255 114.184 15.9649 112.993 15.3726Z" fill="#126564"/>
<path d="M145.601 14.0558C146.376 14.0558 147.004 13.3987 147.004 12.5881C147.004 11.7775 146.376 11.1204 145.601 11.1204C144.826 11.1204 144.197 11.7775 144.197 12.5881C144.197 13.3987 144.826 14.0558 145.601 14.0558Z" fill="#61F8F1"/>
<path d="M231.49 48.1685C230.824 48.1685 230.284 48.7331 230.284 49.4296C230.284 50.1261 230.824 50.6907 231.49 50.6907C232.156 50.6907 232.696 50.1261 232.696 49.4296C232.696 48.7331 232.156 48.1685 231.49 48.1685Z" fill="#61F8F1"/>
<path d="M34.3127 104.272C33.4599 104.486 32.9334 105.377 33.1362 106.263C33.3393 107.149 34.1951 107.693 35.0478 107.48C35.9006 107.266 36.4273 106.375 36.2244 105.489C36.0215 104.603 35.1656 104.058 34.3127 104.272Z" fill="#157675"/>
<path d="M100.261 94.9638C99.3425 94.6097 98.3298 95.0839 97.9987 96.0227C97.6678 96.9616 98.1439 98.0096 99.0623 98.3635C99.9805 98.7173 100.993 98.2435 101.324 97.3045C101.655 96.3658 101.179 95.3179 100.261 94.9638Z" fill="#126564"/>
<path d="M189.73 121.658H69.833V175.511H189.73V121.658Z" fill="#CDFDFD"/>
<path d="M183.518 127.27L183.557 169.799L76.0469 169.899L76.0073 127.37L183.518 127.27ZM185.956 124.828L183.515 124.83L76.0049 124.93L73.5645 124.932L73.5667 127.373L73.6065 169.901L73.6087 172.342L76.0491 172.339L183.559 172.239L186 172.237L185.998 169.796L185.958 127.268L185.956 124.828Z" fill="#126564"/>
<path d="M127.064 165.832L79.3522 165.877C78.792 165.877 78.3375 165.424 78.3369 164.863C78.3365 164.303 78.7901 163.849 79.3502 163.848L127.062 163.804C127.623 163.803 128.077 164.257 128.078 164.817C128.078 165.377 127.625 165.832 127.064 165.832Z" fill="#126564"/>
<path d="M178.717 165.784L153.782 165.807C153.222 165.808 152.767 165.354 152.767 164.794C152.766 164.234 153.22 163.779 153.78 163.779L178.715 163.756C179.275 163.755 179.73 164.209 179.73 164.769C179.73 165.329 179.277 165.784 178.717 165.784Z" fill="#126564"/>
<path d="M91.798 141.954L87.6964 141.958L87.6957 141.278C87.6951 140.554 87.6472 140.08 87.5524 139.857C87.4572 139.633 87.2542 139.522 86.9428 139.522C86.6924 139.522 86.5046 139.619 86.3796 139.812C86.2545 140.005 86.1923 140.295 86.1926 140.68C86.1932 141.323 86.322 141.773 86.5797 142.03C86.8301 142.287 87.5684 142.787 88.7943 143.531C89.8369 144.159 90.5481 144.641 90.9274 144.975C91.3067 145.31 91.627 145.784 91.8883 146.396C92.1494 147.008 92.2804 147.771 92.2812 148.685C92.2827 150.147 91.9316 151.294 91.2286 152.127C90.5252 152.96 89.47 153.476 88.0625 153.673L88.064 155.216L86.1757 155.218L86.1741 153.624C85.0775 153.517 84.1194 153.097 83.3 152.363C82.4802 151.63 82.0697 150.349 82.0678 148.522L82.0671 147.72L86.1686 147.716L86.1695 148.721C86.1704 149.824 86.2133 150.509 86.2983 150.777C86.3831 151.044 86.588 151.177 86.9127 151.177C87.1903 151.177 87.3965 151.084 87.5319 150.897C87.667 150.711 87.7344 150.435 87.7341 150.07C87.7332 149.149 87.6683 148.491 87.5394 148.095C87.4104 147.7 86.9701 147.269 86.2184 146.802C84.9654 146.018 84.1139 145.442 83.6636 145.074C83.213 144.705 82.8234 144.186 82.4945 143.516C82.1656 142.847 82.0008 142.089 82 141.243C81.9989 140.018 82.3448 139.056 83.0379 138.359C83.731 137.661 84.7711 137.23 86.1585 137.066L86.1572 135.757L88.0455 135.755L88.0467 137.065C89.3125 137.226 90.2606 137.65 90.8905 138.336C91.5207 139.023 91.8363 139.972 91.8373 141.183C91.8379 141.352 91.8245 141.609 91.798 141.954Z" fill="#157675"/>
<path d="M97.3856 141.687C97.5048 140.857 97.7321 140.134 98.0675 139.518C98.4103 138.901 98.8313 138.388 99.3306 137.977C99.8374 137.565 100.415 137.261 101.063 137.063C101.712 136.858 102.408 136.755 103.154 136.755C103.958 136.755 104.674 136.873 105.3 137.109C105.926 137.337 106.455 137.649 106.887 138.045C107.319 138.441 107.647 138.901 107.871 139.426C108.094 139.944 108.206 140.492 108.206 141.071C108.206 141.596 108.154 142.06 108.05 142.463C107.945 142.859 107.789 143.206 107.58 143.502C107.379 143.792 107.126 144.039 106.82 144.244C106.522 144.442 106.179 144.61 105.792 144.747C107.595 145.394 108.497 146.65 108.497 148.514C108.497 149.397 108.34 150.166 108.027 150.821C107.714 151.475 107.293 152.019 106.764 152.453C106.243 152.887 105.635 153.214 104.942 153.435C104.249 153.648 103.526 153.755 102.774 153.755C101.998 153.755 101.309 153.671 100.706 153.504C100.102 153.329 99.5654 153.062 99.0959 152.705C98.6264 152.339 98.2128 151.875 97.8551 151.312C97.5048 150.748 97.1993 150.079 96.9385 149.302L98.4811 148.663C98.8835 148.503 99.2561 148.461 99.5989 148.537C99.9417 148.613 100.188 148.788 100.337 149.062C100.672 149.694 101.026 150.155 101.399 150.444C101.779 150.726 102.222 150.866 102.729 150.866C103.116 150.866 103.452 150.802 103.735 150.672C104.025 150.535 104.264 150.364 104.45 150.159C104.644 149.945 104.789 149.706 104.886 149.439C104.983 149.173 105.032 148.903 105.032 148.629C105.032 148.271 105.005 147.951 104.953 147.67C104.909 147.38 104.774 147.133 104.551 146.927C104.327 146.722 103.988 146.566 103.534 146.459C103.087 146.345 102.461 146.288 101.656 146.288V143.845C102.334 143.845 102.882 143.792 103.299 143.685C103.716 143.578 104.037 143.434 104.26 143.251C104.491 143.061 104.644 142.833 104.719 142.566C104.793 142.3 104.83 142.007 104.83 141.687C104.83 141.032 104.674 140.53 104.361 140.18C104.055 139.822 103.586 139.643 102.952 139.643C102.438 139.643 102.002 139.784 101.645 140.066C101.294 140.34 101.052 140.682 100.918 141.093C100.761 141.512 100.557 141.79 100.303 141.927C100.05 142.064 99.6883 142.094 99.2188 142.018L97.3856 141.687Z" fill="#157675"/>
<path d="M114.334 142.795C114.639 142.734 114.933 142.692 115.217 142.669C115.5 142.646 115.776 142.635 116.044 142.635C116.901 142.635 117.657 142.768 118.313 143.034C118.969 143.301 119.52 143.666 119.967 144.13C120.415 144.587 120.75 145.127 120.973 145.752C121.204 146.368 121.32 147.03 121.32 147.738C121.32 148.629 121.163 149.443 120.851 150.181C120.545 150.912 120.116 151.544 119.565 152.077C119.014 152.609 118.354 153.024 117.586 153.321C116.826 153.61 115.992 153.755 115.083 153.755C114.553 153.755 114.047 153.698 113.562 153.584C113.085 153.469 112.634 153.317 112.21 153.127C111.792 152.929 111.405 152.705 111.047 152.453C110.689 152.195 110.365 151.921 110.075 151.631L111.148 150.17C111.26 150.018 111.39 149.904 111.539 149.827C111.688 149.744 111.848 149.702 112.02 149.702C112.243 149.702 112.452 149.767 112.646 149.896C112.847 150.018 113.063 150.155 113.294 150.307C113.532 150.452 113.808 150.585 114.121 150.707C114.434 150.828 114.822 150.889 115.284 150.889C115.746 150.889 116.141 150.813 116.469 150.661C116.797 150.501 117.061 150.288 117.262 150.022C117.471 149.747 117.62 149.432 117.709 149.074C117.806 148.709 117.855 148.32 117.855 147.909C117.855 147.103 117.631 146.49 117.184 146.071C116.737 145.645 116.103 145.432 115.284 145.432C114.553 145.432 113.838 145.573 113.138 145.854L110.991 145.261L112.377 136.938H120.716V138.399C120.716 138.643 120.679 138.863 120.605 139.061C120.53 139.259 120.411 139.434 120.247 139.586C120.09 139.731 119.882 139.845 119.621 139.929C119.36 140.005 119.047 140.043 118.682 140.043H114.792L114.334 142.795Z" fill="#157675"/>
<path d="M134.859 145.249C134.859 146.703 134.706 147.963 134.4 149.028C134.095 150.094 133.67 150.977 133.126 151.677C132.589 152.377 131.949 152.899 131.203 153.241C130.466 153.584 129.664 153.755 128.8 153.755C127.936 153.755 127.134 153.584 126.397 153.241C125.666 152.899 125.033 152.377 124.496 151.677C123.96 150.977 123.539 150.094 123.233 149.028C122.935 147.963 122.786 146.703 122.786 145.249C122.786 143.795 122.935 142.536 123.233 141.47C123.539 140.405 123.96 139.522 124.496 138.821C125.033 138.121 125.666 137.604 126.397 137.269C127.134 136.926 127.936 136.755 128.8 136.755C129.664 136.755 130.466 136.926 131.203 137.269C131.949 137.604 132.589 138.121 133.126 138.821C133.67 139.522 134.095 140.405 134.4 141.47C134.706 142.536 134.859 143.795 134.859 145.249ZM131.282 145.249C131.282 144.1 131.211 143.16 131.069 142.429C130.928 141.691 130.738 141.112 130.499 140.694C130.268 140.275 130.004 139.99 129.705 139.837C129.407 139.678 129.106 139.598 128.8 139.598C128.494 139.598 128.193 139.678 127.895 139.837C127.604 139.99 127.343 140.275 127.112 140.694C126.889 141.112 126.706 141.691 126.564 142.429C126.43 143.16 126.363 144.1 126.363 145.249C126.363 146.406 126.43 147.35 126.564 148.081C126.706 148.811 126.889 149.39 127.112 149.816C127.343 150.235 127.604 150.524 127.895 150.684C128.193 150.836 128.494 150.912 128.8 150.912C129.106 150.912 129.407 150.836 129.705 150.684C130.004 150.524 130.268 150.235 130.499 149.816C130.738 149.39 130.928 148.811 131.069 148.081C131.211 147.35 131.282 146.406 131.282 145.249Z" fill="#157675"/>
<path d="M153.001 145.249C153.001 146.703 152.849 147.963 152.543 149.028C152.238 150.094 151.813 150.977 151.269 151.677C150.732 152.377 150.091 152.899 149.346 153.241C148.608 153.584 147.807 153.755 146.943 153.755C146.078 153.755 145.277 153.584 144.539 153.241C143.809 152.899 143.176 152.377 142.639 151.677C142.103 150.977 141.682 150.094 141.376 149.028C141.078 147.963 140.929 146.703 140.929 145.249C140.929 143.795 141.078 142.536 141.376 141.47C141.682 140.405 142.103 139.522 142.639 138.821C143.176 138.121 143.809 137.604 144.539 137.269C145.277 136.926 146.078 136.755 146.943 136.755C147.807 136.755 148.608 136.926 149.346 137.269C150.091 137.604 150.732 138.121 151.269 138.821C151.813 139.522 152.238 140.405 152.543 141.47C152.849 142.536 153.001 143.795 153.001 145.249ZM149.424 145.249C149.424 144.1 149.354 143.16 149.212 142.429C149.07 141.691 148.88 141.112 148.642 140.694C148.411 140.275 148.146 139.99 147.848 139.837C147.55 139.678 147.248 139.598 146.943 139.598C146.637 139.598 146.335 139.678 146.037 139.837C145.747 139.99 145.486 140.275 145.255 140.694C145.031 141.112 144.849 141.691 144.707 142.429C144.573 143.16 144.506 144.1 144.506 145.249C144.506 146.406 144.573 147.35 144.707 148.081C144.849 148.811 145.031 149.39 145.255 149.816C145.486 150.235 145.747 150.524 146.037 150.684C146.335 150.836 146.637 150.912 146.943 150.912C147.248 150.912 147.55 150.836 147.848 150.684C148.146 150.524 148.411 150.235 148.642 149.816C148.88 149.39 149.07 148.811 149.212 148.081C149.354 147.35 149.424 146.406 149.424 145.249Z" fill="#157675"/>
<path d="M165.97 145.249C165.97 146.703 165.817 147.963 165.512 149.028C165.206 150.094 164.781 150.977 164.237 151.677C163.701 152.377 163.06 152.899 162.315 153.241C161.577 153.584 160.776 153.755 159.911 153.755C159.047 153.755 158.246 153.584 157.508 153.241C156.778 152.899 156.144 152.377 155.608 151.677C155.071 150.977 154.65 150.094 154.345 149.028C154.046 147.963 153.897 146.703 153.897 145.249C153.897 143.795 154.046 142.536 154.345 141.47C154.65 140.405 155.071 139.522 155.608 138.821C156.144 138.121 156.778 137.604 157.508 137.269C158.246 136.926 159.047 136.755 159.911 136.755C160.776 136.755 161.577 136.926 162.315 137.269C163.06 137.604 163.701 138.121 164.237 138.821C164.781 139.522 165.206 140.405 165.512 141.47C165.817 142.536 165.97 143.795 165.97 145.249ZM162.393 145.249C162.393 144.1 162.322 143.16 162.181 142.429C162.039 141.691 161.849 141.112 161.61 140.694C161.379 140.275 161.115 139.99 160.817 139.837C160.519 139.678 160.217 139.598 159.911 139.598C159.606 139.598 159.304 139.678 159.006 139.837C158.715 139.99 158.454 140.275 158.223 140.694C158 141.112 157.817 141.691 157.676 142.429C157.542 143.16 157.474 144.1 157.474 145.249C157.474 146.406 157.542 147.35 157.676 148.081C157.817 148.811 158 149.39 158.223 149.816C158.454 150.235 158.715 150.524 159.006 150.684C159.304 150.836 159.606 150.912 159.911 150.912C160.217 150.912 160.519 150.836 160.817 150.684C161.115 150.524 161.379 150.235 161.61 149.816C161.849 149.39 162.039 148.811 162.181 148.081C162.322 147.35 162.393 146.406 162.393 145.249Z" fill="#157675"/>
<path d="M178.938 145.249C178.938 146.703 178.786 147.963 178.48 149.028C178.175 150.094 177.75 150.977 177.206 151.677C176.669 152.377 176.028 152.899 175.283 153.241C174.545 153.584 173.744 153.755 172.88 153.755C172.015 153.755 171.214 153.584 170.477 153.241C169.746 152.899 169.113 152.377 168.576 151.677C168.04 150.977 167.619 150.094 167.313 149.028C167.015 147.963 166.866 146.703 166.866 145.249C166.866 143.795 167.015 142.536 167.313 141.47C167.619 140.405 168.04 139.522 168.576 138.821C169.113 138.121 169.746 137.604 170.477 137.269C171.214 136.926 172.015 136.755 172.88 136.755C173.744 136.755 174.545 136.926 175.283 137.269C176.028 137.604 176.669 138.121 177.206 138.821C177.75 139.522 178.175 140.405 178.48 141.47C178.786 142.536 178.938 143.795 178.938 145.249ZM175.361 145.249C175.361 144.1 175.291 143.16 175.149 142.429C175.007 141.691 174.817 141.112 174.579 140.694C174.348 140.275 174.083 139.99 173.785 139.837C173.487 139.678 173.185 139.598 172.88 139.598C172.574 139.598 172.273 139.678 171.974 139.837C171.684 139.99 171.423 140.275 171.192 140.694C170.968 141.112 170.786 141.691 170.644 142.429C170.51 143.16 170.443 144.1 170.443 145.249C170.443 146.406 170.51 147.35 170.644 148.081C170.786 148.811 170.968 149.39 171.192 149.816C171.423 150.235 171.684 150.524 171.974 150.684C172.273 150.836 172.574 150.912 172.88 150.912C173.185 150.912 173.487 150.836 173.785 150.684C174.083 150.524 174.348 150.235 174.579 149.816C174.817 149.39 175.007 148.811 175.149 148.081C175.291 147.35 175.361 146.406 175.361 145.249Z" fill="#157675"/>
</svg>
