<svg width="238" height="188" viewBox="0 0 238 188" fill="none" xmlns="http://www.w3.org/2000/svg">
<path d="M26.6012 20C9.59145 20 9.57288 46.2236 26.6012 46.2236C43.6295 46.2236 43.6387 20 26.6012 20Z" fill="#84D4C6"/>
<path d="M36.9452 35.5724C36.0381 40.084 32.586 43.9947 26.5982 43.9947C12.4616 43.9947 12.4833 22.229 26.5982 22.229C26.6911 22.229 26.784 22.229 26.8769 22.229C13.5917 22.4976 13.6567 43.1119 27.1462 43.1119C32.6355 43.1119 35.9111 39.6611 36.9452 35.5724Z" fill="#154842"/>
<path d="M26.7035 25.0991C26.8156 25.0954 26.9246 25.1393 27.0073 25.2214C27.09 25.3036 27.1398 25.4174 27.1462 25.5388V26.2673C28.327 26.3528 29.4619 26.7959 30.4219 27.5462C30.589 27.6738 30.6788 27.7846 30.6788 27.9658C30.6701 28.0944 30.6153 28.2141 30.5262 28.2994C30.4371 28.3847 30.3208 28.4288 30.202 28.4224C30.0807 28.4268 29.9623 28.3812 29.8708 28.2948C29.0677 27.6325 28.1125 27.2215 27.1091 27.1065V32.2189C29.8955 32.803 31.0844 33.8437 31.0844 35.6328C31.0844 37.5697 29.4466 38.936 27.1462 39.0098V40.4331C27.137 40.5531 27.0865 40.6649 27.0047 40.7463C26.923 40.8278 26.8161 40.873 26.705 40.873C26.594 40.873 26.4871 40.8278 26.4053 40.7463C26.3236 40.6649 26.2731 40.5531 26.2639 40.4331V38.993C24.7454 38.8896 23.2958 38.2693 22.1213 37.2206C22.0604 37.1806 22.0097 37.1246 21.974 37.0577C21.9382 36.9908 21.9187 36.9152 21.917 36.838C21.9271 36.713 21.9801 36.5967 22.0656 36.5122C22.151 36.4276 22.2626 36.3809 22.3783 36.3814C22.4994 36.3786 22.6173 36.424 22.7096 36.509C23.7072 37.4738 24.9661 38.0626 26.2979 38.1874V32.9675C23.5362 32.3666 22.3969 31.3596 22.3969 29.5368C22.3969 27.7141 24.0161 26.2874 26.2608 26.2303V25.5388C26.2672 25.4174 26.317 25.3036 26.3997 25.2214C26.4824 25.1393 26.5914 25.0954 26.7035 25.0991ZM26.2979 32.0377V27.0494C24.5115 27.0863 23.335 28.1437 23.335 29.4596C23.335 30.705 23.9232 31.4704 26.2979 32.0377ZM27.106 33.1488V38.184C28.9636 38.1471 30.1432 37.0864 30.1432 35.7C30.1432 34.4345 29.4992 33.6792 27.106 33.1488Z" fill="#154842"/>
<path d="M213.968 59.0098C200.107 59.0098 200.086 80.3794 213.968 80.3794C227.851 80.3794 227.848 59.0098 213.968 59.0098Z" fill="#84D4C6"/>
<path d="M222.396 71.6953C221.656 75.3878 218.845 78.56 213.965 78.56C202.445 78.56 202.464 60.8225 213.965 60.8225C214.04 60.8225 214.117 60.8225 214.191 60.8225C203.355 61.0373 203.42 77.8316 214.405 77.8316C218.885 77.8417 221.554 75.032 222.396 71.6953Z" fill="#154842"/>
<path d="M214.048 63.1654C214.139 63.1626 214.227 63.1982 214.294 63.2646C214.361 63.331 214.402 63.423 214.407 63.5213V64.1188C215.37 64.1872 216.294 64.5478 217.076 65.1594C217.212 65.2635 217.287 65.3507 217.287 65.4951C217.28 65.5999 217.235 65.6974 217.162 65.7666C217.089 65.8357 216.993 65.8708 216.897 65.8643C216.798 65.8689 216.701 65.8316 216.627 65.7603C215.974 65.2221 215.196 64.8888 214.38 64.7969V68.9593C216.658 69.436 217.618 70.2853 217.618 71.7422C217.618 73.3199 216.284 74.4276 214.407 74.4948V75.6529C214.407 75.7561 214.37 75.8552 214.302 75.9282C214.235 76.0012 214.144 76.0423 214.048 76.0423C213.953 76.0423 213.862 76.0012 213.794 75.9282C213.727 75.8552 213.689 75.7561 213.689 75.6529V74.478C212.453 74.3918 211.272 73.887 210.314 73.0345C210.265 73.0017 210.224 72.9559 210.195 72.9013C210.167 72.8467 210.151 72.7852 210.15 72.7224C210.159 72.6212 210.202 72.5271 210.271 72.4587C210.341 72.3904 210.431 72.3527 210.525 72.3531C210.624 72.3482 210.721 72.3855 210.794 72.4572C211.612 73.2332 212.637 73.7039 213.72 73.7999V69.577C211.469 69.0869 210.54 68.2678 210.54 66.7808C210.54 65.2937 211.859 64.1322 213.689 64.0953V63.528C213.693 63.4285 213.733 63.3348 213.8 63.267C213.867 63.1992 213.957 63.1627 214.048 63.1654ZM213.72 68.8183V64.7566C212.265 64.7868 211.305 65.6495 211.305 66.7203C211.305 67.7307 211.785 68.3585 213.72 68.8183ZM214.38 69.7247V73.8301C215.878 73.7999 216.856 72.9372 216.856 71.816C216.853 70.7821 216.315 70.1577 214.38 69.7247Z" fill="#154842"/>
<path d="M187.915 112.857C172.599 115.834 176.642 140.437 191.983 137.452C207.324 134.468 203.253 109.873 187.915 112.857Z" fill="#154842"/>
<path d="M189.352 112.575C174.754 115.415 178.8 140.017 193.423 137.17C208.046 134.324 203.971 109.732 189.352 112.575Z" fill="#84D4C6"/>
<path d="M200.646 125.452C200.566 129.836 198.213 134.082 193.073 135.083C180.943 137.432 177.593 117.026 189.695 114.666C189.776 114.666 189.853 114.636 189.934 114.626C178.574 117.093 181.831 136.412 193.398 134.163C198.117 133.246 200.392 129.463 200.646 125.452Z" fill="#154842"/>
<path d="M192.265 117.348C192.366 117.363 192.457 117.419 192.52 117.506C192.583 117.592 192.613 117.702 192.602 117.812L192.528 118.503C193.555 118.721 194.498 119.268 195.234 120.074C195.295 120.123 195.344 120.187 195.375 120.262C195.406 120.336 195.42 120.419 195.414 120.5C195.397 120.616 195.34 120.721 195.254 120.792C195.168 120.863 195.06 120.894 194.952 120.88C194.899 120.874 194.847 120.858 194.8 120.831C194.753 120.804 194.711 120.767 194.677 120.722C194.067 120.014 193.279 119.517 192.41 119.292L191.884 124.129C194.246 124.992 195.16 126.106 194.98 127.801C194.779 129.631 193.222 130.745 191.221 130.561L191.076 131.904C191.069 131.958 191.051 132.011 191.025 132.058C190.999 132.106 190.965 132.147 190.924 132.18C190.883 132.213 190.837 132.237 190.787 132.251C190.738 132.264 190.687 132.267 190.636 132.259C190.586 132.251 190.537 132.233 190.494 132.205C190.45 132.176 190.412 132.139 190.381 132.095C190.351 132.05 190.329 132 190.316 131.947C190.304 131.893 190.301 131.837 190.308 131.783L190.457 130.42C189.133 130.143 187.933 129.391 187.051 128.285C187.001 128.238 186.963 128.178 186.939 128.112C186.916 128.045 186.907 127.973 186.915 127.902C186.926 127.817 186.959 127.737 187.011 127.672C187.062 127.607 187.13 127.56 187.206 127.536C187.283 127.512 187.363 127.513 187.439 127.538C187.515 127.563 187.582 127.611 187.633 127.677C188.376 128.678 189.411 129.373 190.568 129.648L191.107 124.733C188.779 123.857 187.893 122.783 188.082 121.041C188.271 119.299 189.816 118.144 191.766 118.355L191.838 117.684C191.857 117.58 191.912 117.488 191.991 117.426C192.07 117.364 192.168 117.336 192.265 117.348ZM191.203 123.867L191.714 119.151C190.166 118.99 189.036 119.863 188.903 121.105C188.76 122.263 189.206 123.055 191.203 123.85V123.867ZM191.788 125.012L191.271 129.769C192.869 129.94 194.014 129.067 194.157 127.754C194.287 126.556 193.807 125.761 191.788 124.995V125.012Z" fill="#154842"/>
<path d="M30.9568 130.547C17.3341 133.199 20.9317 155.076 34.5761 152.42C48.2204 149.765 44.598 127.895 30.9568 130.547Z" fill="#154842"/>
<path d="M32.2366 130.299C19.2548 132.827 22.8524 154.703 35.8559 152.172C48.8593 149.641 45.2369 127.771 32.2366 130.299Z" fill="#84D4C6"/>
<path d="M42.2767 141.753C42.2086 145.65 40.1095 149.426 35.5459 150.313C24.7561 152.414 21.7685 134.257 32.5427 132.159L32.7533 132.122C22.6508 134.317 25.5456 151.497 35.8493 149.497C40.0321 148.681 42.0538 145.318 42.2767 141.753Z" fill="#154842"/>
<path d="M34.8247 134.529C34.8701 134.534 34.9141 134.548 34.9542 134.572C34.9943 134.595 35.0297 134.627 35.0585 134.665C35.0872 134.704 35.1087 134.748 35.1218 134.795C35.1348 134.843 35.139 134.892 35.1343 134.942L35.0693 135.556C35.9821 135.75 36.8201 136.236 37.4749 136.952C37.5287 136.996 37.5715 137.054 37.5996 137.12C37.6277 137.186 37.6402 137.259 37.6359 137.332C37.6221 137.435 37.5711 137.529 37.4939 137.592C37.4168 137.654 37.3198 137.682 37.2242 137.667C37.1766 137.663 37.1303 137.649 37.0882 137.625C37.0461 137.6 37.0091 137.567 36.9796 137.526C36.4358 136.9 35.7354 136.459 34.964 136.257L34.4965 140.561C36.5988 141.326 37.4099 142.316 37.2458 143.824C37.0694 145.452 35.6978 146.442 33.9052 146.278L33.7752 147.476C33.7591 147.568 33.7114 147.651 33.6415 147.707C33.5717 147.763 33.4849 147.788 33.3986 147.777C33.3123 147.767 33.233 147.721 33.1765 147.65C33.1199 147.578 33.0905 147.486 33.094 147.392L33.2272 146.177C32.0514 145.927 30.9859 145.26 30.1992 144.28C30.1568 144.238 30.1239 144.186 30.103 144.128C30.082 144.069 30.0737 144.007 30.0785 143.945C30.0937 143.845 30.1429 143.755 30.2163 143.693C30.2897 143.631 30.3819 143.601 30.4748 143.609C30.5221 143.614 30.5681 143.629 30.6101 143.653C30.6521 143.677 30.6892 143.71 30.7194 143.75C31.3791 144.639 32.3004 145.257 33.3293 145.499L33.8061 141.135C31.7349 140.356 30.9485 139.399 31.1156 137.862C31.2828 136.325 32.6637 135.287 34.3913 135.462L34.4563 134.878C34.459 134.828 34.4708 134.78 34.4908 134.736C34.5109 134.692 34.5389 134.652 34.5732 134.62C34.6075 134.587 34.6473 134.562 34.6905 134.547C34.7337 134.531 34.7793 134.525 34.8247 134.529ZM33.8959 140.326L34.3355 136.147C32.9578 136.002 31.9547 136.778 31.8339 137.882C31.7225 138.916 32.1002 139.618 33.8804 140.326H33.8959ZM34.4191 141.333L33.9578 145.583C35.3789 145.734 36.3975 144.962 36.5245 143.793C36.6235 142.733 36.1963 142.024 34.4037 141.343L34.4191 141.333Z" fill="#154842"/>
<path d="M214.742 159.876C205.178 163.082 195.614 149.104 186.051 152.306C187.55 149.158 189.232 146.115 191.085 143.196C198.868 144.626 206.652 153.448 214.435 151.125L214.742 159.876Z" fill="#84D4C6"/>
<path d="M205.201 154.32C204.891 155.855 202.9 156.214 200.742 154.972C198.584 153.73 197.309 151.736 197.891 150.39C198.473 149.044 200.467 148.829 202.346 149.866C204.225 150.903 205.501 152.8 205.201 154.32Z" fill="#154842"/>
<path d="M195.544 149.02C195.389 149.329 194.819 149.379 194.274 149.161C193.729 148.943 193.423 148.533 193.596 148.214C193.77 147.896 194.339 147.802 194.866 148.03C195.392 148.258 195.699 148.711 195.544 149.02Z" fill="#154842"/>
<path d="M209.6 155.616C209.569 155.992 209.101 156.214 208.553 156.063C208.005 155.912 207.603 155.462 207.649 155.099C207.696 154.737 208.166 154.586 208.699 154.723C209.231 154.861 209.631 155.254 209.6 155.616Z" fill="#154842"/>
<path d="M191.791 143.337C190.012 146.14 188.386 149.055 186.921 152.065C186.627 152.13 186.337 152.212 186.051 152.31C187.549 149.159 189.229 146.115 191.082 143.196C191.317 143.233 191.546 143.283 191.791 143.337Z" fill="#154842"/>
<path d="M214.742 159.876C214.451 159.973 214.16 160.054 213.872 160.121C213.823 157.181 213.774 154.24 213.727 151.299C213.965 151.249 214.2 151.189 214.436 151.118L214.742 159.876Z" fill="#154842"/>
<path d="M214.72 159.326L214.739 159.876C205.178 163.082 195.614 149.104 186.051 152.31L186.36 151.638C195.819 148.856 205.271 162.471 214.72 159.326Z" fill="#154842"/>
<path d="M214.436 151.118L214.455 151.672C206.56 154.042 198.665 144.935 190.767 143.689L191.076 143.189C198.869 144.619 206.652 153.441 214.436 151.118Z" fill="#154842"/>
<path d="M189.125 151.273C188.489 151.264 187.854 151.322 187.228 151.444C187.455 150.996 187.681 150.549 187.906 150.101C188.924 150 189.472 150.611 189.125 151.273Z" fill="#154842"/>
<path d="M213.838 158.339L213.857 159.567C213.231 159.709 212.595 159.786 211.956 159.799C211.981 159.114 212.82 158.574 213.838 158.339Z" fill="#154842"/>
<path d="M212.148 152.055C212.681 152.034 213.212 151.967 213.736 151.853C213.736 152.263 213.751 152.672 213.758 153.082C212.854 153.267 212.132 152.733 212.148 152.055Z" fill="#154842"/>
<path d="M190.807 144.925C191.033 144.552 191.259 144.186 191.485 143.824C192.011 143.938 192.54 144.086 193.07 144.257C192.723 144.817 191.711 145.062 190.807 144.925Z" fill="#154842"/>
<path d="M202.188 150.514C202.281 150.564 202.343 150.655 202.325 150.712L202.269 150.89C202.704 151.15 203.098 151.483 203.436 151.877C203.492 151.941 203.52 151.988 203.507 152.035C203.495 152.082 203.393 152.102 203.294 152.051C203.247 152.028 203.206 151.993 203.173 151.951C202.891 151.609 202.56 151.318 202.195 151.088L201.814 152.323C202.885 153.082 203.287 153.582 203.173 154.029C203.058 154.475 202.281 154.492 201.315 153.975C201.278 154.089 201.244 154.207 201.207 154.311C201.191 154.368 201.089 154.368 200.99 154.311C200.891 154.254 200.82 154.16 200.839 154.103L200.95 153.767C200.363 153.409 199.839 152.942 199.402 152.387C199.359 152.33 199.34 152.29 199.352 152.25C199.365 152.209 199.482 152.192 199.582 152.25C199.629 152.275 199.671 152.31 199.705 152.354C200.076 152.849 200.53 153.263 201.043 153.575L201.442 152.327C200.39 151.568 200.024 151.075 200.182 150.648C200.34 150.222 201.083 150.235 201.941 150.695L201.996 150.527C202.006 150.47 202.099 150.467 202.188 150.514ZM201.507 152.102L201.888 150.917C201.201 150.544 200.65 150.538 200.547 150.85C200.445 151.162 200.612 151.441 201.507 152.102ZM201.746 152.552C201.619 152.958 201.495 153.364 201.368 153.767C202.133 154.183 202.696 154.19 202.786 153.844C202.876 153.498 202.665 153.21 201.746 152.552Z" fill="#84D4C6"/>
<path d="M157.075 57.2607C149.478 53.5682 141.88 63.9543 134.282 60.2517C134.87 58.298 135.461 56.2638 136.053 54.149C142.245 55.5118 148.419 48.9895 154.602 49.7851C155.428 52.1181 156.252 54.5988 157.075 57.2607Z" fill="#84D4C6"/>
<path d="M148.406 54.3036C148.583 55.4952 147.335 56.989 145.62 57.7678C143.904 58.5466 142.551 58.0297 142.598 56.7608C142.644 55.4919 143.889 53.988 145.384 53.32C146.88 52.652 148.23 53.1052 148.406 54.3036Z" fill="#154842"/>
<path d="M140.688 57.2172C140.66 57.5126 140.286 57.8483 139.852 57.9322C139.419 58.0162 139.1 57.8215 139.14 57.5294C139.18 57.2374 139.555 56.9487 139.976 56.8581C140.397 56.7674 140.716 56.9252 140.688 57.2172Z" fill="#154842"/>
<path d="M151.855 53.1488C151.927 53.4307 151.633 53.706 151.196 53.8201C150.759 53.9343 150.363 53.7966 150.304 53.5247C150.245 53.2528 150.543 52.9272 150.964 52.8265C151.385 52.7258 151.784 52.8701 151.855 53.1488Z" fill="#154842"/>
<path d="M136.614 54.2398C136.066 56.3982 135.518 58.503 134.97 60.5372C134.741 60.45 134.512 60.3492 134.279 60.2385C134.872 58.2848 135.463 56.2505 136.053 54.1357C136.239 54.176 136.437 54.2129 136.614 54.2398Z" fill="#154842"/>
<path d="M157.075 57.261C156.846 57.1502 156.614 57.0495 156.385 56.9623C155.601 54.4211 154.821 52.021 154.041 49.7283C154.227 49.7283 154.416 49.7551 154.601 49.7786C155.428 52.1183 156.252 54.599 157.075 57.261Z" fill="#154842"/>
<path d="M156.921 56.7507C156.97 56.9152 157.023 57.0864 157.076 57.2476C149.478 53.555 141.88 63.9411 134.279 60.2385C134.316 60.1143 134.357 59.9901 134.394 59.8692C141.902 63.3939 149.41 53.2798 156.921 56.7507Z" fill="#154842"/>
<path d="M154.601 49.7649L154.759 50.2114C148.487 49.2849 142.214 56.012 135.941 54.5316L136.053 54.1355C142.236 55.4984 148.419 48.9761 154.601 49.7649Z" fill="#154842"/>
<path d="M136.582 60.5338C136.07 60.4575 135.565 60.3294 135.074 60.1512C135.152 59.8692 135.226 59.5839 135.303 59.2952C136.127 59.5604 136.687 60.027 136.582 60.5338Z" fill="#154842"/>
<path d="M155.911 55.428C156.019 55.7637 156.127 56.1195 156.236 56.472C155.745 56.297 155.24 56.1722 154.728 56.0994C154.57 55.5824 155.1 55.183 155.911 55.428Z" fill="#154842"/>
<path d="M152.926 50.1442C153.345 50.1157 153.766 50.1157 154.186 50.1442L154.514 51.111C153.796 51.0271 153.084 50.6477 152.926 50.1442Z" fill="#154842"/>
<path d="M136.282 55.5423C136.36 55.2435 136.434 54.9448 136.511 54.646C136.928 54.7111 137.348 54.7448 137.768 54.7467C137.675 55.2637 137.001 55.6799 136.282 55.5423Z" fill="#154842"/>
<path d="M145.446 53.8403C145.517 53.8068 145.579 53.8403 145.582 53.8739V54.0249C145.906 53.8897 146.253 53.8313 146.6 53.8537C146.653 53.8537 146.684 53.8705 146.687 53.9075C146.69 53.9444 146.628 54.0317 146.548 54.0652C146.515 54.0824 146.479 54.0894 146.442 54.0854C146.151 54.0582 145.857 54.0994 145.582 54.2062C145.603 54.5654 145.622 54.9246 145.644 55.2804C146.538 55.0119 146.932 55.0689 146.969 55.4382C147.006 55.8074 146.495 56.3546 145.73 56.7037L145.749 57.0025C145.749 57.0528 145.687 57.1233 145.607 57.1602C145.526 57.1972 145.458 57.1837 145.455 57.1334C145.455 57.0327 145.455 56.9286 145.439 56.8279C145.006 57.0172 144.536 57.0897 144.071 57.0394C144.031 57.0394 144.006 57.0192 144.006 56.9857C144.006 56.9521 144.077 56.8581 144.154 56.8245C144.188 56.8072 144.226 56.8003 144.263 56.8044C144.662 56.862 145.068 56.8089 145.442 56.65L145.387 55.5523C144.511 55.8074 144.148 55.7436 144.148 55.3543C144.148 54.9649 144.631 54.4479 145.312 54.1357V53.988C145.312 53.941 145.371 53.8705 145.446 53.8403ZM145.396 55.3543C145.377 55.0186 145.362 54.656 145.343 54.3036C144.798 54.552 144.445 54.9313 144.452 55.2133C144.458 55.4952 144.647 55.5825 145.396 55.3543ZM145.665 55.4785L145.727 56.5359C146.328 56.264 146.703 55.8645 146.675 55.5859C146.647 55.3073 146.433 55.2468 145.665 55.4785Z" fill="#84D4C6"/>
<path d="M132.103 47.301C124.58 41.0976 114.118 46.9654 106.595 40.7485C107.972 38.9324 109.381 36.9855 110.812 34.9412C117.378 38.1671 125.49 35.0553 131.976 38.6068C132.044 41.4333 132.087 44.3314 132.103 47.301Z" fill="#84D4C6"/>
<path d="M123.789 40.5505C123.532 41.9336 121.693 42.954 119.662 42.9272C117.631 42.9003 116.421 41.6919 116.941 40.3189C117.461 38.946 119.3 37.9054 121.068 37.9289C122.836 37.9524 124.052 39.1575 123.789 40.5505Z" fill="#154842"/>
<path d="M114.764 39.9463C114.628 40.2552 114.111 40.4532 113.616 40.3592C113.12 40.2652 112.851 39.9262 112.996 39.6274C113.142 39.3287 113.656 39.1709 114.136 39.2548C114.616 39.3388 114.91 39.6375 114.764 39.9463Z" fill="#154842"/>
<path d="M127.802 40.9635C127.778 41.2992 127.363 41.4603 126.874 41.363C126.384 41.2656 126.007 40.9434 126.047 40.6178C126.087 40.2922 126.514 40.0874 126.991 40.178C127.468 40.2687 127.83 40.6312 127.802 40.9635Z" fill="#154842"/>
<path d="M111.421 35.2164C110.022 37.3312 108.635 39.3588 107.294 41.2789C107.062 41.111 106.833 40.9432 106.604 40.7485C107.978 38.9324 109.39 36.9855 110.82 34.9412C111.018 35.0385 111.217 35.1291 111.421 35.2164Z" fill="#154842"/>
<path d="M132.102 47.3012C131.873 47.1132 131.644 46.9387 131.412 46.7708C131.412 43.8839 131.401 41.0608 131.381 38.3015C131.579 38.3989 131.777 38.4996 131.975 38.607C132.043 41.4334 132.086 44.3315 132.102 47.3012Z" fill="#154842"/>
<path d="M132.103 46.7405C132.103 46.9285 132.103 47.1164 132.103 47.3011C124.58 41.0976 114.118 46.9654 106.595 40.7485L106.855 40.4128C114.338 46.3779 124.645 40.7351 132.103 46.7405Z" fill="#154842"/>
<path d="M131.984 38.607C131.984 38.7849 131.984 38.9628 131.984 39.1407C125.424 35.4482 117.173 38.701 110.538 35.324L110.807 34.938C117.387 38.1673 125.498 35.0555 131.984 38.607Z" fill="#154842"/>
<path d="M109.12 41.8394C108.578 41.5716 108.053 41.262 107.551 40.9129C107.74 40.6444 107.928 40.3758 108.117 40.1006C108.95 40.6377 109.418 41.3426 109.12 41.8394Z" fill="#154842"/>
<path d="M131.421 45.0319V46.2269C130.919 45.8768 130.395 45.566 129.852 45.2971C129.87 44.676 130.588 44.4813 131.421 45.0319Z" fill="#154842"/>
<path d="M130.034 38.2478C130.497 38.414 130.95 38.6067 131.394 38.8252C131.394 39.2101 131.394 39.5961 131.394 39.9833C130.647 39.5838 130.022 38.8587 130.034 38.2478Z" fill="#154842"/>
<path d="M110.575 36.4887L111.157 35.6125C111.605 35.8119 112.061 35.9856 112.526 36.1329C112.222 36.6498 111.34 36.8579 110.575 36.4887Z" fill="#154842"/>
<path d="M120.932 38.5399C121.019 38.5399 121.078 38.5903 121.062 38.6474L121.016 38.8219C121.401 38.8404 121.777 38.9553 122.115 39.1576C122.168 39.1878 122.195 39.2147 122.186 39.2583C122.177 39.3019 122.078 39.3624 121.985 39.3624C121.946 39.3623 121.907 39.3507 121.873 39.3288C121.589 39.1523 121.272 39.049 120.945 39.0267L120.61 40.2318C121.62 40.3896 122.004 40.6514 121.904 41.0743C121.805 41.4973 121.087 41.8196 120.186 41.8196L120.093 42.1552C120.093 42.2123 119.985 42.2593 119.889 42.256C119.793 42.2526 119.728 42.2056 119.746 42.1485C119.777 42.0344 119.808 41.9236 119.842 41.8129C119.323 41.7976 118.815 41.6406 118.366 41.3563C118.325 41.3295 118.307 41.3026 118.319 41.2657C118.332 41.2288 118.44 41.1616 118.53 41.1616C118.571 41.1614 118.612 41.173 118.647 41.1952C119.026 41.4555 119.462 41.6016 119.911 41.6182C120.028 41.2086 120.146 40.7991 120.26 40.3896C119.27 40.2284 118.923 39.98 119.062 39.5503C119.202 39.1207 119.892 38.7984 120.7 38.7984L120.747 38.6339C120.767 38.6019 120.795 38.5764 120.828 38.5598C120.86 38.5433 120.896 38.5365 120.932 38.5399ZM120.313 40.1781L120.647 38.9998C120 38.9998 119.496 39.2382 119.409 39.547C119.322 39.8558 119.48 40.027 120.338 40.1781H120.313ZM120.542 40.4466C120.431 40.8427 120.322 41.2388 120.211 41.6349C120.929 41.6349 121.449 41.4033 121.533 41.0743C121.617 40.7454 121.421 40.5876 120.555 40.4466H120.542Z" fill="#84D4C6"/>
<path d="M55.9215 86.1296C48.3981 79.9262 37.9365 85.7771 30.4131 79.577C31.7908 77.7576 33.1995 75.814 34.6299 73.7664C41.1966 76.9923 49.3083 73.8838 55.7945 77.4354C55.8564 80.2686 55.8988 83.1666 55.9215 86.1296Z" fill="#84D4C6"/>
<path d="M47.5958 79.3892C47.3419 80.7722 45.5029 81.7927 43.4718 81.7658C41.4408 81.739 40.2303 80.5305 40.7504 79.1575C41.2705 77.7846 43.1096 76.744 44.8774 76.7675C46.6453 76.791 47.8559 77.9961 47.5958 79.3892Z" fill="#154842"/>
<path d="M38.5797 78.785C38.4434 79.0938 37.9264 79.2919 37.431 79.1979C36.9357 79.1039 36.6663 78.7648 36.8118 78.4661C36.9573 78.1673 37.4713 78.0095 37.9512 78.0935C38.4311 78.1774 38.719 78.4761 38.5797 78.785Z" fill="#154842"/>
<path d="M51.6051 79.8019C51.5803 80.1376 51.1654 80.2987 50.6763 80.2014C50.1871 80.104 49.8094 79.7818 49.8496 79.4562C49.8899 79.1305 50.3171 78.9258 50.7784 79.0164C51.2397 79.107 51.6391 79.4696 51.6051 79.8019Z" fill="#154842"/>
<path d="M35.2305 74.045C33.8311 76.1565 32.4441 78.1874 31.1035 80.1075C30.8713 79.9396 30.6422 79.7718 30.4131 79.5738C31.7877 77.7577 33.1995 75.8141 34.6299 73.7698C34.8281 73.8772 35.0262 73.9678 35.2305 74.045Z" fill="#154842"/>
<path d="M55.9206 86.1296C55.6915 85.9416 55.4624 85.767 55.2302 85.5992C55.2302 82.7123 55.2199 79.8892 55.1992 77.1299C55.3974 77.2272 55.5955 77.3279 55.7937 77.4354C55.8556 80.2685 55.8979 83.1666 55.9206 86.1296Z" fill="#154842"/>
<path d="M55.9176 85.579C55.9176 85.767 55.9176 85.9517 55.9176 86.1396C48.3942 79.9362 37.9326 85.7872 30.4092 79.5837L30.6692 79.248C38.1462 85.2165 48.453 79.5737 55.9176 85.579Z" fill="#154842"/>
<path d="M55.794 77.4456C55.794 77.6235 55.794 77.8015 55.794 77.9794C49.2335 74.2869 40.9825 77.5396 34.3477 74.1627L34.617 73.7766C41.1961 77.0025 49.3078 73.8941 55.794 77.4456Z" fill="#154842"/>
<path d="M32.9301 80.6747C32.3865 80.4093 31.8619 80.1008 31.3604 79.7516C31.5492 79.483 31.7381 79.2145 31.9269 78.9392C32.7598 79.4763 33.2273 80.1812 32.9301 80.6747Z" fill="#154842"/>
<path d="M55.2299 83.8671V85.0655C54.7277 84.7154 54.2032 84.4047 53.6602 84.1357C53.6787 83.5146 54.3908 83.3199 55.2299 83.8671Z" fill="#154842"/>
<path d="M53.8439 77.0864C54.3066 77.2511 54.7604 77.4439 55.2031 77.6638C55.2031 78.0465 55.2031 78.4325 55.2031 78.8219C54.4569 78.409 53.8315 77.6974 53.8439 77.0864Z" fill="#154842"/>
<path d="M34.3848 75.3239L34.9668 74.4512C35.4142 74.6505 35.871 74.8242 36.3353 74.9715C36.0319 75.4884 35.1464 75.6966 34.3848 75.3239Z" fill="#154842"/>
<path d="M44.7411 77.3785C44.8278 77.3785 44.8867 77.4288 44.8712 77.4859L44.8247 77.6571C45.2096 77.6789 45.5851 77.7935 45.9238 77.9928C45.9765 78.0263 46.0043 78.0532 45.995 78.0968C45.9857 78.1405 45.8867 78.2009 45.7938 78.2009C45.7545 78.2009 45.716 78.1892 45.6823 78.1673C45.3978 77.9913 45.0803 77.8869 44.7535 77.8618L44.4222 79.0804C45.4316 79.2381 45.8155 79.5 45.7164 79.9229C45.6173 80.3459 44.8959 80.6849 43.995 80.6849L43.9021 81.0206C43.8866 81.0777 43.7937 81.1247 43.6978 81.1213C43.6018 81.118 43.5368 81.071 43.5553 81.0139C43.5863 80.8998 43.6173 80.789 43.6513 80.6782C43.1315 80.6629 42.6236 80.5059 42.1745 80.2217C42.1343 80.1948 42.1126 80.168 42.1281 80.1311C42.1515 80.095 42.1833 80.0664 42.2203 80.0481C42.2573 80.0298 42.2981 80.0225 42.3386 80.027C42.3799 80.0268 42.4204 80.0384 42.4562 80.0606C42.8351 80.3209 43.2712 80.4669 43.7194 80.4835C43.8371 80.074 43.9547 79.6645 44.0693 79.2549C43.0786 79.0938 42.7318 78.8454 42.8711 78.4124C43.0104 77.9793 43.7009 77.6638 44.5089 77.6638L44.5554 77.4993C44.5728 77.4623 44.5994 77.4314 44.6323 77.41C44.6651 77.3886 44.7028 77.3777 44.7411 77.3785ZM44.1219 79.0132C44.2334 78.6238 44.3479 78.2311 44.4594 77.8383C43.8123 77.8383 43.3077 78.0733 43.221 78.3855C43.1343 78.6977 43.2891 78.8655 44.1312 79.0132H44.1219ZM44.3541 79.2851C44.2427 79.6812 44.1343 80.0774 44.0229 80.4735C44.7411 80.4735 45.2613 80.2418 45.3449 79.9129C45.4285 79.5839 45.2303 79.4161 44.3634 79.2851H44.3541Z" fill="#84D4C6"/>
<path d="M21.3193 168.832L45.7658 168.752L70.2091 168.721L119.102 168.664L167.992 168.721L192.438 168.752L216.885 168.832L192.438 168.913L167.992 168.943L119.102 169L70.2091 168.943L45.7658 168.913L21.3193 168.832Z" fill="#082B27"/>
<path d="M214.845 105.411H208.609L164.144 105.428H157.908L164.141 97.6501V65.7233C164.14 63.1316 164.61 60.5652 165.524 58.1705C166.438 55.7759 167.778 53.5998 169.467 51.7666C171.157 49.9335 173.163 48.4791 175.371 47.4865C177.579 46.4939 179.946 45.9826 182.336 45.9817H190.386C192.776 45.9804 195.144 46.4898 197.353 47.4808C199.562 48.4718 201.569 49.925 203.26 51.7573C204.951 53.5897 206.292 55.7654 207.208 58.1599C208.123 60.5545 208.594 63.1212 208.594 65.7132V97.6367L214.845 105.411Z" fill="#126057"/>
<path opacity="0.1" d="M214.845 105.408H208.609H164.144H157.905L164.138 97.6266C173.181 101.631 192.81 100.9 200.095 83.6152C205.47 70.8592 202.634 51.0002 193.237 46.1965C197.518 46.9304 201.417 49.2967 204.232 52.8695C207.047 56.4424 208.594 60.9872 208.594 65.6863V97.6099L214.845 105.408Z" fill="black"/>
<path d="M193.237 44.968H179.479V46.5491H193.237V44.968Z" fill="#126057"/>
<path d="M193.237 42.363H179.479V43.9441H193.237V42.363Z" fill="#126057"/>
<path d="M196.817 32.645L191.309 41.3325L181.401 41.3392L175.896 32.6517L196.817 32.645Z" fill="#126057"/>
<path d="M187.754 70.9702V62.3599C189.393 62.6006 190.948 63.2942 192.268 64.374C192.484 64.5802 192.764 64.6884 193.051 64.6761C193.195 64.6834 193.339 64.6597 193.475 64.6066C193.61 64.5534 193.735 64.4718 193.841 64.3664C193.948 64.261 194.034 64.1339 194.095 63.9924C194.156 63.8508 194.191 63.6976 194.197 63.5415C194.188 63.3328 194.129 63.1302 194.026 62.9536C193.923 62.7771 193.779 62.6326 193.609 62.5345C191.906 61.2077 189.905 60.4019 187.816 60.2015V59.1676C187.816 58.856 187.702 58.5571 187.499 58.3368C187.295 58.1165 187.02 57.9927 186.732 57.9927C186.445 57.9927 186.169 58.1165 185.966 58.3368C185.763 58.5571 185.649 58.856 185.649 59.1676V60.1176C181.587 60.329 178.67 62.9339 178.673 66.3915C178.673 69.7852 180.776 71.7289 185.708 72.8433V81.6282C183.484 81.3606 181.391 80.3533 179.717 78.7446C179.496 78.5408 179.214 78.4331 178.924 78.4425C178.64 78.4428 178.367 78.5602 178.16 78.7709C177.953 78.9816 177.828 79.2699 177.81 79.5771C177.811 79.7626 177.855 79.9447 177.937 80.1074C178.019 80.2702 178.137 80.4085 178.28 80.5103C180.378 82.3843 182.955 83.5171 185.664 83.7564V86.0659C185.664 86.3775 185.778 86.6763 185.982 86.8967C186.185 87.117 186.46 87.2408 186.748 87.2408C187.035 87.2408 187.311 87.117 187.514 86.8967C187.717 86.6763 187.831 86.3775 187.831 86.0659V83.7967C192.033 83.5617 194.952 80.9602 194.952 77.3986C194.925 74.0451 192.717 72.0511 187.754 70.9702ZM185.708 70.507C181.735 69.4999 180.937 68.1807 180.937 66.2538C180.937 64.0618 182.927 62.4036 185.705 62.2256L185.708 70.507ZM187.757 81.6886V73.2965C191.85 74.2633 192.664 75.5892 192.668 77.5328C192.664 79.8457 190.664 81.5275 187.757 81.6886Z" fill="#37D2D0"/>
<path d="M159.209 105.461H185.169V99.2412H159.209V105.461Z" fill="#37D2D0"/>
<g opacity="0.1">
<path d="M184.116 99.8086C184.328 101.46 184.328 103.135 184.116 104.787C183.903 103.135 183.903 101.46 184.116 99.8086Z" fill="black"/>
<path d="M182.166 99.8086C182.38 101.46 182.38 103.135 182.166 104.787C181.954 103.135 181.954 101.46 182.166 99.8086Z" fill="black"/>
<path d="M181.222 99.8086C181.435 101.46 181.435 103.135 181.222 104.787C181.009 103.135 181.009 101.46 181.222 99.8086Z" fill="black"/>
<path d="M176.039 99.8086C176.251 101.46 176.251 103.135 176.039 104.787C175.824 103.136 175.824 101.46 176.039 99.8086Z" fill="black"/>
<path d="M174.633 99.8086C174.846 101.46 174.846 103.135 174.633 104.787C174.421 103.135 174.421 101.46 174.633 99.8086Z" fill="black"/>
<path d="M168.835 99.8086C169.048 101.46 169.048 103.135 168.835 104.787C168.623 103.135 168.623 101.46 168.835 99.8086Z" fill="black"/>
<path d="M167.494 99.8086C167.708 101.46 167.708 103.135 167.494 104.787C167.282 103.135 167.282 101.46 167.494 99.8086Z" fill="black"/>
<path d="M165.032 99.8086C165.247 101.46 165.247 103.136 165.032 104.787C164.82 103.135 164.82 101.46 165.032 99.8086Z" fill="black"/>
<path d="M169.955 99.8086C170.167 101.46 170.167 103.135 169.955 104.787C169.743 103.135 169.743 101.46 169.955 99.8086Z" fill="black"/>
<path d="M179.51 99.8086C179.722 101.46 179.722 103.135 179.51 104.787C179.296 103.135 179.296 101.46 179.51 99.8086Z" fill="black"/>
<path d="M172.788 99.8086C173.002 101.46 173.002 103.135 172.788 104.787C172.576 103.135 172.576 101.46 172.788 99.8086Z" fill="black"/>
<path d="M171.822 99.8086C172.036 101.46 172.036 103.135 171.822 104.787C171.61 103.135 171.61 101.46 171.822 99.8086Z" fill="black"/>
<path d="M161.825 99.8086C162.038 101.46 162.038 103.135 161.825 104.787C161.61 103.136 161.61 101.46 161.825 99.8086Z" fill="black"/>
<path d="M160.376 99.8086C160.589 101.46 160.589 103.135 160.376 104.787C160.164 103.135 160.164 101.46 160.376 99.8086Z" fill="black"/>
<path d="M163.893 99.8086C164.105 101.46 164.105 103.135 163.893 104.787C163.678 103.136 163.678 101.46 163.893 99.8086Z" fill="black"/>
<path d="M177.157 99.8086C177.371 101.46 177.371 103.135 177.157 104.787C176.945 103.135 176.945 101.46 177.157 99.8086Z" fill="black"/>
</g>
<path opacity="0.1" d="M159.212 99.2412V100.56L185.169 101.45V99.2412H159.212Z" fill="black"/>
<path d="M160.982 99.238H186.942V93.0178H160.982V99.238Z" fill="#37D2D0"/>
<g opacity="0.1">
<path d="M185.876 93.5918C186.089 95.242 186.089 96.9164 185.876 98.5666C185.664 96.9163 185.664 95.2421 185.876 93.5918Z" fill="black"/>
<path d="M183.943 93.5918C184.155 95.2421 184.155 96.9163 183.943 98.5666C183.73 96.9164 183.73 95.242 183.943 93.5918Z" fill="black"/>
<path d="M182.999 93.5918C183.211 95.2421 183.211 96.9163 182.999 98.5666C182.785 96.9164 182.785 95.242 182.999 93.5918Z" fill="black"/>
<path d="M177.813 93.5918C178.025 95.2421 178.025 96.9163 177.813 98.5666C177.601 96.9163 177.601 95.2421 177.813 93.5918Z" fill="black"/>
<path d="M176.41 93.5918C176.622 95.2421 176.622 96.9163 176.41 98.5666C176.197 96.9164 176.197 95.242 176.41 93.5918Z" fill="black"/>
<path d="M170.612 93.5918C170.824 95.2421 170.824 96.9163 170.612 98.5666C170.399 96.9164 170.399 95.242 170.612 93.5918Z" fill="black"/>
<path d="M169.272 93.5918C169.484 95.2421 169.484 96.9163 169.272 98.5666C169.058 96.9164 169.058 95.242 169.272 93.5918Z" fill="black"/>
<path d="M166.81 93.5918C167.022 95.2421 167.022 96.9163 166.81 98.5666C166.596 96.9164 166.596 95.242 166.81 93.5918Z" fill="black"/>
<path d="M171.732 93.5918C171.946 95.242 171.946 96.9164 171.732 98.5666C171.52 96.9163 171.52 95.2421 171.732 93.5918Z" fill="black"/>
<path d="M181.284 93.5918C181.498 95.242 181.498 96.9164 181.284 98.5666C181.072 96.9163 181.072 95.2421 181.284 93.5918Z" fill="black"/>
<path d="M174.565 93.5918C174.778 95.2421 174.778 96.9163 174.565 98.5666C174.352 96.9164 174.352 95.242 174.565 93.5918Z" fill="black"/>
<path d="M173.59 93.5918C173.802 95.2421 173.802 96.9163 173.59 98.5666C173.376 96.9164 173.376 95.242 173.59 93.5918Z" fill="black"/>
<path d="M163.603 93.5918C163.815 95.2421 163.815 96.9163 163.603 98.5666C163.389 96.9164 163.389 95.242 163.603 93.5918Z" fill="black"/>
<path d="M162.153 93.5918C162.365 95.2421 162.365 96.9163 162.153 98.5666C161.94 96.9164 161.94 95.242 162.153 93.5918Z" fill="black"/>
<path d="M165.668 93.5918C165.88 95.2421 165.88 96.9163 165.668 98.5666C165.456 96.9163 165.456 95.2421 165.668 93.5918Z" fill="black"/>
<path d="M178.935 93.5918C179.147 95.2421 179.147 96.9163 178.935 98.5666C178.721 96.9164 178.721 95.242 178.935 93.5918Z" fill="black"/>
</g>
<path opacity="0.1" d="M160.985 93.021V94.3436L186.946 95.2298V93.021H160.985Z" fill="black"/>
<path d="M160.791 80.6311H186.751V74.4109H160.791V80.6311Z" fill="#37D2D0"/>
<g opacity="0.1">
<path d="M185.683 74.9817C185.895 76.6331 185.895 78.3084 185.683 79.9599C185.469 78.3086 185.469 76.633 185.683 74.9817Z" fill="black"/>
<path d="M183.748 74.9817C183.962 76.633 183.962 78.3086 183.748 79.9599C183.536 78.3084 183.536 76.6331 183.748 74.9817Z" fill="black"/>
<path d="M182.805 74.9817C183.018 76.633 183.018 78.3086 182.805 79.9599C182.592 78.3084 182.592 76.6331 182.805 74.9817Z" fill="black"/>
<path d="M177.615 74.9817C177.829 76.633 177.829 78.3086 177.615 79.9599C177.403 78.3084 177.403 76.6331 177.615 74.9817Z" fill="black"/>
<path d="M176.215 74.9817C176.428 76.633 176.428 78.3086 176.215 79.9599C176.003 78.3084 176.003 76.6331 176.215 74.9817Z" fill="black"/>
<path d="M170.417 74.9817C170.63 76.633 170.63 78.3086 170.417 79.9599C170.205 78.3084 170.205 76.6331 170.417 74.9817Z" fill="black"/>
<path d="M169.076 74.9817C169.29 76.633 169.29 78.3086 169.076 79.9599C168.864 78.3084 168.864 76.6331 169.076 74.9817Z" fill="black"/>
<path d="M166.614 74.9817C166.828 76.633 166.828 78.3086 166.614 79.9599C166.402 78.3084 166.402 76.6331 166.614 74.9817Z" fill="black"/>
<path d="M171.537 74.9817C171.749 76.6331 171.749 78.3084 171.537 79.9599C171.324 78.3086 171.324 76.633 171.537 74.9817Z" fill="black"/>
<path d="M181.092 74.9817C181.304 76.6331 181.304 78.3084 181.092 79.9599C180.878 78.3086 180.878 76.633 181.092 74.9817Z" fill="black"/>
<path d="M174.37 74.9817C174.584 76.633 174.584 78.3086 174.37 79.9599C174.158 78.3084 174.158 76.6331 174.37 74.9817Z" fill="black"/>
<path d="M173.404 74.9817C173.618 76.633 173.618 78.3086 173.404 79.9599C173.192 78.3084 173.192 76.6331 173.404 74.9817Z" fill="black"/>
<path d="M163.407 74.9817C163.621 76.633 163.621 78.3086 163.407 79.9599C163.195 78.3084 163.195 76.6331 163.407 74.9817Z" fill="black"/>
<path d="M161.958 74.9817C162.172 76.633 162.172 78.3086 161.958 79.9599C161.746 78.3084 161.746 76.6331 161.958 74.9817Z" fill="black"/>
<path d="M165.472 74.9817C165.685 76.633 165.685 78.3086 165.472 79.9599C165.259 78.3084 165.259 76.6331 165.472 74.9817Z" fill="black"/>
<path d="M178.739 74.9817C178.953 76.633 178.953 78.3086 178.739 79.9599C178.527 78.3084 178.527 76.6331 178.739 74.9817Z" fill="black"/>
</g>
<path opacity="0.1" d="M160.794 74.4143V75.7335L186.751 76.6231V74.4143H160.794Z" fill="black"/>
<path d="M163.178 86.8547H189.139V80.6345H163.178V86.8547Z" fill="#37D2D0"/>
<g opacity="0.1">
<path d="M188.067 81.2017C188.281 82.853 188.281 84.5285 188.067 86.1798C187.855 84.5284 187.855 82.8531 188.067 81.2017Z" fill="black"/>
<path d="M186.135 81.2017C186.347 82.8531 186.347 84.5284 186.135 86.1798C185.921 84.5285 185.921 82.853 186.135 81.2017Z" fill="black"/>
<path d="M185.19 81.2017C185.403 82.8531 185.403 84.5284 185.19 86.1798C184.977 84.5285 184.977 82.853 185.19 81.2017Z" fill="black"/>
<path d="M180.005 81.2017C180.218 82.853 180.218 84.5285 180.005 86.1798C179.793 84.5284 179.793 82.8531 180.005 81.2017Z" fill="black"/>
<path d="M178.602 81.2017C178.814 82.8531 178.814 84.5284 178.602 86.1798C178.388 84.5285 178.388 82.853 178.602 81.2017Z" fill="black"/>
<path d="M172.804 81.2017C173.016 82.8531 173.016 84.5284 172.804 86.1798C172.59 84.5285 172.59 82.853 172.804 81.2017Z" fill="black"/>
<path d="M171.463 81.2017C171.675 82.8531 171.675 84.5284 171.463 86.1798C171.249 84.5285 171.249 82.853 171.463 81.2017Z" fill="black"/>
<path d="M169.001 81.2017C169.214 82.853 169.214 84.5285 169.001 86.1798C168.789 84.5284 168.789 82.8531 169.001 81.2017Z" fill="black"/>
<path d="M173.924 81.2017C174.136 82.8531 174.136 84.5284 173.924 86.1798C173.71 84.5285 173.71 82.853 173.924 81.2017Z" fill="black"/>
<path d="M183.475 81.2017C183.689 82.853 183.689 84.5285 183.475 86.1798C183.263 84.5284 183.263 82.8531 183.475 81.2017Z" fill="black"/>
<path d="M176.757 81.2017C176.969 82.8531 176.969 84.5284 176.757 86.1798C176.543 84.5285 176.543 82.853 176.757 81.2017Z" fill="black"/>
<path d="M175.791 81.2017C176.003 82.8531 176.003 84.5284 175.791 86.1798C175.577 84.5285 175.577 82.853 175.791 81.2017Z" fill="black"/>
<path d="M165.794 81.2017C166.007 82.853 166.007 84.5285 165.794 86.1798C165.582 84.5284 165.582 82.8531 165.794 81.2017Z" fill="black"/>
<path d="M164.345 81.2017C164.557 82.8531 164.557 84.5284 164.345 86.1798C164.131 84.5285 164.131 82.853 164.345 81.2017Z" fill="black"/>
<path d="M167.859 81.2017C168.073 82.853 168.073 84.5285 167.859 86.1798C167.647 84.5284 167.647 82.8531 167.859 81.2017Z" fill="black"/>
<path d="M181.126 81.2017C181.338 82.8531 181.338 84.5284 181.126 86.1798C180.912 84.5285 180.912 82.853 181.126 81.2017Z" fill="black"/>
</g>
<path opacity="0.1" d="M163.178 80.6345V81.9538L189.138 82.8433V80.6345H163.178Z" fill="black"/>
<path d="M159.209 93.0715H185.169V86.8513H159.209V93.0715Z" fill="#37D2D0"/>
<g opacity="0.1">
<path d="M160.376 92.3969C160.164 90.7466 160.164 89.0724 160.376 87.4221C160.589 89.0723 160.589 90.7468 160.376 92.3969Z" fill="black"/>
<path d="M162.311 92.3969C162.097 90.7468 162.097 89.0723 162.311 87.4221C162.524 89.0723 162.524 90.7468 162.311 92.3969Z" fill="black"/>
<path d="M163.255 92.3969C163.041 90.7468 163.041 89.0723 163.255 87.4221C163.467 89.0724 163.467 90.7466 163.255 92.3969Z" fill="black"/>
<path d="M168.438 92.3969C168.226 90.7466 168.226 89.0724 168.438 87.4221C168.652 89.0723 168.652 90.7468 168.438 92.3969Z" fill="black"/>
<path d="M169.841 92.3969C169.629 90.7466 169.629 89.0724 169.841 87.4221C170.054 89.0723 170.054 90.7468 169.841 92.3969Z" fill="black"/>
<path d="M175.643 92.3969C175.429 90.7468 175.429 89.0723 175.643 87.4221C175.855 89.0724 175.855 90.7466 175.643 92.3969Z" fill="black"/>
<path d="M176.996 92.3969C176.783 90.7468 176.783 89.0723 176.996 87.4221C177.208 89.0724 177.208 90.7466 176.996 92.3969Z" fill="black"/>
<path d="M179.441 92.3969C179.229 90.7466 179.229 89.0724 179.441 87.4221C179.655 89.0723 179.655 90.7468 179.441 92.3969Z" fill="black"/>
<path d="M174.519 92.3969C174.305 90.7468 174.305 89.0723 174.519 87.4221C174.731 89.0724 174.731 90.7466 174.519 92.3969Z" fill="black"/>
<path d="M164.968 92.3969C164.756 90.7466 164.756 89.0724 164.968 87.4221C165.181 89.0723 165.181 90.7468 164.968 92.3969Z" fill="black"/>
<path d="M171.685 92.3969C171.473 90.7466 171.473 89.0724 171.685 87.4221C171.899 89.0723 171.899 90.7468 171.685 92.3969Z" fill="black"/>
<path d="M172.661 92.3969C172.448 90.7468 172.448 89.0723 172.661 87.4221C172.873 89.0724 172.873 90.7466 172.661 92.3969Z" fill="black"/>
<path d="M182.649 92.3969C182.437 90.7466 182.437 89.0724 182.649 87.4221C182.863 89.0723 182.863 90.7468 182.649 92.3969Z" fill="black"/>
<path d="M184.116 92.3969C183.903 90.7468 183.903 89.0723 184.116 87.4221C184.328 89.0724 184.328 90.7466 184.116 92.3969Z" fill="black"/>
<path d="M180.584 92.3969C180.372 90.7466 180.372 89.0724 180.584 87.4221C180.797 89.0723 180.797 90.7468 180.584 92.3969Z" fill="black"/>
<path d="M167.317 92.3969C167.105 90.7466 167.105 89.0724 167.317 87.4221C167.531 89.0723 167.531 90.7468 167.317 92.3969Z" fill="black"/>
</g>
<path opacity="0.1" d="M159.212 86.8513V88.1739L185.169 89.0635V86.8513H159.212Z" fill="black"/>
<path d="M159.038 77.7374C176.128 81.0607 171.614 108.51 154.496 105.18C137.378 101.85 141.908 74.4074 159.038 77.7374Z" fill="#37D2D0"/>
<path opacity="0.1" d="M159.038 77.7374C176.128 81.0607 171.614 108.51 154.496 105.18C137.378 101.85 141.908 74.4074 159.038 77.7374Z" fill="black"/>
<path d="M157.419 77.4252C173.704 80.594 169.184 108.04 152.877 104.867C136.57 101.695 141.106 74.2529 157.419 77.4252Z" fill="#37D2D0"/>
<path opacity="0.1" d="M144.818 91.7924C144.905 96.6833 147.531 101.42 153.264 102.534C166.8 105.169 170.55 82.3933 157.035 79.7582L156.769 79.7112C169.441 82.4638 165.81 104.021 152.902 101.51C147.639 100.487 145.106 96.2671 144.818 91.7924Z" fill="black"/>
<g opacity="0.2">
<path d="M167.605 90.7789L144.509 98.9461C143.885 97.8316 143.418 96.622 143.125 95.3577L163.249 80.1948C166.246 82.8132 167.627 86.7776 167.605 90.7789Z" fill="white"/>
<path d="M167.209 94.3706C166.951 95.5766 166.563 96.7452 166.051 97.8516L146.629 101.712C146.292 101.388 145.974 101.04 145.679 100.671L167.209 94.3706Z" fill="white"/>
<path d="M159.329 77.939L142.896 88.9461C143 88.2711 143.144 87.604 143.326 86.9488L155.518 77.1904C156.156 77.2245 156.791 77.303 157.419 77.4254C158.066 77.5494 158.704 77.721 159.329 77.939Z" fill="white"/>
</g>
<g opacity="0.1">
<path d="M156.159 82.5578C156.266 82.5902 156.358 82.666 156.416 82.7696C156.473 82.8733 156.492 82.9969 156.468 83.1151L156.31 83.8737C157.425 84.2468 158.411 84.9742 159.14 85.9617C159.203 86.0232 159.25 86.1012 159.277 86.1882C159.304 86.2752 159.31 86.3682 159.295 86.4585C159.265 86.5855 159.19 86.6946 159.086 86.7619C158.982 86.8292 158.858 86.8492 158.741 86.8177C158.682 86.807 158.627 86.783 158.577 86.7471C158.528 86.7112 158.487 86.6643 158.456 86.6095C157.854 85.7479 157.033 85.0966 156.094 84.7364L155.013 90.0335C157.539 91.2923 158.419 92.6451 158.044 94.5015C157.623 96.5156 155.775 97.5461 153.576 97.0862L153.267 98.5599C153.241 98.68 153.173 98.7843 153.076 98.8502C152.98 98.9162 152.864 98.9385 152.753 98.9123C152.646 98.8793 152.554 98.8033 152.497 98.6999C152.439 98.5965 152.42 98.4732 152.443 98.3551L152.753 96.858C151.316 96.3817 150.069 95.3957 149.211 94.0584C149.144 93.9828 149.101 93.8858 149.089 93.7816C149.076 93.6774 149.096 93.5718 149.143 93.4804C149.191 93.389 149.265 93.3168 149.353 93.2746C149.442 93.2323 149.541 93.2223 149.635 93.246C149.753 93.2724 149.857 93.3484 149.923 93.4575C150.638 94.6628 151.712 95.5657 152.967 96.0154L154.093 90.621C151.617 89.3521 150.744 88.0463 151.137 86.153C151.53 84.2598 153.378 83.1621 155.521 83.6287L155.672 82.9103C155.698 82.7964 155.762 82.697 155.852 82.6318C155.942 82.5666 156.052 82.5402 156.159 82.5578ZM154.27 89.6575L155.35 84.488C153.648 84.112 152.301 84.9345 152.016 86.2973C151.747 87.583 152.14 88.5162 154.27 89.6575ZM154.796 91.0003L153.703 96.2235C155.456 96.6163 156.821 95.7972 157.109 94.3571C157.394 93.0513 156.951 92.108 154.796 91.0003Z" fill="black"/>
</g>
<path d="M186.809 75.1762L187.41 73.9812L188.014 75.1762L189.116 75.8275L188.014 76.482L187.41 77.6771L186.809 76.482L185.707 75.8275L186.809 75.1762Z" fill="white"/>
<path d="M207.931 53.0179L208.535 51.8262L209.136 53.0179L210.238 53.6724L209.136 54.327L208.535 55.5221L207.931 54.327L206.829 53.6724L207.931 53.0179Z" fill="white"/>
<path d="M144.982 89.4394L145.583 88.2444L146.186 89.4394L147.289 90.0906L146.186 90.7452L145.583 91.9403L144.982 90.7452L143.88 90.0906L144.982 89.4394Z" fill="white"/>
<path d="M208.417 100.688L208.801 99.9329L209.182 100.688L209.879 101.104L209.182 101.517L208.801 102.273L208.417 101.517L207.721 101.104L208.417 100.688Z" fill="white"/>
<path d="M173.788 49.8522L174.169 49.0969L174.55 49.8522L175.25 50.2685L174.55 50.6814L174.169 51.4366L173.788 50.6814L173.092 50.2685L173.788 49.8522Z" fill="white"/>
<path d="M161.119 97.3114L161.499 96.5527L161.88 97.3114L162.577 97.7243L161.88 98.1372L161.499 98.8925L161.119 98.1372L160.419 97.7243L161.119 97.3114Z" fill="white"/>
<path d="M181.785 90.7319L182.166 89.9766L182.547 90.7319L183.247 91.1447L182.547 91.561L182.166 92.3163L181.785 91.561L181.089 91.1447L181.785 90.7319Z" fill="white"/>
<path d="M169.314 61.6682L169.918 60.4731L170.518 61.6682L171.621 62.3228L170.518 62.974L169.918 65.5118L169.314 62.974L168.212 62.3228L169.314 61.6682Z" fill="white"/>
<path d="M202.909 93.1355L203.509 91.9404L204.113 93.1355L205.215 93.7867L204.113 94.4413L203.509 96.979L202.909 94.4413L201.807 93.7867L202.909 93.1355Z" fill="white"/>
<path d="M65.7197 101.017H27.3193V105.247H65.7197V101.017Z" fill="#37D2D0"/>
<path opacity="0.5" d="M65.7197 101.017H27.3193V105.247H65.7197V101.017Z" fill="black"/>
<path opacity="0.1" d="M65.7229 101.017H57.7939V105.247H65.7229V101.017Z" fill="black"/>
<path opacity="0.3" d="M34.1031 101.017H29.5859V105.247H34.1031V101.017Z" fill="#37D2D0"/>
<path opacity="0.3" d="M37.069 101.017H35.2578V105.247H37.069V101.017Z" fill="#37D2D0"/>
<g opacity="0.4">
<path d="M62.0975 87.4722C63.4226 92.6384 63.1347 101.02 63.1347 101.02H29.8893C29.8893 101.02 29.5983 92.6283 30.9234 87.4722C32.2485 82.3161 44.1745 75.5118 45.0754 73.011C45.5088 71.7579 45.5088 70.3769 45.0754 69.1238C44.1869 66.6229 32.2454 59.8354 30.9234 54.6692C29.6013 49.5031 29.8862 41.1177 29.8862 41.1177H63.1347C63.1347 41.1177 63.4257 49.5098 62.1006 54.6692C60.7755 59.8287 48.8371 66.6229 47.9486 69.1238C47.5151 70.3769 47.5151 71.7579 47.9486 73.011C48.834 75.5118 60.7755 82.2994 62.0975 87.4722Z" fill="#84D4C6"/>
<path d="M62.097 87.4722C63.1342 91.8831 63.2054 96.492 63.1435 101.02C63.1187 101.047 29.895 101.047 29.8578 101.054C29.7897 96.4517 29.8331 91.7219 30.9415 87.2473C32.1365 83.6857 37.2234 79.9898 40.0191 77.6836C41.1615 76.7672 42.3133 75.8676 43.4062 74.8908C44.0471 74.2664 44.8273 73.6756 45.0997 72.7558C45.4965 71.482 45.4221 70.0909 44.8923 68.8753C44.4658 68.2664 43.966 67.7222 43.4062 67.2573C39.9603 64.0985 32.409 59.3352 30.9167 54.9109C30.536 53.4218 30.274 51.9 30.1334 50.3623C29.8383 47.2941 29.7349 44.2077 29.8238 41.1243V41.0605C29.9198 41.0975 63.1435 41.0102 63.1714 41.1277C63.2395 45.5117 63.1559 49.9562 62.2426 54.2462C61.4624 58.4188 54.3167 63.2325 51.1989 65.8776C50.7345 66.2536 50.2701 66.6329 49.8243 67.029C49.171 67.6299 48.4527 68.214 48.0162 69.0431C47.5764 70.2067 47.5206 71.4991 47.8583 72.7021C48.0967 73.6286 48.8583 74.2261 49.4868 74.8404C50.3754 75.646 51.3073 76.3913 52.2392 77.1398C55.1774 79.5803 61.0041 83.679 62.097 87.4789V87.4722ZM62.097 87.4722C61.0041 83.679 55.1619 79.5803 52.2268 77.1499C50.8522 76.0119 49.3692 74.968 48.2267 73.5447C47.5487 72.5376 47.5084 71.0875 47.719 69.9058C47.8119 69.2775 48.0874 68.6977 48.5054 68.2509C49.3367 67.3752 50.2267 66.5674 51.168 65.834C53.0256 64.3301 54.9142 62.88 56.7192 61.309C57.6233 60.5235 58.5087 59.7145 59.3385 58.8417C60.3602 57.7474 61.3695 56.5691 61.9299 55.119C62.5491 53.0377 62.7565 50.8222 62.9392 48.647C63.159 46.0924 63.0816 43.4372 63.1342 41.1646C63.1683 41.1646 29.6133 41.272 29.9507 41.1243C29.8634 44.1988 29.9668 47.2761 30.2603 50.3355C30.4038 51.8628 30.6658 53.3743 31.0436 54.8538C31.2846 55.5716 31.6306 56.2426 32.0684 56.841C34.279 59.8622 37.2636 62.0609 40.081 64.3604C41.2235 65.2734 42.3752 66.1764 43.4867 67.1566C44.0842 67.7306 44.7592 68.2778 45.1214 69.07C45.5796 70.3564 45.5796 71.7816 45.1214 73.068C44.7592 73.8602 44.0842 74.4107 43.4836 74.978C40.177 77.8817 36.5144 80.3154 33.4709 83.5648C32.4895 84.6457 31.5019 85.824 31.0313 87.2775C30.6491 88.7563 30.385 90.2679 30.2418 91.7958C29.9482 94.8585 29.8448 97.9392 29.9322 101.017C29.703 100.98 63.2457 100.983 63.1373 101.017C63.2085 96.4886 63.1373 91.8797 62.1094 87.4688L62.097 87.4722Z" fill="#082B27"/>
</g>
<g opacity="0.4">
<path d="M32.285 87.2709C31.0745 91.994 31.3376 99.6543 31.3376 99.6543H61.679C61.679 99.6543 61.9452 91.994 60.7347 87.2709C59.5241 82.5479 48.1987 76.3444 47.4 74.045C46.7043 72.1235 46.7043 69.9879 47.4 68.0665C48.2111 65.7771 59.5334 59.577 60.7409 54.854C61.9483 50.1309 61.6852 42.4907 61.6852 42.4907H31.3438C31.3438 42.4907 31.0776 50.151 32.2881 54.8741C33.4987 59.5972 44.8179 65.7972 45.629 68.0866C45.9937 69.0336 46.1815 70.0496 46.1815 71.0759C46.1815 72.1021 45.9937 73.1181 45.629 74.0651C44.8148 76.3444 33.4925 82.5479 32.285 87.2709Z" fill="#84D4C6"/>
<path d="M32.2851 87.2709C31.3563 91.2991 31.2789 95.5119 31.3563 99.6509C31.3129 99.6509 61.7936 99.6073 61.6759 99.6509C61.7378 95.6227 61.6759 91.5206 60.7966 87.5831C60.7235 87.2252 60.6112 86.8781 60.4623 86.5492C59.843 85.2333 58.8678 84.1692 57.877 83.1923C54.8646 80.2047 51.2608 78.0295 48.1678 75.1359C47.9138 74.8856 47.6863 74.6052 47.4898 74.3C47.3356 73.9675 47.2162 73.6174 47.1337 73.2561C46.7163 71.64 46.7638 69.9243 47.27 68.3383C47.445 67.8115 47.7503 67.347 48.1523 66.9956C48.6577 66.5004 49.1857 66.0333 49.7344 65.5958C52.7655 63.0278 59.6046 58.684 60.7037 54.8136C61.6326 50.7854 61.7038 46.6061 61.6326 42.4839C61.9422 42.5444 31.1395 42.5511 31.3563 42.4839C31.282 46.1127 31.3563 49.7784 31.9755 53.3567C32.1674 54.5551 32.4739 55.7267 33.186 56.6968C34.5514 58.6236 36.3502 60.1275 38.1211 61.5877C40.341 63.4306 42.7466 65.0184 44.8489 67.0224C45.2909 67.4083 45.6147 67.9302 45.7777 68.5196C46.1509 69.671 46.2645 70.9026 46.109 72.1114C46.0161 72.7885 45.8519 73.4519 45.6198 74.0886C45.5287 74.2946 45.4097 74.4846 45.2668 74.6525C44.3132 75.767 43.1305 76.6129 42.0098 77.5092C40.1893 78.9224 38.344 80.2954 36.5979 81.8194C35.722 82.5683 34.8944 83.3815 34.121 84.2531C33.3625 85.1292 32.6225 86.0993 32.2975 87.2742L32.2851 87.2709ZM32.2851 87.2709C32.5947 86.0993 33.347 85.1292 34.1056 84.2497C34.8797 83.3779 35.7072 82.5637 36.5824 81.8127C38.3255 80.2886 40.1707 78.9123 41.9881 77.4958C42.8952 76.7875 43.8086 76.0825 44.6476 75.2802C45.0298 74.9496 45.3503 74.5428 45.5919 74.0819C46.2647 72.3118 46.3186 70.3364 45.7436 68.5263C45.6731 68.2338 45.5546 67.9575 45.3938 67.7106C44.8452 67.0224 44.2214 66.4092 43.5361 65.8845C40.4029 63.199 33.7309 59.0197 32.3315 55.1426C31.2881 51.0372 31.2634 46.7068 31.3098 42.4907C31.3098 42.4101 61.6511 42.4907 61.7254 42.447V42.4907C61.7874 46.6196 61.7254 50.8257 60.7966 54.8539C59.6882 58.7478 52.8429 63.0916 49.7809 65.6528C49.2391 66.0959 48.7003 66.5458 48.2019 67.0426C47.8084 67.3866 47.5105 67.8421 47.3412 68.3584C46.8345 69.9264 46.7826 71.625 47.1926 73.2259C47.2722 73.5797 47.3875 73.9231 47.5362 74.2497C47.7304 74.5488 47.9547 74.8235 48.205 75.0688C51.301 77.9489 54.8925 80.1275 57.9018 83.1252C58.8987 84.1322 59.8802 85.1863 60.4963 86.5122C60.6469 86.8447 60.7611 87.195 60.8369 87.5562C61.7069 91.5072 61.7657 95.6126 61.7069 99.6643C61.7069 99.6845 31.3377 99.6442 31.3315 99.6442C31.2727 95.5052 31.3315 91.2924 32.2851 87.2608V87.2709Z" fill="#082B27"/>
</g>
<path d="M61.6831 99.6543H31.3418C31.3418 99.6543 38.1531 89.4026 42.8808 85.0454C43.8865 84.0912 45.1776 83.5652 46.514 83.5652C47.8505 83.5652 49.1415 84.0912 50.1472 85.0454C54.878 89.4026 61.6831 99.6543 61.6831 99.6543Z" fill="#37D2D0"/>
<path d="M50.5798 64.8743C50.5798 64.8743 47.7252 67.0965 47.3506 67.7813C46.976 68.4661 46.6788 70.685 46.6788 70.685H46.3413C46.3413 70.685 46.0317 68.4661 45.6694 67.7813C45.3072 67.0965 42.4434 64.8743 42.4434 64.8743H50.5798Z" fill="#37D2D0"/>
<path d="M46.5121 80.8727C45.1096 80.8727 44.6761 79.5501 44.8216 78.2813C45.0167 76.5861 46.5121 74.2732 46.5121 74.2732C46.5121 74.2732 48.0075 76.5861 48.1994 78.2813C48.3449 79.5501 47.9115 80.8727 46.5121 80.8727Z" fill="#37D2D0"/>
<g opacity="0.5">
<path d="M61.6831 99.6541H31.3418C31.3418 99.6541 38.1531 89.4023 42.8808 85.0451C43.8865 84.0909 45.1776 83.5649 46.514 83.5649C47.8505 83.5649 49.1415 84.0909 50.1472 85.0451C54.878 89.4023 61.6831 99.6541 61.6831 99.6541Z" fill="white"/>
<path d="M50.5808 64.874C50.5808 64.874 47.7262 67.0963 47.3516 67.781C46.977 68.4658 46.6797 70.6847 46.6797 70.6847H46.3423C46.3423 70.6847 46.0327 68.4658 45.6704 67.781C45.3082 67.0963 42.4443 64.874 42.4443 64.874H50.5808Z" fill="white"/>
<path d="M46.5121 80.8727C45.1096 80.8727 44.6761 79.5501 44.8216 78.2813C45.0167 76.5861 46.5121 74.2732 46.5121 74.2732C46.5121 74.2732 48.0075 76.5861 48.1994 78.2813C48.3449 79.5501 47.9115 80.8727 46.5121 80.8727Z" fill="white"/>
<path opacity="0.1" d="M46.5118 80.8728C46.1627 80.8972 45.8162 80.7927 45.5289 80.5763C45.2416 80.3599 45.0304 80.0443 44.9297 79.6811C45.0544 79.8988 45.231 80.076 45.4407 80.1941C45.6505 80.3123 45.8857 80.367 46.1217 80.3525C47.3075 80.3525 47.6264 79.2414 47.552 78.1638C47.4344 76.4854 46.6232 74.6291 46.4839 74.3203C46.4915 74.3045 46.5008 74.2898 46.5118 74.2766C46.5118 74.2766 48.0072 76.5861 48.1991 78.2847C48.3446 79.5502 47.9112 80.8728 46.5118 80.8728Z" fill="black"/>
</g>
<path opacity="0.1" d="M61.686 99.6541H31.3447C31.3447 99.6541 32.2364 98.3114 33.5956 96.3913C37.3944 98.4054 46.9365 99.4662 51.2431 94.1523C54.9738 89.5635 50.0046 85.1493 48.5805 84.0281C49.1433 84.2707 49.6662 84.6108 50.1285 85.0351C54.8778 89.399 61.686 99.6541 61.686 99.6541Z" fill="black"/>
<path d="M33.1922 41.1179H37.217C37.217 41.1179 36.9663 48.6339 37.217 52.1317C37.4245 55.0857 39.9075 60.8192 44.2296 64.4479C44.2296 64.4479 37.1551 59.9397 34.9817 56.1028C32.8083 52.266 33.1922 41.1179 33.1922 41.1179Z" fill="white"/>
<path d="M34.4961 85.4146C34.4961 85.4146 35.3351 83.565 39.0906 80.6009C41.3941 78.7849 44.4963 76.6331 44.9731 75.4851C44.9731 75.4851 43.9483 78.5499 40.1309 81.2757C37.8615 82.9037 35.3661 84.1692 34.4961 85.4146Z" fill="white"/>
<path opacity="0.1" d="M62.0976 87.4725C63.4227 92.6387 63.1347 101.024 63.1347 101.024H56.116C56.116 101.024 56.4008 92.6319 55.0757 87.4725C53.7506 82.313 47.5802 75.5121 46.6792 73.0112C46.2489 71.7575 46.2489 70.3777 46.6792 69.124C47.5709 66.6232 53.7537 59.8356 55.0757 54.6661C56.3977 49.4966 56.1129 41.1179 56.1129 41.1179H63.1316C63.1316 41.1179 63.4227 49.51 62.0976 54.6661C60.7724 59.8222 48.831 66.6232 47.9455 69.124C47.5104 70.3768 47.5104 71.7584 47.9455 73.0112C48.8186 75.5121 60.7755 82.2996 62.0976 87.4725Z" fill="black"/>
<path d="M65.7197 36.8882H27.3193V41.1178H65.7197V36.8882Z" fill="#37D2D0"/>
<path opacity="0.5" d="M65.7197 36.8882H27.3193V41.1178H65.7197V36.8882Z" fill="black"/>
<path opacity="0.1" d="M65.7229 36.8882H57.7939V41.1178H65.7229V36.8882Z" fill="black"/>
<path opacity="0.3" d="M34.1031 36.8882H29.5859V41.1178H34.1031V36.8882Z" fill="#37D2D0"/>
<path opacity="0.3" d="M37.069 36.8882H35.2578V41.1178H37.069V36.8882Z" fill="#37D2D0"/>
<path d="M87.2773 62.1351L86.333 61.1952L94.1505 51.9672C94.2074 51.8996 94.276 51.8449 94.3524 51.8061C94.4288 51.7673 94.5115 51.7452 94.5958 51.7412C94.68 51.7371 94.7642 51.7511 94.8435 51.7824C94.9228 51.8137 94.9956 51.8617 95.0577 51.9236C95.1824 52.049 95.2564 52.2228 95.2633 52.4071C95.2703 52.5913 95.2097 52.7711 95.0948 52.9071L87.2773 62.1351Z" fill="#126057"/>
<path opacity="0.1" d="M86.5931 60.8896L87.4414 61.9437L87.2773 62.135L86.333 61.1951L86.5931 60.8896Z" fill="black"/>
<path opacity="0.1" d="M87.6921 61.6448L86.8438 60.5908L87.0047 60.3994L87.949 61.3427L87.6921 61.6448Z" fill="black"/>
<path d="M94.851 68.194L80.123 53.528C81.9168 51.4104 84.4129 50.1522 87.0623 50.03C88.3741 49.9696 89.6841 50.1898 90.9174 50.6783C92.1508 51.1667 93.2833 51.9138 94.2503 52.8767C95.2174 53.8397 96 54.9998 96.5536 56.2907C97.1071 57.5817 97.4207 58.9782 97.4765 60.4005C97.5323 61.8228 97.3291 63.2432 96.8786 64.5804C96.4281 65.9176 95.7391 67.1455 94.851 68.194Z" fill="#37D2D0"/>
<path opacity="0.3" d="M94.851 68.194L80.123 53.528C81.9168 51.4104 84.4129 50.1522 87.0623 50.03C88.3741 49.9696 89.6841 50.1898 90.9174 50.6783C92.1508 51.1667 93.2833 51.9138 94.2503 52.8767C95.2174 53.8397 96 54.9998 96.5536 56.2907C97.1071 57.5817 97.4207 58.9782 97.4765 60.4005C97.5323 61.8228 97.3291 63.2432 96.8786 64.5804C96.4281 65.9176 95.7391 67.1455 94.851 68.194Z" fill="black"/>
<path opacity="0.5" d="M94.5344 53.1992C91.0297 50.262 85.5559 51.1616 81.9737 55.3745L81.0449 54.4547C84.7788 50.0472 90.6148 49.2684 94.0824 52.7192C94.2465 52.8736 94.392 53.0347 94.5344 53.1992Z" fill="white"/>
<path d="M55.6019 62.1383L56.5462 61.1984L48.7318 51.9671C48.6166 51.8313 48.4565 51.7506 48.2865 51.7424C48.1165 51.7342 47.9505 51.7993 47.8246 51.9234C47.7625 51.9853 47.7122 52.0598 47.6767 52.1428C47.6412 52.2257 47.6212 52.3155 47.6177 52.4068C47.6143 52.4982 47.6275 52.5894 47.6566 52.6752C47.6858 52.7611 47.7302 52.8398 47.7875 52.907L55.6019 62.1383Z" fill="#126057"/>
<path opacity="0.1" d="M56.2858 60.8928L55.4375 61.9469L55.6016 62.1382L56.5459 61.1983L56.2858 60.8928Z" fill="black"/>
<path opacity="0.1" d="M55.1867 61.6482L56.035 60.5942L55.874 60.4028L54.9297 61.3427L55.1867 61.6482Z" fill="black"/>
<path d="M48.0259 68.1974L62.7507 53.5347C61.8667 52.4695 60.7968 51.6048 59.6028 50.9907C58.4087 50.3766 57.1142 50.0251 55.7942 49.9567C54.4741 49.8883 53.1546 50.1042 51.9119 50.5921C50.6693 51.0799 49.5282 51.83 48.5545 52.7989C47.5809 53.7679 46.794 54.9364 46.2395 56.2371C45.6849 57.5377 45.3736 58.9446 45.3236 60.3765C45.2735 61.8084 45.4858 63.2368 45.948 64.5792C46.4103 65.9216 47.1133 67.1514 48.0166 68.1974H48.0259Z" fill="#37D2D0"/>
<path opacity="0.3" d="M48.0259 68.1974L62.7507 53.5347C61.8667 52.4695 60.7968 51.6048 59.6028 50.9907C58.4087 50.3766 57.1142 50.0251 55.7942 49.9567C54.4741 49.8883 53.1546 50.1042 51.9119 50.5921C50.6693 51.0799 49.5282 51.83 48.5545 52.7989C47.5809 53.7679 46.794 54.9364 46.2395 56.2371C45.6849 57.5377 45.3736 58.9446 45.3236 60.3765C45.2735 61.8084 45.4858 63.2368 45.948 64.5792C46.4103 65.9216 47.1133 67.1514 48.0166 68.1974H48.0259Z" fill="black"/>
<path opacity="0.5" d="M48.3477 53.199C51.8524 50.2651 57.3262 51.1647 60.9052 55.3775L61.8341 54.4611C58.1064 50.0502 52.2549 49.2715 48.7904 52.7189C48.6356 52.8733 48.487 53.0345 48.3477 53.199Z" fill="white"/>
<path d="M56.6049 98.446L54.6885 105.244H56.9393L61.1035 101.514L56.6049 98.446Z" fill="#082B27"/>
<path d="M85.9839 98.4526L87.8973 105.247H85.6495L81.4854 101.517L85.9839 98.4526Z" fill="#082B27"/>
<path d="M73.7598 51.1111H68.834V53.3669H73.7598V51.1111Z" fill="#126057"/>
<path d="M72.5057 53.3669H70.0908V55.4851H72.5057V53.3669Z" fill="#126057"/>
<path d="M72.5057 53.7463L70.0908 53.9175V53.3669H72.5057V53.7463Z" fill="#082B27"/>
<path d="M87.5123 97.2071C96.468 87.497 96.468 71.754 87.5123 62.0439C78.5567 52.3339 64.0366 52.3339 55.0809 62.0439C46.1253 71.754 46.1253 87.497 55.0809 97.2071C64.0366 106.917 78.5567 106.917 87.5123 97.2071Z" fill="#37D2D0"/>
<path opacity="0.1" d="M72.3293 102.96C84.4255 102.344 93.7707 91.2123 93.2024 78.0973C92.634 64.9822 82.3674 54.8499 70.2712 55.4661C58.175 56.0823 48.8299 67.2137 49.3982 80.3287C49.9665 93.4438 60.2331 103.576 72.3293 102.96Z" fill="black"/>
<path d="M74.1205 101.529C85.3321 99.8375 93.1565 88.6123 91.5967 76.4563C90.037 64.3004 79.6838 55.817 68.4722 57.5081C57.2607 59.1992 49.4363 70.4244 50.996 82.5804C52.5557 94.7363 62.9089 103.22 74.1205 101.529Z" fill="white"/>
<path d="M70.0784 57.3381C65.051 57.6891 60.3163 60.0246 56.7691 63.9033C53.222 67.782 51.1081 72.9352 50.8271 78.3889C51.0835 72.9261 53.1894 67.7578 56.7415 63.8736C60.2936 59.9895 65.0424 57.6624 70.0784 57.3381Z" fill="white"/>
<path d="M69.9888 101.695C65.0165 101.351 60.3302 99.0554 56.8063 95.2365C53.2824 91.4176 51.1624 86.3376 50.8428 80.9468C51.1874 86.3281 53.3155 91.3927 56.8343 95.2061C60.3532 99.0194 65.0254 101.324 69.9888 101.695Z" fill="white"/>
<path opacity="0.2" d="M73.0816 101.658C77.4658 101.227 81.6065 99.2809 84.8947 96.1073C88.1829 92.9336 90.445 88.6997 91.3483 84.0282L71.2951 79.5199L71.1094 57.301H71.2859C76.5678 57.3 81.6463 59.5099 85.462 63.4699C89.2777 67.4299 91.536 72.8342 91.7661 78.5556C91.9961 84.2771 90.1799 89.8739 86.6965 94.1788C83.213 98.4838 78.3312 101.164 73.0692 101.662L73.0816 101.658Z" fill="#37D2D0"/>
<g opacity="0.05">
<path d="M91.5935 76.425L53.2179 90.0001C52.5183 88.5837 51.9629 87.0889 51.5615 85.5422L83.3797 61.571C85.5966 63.3242 87.4661 65.5425 88.8771 68.0942C90.2881 70.6458 91.2118 73.4788 91.5935 76.425Z" fill="black"/>
<path d="M91.7176 81.4299C91.5781 83.2001 91.2434 84.9459 90.7207 86.6297L55.4659 93.632C55.1408 93.2091 54.8312 92.766 54.5371 92.3162L91.7176 81.4299Z" fill="black"/>
</g>
<path d="M85.4878 64.4846L84.4227 65.6326L84.0977 65.297L85.1596 64.1489C85.2153 64.2026 85.268 64.2631 85.3237 64.3201C85.3794 64.3772 85.4382 64.4242 85.4878 64.4846Z" fill="#082B27"/>
<path d="M76.2648 60.376L75.8252 60.2484L76.2122 58.6741C76.3608 58.711 76.5218 58.7546 76.6549 58.8016L76.2648 60.376Z" fill="#082B27"/>
<path d="M66.7759 60.245L66.3362 60.3726L65.9492 58.7982L66.3889 58.6707L66.7759 60.245Z" fill="#082B27"/>
<path d="M58.4904 65.2804L58.1653 65.6328L57.1064 64.4814C57.156 64.421 57.2117 64.3606 57.2643 64.3035C57.317 64.2465 57.3727 64.186 57.4284 64.1323L58.4904 65.2804Z" fill="#082B27"/>
<path d="M53.5214 74.6091L52.0693 74.1861C52.1034 74.0284 52.1436 73.8672 52.187 73.7095L53.639 74.1324L53.5214 74.6091Z" fill="#082B27"/>
<path d="M53.6392 84.9043L52.1872 85.324C52.1438 85.1662 52.1036 85.0084 52.0664 84.8473L53.5185 84.4243L53.6392 84.9043Z" fill="#082B27"/>
<path d="M58.4875 93.7529L57.4255 94.9043L57.2614 94.7331C57.2088 94.6727 57.1531 94.6123 57.1035 94.5518L58.1624 93.4038L58.4875 93.7529Z" fill="#082B27"/>
<path d="M66.3793 100.366C66.2307 100.329 66.0697 100.285 65.9365 100.238L66.3266 98.6641L66.7663 98.7916L66.3793 100.366Z" fill="#082B27"/>
<path d="M76.6489 100.228C76.5034 100.272 76.3579 100.316 76.2093 100.353L75.8223 98.7816L76.2619 98.6541L76.6489 100.228Z" fill="#082B27"/>
<path d="M85.3269 94.7366C85.2712 94.7937 85.2186 94.8541 85.1628 94.9078L84.1133 93.7598L84.4229 93.4241L85.4817 94.5755C85.4353 94.6191 85.3827 94.6762 85.3269 94.7366Z" fill="#082B27"/>
<path d="M90.4042 85.3308L88.9521 84.9078L89.0698 84.4312L90.5249 84.8508C90.4878 85.0119 90.4475 85.173 90.4042 85.3308Z" fill="#082B27"/>
<path d="M90.5253 74.1927L89.067 74.6157L88.9463 74.1357L90.3983 73.7161C90.4479 73.8705 90.4881 74.045 90.5253 74.1927Z" fill="#082B27"/>
<path d="M88.5814 83.7564L70.1289 80.413L70.5314 78.3452L88.6897 83.1958L88.5814 83.7564Z" fill="#37D2D0"/>
<path d="M71.4511 64.327L72.3087 80.7688L70.3613 80.7386L70.9217 64.3203L71.4511 64.327Z" fill="#082B27"/>
<path d="M71.9612 79.5201C71.9612 79.6628 71.9221 79.8023 71.849 79.921C71.7759 80.0397 71.6719 80.1322 71.5503 80.1868C71.4286 80.2415 71.2948 80.2558 71.1657 80.2279C71.0365 80.2001 70.9179 80.1313 70.8248 80.0304C70.7318 79.9295 70.6684 79.8009 70.6427 79.6609C70.617 79.5209 70.6302 79.3757 70.6806 79.2439C70.7309 79.112 70.8162 78.9993 70.9257 78.92C71.0352 78.8407 71.1639 78.7983 71.2955 78.7983C71.4721 78.7983 71.6414 78.8744 71.7662 79.0097C71.8911 79.1451 71.9612 79.3286 71.9612 79.5201Z" fill="#37D2D0"/>
<path d="M70.7446 59.275V61.2891C70.7438 61.3393 70.7248 61.3871 70.6918 61.4222C70.6588 61.4574 70.6144 61.4771 70.5681 61.4771C70.5452 61.4776 70.5225 61.473 70.5013 61.4637C70.4801 61.4544 70.4608 61.4406 70.4446 61.4231C70.4284 61.4055 70.4157 61.3846 70.4071 61.3616C70.3985 61.3386 70.3943 61.3139 70.3948 61.2891V59.6107L70.2678 59.6913C70.2408 59.7091 70.2097 59.7184 70.178 59.7181C70.1473 59.7186 70.1171 59.7097 70.0909 59.6925C70.0646 59.6753 70.0433 59.6504 70.0294 59.6208C70.0166 59.6001 70.0078 59.5768 70.0037 59.5523C69.9996 59.5278 70.0001 59.5026 70.0054 59.4784C70.0106 59.4541 70.0204 59.4313 70.0341 59.4113C70.0478 59.3914 70.0652 59.3747 70.0851 59.3623L70.4752 59.1105H70.5774C70.5835 59.1087 70.5899 59.1087 70.596 59.1105H70.6146C70.6129 59.1142 70.6121 59.1182 70.6121 59.1223C70.6121 59.1263 70.6129 59.1304 70.6146 59.134L70.7446 59.275Z" fill="#082B27"/>
<path d="M72.5841 61.3126C72.5846 61.3374 72.5804 61.362 72.5718 61.385C72.5632 61.408 72.5505 61.429 72.5343 61.4465C72.5181 61.464 72.4988 61.4779 72.4776 61.4872C72.4564 61.4964 72.4336 61.501 72.4108 61.5005H71.2807C71.2563 61.5014 71.232 61.4964 71.2095 61.486C71.187 61.4755 71.167 61.4599 71.1507 61.4401C71.1342 61.4226 71.1211 61.4017 71.1122 61.3787C71.1032 61.3556 71.0986 61.3309 71.0986 61.3058C71.0986 61.2808 71.1032 61.2561 71.1122 61.233C71.1211 61.21 71.1342 61.1891 71.1507 61.1716L72.0795 60.2484C72.1229 60.2064 72.1573 60.1546 72.1803 60.0966C72.2033 60.0386 72.2143 59.9759 72.2126 59.9128C72.2128 59.8031 72.1765 59.6971 72.1104 59.614C72.0361 59.5278 71.9338 59.4764 71.8251 59.4708C71.7164 59.4651 71.61 59.5057 71.5284 59.5838L71.4293 59.6811C71.4132 59.699 71.3939 59.7132 71.3726 59.7229C71.3514 59.7326 71.3285 59.7376 71.3055 59.7376C71.2824 59.7376 71.2596 59.7326 71.2383 59.7229C71.217 59.7132 71.1978 59.699 71.1816 59.6811C71.1498 59.6449 71.1321 59.5969 71.1321 59.5469C71.1321 59.4969 71.1498 59.4488 71.1816 59.4126L71.2807 59.3186C71.42 59.1799 71.6024 59.1032 71.7916 59.1038C71.8982 59.1043 72.0035 59.1288 72.101 59.1756C72.1985 59.2224 72.2861 59.2905 72.3581 59.3757C72.4932 59.5388 72.5631 59.7533 72.5526 59.9722C72.5422 60.1911 72.4522 60.3967 72.3024 60.5438L71.7296 61.1179H72.4077C72.4312 61.1174 72.4546 61.1221 72.4764 61.1318C72.4983 61.1415 72.518 61.1558 72.5345 61.1741C72.5511 61.1923 72.564 61.214 72.5725 61.2378C72.581 61.2616 72.585 61.287 72.5841 61.3126Z" fill="#082B27"/>
<path d="M80.3607 61.8162V63.8504C80.3591 63.9009 80.3394 63.9487 80.3059 63.9837C80.2724 64.0188 80.2277 64.0384 80.1811 64.0384C80.1582 64.0388 80.1355 64.0343 80.1143 64.025C80.093 64.0157 80.0738 64.0019 80.0576 63.9843C80.0414 63.9668 80.0286 63.9459 80.0201 63.9229C80.0115 63.8999 80.0073 63.8752 80.0077 63.8504V62.172L79.8808 62.2492C79.8548 62.2698 79.8232 62.2804 79.791 62.2794C79.7605 62.2788 79.7307 62.2694 79.7046 62.2523C79.6786 62.2353 79.6571 62.211 79.6424 62.1821C79.63 62.1612 79.6216 62.1379 79.6177 62.1135C79.6138 62.0891 79.6145 62.0641 79.6197 62.04C79.6249 62.0159 79.6345 61.9931 79.648 61.9731C79.6615 61.9531 79.6785 61.9363 79.6981 61.9236L80.0913 61.6718H80.1935C80.1996 61.6699 80.206 61.6699 80.2121 61.6718C80.2121 61.6718 80.2121 61.6718 80.2306 61.6718C80.2306 61.6718 80.2306 61.6718 80.2306 61.6886C80.229 61.6923 80.2281 61.6963 80.2281 61.7003C80.2281 61.7044 80.229 61.7084 80.2306 61.7121L80.3607 61.8162Z" fill="#082B27"/>
<path d="M61.9673 61.816V63.8469C61.9668 63.872 61.9619 63.8968 61.9526 63.9199C61.9434 63.9429 61.9301 63.9638 61.9134 63.9812C61.8967 63.9987 61.877 64.0124 61.8555 64.0216C61.8339 64.0308 61.8109 64.0353 61.7877 64.0349C61.7648 64.0354 61.7421 64.0308 61.7208 64.0215C61.6996 64.0122 61.6803 63.9984 61.6641 63.9809C61.648 63.9633 61.6352 63.9424 61.6266 63.9194C61.6181 63.8964 61.6139 63.8717 61.6143 63.8469V62.1517L61.4874 62.2323C61.4606 62.2508 61.4293 62.2602 61.3976 62.2591C61.367 62.2592 61.3369 62.2502 61.3107 62.233C61.2845 62.2158 61.2631 62.1912 61.249 62.1618C61.2367 62.1408 61.2285 62.1173 61.2248 62.0927C61.2212 62.0682 61.2221 62.0431 61.2276 62.019C61.2331 61.9948 61.243 61.9721 61.2568 61.9523C61.2706 61.9324 61.2879 61.9157 61.3078 61.9033L61.6979 61.6515C61.6979 61.6515 61.6979 61.6515 61.7134 61.6515H61.8217C61.8278 61.6497 61.8342 61.6497 61.8403 61.6515C61.8403 61.6515 61.8403 61.6515 61.8589 61.6515C61.864 61.6503 61.8693 61.6503 61.8744 61.6515C61.8744 61.6515 61.8744 61.6717 61.8744 61.6784L61.9673 61.816Z" fill="#082B27"/>
<path d="M63.0327 61.8161V63.847C63.0327 63.872 63.0281 63.8967 63.0192 63.9197C63.0103 63.9427 62.9972 63.9636 62.9808 63.9811C62.9644 63.9986 62.9449 64.0124 62.9235 64.0216C62.9021 64.0309 62.8792 64.0354 62.8562 64.035C62.8333 64.0354 62.8106 64.0309 62.7894 64.0216C62.7681 64.0123 62.7489 63.9985 62.7327 63.9809C62.7165 63.9634 62.7037 63.9425 62.6952 63.9195C62.6866 63.8964 62.6824 63.8718 62.6828 63.847V62.1518L62.5559 62.2323C62.5289 62.2502 62.4978 62.2595 62.4661 62.2592C62.4354 62.2597 62.4052 62.2508 62.379 62.2336C62.3527 62.2164 62.3314 62.1915 62.3175 62.1618C62.3047 62.1412 62.2959 62.1179 62.2918 62.0934C62.2877 62.0689 62.2882 62.0437 62.2935 62.0195C62.2987 61.9952 62.3085 61.9724 62.3222 61.9524C62.3359 61.9324 62.3533 61.9157 62.3732 61.9034L62.7633 61.6516C62.7633 61.6516 62.7633 61.6516 62.7819 61.6516H62.881H62.9027C62.9027 61.6516 62.9027 61.6516 62.9212 61.6516C62.9212 61.6516 62.9212 61.6718 62.9212 61.6785L63.0327 61.8161Z" fill="#082B27"/>
<path d="M87.5192 71.0238C87.5192 71.0487 87.5147 71.0734 87.5058 71.0965C87.4968 71.1195 87.4838 71.1404 87.4674 71.1579C87.4509 71.1754 87.4315 71.1892 87.4101 71.1984C87.3887 71.2076 87.3658 71.2122 87.3428 71.2117H86.2127C86.1763 71.2128 86.1405 71.2017 86.1102 71.18C86.0799 71.1582 86.0565 71.1267 86.0433 71.09C86.0301 71.0532 86.0277 71.013 86.0364 70.9747C86.0451 70.9364 86.0645 70.9019 86.092 70.8761L87.0208 69.9529C87.0642 69.9109 87.0986 69.859 87.1216 69.801C87.1446 69.7431 87.1556 69.6803 87.1539 69.6172C87.1548 69.5058 87.1173 69.3981 87.0486 69.3151C86.9753 69.2284 86.8733 69.1765 86.7649 69.1709C86.6565 69.1652 86.5504 69.2062 86.4697 69.2849L86.3706 69.3823C86.3376 69.4175 86.2931 69.4373 86.2468 69.4373C86.2004 69.4373 86.1559 69.4175 86.1229 69.3823C86.1064 69.3648 86.0934 69.3439 86.0844 69.3208C86.0755 69.2978 86.0709 69.273 86.0709 69.248C86.0709 69.223 86.0755 69.1982 86.0844 69.1752C86.0934 69.1521 86.1064 69.1312 86.1229 69.1137L86.222 69.0164C86.361 68.8771 86.5436 68.8003 86.7328 68.8015C86.8871 68.8011 87.0379 68.8515 87.1651 68.946C87.2924 69.0406 87.3902 69.1748 87.4456 69.3309C87.501 69.487 87.5113 69.6576 87.4753 69.8203C87.4392 69.9829 87.3585 70.1298 87.2437 70.2416L86.6431 70.8324H87.318C87.3433 70.8279 87.3691 70.8296 87.3937 70.8372C87.4183 70.8449 87.441 70.8583 87.4603 70.8766C87.4795 70.8949 87.4948 70.9176 87.505 70.943C87.5152 70.9685 87.52 70.996 87.5192 71.0238Z" fill="#082B27"/>
<path d="M55.2736 68.9828V71.0237C55.2736 71.0487 55.2691 71.0734 55.2601 71.0965C55.2512 71.1195 55.2382 71.1404 55.2218 71.1579C55.2053 71.1754 55.1858 71.1891 55.1645 71.1984C55.1431 71.2076 55.1202 71.2122 55.0972 71.2117C55.0741 71.2122 55.0512 71.2076 55.0299 71.1984C55.0085 71.1891 54.989 71.1754 54.9725 71.1579C54.9561 71.1404 54.9431 71.1195 54.9342 71.0965C54.9253 71.0734 54.9207 71.0487 54.9207 71.0237V69.3285L54.7937 69.4091C54.7679 69.4272 54.7378 69.4365 54.7071 69.436C54.6693 69.4342 54.633 69.4196 54.6034 69.3942C54.5737 69.3688 54.5522 69.3339 54.5419 69.2945C54.5317 69.255 54.5331 69.2131 54.5461 69.1746C54.559 69.1361 54.5829 69.1031 54.6142 69.0801L55.0043 68.8284H55.1064H55.125H55.1467V68.8451C55.1467 68.8451 55.1467 68.8452 55.1467 68.8619C55.1464 68.8675 55.1464 68.8731 55.1467 68.8787C55.1439 68.8874 55.1439 68.8969 55.1467 68.9056L55.2736 68.9828Z" fill="#082B27"/>
<path d="M55.676 69.9967C55.6736 69.7057 55.7489 69.4201 55.8927 69.1743C55.9498 69.0585 56.0348 68.9617 56.1387 68.8942C56.2425 68.8267 56.3614 68.791 56.4825 68.791C56.6036 68.791 56.7224 68.8267 56.8263 68.8942C56.9302 68.9617 57.0152 69.0585 57.0723 69.1743C57.2101 69.4226 57.283 69.7069 57.283 69.9967C57.283 70.2866 57.2101 70.5709 57.0723 70.8192C57.0152 70.935 56.9302 71.0318 56.8263 71.0993C56.7224 71.1668 56.6036 71.2025 56.4825 71.2025C56.3614 71.2025 56.2425 71.1668 56.1387 71.0993C56.0348 71.0318 55.9498 70.935 55.8927 70.8192C55.747 70.5743 55.6716 70.2881 55.676 69.9967ZM56.933 69.9967C56.9364 69.7812 56.8827 69.5692 56.7782 69.3858C56.7483 69.3241 56.7039 69.2721 56.6495 69.235C56.5952 69.1979 56.5328 69.1769 56.4686 69.1743C56.4046 69.1782 56.3427 69.1997 56.2886 69.2367C56.2344 69.2737 56.1898 69.325 56.1589 69.3858C56.0575 69.5706 56.004 69.7817 56.004 69.9967C56.004 70.2118 56.0575 70.4229 56.1589 70.6077C56.1898 70.6685 56.2344 70.7198 56.2886 70.7568C56.3427 70.7938 56.4046 70.8153 56.4686 70.8192C56.5328 70.8166 56.5952 70.7956 56.6495 70.7585C56.7039 70.7214 56.7483 70.6693 56.7782 70.6077C56.8827 70.4243 56.9364 70.2123 56.933 69.9967Z" fill="#082B27"/>
<path d="M52.8184 79.1811C52.8078 78.9585 52.8791 78.7405 53.0167 78.5749C53.1543 78.4093 53.3469 78.3098 53.5522 78.2983C53.7575 78.2867 53.9586 78.364 54.1113 78.5132C54.264 78.6624 54.3558 78.8713 54.3665 79.0938C54.3665 79.161 54.3665 79.2247 54.3665 79.2919C54.3684 79.5322 54.3306 79.7709 54.255 79.9968C54.1782 80.2338 54.0354 80.4391 53.8463 80.5843C53.7045 80.6854 53.5393 80.7413 53.3695 80.7454C53.3463 80.7467 53.3231 80.7431 53.3013 80.7348C53.2794 80.7264 53.2592 80.7134 53.242 80.6966C53.2247 80.6797 53.2107 80.6593 53.2007 80.6366C53.1907 80.6139 53.185 80.5893 53.1838 80.5641C53.1837 80.5133 53.2017 80.4644 53.2339 80.4275C53.2662 80.3907 53.3103 80.3687 53.3571 80.3661C53.4667 80.3653 53.5739 80.3316 53.6667 80.2687C53.7498 80.2056 53.8186 80.123 53.868 80.027C53.8839 79.9982 53.8973 79.9678 53.9082 79.9364C53.8111 79.9844 53.7054 80.0085 53.5986 80.0069C53.4974 80.0082 53.3969 79.9879 53.3029 79.9471C53.2089 79.9063 53.1232 79.8459 53.0508 79.7692C52.9783 79.6925 52.9205 79.6011 52.8807 79.5002C52.8408 79.3993 52.8196 79.2909 52.8184 79.1811ZM53.1714 79.1811C53.1714 79.3013 53.2154 79.4166 53.2938 79.5015C53.3722 79.5865 53.4785 79.6343 53.5893 79.6343C53.7002 79.6343 53.8065 79.5865 53.8849 79.5015C53.9633 79.4166 54.0073 79.3013 54.0073 79.1811C54.0073 79.0609 53.9633 78.9457 53.8849 78.8607C53.8065 78.7757 53.7002 78.7279 53.5893 78.7279C53.4785 78.7279 53.3722 78.7757 53.2938 78.8607C53.2154 78.9457 53.1714 79.0609 53.1714 79.1811Z" fill="#082B27"/>
<path d="M89.5401 79.2984C89.6136 79.3768 89.6721 79.4703 89.7119 79.5735C89.7518 79.6766 89.7723 79.7874 89.7723 79.8992C89.7725 80.0685 89.7265 80.2341 89.6399 80.375C89.5534 80.5159 89.4302 80.6258 89.2861 80.6908C89.1419 80.7558 88.9833 80.7731 88.8301 80.7403C88.6769 80.7076 88.5361 80.6263 88.4255 80.5068C88.3932 80.47 88.3754 80.421 88.376 80.3702C88.3766 80.3194 88.3954 80.2708 88.4286 80.2349C88.4617 80.199 88.5065 80.1785 88.5534 80.1779C88.6002 80.1773 88.6454 80.1965 88.6794 80.2316C88.7195 80.2761 88.7678 80.3111 88.8211 80.3342C88.8744 80.3573 88.9316 80.3681 88.989 80.3658C89.0459 80.3667 89.1024 80.3553 89.1551 80.3322C89.2079 80.3091 89.2559 80.2748 89.2962 80.2314C89.3366 80.1879 89.3686 80.1362 89.3902 80.0791C89.4119 80.0221 89.4229 79.9609 89.4224 79.8992C89.4236 79.8369 89.4129 79.7749 89.391 79.7171C89.3692 79.6594 89.3367 79.6071 89.2955 79.5636C89.2551 79.5192 89.2068 79.4842 89.1536 79.4605C89.1004 79.4369 89.0434 79.4251 88.9859 79.4259C88.9611 79.4271 88.9364 79.422 88.9139 79.4109C88.8913 79.3998 88.8714 79.3831 88.8559 79.3621C88.823 79.3252 88.8046 79.2759 88.8046 79.2245C88.8046 79.1732 88.823 79.1238 88.8559 79.0869L89.1809 78.7311H88.667C88.6432 78.7311 88.6196 78.7259 88.5976 78.7159C88.5756 78.7059 88.5556 78.6913 88.5389 78.6729C88.5222 78.6544 88.509 78.6326 88.5002 78.6085C88.4914 78.5845 88.487 78.5589 88.4874 78.533C88.4874 78.5076 88.4921 78.4824 88.5012 78.459C88.5102 78.4356 88.5235 78.4143 88.5402 78.3965C88.5569 78.3787 88.5767 78.3647 88.5985 78.3553C88.6203 78.3458 88.6436 78.3412 88.667 78.3417H89.5958C89.6195 78.3408 89.6431 78.345 89.6653 78.3543C89.6874 78.3635 89.7076 78.3774 89.7246 78.3953C89.7417 78.4131 89.7552 78.4345 89.7645 78.4582C89.7737 78.4819 89.7785 78.5073 89.7785 78.533C89.7783 78.5658 89.7709 78.598 89.7568 78.627C89.7462 78.6433 89.7349 78.659 89.7228 78.674L89.3234 79.1238C89.4055 79.1659 89.4792 79.2252 89.5401 79.2984Z" fill="#082B27"/>
<path d="M87.4451 89.708C87.4451 89.7334 87.4404 89.7586 87.4313 89.782C87.4223 89.8055 87.409 89.8267 87.3923 89.8445C87.3756 89.8623 87.3557 89.8764 87.334 89.8858C87.3122 89.8952 87.2889 89.8998 87.2655 89.8994H87.2345V90.1578C87.2289 90.2038 87.208 90.246 87.1758 90.2765C87.1437 90.3071 87.1024 90.3239 87.0596 90.3239C87.0168 90.3239 86.9755 90.3071 86.9434 90.2765C86.9112 90.246 86.8903 90.2038 86.8847 90.1578V89.896H85.8846C85.8452 89.8974 85.8066 89.8831 85.7763 89.8557C85.758 89.8406 85.7427 89.8217 85.7313 89.8C85.7199 89.7783 85.7127 89.7544 85.7101 89.7296C85.7075 89.7048 85.7095 89.6797 85.7161 89.6558C85.7227 89.6319 85.7337 89.6097 85.7484 89.5905L86.9218 88.0061H86.9373H86.9559H86.9745H87.058H87.0766H87.0921V88.0262C87.0938 88.0328 87.0938 88.0398 87.0921 88.0464C87.0921 88.0464 87.0921 88.0464 87.0921 88.0665V89.4663H87.1231C87.1377 89.4434 87.1564 89.4238 87.178 89.4087C87.1996 89.3936 87.2237 89.3833 87.249 89.3783C87.2743 89.3733 87.3003 89.3738 87.3254 89.3797C87.3506 89.3856 87.3744 89.3967 87.3955 89.4126C87.4167 89.4285 87.4347 89.4487 87.4486 89.4722C87.4626 89.4956 87.4721 89.5218 87.4767 89.5492C87.4813 89.5766 87.4809 89.6048 87.4755 89.632C87.47 89.6593 87.4597 89.6851 87.4451 89.708ZM86.9002 88.6708L86.2809 89.52H86.9002V88.6708Z" fill="#082B27"/>
<path d="M56.7445 89.5267C56.7469 89.6696 56.7149 89.8107 56.6516 89.9361C56.5884 90.0615 56.4962 90.1668 56.384 90.2418C56.2718 90.3167 56.1435 90.3587 56.0117 90.3635C55.88 90.3684 55.7494 90.3359 55.6328 90.2694C55.5162 90.2028 55.4175 90.1044 55.3466 89.984C55.2757 89.8635 55.235 89.7251 55.2285 89.5824C55.2219 89.4397 55.2498 89.2976 55.3093 89.1701C55.3689 89.0426 55.458 88.9341 55.568 88.8554C55.4999 88.759 55.4629 88.6411 55.4627 88.5197C55.4594 88.428 55.4767 88.3368 55.513 88.2539C55.5493 88.171 55.6037 88.0989 55.6714 88.0438C55.739 87.9887 55.818 87.9523 55.9016 87.9375C55.9851 87.9228 56.0707 87.9303 56.151 87.9593C56.2313 87.9883 56.3039 88.038 56.3626 88.1041C56.4213 88.1703 56.4643 88.2508 56.4879 88.339C56.5116 88.4271 56.5152 88.5201 56.4984 88.61C56.4816 88.7 56.4449 88.7842 56.3915 88.8554C56.4962 88.9278 56.5831 89.0268 56.6446 89.1437C56.7061 89.2607 56.7404 89.3922 56.7445 89.5267ZM56.3977 89.5267C56.3977 89.4089 56.3548 89.2958 56.2782 89.2122C56.2017 89.1286 56.0977 89.0812 55.989 89.0803C55.9322 89.0749 55.8749 89.0824 55.8209 89.1023C55.7668 89.1223 55.7172 89.1541 55.6751 89.196C55.633 89.2378 55.5994 89.2886 55.5764 89.3453C55.5535 89.4019 55.5416 89.4632 55.5416 89.525C55.5416 89.5869 55.5535 89.6482 55.5764 89.7048C55.5994 89.7615 55.633 89.8123 55.6751 89.8541C55.7172 89.896 55.7668 89.9278 55.8209 89.9478C55.8749 89.9677 55.9322 89.9752 55.989 89.9698C56.0974 89.9698 56.2014 89.9231 56.278 89.84C56.3547 89.7569 56.3977 89.6442 56.3977 89.5267ZM55.8095 88.4995C55.8061 88.527 55.8082 88.555 55.8156 88.5815C55.8231 88.608 55.8356 88.6325 55.8525 88.6534C55.8693 88.6742 55.8901 88.6909 55.9134 88.7024C55.9367 88.7138 55.9619 88.7197 55.9875 88.7197C56.0131 88.7197 56.0383 88.7138 56.0616 88.7024C56.0849 88.6909 56.1057 88.6742 56.1225 88.6534C56.1394 88.6325 56.1519 88.608 56.1594 88.5815C56.1668 88.555 56.1689 88.527 56.1655 88.4995C56.1598 88.4527 56.1386 88.4098 56.1059 88.3786C56.0731 88.3475 56.031 88.3303 55.9875 88.3303C55.9439 88.3303 55.9019 88.3475 55.8691 88.3786C55.8364 88.4098 55.8152 88.4527 55.8095 88.4995Z" fill="#082B27"/>
<path d="M80.5777 96.1396C80.6518 96.2183 80.7105 96.3123 80.7504 96.4161C80.7903 96.5199 80.8105 96.6313 80.8099 96.7438C80.8084 96.9704 80.7251 97.1873 80.5777 97.348C80.5046 97.4273 80.4176 97.49 80.322 97.5326C80.2263 97.5753 80.1239 97.597 80.0204 97.5964C79.9176 97.5971 79.8158 97.5752 79.721 97.5319C79.6263 97.4886 79.5407 97.4249 79.4693 97.3447C79.4519 97.3271 79.438 97.3058 79.4285 97.2821C79.419 97.2584 79.4141 97.2329 79.4141 97.207C79.4141 97.1812 79.419 97.1556 79.4285 97.132C79.438 97.1083 79.4519 97.087 79.4693 97.0694C79.5034 97.0337 79.5489 97.0138 79.5963 97.0138C79.6436 97.0138 79.6892 97.0337 79.7232 97.0694C79.7627 97.1153 79.8107 97.1517 79.8641 97.176C79.9174 97.2003 79.975 97.212 80.0328 97.2104C80.0906 97.211 80.1478 97.1988 80.201 97.1745C80.2543 97.1503 80.3024 97.1145 80.3424 97.0694C80.3831 97.0254 80.4152 96.973 80.437 96.9154C80.4588 96.8577 80.4698 96.796 80.4694 96.7337C80.4709 96.6713 80.4604 96.6092 80.4385 96.5514C80.4166 96.4936 80.3839 96.4414 80.3424 96.398C80.3021 96.3534 80.2539 96.3179 80.2007 96.2937C80.1476 96.2695 80.0905 96.257 80.0328 96.257C79.9752 96.257 79.9181 96.2695 79.8649 96.2937C79.8117 96.3179 79.7636 96.3534 79.7232 96.398C79.6892 96.4337 79.6436 96.4537 79.5963 96.4537C79.5489 96.4537 79.5034 96.4337 79.4693 96.398C79.4587 96.3809 79.4462 96.3651 79.4322 96.351C79.4338 96.3456 79.4338 96.3397 79.4322 96.3342C79.4322 96.3342 79.4322 96.3343 79.4322 96.3108C79.4291 96.2908 79.4291 96.2703 79.4322 96.2503L79.5282 95.3608C79.5316 95.3329 79.5406 95.3061 79.5545 95.2824C79.5684 95.2586 79.5869 95.2384 79.6087 95.2231C79.6337 95.2063 79.6628 95.1981 79.6923 95.1996H80.6211C80.6687 95.1996 80.7144 95.2202 80.7481 95.2567C80.7817 95.2932 80.8006 95.3427 80.8006 95.3943C80.8006 95.446 80.7817 95.4955 80.7481 95.532C80.7144 95.5685 80.6687 95.589 80.6211 95.589H79.8409L79.8006 95.9247C79.8704 95.905 79.9422 95.8948 80.0142 95.8945C80.1186 95.8921 80.2222 95.9125 80.3191 95.9546C80.4159 95.9967 80.5039 96.0596 80.5777 96.1396Z" fill="#082B27"/>
<path d="M63.1841 95.4481L62.3884 97.4824C62.3753 97.5168 62.353 97.5461 62.3242 97.5664C62.2955 97.5868 62.2618 97.5973 62.2274 97.5965C62.2049 97.601 62.1818 97.601 62.1593 97.5965C62.1174 97.5758 62.0842 97.5388 62.0664 97.4927C62.0486 97.4466 62.0475 97.395 62.0633 97.3481L62.7507 95.5824H61.9302C61.8837 95.5806 61.8396 95.5594 61.8072 95.523C61.7749 95.4867 61.7568 95.4382 61.7568 95.3877C61.7568 95.3378 61.7751 95.29 61.8076 95.2548C61.8401 95.2195 61.8842 95.1997 61.9302 95.1997H63.0603C63.0829 95.2057 63.1047 95.2147 63.1253 95.2266C63.1266 95.2332 63.1266 95.2401 63.1253 95.2467L63.1408 95.2635V95.2803C63.1499 95.3165 63.1499 95.3548 63.1408 95.391L63.1841 95.4481Z" fill="#082B27"/>
<path d="M72.0725 99.1172C72.0828 99.3398 72.0111 99.5577 71.8732 99.7229C71.7353 99.8882 71.5425 99.9873 71.3372 99.9984C71.1319 100.01 70.931 99.9318 70.7786 99.7823C70.6262 99.6328 70.5348 99.4237 70.5245 99.2012C70.5245 99.1374 70.5245 99.0702 70.5245 99.0065C70.5222 98.765 70.56 98.5251 70.636 98.2982C70.7114 98.0604 70.8545 97.8547 71.0446 97.7107C71.1863 97.609 71.3516 97.5531 71.5214 97.5496C71.5445 97.5482 71.5675 97.5519 71.5892 97.5603C71.6109 97.5687 71.6309 97.5817 71.6479 97.5986C71.6649 97.6155 71.6786 97.6359 71.6883 97.6586C71.6979 97.6813 71.7033 97.7059 71.7041 97.7309C71.705 97.7817 71.6878 97.831 71.6561 97.8685C71.6244 97.906 71.5806 97.9288 71.5338 97.9323C71.4245 97.9313 71.3172 97.9639 71.2242 98.0263C71.1404 98.0883 71.0714 98.1712 71.023 98.268C71.0077 98.2972 70.9943 98.3274 70.9827 98.3586C71.0801 98.3115 71.1857 98.2874 71.2923 98.2881C71.3939 98.2863 71.4949 98.3064 71.5893 98.3473C71.6836 98.3881 71.7696 98.4488 71.8422 98.526C71.9148 98.6031 71.9725 98.6951 72.012 98.7966C72.0516 98.8981 72.0721 99.0071 72.0725 99.1172ZM71.7196 99.1172C71.7246 99.0547 71.7175 98.9917 71.6988 98.9322C71.6802 98.8728 71.6503 98.8182 71.6112 98.7719C71.572 98.7256 71.5244 98.6887 71.4714 98.6634C71.4184 98.6381 71.3611 98.6251 71.3032 98.6251C71.2453 98.6251 71.188 98.6381 71.1349 98.6634C71.0819 98.6887 71.0343 98.7256 70.9952 98.7719C70.956 98.8182 70.9262 98.8728 70.9075 98.9322C70.8888 98.9917 70.8818 99.0547 70.8868 99.1172C70.8818 99.1798 70.8888 99.2428 70.9075 99.3022C70.9262 99.3617 70.956 99.4163 70.9952 99.4626C71.0343 99.5088 71.0819 99.5458 71.1349 99.571C71.188 99.5963 71.2453 99.6094 71.3032 99.6094C71.3611 99.6094 71.4184 99.5963 71.4714 99.571C71.5244 99.5458 71.572 99.5088 71.6112 99.4626C71.6503 99.4163 71.6802 99.3617 71.6988 99.3022C71.7175 99.2428 71.7246 99.1798 71.7196 99.1172Z" fill="#082B27"/>
<path d="M122.536 143.277H115.666V151.273H122.536V143.277Z" fill="#37D2D0"/>
<path opacity="0.2" d="M122.536 143.277H115.666V151.273H122.536V143.277Z" fill="black"/>
<path opacity="0.1" d="M122.536 143.277H115.666V145.002H122.536V143.277Z" fill="black"/>
<path d="M184.701 130.097V135.851L124.074 143.276H114.13L53.5029 135.851V130.097H61.5805V131.93L114.13 133.981H124.074L176.621 131.93V130.097H184.701Z" fill="#082B27"/>
<path d="M123.762 148.973H114.442V151.276H123.762V148.973Z" fill="#37D2D0"/>
<path d="M197.972 151.276H40.2342C39.7978 151.275 39.3656 151.368 38.9624 151.549C38.5592 151.73 38.1928 151.995 37.8842 152.33C37.5756 152.664 37.331 153.062 37.1642 153.499C36.9974 153.936 36.9117 154.405 36.9121 154.878V162.176H201.294V154.878C201.294 153.922 200.944 153.006 200.321 152.331C199.698 151.655 198.853 151.276 197.972 151.276Z" fill="#37D2D0"/>
<path opacity="0.2" d="M197.972 151.276H40.2342C39.7978 151.275 39.3656 151.368 38.9624 151.549C38.5592 151.73 38.1928 151.995 37.8842 152.33C37.5756 152.664 37.331 153.062 37.1642 153.499C36.9974 153.936 36.9117 154.405 36.9121 154.878V162.176H201.294V154.878C201.294 153.922 200.944 153.006 200.321 152.331C199.698 151.655 198.853 151.276 197.972 151.276Z" fill="black"/>
<path opacity="0.2" d="M55.1628 151.272C54.2828 151.273 53.4391 151.653 52.8168 152.327C52.1946 153.002 51.8446 153.917 51.8438 154.871V162.175H45.2275V154.871C45.2275 153.917 45.5772 153.001 46.1996 152.326C46.8221 151.652 47.6663 151.272 48.5465 151.272H55.1628Z" fill="white"/>
<path opacity="0.1" d="M201.293 154.871V162.175H190.264V154.871C190.263 153.917 189.912 153.002 189.289 152.327C188.667 151.653 187.823 151.273 186.942 151.272H197.974C198.854 151.273 199.697 151.653 200.32 152.327C200.942 153.002 201.292 153.917 201.293 154.871Z" fill="black"/>
<path d="M204.963 162.176H33.2432V168.913H204.963V162.176Z" fill="#37D2D0"/>
<g opacity="0.4">
<path d="M204.963 162.176H33.2432V168.913H204.963V162.176Z" fill="black"/>
</g>
<g opacity="0.4">
<path d="M204.959 162.176H191.938V168.913H204.959V162.176Z" fill="black"/>
</g>
<g opacity="0.4">
<path d="M45.2245 162.176H37.5029V168.913H45.2245V162.176Z" fill="#37D2D0"/>
</g>
<g opacity="0.4">
<path d="M50.8433 162.176H47.6172V168.913H50.8433V162.176Z" fill="#37D2D0"/>
</g>
<path d="M24.4473 108.708V113.485C24.4469 114.376 24.6084 115.258 24.9227 116.082C25.2369 116.905 25.6978 117.654 26.2788 118.284C26.8599 118.914 27.5498 119.414 28.3092 119.755C29.0685 120.096 29.8824 120.272 30.7044 120.272H84.5293C86.1896 120.272 87.7819 119.557 88.9559 118.284C90.1299 117.011 90.7895 115.285 90.7895 113.485V108.708H24.4473Z" fill="#37D2D0"/>
<path opacity="0.2" d="M24.4473 108.708V113.485C24.4469 114.376 24.6084 115.258 24.9227 116.082C25.2369 116.905 25.6978 117.654 26.2788 118.284C26.8599 118.914 27.5498 119.414 28.3092 119.755C29.0685 120.096 29.8824 120.272 30.7044 120.272H84.5293C86.1896 120.272 87.7819 119.557 88.9559 118.284C90.1299 117.011 90.7895 115.285 90.7895 113.485V108.708H24.4473Z" fill="black"/>
<path opacity="0.1" d="M90.7888 108.708V113.488C90.788 115.287 90.1281 117.013 88.9541 118.285C87.7802 119.557 86.1883 120.272 84.5286 120.272H71.875C73.5345 120.272 75.126 119.557 76.2995 118.285C77.4729 117.013 78.1321 115.287 78.1321 113.488V108.708H90.7888Z" fill="black"/>
<path opacity="0.2" d="M43.8093 120.272H35.5862C33.9267 120.272 32.3352 119.557 31.1618 118.285C29.9883 117.013 29.3291 115.287 29.3291 113.488V108.708H37.5522V113.488C37.553 115.287 38.2125 117.012 39.3858 118.284C40.5591 119.556 42.1501 120.271 43.8093 120.272Z" fill="white"/>
<path opacity="0.1" d="M24.4473 108.708V110.863L90.7895 109.785V108.708H24.4473Z" fill="black"/>
<path d="M93.3927 105.18H21.8398V108.708H93.3927V105.18Z" fill="#37D2D0"/>
<path opacity="0.2" d="M93.3927 105.18H21.8398V108.708H93.3927V105.18Z" fill="black"/>
<path d="M63.2127 120.272H52.0205V130.366H63.2127V120.272Z" fill="#37D2D0"/>
<path opacity="0.2" d="M63.2127 120.272H52.0205V130.366H63.2127V120.272Z" fill="black"/>
<path opacity="0.1" d="M63.2127 120.272H52.0205V122.108H63.2127V120.272Z" fill="black"/>
<path d="M57.618 127.17C58.5602 127.17 59.324 126.342 59.324 125.321C59.324 124.299 58.5602 123.471 57.618 123.471C56.6759 123.471 55.9121 124.299 55.9121 125.321C55.9121 126.342 56.6759 127.17 57.618 127.17Z" fill="#455A64"/>
<path d="M59.3207 125.321C59.3213 125.42 59.3141 125.518 59.299 125.616H55.9398C55.9068 125.421 55.9068 125.22 55.9398 125.025H59.3052C59.3182 125.123 59.3233 125.222 59.3207 125.321Z" fill="#126057"/>
<path d="M147.416 108.708V113.485C147.416 115.285 148.076 117.011 149.25 118.284C150.424 119.557 152.016 120.272 153.676 120.272H207.498C209.158 120.272 210.751 119.557 211.925 118.284C213.099 117.011 213.758 115.285 213.758 113.485V108.708H147.416Z" fill="#37D2D0"/>
<path opacity="0.2" d="M147.416 108.708V113.485C147.416 115.285 148.076 117.011 149.25 118.284C150.424 119.557 152.016 120.272 153.676 120.272H207.498C209.158 120.272 210.751 119.557 211.925 118.284C213.099 117.011 213.758 115.285 213.758 113.485V108.708H147.416Z" fill="black"/>
<path opacity="0.1" d="M213.758 108.708V113.488C213.757 115.287 213.097 117.012 211.924 118.284C210.751 119.556 209.16 120.271 207.5 120.272H194.844C196.504 120.272 198.095 119.557 199.269 118.285C200.443 117.013 201.103 115.287 201.104 113.488V108.708H213.758Z" fill="black"/>
<path opacity="0.2" d="M166.779 120.272H158.556C156.896 120.272 155.305 119.557 154.131 118.285C152.958 117.013 152.299 115.287 152.299 113.488V108.708H160.522V113.488C160.523 115.287 161.182 117.012 162.356 118.284C163.529 119.556 165.12 120.271 166.779 120.272Z" fill="white"/>
<path opacity="0.1" d="M147.416 108.708V110.863L213.758 109.785V108.708H147.416Z" fill="black"/>
<path d="M216.361 105.18H144.809V108.708H216.361V105.18Z" fill="#37D2D0"/>
<path opacity="0.2" d="M216.361 105.18H144.809V108.708H216.361V105.18Z" fill="black"/>
<path d="M186.181 120.272H174.989V130.366H186.181V120.272Z" fill="#37D2D0"/>
<path opacity="0.2" d="M186.181 120.272H174.989V130.366H186.181V120.272Z" fill="black"/>
<path opacity="0.1" d="M186.181 120.272H174.989V122.108H186.181V120.272Z" fill="black"/>
<path d="M180.587 127.17C181.529 127.17 182.293 126.342 182.293 125.321C182.293 124.299 181.529 123.471 180.587 123.471C179.645 123.471 178.881 124.299 178.881 125.321C178.881 126.342 179.645 127.17 180.587 127.17Z" fill="#455A64"/>
<path d="M182.293 125.321C182.292 125.42 182.284 125.518 182.268 125.616H178.903C178.87 125.421 178.87 125.22 178.903 125.025H182.259C182.278 125.122 182.289 125.221 182.293 125.321Z" fill="#126057"/>
<path d="M119.103 145.932C122.672 145.932 125.565 142.795 125.565 138.926C125.565 135.057 122.672 131.92 119.103 131.92C115.534 131.92 112.642 135.057 112.642 138.926C112.642 142.795 115.534 145.932 119.103 145.932Z" fill="#37D2D0"/>
<path d="M123.317 139.67C123.695 137.148 122.115 134.772 119.789 134.363C117.464 133.953 115.272 135.666 114.895 138.187C114.517 140.709 116.096 143.085 118.422 143.495C120.748 143.904 122.939 142.191 123.317 139.67Z" fill="#37D2D0"/>
<path opacity="0.2" d="M123.317 139.67C123.695 137.148 122.115 134.772 119.789 134.363C117.464 133.953 115.272 135.666 114.895 138.187C114.517 140.709 116.096 143.085 118.422 143.495C120.748 143.904 122.939 142.191 123.317 139.67Z" fill="black"/>
</svg>
