<svg width="145" height="121" viewBox="0 0 145 121" fill="none" xmlns="http://www.w3.org/2000/svg">
<path opacity="0.8" d="M61.9837 73.3345C61.6614 73.0553 61.1517 72.9032 60.7546 72.9684C59.4099 73.1887 56.3201 74.0395 54.4885 77.2895C52.3394 81.1026 55.0119 84.0403 55.5743 84.5957C54.7544 85.5872 54.111 86.2277 53.8443 86.4819C53.0093 85.9423 52.1261 85.3615 51.2042 84.7423C49.71 83.7475 48.1303 82.6452 46.4758 81.4702C46.067 81.1737 45.6523 80.8732 45.2327 80.5693C45.0228 80.4172 44.8118 80.264 44.5996 80.11C44.3908 79.9542 44.1808 79.7977 43.9698 79.6401C43.5477 79.3252 43.1208 79.0066 42.6899 78.685C42.2774 78.3683 41.8605 78.0482 41.4406 77.7256C41.9006 77.3396 42.796 76.568 43.8947 75.5249C44.8235 75.6391 49.7789 76.07 52.0366 72.6528C53.95 69.7574 52.4252 67.545 51.6075 66.6688C51.3685 66.4128 50.9354 66.2456 50.5634 66.2666C49.3034 66.338 46.3432 66.7859 44.0685 69.3121C41.3846 72.2926 43.2858 74.9437 43.6759 75.4258C42.603 76.4438 41.7268 77.2 41.263 77.5893C40.4443 76.9639 39.6421 76.3164 38.8204 75.6648C38.3813 75.3216 37.9637 74.9662 37.5324 74.6137C37.1048 74.2597 36.6694 73.9058 36.2425 73.547C34.8525 72.3636 33.4607 71.1567 32.1185 69.9291C32.3535 69.7832 32.7465 69.5357 33.257 69.2017C33.8161 68.8359 34.5181 68.3637 35.3022 67.8127C36.0746 67.9567 40.7364 68.6823 43.3569 65.787C45.5506 63.3631 44.4283 61.3326 43.7834 60.5153C43.5948 60.2766 43.2122 60.1043 42.8608 60.1006C41.6704 60.0877 38.8347 60.3035 36.3534 62.3819C33.489 64.7811 34.7803 67.166 35.1173 67.6853C33.6456 68.7206 32.4714 69.4668 31.9616 69.784C31.7226 69.5644 31.4813 69.3453 31.2463 69.1243C29.0092 67.0448 26.9032 64.9244 24.9949 62.8353C25.3452 62.6725 26.3739 62.1698 27.6755 61.3182C27.9647 61.1289 28.2704 60.916 28.582 60.6925C29.3245 60.7956 33.1306 61.1831 34.9954 58.6266C36.5825 56.4506 35.4753 54.7431 34.8709 54.0632C34.6941 53.8646 34.3638 53.7309 34.0739 53.7413C33.0927 53.7766 30.7778 54.0731 28.923 55.9626C26.7897 58.1353 28.0505 60.1352 28.3805 60.5805C26.719 61.7731 25.3161 62.47 24.8572 62.6851C24.0583 61.807 23.2915 60.9341 22.5707 60.0737C22.0694 59.477 21.5895 58.887 21.1291 58.3039C21.1354 58.297 21.1427 58.2907 21.1435 58.2811C21.146 58.2421 21.0971 58.1986 21.0337 58.1824C20.8735 57.9784 20.7155 57.7754 20.5604 57.5736C20.7398 57.3018 21.5239 56.1092 22.4746 54.6131C23.2572 54.6359 26.8192 54.5795 27.8814 51.7417C28.7971 49.2942 27.326 47.6361 26.5879 46.9945C26.3721 46.807 26.0299 46.7042 25.7629 46.7473C24.8587 46.8935 22.7803 47.4611 21.5412 49.639C20.096 52.1792 21.8539 54.1442 22.2447 54.5342C21.3891 55.8808 20.6702 56.9788 20.4087 57.3762C18.9107 55.4134 17.6544 53.5545 16.643 51.8824C16.4578 51.5796 16.2762 51.2831 16.0987 50.9933C15.9222 50.7034 15.7812 50.4191 15.6268 50.1425C15.586 50.067 15.5473 49.9962 15.5068 49.9218C15.8725 49.7012 17.1782 48.7009 16.015 46.1937C14.9882 43.9805 13.2888 42.7854 12.5499 42.3474C12.3319 42.2182 12.0534 42.1813 11.8789 42.2583C11.2815 42.5216 10.0936 43.3562 10.8586 45.6752C11.7581 48.4018 14.7344 49.7016 15.3163 49.9329C15.3543 50.0051 15.39 50.0732 15.4283 50.1465C15.5779 50.4238 15.7138 50.7093 15.885 51.0003C16.0574 51.2912 16.2338 51.5888 16.4139 51.8931C17.5045 53.7567 18.8956 55.855 20.5847 58.0734C19.6393 57.8454 17.3019 57.2845 14.6173 56.6591C14.2711 56.2657 12.466 54.4462 7.91137 53.44C3.98366 52.5722 1.89605 52.9881 1.13475 53.23C0.910074 53.3015 0.851879 53.489 0.994785 53.6816C1.4828 54.3405 3.00873 55.8841 7.13312 57.0333C11.9098 58.3644 14.1525 57.1003 14.5974 56.7986C17.4342 57.4594 19.8868 58.0491 20.7206 58.2505C21.1958 58.8704 21.6923 59.4991 22.2138 60.1348C23.086 61.2022 24.0241 62.2884 25.013 63.3823C24.3924 63.4353 22.6731 63.5683 20.3059 63.6412C19.826 63.299 17.2353 61.6166 12.5389 61.5131C8.53309 61.4247 6.86683 62.3716 6.30626 62.8191C6.14089 62.9513 6.18729 63.1768 6.41786 63.3628C7.20642 63.9981 9.399 65.3995 13.7308 65.7623C18.7509 66.1826 20.1085 64.2371 20.3501 63.7952C22.7843 63.7211 24.5437 63.5834 25.1459 63.5314C26.8803 65.4412 28.7753 67.3733 30.7756 69.2731C31.2106 69.6908 31.6541 70.1055 32.1016 70.5184C31.5377 70.6016 29.8276 70.8469 27.4564 71.1224C26.8185 70.757 23.6119 69.0967 18.6253 69.5195C14.3399 69.883 12.8232 71.1964 12.3481 71.7909C12.2078 71.9662 12.3183 72.2274 12.6137 72.42C13.6247 73.0789 16.3362 74.4789 21.0425 74.4015C26.5971 74.3102 27.4479 71.7614 27.5602 71.2738C29.9981 70.9906 31.7399 70.7394 32.2592 70.6624C33.3955 71.7062 34.5619 72.7356 35.7276 73.7485C36.1512 74.112 36.5836 74.4704 37.0079 74.8291C37.4362 75.186 37.851 75.5462 38.2871 75.8943C39.1511 76.5934 39.9935 77.2895 40.8575 77.958C40.9647 78.0419 41.0697 78.1241 41.1761 78.2077C40.782 78.3502 39.6646 78.7381 37.8933 79.2342C37.1228 78.8788 33.1277 77.2217 27.7547 78.3488C23.1626 79.3123 21.8705 81.0968 21.5173 81.8783C21.4131 82.1093 21.6075 82.4135 21.9854 82.6124C23.2782 83.2923 26.6428 84.6679 31.7767 84.0017C37.914 83.205 38.0554 79.9259 38.0359 79.3793C39.8366 78.8751 40.964 78.4821 41.3485 78.3429C41.6104 78.548 41.8733 78.7539 42.1323 78.9568C42.561 79.2832 42.9857 79.6062 43.4055 79.9259C43.6155 80.0857 43.8247 80.2448 44.0324 80.4028C44.2438 80.559 44.4538 80.7144 44.6626 80.8688C45.0803 81.1774 45.4931 81.4828 45.9001 81.7837C47.548 82.9774 49.1225 84.0974 50.6135 85.1096C51.6164 85.7965 52.5733 86.4362 53.4734 87.0274C53.0966 87.1802 51.9405 87.6347 50.1615 88.213C49.5225 87.9227 44.9624 86.0057 38.9695 87.4469C34.0135 88.6387 32.7071 90.6645 32.3675 91.5466C32.2673 91.807 32.4971 92.1422 32.9211 92.3547C34.3719 93.0814 38.1243 94.5329 43.6895 93.6592C50.2212 92.6339 50.3037 89.0803 50.254 88.3743C52.1184 87.7703 53.3143 87.297 53.6661 87.1537C55.3485 88.2557 56.8207 89.1794 57.9879 89.8958C58.9031 90.4571 59.6328 90.8917 60.1355 91.1856C60.6353 91.4796 60.916 91.6368 60.916 91.6368L61.4743 91.126C61.4743 91.126 61.2132 90.9823 60.716 90.6958C60.2195 90.4111 59.4943 89.9875 58.5816 89.4387C57.3665 88.7076 55.8163 87.7529 54.0384 86.6071C54.3003 86.3581 54.9544 85.7095 55.7898 84.6989C56.6468 84.7357 62.3115 84.8097 63.9373 80.4091C65.2849 76.7576 63.0861 74.2892 61.9837 73.3345Z" fill="#020C0C"/>
<g opacity="0.7">
<path d="M50.5046 86.4301C50.5046 86.4301 47.2115 93.6966 37.0641 93.8129C29.2897 93.9021 26.0444 90.5714 24.952 89.009C24.6327 88.5523 24.6747 87.9391 25.0544 87.531C26.3402 86.1487 29.9467 83.1031 37.2759 82.3359C46.8414 81.3348 50.5046 86.4301 50.5046 86.4301Z" fill="url(#paint0_radial_1348_10763)"/>
</g>
<g opacity="0.7">
<path d="M60.7426 81.8513C60.7426 81.8513 68.3538 84.2417 75.2063 76.7564C80.4559 71.0214 80.1373 66.3825 79.7012 64.5262C79.5738 63.9836 79.0883 63.6061 78.5314 63.6168C76.6438 63.6536 71.9695 64.3107 66.5115 69.262C59.3875 75.724 60.7426 81.8513 60.7426 81.8513Z" fill="url(#paint1_linear_1348_10763)"/>
</g>
<g opacity="0.7">
<path d="M54.8976 63.664C54.8976 63.664 61.198 66.6248 68.0019 60.9572C73.2147 56.6148 73.4839 52.5663 73.3248 50.9103C73.2784 50.4263 72.9031 50.0429 72.4202 49.9866C70.7838 49.7965 66.6649 49.816 61.3642 53.4561C54.4454 58.207 54.8976 63.664 54.8976 63.664Z" fill="url(#paint2_linear_1348_10763)"/>
</g>
<g opacity="0.7">
<path d="M51.8125 48.755C51.8125 48.755 57.2717 51.9811 63.9282 47.4258C69.0279 43.9356 69.6198 40.2875 69.618 38.7722C69.6172 38.3291 69.31 37.9494 68.8769 37.8569C67.4092 37.5442 63.6726 37.208 58.553 40.0536C51.8711 43.7677 51.8125 48.755 51.8125 48.755Z" fill="url(#paint3_radial_1348_10763)"/>
</g>
<g opacity="0.7">
<path d="M50.4028 35.2802C50.4028 35.2802 55.1846 37.6938 60.5399 33.4817C64.6429 30.2549 64.9376 27.1467 64.851 25.8694C64.8256 25.4959 64.5453 25.1932 64.1752 25.1394C62.9207 24.9578 59.7524 24.8838 55.5968 27.5688C50.1729 31.0733 50.4028 35.2802 50.4028 35.2802Z" fill="url(#paint4_radial_1348_10763)"/>
</g>
<g opacity="0.7">
<path d="M48.7136 23.6979C48.7136 23.6979 53.8199 25.3152 58.4327 20.3006C61.9667 16.4587 61.7604 13.3435 61.4705 12.0968C61.3858 11.7325 61.0606 11.478 60.6868 11.4842C59.4194 11.506 56.2799 11.9395 52.6074 15.2547C47.8134 19.5817 48.7136 23.6979 48.7136 23.6979Z" fill="url(#paint5_radial_1348_10763)"/>
</g>
<g opacity="0.7">
<path d="M44.0822 68.5708C44.0822 68.5708 40.8878 75.0469 31.7046 74.8509C24.6691 74.701 21.8319 71.5921 20.8898 70.1457C20.6143 69.7232 20.6706 69.1693 21.0261 68.8116C22.2304 67.5992 25.5832 64.951 32.2361 64.4744C40.9195 63.853 44.0822 68.5708 44.0822 68.5708Z" fill="url(#paint6_radial_1348_10763)"/>
</g>
<g opacity="0.7">
<path d="M39.0147 52.5427C39.0147 52.5427 35.4892 57.6092 27.752 56.273C21.8243 55.2494 19.8225 52.2598 19.2108 50.9173C19.0318 50.5251 19.15 50.0643 19.4962 49.8072C20.6686 48.9358 23.8401 47.1248 29.5243 47.5704C36.9429 48.152 39.0147 52.5427 39.0147 52.5427Z" fill="url(#paint7_radial_1348_10763)"/>
</g>
<path d="M37.4128 38.3449C37.4128 38.3449 33.6817 42.3002 27.115 40.1294C22.0839 38.466 20.7288 35.6013 20.3705 34.352C20.2655 33.987 20.4286 33.601 20.7634 33.422C21.8982 32.8154 24.897 31.6504 29.7912 32.7778C36.1789 34.2499 37.4128 38.3449 37.4128 38.3449Z" fill="url(#paint8_radial_1348_10763)"/>
<g opacity="0.7">
<path d="M37.131 25.3681C37.131 25.3681 32.6788 27.8222 27.4539 24.0124C23.4507 21.0935 23.064 18.1554 23.1019 16.9411C23.113 16.586 23.3682 16.2892 23.7177 16.2255C24.9015 16.01 27.904 15.8302 31.9382 18.2335C37.204 21.3701 37.131 25.3681 37.131 25.3681Z" fill="url(#paint9_radial_1348_10763)"/>
</g>
<g opacity="0.7">
<path d="M44.6655 14.308C44.6655 14.308 41.4818 11.3279 43.2026 6.05439C44.5211 2.01397 46.8146 0.918606 47.8154 0.627269C48.1078 0.542188 48.4179 0.671466 48.5627 0.9396C49.0525 1.84786 49.9962 4.24928 49.107 8.1781C47.9461 13.3061 44.6655 14.308 44.6655 14.308Z" fill="url(#paint10_radial_1348_10763)"/>
</g>
<path opacity="0.7" d="M31.2721 88.3683C31.2717 88.2913 31.3328 88.2287 31.4106 88.2287C43.8342 88.1643 54.1013 85.6133 55.7201 85.1901C55.1798 83.9879 54.6162 82.6904 54.0413 81.3037C53.1783 79.2573 52.3165 77.0106 51.4358 74.6243C51.2241 74.0246 51.0093 73.4165 50.7924 72.8015C50.6838 72.4939 50.5747 72.1842 50.465 71.8729C50.3615 71.5595 50.2572 71.2439 50.1526 70.9271C49.9434 70.2932 49.7317 69.6524 49.518 69.0052C49.3946 68.6049 49.269 68.1983 49.1442 67.7931C47.6312 68.1309 39.0155 69.9224 26.6703 69.8844C26.5937 69.8844 26.5315 69.8218 26.5315 69.7452C26.5319 69.6678 26.5952 69.606 26.6707 69.6063C38.9293 69.6439 47.4989 67.8741 49.0617 67.5261C49.0109 67.3611 48.9608 67.199 48.9096 67.0333C48.4893 65.711 48.1232 64.3483 47.7328 62.9756C47.5313 62.2909 47.3678 61.5907 47.1848 60.8927C47.008 60.1929 46.8212 59.492 46.6503 58.7841C46.1921 56.8155 45.7494 54.8196 45.3583 52.8071C43.7244 52.809 33.4219 52.7636 23.6424 51.4042C23.5662 51.3935 23.5131 51.3235 23.5238 51.2477C23.5341 51.1714 23.6049 51.1184 23.6804 51.1291C33.3343 52.4708 43.5034 52.5298 45.3027 52.5294C45.1502 51.7338 45.0047 50.9364 44.8725 50.1361C44.2441 46.4898 43.7789 42.8155 43.4917 39.2185C41.8022 39.0888 33.3181 38.3327 25.059 35.7166C24.9857 35.6934 24.9452 35.6153 24.9687 35.5423C24.9919 35.4691 25.07 35.4282 25.1429 35.4517C33.3151 38.0399 41.7075 38.8008 43.4721 38.9378C43.3127 36.8786 43.2092 34.8444 43.1694 32.8573C43.1432 31.6736 43.1407 30.5078 43.1569 29.3616C41.3157 28.1805 31.6264 21.9917 26.979 19.5324C26.9112 19.4967 26.8851 19.4124 26.9212 19.3446C26.9565 19.2764 27.0409 19.2499 27.109 19.2868C31.6551 21.6922 41.0055 27.6527 43.162 29.0342C43.2335 24.9349 43.5569 21.1077 44.025 17.7446C44.0986 17.1955 44.1705 16.6577 44.2412 16.1321C44.313 15.6069 44.4231 15.0997 44.5086 14.6018C44.6902 13.6084 44.8625 12.6659 45.0242 11.7801C45.2286 10.9032 45.4202 10.0829 45.5969 9.3242C45.7815 8.56768 45.924 7.86567 46.1008 7.24433C46.8212 4.76262 47.233 3.34424 47.233 3.34424L47.3243 3.3726C47.3243 3.3726 46.9328 4.7943 46.2474 7.2819C46.0794 7.90435 45.9468 8.60746 45.773 9.36472C45.6069 10.1238 45.4272 10.9452 45.2353 11.8221C45.0861 12.7075 44.927 13.6497 44.7594 14.643C44.6809 15.1403 44.5782 15.6471 44.5137 16.1719C44.4508 16.6968 44.3863 17.2341 44.3204 17.7826C43.9417 20.8079 43.6843 24.2038 43.6261 27.8317C45.2898 26.4424 53.7632 19.345 58.4228 15.018C58.4795 14.9664 58.5668 14.969 58.6195 15.0254C58.6718 15.0817 58.6685 15.1697 58.6121 15.222C53.7371 19.749 44.6964 27.3017 43.622 28.1974C43.6173 28.5709 43.615 28.9466 43.6147 29.3248C43.6777 29.3672 43.6961 29.4515 43.6548 29.5156C43.6445 29.5314 43.629 29.5403 43.6143 29.5502C43.6162 30.6316 43.6349 31.7295 43.6747 32.8433C43.7289 34.4496 43.8283 36.0874 43.9624 37.7419C45.4971 37.2605 53.3743 34.5888 61.2662 28.2501C61.327 28.2003 61.4135 28.2114 61.4618 28.2714C61.51 28.3315 61.5004 28.4188 61.4408 28.4666C56.8007 32.1936 52.164 34.6595 48.8042 36.1615C46.3527 37.258 44.5819 37.8406 43.9867 38.0255C44.3152 41.9635 44.8585 46.0021 45.6047 50.005C45.6809 50.43 45.7664 50.8525 45.8485 51.276C48.0252 50.3486 56.8284 46.496 64.988 41.4689C65.0517 41.4284 65.1386 41.449 65.1795 41.5146C65.2197 41.5798 65.1994 41.6656 65.1339 41.7061C58.6084 45.7263 51.673 48.9965 48.0297 50.6259C47.0684 51.0558 46.3376 51.3707 45.9027 51.5556C46.37 53.9235 46.9196 56.2693 47.4897 58.576C47.6695 59.2769 47.8643 59.9712 48.0496 60.664C48.2411 61.3553 48.4127 62.0481 48.6223 62.7258C49.0064 64.0091 49.37 65.2816 49.7759 66.521C52.3088 65.1096 60.9347 60.1502 68.8384 53.838C68.8984 53.789 68.9857 53.8001 69.0339 53.8601C69.0818 53.9198 69.0719 54.0078 69.0118 54.0557C61.0422 60.4206 52.3401 65.412 49.8628 66.7909C50.0694 67.4296 50.2742 68.0635 50.4771 68.6907C50.6981 69.3305 50.9173 69.964 51.1338 70.5908C51.2421 70.9043 51.35 71.2159 51.4568 71.5256C51.5703 71.8332 51.6826 72.1392 51.7946 72.4435C52.0185 73.0516 52.2399 73.6523 52.4583 74.2449C53.3651 76.6025 54.2512 78.8205 55.1352 80.8392C55.6755 82.0937 56.2055 83.2749 56.7156 84.3758C58.3572 83.3659 66.7618 77.9748 75.6098 68.2937C75.6618 68.238 75.7494 68.2329 75.8065 68.2848C75.8629 68.3368 75.8669 68.4248 75.8154 68.4815C66.9043 78.2315 58.4309 83.6491 56.8342 84.6295C57.9237 86.9683 58.9167 88.9344 59.7119 90.4467C60.3093 91.5819 60.7969 92.4632 61.1354 93.0577C61.4732 93.6555 61.6577 93.9579 61.6577 93.9579L60.4633 94.6694C60.4633 94.6694 60.2684 94.3394 59.9347 93.7288C59.5973 93.1174 59.1152 92.2168 58.5267 91.06C57.7764 89.5841 56.8501 87.6891 55.8365 85.4465C54.3625 85.8343 43.9893 88.4412 31.4124 88.5061C31.3351 88.5072 31.2721 88.4453 31.2721 88.3683Z" fill="url(#paint11_linear_1348_10763)"/>
<path d="M110.36 54.2594C110.36 54.2502 110.36 54.241 110.361 54.2322C110.957 33.8054 104.873 27.7146 99.3162 32.4776C96.8555 34.587 95.9495 37.971 96.7712 41.1065C97.0401 42.133 97.1984 43.2063 97.0507 44.3926C96.8629 45.9049 96.0891 46.8843 95.0972 47.5148C92.9812 48.8595 91.5404 51.0451 91.2435 53.5346C91.0822 54.8874 90.9529 56.2944 90.859 57.7544C89.2955 82.0875 83.0304 96.7814 81.2758 102.62C80.7351 104.42 82.7933 105.868 84.3033 104.75C88.4038 101.714 99.3498 92.5156 105.683 76.8382C106.572 74.6372 106.443 72.1739 105.451 70.0174C105.069 69.1854 104.881 68.1287 104.997 66.7862C105.263 63.7115 106.92 61.2718 108.673 58.9698C109.707 57.6107 110.309 55.9669 110.36 54.2594Z" fill="url(#paint12_linear_1348_10763)"/>
<path opacity="0.7" d="M100.72 56.0972L110.397 52.2321C110.397 52.1765 110.398 52.119 110.398 52.0638L100.741 55.9212C101.415 50.2506 101.854 44.2308 102.057 37.8962L108.257 36.1905C108.238 36.1412 108.218 36.0936 108.199 36.045L102.062 37.7334C102.131 35.5287 102.17 33.2841 102.182 31.0046C102.131 31.0135 102.078 31.0253 102.026 31.0359C101.989 37.5176 101.721 43.4482 101.276 48.8613L96.8408 45.3258C96.8231 45.3785 96.8047 45.4301 96.7851 45.4809L101.259 49.048C100.665 56.1992 99.763 62.4492 98.6879 67.8859L90.6711 60.3512C90.666 60.4175 90.6604 60.4835 90.6549 60.5498L98.6521 68.0656C96.8242 77.2433 94.5027 84.0954 92.3326 89.054C92.2033 89.3494 92.074 89.6386 91.9444 89.924L87.2281 82.7566C87.2119 82.8266 87.1953 82.8954 87.1791 82.9654L91.8685 90.092C87.5036 99.6501 83.0728 103.665 81.8525 104.646C81.8923 104.681 81.9336 104.714 81.9763 104.746C82.8643 104.026 85.2816 101.84 88.1386 97.3537L92.4438 97.4281C92.4582 97.413 92.4722 97.3982 92.4865 97.3828C92.5145 97.3529 92.5425 97.3231 92.5709 97.2929C92.5764 97.287 92.5823 97.2807 92.5878 97.2745L88.2365 97.1993C89.5905 95.0554 91.0391 92.3972 92.4678 89.1351C93.9793 85.6836 95.3229 81.8951 96.4938 77.8009L105.825 76.4823C105.847 76.4267 105.869 76.3715 105.891 76.3159L96.5417 77.637C97.7424 73.4128 98.7589 68.8638 99.5814 64.0182C100.014 61.461 100.394 58.8191 100.72 56.0972Z" fill="url(#paint13_linear_1348_10763)"/>
<path opacity="0.8" d="M142.468 91.7662C144.435 87.9501 145.042 85.1115 144.681 83.1852C144.677 83.1686 144.674 83.152 144.671 83.1355H144.669C144.246 80.9985 142.62 80.0015 140.348 80.0457C140.349 80.0442 140.349 80.0431 140.35 80.042C140.298 80.0431 140.246 80.0453 140.194 80.0475L140.194 80.0486C139.299 80.084 138.311 80.274 137.258 80.6184C134.378 81.5598 132.623 83.2857 132.56 85.0028C132.539 85.5649 132.402 86.1439 131.947 86.7608C131.807 86.9494 131.644 87.1181 131.462 87.2713C131.447 87.2834 131.433 87.296 131.418 87.3081C130.845 87.7729 130.091 88.079 129.274 88.2738C126.923 88.8351 124.983 89.8893 124.04 91.185C123.527 91.8892 123.03 92.6244 122.552 93.3901C114.589 106.152 104.77 113.481 101.561 116.445C101.112 116.86 101.189 117.273 101.566 117.557C101.565 117.557 101.564 117.557 101.563 117.557C101.592 117.579 101.621 117.599 101.653 117.619C101.653 117.619 101.654 117.619 101.655 117.618C102.129 117.915 102.962 118.034 103.843 117.787C105.844 117.223 109.331 116.149 113.459 114.49H113.461C113.479 114.483 113.496 114.476 113.514 114.469C113.548 114.455 113.582 114.442 113.617 114.428C113.624 114.425 113.631 114.422 113.638 114.419H113.637C119.111 112.207 125.684 108.973 131.421 104.537C131.497 104.478 131.569 104.419 131.64 104.359H131.649C131.685 104.331 131.72 104.303 131.756 104.275H131.736C132.922 103.231 133.353 102.029 133.022 100.912C132.884 100.445 132.989 99.8724 133.456 99.1704C134.527 97.5627 136.738 96.3897 139.002 95.2961C140.339 94.6505 141.344 93.8236 141.847 92.9238C141.85 92.919 141.853 92.9142 141.855 92.9094C142.058 92.5474 142.246 92.1945 142.426 91.8487C142.44 91.8211 142.456 91.7927 142.47 91.7651L142.468 91.7662Z" fill="#020C0C"/>
<path d="M139.614 57.0303C139.616 57.0185 139.618 57.0071 139.619 56.9953C143.748 30.8597 136.938 22.0356 129.017 27.2381C125.509 29.5419 123.789 33.7392 124.327 37.9011C124.504 39.2639 124.53 40.6679 124.146 42.1673C123.656 44.0785 122.501 45.2092 121.123 45.8556C118.184 47.2342 115.974 49.8043 115.183 52.9523C114.753 54.6628 114.355 56.4487 113.994 58.3084C107.98 89.3017 97.5148 107.142 94.3002 114.352C93.3094 116.574 95.7141 118.773 97.8378 117.585C103.604 114.361 119.176 104.35 129.891 85.2584C131.395 82.5778 131.635 79.3933 130.716 76.46C130.361 75.3286 130.294 73.9404 130.664 72.2355C131.513 68.3302 134.042 65.4699 136.671 62.8018C138.224 61.2269 139.268 59.2148 139.614 57.0303Z" fill="url(#paint14_linear_1348_10763)"/>
<path opacity="0.7" d="M126.932 57.8035L139.996 54.4326C140.005 54.3612 140.016 54.2879 140.026 54.2168L126.988 57.5806C128.787 50.4088 130.341 42.7501 131.645 34.6475L139.889 33.4777C139.873 33.4111 139.855 33.347 139.838 33.2814L131.678 34.4394C132.13 31.6192 132.55 28.743 132.941 25.8175C132.872 25.8205 132.804 25.8267 132.735 25.8322C131.621 34.1506 130.299 41.7232 128.836 48.6018L123.723 43.3309C123.691 43.3953 123.659 43.4587 123.626 43.5209L128.785 48.8387C126.844 57.925 124.658 65.8033 122.381 72.6086L113.326 61.6122C113.308 61.6966 113.29 61.7802 113.272 61.8645L122.305 72.8333C118.447 84.3192 114.337 92.737 110.734 98.7479C110.519 99.1059 110.306 99.4558 110.092 99.8013L105.215 89.8196C105.183 89.9069 105.15 89.9927 105.118 90.0797L109.967 100.004C102.788 111.561 96.4365 115.988 94.708 117.047C94.7537 117.099 94.8008 117.148 94.8502 117.196C96.1091 116.418 99.5735 114.009 103.981 108.717L109.498 109.521C109.518 109.504 109.539 109.487 109.56 109.47C109.601 109.436 109.642 109.403 109.683 109.368C109.691 109.362 109.7 109.354 109.708 109.348L104.132 108.535C106.224 106.004 108.522 102.829 110.894 98.8746C113.403 94.691 115.752 90.0465 117.93 84.9811L130.131 84.8238C130.169 84.756 130.207 84.6886 130.244 84.6209L118.019 84.7781C120.256 79.5506 122.31 73.8756 124.164 67.7877C125.142 64.5764 126.065 61.2457 126.932 57.8035Z" fill="url(#paint15_linear_1348_10763)"/>
<path d="M58.6729 7.60944L60.8857 6.34391L60.8861 6.35128C61.057 6.26251 61.2728 6.26988 61.5115 6.408L97.8299 27.409C98.3761 27.7246 98.8185 28.5714 98.8177 29.2995L98.7577 118.484C98.7573 118.886 98.6199 119.162 98.4074 119.281L98.4137 119.285L96.2038 120.549L96.1139 115.954L63.4573 97.0706C62.911 96.7549 62.4687 95.9082 62.4694 95.1797L62.5269 9.78139C62.4418 10.0492 62.377 10.2447 62.3678 10.2506C62.3365 10.2713 58.6729 7.60944 58.6729 7.60944Z" fill="url(#paint16_linear_1348_10763)"/>
<path d="M98.7933 28.9952L89.8186 34.1656L88.1611 33.2072L98.0069 27.5348C98.3977 27.8545 98.7071 28.432 98.7933 28.9952Z" fill="url(#paint17_linear_1348_10763)"/>
<path d="M59.2642 99.4815L95.5826 120.482C96.1288 120.798 96.5719 120.464 96.5723 119.735L96.6323 30.5502C96.6327 29.8217 96.1903 28.9753 95.6445 28.6593L59.3261 7.65833C58.7799 7.34268 58.3368 7.67711 58.3364 8.40564L58.2764 97.5906C58.2756 98.3191 58.718 99.1655 59.2642 99.4815Z" fill="url(#paint18_linear_1348_10763)"/>
<path d="M95.6447 28.6594L59.3263 7.65848C59.0014 7.47064 58.7156 7.51705 58.5352 7.73546C58.6884 7.69457 58.8685 7.72109 59.0633 7.83343L95.3818 28.8344C95.928 29.15 96.3703 29.9968 96.3696 30.7253L96.3095 119.91C96.3092 120.205 96.234 120.431 96.111 120.58C96.3876 120.506 96.5725 120.204 96.5729 119.735L96.6329 30.55C96.6333 29.8218 96.191 28.9755 95.6447 28.6594Z" fill="white"/>
<path d="M59.1016 95.4299L95.7239 116.607L95.7927 34.3728L59.1704 13.1962L59.1016 95.4299Z" fill="#0B5447"/>
<path d="M73.6281 19.3842L80.5557 23.404C80.7579 23.5208 80.9299 23.5561 81.0047 23.3657C81.0298 23.3016 81.0438 23.2232 81.0441 23.1322C81.0445 22.7716 80.8254 22.3525 80.555 22.1963L73.5541 18.1482C73.5331 18.136 73.5128 18.1113 73.4918 18.1172C73.2712 18.1787 73.2344 18.2215 73.2344 18.554L73.2653 18.6476C73.2653 19.0078 73.3578 19.2277 73.6281 19.3842Z" fill="#196F67"/>
<path d="M73.49 18.1197C73.4649 18.1834 73.4513 18.2615 73.4509 18.3521C73.4506 18.7127 73.6697 19.1318 73.9401 19.288L80.941 23.3361C80.9627 23.3486 80.9837 23.356 81.0047 23.3645C80.93 23.5553 80.7561 23.619 80.5535 23.5019L73.5526 19.4537C73.2823 19.2975 73.0635 18.8784 73.0635 18.5178C73.0638 18.1863 73.2502 18.0232 73.49 18.1197Z" fill="#BCBEFF"/>
<path opacity="0.7" d="M91.6836 83.4286L63.4824 67.1469V46.3964L91.6836 62.6781V83.4286Z" fill="url(#paint19_radial_1348_10763)"/>
<path opacity="0.7" d="M63.4824 46.3964L77.583 67.1447L91.6836 62.6781L63.4824 46.3964Z" fill="url(#paint20_linear_1348_10763)"/>
<path opacity="0.7" d="M91.6836 83.4286L77.583 62.6803L63.4824 67.1469L91.6836 83.4286Z" fill="url(#paint21_linear_1348_10763)"/>
<defs>
<radialGradient id="paint0_radial_1348_10763" cx="0" cy="0" r="1" gradientUnits="userSpaceOnUse" gradientTransform="translate(32.7337 82.1902) scale(28.1276 21.9755)">
<stop stop-color="#43E0DE"/>
<stop offset="1" stop-color="#0E8583"/>
</radialGradient>
<linearGradient id="paint1_linear_1348_10763" x1="59.1638" y1="76.5569" x2="81.3208" y2="69.9488" gradientUnits="userSpaceOnUse">
<stop stop-color="#42E8E0"/>
<stop offset="0.1507" stop-color="#43E3E0"/>
<stop offset="0.3285" stop-color="#45D5DF"/>
<stop offset="0.5199" stop-color="#49BDDD"/>
<stop offset="0.7209" stop-color="#4E9CDB"/>
<stop offset="0.9274" stop-color="#5472D8"/>
<stop offset="1" stop-color="#5761D7"/>
</linearGradient>
<linearGradient id="paint2_linear_1348_10763" x1="54.1542" y1="58.9005" x2="74.088" y2="55.7894" gradientUnits="userSpaceOnUse">
<stop stop-color="#42E8E0"/>
<stop offset="0.1507" stop-color="#43E3E0"/>
<stop offset="0.3285" stop-color="#45D5DF"/>
<stop offset="0.5199" stop-color="#49BDDD"/>
<stop offset="0.7209" stop-color="#4E9CDB"/>
<stop offset="0.9274" stop-color="#5472D8"/>
<stop offset="1" stop-color="#5761D7"/>
</linearGradient>
<radialGradient id="paint3_radial_1348_10763" cx="0" cy="0" r="1" gradientUnits="userSpaceOnUse" gradientTransform="translate(57.3376 37.6384) scale(19.4371 23.1108)">
<stop stop-color="#43E0DE"/>
<stop offset="1" stop-color="#0E8583"/>
</radialGradient>
<radialGradient id="paint4_radial_1348_10763" cx="0" cy="0" r="1" gradientUnits="userSpaceOnUse" gradientTransform="translate(54.8888 25.0489) scale(15.7866 20.6429)">
<stop stop-color="#43E0DE"/>
<stop offset="1" stop-color="#0E8583"/>
</radialGradient>
<radialGradient id="paint5_radial_1348_10763" cx="0" cy="0" r="1" gradientUnits="userSpaceOnUse" gradientTransform="translate(52.6708 11.4676) scale(14.1574 23.5908)">
<stop stop-color="#43E0DE"/>
<stop offset="1" stop-color="#0E8583"/>
</radialGradient>
<radialGradient id="paint6_radial_1348_10763" cx="0" cy="0" r="1" gradientUnits="userSpaceOnUse" gradientTransform="translate(27.9665 64.4042) scale(25.5077 19.7573)">
<stop stop-color="#43E0DE"/>
<stop offset="1" stop-color="#0E8583"/>
</radialGradient>
<radialGradient id="paint7_radial_1348_10763" cx="0" cy="0" r="1" gradientUnits="userSpaceOnUse" gradientTransform="translate(25.2989 47.4891) scale(21.7092 17.0298)">
<stop stop-color="#43E0DE"/>
<stop offset="1" stop-color="#0E8583"/>
</radialGradient>
<radialGradient id="paint8_radial_1348_10763" cx="0" cy="0" r="1" gradientUnits="userSpaceOnUse" gradientTransform="translate(25.637 32.2938) scale(18.6385 16.043)">
<stop stop-color="#43E0DE"/>
<stop offset="1" stop-color="#0E8583"/>
</radialGradient>
<radialGradient id="paint9_radial_1348_10763" cx="0" cy="0" r="1" gradientUnits="userSpaceOnUse" gradientTransform="translate(27.4537 16.0955) scale(15.3173 18.9999)">
<stop stop-color="#43E0DE"/>
<stop offset="1" stop-color="#0E8583"/>
</radialGradient>
<radialGradient id="paint10_radial_1348_10763" cx="0" cy="0" r="1" gradientUnits="userSpaceOnUse" gradientTransform="translate(44.7968 0.583175) scale(7.40325 25.946)">
<stop stop-color="#43E0DE"/>
<stop offset="1" stop-color="#0E8583"/>
</radialGradient>
<linearGradient id="paint11_linear_1348_10763" x1="79.0297" y1="57.5193" x2="20.7417" y2="40.5047" gradientUnits="userSpaceOnUse">
<stop stop-color="#42E8E0"/>
<stop offset="0.1507" stop-color="#43E3E0"/>
<stop offset="0.3285" stop-color="#45D5DF"/>
<stop offset="0.5199" stop-color="#49BDDD"/>
<stop offset="0.7209" stop-color="#4E9CDB"/>
<stop offset="0.9274" stop-color="#5472D8"/>
<stop offset="1" stop-color="#5761D7"/>
</linearGradient>
<linearGradient id="paint12_linear_1348_10763" x1="58.3619" y1="30.8467" x2="122.143" y2="30.8467" gradientUnits="userSpaceOnUse">
<stop stop-color="#43E0DE"/>
<stop offset="1" stop-color="#0E8583"/>
</linearGradient>
<linearGradient id="paint13_linear_1348_10763" x1="86.5065" y1="67.1823" x2="108.204" y2="69.8781" gradientUnits="userSpaceOnUse">
<stop stop-color="#42E8E0"/>
<stop offset="0.1507" stop-color="#43E3E0"/>
<stop offset="0.3285" stop-color="#45D5DF"/>
<stop offset="0.5199" stop-color="#49BDDD"/>
<stop offset="0.7209" stop-color="#4E9CDB"/>
<stop offset="0.9274" stop-color="#5472D8"/>
<stop offset="1" stop-color="#5761D7"/>
</linearGradient>
<linearGradient id="paint14_linear_1348_10763" x1="57.5084" y1="25.6892" x2="159.673" y2="25.6892" gradientUnits="userSpaceOnUse">
<stop stop-color="#43E0DE"/>
<stop offset="1" stop-color="#0E8583"/>
</linearGradient>
<linearGradient id="paint15_linear_1348_10763" x1="106.855" y1="69.7006" x2="134.274" y2="76.7352" gradientUnits="userSpaceOnUse">
<stop stop-color="#42E8E0"/>
<stop offset="0.1507" stop-color="#43E3E0"/>
<stop offset="0.3285" stop-color="#45D5DF"/>
<stop offset="0.5199" stop-color="#49BDDD"/>
<stop offset="0.7209" stop-color="#4E9CDB"/>
<stop offset="0.9274" stop-color="#5472D8"/>
<stop offset="1" stop-color="#5761D7"/>
</linearGradient>
<linearGradient id="paint16_linear_1348_10763" x1="-41.6744" y1="117.834" x2="98.8609" y2="54.2554" gradientUnits="userSpaceOnUse">
<stop stop-color="#1E9290"/>
<stop offset="1" stop-color="#8BFAF8"/>
</linearGradient>
<linearGradient id="paint17_linear_1348_10763" x1="93.4753" y1="34.168" x2="93.4799" y2="27.5314" gradientUnits="userSpaceOnUse">
<stop stop-color="#C0BFF6"/>
<stop offset="0.2938" stop-color="#C5C4F7"/>
<stop offset="0.6399" stop-color="#D3D2F9"/>
<stop offset="1" stop-color="#E9E9FD"/>
</linearGradient>
<linearGradient id="paint18_linear_1348_10763" x1="77.4224" y1="109.982" x2="117.23" y2="41.1415" gradientUnits="userSpaceOnUse">
<stop stop-color="#93E4E3"/>
<stop offset="1" stop-color="#CFFEFE"/>
</linearGradient>
<radialGradient id="paint19_radial_1348_10763" cx="0" cy="0" r="1" gradientUnits="userSpaceOnUse" gradientTransform="translate(61.8224 42.5537) rotate(30.0007) scale(38.0486 32.9516)">
<stop stop-color="#3DE7E4"/>
<stop offset="1" stop-color="#247E7E"/>
</radialGradient>
<linearGradient id="paint20_linear_1348_10763" x1="64.4477" y1="49.8014" x2="89.6477" y2="63.8015" gradientUnits="userSpaceOnUse">
<stop stop-color="#3ED8D6"/>
<stop offset="1" stop-color="#217271"/>
</linearGradient>
<linearGradient id="paint21_linear_1348_10763" x1="64.4477" y1="66.0854" x2="89.6477" y2="80.0854" gradientUnits="userSpaceOnUse">
<stop stop-color="#3ED8D6"/>
<stop offset="1" stop-color="#217271"/>
</linearGradient>
</defs>
</svg>
