<svg width="140" height="121" viewBox="0 0 140 121" fill="none" xmlns="http://www.w3.org/2000/svg">
<path d="M46.7903 104.79C45.7391 104.79 44.6878 104.588 43.9601 104.146L6.72233 82.7357C5.99456 82.293 5.5498 81.7296 5.5498 81.0454C5.5498 80.2405 6.15628 79.4759 7.16708 78.8722L78.1654 38.0645C80.1061 36.9376 83.0172 36.8169 84.7154 37.7827L121.953 59.1927C122.681 59.6354 123.126 60.1988 123.126 60.883C123.126 61.6879 122.519 62.4525 121.508 63.0562L50.4696 103.864C49.4184 104.468 48.0841 104.79 46.7903 104.79ZM44.0005 103.985C45.6178 104.91 48.4884 104.79 50.3887 103.703L121.387 62.8952C122.357 62.3318 122.923 61.6074 122.923 60.883C122.923 60.2793 122.56 59.7562 121.832 59.3537L84.5941 37.9437C82.9768 37.0181 80.1061 37.1388 78.2058 38.2254L7.24795 79.0332C6.27758 79.5966 5.71154 80.321 5.71154 81.0454C5.71154 81.6491 6.07542 82.1723 6.80319 82.5747L44.0005 103.985Z" fill="#42E8E0"/>
<path d="M123.005 51.023L117.668 51.9486L84.6751 32.9936C83.0174 32.0277 80.1468 32.1484 78.206 33.2753L15.0919 69.5354L5.63086 71.1452V74.4855C5.63086 75.0891 5.99474 75.6928 6.76295 76.0952L44.0007 97.5052C45.6584 98.4711 48.529 98.3504 50.4698 97.2235L121.468 56.4158C122.479 55.8121 123.045 55.0877 123.045 54.3633V51.023H123.005Z" fill="url(#paint0_linear_1348_10820)"/>
<path d="M43.9602 94.1248L6.7225 72.7148C5.06479 71.7489 5.26695 70.0989 7.16725 69.0123L78.206 28.2448C80.1063 27.1582 83.0174 27.0374 84.6751 27.9631L121.913 49.373C123.571 50.3389 123.368 51.9889 121.468 53.0755L50.4293 93.8833C48.529 94.9699 45.6179 95.0906 43.9602 94.1248Z" fill="#020C0C"/>
<path d="M121.427 53.0756L50.4286 93.8834C48.5284 94.97 45.6173 95.0907 43.9596 94.1651L6.72182 72.7551C6.07491 72.3929 5.71103 71.8697 5.63016 71.3465C5.50887 72.0307 5.87275 72.7148 6.72182 73.1978L43.9596 94.6078C45.6173 95.5736 48.4879 95.4529 50.4286 94.326L121.427 53.5183C122.559 52.8744 123.085 51.989 123.004 51.2244C122.883 51.8683 122.357 52.5524 121.427 53.0756Z" fill="white"/>
<path opacity="0.51" d="M44.0412 93.3199L8.13774 72.6745C6.52047 71.7489 6.72262 70.1391 8.58249 69.0928L78.2466 29.0497C80.1064 28.0033 82.8962 27.8826 84.5135 28.8082L120.417 49.4536C122.034 50.3792 121.832 51.989 119.972 53.0353L50.3082 93.0784C48.4483 94.1248 45.6585 94.2455 44.0412 93.3199Z" fill="#197067"/>
<path opacity="0.8" d="M46.7492 93.1188C45.698 93.1188 44.7276 92.9176 43.9594 92.4749L8.05592 71.8295C7.32815 71.4271 6.92383 70.8234 6.92383 70.1795C6.92383 69.4149 7.48987 68.61 8.50067 68.0466L78.1647 28.0034C80.0246 26.9168 82.8953 26.7961 84.5126 27.762L120.416 48.4073C121.144 48.8098 121.548 49.4134 121.548 50.0573C121.548 50.822 120.982 51.6269 119.971 52.1903L50.3072 92.2334C49.3368 92.8371 48.0026 93.1188 46.7492 93.1188ZM44.1211 92.2737C45.698 93.159 48.4473 93.0785 50.2668 92.0322L119.931 51.9891C120.861 51.4659 121.386 50.7415 121.386 50.0573C121.386 49.4939 121.023 48.9707 120.376 48.6085L84.4721 27.9632C82.8953 27.0778 80.1459 27.1583 78.3265 28.2047L8.6624 68.2478C7.73247 68.771 7.20685 69.4953 7.20685 70.1795C7.20685 70.7429 7.57074 71.2661 8.21765 71.6283L44.1211 92.2737Z" fill="url(#paint1_linear_1348_10820)"/>
<g opacity="0.1">
<path d="M44.0402 92.3945L8.13677 71.7491C6.51949 70.8235 6.72165 69.2137 8.58151 68.1674L78.2456 28.1243C80.1055 27.0779 82.8953 26.9572 84.5125 27.8828L120.416 48.5281C122.033 49.4538 121.831 51.0635 119.971 52.1099L50.3072 92.153C48.4473 93.1993 45.6575 93.3201 44.0402 92.3945Z" fill="#3FBDA8"/>
<mask id="mask0_1348_10820" style="mask-type:luminance" maskUnits="userSpaceOnUse" x="7" y="27" width="115" height="67">
<path d="M44.0402 92.3945L8.13677 71.7491C6.51949 70.8235 6.72165 69.2137 8.58151 68.1674L78.2456 28.1243C80.1055 27.0779 82.8953 26.9572 84.5125 27.8828L120.416 48.5281C122.033 49.4538 121.831 51.0635 119.971 52.1099L50.3072 92.153C48.4473 93.1993 45.6575 93.3201 44.0402 92.3945Z" fill="white"/>
</mask>
<g mask="url(#mask0_1348_10820)">
<path d="M83.7039 84.6273C83.7039 80.1199 80.5502 74.6869 76.6283 72.4333C74.6876 71.3064 72.9086 71.1857 71.6147 71.9503L70.2805 72.715L70.6848 72.7552C69.9975 73.6003 69.5527 74.8882 69.5527 76.4979C69.5527 81.0053 72.7064 86.4383 76.6283 88.692C77.9626 89.4566 79.2159 89.7383 80.3076 89.6176L80.2672 89.9798L81.6419 89.1749L81.6823 89.1347C82.9357 88.4103 83.7039 86.8407 83.7039 84.6273Z" fill="#9FFFF8"/>
<path d="M80.2837 89.9696C83.049 88.3804 83.0551 83.238 80.2974 78.4838C77.5396 73.7295 73.0623 71.1637 70.297 72.7529C67.5317 74.3421 67.5256 79.4845 70.2834 84.2387C73.0411 88.993 77.5184 91.5588 80.2837 89.9696Z" fill="#42E8E0"/>
</g>
</g>
<path opacity="0.4" d="M112.735 51.9489C112.169 52.2708 111.279 52.2708 110.754 51.9489C110.188 51.6269 110.188 51.1037 110.754 50.822C111.32 50.5001 112.209 50.5001 112.735 50.822C113.301 51.1037 113.301 51.6269 112.735 51.9489Z" fill="#020C0C"/>
<path opacity="0.4" d="M105.174 46.4352L109.056 48.6487C109.541 48.9304 109.46 49.4133 108.935 49.695C108.369 50.017 107.56 50.0572 107.075 49.7755L103.193 47.5621C102.708 47.2803 102.789 46.7974 103.315 46.5157C103.881 46.1938 104.689 46.1535 105.174 46.4352Z" fill="#020C0C"/>
<path opacity="0.4" d="M83.0172 33.034L86.8987 35.2475C87.3838 35.5292 87.303 36.0121 86.7774 36.2938C86.2113 36.6158 85.4027 36.656 84.9175 36.3743L81.036 34.1609C80.5509 33.8792 80.6317 33.3962 81.1573 33.1145C81.7234 32.8328 82.532 32.7926 83.0172 33.034Z" fill="#020C0C"/>
<path d="M112.735 50.5402C112.169 50.8621 111.279 50.8621 110.754 50.5402C110.188 50.2182 110.188 49.6951 110.754 49.4133C111.32 49.0914 112.209 49.0914 112.735 49.4133C113.26 49.7353 113.301 50.2182 112.735 50.5402Z" fill="#42E8E0"/>
<path d="M105.174 45.0671L109.056 47.2805C109.541 47.5622 109.46 48.0451 108.935 48.3268C108.369 48.6488 107.56 48.689 107.075 48.4073L103.193 46.1939C102.708 45.9122 102.789 45.4292 103.315 45.1475C103.881 44.8256 104.689 44.7853 105.174 45.0671Z" fill="#42E8E0"/>
<path d="M83.0172 31.6657L86.8987 33.8791C87.3838 34.1608 87.303 34.6438 86.7774 34.9255C86.2113 35.2474 85.4027 35.2877 84.9175 35.006L81.036 32.7925C80.5509 32.5108 80.6317 32.0279 81.1573 31.7462C81.7234 31.4242 82.532 31.384 83.0172 31.6657Z" fill="#42E8E0"/>
<g opacity="0.3">
<path d="M134.528 99.2763V97.4653L134.043 97.1836C133.921 98.0287 132.91 98.5921 132.061 98.7128L126.32 102.053L123.813 102.938L115.848 98.8336L116.05 98.7128C115.363 98.3909 114.999 97.6665 114.635 97.0226L114.11 97.3445L113.786 97.425V99.2763C113.786 99.6385 114.029 100.001 114.473 100.242L122.479 104.83C123.409 105.353 124.945 105.353 125.875 104.83L133.881 100.242C134.326 99.9604 134.568 99.6385 134.568 99.2763C134.528 99.3165 134.528 99.2763 134.528 99.2763Z" fill="url(#paint2_linear_1348_10820)"/>
<path opacity="0.3" d="M132.02 98.7128L126.279 102.053L124.096 102.818V105.273C124.702 105.273 125.309 105.152 125.794 104.87L133.799 100.282C134.244 100.001 134.487 99.6787 134.487 99.3165V99.2762V97.4652L134.042 97.2238H134.002C133.84 98.0689 132.869 98.5921 132.02 98.7128Z" fill="#0F054C"/>
<path d="M122.438 103.059L114.433 98.4713C113.503 97.9481 113.503 97.0627 114.433 96.4993L122.438 91.9114C123.368 91.3882 124.905 91.3882 125.835 91.9114L133.84 96.4993C134.77 97.0225 134.77 97.9078 133.84 98.4713L125.835 103.059C124.905 103.582 123.368 103.582 122.438 103.059Z" fill="url(#paint3_linear_1348_10820)"/>
<g opacity="0.3">
<path d="M122.438 103.059L114.433 98.4713C113.503 97.9481 113.503 97.0627 114.433 96.4993L122.438 91.9114C123.368 91.3882 124.905 91.3882 125.835 91.9114L133.84 96.4993C134.77 97.0225 134.77 97.9078 133.84 98.4713L125.835 103.059C124.905 103.582 123.368 103.582 122.438 103.059Z" fill="#0F054C"/>
</g>
</g>
<path d="M124.137 97.2239C123.571 97.2239 123.045 97.1032 122.641 96.8617L114.635 92.2738C114.231 92.0324 113.988 91.7104 113.988 91.3482C113.988 90.986 114.231 90.6641 114.635 90.4226L122.641 85.8347C123.49 85.3518 124.824 85.3518 125.673 85.8347L133.679 90.4226C134.083 90.6641 134.326 90.986 134.326 91.3482C134.326 91.7104 134.083 92.0324 133.679 92.2738L125.673 96.8617C125.228 97.1032 124.662 97.2239 124.137 97.2239ZM124.137 85.6335C123.611 85.6335 123.085 85.7542 122.681 85.9555L114.676 90.5433C114.312 90.7445 114.11 91.0263 114.11 91.3482C114.11 91.6299 114.312 91.9116 114.676 92.1531L122.681 96.7409C123.49 97.1836 124.743 97.1836 125.552 96.7409L133.557 92.1531C133.921 91.9519 134.123 91.6702 134.123 91.3482C134.123 91.0263 133.921 90.7848 133.557 90.5433L125.552 85.9555C125.147 85.7542 124.662 85.6335 124.137 85.6335Z" fill="#42E8E0"/>
<path opacity="0.4" d="M134.528 89.6178V86.8812L134.043 86.5995C133.921 87.4446 132.91 88.008 132.061 88.1287L126.32 91.469L123.813 92.3544L115.848 88.2495L116.05 88.1287C115.363 87.8068 114.999 87.0824 114.635 86.4385L114.11 86.7604L113.786 86.8409V89.6178C113.786 89.98 114.029 90.3422 114.473 90.5836L122.479 95.1715C123.409 95.6947 124.945 95.6947 125.875 95.1715L133.881 90.5836C134.326 90.3019 134.568 89.98 134.568 89.6178C134.528 89.658 134.528 89.6178 134.528 89.6178Z" fill="#42E8E0"/>
<path d="M134.528 87.203V85.392L134.043 85.1103C133.921 85.9554 132.91 86.5189 132.061 86.6396L126.32 89.9799L123.813 90.8653L115.848 86.7603L116.05 86.6396C115.363 86.3176 114.999 85.5933 114.635 84.9493L114.11 85.2713L113.786 85.3518V87.203C113.786 87.5652 114.029 87.9274 114.473 88.1689L122.479 92.7567C123.409 93.2799 124.945 93.2799 125.875 92.7567L133.881 88.1689C134.326 87.8872 134.568 87.5652 134.568 87.203C134.528 87.203 134.528 87.203 134.528 87.203Z" fill="url(#paint4_linear_1348_10820)"/>
<path opacity="0.3" d="M132.02 86.6397L126.279 89.98L124.096 90.7446V93.1995C124.702 93.1995 125.309 93.0788 125.794 92.7971L133.799 88.2092C134.244 87.9275 134.487 87.6055 134.487 87.2433V87.2031V85.3921L134.042 85.1506H134.002C133.84 85.9555 132.869 86.5189 132.02 86.6397Z" fill="#0F054C"/>
<path d="M122.438 90.9457L114.433 86.3579C113.503 85.8347 113.503 84.9493 114.433 84.3859L122.438 79.798C123.368 79.2748 124.905 79.2748 125.835 79.798L133.84 84.3859C134.77 84.9091 134.77 85.7944 133.84 86.3579L125.835 90.9457C124.905 91.5091 123.368 91.5091 122.438 90.9457Z" fill="url(#paint5_linear_1348_10820)"/>
<path d="M133.799 86.358L125.834 90.9458C124.904 91.469 123.368 91.469 122.438 90.9458L114.433 86.358C114.028 86.1165 113.786 85.7945 113.745 85.5128C113.705 85.9153 113.907 86.3177 114.433 86.5994L122.438 91.1873C123.368 91.7104 124.904 91.7104 125.834 91.1873L133.84 86.5994C134.365 86.3177 134.608 85.9153 134.527 85.5128C134.487 85.7945 134.244 86.1165 133.799 86.358Z" fill="white"/>
<g opacity="0.3">
<path d="M98.9075 110.022V108.211L98.4224 107.929C98.2606 108.774 97.2903 109.337 96.4412 109.458L90.6999 112.798L88.1931 113.684L80.228 109.579L80.4302 109.458C79.7429 109.136 79.379 108.412 79.0151 107.768L78.4895 108.09L78.166 108.17V110.022C78.166 110.384 78.4086 110.746 78.8534 110.987L86.8589 115.575C87.7888 116.098 89.3252 116.098 90.2551 115.575L98.2606 110.987C98.7054 110.706 98.948 110.384 98.948 110.022C98.9076 110.022 98.9075 110.022 98.9075 110.022Z" fill="url(#paint6_linear_1348_10820)"/>
<path opacity="0.3" d="M96.4412 109.458L90.6999 112.798L88.5166 113.563V116.018C89.1231 116.018 89.7295 115.897 90.2147 115.616L98.2202 111.028C98.665 110.746 98.9076 110.424 98.9076 110.062V110.022V108.211L98.4628 107.969H98.4224C98.2607 108.774 97.2499 109.337 96.4412 109.458Z" fill="#0F054C"/>
<path d="M86.8182 113.764L78.8127 109.176C77.8828 108.653 77.8828 107.768 78.8127 107.204L86.8182 102.617C87.7481 102.093 89.2845 102.093 90.2145 102.617L98.22 107.204C99.1499 107.728 99.1499 108.613 98.22 109.176L90.2145 113.764C89.2845 114.328 87.7481 114.328 86.8182 113.764Z" fill="url(#paint7_linear_1348_10820)"/>
<g opacity="0.3">
<path d="M86.8182 113.764L78.8127 109.176C77.8828 108.653 77.8828 107.768 78.8127 107.204L86.8182 102.617C87.7481 102.093 89.2845 102.093 90.2145 102.617L98.22 107.204C99.1499 107.728 99.1499 108.613 98.22 109.176L90.2145 113.764C89.2845 114.328 87.7481 114.328 86.8182 113.764Z" fill="#0F054C"/>
</g>
</g>
<path d="M88.5166 107.084C87.9505 107.084 87.4249 106.963 87.0206 106.721L79.0151 102.134C78.6108 101.892 78.3682 101.57 78.3682 101.208C78.3682 100.846 78.6108 100.524 79.0151 100.282L87.0206 95.6945C87.8696 95.2115 89.2039 95.2115 90.053 95.6945L98.0585 100.282C98.4628 100.524 98.7054 100.846 98.7054 101.208C98.7054 101.57 98.4628 101.892 98.0585 102.134L90.053 106.721C89.6082 106.963 89.0422 107.084 88.5166 107.084ZM87.061 106.601C87.8696 107.043 89.123 107.043 89.9317 106.601L97.9372 102.013C98.3011 101.812 98.5032 101.53 98.5032 101.208C98.5032 100.926 98.3011 100.645 97.9372 100.403L89.9317 95.8152C89.123 95.3725 87.8696 95.3725 87.061 95.8152L79.0555 100.403C78.6916 100.604 78.4895 100.886 78.4895 101.208C78.4895 101.49 78.6916 101.771 79.0555 102.013L87.061 106.601Z" fill="#42E8E0"/>
<path opacity="0.4" d="M98.9075 99.4774V96.7408L98.4224 96.4591C98.2606 97.3042 97.2903 97.8676 96.4412 97.9884L90.6999 101.329L88.1931 102.214L80.228 98.1091L80.4302 97.9884C79.7429 97.6664 79.379 96.942 79.0151 96.2981L78.4895 96.6201L78.166 96.7005V99.4774C78.166 99.8396 78.4086 100.202 78.8534 100.443L86.8589 105.031C87.7888 105.554 89.3252 105.554 90.2551 105.031L98.2606 100.443C98.7054 100.162 98.948 99.8396 98.948 99.4774C98.9076 99.4774 98.9075 99.4774 98.9075 99.4774Z" fill="#42E8E0"/>
<path d="M98.9075 97.0225V95.2115L98.4224 94.9298C98.2606 95.7749 97.2903 96.3383 96.4412 96.4591L90.6999 99.7993L88.1931 100.685L80.228 96.5798L80.4302 96.4591C79.7429 96.1371 79.379 95.4127 79.0151 94.7688L78.4895 95.0907L78.166 95.1712V97.0225C78.166 97.3847 78.4086 97.7469 78.8534 97.9883L86.8589 102.576C87.7888 103.099 89.3252 103.099 90.2551 102.576L98.2606 97.9883C98.7054 97.7066 98.948 97.3847 98.948 97.0225C98.9076 97.0627 98.9075 97.0627 98.9075 97.0225Z" fill="url(#paint8_linear_1348_10820)"/>
<path opacity="0.3" d="M96.4412 96.4994L90.6999 99.8397L88.5166 100.604V103.059C89.1231 103.059 89.7295 102.939 90.2147 102.657L98.2202 98.0689C98.665 97.7872 98.9076 97.4653 98.9076 97.1031V97.0628V95.2518L98.4628 95.0104H98.4224C98.2607 95.8153 97.2499 96.3787 96.4412 96.4994Z" fill="#0F054C"/>
<path d="M86.8182 100.806L78.8127 96.2177C77.8828 95.6945 77.8828 94.8092 78.8127 94.2457L86.8182 89.6579C87.7481 89.1347 89.2845 89.1347 90.2145 89.6579L98.22 94.2457C99.1499 94.7689 99.1499 95.6543 98.22 96.2177L90.2145 100.806C89.2845 101.329 87.7481 101.329 86.8182 100.806Z" fill="url(#paint9_linear_1348_10820)"/>
<path d="M88.5163 99.9606C88.0311 99.9606 87.5459 99.8398 87.1416 99.6386L80.8746 96.0569C80.5108 95.8556 80.3086 95.5337 80.3086 95.252C80.3086 94.93 80.5108 94.6483 80.8746 94.4471L87.1416 90.8653C87.9098 90.4227 89.1227 90.4227 89.8505 90.8653L96.1174 94.4471C96.4813 94.6483 96.6835 94.9703 96.6835 95.252C96.6835 95.5739 96.4813 95.8556 96.1174 96.0569L89.8505 99.6386C89.4866 99.8801 89.0014 99.9606 88.5163 99.9606ZM87.2224 99.5179C87.9502 99.9203 89.0823 99.9203 89.8101 99.5179L96.077 95.9361C96.4005 95.7349 96.6026 95.4934 96.6026 95.252C96.6026 94.9703 96.4005 94.7288 96.077 94.5678L89.8101 90.9861C89.0823 90.5836 87.9502 90.5836 87.2224 90.9861L80.9555 94.5678C80.6321 94.769 80.4299 95.0105 80.4299 95.252C80.4299 95.5337 80.6321 95.7751 80.9555 95.9361L87.2224 99.5179Z" fill="#5351AF"/>
<path d="M98.2207 96.2178L90.2152 100.806C89.2853 101.329 87.7489 101.329 86.8189 100.806L78.8134 96.2178C78.4091 95.9763 78.1665 95.6544 78.1261 95.3727C78.0857 95.7751 78.2878 96.1776 78.8134 96.4593L86.8189 101.047C87.7489 101.57 89.2853 101.57 90.2152 101.047L98.2207 96.4593C98.7463 96.1776 98.9889 95.7751 98.9081 95.3727C98.8676 95.6544 98.6251 95.9763 98.2207 96.2178Z" fill="white"/>
<g opacity="0.3">
<path d="M30.4955 46.0326V44.2216L30.0103 43.9399C29.889 44.785 28.8782 45.3485 28.0291 45.4692L22.2878 48.8095L19.781 49.6948L11.8159 45.5899L12.0181 45.4692C11.3308 45.1472 10.9669 44.4228 10.603 43.7789L10.0774 44.1009L9.75391 44.1814V46.0326C9.75391 46.3948 9.9965 46.757 10.4413 46.9985L18.4468 51.5863C19.3767 52.1095 20.9131 52.1095 21.843 51.5863L29.8485 46.9985C30.2933 46.7168 30.5359 46.3948 30.5359 46.0326C30.4955 46.0326 30.4955 46.0326 30.4955 46.0326Z" fill="url(#paint10_linear_1348_10820)"/>
<path opacity="0.3" d="M28.0291 45.4693L22.2878 48.8095L20.1045 49.5742V52.0291C20.711 52.0291 21.3175 51.9084 21.8026 51.6266L29.8081 47.0388C30.2529 46.7571 30.4955 46.4351 30.4955 46.0729V46.0327V44.2217L30.0507 43.9802H30.0103C29.8486 44.7851 28.8378 45.3485 28.0291 45.4693Z" fill="#0F054C"/>
<path d="M18.4067 49.7754L10.4416 45.1876C9.51166 44.6644 9.51166 43.779 10.4416 43.2156L18.4471 38.6277C19.377 38.1046 20.9134 38.1046 21.8434 38.6277L29.8489 43.2156C30.7788 43.7388 30.7788 44.6241 29.8489 45.1473L21.8434 49.7352C20.873 50.3388 19.3366 50.3388 18.4067 49.7754Z" fill="url(#paint11_linear_1348_10820)"/>
<g opacity="0.3">
<path d="M18.4067 49.7754L10.4416 45.1876C9.51166 44.6644 9.51166 43.779 10.4416 43.2156L18.4471 38.6277C19.377 38.1046 20.9134 38.1046 21.8434 38.6277L29.8489 43.2156C30.7788 43.7388 30.7788 44.6241 29.8489 45.1473L21.8434 49.7352C20.873 50.3388 19.3366 50.3388 18.4067 49.7754Z" fill="#0F054C"/>
</g>
</g>
<path d="M20.1045 44.2621C19.5384 44.2621 19.0128 44.1414 18.6085 43.8999L10.603 39.312C10.1986 39.0706 9.95605 38.7486 9.95605 38.3864C9.95605 38.0242 10.1986 37.7023 10.603 37.4608L18.6085 32.8729C19.4575 32.39 20.7918 32.39 21.6409 32.8729L29.6464 37.4608C30.0507 37.7023 30.2933 38.0242 30.2933 38.3864C30.2933 38.7486 30.0507 39.0706 29.6464 39.312L21.6409 43.8999C21.1961 44.1816 20.6705 44.2621 20.1045 44.2621ZM20.1045 32.712C19.5788 32.712 19.0532 32.8327 18.6489 33.0339L10.6434 37.6218C10.2795 37.823 10.0774 38.1047 10.0774 38.4267C10.0774 38.7084 10.2795 38.9901 10.6434 39.2315L18.6489 43.8194C19.4575 44.2621 20.7109 44.2621 21.5196 43.8194L29.5251 39.2315C29.889 39.0303 30.0911 38.7486 30.0911 38.4267C30.0911 38.145 29.889 37.8632 29.5251 37.6218L21.5196 33.0339C21.1557 32.7925 20.6301 32.712 20.1045 32.712Z" fill="#42E8E0"/>
<path opacity="0.4" d="M30.4955 36.6559V33.9193L30.0103 33.6375C29.889 34.4827 28.8782 35.0461 28.0291 35.1668L22.2878 38.5071L19.781 39.3925L11.8159 35.2876L12.0181 35.1668C11.3308 34.8449 10.9669 34.1205 10.603 33.4766L10.0774 33.7985L9.75391 33.879V36.6559C9.75391 37.0181 9.9965 37.3803 10.4413 37.6217L18.4468 42.2096C19.3767 42.7328 20.9131 42.7328 21.843 42.2096L29.8485 37.6217C30.2933 37.34 30.5359 37.0181 30.5359 36.6559C30.4955 36.6961 30.4955 36.6559 30.4955 36.6559Z" fill="#42E8E0"/>
<path d="M30.4955 34.2412V32.4302L30.0103 32.1485C29.889 32.9937 28.8782 33.5571 28.0291 33.6778L22.2878 37.0181L19.781 37.9035L11.8159 33.7985L12.0181 33.6778C11.3308 33.3559 10.9669 32.6315 10.603 31.9875L10.0774 32.3095L9.75391 32.39V34.2412C9.75391 34.6034 9.9965 34.9656 10.4413 35.2071L18.4468 39.795C19.3767 40.3181 20.9131 40.3181 21.843 39.795L29.8485 35.2071C30.2933 34.9254 30.5359 34.6034 30.5359 34.2412C30.4955 34.2815 30.4955 34.2412 30.4955 34.2412Z" fill="url(#paint12_linear_1348_10820)"/>
<path opacity="0.3" d="M28.0291 33.6779L22.2878 37.0182L20.1045 37.7828V40.2377C20.711 40.2377 21.3175 40.117 21.8026 39.8353L29.8081 35.2474C30.2529 34.9657 30.4955 34.6437 30.4955 34.2815V34.2413V32.4303L30.0507 32.1888H30.0103C29.8486 33.034 28.8378 33.5571 28.0291 33.6779Z" fill="#0F054C"/>
<path d="M11.9776 33.7181L19.5788 29.3717C19.8618 29.2108 20.347 29.2108 20.6705 29.3717L28.1099 33.6376L28.0291 33.6779C28.8781 33.5571 29.8889 32.9937 30.0102 32.1486L21.6408 27.5205L19.2149 26.8766L17.2338 28.0437L10.5625 31.9876C10.9264 32.6718 11.3307 33.3962 11.9776 33.7181Z" fill="url(#paint13_linear_1348_10820)"/>
<path opacity="0.3" d="M20.1044 27.1181L19.2149 26.8766L17.2338 28.0437L10.5625 31.9876C10.9264 32.6315 11.2903 33.3559 11.9776 33.6779L19.5788 29.3717C19.7405 29.2912 19.9427 29.251 20.1044 29.251V27.1181Z" fill="#0F054C"/>
<path d="M18.4067 37.984L10.4416 33.3962C9.51166 32.873 9.51166 31.9876 10.4416 31.4242L18.4471 26.8364C19.377 26.3132 20.9134 26.3132 21.8434 26.8364L29.8489 31.4242C30.7788 31.9474 30.7788 32.8328 29.8489 33.3559L21.8434 37.9438C20.873 38.5475 19.3366 38.5475 18.4067 37.984ZM20.6708 27.5205C20.3878 27.3595 19.9026 27.3595 19.5792 27.5205L11.5737 32.1084C11.2907 32.2693 11.2907 32.551 11.5737 32.7523L19.5792 37.3401C19.8622 37.5011 20.3474 37.5011 20.6708 37.3401L28.6764 32.7523C28.9594 32.5913 28.9594 32.3096 28.6764 32.1084L20.6708 27.5205Z" fill="url(#paint14_linear_1348_10820)"/>
<path d="M28.6757 32.1082L20.6702 27.5204C20.3871 27.3594 19.902 27.3594 19.5785 27.5204L11.573 32.1082C11.3708 32.229 11.29 32.39 11.3708 32.5509C11.4113 32.4704 11.4517 32.39 11.573 32.3497L19.5785 27.7619C19.8615 27.6009 20.3467 27.6009 20.6702 27.7619L28.6757 32.3497C28.7565 32.39 28.8374 32.4704 28.8778 32.5509C28.9183 32.39 28.8778 32.229 28.6757 32.1082Z" fill="white"/>
<path d="M29.8082 33.396L21.8027 37.9839C20.8728 38.5071 19.3364 38.5071 18.4065 37.9839L10.4414 33.396C10.0371 33.1546 9.79446 32.8326 9.75403 32.5509C9.7136 32.9533 9.91576 33.3558 10.4414 33.6375L18.4469 38.2254C19.3768 38.7485 20.9132 38.7485 21.8432 38.2254L29.8487 33.6375C30.3743 33.3558 30.6169 32.9533 30.536 32.5509C30.4551 32.8729 30.2125 33.1546 29.8082 33.396Z" fill="white"/>
<path d="M18.6491 37.8633L10.6436 33.2754C9.83495 32.7925 9.83495 32.0681 10.6436 31.5852L18.6491 26.9973C19.4577 26.5144 20.792 26.5144 21.6006 26.9973L29.6061 31.5852C30.4148 32.0681 30.4148 32.7925 29.6061 33.2754L21.6006 37.8633C20.792 38.3462 19.4577 38.3462 18.6491 37.8633ZM20.8728 27.3998C20.4685 27.1583 19.7408 27.1583 19.3364 27.3998L11.3309 31.9876C10.9266 32.2291 10.9266 32.6315 11.3309 32.873L19.3364 37.4609C19.7408 37.7023 20.4685 37.7023 20.8728 37.4609L28.8784 32.873C29.2827 32.6315 29.2827 32.2291 28.8784 31.9876L20.8728 27.3998Z" fill="url(#paint15_linear_1348_10820)"/>
<path opacity="0.4" d="M20.6708 27.5204C20.3877 27.3594 19.9026 27.3594 19.5791 27.5204L11.5736 32.1082C11.2906 32.2692 11.2906 32.5509 11.5736 32.7522L19.5791 37.34C19.8621 37.501 20.3473 37.501 20.6708 37.34L28.6763 32.7522C28.9593 32.5912 28.9593 32.3095 28.6763 32.1082L20.6708 27.5204Z" fill="#42E8E0"/>
<path opacity="0.5" d="M28.8785 32.4303V4.01782H11.3311V32.3901C11.3311 32.5108 11.4119 32.6315 11.5736 32.712L19.5791 37.2999C19.8622 37.4609 20.3473 37.4609 20.6708 37.2999L28.6763 32.712C28.7976 32.6718 28.8785 32.5511 28.8785 32.4303Z" fill="url(#paint16_linear_1348_10820)"/>
<path d="M83.7049 55.0476C83.7049 50.5402 80.5512 45.1072 76.6293 42.8535C74.6886 41.7267 72.9095 41.606 71.6157 42.3706L70.2815 43.1352L70.6858 43.1755C69.9985 44.0206 69.5537 45.3084 69.5537 46.9182C69.5537 51.4256 72.7074 56.8586 76.6293 59.1122C77.9635 59.8769 79.2169 60.1586 80.3086 60.0379L80.2682 60.4001L81.6428 59.5952L81.6833 59.5549C82.9367 58.7903 83.7049 57.2208 83.7049 55.0476Z" fill="#9FFFF8"/>
<path d="M80.2778 60.3513C83.0431 58.7621 83.0493 53.6197 80.2915 48.8655C77.5338 44.1112 73.0565 41.5454 70.2912 43.1346C67.5259 44.7238 67.5198 49.8662 70.2775 54.6204C73.0353 59.3747 77.5126 61.9405 80.2778 60.3513Z" fill="#42E8E0"/>
<path d="M67.1678 35.6497C69.7959 31.9874 70.4024 25.7093 68.5021 21.6446C67.5721 19.5922 66.1975 18.5056 64.7015 18.3446L63.1651 18.2239L63.4481 18.4653C62.3564 18.7471 61.3052 19.5519 60.3753 20.88C57.7472 24.5422 57.1407 30.8204 59.041 34.885C59.6879 36.2936 60.537 37.2594 61.4669 37.7424L61.2243 38.0241L62.8012 38.1448H62.882C64.378 38.2656 65.874 37.4204 67.1678 35.6497Z" fill="#9FFFF8"/>
<path d="M67.9692 28.654C68.4967 23.1894 66.3475 18.513 63.1691 18.2091C59.9906 17.9051 56.9863 22.0887 56.4589 27.5534C55.9315 33.018 58.0806 37.6944 61.2591 37.9983C64.4376 38.3023 67.4418 34.1187 67.9692 28.654Z" fill="#42E8E0"/>
<g opacity="0.1">
<path d="M69.5535 65.1891C69.5535 60.6817 66.3998 55.2487 62.4779 52.995C60.5372 51.8682 58.7582 51.7474 57.4644 52.5121L56.1301 53.2767L56.5344 53.317C55.8471 54.1621 55.4023 55.4499 55.4023 57.0597C55.4023 61.5671 58.556 67.0001 62.4779 69.2537C63.8122 70.0184 65.0655 70.3001 66.1572 70.1793L66.1168 70.5416L67.4915 69.7367L67.5319 69.6964C68.7853 68.9318 69.5535 67.4025 69.5535 65.1891Z" fill="#9FFFF8"/>
<path d="M66.1255 70.4982C68.8908 68.909 68.8969 63.7666 66.1392 59.0123C63.3814 54.2581 58.9041 51.6923 56.1388 53.2815C53.3735 54.8707 53.3674 60.013 56.1252 64.7673C58.8829 69.5215 63.3602 72.0873 66.1255 70.4982Z" fill="#42E8E0"/>
</g>
<path opacity="0.4" d="M61.5883 72.5137C56.6961 72.5137 51.8443 71.4271 48.1245 69.2942C44.5261 67.2015 42.5449 64.4648 42.5449 61.527C42.5449 58.5892 44.5261 55.8123 48.1245 53.7598C55.564 49.4939 67.6531 49.4939 75.0521 53.7598C78.6506 55.8526 80.6317 58.5892 80.6317 61.527C80.6317 64.4648 78.6506 67.2417 75.0521 69.2942C71.3324 71.4271 66.4806 72.5137 61.5883 72.5137ZM61.5883 50.661C56.7365 50.661 51.8847 51.7074 48.2054 53.8403C44.6474 55.8928 42.6662 58.5892 42.6662 61.4868C42.6662 64.3844 44.6474 67.0807 48.2054 69.1332C55.6044 73.3991 67.6127 73.3991 75.0117 69.1332C78.5697 67.0807 80.5509 64.3844 80.5509 61.4868C80.5509 58.5892 78.5697 55.8928 75.0117 53.8403C71.292 51.7476 66.4401 50.661 61.5883 50.661Z" fill="#42E8E0"/>
<path opacity="0.2" d="M61.5878 75.4516C55.4017 75.4516 49.2157 74.0832 44.4851 71.3869C39.9163 68.771 37.3691 65.2697 37.3691 61.527C37.3691 57.7843 39.8759 54.283 44.4851 51.6671C53.9058 46.2342 69.2294 46.2342 78.6501 51.6671C83.2189 54.283 85.7661 57.7843 85.7661 61.527C85.7661 65.2697 83.2593 68.771 78.6501 71.3869C73.96 74.0832 67.7739 75.4516 61.5878 75.4516ZM61.5878 47.7232C55.4422 47.7232 49.2561 49.0513 44.566 51.7879C40.0376 54.4038 37.5309 57.8648 37.5309 61.527C37.5309 65.1892 40.0376 68.6503 44.566 71.2661C53.9462 76.6589 69.2294 76.6589 78.6096 71.2661C83.138 68.6503 85.6448 65.1892 85.6448 61.527C85.6448 57.8648 83.138 54.4038 78.6096 51.7879C73.9195 49.0915 67.7739 47.7232 61.5878 47.7232Z" fill="#42E8E0"/>
<path d="M61.5885 70.1795C57.7475 70.1795 53.9065 69.3344 50.9549 67.6441C48.1247 65.9941 46.5479 63.8209 46.5479 61.4867C46.5479 59.1526 48.1247 56.9794 50.9549 55.3293C56.8176 51.9488 66.319 51.9488 72.1817 55.3293C75.0119 56.9794 76.5887 59.1526 76.5887 61.4867C76.5887 63.8209 75.0119 65.9941 72.1817 67.6441C69.2706 69.3344 65.4295 70.1795 61.5885 70.1795ZM61.5885 52.9952C57.7879 52.9952 53.9469 53.8403 51.0358 55.4903C48.246 57.1001 46.6692 59.233 46.6692 61.527C46.6692 63.8209 48.2056 65.9538 51.0358 67.5636C56.858 70.9039 66.319 70.9039 72.1412 67.5636C74.931 65.9538 76.5079 63.8209 76.5079 61.527C76.5079 59.233 74.9715 57.1001 72.1412 55.4903C69.2301 53.8403 65.4295 52.9952 61.5885 52.9952Z" fill="#42E8E0"/>
<mask id="mask1_1348_10820" style="mask-type:luminance" maskUnits="userSpaceOnUse" x="50" y="36" width="23" height="30">
<path d="M72.6664 63.4183L68.2189 65.9537L50.5098 55.7719V36.2131L72.6664 48.9303V63.4183Z" fill="white"/>
</mask>
<g mask="url(#mask1_1348_10820)">
<path d="M69.5535 65.1891C69.5535 60.6817 66.3998 55.2487 62.4779 52.995C60.5372 51.8682 58.7582 51.7474 57.4644 52.5121L56.1301 53.2767L56.5344 53.317C55.8471 54.1621 55.4023 55.4499 55.4023 57.0597C55.4023 61.5671 58.556 67.0001 62.4779 69.2537C63.8122 70.0184 65.0655 70.3001 66.1572 70.1793L66.1168 70.5416L67.4915 69.7367L67.5319 69.6964C68.7853 68.9318 69.5535 67.4025 69.5535 65.1891Z" fill="#9FFFF8"/>
<path d="M66.1255 70.4982C68.8908 68.909 68.8969 63.7666 66.1392 59.0123C63.3814 54.2581 58.9041 51.6923 56.1388 53.2815C53.3735 54.8707 53.3674 60.013 56.1252 64.7673C58.8829 69.5215 63.3602 72.0873 66.1255 70.4982Z" fill="#42E8E0"/>
</g>
<path opacity="0.4" d="M42.5856 84.5871L20.3885 71.8296C19.7416 71.4674 19.7416 70.5016 20.3885 70.1394L23.7848 68.1674C24.9169 67.5235 26.332 67.5235 27.4641 68.1674L49.6612 80.9248C50.3081 81.287 50.3081 82.2529 49.6612 82.6151L46.2649 84.5871C45.1328 85.231 43.7581 85.231 42.5856 84.5871Z" fill="#020C0C"/>
<path d="M31.5072 71.5479L27.9492 69.4955L28.6366 69.093L32.1946 71.1455L31.5072 71.5479Z" fill="#42E8E0"/>
<path d="M41.494 77.4638L40.4023 76.8199L41.1301 76.4175L42.2218 77.0614L41.494 77.4638Z" fill="#42E8E0"/>
<path d="M33.5282 72.7553L32.4365 72.1516L33.1643 71.7491L34.256 72.3528L33.5282 72.7553Z" fill="#42E8E0"/>
<path d="M44.4453 82.0517C43.7983 82.0517 43.1514 81.8907 42.5854 81.5687L20.3479 68.8113C20.0244 68.61 19.8223 68.2881 19.8223 67.8856C19.8223 67.4832 20.0244 67.1613 20.3479 66.96L23.7441 64.9881C24.9167 64.3441 26.3318 64.3441 27.5043 64.9881L49.7014 77.7455C50.0249 77.9467 50.227 78.2687 50.227 78.6711C50.227 79.0736 50.0249 79.3955 49.7014 79.5968L46.3051 81.5687C45.7391 81.8907 45.0922 82.0517 44.4453 82.0517ZM25.604 64.6661C24.9975 64.6661 24.3506 64.8271 23.825 65.149L20.4287 67.121C20.1457 67.282 19.984 67.5637 19.984 67.8856C19.984 68.2076 20.1457 68.4893 20.4287 68.6503L42.6258 81.4078C43.7175 82.0517 45.0922 82.0517 46.2243 81.4078L49.6205 79.4358C49.9036 79.2748 50.0653 78.9931 50.0653 78.6711C50.0653 78.3492 49.9036 78.0675 49.6205 77.9065L27.4234 65.149C26.8574 64.8271 26.2509 64.6661 25.604 64.6661Z" fill="#42E8E0"/>
<defs>
<linearGradient id="paint0_linear_1348_10820" x1="5.62653" y1="65.2647" x2="122.996" y2="65.2647" gradientUnits="userSpaceOnUse">
<stop stop-color="#389989"/>
<stop offset="0.151" stop-color="#3A9B8B"/>
<stop offset="0.3866" stop-color="#389989"/>
<stop offset="0.6124" stop-color="#40A191"/>
<stop offset="0.8221" stop-color="#389989"/>
<stop offset="1" stop-color="#369787"/>
</linearGradient>
<linearGradient id="paint1_linear_1348_10820" x1="80.6678" y1="81.7681" x2="48.0991" y2="38.3467" gradientUnits="userSpaceOnUse">
<stop stop-color="#42E8E0"/>
<stop offset="0.1055" stop-color="#37B6BF"/>
<stop offset="0.2197" stop-color="#2C87A1"/>
<stop offset="0.338" stop-color="#235F87"/>
<stop offset="0.4587" stop-color="#1C3F72"/>
<stop offset="0.5824" stop-color="#162561"/>
<stop offset="0.7105" stop-color="#121355"/>
<stop offset="0.8458" stop-color="#10084E"/>
<stop offset="1" stop-color="#0F054C"/>
</linearGradient>
<linearGradient id="paint2_linear_1348_10820" x1="115.794" y1="93.8887" x2="132.256" y2="103.437" gradientUnits="userSpaceOnUse">
<stop stop-color="#BCBEFF"/>
<stop offset="0.2271" stop-color="#AAADF8"/>
<stop offset="0.6802" stop-color="#7C83E5"/>
<stop offset="1" stop-color="#5761D7"/>
</linearGradient>
<linearGradient id="paint3_linear_1348_10820" x1="113.725" y1="97.4728" x2="134.521" y2="97.4728" gradientUnits="userSpaceOnUse">
<stop stop-color="#E9E9FD"/>
<stop offset="0.3601" stop-color="#D3D2F9"/>
<stop offset="0.7062" stop-color="#C5C4F7"/>
<stop offset="1" stop-color="#C0BFF6"/>
</linearGradient>
<linearGradient id="paint4_linear_1348_10820" x1="113.785" y1="89.0511" x2="134.559" y2="89.0511" gradientUnits="userSpaceOnUse">
<stop stop-color="#389989"/>
<stop offset="0.151" stop-color="#3A9B8B"/>
<stop offset="0.3866" stop-color="#389989"/>
<stop offset="0.6124" stop-color="#40A191"/>
<stop offset="0.8221" stop-color="#389989"/>
<stop offset="1" stop-color="#369787"/>
</linearGradient>
<linearGradient id="paint5_linear_1348_10820" x1="113.725" y1="85.3843" x2="134.521" y2="85.3843" gradientUnits="userSpaceOnUse">
<stop stop-color="#E6F7F4"/>
<stop offset="1" stop-color="#A8F0E4"/>
</linearGradient>
<linearGradient id="paint6_linear_1348_10820" x1="80.1865" y1="104.615" x2="96.6482" y2="114.163" gradientUnits="userSpaceOnUse">
<stop stop-color="#BCBEFF"/>
<stop offset="0.2271" stop-color="#AAADF8"/>
<stop offset="0.6802" stop-color="#7C83E5"/>
<stop offset="1" stop-color="#5761D7"/>
</linearGradient>
<linearGradient id="paint7_linear_1348_10820" x1="78.1173" y1="108.199" x2="98.9137" y2="108.199" gradientUnits="userSpaceOnUse">
<stop stop-color="#E9E9FD"/>
<stop offset="0.3601" stop-color="#D3D2F9"/>
<stop offset="0.7062" stop-color="#C5C4F7"/>
<stop offset="1" stop-color="#C0BFF6"/>
</linearGradient>
<linearGradient id="paint8_linear_1348_10820" x1="78.1652" y1="98.8706" x2="98.9393" y2="98.8706" gradientUnits="userSpaceOnUse">
<stop stop-color="#389989"/>
<stop offset="0.151" stop-color="#3A9B8B"/>
<stop offset="0.3866" stop-color="#389989"/>
<stop offset="0.6124" stop-color="#40A191"/>
<stop offset="0.8221" stop-color="#389989"/>
<stop offset="1" stop-color="#369787"/>
</linearGradient>
<linearGradient id="paint9_linear_1348_10820" x1="78.1048" y1="95.229" x2="98.9011" y2="95.229" gradientUnits="userSpaceOnUse">
<stop stop-color="#E6F7F4"/>
<stop offset="1" stop-color="#A8F0E4"/>
</linearGradient>
<linearGradient id="paint10_linear_1348_10820" x1="11.7877" y1="40.6318" x2="28.2494" y2="50.1802" gradientUnits="userSpaceOnUse">
<stop stop-color="#BCBEFF"/>
<stop offset="0.2271" stop-color="#AAADF8"/>
<stop offset="0.6802" stop-color="#7C83E5"/>
<stop offset="1" stop-color="#5761D7"/>
</linearGradient>
<linearGradient id="paint11_linear_1348_10820" x1="9.71911" y1="44.2161" x2="30.5155" y2="44.2161" gradientUnits="userSpaceOnUse">
<stop stop-color="#E9E9FD"/>
<stop offset="0.3601" stop-color="#D3D2F9"/>
<stop offset="0.7062" stop-color="#C5C4F7"/>
<stop offset="1" stop-color="#C0BFF6"/>
</linearGradient>
<linearGradient id="paint12_linear_1348_10820" x1="9.75314" y1="36.0893" x2="30.5272" y2="36.0893" gradientUnits="userSpaceOnUse">
<stop stop-color="#389989"/>
<stop offset="0.151" stop-color="#3A9B8B"/>
<stop offset="0.3866" stop-color="#389989"/>
<stop offset="0.6124" stop-color="#40A191"/>
<stop offset="0.8221" stop-color="#389989"/>
<stop offset="1" stop-color="#369787"/>
</linearGradient>
<linearGradient id="paint13_linear_1348_10820" x1="12.7779" y1="28.2071" x2="27.4585" y2="36.7225" gradientUnits="userSpaceOnUse">
<stop offset="0.2421" stop-color="#5761D7"/>
<stop offset="0.3923" stop-color="#7A82E5"/>
<stop offset="0.5463" stop-color="#979CF0"/>
<stop offset="0.7" stop-color="#ACAFF8"/>
<stop offset="0.8519" stop-color="#B8BAFD"/>
<stop offset="1" stop-color="#BCBEFF"/>
</linearGradient>
<linearGradient id="paint14_linear_1348_10820" x1="9.73367" y1="32.4201" x2="30.53" y2="32.4201" gradientUnits="userSpaceOnUse">
<stop stop-color="#E6F7F4"/>
<stop offset="1" stop-color="#A8F0E4"/>
</linearGradient>
<linearGradient id="paint15_linear_1348_10820" x1="10.027" y1="32.4277" x2="30.1968" y2="32.4277" gradientUnits="userSpaceOnUse">
<stop stop-color="#E6F7F4"/>
<stop offset="1" stop-color="#A8F0E4"/>
</linearGradient>
<linearGradient id="paint16_linear_1348_10820" x1="20.1168" y1="37.4677" x2="20.1168" y2="4.03179" gradientUnits="userSpaceOnUse">
<stop stop-color="#42E8E0"/>
<stop offset="1" stop-color="#42E8E0" stop-opacity="0"/>
</linearGradient>
</defs>
</svg>
