<svg width="168" height="121" viewBox="0 0 168 121" fill="none" xmlns="http://www.w3.org/2000/svg">
<g clip-path="url(#clip0_1348_10546)">
<g opacity="0.2">
<path d="M42.1115 47.9573C41.6587 42.3442 37.1302 35.8208 32.0482 33.4441C29.4821 32.2304 27.3185 32.281 25.809 33.3429L24.2492 34.4554H24.7524C23.9473 35.6185 23.5951 37.2367 23.746 39.2595C24.2492 44.8726 28.7274 51.396 33.8093 53.7728C35.5704 54.5819 37.1302 54.8347 38.4384 54.5313V54.9864L40.0485 53.8739L40.0989 53.8233C41.558 52.7614 42.3631 50.7386 42.1115 47.9573Z" fill="#359686"/>
<path d="M38.457 55.0059C41.7167 52.7214 41.1765 46.2823 37.2503 40.6236C33.3242 34.9649 27.4989 32.2295 24.2392 34.5139C20.9794 36.7984 21.5197 43.2375 25.4458 48.8962C29.3719 54.5549 35.1972 57.2903 38.457 55.0059Z" fill="#3FBDA8"/>
<path d="M35.2185 54.683C34.2625 54.683 33.1555 54.4302 32.0486 53.8739C27.5201 51.75 23.4948 45.9346 23.0922 40.9283C22.891 38.5009 23.5451 36.5793 25.0043 35.568C26.4131 34.5566 28.4258 34.6071 30.6397 35.6185C35.1682 37.7424 39.1935 43.5578 39.596 48.5642C39.7973 50.9915 39.1432 52.9131 37.684 53.9245C36.9796 54.4302 36.1745 54.683 35.2185 54.683ZM27.4194 35.1128C26.5138 35.1128 25.759 35.3657 25.1049 35.8208C23.7464 36.7816 23.0922 38.6021 23.2935 40.9283C23.696 45.8334 27.671 51.5477 32.1492 53.6716C34.2625 54.683 36.1745 54.683 37.533 53.7728C38.8916 52.8119 39.5457 50.9915 39.3444 48.6653C38.9419 43.7601 34.9669 38.0458 30.4887 35.9219C29.4321 35.3657 28.3755 35.1128 27.4194 35.1128Z" fill="#3DE8CB"/>
</g>
<path d="M56.804 110.461C55.4455 110.461 54.1373 110.157 53.131 109.601L5.07883 81.7376C4.12282 81.1813 3.56934 80.4228 3.56934 79.5631C3.56934 78.5517 4.32408 77.4898 5.68262 76.7312L97.3087 23.5833C99.8245 22.1168 103.598 21.9651 105.762 23.2293L153.814 51.0928C154.77 51.6491 155.323 52.4076 155.323 53.2673C155.323 54.2786 154.569 55.3406 153.21 56.0991L61.5841 109.298C60.2256 110.056 58.4645 110.461 56.804 110.461ZM102.089 22.5719C100.479 22.5719 98.7679 22.9765 97.4094 23.735L5.78326 76.9335C4.52535 77.692 3.7706 78.6529 3.7706 79.5631C3.7706 80.3216 4.27377 81.0296 5.17946 81.5858L53.2316 109.449C55.3449 110.663 59.018 110.511 61.4835 109.095L153.11 55.9474C154.367 55.1889 155.122 54.2281 155.122 53.3178C155.122 52.5593 154.619 51.8513 153.713 51.2951L105.661 23.4316C104.705 22.8248 103.447 22.5719 102.089 22.5719Z" fill="#3FBDA8"/>
<path d="M155.173 40.4228L148.28 41.5858L105.712 16.8577C103.599 15.5934 99.825 15.7957 97.3595 17.2116L15.8973 64.4936L3.7207 66.6175V70.9664C3.7207 71.7755 4.17355 72.534 5.17988 73.0903L53.232 100.954C55.3453 102.218 59.119 102.016 61.5845 100.6L153.16 47.4518C154.469 46.6933 155.173 45.6819 155.173 44.7717V40.4228Z" fill="url(#paint0_linear_1348_10546)"/>
<path d="M53.1824 96.6049L5.13031 68.6908C3.01702 67.4266 3.2686 65.3027 5.7341 63.8362L97.3602 10.6883C99.8257 9.27237 103.549 9.12067 105.713 10.3343L153.765 38.1978C155.878 39.462 155.627 41.5859 153.161 43.0524L61.535 96.2509C59.0694 97.6668 55.346 97.8185 53.1824 96.6049Z" fill="#0A5145"/>
<path d="M153.16 43.0524L61.5341 96.2509C59.0686 97.6668 55.3452 97.8185 53.1816 96.6049L5.12948 68.6908C4.2741 68.1851 3.82125 67.5277 3.72062 66.8704C3.56967 67.7806 4.07283 68.6403 5.12948 69.2471L53.1816 97.1611C55.2949 98.4253 59.0686 98.2231 61.5341 96.8071L153.16 43.6592C154.619 42.7996 155.324 41.687 155.173 40.6757C155.022 41.4848 154.368 42.395 153.16 43.0524Z" fill="white"/>
<path opacity="0.51" d="M53.2819 95.4923L6.94056 68.5897C4.87759 67.376 5.12917 65.3027 7.54436 63.8868L97.4597 11.7502C99.8246 10.3849 103.447 10.2332 105.51 11.3962L151.852 38.2989C153.915 39.5126 153.663 41.5859 151.248 43.0018L61.3326 95.1889C58.9677 96.5543 55.3449 96.706 53.2819 95.4923Z" fill="#0D564A"/>
<path opacity="0.5" d="M53.2819 94.3291L6.94056 67.4265C4.87759 66.2128 5.12917 64.1395 7.54436 62.7236L97.4597 10.587C99.8246 9.22166 103.447 9.06995 105.51 10.233L151.852 37.1357C153.915 38.3493 153.663 40.4227 151.248 41.8386L61.3325 93.9751C58.9677 95.3405 55.3449 95.4922 53.2819 94.3291Z" fill="url(#paint1_radial_1348_10546)"/>
<path opacity="0.8" d="M56.8037 95.2394C55.4451 95.2394 54.1872 94.9866 53.2312 94.4303L6.88984 67.5277C5.93383 66.9714 5.43066 66.2129 5.43066 65.3532C5.43066 64.3418 6.18541 63.3304 7.49363 62.5719L97.409 10.4354C99.8242 9.01945 103.497 8.86774 105.611 10.0814L151.952 36.984C152.908 37.5403 153.411 38.2988 153.411 39.1585C153.411 40.1699 152.656 41.1813 151.348 41.9398L61.4328 94.0763C60.1246 94.8854 58.4138 95.2394 56.8037 95.2394ZM53.3822 94.1775C55.3948 95.3406 58.9673 95.1889 61.2818 93.8235L151.197 41.687C152.405 40.979 153.109 40.0688 153.109 39.1585C153.109 38.4505 152.656 37.7426 151.801 37.2369L105.46 10.3342C103.447 9.17115 99.8745 9.32286 97.5599 10.6882L7.59427 62.8753C6.38667 63.5833 5.68225 64.4935 5.68225 65.4038C5.68225 66.1117 6.13509 66.8197 6.99047 67.3254L53.3822 94.1775Z" fill="url(#paint2_linear_1348_10546)"/>
<path d="M56.8037 95.2394C55.4954 95.2394 54.1872 94.9865 53.2312 94.4303L6.88984 67.5276C5.93383 66.9714 5.43066 66.2128 5.43066 65.4037C5.43066 64.3924 6.18541 63.4316 7.44332 62.673L97.409 10.4859C99.8242 9.06998 103.497 8.91828 105.56 10.1319L151.902 37.0346C152.858 37.5908 153.361 38.3494 153.361 39.1585C153.361 40.1699 152.606 41.1307 151.348 41.8892L61.3825 94.0763C60.0742 94.8348 58.4138 95.2394 56.8037 95.2394ZM53.3318 94.228C55.3445 95.3911 58.917 95.2394 61.2818 93.874L151.247 41.7375C152.455 41.0295 153.16 40.1193 153.16 39.1585C153.16 38.3999 152.707 37.7425 151.801 37.2369L105.46 10.3342C103.447 9.17112 99.8745 9.32283 97.5096 10.6882L7.59427 62.8247C6.38667 63.5327 5.68225 64.4429 5.68225 65.4037C5.68225 66.1623 6.13509 66.8197 7.04079 67.3254L53.3318 94.228Z" fill="#3FBDA8"/>
<path d="M74.6144 30.0562C74.4131 30.0562 74.1615 30.0057 73.9099 29.854L69.1299 27.0727L69.2305 26.8704L74.0106 29.6517C74.3628 29.854 74.6647 29.9045 74.9163 29.7528C75.1678 29.6011 75.2685 29.2977 75.2685 28.8931V27.7301C75.2685 27.2244 75.4194 26.8704 75.7716 26.7187C76.0735 26.5164 76.4761 26.567 76.9289 26.8198L77.9352 27.3761L77.8346 27.5784L76.8283 27.0221C76.4761 26.8198 76.1742 26.7693 75.9226 26.921C75.671 27.0727 75.5704 27.3761 75.5704 27.7806V28.8931C75.5704 29.3988 75.4194 29.7528 75.0672 29.9551C74.9163 30.0057 74.7653 30.0562 74.6144 30.0562Z" fill="#3FBDA8"/>
<path d="M72.753 31.1182C72.5518 31.1182 72.3002 31.0676 72.0486 30.9159L67.2686 28.1346L67.3692 27.9323L72.1492 30.7136C72.5015 30.9159 72.8034 30.9664 73.0549 30.8147C73.3065 30.663 73.4071 30.3596 73.4071 29.9551V28.792C73.4071 28.2863 73.5581 27.9323 73.9103 27.73C74.2122 27.5278 74.6147 27.5783 75.0676 27.8312L76.0739 28.3874L75.9733 28.5897L74.967 28.0335C74.6147 27.8312 74.3128 27.7806 74.0613 27.9323C73.8097 28.084 73.7091 28.3874 73.7091 28.792V29.9551C73.7091 30.4608 73.5581 30.8147 73.2059 31.017C73.0549 31.0676 72.904 31.1182 72.753 31.1182Z" fill="#3FBDA8"/>
<path d="M70.8917 32.1802C70.6904 32.1802 70.4389 32.1296 70.1873 31.9779L65.4072 29.1966L65.5079 28.9943L70.2879 31.7756C70.6401 31.9779 70.942 32.0285 71.1936 31.8768C71.4452 31.725 71.5458 31.4216 71.5458 31.0171V29.854C71.5458 29.3483 71.6968 28.9943 72.049 28.792C72.3509 28.5898 72.7534 28.6403 73.2063 28.8932L74.2126 29.4494L74.112 29.6517L73.1056 29.0955C72.7534 28.8932 72.4515 28.8426 72.1999 28.9943C71.9484 29.146 71.8477 29.4494 71.8477 29.854V31.0171C71.8477 31.5228 71.6968 31.8768 71.3446 32.0285C71.1936 32.1296 71.0427 32.1802 70.8917 32.1802Z" fill="#3FBDA8"/>
<path d="M69.0304 33.2422C68.8291 33.2422 68.5775 33.1916 68.326 33.0399L63.5459 30.2586L63.6465 30.0563L68.4266 32.8376C68.7788 33.0399 69.0807 33.0905 69.3323 32.9388C69.5839 32.7871 69.6845 32.4836 69.6845 32.0791V30.916C69.6845 30.4103 69.8354 30.0563 70.1877 29.8541C70.4896 29.6518 70.8921 29.7024 71.3449 29.9552L72.3513 30.5115L72.2506 30.7137L71.2443 30.1575C70.8921 29.9552 70.5902 29.9046 70.3386 30.0563C70.087 30.208 69.9864 30.5115 69.9864 30.916V32.0791C69.9864 32.5848 69.8354 32.9388 69.4832 33.141C69.3323 33.1916 69.1813 33.2422 69.0304 33.2422Z" fill="#3FBDA8"/>
<path d="M67.1681 34.3041C66.9668 34.3041 66.7152 34.2535 66.4636 34.1018L61.6836 31.3205L61.7842 31.1182L66.5643 33.8995C66.9165 34.1018 67.2184 34.1524 67.47 34.0007C67.7216 33.8489 67.8222 33.5455 67.8222 33.141V31.9779C67.8222 31.4722 67.9731 31.1182 68.3254 30.916C68.6273 30.7137 69.0298 30.7642 69.4826 31.0171L70.489 31.5733L70.3883 31.7756L69.382 31.2194C69.0298 31.0171 68.7279 30.9665 68.4763 31.1182C68.2247 31.2699 68.1241 31.5733 68.1241 31.9779V33.141C68.1241 33.6467 67.9731 34.0007 67.6209 34.2029C67.47 34.2535 67.3693 34.3041 67.1681 34.3041Z" fill="#3FBDA8"/>
<path d="M65.3566 35.3659C65.1553 35.3659 64.9037 35.3154 64.6521 35.1636L59.8721 32.3824L59.9727 32.1801L64.7528 34.9614C65.105 35.1636 65.4069 35.2142 65.6585 35.0625C65.91 34.9108 66.0107 34.6074 66.0107 34.2028V33.0398C66.0107 32.5341 66.1616 32.1801 66.5138 32.0284C66.8157 31.8261 67.2183 31.8767 67.6711 32.1295L68.6774 32.6858L68.5768 32.888L67.5705 32.3318C67.2183 32.1295 66.9164 32.0789 66.6648 32.2307C66.4132 32.3824 66.3126 32.6858 66.3126 33.0903V34.2534C66.3126 34.7591 66.1616 35.1131 65.8094 35.3154C65.6585 35.3659 65.5075 35.3659 65.3566 35.3659Z" fill="#3FBDA8"/>
<path d="M63.4952 36.4785C63.294 36.4785 63.0424 36.4279 62.7908 36.2762L58.0107 33.4949L58.1114 33.2927L62.8914 36.074C63.2436 36.2762 63.5455 36.3268 63.7971 36.1751C64.0487 36.0234 64.1493 35.72 64.1493 35.3154V34.1523C64.1493 33.6466 64.3003 33.2927 64.6525 33.0904C64.9544 32.8881 65.3569 32.9387 65.8098 33.1915L66.8161 33.7478L66.7155 33.9501L65.7091 33.3938C65.3569 33.1915 65.055 33.141 64.8035 33.2927C64.5519 33.4444 64.4512 33.7478 64.4512 34.1523V35.3154C64.4512 35.8211 64.3003 36.1751 63.9481 36.3774C63.7971 36.4279 63.6462 36.4785 63.4952 36.4785Z" fill="#3FBDA8"/>
<path d="M61.6329 37.5404C61.4317 37.5404 61.1801 37.4898 60.9285 37.3381L56.1484 34.5568L56.2491 34.3546L61.0291 37.1358C61.3813 37.3381 61.6832 37.3887 61.9348 37.237C62.1864 37.0853 62.287 36.7819 62.287 36.3773V35.2142C62.287 34.7085 62.438 34.3546 62.7902 34.1523C63.0921 33.95 63.4946 34.0006 63.9475 34.2534L64.9538 34.8097L64.8532 35.0119L63.8468 34.4557C63.4946 34.2534 63.1927 34.2028 62.9411 34.3546C62.6896 34.5063 62.5889 34.8097 62.5889 35.2142V36.3773C62.5889 36.883 62.438 37.237 62.0858 37.4393C61.9348 37.4898 61.7839 37.5404 61.6329 37.5404Z" fill="#3FBDA8"/>
<path d="M59.7716 38.6024C59.5703 38.6024 59.3187 38.5518 59.0672 38.4001L54.2871 35.6188L54.3877 35.4166L59.1678 38.1979C59.52 38.4001 59.8219 38.4507 60.0735 38.299C60.3251 38.1473 60.4257 37.8439 60.4257 37.4393V36.2762C60.4257 35.7705 60.5767 35.4166 60.9289 35.2143C61.2308 35.012 61.6333 35.0626 62.0861 35.3154L63.0925 35.8717L62.9918 36.074L61.9855 35.5177C61.6333 35.3154 61.3314 35.2649 61.0798 35.4166C60.8282 35.5683 60.7276 35.8717 60.7276 36.2762V37.4393C60.7276 37.945 60.5767 38.299 60.2244 38.5013C60.0735 38.5518 59.9225 38.6024 59.7716 38.6024Z" fill="#3FBDA8"/>
<path d="M57.9103 39.6643C57.709 39.6643 57.4574 39.6137 57.2058 39.462L52.4258 36.6807L52.5264 36.4784L57.3065 39.2597C57.6587 39.462 57.9606 39.5126 58.2122 39.3609C58.4637 39.2091 58.5644 38.9057 58.5644 38.5012V37.3381C58.5644 36.8324 58.7153 36.4784 59.0675 36.3267C59.3694 36.1244 59.772 36.175 60.2248 36.4279L61.2311 36.9841L61.1305 37.1864L60.1242 36.6301C59.772 36.4279 59.4701 36.3773 59.2185 36.529C58.9669 36.6807 58.8663 36.9841 58.8663 37.3887V38.5012C58.8663 39.0069 58.7153 39.3609 58.3631 39.5631C58.2122 39.6137 58.1115 39.6643 57.9103 39.6643Z" fill="#3FBDA8"/>
<path d="M56.0987 40.7263C55.8975 40.7263 55.6459 40.6757 55.3943 40.524L50.6143 37.7427L50.7149 37.5405L55.4949 40.3218C55.8472 40.524 56.1491 40.5746 56.4006 40.4229C56.6522 40.2712 56.7529 39.9678 56.7529 39.5632V38.4001C56.7529 37.8945 56.9038 37.5405 57.256 37.3382C57.5579 37.1359 57.9604 37.1865 58.4133 37.4393L59.4196 37.9956L59.319 38.1979L58.3127 37.6416C57.9604 37.4393 57.6585 37.3888 57.407 37.5405C57.1554 37.6922 57.0547 37.9956 57.0547 38.4001V39.5632C57.0547 40.0689 56.9038 40.4229 56.5516 40.6252C56.4006 40.6757 56.2497 40.7263 56.0987 40.7263Z" fill="#3FBDA8"/>
<path d="M54.2374 41.7882C54.0361 41.7882 53.7846 41.7376 53.533 41.5859L48.7529 38.8046L48.8536 38.6023L53.6336 41.3836C53.9858 41.5859 54.2877 41.6365 54.5393 41.4848C54.7909 41.333 54.8915 41.0296 54.8915 40.6251V39.5126C54.8915 39.0069 55.0425 38.6529 55.3947 38.4506C55.6966 38.2483 56.0991 38.2989 56.552 38.5518L57.5583 39.108L57.4577 39.3103L56.4513 38.754C56.0991 38.5518 55.7972 38.5012 55.5456 38.6529C55.2941 38.8046 55.1934 39.108 55.1934 39.5126V40.6757C55.1934 41.1813 55.0425 41.5353 54.6903 41.687C54.5393 41.7882 54.3884 41.7882 54.2374 41.7882Z" fill="#3FBDA8"/>
<path d="M52.3751 42.9007C52.1738 42.9007 51.9223 42.8502 51.6707 42.6985L46.8906 39.9172L46.9913 39.7149L51.7713 42.4962C52.1235 42.6985 52.4254 42.749 52.677 42.5973C52.9286 42.4456 53.0292 42.1422 53.0292 41.7377V40.5746C53.0292 40.0689 53.1802 39.7149 53.5324 39.5126C53.8343 39.3104 54.2368 39.3609 54.6897 39.6138L55.696 40.17L55.5954 40.3723L54.589 39.816C54.2368 39.6138 53.9349 39.5632 53.6833 39.7149C53.4318 39.8666 53.3311 40.17 53.3311 40.5746V41.7377C53.3311 42.2434 53.1802 42.5973 52.828 42.7996C52.677 42.8502 52.5261 42.9007 52.3751 42.9007Z" fill="#3FBDA8"/>
<path d="M50.5138 43.9626C50.3125 43.9626 50.0609 43.9121 49.8094 43.7604L45.0293 40.9791L45.1299 40.7768L49.91 43.5581C50.2622 43.7604 50.5641 43.8109 50.8157 43.6592C51.0673 43.5075 51.1679 43.2041 51.1679 42.7996V41.6365C51.1679 41.1308 51.3188 40.7768 51.6711 40.5745C51.973 40.3722 52.3755 40.4228 52.8283 40.6757L53.8347 41.2319L53.734 41.4342L52.7277 40.8779C52.3755 40.6757 52.0736 40.6251 51.822 40.7768C51.5704 40.9285 51.4698 41.2319 51.4698 41.6365V42.7996C51.4698 43.3052 51.3188 43.6592 50.9666 43.8615C50.8157 43.9121 50.6647 43.9626 50.5138 43.9626Z" fill="#3FBDA8"/>
<path d="M48.6519 45.0246C48.4507 45.0246 48.1991 44.974 47.9475 44.8223L43.2178 42.0411L43.3184 41.8388L48.0985 44.6201C48.4507 44.8223 48.7526 44.8729 49.0042 44.7212C49.2557 44.5695 49.3564 44.2661 49.3564 43.8615V42.6984C49.3564 42.1928 49.5073 41.8388 49.8595 41.6871C50.1614 41.4848 50.564 41.5354 51.0168 41.7882L52.0231 42.3445L51.9225 42.5467L50.9162 41.9905C50.564 41.7882 50.2621 41.7376 50.0105 41.8893C49.7589 42.041 49.6583 42.3445 49.6583 42.749V43.9121C49.6583 44.4178 49.5073 44.7718 49.1551 44.974C48.9538 44.974 48.8532 45.0246 48.6519 45.0246Z" fill="#3FBDA8"/>
<path d="M46.8409 46.0865C46.6397 46.0865 46.3881 46.036 46.1365 45.8843L41.3564 43.103L41.4571 42.9007L46.2371 45.682C46.5893 45.8843 46.8912 45.9348 47.1428 45.7831C47.3944 45.6314 47.495 45.328 47.495 44.9235V43.7604C47.495 43.2547 47.646 42.9007 47.9982 42.6984C48.3001 42.4961 48.7026 42.5467 49.1555 42.7996L50.1618 43.3558L50.0612 43.5581L49.0548 43.0018C48.7026 42.7996 48.4007 42.749 48.1492 42.9007C47.8976 43.0524 47.7969 43.3558 47.7969 43.7604V44.9235C47.7969 45.4291 47.646 45.7831 47.2938 45.9854C47.1428 46.036 46.9919 46.0865 46.8409 46.0865Z" fill="#3FBDA8"/>
<path d="M44.9786 47.1485C44.7774 47.1485 44.5258 47.098 44.2742 46.9463L39.4941 44.165L39.5948 43.9627L44.3748 46.744C44.727 46.9463 45.0289 46.9968 45.2805 46.8451C45.5321 46.6934 45.6327 46.39 45.6327 45.9855V44.8224C45.6327 44.3167 45.7837 43.9627 46.1359 43.7604C46.4378 43.5582 46.8403 43.6087 47.2932 43.8616L48.2995 44.4178L48.1486 44.6707L47.1422 44.1144C46.79 43.9121 46.4881 43.8616 46.2365 44.0133C45.9849 44.165 45.8843 44.4684 45.8843 44.8729V46.036C45.8843 46.5417 45.7334 46.8957 45.3812 47.0474C45.2805 47.1486 45.1296 47.1485 44.9786 47.1485Z" fill="#3FBDA8"/>
<path d="M43.1173 48.2106C42.916 48.2106 42.6644 48.16 42.4129 48.0083L37.6328 45.227L37.7334 45.0247L42.5135 47.806C42.8657 48.0083 43.1676 48.0589 43.4192 47.9071C43.6708 47.7554 43.7714 47.452 43.7714 47.0475V45.8844C43.7714 45.3787 43.9224 45.0247 44.2746 44.8224C44.5765 44.6202 44.979 44.6707 45.4318 44.9236L46.4382 45.4798L46.3375 45.6821L45.3312 45.1259C44.979 44.9236 44.6771 44.873 44.4255 45.0247C44.1739 45.1764 44.0733 45.4798 44.0733 45.8844V47.098C44.0733 47.6037 43.9224 47.9577 43.5701 48.16C43.4192 48.2106 43.2682 48.2106 43.1173 48.2106Z" fill="#3FBDA8"/>
<path d="M41.255 49.323C41.0537 49.323 40.8021 49.2724 40.5506 49.1207L35.7705 46.3394L35.8711 46.1371L40.6512 48.9184C41.0034 49.1207 41.3053 49.1713 41.5569 49.0196C41.8085 48.8679 41.9091 48.5645 41.9091 48.1599V46.9968C41.9091 46.4911 42.0601 46.1371 42.4123 45.9349C42.7142 45.7326 43.1167 45.7832 43.5695 46.036L44.5759 46.5923L44.4752 46.7945L43.4689 46.2383C43.1167 46.036 42.8148 45.9854 42.5632 46.1371C42.3116 46.2889 42.211 46.5923 42.211 46.9968V48.1599C42.211 48.6656 42.0601 49.0196 41.7078 49.2218C41.5569 49.2724 41.4059 49.323 41.255 49.323Z" fill="#3FBDA8"/>
<path d="M39.3937 50.385C39.1924 50.385 38.9408 50.3344 38.6892 50.1827L33.9092 47.4014L34.0098 47.1991L38.7899 49.9804C39.1421 50.1827 39.444 50.2333 39.6956 50.0816C39.9471 49.9298 40.0478 49.6264 40.0478 49.2219V48.0588C40.0478 47.5531 40.1987 47.1991 40.5509 47.0474C40.8528 46.8451 41.2554 46.8957 41.7082 47.1486L42.7145 47.7048L42.6139 47.9071L41.6076 47.3508C41.2554 47.1486 40.9535 47.098 40.7019 47.2497C40.4503 47.4014 40.3497 47.7048 40.3497 48.1094V49.2725C40.3497 49.7781 40.1987 50.1321 39.8465 50.3344C39.6956 50.3344 39.5949 50.385 39.3937 50.385Z" fill="#3FBDA8"/>
<path d="M82.1627 30.1067C82.0117 30.1067 81.8608 30.0562 81.7098 30.0056C81.4079 29.8033 81.2067 29.4494 81.2067 28.9437V27.7806C81.2067 27.376 81.0557 27.0726 80.8545 26.9209C80.6029 26.7692 80.301 26.8198 79.9488 27.022L78.9424 27.5783L78.8418 27.376L79.8481 26.8198C80.2507 26.5669 80.6532 26.5164 81.0054 26.7186C81.3073 26.9209 81.5086 27.2749 81.5086 27.73V28.8931C81.5086 29.2976 81.6595 29.6011 81.8608 29.7528C82.1124 29.9045 82.4143 29.8539 82.7665 29.6516L110.793 13.3179L110.893 13.5201L82.8671 29.9045C82.6155 30.0562 82.4143 30.1067 82.1627 30.1067Z" fill="#3FBDA8"/>
<path d="M84.024 31.1687C83.8731 31.1687 83.7221 31.1181 83.5712 31.0676C83.2693 30.8653 83.068 30.5113 83.068 30.0056V28.8931C83.068 28.4885 82.917 28.1851 82.7158 28.0334C82.4642 27.8817 82.1623 27.9323 81.8101 28.1346L80.8038 28.6908L80.7031 28.4885L81.7095 27.9323C82.112 27.6794 82.5145 27.6289 82.8667 27.8311C83.1686 28.0334 83.3699 28.3874 83.3699 28.8931V30.0562C83.3699 30.4607 83.5208 30.7641 83.7221 30.9158C83.9737 31.0676 84.2756 31.017 84.6278 30.8147L112.654 14.481L112.755 14.6832L84.7284 31.017C84.4769 31.1181 84.2756 31.1687 84.024 31.1687Z" fill="#3FBDA8"/>
<path d="M85.8853 32.2812C85.7344 32.2812 85.5834 32.2307 85.4325 32.1801C85.1306 31.9778 84.9293 31.6238 84.9293 31.1687V30.0056C84.9293 29.6011 84.7784 29.2977 84.5771 29.146C84.3255 28.9943 84.0236 29.0448 83.6714 29.2471L82.6651 29.8034L82.5645 29.6011L83.5708 29.0448C83.9733 28.792 84.3758 28.7414 84.7281 28.9437C85.03 29.146 85.2312 29.5 85.2312 30.0056V31.1687C85.2312 31.5733 85.3822 31.8767 85.5834 32.0284C85.835 32.1801 86.1369 32.1295 86.4891 31.9273L114.515 15.5935L114.616 15.7958L86.5898 32.1295C86.3382 32.1801 86.0866 32.2812 85.8853 32.2812Z" fill="#3FBDA8"/>
<path d="M87.7476 33.3432C87.5967 33.3432 87.4457 33.2926 87.2948 33.242C86.9929 33.0398 86.7916 32.6858 86.7916 32.1801V31.017C86.7916 30.6124 86.6407 30.309 86.4394 30.1573C86.1878 30.0056 85.8859 30.0562 85.5337 30.2585L84.5274 30.8147L84.4268 30.6124L85.4331 30.0562C85.8356 29.8033 86.2381 29.7528 86.5904 29.955C86.8923 30.1573 87.0935 30.5113 87.0935 31.017V32.1801C87.0935 32.5846 87.2445 32.888 87.4457 33.0397C87.6973 33.1915 87.9992 33.1409 88.3514 32.9386L116.378 16.6049L116.478 16.8071L88.4521 33.1409C88.2005 33.242 87.9489 33.3432 87.7476 33.3432Z" fill="#3FBDA8"/>
<path d="M89.6099 34.4051C89.459 34.4051 89.308 34.3545 89.1571 34.3039C88.8552 34.1016 88.6539 33.7477 88.6539 33.242V32.0789C88.6539 31.6743 88.503 31.3709 88.3017 31.2192C88.0501 31.0675 87.7482 31.1181 87.396 31.3204L86.3897 31.8766L86.2891 31.6743L87.2954 31.1181C87.6979 30.8652 88.1005 30.8147 88.4527 31.0169C88.7546 31.2192 88.9558 31.5732 88.9558 32.0789V33.242C88.9558 33.6465 89.1068 33.9499 89.308 34.1016C89.5596 34.2533 89.8615 34.2028 90.2137 34.0005L118.24 17.6667L118.341 17.869L90.3144 34.2028C90.0628 34.3545 89.8112 34.4051 89.6099 34.4051Z" fill="#3FBDA8"/>
<path d="M91.4205 35.4671C91.2695 35.4671 91.1186 35.4165 90.9676 35.366C90.6658 35.1637 90.4645 34.8097 90.4645 34.304V33.1409C90.4645 32.7364 90.3135 32.433 90.1123 32.2813C89.8607 32.1296 89.5588 32.1801 89.2066 32.3824L88.2002 32.9387L88.0996 32.7364L89.1059 32.1801C89.5085 31.9273 89.911 31.8767 90.2632 32.079C90.5651 32.2813 90.7664 32.6352 90.7664 33.0904V34.2534C90.7664 34.658 90.9173 34.9614 91.1186 35.1131C91.3702 35.2648 91.6721 35.2143 92.0243 35.012L120.051 18.6782L120.151 18.8805L92.1249 35.2143C91.8733 35.4165 91.6721 35.4671 91.4205 35.4671Z" fill="#3FBDA8"/>
<path d="M93.2828 36.5291C93.1318 36.5291 92.9809 36.4785 92.8299 36.4279C92.528 36.2257 92.3268 35.8717 92.3268 35.366V34.2029C92.3268 33.7984 92.1758 33.4949 91.9746 33.3432C91.723 33.1915 91.4211 33.2421 91.0689 33.4444L90.0625 34.0006L89.9619 33.7984L90.9682 33.2421C91.3708 32.9893 91.7733 32.9387 92.1255 33.141C92.4274 33.3432 92.6287 33.6972 92.6287 34.2029V35.366C92.6287 35.7705 92.7796 36.074 92.9809 36.2257C93.2325 36.3774 93.5344 36.3268 93.8866 36.1245L121.913 19.7908L122.013 19.993L93.9872 36.3268C93.7356 36.4785 93.5344 36.5291 93.2828 36.5291Z" fill="#3FBDA8"/>
<path d="M95.1441 37.5909C94.9932 37.5909 94.8422 37.5404 94.6913 37.4898C94.3894 37.2875 94.1881 36.9335 94.1881 36.4784V35.3153C94.1881 34.9108 94.0372 34.6074 93.8359 34.4557C93.5843 34.304 93.2824 34.3545 92.9302 34.5568L91.9239 35.1131L91.8232 34.9108L92.8296 34.3545C93.2321 34.1017 93.6346 34.0511 93.9868 34.2534C94.2887 34.4557 94.49 34.8096 94.49 35.3153V36.4784C94.49 36.883 94.641 37.1864 94.8422 37.3381C95.0938 37.4898 95.3957 37.4392 95.7479 37.237L123.774 20.9032L123.875 21.1055L95.8486 37.4392C95.597 37.5404 95.3454 37.5909 95.1441 37.5909Z" fill="#3FBDA8"/>
<path d="M97.0064 38.7034C96.8555 38.7034 96.7045 38.6529 96.5536 38.6023C96.2517 38.4 96.0504 38.046 96.0504 37.5403V36.3773C96.0504 35.9727 95.8995 35.6693 95.6982 35.5176C95.4466 35.3659 95.1447 35.4164 94.7925 35.6187L93.7862 36.175L93.6855 35.9727L94.6919 35.4164C95.0944 35.1636 95.4969 35.113 95.8492 35.3153C96.1511 35.5176 96.3523 35.8716 96.3523 36.3773V37.5403C96.3523 37.9449 96.5033 38.2483 96.7045 38.4C96.9561 38.5517 97.258 38.5012 97.6102 38.2989L125.636 21.9146L125.737 22.1168L97.7109 38.4506C97.4593 38.6023 97.2077 38.7034 97.0064 38.7034Z" fill="#3FBDA8"/>
<path d="M98.8678 39.7654C98.7168 39.7654 98.5659 39.7148 98.4149 39.6643C98.113 39.462 97.9117 39.108 97.9117 38.6023V37.4392C97.9117 37.0347 97.7608 36.7313 97.5595 36.5796C97.3079 36.4279 97.006 36.4784 96.6538 36.6807L95.6475 37.237L95.5469 37.0347L96.5532 36.4784C96.9557 36.2256 97.3583 36.175 97.7105 36.3773C98.0124 36.5796 98.2136 36.9335 98.2136 37.4392V38.6023C98.2136 39.0069 98.3646 39.3103 98.5659 39.462C98.8174 39.6137 99.1193 39.5631 99.4716 39.3609L127.498 23.0271L127.598 23.2294L99.5722 39.5631C99.3206 39.6643 99.069 39.7654 98.8678 39.7654Z" fill="#3FBDA8"/>
<path d="M100.679 40.8273C100.528 40.8273 100.377 40.7767 100.226 40.7262C99.9245 40.5239 99.7233 40.1699 99.7233 39.6642V38.5011C99.7233 38.0966 99.5723 37.7932 99.3711 37.6415C99.1195 37.4897 98.8176 37.5403 98.4654 37.7426L97.459 38.2988L97.3584 38.0966L98.3647 37.5403C98.7673 37.2875 99.1698 37.2369 99.522 37.4392C99.8239 37.6415 100.025 37.9954 100.025 38.5011V39.6642C100.025 40.0688 100.176 40.3722 100.377 40.5239C100.629 40.6756 100.931 40.625 101.283 40.4227L129.309 24.089L129.41 24.2913L101.384 40.625C101.132 40.7767 100.931 40.8273 100.679 40.8273Z" fill="#3FBDA8"/>
<path d="M102.541 41.8893C102.39 41.8893 102.239 41.8387 102.088 41.7882C101.786 41.5859 101.585 41.2319 101.585 40.7768V39.6137C101.585 39.2092 101.434 38.9057 101.232 38.754C100.981 38.6023 100.679 38.6529 100.327 38.8552L99.3204 39.4114L99.2197 39.2092L100.226 38.6529C100.629 38.4001 101.031 38.3495 101.383 38.5518C101.685 38.754 101.886 39.108 101.886 39.6137V40.7768C101.886 41.1813 102.037 41.4848 102.239 41.6365C102.49 41.7882 102.792 41.7376 103.144 41.5353L131.171 25.151L131.271 25.3533L103.245 41.687C102.993 41.8387 102.792 41.8893 102.541 41.8893Z" fill="#3FBDA8"/>
<path d="M104.402 42.9513C104.251 42.9513 104.1 42.9007 103.949 42.8502C103.647 42.6479 103.446 42.2939 103.446 41.7882V40.6251C103.446 40.2206 103.295 39.9172 103.094 39.7655C102.842 39.6138 102.54 39.6643 102.188 39.8666L101.182 40.4229L101.081 40.2206L102.087 39.6643C102.49 39.4115 102.892 39.3609 103.245 39.5632C103.547 39.7655 103.748 40.1195 103.748 40.6251V41.7882C103.748 42.1928 103.899 42.4962 104.1 42.6479C104.352 42.7996 104.654 42.749 105.006 42.5468L133.032 26.213L133.133 26.4153L105.106 42.749C104.855 42.9008 104.603 42.9513 104.402 42.9513Z" fill="#3FBDA8"/>
<path d="M106.264 44.0132C106.113 44.0132 105.962 43.9626 105.811 43.9121C105.51 43.7098 105.308 43.3558 105.308 42.8501V41.687C105.308 41.2825 105.157 40.9791 104.956 40.8274C104.704 40.6757 104.403 40.7262 104.05 40.9285L103.044 41.4848L102.943 41.2825L103.95 40.7262C104.352 40.4734 104.755 40.4228 105.107 40.6251C105.459 40.8274 105.61 41.1814 105.61 41.687V42.8501C105.61 43.2547 105.761 43.5581 105.962 43.7098C106.214 43.8615 106.516 43.8109 106.868 43.6087L134.894 27.2749L134.995 27.4772L106.969 43.8109C106.717 43.9626 106.466 44.0132 106.264 44.0132Z" fill="#3FBDA8"/>
<path d="M108.126 45.1257C107.975 45.1257 107.824 45.0751 107.673 45.0245C107.371 44.8223 107.17 44.4683 107.17 43.9626V42.7995C107.17 42.3949 107.019 42.0915 106.817 41.9398C106.566 41.7881 106.264 41.8387 105.912 42.041L104.905 42.5972L104.805 42.3949L105.811 41.8387C106.214 41.5858 106.616 41.5353 106.968 41.7376C107.27 41.9398 107.471 42.2938 107.471 42.7489V43.912C107.471 44.3166 107.622 44.62 107.824 44.7717C108.075 44.9234 108.377 44.8728 108.729 44.6705L136.756 28.3368L136.856 28.5391L108.83 44.8728C108.578 45.0245 108.327 45.1257 108.126 45.1257Z" fill="#3FBDA8"/>
<path d="M109.937 46.1876C109.786 46.1876 109.635 46.1371 109.484 46.0865C109.182 45.8842 108.981 45.5303 108.981 45.0246V43.8615C108.981 43.4569 108.83 43.1535 108.629 43.0018C108.377 42.8501 108.075 42.9007 107.723 43.1029L106.717 43.6592L106.616 43.4569L107.623 42.9007C108.025 42.6478 108.428 42.5973 108.78 42.7995C109.082 43.0018 109.283 43.3558 109.283 43.8615V45.0246C109.283 45.4291 109.434 45.7325 109.635 45.8842C109.887 46.0359 110.189 45.9854 110.541 45.7831L138.567 29.4493L138.668 29.6516L110.642 45.9854C110.39 46.0865 110.189 46.1876 109.937 46.1876Z" fill="#3FBDA8"/>
<path d="M111.799 47.2495C111.648 47.2495 111.497 47.199 111.346 47.1484C111.044 46.9461 110.843 46.5921 110.843 46.137V44.9739C110.843 44.5694 110.692 44.266 110.491 44.1143C110.239 43.9626 109.937 44.0131 109.585 44.2154L108.579 44.7717L108.528 44.5694L109.535 44.0131C109.937 43.7603 110.34 43.7097 110.692 43.912C110.994 44.1143 111.195 44.4682 111.195 44.9739V46.0865C111.195 46.491 111.346 46.7944 111.547 46.9461C111.799 47.0978 112.101 47.0473 112.453 46.845L140.479 30.5112L140.58 30.7135L112.554 47.0473C112.252 47.199 112.05 47.2495 111.799 47.2495Z" fill="#3FBDA8"/>
<path d="M113.661 48.3116C113.51 48.3116 113.359 48.261 113.208 48.2104C112.906 48.0081 112.705 47.6542 112.705 47.1485V45.9854C112.705 45.5808 112.554 45.2774 112.352 45.1257C112.101 44.974 111.799 45.0246 111.447 45.2268L110.44 45.7831L110.34 45.5808L111.346 45.0246C111.749 44.7717 112.151 44.7212 112.503 44.9234C112.805 45.1257 113.007 45.4797 113.007 45.9854V47.1485C113.007 47.553 113.158 47.8564 113.359 48.0081C113.61 48.1598 113.912 48.1093 114.265 47.907L142.291 31.5732L142.391 31.7755L114.365 48.1093C114.114 48.261 113.862 48.3116 113.661 48.3116Z" fill="#3FBDA8"/>
<path d="M115.522 49.3735C115.371 49.3735 115.22 49.323 115.069 49.2724C114.767 49.0701 114.566 48.7161 114.566 48.2104V47.0979C114.566 46.6934 114.415 46.39 114.214 46.2383C113.962 46.0865 113.66 46.1371 113.308 46.3394L112.302 46.8956L112.201 46.6934L113.207 46.1371C113.61 45.8843 114.013 45.8337 114.365 46.036C114.667 46.2383 114.868 46.5922 114.868 47.0979V48.261C114.868 48.6656 115.019 48.969 115.22 49.1207C115.472 49.2724 115.774 49.2218 116.126 49.0195L144.152 32.6858L144.253 32.8881L116.226 49.2218C115.975 49.323 115.723 49.3735 115.522 49.3735Z" fill="#3FBDA8"/>
<path d="M117.383 50.4355C117.232 50.4355 117.081 50.3849 116.931 50.3343C116.629 50.1321 116.427 49.7781 116.427 49.2724V48.1093C116.427 47.7048 116.276 47.4013 116.075 47.2496C115.824 47.0979 115.522 47.1485 115.169 47.3508L114.163 47.907L114.062 47.7048L115.069 47.1485C115.471 46.8957 115.874 46.8451 116.226 47.0474C116.528 47.2496 116.729 47.6036 116.729 48.0587V49.2218C116.729 49.6264 116.88 49.9298 117.081 50.0815C117.333 50.2332 117.635 50.1826 117.987 49.9804L146.013 33.6466L146.114 33.8489L118.088 50.2332C117.836 50.3849 117.585 50.4355 117.383 50.4355Z" fill="#3FBDA8"/>
<path d="M114.97 48.3114V52.5592L78.3896 73.7981L41.8096 52.5592V48.3114H114.97Z" fill="url(#paint3_linear_1348_10546)"/>
<path d="M78.3896 69.5504L41.8096 48.3114L78.3896 27.0725L114.97 48.3114L78.3896 69.5504Z" fill="#44C2AD"/>
<path d="M78.3896 69.0447L42.2624 48.0586L41.8096 48.3114L78.3896 69.5504L114.97 48.3114L114.567 48.0586L78.3896 69.0447Z" fill="white"/>
<path d="M78.3895 64.6452L50.2627 48.3114L78.3895 31.9777L106.567 48.3114L78.3895 64.6452Z" fill="black"/>
<path opacity="0.5" d="M78.3895 64.6452L50.2627 48.3114L78.3895 31.9777L106.567 48.3114L78.3895 64.6452Z" fill="url(#paint4_linear_1348_10546)"/>
<path opacity="0.5" d="M78.3896 27.8816L106.567 44.2153V48.3114L78.3896 31.9777V27.8816Z" fill="url(#paint5_linear_1348_10546)"/>
<path opacity="0.5" d="M78.3895 31.9777L50.2627 48.3114V44.2153L78.3895 27.8816V31.9777Z" fill="url(#paint6_linear_1348_10546)"/>
<path opacity="0.5" d="M78.3895 60.4985L50.2627 44.2153L78.3895 27.8816L106.567 44.2153L78.3895 60.4985Z" fill="url(#paint7_linear_1348_10546)"/>
<path opacity="0.7" d="M78.3891 55.6945L58.5645 44.2154L78.3891 32.6857L98.2641 44.2154L78.3891 55.6945Z" fill="#3FBDA8"/>
<path opacity="0.5" d="M78.3895 50.7387L67.1689 44.2153L78.3895 37.6919L89.6604 44.2153L78.3895 50.7387Z" fill="#3FBDA8"/>
<path opacity="0.5" d="M78.3895 38.2482L89.1069 44.5187L89.6604 44.2153L78.3895 37.6919L67.1689 44.2153L67.6721 44.5187L78.3895 38.2482Z" fill="#3FBDA8"/>
<path opacity="0.5" d="M78.3896 60.4985V64.6452L106.567 48.3114V44.2153L78.3896 60.4985Z" fill="url(#paint8_linear_1348_10546)"/>
<path opacity="0.5" d="M50.2627 44.2153V48.3114L78.3895 64.6452V60.4985L50.2627 44.2153Z" fill="url(#paint9_linear_1348_10546)"/>
<path opacity="0.8" d="M78.3895 60.094L50.6652 43.9625L50.2627 44.2154L78.3895 60.4986L106.567 44.2154L106.164 43.9625L78.3895 60.094Z" fill="#3FBDA8"/>
<path d="M87.5465 78.8046L82.7665 76.0233C81.9614 75.5176 81.257 74.3545 81.257 73.3937V72.2306C81.257 71.3204 80.6532 70.2585 79.8481 69.8033L78.8418 69.2471L78.9424 69.0448L79.9488 69.6011C80.7538 70.1067 81.4582 71.2698 81.4582 72.2306V73.3937C81.4582 74.304 82.062 75.3659 82.8671 75.821L87.6472 78.6023L87.5465 78.8046Z" fill="#3FBDA8"/>
<path d="M89.4079 77.7427L84.6278 74.9614C83.8227 74.5063 83.1183 73.2926 83.1183 72.3318V71.1688C83.1183 70.2585 82.5145 69.1966 81.7095 68.7414L80.7031 68.1852L80.8038 67.9829L81.8101 68.5392C82.6151 68.9943 83.3196 70.2079 83.3196 71.1688V72.3318C83.3196 73.2421 83.9234 74.304 84.7284 74.7591L89.5085 77.5404L89.4079 77.7427Z" fill="#3FBDA8"/>
<path d="M91.2194 76.6808L86.4393 73.8995C85.6343 73.3938 84.9298 72.2308 84.9298 71.2699V70.1069C84.9298 69.1966 84.326 68.1347 83.521 67.6796L82.5146 67.1233L82.6153 66.921L83.6216 67.4773C84.4267 67.983 85.1311 69.1461 85.1311 70.1069V71.2699C85.1311 72.1802 85.7349 73.2421 86.54 73.6973L91.32 76.4785L91.2194 76.6808Z" fill="#3FBDA8"/>
<path d="M93.0817 75.5681L88.3016 72.7869C87.4966 72.3317 86.7921 71.1181 86.7921 70.1573V68.9942C86.7921 68.084 86.1883 67.022 85.3833 66.5669L84.377 66.0106L84.4776 65.8083L85.4839 66.3646C86.289 66.8703 86.9934 68.0334 86.9934 68.9942V70.1573C86.9934 71.0675 87.5972 72.1295 88.4023 72.5846L93.1823 75.3659L93.0817 75.5681Z" fill="#3FBDA8"/>
<path d="M94.943 74.5063L90.163 71.725C89.3579 71.2698 88.6535 70.0562 88.6535 69.0954V67.9323C88.6535 67.0221 88.0497 65.9601 87.2446 65.505L86.2383 64.9487L86.3389 64.7465L87.3452 65.3027C88.1503 65.7578 88.8547 66.9715 88.8547 67.9323V69.0954C88.8547 70.0056 89.4585 71.0676 90.2636 71.5227L95.0436 74.304L94.943 74.5063Z" fill="#3FBDA8"/>
<path d="M96.8043 73.4442L92.0243 70.663C91.2192 70.1573 90.5148 68.9942 90.5148 68.0334V66.8703C90.5148 65.9601 89.911 64.8981 89.1059 64.443L88.0996 63.8867L88.2002 63.6844L89.2066 64.2407C90.0116 64.7464 90.7161 65.9095 90.7161 66.8703V68.0334C90.7161 68.9436 91.3199 70.0056 92.1249 70.4607L96.905 73.242L96.8043 73.4442Z" fill="#3FBDA8"/>
<path d="M98.6666 72.3824L93.8866 69.6011C93.0815 69.1459 92.3771 67.9323 92.3771 66.9715V65.8084C92.3771 64.8982 91.7733 63.8362 90.9682 63.3811L89.9619 62.8248L90.0625 62.6226L91.0689 63.1788C91.8739 63.6339 92.5784 64.8476 92.5784 65.8084V66.9715C92.5784 67.8817 93.1822 68.9437 93.9872 69.3988L98.7673 72.1801L98.6666 72.3824Z" fill="#3FBDA8"/>
<path d="M100.478 71.3204L95.6981 68.5391C94.8931 68.0335 94.1886 66.8704 94.1886 65.9096V64.797C94.1886 63.8868 93.5848 62.8249 92.7798 62.3697L91.7734 61.8135L91.8741 61.6112L92.8804 62.1675C93.6855 62.6732 94.3899 63.8362 94.3899 64.797V65.9601C94.3899 66.8704 94.9937 67.9323 95.7987 68.3874L100.579 71.1687L100.478 71.3204Z" fill="#3FBDA8"/>
<path d="M102.339 70.2079L97.5594 67.4266C96.7544 66.9715 96.05 65.7579 96.05 64.797V63.634C96.05 62.7237 95.4462 61.6618 94.6411 61.2067L93.6348 60.6504L93.7354 60.4481L94.7417 61.0044C95.5468 61.4595 96.2512 62.6731 96.2512 63.634V64.797C96.2512 65.7073 96.855 66.7692 97.6601 67.2244L102.44 70.0056L102.339 70.2079Z" fill="#3FBDA8"/>
<path d="M104.202 69.146L99.4217 66.3647C98.6167 65.8591 97.9122 64.696 97.9122 63.7352V62.5721C97.9122 61.6618 97.3085 60.5999 96.5034 60.1448L95.4971 59.5885L95.5977 59.3862L96.604 59.9425C97.4091 60.3976 98.1135 61.6113 98.1135 62.5721V63.7352C98.1135 64.6454 98.7173 65.7073 99.5224 66.1625L104.302 68.9437L104.202 69.146Z" fill="#3FBDA8"/>
<path d="M106.063 68.084L101.283 65.3027C100.478 64.797 99.7736 63.634 99.7736 62.6731V61.5101C99.7736 60.5998 99.1698 59.5379 98.3647 59.0828L97.3584 58.5265L97.459 58.3242L98.4654 58.8805C99.2704 59.3356 99.9748 60.5493 99.9748 61.5101V62.6731C99.9748 63.5834 100.579 64.6453 101.384 65.1005L106.164 67.8817L106.063 68.084Z" fill="#3FBDA8"/>
<path d="M107.924 67.022L103.144 64.2407C102.339 63.7856 101.635 62.5719 101.635 61.6111V60.448C101.635 59.5378 101.031 58.4759 100.226 58.0207L99.2197 57.4645L99.3204 57.2622L100.327 57.8185C101.132 58.2736 101.836 59.4872 101.836 60.448V61.6111C101.836 62.5214 102.44 63.5833 103.245 64.0384L108.025 66.8197L107.924 67.022Z" fill="#3FBDA8"/>
<path d="M109.736 65.9601L104.956 63.1788C104.151 62.6731 103.446 61.5101 103.446 60.5492V59.3862C103.446 58.4759 102.843 57.414 102.038 56.9589L101.031 56.4026L101.132 56.2003L102.138 56.7566C102.943 57.2623 103.648 58.4254 103.648 59.3862V60.5492C103.648 61.4595 104.251 62.5214 105.057 62.9766L109.837 65.7578L109.736 65.9601Z" fill="#3FBDA8"/>
<path d="M111.597 64.8476L106.817 62.0663C106.012 61.6112 105.308 60.3975 105.308 59.4367V58.2736C105.308 57.3634 104.704 56.3014 103.899 55.8463L102.893 55.29L102.993 55.0878L104 55.644C104.805 56.0991 105.509 57.3128 105.509 58.2736V59.4367C105.509 60.3469 106.113 61.4089 106.918 61.864L111.698 64.6453L111.597 64.8476Z" fill="#3FBDA8"/>
<path d="M113.46 63.7857L108.68 61.0044C107.874 60.4987 107.17 59.3356 107.17 58.3748V57.2117C107.17 56.3015 106.566 55.2395 105.761 54.7844L104.755 54.2282L104.856 54.0259L105.862 54.5821C106.667 55.0878 107.371 56.2509 107.371 57.2117V58.3748C107.371 59.285 107.975 60.347 108.78 60.8021L113.56 63.5834L113.46 63.7857Z" fill="#3FBDA8"/>
<path d="M115.321 62.7238L110.541 59.9425C109.736 59.4873 109.031 58.2737 109.031 57.3129V56.2004C109.031 55.2901 108.428 54.2282 107.623 53.7731L106.616 53.2168L106.717 53.0145L107.723 53.5708C108.528 54.0765 109.233 55.2396 109.233 56.2004V57.3635C109.233 58.2737 109.836 59.3356 110.642 59.7908L115.422 62.5721L115.321 62.7238Z" fill="#3FBDA8"/>
<path d="M117.183 61.6617L112.403 58.8804C111.598 58.4252 110.894 57.2116 110.894 56.2508V55.0877C110.894 54.1775 110.29 53.1155 109.485 52.6604L108.479 52.1041L108.579 51.9019L109.585 52.4581C110.391 52.9132 111.095 54.1269 111.095 55.0877V56.2508C111.095 57.161 111.699 58.223 112.504 58.6781L117.284 61.4594L117.183 61.6617Z" fill="#3FBDA8"/>
<path d="M118.994 60.5998L114.214 57.8185C113.409 57.3128 112.704 56.1497 112.704 55.1889V54.0258C112.704 53.1156 112.1 52.0536 111.295 51.5985L110.289 51.0422L110.39 50.84L111.396 51.3962C112.201 51.8513 112.906 53.065 112.906 54.0258V55.1889C112.906 56.0991 113.509 57.1611 114.314 57.6162L119.094 60.3975L118.994 60.5998Z" fill="#3FBDA8"/>
<path d="M120.856 59.4872L116.076 56.7059C115.271 56.2508 114.567 55.0372 114.567 54.0763V52.9133C114.567 52.003 113.963 50.9411 113.158 50.486L112.151 49.9297L112.252 49.7274L113.258 50.2837C114.063 50.7388 114.768 51.9525 114.768 52.9133V54.0763C114.768 54.9866 115.372 56.0485 116.177 56.5036L120.957 59.2849L120.856 59.4872Z" fill="#3FBDA8"/>
<path d="M122.718 58.4253L117.938 55.644C117.133 55.1383 116.429 53.9753 116.429 53.0145V51.8514C116.429 50.9411 115.825 49.8792 115.02 49.4241L114.014 48.8678L114.114 48.6655L115.121 49.2218C115.926 49.6769 116.63 50.8906 116.63 51.8514V53.0145C116.63 53.9247 117.234 54.9866 118.039 55.4418L122.819 58.223L122.718 58.4253Z" fill="#3FBDA8"/>
<path d="M47.9473 91.194L47.8467 90.9917L73.8099 75.821C74.5647 75.3659 75.2188 74.304 75.2188 73.3937V72.2306C75.2188 71.2698 75.8729 70.1067 76.7283 69.6011L77.7346 69.0448L77.8352 69.2471L76.8289 69.8033C76.0742 70.2585 75.42 71.3204 75.42 72.2306V73.3937C75.42 74.3545 74.7659 75.5176 73.9106 76.0233L47.9473 91.194Z" fill="#3FBDA8"/>
<path d="M46.086 90.1321L45.9854 89.9298L71.9486 74.7591C72.7033 74.304 73.3575 73.2421 73.3575 72.3318V71.1688C73.3575 70.2079 74.0116 69.0449 74.8669 68.5392L75.8733 67.9829L75.9739 68.1852L74.9676 68.7414C74.2128 69.1966 73.5587 70.2585 73.5587 71.1688V72.3318C73.5587 73.2926 72.9046 74.4557 72.0492 74.9614L46.086 90.1321Z" fill="#3FBDA8"/>
<path d="M44.2247 89.0701L44.124 88.8678L70.0873 73.6971C70.842 73.242 71.4961 72.1801 71.4961 71.2698V70.1067C71.4961 69.1459 72.1502 67.9828 73.0056 67.4772L74.0119 66.9209L74.1126 67.1232L73.1062 67.6794C72.3515 68.1346 71.6974 69.1965 71.6974 70.1067V71.2698C71.6974 72.2306 71.0433 73.3937 70.1879 73.8994L44.2247 89.0701Z" fill="#3FBDA8"/>
<path d="M42.3633 88.0081L42.2627 87.8058L68.2259 72.6351C68.9807 72.18 69.6348 71.118 69.6348 70.2078V69.0447C69.6348 68.0839 70.2889 66.9208 71.1443 66.4151L72.1506 65.8589L72.2512 66.0612L71.2449 66.6174C70.4902 67.0725 69.8361 68.1345 69.8361 69.0447V70.2078C69.8361 71.1686 69.182 72.3317 68.3266 72.8374L42.3633 88.0081Z" fill="#3FBDA8"/>
<path d="M40.501 86.8955L40.4004 86.6932L66.3636 71.5226C67.1184 71.0675 67.7725 70.0055 67.7725 69.0953V67.9322C67.7725 66.9714 68.4266 65.8083 69.282 65.3026L70.2883 64.7463L70.3889 64.9486L69.3826 65.5049C68.6279 65.96 67.9738 67.0219 67.9738 67.9322V69.0953C67.9738 70.0561 67.3196 71.2192 66.4643 71.7248L40.501 86.8955Z" fill="#3FBDA8"/>
<path d="M38.6895 85.8336L38.5889 85.6313L64.5521 70.4607C65.3069 70.0056 65.961 68.9436 65.961 68.0334V66.8703C65.961 65.9095 66.6151 64.7464 67.4705 64.2407L68.4768 63.6844L68.5774 63.8867L67.5711 64.443C66.8163 64.8981 66.1622 65.9601 66.1622 66.8703V68.0334C66.1622 68.9942 65.5081 70.1573 64.6527 70.663L38.6895 85.8336Z" fill="#3FBDA8"/>
<path d="M36.8282 84.7717L36.7275 84.5695L62.6908 69.3988C63.4455 68.9437 64.0996 67.8817 64.0996 66.9715V65.8084C64.0996 64.8476 64.7537 63.6845 65.6091 63.1788L66.6155 62.6226L66.7161 62.8248L65.7098 63.3811C64.955 63.8362 64.3009 64.8982 64.3009 65.8084V66.9715C64.3009 67.9323 63.6468 69.0954 62.7914 69.6011L36.8282 84.7717Z" fill="#3FBDA8"/>
<path d="M34.9659 83.7098L34.8652 83.5075L60.8285 68.3369C61.5832 67.8818 62.2373 66.8198 62.2373 65.9096V64.797C62.2373 63.8362 62.8914 62.6732 63.7468 62.1675L64.7532 61.6112L64.8538 61.8135L63.8475 62.3697C63.0927 62.8249 62.4386 63.8868 62.4386 64.797V65.9601C62.4386 66.9209 61.7845 68.084 60.9291 68.5897L34.9659 83.7098Z" fill="#3FBDA8"/>
<path d="M33.1045 82.6478L33.0039 82.4456L58.9671 67.2749C59.7219 66.8198 60.376 65.7578 60.376 64.8476V63.6845C60.376 62.7237 61.0301 61.5606 61.8855 61.0549L62.8918 60.4987L62.9925 60.7009L61.9861 61.2572C61.2314 61.7123 60.5773 62.7743 60.5773 63.6845V64.8476C60.5773 65.8084 59.9232 66.9715 59.0678 67.4772L33.1045 82.6478Z" fill="#3FBDA8"/>
<path d="M31.2432 81.5353L31.1426 81.333L57.1058 66.1623C57.8606 65.7072 58.5147 64.6453 58.5147 63.735V62.5719C58.5147 61.6111 59.1688 60.4481 60.0242 59.9424L61.0305 59.3861L61.1311 59.5884L60.1248 60.1446C59.3701 60.5998 58.7159 61.6617 58.7159 62.5719V63.735C58.7159 64.6958 58.0618 65.8589 57.2065 66.3646L31.2432 81.5353Z" fill="#3FBDA8"/>
<path d="M29.4317 80.4733L29.3311 80.271L55.2943 65.1003C56.049 64.6452 56.7032 63.5833 56.7032 62.673V61.5099C56.7032 60.5491 57.3573 59.386 58.2126 58.8804L59.219 58.3241L59.3196 58.5264L58.3133 59.0826C57.5585 59.5378 56.9044 60.5997 56.9044 61.5099V62.673C56.9044 63.6338 56.2503 64.7969 55.3949 65.3026L29.4317 80.4733Z" fill="#3FBDA8"/>
<path d="M27.5704 79.4114L27.4697 79.2091L53.433 64.0384C54.1877 63.5833 54.8418 62.5214 54.8418 61.6111V60.448C54.8418 59.4872 55.4959 58.3242 56.3513 57.8185L57.3576 57.2622L57.4583 57.4645L56.4519 58.0207C55.6972 58.4759 55.0431 59.5378 55.0431 60.448V61.6111C55.0431 62.5719 54.389 63.735 53.5336 64.2407L27.5704 79.4114Z" fill="#3FBDA8"/>
<path d="M25.7081 78.3495L25.6074 78.1472L51.5707 62.9766C52.3254 62.5214 52.9795 61.4595 52.9795 60.5492V59.3862C52.9795 58.4254 53.6336 57.2623 54.489 56.7566L55.4953 56.2003L55.596 56.4026L54.5896 56.9589C53.8349 57.414 53.1808 58.4759 53.1808 59.3862V60.5492C53.1808 61.5101 52.5267 62.6731 51.6713 63.1788L25.7081 78.3495Z" fill="#3FBDA8"/>
<path d="M23.8467 77.2876L23.7461 77.0853L49.7093 61.9147C50.4641 61.4595 51.1182 60.3976 51.1182 59.4874V58.3243C51.1182 57.3635 51.7723 56.2004 52.6277 55.6947L53.634 55.1384L53.7346 55.3407L52.7283 55.897C51.9736 56.3521 51.3195 57.414 51.3195 58.3243V59.4874C51.3195 60.4482 50.6653 61.6112 49.81 62.1169L23.8467 77.2876Z" fill="#3FBDA8"/>
<path d="M21.9844 76.1751L21.8838 75.9728L47.847 60.8021C48.6018 60.347 49.2559 59.285 49.2559 58.3748V57.2117C49.2559 56.2509 49.91 55.0878 50.7654 54.5821L51.7717 54.0259L51.8723 54.2282L50.866 54.7844C50.1113 55.2395 49.4572 56.3015 49.4572 57.2117V58.3748C49.4572 59.3356 48.803 60.4987 47.9477 61.0044L21.9844 76.1751Z" fill="#3FBDA8"/>
<path d="M20.1739 75.113L20.0732 74.9107L46.0365 59.7401C46.7912 59.2849 47.4453 58.223 47.4453 57.3128V56.2002C47.4453 55.2394 48.0995 54.0764 48.9548 53.5707L49.9612 53.0144L50.0618 53.2167L49.0555 53.7729C48.3007 54.2281 47.6466 55.29 47.6466 56.2002V57.3633C47.6466 58.3241 46.9925 59.4872 46.1371 59.9929L20.1739 75.113Z" fill="#3FBDA8"/>
<path d="M18.3116 74.0512L18.2109 73.8489L44.1742 58.6782C44.9289 58.2231 45.583 57.1611 45.583 56.2509V55.0878C45.583 54.127 46.2372 52.9639 47.0925 52.4582L48.0989 51.902L48.1995 52.1043L47.1932 52.6605C46.4384 53.1156 45.7843 54.1776 45.7843 55.0878V56.2509C45.7843 57.2117 45.1302 58.3748 44.2748 58.8805L18.3116 74.0512Z" fill="#3FBDA8"/>
<path d="M16.4502 72.9891L16.3496 72.7869L42.3129 57.6162C43.0676 57.1611 43.7217 56.0991 43.7217 55.1889V54.0258C43.7217 53.065 44.3758 51.9019 45.2312 51.3962L46.2375 50.84L46.3382 51.0422L45.3318 51.5985C44.5771 52.0536 43.923 53.1156 43.923 54.0258V55.1889C43.923 56.1497 43.2689 57.3128 42.4135 57.8185L16.4502 72.9891Z" fill="#3FBDA8"/>
<path d="M14.5879 71.8766L14.4873 71.6743L40.4505 56.5036C41.2053 56.0485 41.8594 54.9866 41.8594 54.0763V52.9133C41.8594 51.9525 42.5135 50.7894 43.3689 50.2837L44.3752 49.7274L44.4759 49.9297L43.4695 50.486C42.7148 50.9411 42.0607 52.003 42.0607 52.9133V54.0763C42.0607 55.0372 41.4066 56.2002 40.5512 56.7059L14.5879 71.8766Z" fill="#3FBDA8"/>
<path d="M12.7266 70.8147L12.626 70.6124L38.5892 55.4418C39.344 54.9866 39.9981 53.9247 39.9981 53.0145V51.8514C39.9981 50.8906 40.6522 49.7275 41.5076 49.2218L42.5139 48.6655L42.6145 48.8678L41.6082 49.4241C40.8535 49.8792 40.1993 50.9411 40.1993 51.8514V53.0145C40.1993 53.9753 39.5452 55.1383 38.6898 55.644L12.7266 70.8147Z" fill="#3FBDA8"/>
<g opacity="0.1">
<path d="M98.7175 114.051L93.082 110.814V117.338L98.7175 120.574L104.303 117.338V110.814L98.7175 114.051Z" fill="#3FBDA8"/>
<path d="M98.7175 120.574L93.082 117.338V110.814L98.7175 114.051V120.574Z" fill="#3FBDA8"/>
<path d="M104.303 117.338L98.7178 120.574V114.051L104.303 110.814V117.338Z" fill="#2FD3C7"/>
<path d="M98.7175 114.051L93.082 110.814L98.7175 107.578L104.303 110.814L98.7175 114.051Z" fill="#3FBDA8"/>
<path d="M98.7175 114.051L93.082 110.814V111.118L98.7175 114.354L104.303 111.118V110.814L98.7175 114.051Z" fill="white"/>
</g>
<path opacity="0.2" d="M98.7175 110.106L93.082 106.87L98.7175 103.634L104.303 106.87L98.7175 110.106Z" fill="#020C0C"/>
<path d="M98.7175 98.6779L93.082 95.4415V101.965L98.7175 105.201L104.303 101.965V95.4415L98.7175 98.6779Z" fill="#3FBDA8"/>
<path d="M98.7175 105.201L93.082 101.965V95.4415L98.7175 98.6779V105.201Z" fill="#3FBDA8"/>
<path d="M104.303 101.965L98.7178 105.201V98.6778L104.303 95.4414V101.965Z" fill="#2FD3C7"/>
<path d="M98.7175 98.6779L93.082 95.4415L98.7175 92.2051L104.303 95.4415L98.7175 98.6779Z" fill="#3FBDA8"/>
<path d="M98.7175 98.6779L93.082 95.4415V95.6944L98.7175 98.9814L104.303 95.6944V95.4415L98.7175 98.6779Z" fill="white"/>
<g opacity="0.1">
<path d="M16.4001 113.596L10.7646 110.309V116.832L16.4001 120.069L21.9852 116.832V110.309L16.4001 113.596Z" fill="#3FBDA8"/>
<path d="M16.4001 120.069L10.7646 116.832V110.309L16.4001 113.596V120.069Z" fill="#3FBDA8"/>
<path d="M21.9855 116.832L16.4004 120.069V113.596L21.9855 110.309V116.832Z" fill="#2FD3C7"/>
<path d="M16.4001 113.596L10.7646 110.309L16.4001 107.072L21.9852 110.309L16.4001 113.596Z" fill="#3FBDA8"/>
<path d="M16.4001 113.596L10.7646 110.309V110.612L16.4001 113.849L21.9852 110.612V110.309L16.4001 113.596Z" fill="white"/>
</g>
<path opacity="0.2" d="M16.4001 109.651L10.7646 106.364L16.4001 103.128L21.9852 106.364L16.4001 109.651Z" fill="#020C0C"/>
<path d="M16.4001 98.1723L10.7646 94.9359V101.459L16.4001 104.696L21.9852 101.459V94.9359L16.4001 98.1723Z" fill="#3FBDA8"/>
<path d="M16.4001 104.696L10.7646 101.459V94.9359L16.4001 98.1723V104.696Z" fill="#3FBDA8"/>
<path d="M21.9855 101.459L16.4004 104.696V98.1722L21.9855 94.9358V101.459Z" fill="#2FD3C7"/>
<path d="M16.4001 98.1723L10.7646 94.9359L16.4001 91.6995L21.9852 94.9359L16.4001 98.1723Z" fill="#3FBDA8"/>
<path d="M16.4001 98.1723L10.7646 94.9359V95.2393L16.4001 98.4757L21.9852 95.2393V94.9359L16.4001 98.1723Z" fill="white"/>
<g opacity="0.1">
<path d="M5.93375 51.6995L0.348633 48.4125V54.9359L5.93375 58.1723L11.5692 54.9359V48.4125L5.93375 51.6995Z" fill="#3FBDA8"/>
<path d="M5.93375 58.1723L0.348633 54.9359V48.4125L5.93375 51.6995V58.1723Z" fill="#3FBDA8"/>
<path d="M11.569 54.9359L5.93359 58.1723V51.6995L11.569 48.4125V54.9359Z" fill="#2FD3C7"/>
<path d="M5.93375 51.6994L0.348633 48.4124L5.93375 45.176L11.5692 48.4124L5.93375 51.6994Z" fill="#3FBDA8"/>
<path d="M5.93375 51.6995L0.348633 48.4125V48.7159L5.93375 51.9523L11.5692 48.7159V48.4125L5.93375 51.6995Z" fill="white"/>
</g>
<path opacity="0.2" d="M5.93375 47.7551L0.348633 44.4681L5.93375 41.2317L11.5692 44.4681L5.93375 47.7551Z" fill="#020C0C"/>
<path d="M5.93375 36.3265L0.348633 33.0396V39.5629L5.93375 42.7993L11.5692 39.5629V33.0396L5.93375 36.3265Z" fill="#3FBDA8"/>
<path d="M5.93375 42.7993L0.348633 39.5629V33.0396L5.93375 36.3265V42.7993Z" fill="#3FBDA8"/>
<path d="M11.569 39.5629L5.93359 42.7993V36.3265L11.569 33.0396V39.5629Z" fill="#2FD3C7"/>
<path d="M5.93375 36.3265L0.348633 33.0395L5.93375 29.8031L11.5692 33.0395L5.93375 36.3265Z" fill="#3FBDA8"/>
<path d="M5.93375 36.3265L0.348633 33.0396V33.343L5.93375 36.5794L11.5692 33.343V33.0396L5.93375 36.3265Z" fill="white"/>
<path opacity="0.4" d="M85.3332 66.3645L46.7406 43.9625C45.7342 43.4062 45.8852 42.3948 47.0425 41.6869L69.5842 28.6401C70.7415 27.9827 72.5025 27.8816 73.4585 28.4884L112.051 50.8904C113.058 51.4467 112.907 52.4581 111.749 53.166L89.2076 66.2128C88.0503 66.8702 86.3395 66.9713 85.3332 66.3645Z" fill="#0A5145"/>
<path d="M122.265 33.4441L121.611 33.343C121.561 33.2924 121.46 33.2418 121.41 33.1912L71.6976 4.36697C70.3893 3.60844 68.1754 3.70957 66.6659 4.56924L37.6837 21.4087C37.2812 21.611 36.9793 21.8638 36.778 22.1672L36.4258 22.0661V23.0775C36.4258 23.5326 36.7277 23.9877 37.2812 24.3417L86.9937 53.166C88.3019 53.9245 90.5159 53.8234 92.0254 52.9637L121.008 36.1242C121.813 35.6186 122.265 35.0117 122.215 34.4555V33.4441H122.265Z" fill="#359686"/>
<path d="M87.0445 52.1547L37.332 23.3304C36.0238 22.5719 36.225 21.3077 37.6842 20.448L66.7167 3.60855C68.1759 2.74888 70.4401 2.64774 71.7484 3.40628L121.461 32.2305C122.769 32.9891 122.568 34.2533 121.109 35.113L92.1265 51.9524C90.5667 52.8121 88.3528 52.9132 87.0445 52.1547Z" fill="#3FBDA8"/>
<path d="M87.0445 52.1547L37.332 23.3304C36.0238 22.5719 36.225 21.3077 37.6842 20.448L66.7167 3.60855C68.1759 2.74888 70.4401 2.64774 71.7484 3.40628L121.461 32.2305C122.769 32.9891 122.568 34.2533 121.109 35.113L92.1265 51.9524C90.5667 52.8121 88.3528 52.9132 87.0445 52.1547Z" fill="url(#paint10_radial_1348_10546)"/>
<path opacity="0.7" d="M95.0448 50.2331L40.7031 18.6781L46.4895 15.3406L100.831 46.845L95.0448 50.2331Z" fill="#0D564A"/>
<path opacity="0.7" d="M94.1888 36.3265L77.8359 26.8196L81.8612 24.4934L98.2141 34.0004L94.1888 36.3265Z" fill="white"/>
<path d="M29.8331 21.9145C35.2672 20.5491 40.953 15.0371 42.4625 9.62621C43.2172 6.89549 42.8147 4.72103 41.5568 3.40624L40.1982 2.04088L40.2486 2.54656C38.9907 1.93974 37.3302 1.8386 35.3679 2.34429C29.984 3.65908 24.3486 9.17109 22.7888 14.582C22.2353 16.453 22.2856 18.0712 22.7888 19.3354L22.3359 19.386L23.6945 20.8019L23.7448 20.8525C25.053 22.1167 27.1663 22.5718 29.8331 21.9145Z" fill="#359686"/>
<path d="M36.2833 15.8861C41.2171 11.0904 42.9771 4.8755 40.2145 2.00479C37.4519 -0.865933 31.2128 0.694582 26.2791 5.4903C21.3453 10.286 19.5852 16.5009 22.3478 19.3716C25.1104 22.2423 31.3496 20.6818 36.2833 15.8861Z" fill="#3FBDA8"/>
<path d="M26.7645 19.7905C25.3557 19.7905 24.1481 19.3354 23.2927 18.4758C22.0851 17.2115 21.7832 15.2393 22.4373 12.8626C23.7959 8.00799 28.8778 3.10281 33.7082 1.88915C36.0731 1.28233 38.0354 1.63631 39.2933 2.90053C40.5009 4.16475 40.8028 6.13694 40.1487 8.51368C38.7398 13.3683 33.7082 18.2735 28.8275 19.4871C28.1231 19.6894 27.4186 19.7905 26.7645 19.7905ZM35.8215 1.88915C35.1674 1.88915 34.5132 1.99029 33.7585 2.142C29.0288 3.35565 24.0474 8.1597 22.6889 12.9132C22.0348 15.1888 22.3367 17.1104 23.4436 18.2735C24.6009 19.4871 26.4626 19.7905 28.7772 19.2343C33.5572 18.0712 38.5385 13.2166 39.8971 8.46311C40.5512 6.18751 40.2493 4.31646 39.092 3.10281C38.3373 2.29371 37.18 1.88915 35.8215 1.88915Z" fill="#3DE8CB"/>
<g opacity="0.1">
<path d="M54.0873 77.1355C54.0873 71.4718 50.1626 64.645 45.2819 61.8132C42.8667 60.3972 40.6528 60.2455 39.0427 61.2063L37.3823 62.1672L37.8854 62.2177C37.03 63.2797 36.4766 64.8979 36.4766 66.9206C36.4766 72.5843 40.4012 79.4111 45.2819 82.243C46.9424 83.2038 48.5022 83.5578 49.8607 83.4061L49.8104 83.8612L51.5212 82.8498L51.5715 82.7993C53.1313 81.889 54.0873 79.9168 54.0873 77.1355Z" fill="#359686"/>
<path d="M52.3764 78.1469C52.3764 83.8106 48.4517 86.0862 43.571 83.2543C38.6903 80.4225 34.7656 73.5957 34.7656 67.932C34.7656 62.2682 38.6903 59.9926 43.571 62.8245C48.4517 65.6564 52.3764 72.4831 52.3764 78.1469Z" fill="#3FBDA8"/>
</g>
<path opacity="0.4" d="M44.1746 86.3392C38.0863 86.3392 32.0483 84.9739 27.4192 82.2937C22.9411 79.6642 20.4756 76.2255 20.4756 72.5339C20.4756 68.8424 22.9411 65.3531 27.4192 62.7741C36.6775 57.4138 51.722 57.4138 60.9299 62.7741C65.4081 65.4037 67.8736 68.8424 67.8736 72.5339C67.8736 76.2255 65.4081 79.7147 60.9299 82.2937C56.3008 85.0245 50.2126 86.3392 44.1746 86.3392ZM44.1746 58.9309C38.1366 58.9309 32.0987 60.2457 27.5199 62.9258C23.092 65.5049 20.6265 68.893 20.6265 72.5339C20.6265 76.1749 23.092 79.563 27.5199 82.142C36.7278 87.5023 51.6717 87.5023 60.8796 82.142C65.3075 79.563 67.773 76.1749 67.773 72.5339C67.773 68.893 65.3075 65.5049 60.8796 62.9258C56.2505 60.2457 50.2126 58.9309 44.1746 58.9309Z" fill="#3FBDA8"/>
<path opacity="0.2" d="M44.1747 90.0307C36.4763 90.0307 28.7779 88.3114 22.8908 84.9233C17.2051 81.6363 14.0352 77.2368 14.0352 72.5339C14.0352 67.831 17.1548 63.4315 22.8908 60.1445C34.6145 53.3177 53.6845 53.3177 65.4082 60.1445C71.0939 63.4315 74.2638 67.831 74.2638 72.5339C74.2638 77.2368 71.1442 81.6363 65.4082 84.9233C59.5715 88.362 51.8731 90.0307 44.1747 90.0307ZM44.1747 55.2393C36.5266 55.2393 28.8282 56.9081 22.9915 60.3468C17.356 63.6338 14.2364 67.9827 14.2364 72.5845C14.2364 77.1862 17.356 81.5352 22.9915 84.8221C34.6649 91.5984 53.6845 91.5984 65.3578 84.8221C70.9933 81.5352 74.1129 77.1862 74.1129 72.5845C74.1129 67.9827 70.9933 63.6338 65.3578 60.3468C59.5211 56.9081 51.8227 55.2393 44.1747 55.2393Z" fill="#3FBDA8"/>
<path d="M44.1747 83.4567C39.3947 83.4567 34.6146 82.3948 30.9415 80.2709C27.4194 78.1976 25.457 75.4668 25.457 72.5338C25.457 69.6008 27.4194 66.8701 30.9415 64.7968C38.2374 60.549 50.0617 60.549 57.3576 64.7968C60.8798 66.8701 62.8421 69.6008 62.8421 72.5338C62.8421 75.4668 60.8798 78.1976 57.3576 80.2709C53.7348 82.3948 48.9548 83.4567 44.1747 83.4567ZM44.1747 61.8638C39.445 61.8638 34.6649 62.9258 31.0421 64.9991C27.5703 67.0218 25.608 69.702 25.608 72.5844C25.608 75.4163 27.52 78.147 31.0421 80.1697C38.2877 84.367 50.0617 84.367 57.3073 80.1697C60.7791 78.147 62.7415 75.4668 62.7415 72.5844C62.7415 69.7526 60.8294 67.0218 57.3073 64.9991C53.6845 62.8752 48.9045 61.8638 44.1747 61.8638Z" fill="#3FBDA8"/>
<mask id="mask0_1348_10546" style="mask-type:luminance" maskUnits="userSpaceOnUse" x="30" y="40" width="28" height="39">
<path d="M57.9611 74.9106L52.4263 78.0965L30.3877 65.3531V40.7766L57.9611 56.7564V74.9106Z" fill="white"/>
</mask>
<g mask="url(#mask0_1348_10546)">
<path d="M54.0873 77.1357C54.0873 71.4719 50.1626 64.6451 45.2819 61.8133C42.8667 60.3974 40.6528 60.2457 39.0427 61.2065L37.3823 62.1673L37.8854 62.2178C37.03 63.2798 36.4766 64.898 36.4766 66.9207C36.4766 72.5845 40.4012 79.4113 45.2819 82.2431C46.9424 83.2039 48.5022 83.5579 49.8607 83.4062L49.8104 83.8613L51.5212 82.85L51.5715 82.7994C53.1313 81.8891 54.0873 79.917 54.0873 77.1357Z" fill="#359686"/>
<path d="M52.3764 78.147C52.3764 83.8107 48.4517 86.0863 43.571 83.2544C38.6903 80.4226 34.7656 73.5958 34.7656 67.9321C34.7656 62.2684 38.6903 59.9928 43.571 62.8246C48.4517 65.6565 52.3764 72.4833 52.3764 78.147Z" fill="#3FBDA8"/>
<path d="M47.1436 83.4568C46.0366 83.4568 44.829 83.1028 43.5208 82.3443C39.093 79.7652 35.5205 73.5453 35.5205 68.4378C35.5205 65.9599 36.3759 64.0889 37.8854 63.1786C39.4452 62.2684 41.4578 62.4707 43.6214 63.7349C48.0493 66.3139 51.6217 72.5339 51.6217 77.6413C51.6217 80.1698 50.7664 81.9903 49.2569 82.9005C48.6531 83.2545 47.8983 83.4568 47.1436 83.4568ZM40.049 62.8752C39.2942 62.8752 38.6401 63.0269 38.0363 63.3809C36.5772 64.2406 35.7721 66.0105 35.7721 68.4378C35.7721 73.4441 39.2942 79.6135 43.6214 82.142C45.6844 83.3556 47.6468 83.5579 49.1059 82.6982C50.5651 81.8386 51.3702 80.0687 51.3702 77.6413C51.3702 72.635 47.848 66.4656 43.5208 63.9372C42.3132 63.2292 41.1056 62.8752 40.049 62.8752Z" fill="#3DE8CB"/>
</g>
<g opacity="0.1">
<path d="M127.348 95.7957C127.348 90.132 131.272 83.3052 136.153 80.4733C138.568 79.0574 140.782 78.9057 142.392 79.8665L144.053 80.8273L143.55 80.8779C144.405 81.9398 144.958 83.558 144.958 85.5808C144.958 91.2445 141.034 98.0713 136.153 100.903C134.493 101.864 132.933 102.218 131.574 102.066L131.625 102.521L129.914 101.51L129.863 101.459C128.304 100.499 127.348 98.577 127.348 95.7957Z" fill="#359686"/>
<path d="M144.023 95.2721C147.455 89.2982 147.447 82.8365 144.006 80.8396C140.565 78.8428 134.993 82.0668 131.561 88.0407C128.129 94.0147 128.136 100.476 131.578 102.473C135.019 104.47 140.591 101.246 144.023 95.2721Z" fill="#3FBDA8"/>
</g>
<path opacity="0.4" d="M137.26 104.999C131.171 104.999 125.133 103.634 120.504 100.954C116.026 98.3241 113.561 94.8854 113.561 91.1938C113.561 87.5023 116.026 84.0131 120.504 81.434C129.762 76.0737 144.807 76.0737 154.015 81.434C158.493 84.0636 160.959 87.5023 160.959 91.1938C160.959 94.8854 158.493 98.3746 154.015 100.954C149.386 103.634 143.298 104.999 137.26 104.999ZM137.26 77.5402C131.222 77.5402 125.184 78.855 120.605 81.5352C116.177 84.1142 113.711 87.5529 113.711 91.1433C113.711 94.7842 116.177 98.1724 120.605 100.751C129.813 106.112 144.757 106.112 153.965 100.751C158.392 98.1724 160.858 94.7337 160.858 91.1433C160.858 87.5023 158.392 84.1142 153.965 81.5352C149.335 78.9056 143.298 77.5402 137.26 77.5402Z" fill="#3FBDA8"/>
<path opacity="0.2" d="M137.26 108.691C129.561 108.691 121.863 106.971 115.976 103.583C110.29 100.296 107.12 95.8967 107.12 91.1938C107.12 86.4909 110.24 82.0914 115.976 78.8044C127.7 71.9776 146.769 71.9776 158.493 78.8044C164.179 82.0914 167.349 86.4909 167.349 91.1938C167.349 95.8967 164.229 100.296 158.493 103.583C152.656 106.971 144.958 108.691 137.26 108.691ZM137.26 73.8487C129.612 73.8487 121.913 75.5175 116.076 78.9561C110.441 82.2431 107.321 86.592 107.321 91.1938C107.321 95.7956 110.441 100.144 116.076 103.431C127.75 110.208 146.769 110.208 158.443 103.431C164.078 100.144 167.198 95.7956 167.198 91.1938C167.198 86.592 164.078 82.2431 158.443 78.9561C152.606 75.568 144.908 73.8487 137.26 73.8487Z" fill="#3FBDA8"/>
<path d="M137.26 102.066C132.48 102.066 127.7 101.004 124.026 98.8803C120.504 96.8069 118.542 94.0762 118.542 91.1432C118.542 88.2102 120.504 85.4795 124.026 83.4062C131.322 79.1584 143.147 79.1584 150.443 83.4062C153.965 85.4795 155.927 88.2102 155.927 91.1432C155.927 94.0762 153.965 96.8069 150.443 98.8803C146.82 101.004 142.04 102.066 137.26 102.066ZM137.26 80.4732C132.53 80.4732 127.75 81.5351 124.127 83.6085C120.655 85.6312 118.693 88.3114 118.693 91.1938C118.693 94.0762 120.605 96.7564 124.127 98.7791C131.373 102.976 143.147 102.976 150.392 98.7791C153.864 96.7564 155.826 94.0762 155.826 91.1938C155.826 88.3114 153.914 85.6312 150.392 83.6085C146.769 81.5351 141.989 80.4732 137.26 80.4732Z" fill="#3FBDA8"/>
<mask id="mask1_1348_10546" style="mask-type:luminance" maskUnits="userSpaceOnUse" x="123" y="59" width="28" height="38">
<path d="M123.473 93.5706L129.007 96.7564L150.996 83.9625V59.386L123.473 75.3658V93.5706Z" fill="white"/>
</mask>
<g mask="url(#mask1_1348_10546)">
<path d="M127.348 95.7955C127.348 90.1317 131.272 83.3049 136.153 80.4731C138.568 79.0571 140.782 78.9054 142.392 79.8663L144.053 80.8271L143.55 80.8776C144.405 81.9396 144.958 83.5578 144.958 85.5805C144.958 91.2443 141.034 98.0711 136.153 100.903C134.493 101.864 132.933 102.218 131.574 102.066L131.625 102.521L129.914 101.51L129.863 101.459C128.304 100.498 127.348 98.5767 127.348 95.7955Z" fill="#359686"/>
<path d="M144.023 95.2721C147.455 89.2982 147.447 82.8365 144.006 80.8396C140.565 78.8428 134.993 82.0668 131.561 88.0407C128.129 94.0147 128.136 100.476 131.578 102.473C135.019 104.47 140.591 101.246 144.023 95.2721Z" fill="#3FBDA8"/>
<path d="M134.291 102.066C133.536 102.066 132.781 101.864 132.177 101.51C130.618 100.6 129.812 98.7286 129.812 96.2507C129.812 91.1433 133.385 84.9233 137.813 82.3443C139.976 81.0801 141.989 80.8778 143.549 81.788C145.109 82.6983 145.914 84.5693 145.914 87.0472C145.914 92.1546 142.341 98.3746 137.913 100.954C136.605 101.712 135.398 102.066 134.291 102.066ZM141.335 81.4846C140.278 81.4846 139.071 81.8386 137.863 82.5466C133.536 85.075 130.014 91.1938 130.014 96.2507C130.014 98.678 130.819 100.448 132.278 101.308C133.737 102.167 135.7 101.965 137.762 100.751C142.09 98.2229 145.612 92.1041 145.612 87.0472C145.612 84.6199 144.807 82.85 143.348 81.9903C142.744 81.6869 142.09 81.4846 141.335 81.4846Z" fill="#3DE8CB"/>
</g>
</g>
<defs>
<linearGradient id="paint0_linear_1348_10546" x1="3.71512" y1="58.9256" x2="155.11" y2="58.9256" gradientUnits="userSpaceOnUse">
<stop stop-color="#389989"/>
<stop offset="0.151" stop-color="#3A9B8B"/>
<stop offset="0.3866" stop-color="#389989"/>
<stop offset="0.6124" stop-color="#40A191"/>
<stop offset="0.8221" stop-color="#389989"/>
<stop offset="1" stop-color="#369787"/>
</linearGradient>
<radialGradient id="paint1_radial_1348_10546" cx="0" cy="0" r="1" gradientUnits="userSpaceOnUse" gradientTransform="translate(84.6752 24.0524) scale(142.319 143.034)">
<stop stop-color="#42E8E0"/>
<stop offset="1" stop-color="#020C0C"/>
</radialGradient>
<linearGradient id="paint2_linear_1348_10546" x1="100.548" y1="80.4672" x2="57.9935" y2="24.2776" gradientUnits="userSpaceOnUse">
<stop stop-color="#42E8E0"/>
<stop offset="0.1055" stop-color="#37B6BF"/>
<stop offset="0.2197" stop-color="#2C87A1"/>
<stop offset="0.338" stop-color="#235F87"/>
<stop offset="0.4587" stop-color="#1C3F72"/>
<stop offset="0.5824" stop-color="#162561"/>
<stop offset="0.7105" stop-color="#121355"/>
<stop offset="0.8458" stop-color="#10084E"/>
<stop offset="1" stop-color="#0F054C"/>
</linearGradient>
<linearGradient id="paint3_linear_1348_10546" x1="23.734" y1="61.0463" x2="117.492" y2="61.0463" gradientUnits="userSpaceOnUse">
<stop offset="0.0222208" stop-color="#3CD4D2"/>
<stop offset="1" stop-color="#147061"/>
</linearGradient>
<linearGradient id="paint4_linear_1348_10546" x1="50.2677" y1="48.3133" x2="106.544" y2="48.3133" gradientUnits="userSpaceOnUse">
<stop stop-color="#42E8E0"/>
<stop offset="0.1507" stop-color="#43E3E0"/>
<stop offset="0.3285" stop-color="#45D5DF"/>
<stop offset="0.5199" stop-color="#49BDDD"/>
<stop offset="0.7209" stop-color="#4E9CDB"/>
<stop offset="0.9274" stop-color="#5472D8"/>
<stop offset="1" stop-color="#5761D7"/>
</linearGradient>
<linearGradient id="paint5_linear_1348_10546" x1="78.4055" y1="38.0912" x2="106.544" y2="38.0912" gradientUnits="userSpaceOnUse">
<stop stop-color="#42E8E0"/>
<stop offset="0.1507" stop-color="#43E3E0"/>
<stop offset="0.3285" stop-color="#45D5DF"/>
<stop offset="0.5199" stop-color="#49BDDD"/>
<stop offset="0.7209" stop-color="#4E9CDB"/>
<stop offset="0.9274" stop-color="#5472D8"/>
<stop offset="1" stop-color="#5761D7"/>
</linearGradient>
<linearGradient id="paint6_linear_1348_10546" x1="50.2677" y1="38.0909" x2="78.4062" y2="38.0909" gradientUnits="userSpaceOnUse">
<stop stop-color="#42E8E0"/>
<stop offset="0.1507" stop-color="#43E3E0"/>
<stop offset="0.3285" stop-color="#45D5DF"/>
<stop offset="0.5199" stop-color="#49BDDD"/>
<stop offset="0.7209" stop-color="#4E9CDB"/>
<stop offset="0.9274" stop-color="#5472D8"/>
<stop offset="1" stop-color="#5761D7"/>
</linearGradient>
<linearGradient id="paint7_linear_1348_10546" x1="50.2677" y1="44.1961" x2="106.544" y2="44.1961" gradientUnits="userSpaceOnUse">
<stop stop-color="#42E8E0"/>
<stop offset="0.1507" stop-color="#43E3E0"/>
<stop offset="0.3285" stop-color="#45D5DF"/>
<stop offset="0.5199" stop-color="#49BDDD"/>
<stop offset="0.7209" stop-color="#4E9CDB"/>
<stop offset="0.9274" stop-color="#5472D8"/>
<stop offset="1" stop-color="#5761D7"/>
</linearGradient>
<linearGradient id="paint8_linear_1348_10546" x1="78.4063" y1="54.4182" x2="106.544" y2="54.4182" gradientUnits="userSpaceOnUse">
<stop stop-color="#42E8E0"/>
<stop offset="0.1507" stop-color="#43E3E0"/>
<stop offset="0.3285" stop-color="#45D5DF"/>
<stop offset="0.5199" stop-color="#49BDDD"/>
<stop offset="0.7209" stop-color="#4E9CDB"/>
<stop offset="0.9274" stop-color="#5472D8"/>
<stop offset="1" stop-color="#5761D7"/>
</linearGradient>
<linearGradient id="paint9_linear_1348_10546" x1="50.2677" y1="54.418" x2="78.4062" y2="54.418" gradientUnits="userSpaceOnUse">
<stop stop-color="#42E8E0"/>
<stop offset="0.1507" stop-color="#43E3E0"/>
<stop offset="0.3285" stop-color="#45D5DF"/>
<stop offset="0.5199" stop-color="#49BDDD"/>
<stop offset="0.7209" stop-color="#4E9CDB"/>
<stop offset="0.9274" stop-color="#5472D8"/>
<stop offset="1" stop-color="#5761D7"/>
</linearGradient>
<radialGradient id="paint10_radial_1348_10546" cx="0" cy="0" r="1" gradientUnits="userSpaceOnUse" gradientTransform="translate(63.1068 2.82938) scale(93.7423 94.2128)">
<stop stop-color="#43E0DE"/>
<stop offset="1" stop-color="#0E8583"/>
</radialGradient>
<clipPath id="clip0_1348_10546">
<rect width="167" height="120" fill="white" transform="translate(0.348633 0.574219)"/>
</clipPath>
</defs>
</svg>
