<svg width="170" height="110" viewBox="0 0 170 110" fill="none" xmlns="http://www.w3.org/2000/svg">
<g filter="url(#filter0_bd_1254_1163)">
<path d="M95 55C95 43.9543 103.954 35 115 35C126.046 35 135 43.9543 135 55C135 66.0457 126.046 75 115 75C103.954 75 95 66.0457 95 55Z" fill="#389989"/>
<path d="M95.5 55C95.5 44.2304 104.23 35.5 115 35.5C125.77 35.5 134.5 44.2304 134.5 55C134.5 65.7696 125.77 74.5 115 74.5C104.23 74.5 95.5 65.7696 95.5 55Z" stroke="url(#paint0_linear_1254_1163)"/>
</g>
<path opacity="0.5" d="M108.665 55.6624H119.829L117.738 57.8502C117.137 58.4786 118.038 59.4212 118.639 58.7928L120.544 56.7972L121.815 55.4651C122.062 55.2058 122.062 54.787 121.815 54.5277L118.639 51.2013C118.518 51.0714 118.352 50.9985 118.178 51C117.606 51.0001 117.325 51.729 117.738 52.1439L119.834 54.3317H108.633C107.751 54.3774 107.817 55.7083 108.665 55.6624Z" fill="white"/>
<g opacity="0.25">
<g filter="url(#filter1_bd_1254_1163)">
<path d="M75 55C75 43.9543 66.0457 35 55 35C43.9543 35 35 43.9543 35 55C35 66.0457 43.9543 75 55 75C66.0457 75 75 66.0457 75 55Z" fill="#389989"/>
<path d="M74.5 55C74.5 44.2304 65.7696 35.5 55 35.5C44.2304 35.5 35.5 44.2304 35.5 55C35.5 65.7696 44.2304 74.5 55 74.5C65.7696 74.5 74.5 65.7696 74.5 55Z" stroke="url(#paint1_linear_1254_1163)"/>
</g>
<path opacity="0.5" d="M61.3346 55.6624H50.1708L52.2623 57.8502C52.8631 58.4786 51.9619 59.4212 51.3612 58.7928L49.4564 56.7972L48.1848 55.4651C47.9384 55.2058 47.9384 54.787 48.1848 54.5277L51.3612 51.2013C51.482 51.0714 51.6484 50.9985 51.8217 51C52.3938 51.0001 52.6745 51.729 52.2623 52.1439L50.1659 54.3317H61.3674C62.2485 54.3774 62.1827 55.7083 61.3346 55.6624Z" fill="white"/>
</g>
<defs>
<filter id="filter0_bd_1254_1163" x="15" y="-45" width="200" height="200" filterUnits="userSpaceOnUse" color-interpolation-filters="sRGB">
<feFlood flood-opacity="0" result="BackgroundImageFix"/>
<feGaussianBlur in="BackgroundImageFix" stdDeviation="40"/>
<feComposite in2="SourceAlpha" operator="in" result="effect1_backgroundBlur_1254_1163"/>
<feColorMatrix in="SourceAlpha" type="matrix" values="0 0 0 0 0 0 0 0 0 0 0 0 0 0 0 0 0 0 127 0" result="hardAlpha"/>
<feOffset/>
<feGaussianBlur stdDeviation="17.5"/>
<feColorMatrix type="matrix" values="0 0 0 0 0 0 0 0 0 0 0 0 0 0 0 0 0 0 0.25 0"/>
<feBlend mode="normal" in2="effect1_backgroundBlur_1254_1163" result="effect2_dropShadow_1254_1163"/>
<feBlend mode="normal" in="SourceGraphic" in2="effect2_dropShadow_1254_1163" result="shape"/>
</filter>
<filter id="filter1_bd_1254_1163" x="-45" y="-45" width="200" height="200" filterUnits="userSpaceOnUse" color-interpolation-filters="sRGB">
<feFlood flood-opacity="0" result="BackgroundImageFix"/>
<feGaussianBlur in="BackgroundImageFix" stdDeviation="40"/>
<feComposite in2="SourceAlpha" operator="in" result="effect1_backgroundBlur_1254_1163"/>
<feColorMatrix in="SourceAlpha" type="matrix" values="0 0 0 0 0 0 0 0 0 0 0 0 0 0 0 0 0 0 127 0" result="hardAlpha"/>
<feOffset/>
<feGaussianBlur stdDeviation="17.5"/>
<feColorMatrix type="matrix" values="0 0 0 0 0 0 0 0 0 0 0 0 0 0 0 0 0 0 0.25 0"/>
<feBlend mode="normal" in2="effect1_backgroundBlur_1254_1163" result="effect2_dropShadow_1254_1163"/>
<feBlend mode="normal" in="SourceGraphic" in2="effect2_dropShadow_1254_1163" result="shape"/>
</filter>
<linearGradient id="paint0_linear_1254_1163" x1="94.4386" y1="29.5163" x2="136.623" y2="30.2768" gradientUnits="userSpaceOnUse">
<stop offset="0.0172482" stop-color="white" stop-opacity="0.11"/>
<stop offset="0.515625" stop-color="white"/>
<stop offset="1" stop-color="white" stop-opacity="0"/>
</linearGradient>
<linearGradient id="paint1_linear_1254_1163" x1="75.5614" y1="29.5163" x2="33.3767" y2="30.2768" gradientUnits="userSpaceOnUse">
<stop offset="0.0172482" stop-color="white" stop-opacity="0.11"/>
<stop offset="0.515625" stop-color="white"/>
<stop offset="1" stop-color="white" stop-opacity="0"/>
</linearGradient>
</defs>
</svg>
