<svg width="1922" height="1526" viewBox="0 0 1922 1526" fill="none" xmlns="http://www.w3.org/2000/svg">
<g opacity="0.7">
<mask id="mask0_806_71934" style="mask-type:alpha" maskUnits="userSpaceOnUse" x="400" y="400" width="1122" height="726">
<ellipse opacity="0.3" cx="961.023" cy="763.328" rx="577.105" ry="335.743" transform="rotate(16.9402 961.023 763.328)" fill="#389989"/>
</mask>
<g mask="url(#mask0_806_71934)">
<g opacity="0.65" filter="url(#filter0_f_806_71934)">
<ellipse cx="961.023" cy="763.328" rx="577.105" ry="335.743" transform="rotate(16.9402 961.023 763.328)" fill="#389989"/>
</g>
<path d="M764.5 954.285C750.799 952.306 737.499 941.149 730.855 925.939C725.977 914.942 724.35 903.36 722.687 892.035C722.102 887.86 721.388 883.667 720.674 879.473C717.486 862.255 711.151 850.388 701.851 844.427C697.755 841.724 692.715 840.073 686.64 839.195C680.048 838.243 673.177 838.307 665.9 838.444C662.206 838.438 658.235 838.525 654.431 838.371C651.679 838.238 648.798 838.086 646.083 837.694C624.368 834.558 610.016 823.381 607.527 807.715C605.441 794.746 612.57 782.844 618.197 774.948C619.529 773.029 621.01 771 622.472 769.1C629.042 760.152 635.279 751.684 636.919 742.156C637.44 739.46 637.481 736.431 637.652 733.421C637.807 728.693 637.999 723.707 639.521 718.648C645.647 698.156 669.596 689.475 690.632 690.005C693.126 690.101 695.767 690.087 698.131 690.164C709.064 690.291 719.444 690.603 728.75 691.946C755.378 695.791 769.782 709.351 776.555 737.379C778.317 744.363 779.396 751.513 780.513 758.404C782.087 767.604 783.459 776.379 786.069 784.805C792.906 806.904 808.573 828.168 831.393 846.505C833.163 847.949 834.953 849.263 836.724 850.706C847.866 859.44 859.378 868.36 865.323 882.018C869.666 892.146 868.668 905.461 862.817 914.908C858.188 922.289 851.348 926.711 843.35 927.272C841.355 927.38 839.25 927.34 836.923 927.004C835.63 926.817 834.338 926.63 833.064 926.314C831.901 926.146 830.885 925.868 829.722 925.7C828.817 925.569 827.912 925.439 827.247 925.475C818.586 925.148 810.8 931.545 802.553 938.403C793.861 945.593 784.726 953.115 772.903 954.574C770.114 954.7 767.344 954.695 764.5 954.285Z" stroke="url(#paint0_linear_806_71934)" stroke-miterlimit="10"/>
<path d="M859.428 884.465C853.299 870.253 839.572 861.146 827.378 851.468C806.09 834.407 787.856 812.641 779.861 786.679C775.12 771.084 774.054 754.7 770.144 738.829C759.443 695.058 730.331 697.453 690.346 696.561C672.191 696.183 650.867 703.132 645.706 720.597C643.46 727.926 644.575 735.74 643.216 743.329C640.868 756.845 631.248 767.727 623.307 778.853C617.496 787.118 612.143 796.77 613.735 806.764C616.406 823.908 637.08 831.511 654.441 831.907C671.783 832.432 690.663 829.616 705.277 838.983C718.193 847.314 724.098 863.077 726.919 878.263C729.741 893.449 730.511 909.131 736.659 923.214C742.936 937.316 756.732 949.6 772.046 947.721C793.124 945.222 806.167 917.944 827.443 918.641C832.688 918.871 837.82 920.799 843.01 920.493C858.562 919.704 865.538 898.807 859.428 884.465Z" stroke="url(#paint1_linear_806_71934)" stroke-miterlimit="10"/>
<path d="M767.299 934.896C760.319 933.888 752.739 926.988 748.744 918.098C744.952 909.633 743.49 899.658 741.954 889.276C741.259 884.953 740.711 880.519 739.776 876.03C735.544 853.251 726.259 837.131 712.255 828.116C705.741 823.876 698.21 821.205 689.291 819.917C681.277 818.76 673.206 818.914 665.411 818.976C661.718 818.971 658.134 819.113 654.718 819.016C652.741 818.994 650.655 818.825 648.587 818.526C639.151 817.164 627.78 812.751 626.536 804.918C625.859 800.466 628.158 794.596 633.804 786.57C635.118 784.781 636.45 782.862 637.894 781.091C645.259 771.203 653.477 759.986 655.918 745.823C656.625 741.835 656.797 737.901 656.895 734.484C657.03 730.809 657.146 727.263 657.926 724.605C660.209 717.017 671.856 709.462 689.752 709.803C692.375 709.918 694.887 709.885 697.38 709.981C708.166 710.219 717.511 710.381 725.654 711.557C741.812 713.89 751.703 719.408 757.246 742.245C758.844 748.545 759.887 755.03 761.022 761.791C762.559 771.25 764.188 780.986 767.128 790.779C775.142 816.611 792.965 841.221 818.994 862.001C820.765 863.445 822.665 864.907 824.565 866.369C834.177 873.826 843.308 880.951 847.155 889.951C849.032 894.313 848.505 900.702 846.043 904.965C844.302 907.881 842.566 908.026 842.049 907.951C841.513 908.006 840.737 907.894 839.574 907.726C838.54 907.576 837.506 907.427 836.491 907.149C835.198 906.962 833.795 906.627 832.244 906.403C830.563 906.161 829.123 906.085 827.682 906.009C811.541 905.393 800.002 914.943 789.812 923.368C782.933 928.973 776.479 934.375 770.291 935.196C769.515 935.084 768.462 935.064 767.299 934.896Z" stroke="url(#paint2_linear_806_71934)" stroke-miterlimit="10"/>
<path d="M724.45 739.092C716.546 726.207 702.984 717.783 686.867 725.22C679.086 728.847 677.242 738.873 672.153 745.792C666.564 753.43 656.473 757.515 652.711 766.208C648.892 775.289 653.568 785.861 660.021 793.258C664.317 798.233 667.567 798.571 673.516 797.582C679.464 796.594 684.063 796.73 690.193 798.143C703.745 801.155 716.461 807.214 730.404 808.435C735.482 808.905 741.245 808.285 744.336 804.245C747.759 799.725 746.033 793.406 744.157 788.121C738.216 771.693 733.625 754.14 724.45 739.092Z" stroke="url(#paint3_linear_806_71934)" stroke-miterlimit="10"/>
<path d="M727.699 801.579C715.346 799.4 703.754 794.691 691.624 791.884C690.092 791.531 688.54 791.307 687.119 791.101C677.554 789.72 666.834 794.506 660.533 784.228C657.77 779.606 657.427 773.751 659.467 768.767C662.804 760.276 672.247 757.021 677.503 749.863C679.631 747.003 681.132 743.921 682.614 740.968C684.837 736.539 686.708 732.719 689.684 731.301C693.787 729.386 697.703 728.764 701.452 729.306C710.37 730.593 716.269 738.175 718.922 742.648C725.628 753.777 730.078 766.823 734.178 779.555C735.667 783.86 736.936 787.87 738.702 792.084C739.972 795.17 740.298 799.308 737.636 801.299C735.713 802.736 733.09 802.622 730.764 802.286C729.767 801.878 728.733 801.728 727.699 801.579Z" stroke="url(#paint4_linear_806_71934)" stroke-miterlimit="10"/>
<path d="M721.204 785.335C720.298 786.127 718.931 786.458 717.62 786.4C715.921 786.287 714.315 785.527 712.709 784.768C705.64 781.636 698.293 779.519 690.648 778.547C686.77 777.987 682.726 777.667 678.865 777.902C676.353 777.935 672.177 779.443 671.24 775.877C670.266 772.569 675.48 769.364 677.717 767.575C681.009 764.884 684.873 761.879 688.13 757.599C690.906 753.909 691.873 749.958 694.261 746.213C695.298 744.515 696.814 743.151 698.717 742.766C701.304 742.215 703.869 743.641 705.565 745.602C709.068 749.67 711.589 755.972 713.798 760.778C716.504 766.71 718.933 772.735 721.621 778.797C722.412 780.627 723.185 782.586 722.277 784.302C721.963 784.652 721.648 785.003 721.204 785.335Z" stroke="url(#paint5_linear_806_71934)" stroke-miterlimit="10"/>
<path d="M706.355 772.107C706.04 772.458 705.597 772.789 705.061 772.844C704.525 772.899 703.879 772.805 703.362 772.731C700.518 772.32 697.731 771.522 694.943 770.723C694.315 770.501 693.54 770.389 693.097 769.797C692.526 769.187 692.379 768.374 692.75 767.636C693.157 766.639 694.635 766.456 695.302 765.497C696.116 764.427 696.58 763.042 697.044 761.658C697.618 760.421 699.766 756.509 701.259 758.968C701.572 759.541 701.608 760.206 701.792 760.76C702.267 763.864 703.685 766.839 705.583 769.225C706.136 769.964 706.8 770.852 706.54 771.738C706.374 771.978 706.374 771.978 706.355 772.107Z" stroke="url(#paint6_linear_806_71934)" stroke-miterlimit="10"/>
<path d="M797.122 853.565C788.872 849.47 780.976 843.844 773.448 838.402C758.984 828.001 752.611 841.068 749.285 854.047C747.074 862.964 746.783 872.291 748.782 881.288C750.579 889.861 758.38 897.981 757.776 906.734C757.437 910.908 755.951 916.631 759.956 918.133C763.205 919.394 766.092 915.852 768.81 913.474C774.377 908.735 782.392 908.969 789.579 907.632C802.455 905.268 814.53 895.664 816.914 882.813C819.037 870.848 809.321 859.548 797.122 853.565Z" stroke="url(#paint7_linear_806_71934)" stroke-miterlimit="10"/>
<path d="M770.515 897.094C770.386 897.075 770.275 896.927 770.146 896.909C766.88 894.853 766.39 889.109 764.751 885.837C763.425 883.139 761.97 880.421 761.585 878.519C759.88 870.223 759.286 859.713 763.435 851.999C766.714 845.743 773.257 854.341 777.114 856.877C781.69 859.913 786.413 862.838 791.47 865.284C799.351 869.193 804.993 875.813 804.062 880.429C802.833 887.114 795.602 893.327 787.196 894.884C785.848 895.085 784.222 895.378 782.615 895.542C778.994 895.943 774.077 898.928 770.515 897.094Z" stroke="url(#paint8_linear_806_71934)" stroke-miterlimit="10"/>
<path d="M774.182 889.97C771.303 888.894 771.825 885.275 770.573 882.983C769.633 881.264 768.216 878.288 767.977 877.198C767.189 873.522 766.806 869.772 766.831 865.949C766.907 864.508 766.784 859.872 768.466 859.191C770.148 858.51 776.696 864.338 778.283 865.227C782.785 867.856 787.399 870.634 791.901 873.263C794.097 874.504 796.385 876.022 796.825 878.461C797.21 880.364 796.265 882.338 794.877 883.721C793.49 885.105 791.66 885.896 789.72 886.54C786.227 887.883 782.772 888.967 779.225 889.774C777.58 890.197 775.825 890.471 774.201 889.841C774.312 889.989 774.312 889.989 774.182 889.97Z" stroke="url(#paint9_linear_806_71934)" stroke-miterlimit="10"/>
<path d="M1035.02 931.328C1022.36 912.083 1015.49 884.7 1030.64 867.491C1038.08 858.933 1049.35 854.886 1059.02 849.157C1085.42 833.571 1102.7 800.703 1094.01 771.342C1085.19 741.963 1046.21 724.063 1020.88 741.386C1005.2 752.185 1000.35 762.041 981.874 764.783C967.852 766.849 950.089 763.756 941.074 777.761C935.112 787.061 934.83 802.722 923.783 804.294C920.68 804.77 917.541 803.657 914.699 802.323C888.047 790.425 874.073 761.093 851.235 742.885C842.823 736.26 832.507 730.944 821.83 731.777C811.135 732.74 800.742 741.664 801.427 752.451C802.077 762.573 811.246 769.439 817.92 777.133C831.361 792.796 835.077 814.577 846.318 831.771C856.784 847.929 873.223 859.276 886.056 873.664C926.437 918.421 882.403 969.33 829.668 947.993C826.678 946.769 823.596 945.268 820.327 945.06C796.651 943.621 834.402 969.129 835.117 972.399C837.099 980.602 835.202 989.169 836.095 997.611C837.807 1013.17 849.387 1026.18 863.042 1033.96C876.698 1041.74 892.189 1045.03 907.513 1048.57C934.82 1055.02 958.068 1070.38 986.285 1073.27C1011.51 1075.85 1039.04 1069.8 1056.72 1051.5C1072.37 1035.42 1078.32 1010.68 1071.93 989.175C1065.35 967.112 1047.55 950.555 1035.02 931.328Z" stroke="url(#paint10_linear_806_71934)" stroke-miterlimit="10"/>
<path d="M994.837 1060.65C992.473 1060.57 990.109 1060.49 987.654 1060.14C973.213 1058.71 959.738 1053.34 945.507 1047.72C934.394 1043.34 923.043 1038.8 910.543 1035.81L907.866 1035.16C893.945 1031.96 880.799 1028.87 869.58 1022.5C857.861 1015.93 850.322 1006 849.248 996.08C848.391 988.303 845.36 977.309 850.672 969.763C858.631 958.509 872.677 964.496 883.472 959.193C895.116 953.485 904.79 944.061 910.182 932.304C920.022 910.765 914.814 885.602 895.933 864.666C890.696 858.896 884.997 853.587 879.649 848.592C871.146 840.767 863.123 833.274 857.392 824.53C853.191 817.985 850.044 810.537 846.713 802.535C841.929 790.892 836.923 778.953 827.889 768.412C826.192 766.452 824.478 764.621 822.763 762.79C818.872 758.665 814.741 754.374 814.524 751.308C814.362 748.777 818.486 744.886 823.03 744.487C823.566 744.432 824.231 744.396 824.748 744.471C830.141 744.59 836.453 747.481 843.205 752.81C851.377 759.268 858.475 767.682 865.924 776.411C878.111 790.706 890.74 805.593 909.455 813.97C912.556 815.341 916.801 817.01 921.806 817.073C923.118 817.13 924.448 817.058 925.667 816.838C940.76 814.663 945.786 800.874 948.717 792.456C949.811 789.448 950.942 786.18 952.127 784.372C955.182 779.667 960.576 778.862 972.397 778.326C976.128 778.073 979.989 777.839 983.887 777.346C1000.48 774.859 1009.06 767.521 1017.32 760.534C1020.63 757.713 1024.09 754.781 1028.34 751.833C1032.89 748.663 1038.38 747.212 1044.57 747.314C1060.88 747.689 1077.07 759.793 1081.65 774.704C1084.85 785.458 1083.59 797.812 1078.07 809.551C1072.57 821.16 1063.46 831.193 1052.63 837.678C1050.19 839.041 1047.75 840.404 1045.03 841.859C1037.05 845.985 1028.05 850.755 1020.96 858.704C1008.01 873.46 1001.21 903.223 1024.24 938.349C1028.57 944.913 1033.23 950.996 1037.92 956.95C1047.15 968.84 1055.83 979.99 1059.68 992.684C1064.75 1009.65 1059.9 1029.53 1047.65 1042.15C1035.44 1054.5 1016.39 1061.25 994.837 1060.65Z" stroke="url(#paint11_linear_806_71934)" stroke-miterlimit="10"/>
<path d="M992.566 1048.05C982.169 1046.94 971.813 1043.73 961.696 1040.69C938.842 1033.56 916.117 1026.45 893.262 1019.33C884.678 1016.63 868.731 1009.19 862.998 1002.29C858.702 997.313 858.272 988.41 863.8 984.854C866.721 982.9 870.544 982.925 874.146 982.653C895.739 981.153 914.157 965.998 922.406 946.341C932.1 923.065 928.005 895.688 916.162 873.525C906.695 855.928 885.792 840.77 871.74 826.601C869.896 824.751 868.051 822.902 867.353 820.426C866.655 817.95 867.639 814.793 870.004 813.947C873.33 812.844 876.151 816.154 878.253 818.964C891.746 836.087 918.227 839.119 937.687 831.373C949.311 826.718 954.626 817.325 963.78 809.674C968.44 805.728 974.096 803.114 979.493 800.463C994.242 793.356 1008.97 786.378 1023.59 779.252C1033.22 774.705 1044.59 770.012 1054.06 774.81C1062.9 779.385 1066.2 791.211 1063.49 800.848C1060.78 810.485 1053.23 817.972 1045.14 823.796C1037.04 829.62 1027.94 834.113 1019.96 840.085C1004.55 851.716 993.722 869.154 989.944 888.005C986.296 906.875 989.7 927.16 999.594 943.631C1007.98 957.773 1020.74 968.985 1029.97 982.721C1039.22 996.329 1044.76 1014.68 1036.98 1029.26C1030.46 1041.51 1016.08 1047.88 1002.13 1048.5C999.104 1048.46 995.816 1048.38 992.566 1048.05Z" stroke="url(#paint12_linear_806_71934)" stroke-miterlimit="10"/>
<path d="M1010.3 1030.29C1005.74 1029.89 1001.28 1028.85 996.826 1027.68C970.111 1020.79 943.507 1014.04 916.792 1007.15C913.856 1006.46 910.699 1005.48 909.226 1002.89C907.42 999.861 908.812 995.708 911.401 993.311C913.99 990.914 917.464 989.7 920.717 988.19C953.282 973.759 962.924 936.225 957.451 903.766C956.023 895.379 953.653 887.12 950.451 879.136C947.673 871.873 925.791 857.102 945.488 851.369C949.22 850.193 953.246 850.642 957.254 850.297C969.058 848.967 976.206 836.935 984.361 829.8C992.813 822.443 1002.83 817.028 1012.89 812.278C1021.67 808.136 1035.93 805.313 1042.92 798.933C1045.05 796.997 1046.95 794.765 1049.5 793.55C1052.05 792.335 1055.69 792.728 1057.05 795.168C1057.99 796.887 1057.53 799.195 1056.36 800.874C1055.2 802.553 1053.44 803.751 1051.7 804.82C1035.8 815.323 1018.37 824.55 1005.74 838.956C994.08 852.052 985.929 868.293 982.523 885.482C977.944 908.969 982.32 934.408 994.534 954.909C1000.06 964.152 1006.61 971.826 1012.93 979.205C1017.56 984.624 1021.85 989.598 1025.45 994.868C1032.95 1005.98 1037.74 1023.96 1020.63 1029.14C1017.42 1030.39 1013.81 1030.66 1010.3 1030.29Z" stroke="url(#paint13_linear_806_71934)" stroke-miterlimit="10"/>
<path d="M1010.41 1009.45C1007.25 1009.39 1003.58 1008.34 1001.36 1008.15C990.559 1007.12 979.866 1006.23 969.063 1005.2C960.993 1004.43 951.5 1004.38 943.877 1001.43C941.255 1000.39 938.988 997.822 939.269 994.96C939.569 991.968 943.488 989.499 945.394 987.267C948.447 983.485 951.26 979.537 953.705 975.404C957.889 968.355 960.948 960.879 963.656 953.089C965.252 948.437 968.465 936.234 974.892 936.502C983.443 936.681 981.827 955.185 984.995 960.657C991.903 973.134 1001.45 984.673 1011.04 995.031C1013.33 997.472 1015.6 1000.04 1016.18 1003.29C1017.17 1008.32 1014.09 1009.59 1010.41 1009.45Z" stroke="url(#paint14_linear_806_71934)" stroke-miterlimit="10"/>
<path d="M1006.78 1000.75C1006.08 1001.97 1004.22 1002.09 1002.66 1001.87C993.56 1000.95 984.327 1000.01 975.223 999.095C968.076 998.327 960.354 999.719 953.098 997.88C948.261 996.654 948.706 995.398 951.003 991.376C952.762 988.331 954.871 985.6 956.741 982.704C959.852 977.611 962.612 972.203 964.984 966.74C966.559 963.141 967.681 954.462 972.078 953.249C977.197 951.613 979.29 959.965 980.651 963.328C985.804 976.08 994.19 987.451 1004.8 996.24C1006.09 997.35 1007.69 999.033 1006.78 1000.75ZM1006.78 1000.75C1006.8 1000.62 1006.8 1000.62 1006.78 1000.75Z" stroke="url(#paint15_linear_806_71934)" stroke-miterlimit="10"/>
<path d="M980.89 989.094C977.233 988.829 967.606 991.53 964.915 988.238C961.891 984.503 966.794 978.877 969.033 976.166C973.973 970.281 977.136 979.447 979.883 983.274C980.767 984.458 984.915 989.543 980.89 989.094Z" stroke="url(#paint16_linear_806_71934)" stroke-miterlimit="10"/>
<path d="M966.961 892.736C960.752 894.61 963.581 880.504 961.171 874.35C959.644 870.303 950.445 870.954 953.762 863.515C956.95 856.059 956.016 863.445 957.235 863.225C967.025 862.132 972.716 848.307 979.915 851.457C987.113 854.608 970.612 872.018 968.471 883.189C967.746 886.383 973.169 890.861 966.961 892.736Z" stroke="url(#paint17_linear_806_71934)" stroke-miterlimit="10"/>
<path d="M1093.07 969.795L1092.92 969.906C1090.72 971.435 1089.77 974.334 1089.66 976.956C1089.31 986.671 1094.49 997.446 1096.71 1006.74C1099.35 1017.68 1101.44 1028.8 1103.01 1039.85C1106.3 1062.75 1110.82 1091.78 1104.25 1114.45C1102.87 1119.39 1101.37 1125.25 1104.48 1129.26C1108.06 1133.73 1114.87 1133.13 1120.42 1131.3C1133.15 1127.2 1141.12 1119.51 1151.03 1111.17C1161.41 1102.38 1175.12 1096.97 1186.9 1090.36C1191.92 1087.52 1197.66 1083.47 1196.91 1077.68C1196.25 1072.18 1190.03 1069.57 1184.79 1067.49C1144.01 1051.04 1128.38 1007.62 1103.85 974.65C1101.54 971.415 1097.62 966.625 1093.07 969.795Z" stroke="url(#paint18_linear_806_71934)" stroke-miterlimit="10"/>
<path d="M1110.84 1116.32C1110.8 1112.89 1112.4 1109.16 1112.85 1106.06C1113.89 1098.82 1114.27 1091.61 1114.14 1084.34C1113.93 1070.19 1111.87 1056.17 1109.91 1042.29L1109.46 1039.06C1107.39 1025.04 1104.47 1011.42 1100.63 997.806C1100.3 996.439 1099.88 994.794 1100.83 993.743C1104.12 990.128 1115.33 1003.89 1116.69 1006.33C1124.82 1019.51 1133.05 1032.84 1143.23 1044.6C1154.53 1057.71 1167.02 1065.32 1181.97 1073.28C1183.82 1074.21 1185.44 1075.76 1186.07 1077.83C1186.95 1080.86 1185.13 1084.3 1182.49 1086.16C1177.77 1089.57 1170.77 1091.46 1165.61 1094.28C1159.03 1097.81 1152.54 1101.63 1146.7 1106.46C1145.5 1107.47 1144.44 1108.37 1143.24 1109.39C1137.53 1114.24 1130.3 1121.37 1123.18 1124.04C1119.69 1125.38 1115.26 1125.01 1112.75 1122.27C1111.33 1120.22 1110.94 1118.32 1110.84 1116.32Z" stroke="url(#paint19_linear_806_71934)" stroke-miterlimit="10"/>
<path d="M1120.47 1094.36C1118.81 1093.06 1118.21 1089.94 1118.08 1088.07C1117.89 1082.11 1122.07 1076.91 1122 1070.96C1121.76 1058.92 1116 1047.66 1114.15 1035.78C1113.88 1034.03 1113.6 1032.27 1113.98 1030.61C1114.22 1028.93 1115.13 1027.21 1116.59 1026.24C1122.22 1022.83 1125.77 1032.05 1127.38 1035.58C1130.4 1042.09 1135.56 1047.45 1141.28 1051.71C1146.52 1055.63 1152.37 1058.06 1157.81 1061.48C1161.56 1063.87 1162.36 1068.34 1157.39 1069.87C1151.31 1071.76 1146.07 1073.38 1140.78 1077.1C1138.43 1078.74 1136.17 1080.66 1134.05 1082.59C1132.05 1084.55 1130.44 1087.48 1128.22 1089.14C1126.91 1090.93 1124.31 1095.18 1121.71 1094.93C1121.34 1094.75 1120.84 1094.54 1120.47 1094.36Z" stroke="url(#paint20_linear_806_71934)" stroke-miterlimit="10"/>
<path d="M1208.03 276.883C1201.22 260.066 1188.4 246.472 1174.66 234.723C1103.06 173.186 1004.33 152.333 909.972 152.431C890.172 152.475 869.836 153.497 851.982 162.003C830.431 172.351 814.644 193.955 811.21 217.738C805.161 260.541 852.545 290.607 845.208 330.453C840.664 355.527 823.547 377.203 827.219 403.86C829.1 418.251 839.7 431.657 837.092 446.059C834.13 462.917 815.186 471.662 806.225 486.202C786.877 517.848 819.238 565.142 795.942 593.975C788.725 602.829 777.895 607.467 769.074 614.638C760.254 621.81 753.327 634.137 758.465 644.247C767.599 662.324 796.892 649.532 814.793 658.978C828.025 666.035 831.785 683.864 843.795 692.987C857.575 703.554 878.822 698.969 890.68 686.298C902.519 673.757 906.61 655.478 906.729 638.209C906.843 623.711 904.372 608.839 897.225 596.196C885.859 576.213 862.28 559.481 865.972 536.658C869.384 514.851 897.015 502.611 899.652 480.691C902.344 459.308 879.747 440.343 883.583 419.256C885.166 411.04 890.68 403.919 897.356 398.813C926.219 377.118 967.807 392.492 997.253 413.369C1026.7 434.247 1055.66 461.256 1091.65 462.363C1124.23 463.373 1155.96 439.188 1163.56 407.562C1167.82 389.967 1165.65 370.257 1175.85 355.367C1183.18 344.814 1195.54 338.682 1203.35 328.462C1214.38 314.22 1214.84 293.701 1208.03 276.883Z" stroke="url(#paint21_linear_806_71934)" stroke-miterlimit="10"/>
<path d="M862.588 686.201C859.744 685.79 857.381 684.789 855.352 683.309C851.792 680.551 848.788 675.763 845.564 670.679C840.515 662.693 834.84 653.561 824.542 648.115C820.132 645.763 815.203 644.259 809.257 643.401C803.44 642.561 797.77 642.534 792.229 642.526C787.741 642.537 783.401 642.438 779.911 641.934C774.741 641.188 774.133 639.913 773.728 639.062C772.292 636.216 775.737 629.72 780.97 625.461C783.67 623.212 786.868 621.167 790.215 619.011C796.759 614.81 804.043 610.056 809.835 602.843C825.563 583.474 822.053 559.347 818.946 537.918C816.515 520.941 814.212 504.906 821.118 493.631C823.729 489.258 828.149 485.146 832.736 480.794C841.3 472.662 851.084 463.387 853.692 448.984C855.852 436.761 851.842 426.153 848.181 416.784C846.267 411.757 844.446 407.008 843.88 402.704C842.09 389.514 846.892 377.276 852.343 363.284C856.069 353.926 859.871 344.05 861.807 333.378C866.277 308.82 854.377 287.969 843.859 269.428C834.391 252.754 825.438 237.079 827.902 220.017C830.683 200.757 843.842 182.733 861.419 174.318C877.296 166.715 896.782 166.097 913.811 166.049C941.533 165.962 968.441 167.868 993.775 171.526C1065.9 181.94 1125.13 206.723 1169.99 245.133C1179.73 253.533 1193.31 266.445 1199.73 282.283C1205.36 296.291 1204.21 311.564 1196.77 321.046C1193.99 324.736 1189.96 327.98 1185.62 331.575C1179.94 336.165 1173.63 341.457 1168.78 348.542C1160.25 361.033 1158.55 375.566 1157.11 388.289C1156.38 394.253 1155.83 399.849 1154.55 405.074C1148.36 430.571 1121.96 450.773 1095.7 449.884C1093.33 449.807 1090.99 449.6 1088.66 449.264C1065.78 445.961 1045.41 430.748 1023.85 414.703C1018.85 410.946 1013.61 407.022 1008.33 403.358C988.35 389.124 966.496 379.635 946.979 376.817C926.426 373.849 907.748 378.014 893.233 388.981C883.155 396.631 876.436 406.613 874.48 417.414C871.65 432.444 877.966 445.364 883.434 456.842C887.503 465.215 891.24 473.144 890.418 479.754C889.539 486.753 883.712 493.301 876.811 500.881C868.486 510.104 859.051 520.617 856.812 535.204C853.474 556.495 866.342 572.472 877.624 586.636C882.196 592.443 886.565 597.824 889.604 603.277C894.854 612.612 897.495 624.473 897.419 638.713C897.401 650.718 895.16 667.153 885.022 677.96C879.288 683.862 870.085 687.283 862.588 686.201Z" stroke="url(#paint22_linear_806_71934)" stroke-miterlimit="10"/>
<path d="M861.175 680.454C858.333 679.12 856.602 675.572 854.557 672.373C850.153 665.404 845.731 658.563 839.829 652.829C831.512 644.634 823.703 642.055 812.682 638.881C810.023 638.101 807.125 637.155 805.614 634.825C803.79 631.923 804.756 627.972 806.976 625.389C811.398 620.354 815.925 619.16 819.462 612.941C823.851 605.394 826.596 597.345 827.588 588.648C829.61 570.994 825.444 553.239 822.94 535.855C820.93 521.446 824.294 507.285 828.441 500.494C830.163 497.708 834.14 493.928 838.116 490.148C844.534 484.081 847.892 474.537 853.757 467.731C858.512 462.215 866.662 458.774 870.343 467.091C874.227 475.833 866.257 482.599 861.077 488.317C851.16 499.42 845.616 514.058 842.5 534.721C839.517 553.555 842.457 576.148 854.161 591.957C864.335 605.566 874.713 619.6 878.067 636.578C880.266 647.848 880.836 674.057 867.862 679.837C865.016 681.273 862.91 681.233 861.175 680.454Z" stroke="url(#paint23_linear_806_71934)" stroke-miterlimit="10"/>
<path d="M854.768 396.754C846.125 396.298 858.004 369.775 859.877 365.032C863.622 355.544 867.793 344.93 869.917 332.965C874.181 309.829 866.258 285.198 853.894 265.731C842.084 247.004 830.863 228.757 842.958 206.224C856.164 181.477 881.448 181.829 905.606 181.754C931.999 181.739 957.743 183.476 981.785 186.948C1043.83 195.907 1102.42 217.826 1150.43 259.066C1159.71 267.004 1168.93 276.252 1172.24 288.078C1178.83 311.858 1153.85 320.39 1142.65 336.719C1132.12 352.088 1130.19 369.095 1128.64 382.594C1128 387.912 1127.4 392.972 1126.42 397.052C1122.1 415.035 1102.69 429.782 1084.17 429.218C1082.47 429.105 1080.77 428.991 1078.96 428.73C1060.47 426.061 1042.01 412.31 1022.47 397.746C1017.47 393.989 1012.23 390.065 1006.95 386.4C985.294 371.001 961.557 360.844 939.971 357.727C924.072 355.432 906.45 356.846 891.461 363.786C883.68 367.413 876.469 372.574 870.66 378.992C866.572 383.548 861.843 396.193 855.027 396.792C855.156 396.81 854.898 396.773 854.768 396.754Z" stroke="url(#paint24_linear_806_71934)" stroke-miterlimit="10"/>
<path d="M864.658 660.901C858.197 659.044 853.946 648.27 849.096 643.479C843.434 637.911 826.133 635.281 826.813 625.087C826.984 622.077 833.538 611.411 835.113 607.812C837.671 601.979 840.264 596.812 847.22 601.643C857.294 608.64 862.953 627.93 865.153 639.2C866.527 646.128 867.955 654.515 864.658 660.901Z" stroke="url(#paint25_linear_806_71934)" stroke-miterlimit="10"/>
<path d="M936.948 746.024C917.947 743.281 908.162 728.804 908.605 716.597C908.817 710.558 911.171 705.223 912.857 701.772C917.692 692.046 924.65 683.154 931.423 674.632C942.896 660.058 953.721 646.315 952.193 630.392C950.956 617.941 942.458 607.346 933.369 596.269C931.36 593.735 929.221 591.183 927.101 588.502C911.212 567.866 907.66 546.769 917.711 531.99C920.747 527.414 924.797 524.04 928.57 520.758C933.249 516.684 937.447 513.199 938.636 508.621C939.565 504.928 938.611 500.568 937.565 495.93C937.051 494.009 936.684 491.977 936.337 489.815C933.426 472.505 940.323 454.896 953.228 445.939C958.941 442.013 965.371 440.435 972.351 441.443C986.052 443.421 999.333 454.707 1012.15 465.531C1020.86 472.858 1029.09 479.852 1036.06 482.707C1040.05 484.338 1044.3 486.007 1048.3 487.509C1063.42 493.386 1079.16 499.487 1092.63 509.48C1105.25 518.956 1117.82 537.001 1125.14 556.663C1138.86 593.217 1132 624.29 1107.23 637.736C1092.33 645.877 1075.01 643.376 1059.61 641.284C1057.93 641.041 1056.38 640.817 1054.7 640.575C1035.02 637.996 1021.66 640.95 1014.76 649.454C1011.54 653.475 1009.68 659.013 1007.81 664.681L1007.55 665.567C1001.26 684.452 994.883 699.365 987.495 712.154C976.607 730.902 964.345 741.799 949.841 745.379C945.721 746.499 941.343 746.659 936.948 746.024Z" stroke="url(#paint26_linear_806_71934)" stroke-miterlimit="10"/>
<path d="M1117.34 561.343C1110.28 542.641 1098.59 525.779 1087.04 517.118C1070.72 504.996 1050.76 498.816 1031.82 491.067C1008.9 481.687 978.895 437.241 955.285 453.625C943.693 461.716 938.683 477.223 941.026 491.152C942.234 498.32 945.141 505.602 943.32 512.728C940.423 523.658 927.819 528.699 921.451 538.072C911.548 552.74 919.866 572.811 930.631 586.901C941.396 600.991 955.283 614.476 956.956 632.135C959.665 660.896 929.824 681.131 916.967 707.116C915.096 710.936 913.576 715.071 913.366 719.264C912.715 734.74 931.519 745.24 946.578 741.477C961.636 737.713 972.349 724.745 980.09 711.348C988.348 697.102 994.411 681.616 999.699 666.017C1001.81 659.593 1003.82 653.021 1008.13 647.837C1018.44 634.943 1037.65 634.417 1053.97 636.511C1070.27 638.733 1087.98 642.213 1102.44 634.404C1128.06 620.554 1127.84 589.118 1117.34 561.343Z" stroke="url(#paint27_linear_806_71934)" stroke-miterlimit="10"/>
<path d="M939.748 726.636C934.19 725.833 928.046 721.779 928.163 717.31C928.277 715.611 929 713.34 930.464 710.517C934.391 702.507 940.498 694.943 946.827 686.753C959.576 670.648 974.102 652.293 971.737 628.464C970.029 610.139 958.599 596.085 948.625 583.825C946.616 581.292 944.588 578.888 942.689 576.502C935.039 566.425 928.062 551.694 933.948 542.912C935.466 540.624 938.333 538.135 941.347 535.535C947.376 530.336 954.755 524.012 957.578 513.599C959.696 505.328 958.027 497.698 956.669 491.564C956.265 489.79 955.843 488.146 955.661 486.668C954.031 476.932 957.611 466.761 964.489 462.08C966.098 460.993 967.594 460.681 969.662 460.98C977.805 462.155 989.316 471.998 999.682 480.621C1009.55 489.039 1018.98 496.866 1028.69 500.907C1032.93 502.576 1037.18 504.244 1041.29 505.894C1055.91 511.568 1069.66 516.852 1081.1 525.366C1090.75 532.565 1100.98 547.633 1106.98 563.673C1111.85 576.517 1113.73 589.06 1112.3 599.013C1110.82 609.225 1106.25 616.218 1098.08 620.712C1088.78 625.703 1076.1 624.003 1062.52 622.044C1060.84 621.801 1059.16 621.558 1057.48 621.316C1030.56 617.692 1011.16 623.204 999.742 637.39C994.265 644.252 991.704 651.931 989.404 658.725L989.144 659.611C983.3 677.24 977.369 690.899 970.665 702.598C962.74 716.365 954.176 724.497 945.289 726.644C943.534 726.919 941.687 726.916 939.748 726.636Z" stroke="url(#paint28_linear_806_71934)" stroke-miterlimit="10"/>
<path d="M992.399 607.827C980.419 603.062 980.111 586.92 973.071 577.194C967.007 568.929 954.552 561.061 954.439 549.96C954.367 536.755 972.076 526.512 974.13 511.371C975.231 503.744 978.347 494.958 985.719 493.251C996.62 490.866 1011.61 509.525 1021.7 513.622C1026.06 515.438 1030.43 517.125 1034.57 518.646C1048.56 524.097 1060.43 528.714 1069.73 535.599C1081.76 544.593 1102.23 578.293 1090.66 592.59C1086.16 598.142 1078.46 600.329 1071.28 599.819C1055.21 598.687 1045.52 594.517 1028.65 598.019C1017.64 600.256 1005.71 611.596 994.042 608.328C993.654 608.272 993.027 608.05 992.399 607.827Z" stroke="url(#paint29_linear_806_71934)" stroke-miterlimit="10"/>
<path d="M999.317 588.242C993.039 586.939 992.607 579.883 990.731 574.598C988.193 567.502 984.01 560.828 978.107 556.017C974.086 552.798 969.826 548.488 970.314 543.28C970.52 540.935 971.632 538.72 972.854 536.654C977.706 527.722 982.559 518.79 987.411 509.858C992.967 499.708 999.978 505.075 1006.43 510.625C1016.15 519.154 1027.93 523.494 1039.82 527.981C1057.82 534.934 1073.72 545.412 1081.04 564.151C1082.88 568.771 1082.43 574.644 1078.79 577.944C1073.44 582.979 1064.99 580.306 1057.86 578.486C1043.85 575.011 1028.55 576.761 1015.61 583.206C1011.07 585.452 1006.41 588.474 1001.29 588.263C1000.48 588.41 999.834 588.316 999.317 588.242Z" stroke="url(#paint30_linear_806_71934)" stroke-miterlimit="10"/>
<path d="M1009.26 561.438C1003.41 559.01 999.332 553.408 995.609 548.12C992.439 543.572 989.177 538.746 988.133 533.185C984.194 512.032 1003.91 519.893 1014.48 524.323C1025.43 528.938 1036.98 532.982 1046.99 539.572C1049.75 541.423 1057.93 546.034 1056.28 550.151C1054.81 553.898 1033.2 558.298 1029.04 559.677C1023.2 561.736 1016.84 563.722 1010.9 561.94C1010.38 561.865 1009.75 561.642 1009.26 561.438Z" stroke="url(#paint31_linear_806_71934)" stroke-miterlimit="10"/>
<path d="M1322.91 508.423C1319.82 486.865 1315.4 465.378 1307.81 444.884C1302.51 430.396 1295.2 416.145 1283.58 406.154C1272.9 396.959 1259.37 391.97 1246.22 387.037C1206 372.257 1210.82 437.609 1198.21 457.297C1187.95 473.497 1170.72 484.996 1151.88 488.477C1144.97 489.723 1137.67 489.989 1131.61 493.6C1125.55 497.211 1121.91 505.923 1126.26 511.433C1127.92 513.652 1130.65 514.838 1132.94 516.356C1145.67 525.056 1147.31 542.974 1145.9 558.209C1144.49 573.444 1141.33 589.877 1148.45 603.574C1152.89 612.132 1161.06 618.59 1164.5 627.664C1170.56 643.316 1160.91 660.792 1162.73 677.418C1164.32 692.029 1177.26 705.642 1192.02 704.87C1211.32 703.699 1221.75 681.717 1224.64 662.606C1227.54 643.494 1228.14 621.941 1242.18 608.794C1258.51 593.47 1285.73 596.873 1303.98 583.805C1315.15 575.917 1321.56 562.592 1323.88 549.205C1326.23 535.689 1324.79 521.89 1322.91 508.423Z" stroke="url(#paint32_linear_806_71934)" stroke-miterlimit="10"/>
<path d="M1188.37 698.142C1178.94 696.779 1170.44 687.107 1169.18 676.633C1168.48 670.463 1169.69 663.908 1170.96 656.966C1172.86 646.552 1174.67 635.861 1170.55 625.105C1168.23 619.229 1164.56 614.476 1160.85 609.983C1158.29 606.71 1155.82 603.714 1154.18 600.443C1149.03 590.461 1150.28 578.107 1151.63 565.107C1151.82 562.891 1152.12 560.822 1152.29 558.736C1154.39 535.948 1149 519.335 1136.51 510.802C1135.79 510.302 1135.06 509.932 1134.47 509.451C1133.14 508.599 1131.92 507.896 1131.37 507.156C1131.26 507.008 1130.7 506.268 1130.93 504.717C1131.37 502.539 1133.04 500.14 1134.92 498.961C1138.4 496.824 1143.11 496.184 1148.1 495.453C1149.72 495.16 1151.33 494.996 1152.96 494.703C1173.43 490.929 1192.41 478.232 1203.67 460.593C1208.11 453.581 1210.46 442.835 1212.91 431.314C1218.44 405.853 1223.21 389.256 1237.94 391.384C1239.75 391.645 1241.78 392.202 1243.8 392.889C1256.33 397.469 1269.23 402.235 1279.21 410.802C1288.25 418.573 1295.31 430.016 1301.58 446.888C1308.02 464.443 1312.7 484.12 1316.35 509.06C1318.07 520.92 1319.64 534.737 1317.48 547.884C1315.19 561.013 1308.96 572.122 1300.16 578.24C1292.67 583.493 1283.23 585.824 1273.13 588.192C1260.56 591.128 1247.57 594.267 1237.62 603.782C1224.05 616.468 1221.54 635.636 1219.38 652.477C1218.93 655.579 1218.63 658.571 1218.09 661.396C1215.4 679.085 1206.18 697.282 1191.55 698.073C1190.57 698.459 1189.4 698.291 1188.37 698.142Z" stroke="url(#paint33_linear_806_71934)" stroke-miterlimit="10"/>
<path d="M1183.35 675.379C1181.95 674.121 1181.02 672.273 1180.77 670.389C1180.24 666.75 1181.85 662.892 1182.48 659.421C1184.59 647.585 1187.23 632.924 1181.07 617.123C1175.42 602.321 1162.93 595.635 1162.94 578.218C1162.9 567.524 1165.13 556.63 1162.54 546.228C1160.19 536.916 1153.78 528.337 1154.51 518.678C1155.38 506.268 1167.53 497.994 1178.8 493.024C1191.05 487.668 1202.29 482.956 1210.47 471.998C1219.96 459.25 1223.94 443.594 1224.48 427.969C1224.62 423.371 1224.51 418.605 1226.92 414.73C1234.12 403.235 1249.07 413.97 1255.85 419.964C1263.93 427.068 1268.99 440.466 1273.28 450.058C1283.46 472.773 1289.69 497.291 1291.24 522.19C1291.98 533.513 1291.53 545.721 1284.8 554.908C1276.41 566.365 1261.04 569.556 1247.26 572.712C1229.93 576.675 1219.15 583.696 1208.42 597.716C1197.35 612.217 1194.44 631.457 1192.18 648.945C1191.26 657.125 1188.62 669.015 1183.35 675.379Z" stroke="url(#paint34_linear_806_71934)" stroke-miterlimit="10"/>
<path d="M1189.45 610.284C1185.31 610.611 1182.79 603.385 1180.54 599.762C1178.11 595.584 1176.12 591.075 1176.18 586.07C1176.23 583.041 1176.41 579.901 1176.62 576.632C1177.1 568.784 1177.7 560.03 1175.44 550.995C1174.36 546.616 1172.68 542.68 1171.21 539.168C1169.33 534.807 1167.57 530.593 1167.87 527.601C1168.17 522.763 1174.37 517.324 1184.38 512.832L1186.08 512.022C1198.49 506.555 1211.44 500.905 1221.29 487.548C1231.58 473.859 1233.39 455.78 1236.56 439.347C1237.01 437.168 1237.62 434.75 1239.63 433.589C1241.21 432.76 1243.14 433.04 1244.58 434.04C1246.04 434.91 1247.15 436.389 1248.25 437.868C1266.9 464.049 1276.46 499.34 1278.48 531.037C1279.04 539.035 1279.04 549.064 1274.45 555.263C1269.18 562.55 1257.19 565.173 1245.58 567.852L1244.49 568.091C1233.44 570.586 1222.93 574.874 1214.02 581.768C1208.52 585.989 1204.08 591.154 1199.99 596.633C1197.2 600.452 1195.86 606.065 1192.13 609.088C1191.22 609.881 1190.24 610.267 1189.45 610.284Z" stroke="url(#paint35_linear_806_71934)" stroke-miterlimit="10"/>
<path d="M1192.35 596.584C1191 596.786 1189.91 595.177 1189.94 590.43C1189.92 587.789 1190.1 584.779 1190.28 581.64C1191.1 568.694 1191.21 555.119 1185.28 543.179C1183.85 540.332 1182.47 537.098 1182.91 533.996C1183.55 528.678 1189.48 527.818 1193.56 526.033C1206.54 520.253 1221.32 513.811 1232.95 498.203C1239.5 489.385 1243.56 478.623 1244.74 467.71C1244.96 465.235 1245.37 462.391 1247.63 461.397C1249.59 460.625 1251.8 461.736 1253 463.493C1256.98 469.741 1259.31 479.183 1261.7 486.389C1265.89 498.475 1269.11 510.946 1271.1 523.638C1272.44 531.748 1273.18 540.3 1269.98 547.887C1264.82 559.81 1254.79 560.737 1243.73 562.438C1232.53 564.12 1220.07 570.898 1211.16 577.792C1207.44 580.686 1204.19 584.043 1201.17 587.566C1198.97 590.019 1194.9 596.293 1192.35 596.584Z" stroke="url(#paint36_linear_806_71934)" stroke-miterlimit="10"/>
<path d="M1200.23 564.866C1199.71 564.791 1199.36 564.477 1199.01 564.162C1195.84 561.461 1197.19 553.872 1196.54 550.214C1195.56 545.059 1192.67 540.419 1191.96 535.302C1191.25 530.185 1196.38 530.267 1200.21 528.444C1203.05 527.008 1206.03 525.59 1208.76 524.006C1223.66 515.865 1237.94 504.731 1244.11 488.468C1244.54 487.342 1244.98 486.087 1246.13 485.461C1248.57 484.098 1249.6 487.941 1250.17 489.475C1251.73 493.263 1252.19 497.42 1253.2 501.392C1254.91 507.84 1256.32 514.51 1257.34 521.124C1258.63 528.698 1260.44 537.141 1253.95 542.802C1248.96 547.227 1241.64 547.622 1235.12 548.924C1226.82 550.629 1218.93 554.108 1212.15 559.066C1209.67 560.687 1203.9 565.924 1200.23 564.866Z" stroke="url(#paint37_linear_806_71934)" stroke-miterlimit="10"/>
<path d="M1201.16 543.757C1201.01 543.867 1200.74 543.959 1200.59 544.07C1200.02 544.383 1199.33 544.548 1198.85 544.215C1198.24 543.863 1198.23 543.069 1198.34 542.293C1198.62 540.354 1199.05 538.305 1200.19 536.755C1202.17 534.006 1204.89 535.322 1207.46 533.977C1213.33 530.735 1217.9 525.589 1222.69 520.739C1225.62 517.862 1232.15 510.097 1237.07 513.447C1238.03 514.113 1238.64 515.389 1238.6 516.571C1238.47 519.322 1236.49 521.148 1237.22 524.289C1237.54 525.785 1238.25 527.208 1238.29 528.797C1238.21 530.237 1237.49 531.585 1236.33 532.34C1234.59 533.409 1231.43 533.348 1229.4 533.715C1228.05 533.916 1226.55 534.228 1225.2 534.429C1216.52 536.078 1208.96 540.001 1201.16 543.757Z" stroke="url(#paint38_linear_806_71934)" stroke-miterlimit="10"/>
<path d="M1227.22 745.316C1222.05 730.847 1209.66 717.05 1195.1 715.477C1184.45 714.334 1173.45 718.289 1163.19 715.355C1148.48 711.251 1140.87 695.374 1130.01 684.701C1112.21 667.221 1085.29 663.597 1060.34 662.765C1055.48 662.592 1049.76 662.953 1047.05 667.049C1044.87 670.296 1045.56 674.619 1046.74 678.352C1050.99 691.896 1060.52 703.565 1072.68 710.731C1083.51 717.045 1096.05 719.779 1106.69 726.462C1127.95 740.088 1136.61 768.784 1130.55 793.376C1124.51 817.839 1106.03 837.998 1084.38 850.839C1071.55 858.355 1055.8 865.978 1053.16 880.639C1051.76 888.486 1054.96 896.47 1060.01 902.609C1065.07 908.749 1071.82 913.154 1078.65 917.043C1084.5 920.395 1091.1 923.988 1093.48 930.401C1095.65 936.388 1093.33 943.311 1094.81 949.463C1096.67 956.724 1103.22 961.629 1109.64 965.591C1115.93 969.534 1123.17 973.35 1130.61 972.05C1135.49 971.17 1139.72 968.351 1143.59 965.346C1160.21 952.572 1175.07 936.507 1181.37 916.57C1185.16 904.977 1185.88 892.677 1187.49 880.638C1191.2 853.068 1199.7 826.19 1212.52 801.386C1219.47 788.006 1229.85 774.594 1229.85 759.025C1229.69 754.647 1228.8 749.899 1227.22 745.316Z" stroke="url(#paint39_linear_806_71934)" stroke-miterlimit="10"/>
<path d="M1126.53 958.265C1123.73 958.52 1121.03 957.998 1118.43 956.831C1112.87 954.181 1108.65 948.69 1107.42 942.574C1106.76 938.916 1107.03 935.26 1106.78 931.529C1106.06 919.153 1095.17 911.38 1085.28 905.861L1084.8 905.528C1079.56 902.528 1073.75 898.917 1069.82 894.128C1066.8 890.392 1065.2 885.939 1065.81 882.597C1066.97 875.506 1076.89 869.814 1086.54 864.214C1087.98 863.367 1089.41 862.648 1090.72 861.782C1117.56 845.865 1136.58 821.957 1142.96 796.091C1150.69 764.483 1138.6 731.202 1113.47 715.169C1106.83 710.911 1099.96 708.204 1093.34 705.664C1088.22 703.606 1083.22 701.696 1079.09 699.252C1074.71 696.641 1071.29 692.979 1068.17 688.967C1064.37 684.196 1054.93 674.651 1065.35 672.857C1068.73 672.29 1072.96 674.088 1075.93 675.44C1091.28 682.408 1107.6 680.937 1120.65 693.774C1123.55 696.567 1126.22 699.988 1129.13 703.576C1136.75 712.988 1145.23 723.713 1159.55 727.761C1161.2 728.262 1162.88 728.505 1164.69 728.766C1171.02 729.68 1177.17 729.117 1182.53 728.571C1186.54 728.226 1190.42 727.863 1193.67 728.2C1193.8 728.219 1193.92 728.237 1194.18 728.275C1202.2 729.432 1211.05 738.495 1215 749.491C1216.24 752.835 1216.84 755.958 1216.82 758.857C1216.77 768.35 1211.34 777.596 1206.4 785.327C1200.29 794.737 1195.4 804.851 1191.24 815.335C1183.23 836.083 1178.6 858.11 1174.65 879.972C1171.77 896.313 1168.95 913.06 1161.54 927.825C1156.1 938.123 1140.94 957.179 1126.53 958.265Z" stroke="url(#paint40_linear_806_71934)" stroke-miterlimit="10"/>
<path d="M1123.85 951.28C1122.42 951.075 1121.17 950.63 1119.82 949.907C1116.3 947.815 1114.09 943.933 1113.35 939.869C1112.16 933.495 1113.76 927.92 1111.07 921.857C1108.66 916.627 1104.96 912.133 1100.62 908.341C1093.56 902.438 1083.81 899.579 1077.32 893.364C1074.42 890.571 1072.52 886.338 1073.75 882.424C1074.94 878.769 1078.45 876.374 1081.85 874.753C1113.03 859.859 1140.89 832.344 1149.4 798.078C1157.8 763.663 1144.55 727.443 1117.14 709.893C1110.01 705.302 1102.89 702.557 1095.89 699.832C1090.89 697.922 1086.28 696.068 1082.51 693.809C1080.2 692.421 1072.18 687.699 1072.81 684.227C1073.84 678.042 1088.45 686.486 1091.5 687.322C1101.06 689.626 1109.2 691.725 1116.27 698.551C1118.81 701.03 1121.5 704.322 1124.18 707.742C1132.01 717.451 1141.61 729.526 1157.84 734.112C1159.74 734.651 1161.66 735.06 1163.73 735.358C1170.84 736.385 1177.66 735.786 1183.01 735.24C1186.76 734.857 1190.24 734.567 1192.84 734.811L1193.1 734.849C1198.01 735.558 1205.31 742.55 1208.74 751.753C1209.69 754.266 1210.11 756.834 1210.09 758.811C1210.04 766.457 1205.17 774.595 1200.71 781.735C1194.6 791.146 1189.38 801.739 1185 812.851C1176.77 834.227 1172.01 857.158 1168.12 878.633L1167.63 881.07C1164.95 895.989 1162.19 911.425 1155.52 924.713C1151.12 933.313 1142.99 943.884 1134.49 948.858C1131.29 950.903 1127.47 951.803 1123.85 951.28Z" stroke="url(#paint41_linear_806_71934)" stroke-miterlimit="10"/>
<path d="M1127.51 935.974C1124.52 934.75 1125.71 927.401 1124.68 923.558C1123.29 918.606 1121.21 913.82 1118.54 909.475C1112.93 900.749 1104.54 893.995 1094.54 891.099C1092.5 890.542 1090.23 889.818 1089.44 887.988C1088.45 885.734 1090.11 883.335 1091.69 881.583C1101.2 870.553 1112.53 861.501 1123.52 852.135C1134.5 842.769 1145.32 832.72 1153.02 820.504C1160.72 808.289 1165.25 793.373 1162.56 779.129C1161.52 773.568 1159.4 768.116 1158.36 762.555C1155.45 745.245 1169.07 748.664 1181.41 748.202C1185.92 748.061 1191.18 748.162 1194.28 751.38C1196.8 753.988 1197.26 758.144 1196.37 761.578C1195.46 765.142 1193.55 768.297 1191.66 771.323C1174.68 799.353 1163.06 830.53 1157.48 862.714C1155.08 876.618 1153.84 890.69 1149.65 904.203C1147.46 911.144 1144.88 918.029 1140.95 924.192C1138.57 927.938 1135.05 933.104 1131.19 935.185C1129.6 936.143 1128.38 936.363 1127.51 935.974Z" stroke="url(#paint42_linear_806_71934)" stroke-miterlimit="10"/>
<path d="M1131.79 913.633C1131.53 913.595 1131.4 913.577 1131.16 913.41C1129.71 912.54 1129.66 909.234 1129.07 907.829C1127.93 904.761 1126.51 901.786 1124.79 899.031C1122.09 894.945 1118.32 891.763 1114.36 889.079C1111.72 887.246 1103.67 884.501 1103.82 880.696C1103.96 877.021 1110.02 874.334 1112.31 872.158C1115.96 868.857 1119.6 865.557 1123.35 862.404C1124.85 861.169 1126.35 859.934 1127.85 858.698C1134.47 853.057 1140.63 846.953 1146.2 840.367C1148.9 837.195 1152.45 833.617 1154.17 829.907C1154.95 828.172 1155.22 821.745 1158.19 822.175C1160.26 822.473 1149.76 851.307 1149.15 853.725C1146.74 862.218 1146.17 871.636 1144.38 880.351C1142.58 889.195 1140.51 898.002 1138.19 906.772C1137.67 908.544 1137.13 910.445 1136 911.866C1135.23 912.677 1133.32 913.986 1131.79 913.633Z" stroke="url(#paint43_linear_806_71934)" stroke-miterlimit="10"/>
<path d="M1131.71 895.939C1130.32 896.399 1129.57 894.31 1129.48 893.11C1128.52 886.903 1123.56 884.734 1118.87 881.55C1118.15 881.051 1117.47 880.292 1117.32 879.479C1116.81 877.558 1118.73 876.12 1119.95 874.977C1121.77 873.391 1123.47 871.658 1125.15 870.053C1126.96 868.468 1128.67 866.734 1130.48 865.148C1131.4 864.226 1132.57 863.471 1133.51 862.42C1134.42 861.627 1135.1 860.538 1136.03 859.616C1136.49 859.155 1137.19 858.86 1137.71 858.935C1138.74 859.084 1139.5 860.249 1139.46 861.431C1139.42 862.613 1138.75 863.573 1138.48 864.588C1138.16 865.862 1137.97 867.154 1137.79 868.447C1137.27 871.143 1136.87 873.857 1136.35 876.553C1135.31 881.944 1134.42 887.225 1133.5 892.636C1133.35 893.67 1133.06 894.814 1132.32 895.367C1132.13 895.736 1131.85 895.828 1131.71 895.939Z" stroke="url(#paint44_linear_806_71934)" stroke-miterlimit="10"/>
<path d="M814.995 1054.21C813.347 1044.6 803.312 1036.42 806.374 1027.1C807.561 1023.44 810.594 1020.71 812.779 1017.47C816.962 1011.34 817.898 1003.03 815.064 996.157C812.23 989.282 805.737 983.99 798.406 982.668C785.555 980.285 773.334 989.076 760.293 989.832C732.069 991.563 711.251 956.624 683.155 959.297C664.295 961.06 651.82 978.92 636.603 990.182C618.26 1003.9 580.888 997.707 569.329 1020.19C566.383 1025.96 565.91 1033.81 570.854 1037.96C573.676 1040.34 577.683 1040.92 581.339 1041.18C614.507 1043.6 649.397 1030.43 680.185 1042.92C691.039 1047.26 700.41 1054.55 710.633 1060.51C731.079 1072.44 754.692 1078.88 778.351 1079.53C786.902 1079.71 795.823 1079.15 803.273 1075.08C810.703 1071.14 816.404 1062.72 814.995 1054.21Z" stroke="url(#paint45_linear_806_71934)" stroke-miterlimit="10"/>
<path d="M762.311 1071.8C745.12 1069.32 728.414 1063.48 713.928 1055.05C710.754 1053.27 707.617 1051.24 704.61 1049.22C697.727 1044.8 690.734 1040.22 682.742 1037.09C677.001 1034.81 671.038 1033.16 664.446 1032.2C649.452 1030.04 633.917 1031.62 618.917 1033.15C606.596 1034.41 593.869 1035.74 581.865 1034.8C580.813 1034.78 580.037 1034.66 579.261 1034.55C577.323 1034.27 575.938 1033.81 575.108 1033.16C572.987 1031.4 573.548 1026.6 575.215 1023.28C580.679 1012.85 594.296 1009.94 608.854 1006.89C620.143 1004.56 631.985 1002.05 640.583 995.507C645.317 991.968 649.719 987.985 653.843 984.094C663.442 975.188 672.56 966.872 683.791 965.854C685.934 965.636 688.039 965.676 690.107 965.975C699.673 967.356 708.695 973.409 718.437 979.962C728.899 987.014 739.858 994.271 752.397 996.081C755.111 996.473 757.992 996.625 760.652 996.482C766.914 996.066 772.734 994.136 778.407 992.316C784.782 990.201 790.88 988.179 796.438 988.981C796.697 989.019 796.955 989.056 797.214 989.093C802.347 990.098 806.959 993.799 809.02 998.715C810.952 1003.61 810.37 1009.47 807.372 1013.78C806.853 1014.63 806.077 1015.44 805.429 1016.27C803.504 1018.64 801.266 1021.35 800.078 1025C797.443 1033.2 801.422 1040.37 804.553 1046.1C806.34 1049.26 807.997 1052.4 808.529 1055.12C809.425 1060.79 805.039 1066.49 800.03 1069.2C793.449 1072.74 785.082 1073.11 778.397 1072.81C773.096 1072.96 767.611 1072.57 762.311 1071.8Z" stroke="url(#paint46_linear_806_71934)" stroke-miterlimit="10"/>
<path d="M764.01 1059.12C752.176 1056.09 740.025 1054.33 729.397 1047.52C717.072 1039.67 704.431 1032.17 690.809 1026.91C673.31 1020.16 653.829 1017.08 635.741 1021.73C632.452 1022.57 629.255 1023.69 625.82 1023.72C613.814 1023.71 619.682 1015.05 626.741 1012.77C633.818 1010.36 642.184 1010.91 648.397 1006.27C653.574 1002.4 658.272 998.193 662.692 994.081C667.408 989.748 673.052 982.645 679.021 980.604C686.93 977.92 697.156 982.035 703.984 985.924C712.749 991.016 720.459 997.935 729.391 1002.79C745.926 1011.64 766.703 1012.13 783.708 1004.03C785.685 1003.13 787.7 1001.97 789.824 1001.88C791.948 1001.79 794.421 1002.94 794.917 1004.99C795.247 1006.36 794.636 1007.85 794.172 1009.24C790.724 1017.58 784.227 1026.94 786.596 1036.12C788.432 1043.51 796.064 1052.79 790.364 1060.28C786.293 1065.63 779.849 1064.57 774.348 1062.46C770.859 1061.03 767.444 1060.01 764.01 1059.12Z" stroke="url(#paint47_linear_806_71934)" stroke-miterlimit="10"/>
<path d="M777.541 1051.31C776.69 1052.63 775.377 1053.5 773.474 1053.89C768.32 1054.86 761.587 1049.4 756.991 1047.41C747.91 1043.6 738.718 1039.63 729.636 1035.81C711.862 1028.23 694.068 1020.78 676.165 1013.18C672.565 1011.6 668.487 1009.7 667.458 1005.85C666.356 1001.6 669.595 997.453 673.458 995.371C684.974 988.721 699.723 994.414 710.812 1001.69C721.901 1008.96 733.117 1018.1 746.359 1018.7C753.58 1018.95 761.285 1016.76 767.837 1019.82C773.411 1022.34 776.763 1028.37 777.752 1034.31C778.816 1038.82 780.392 1047.1 777.541 1051.31Z" stroke="url(#paint48_linear_806_71934)" stroke-miterlimit="10"/>
<path d="M1316.98 315.575C1291.32 305.009 1261.14 317.541 1241.64 337.422C1222.3 357.192 1210.75 383.235 1197.23 407.409C1183.71 431.584 1166.39 455.605 1140.79 466.556C1133.9 469.519 1126.49 471.484 1119.89 475.15C1114.14 478.41 1109.26 482.983 1103.31 485.819C1087.58 493.312 1068.58 486.874 1054.65 476.418C1040.87 465.851 1030.39 451.67 1017.1 440.383C1000.41 426.229 979.444 417 957.764 414.529C946.481 413.164 934.531 413.681 924.531 418.967C914.402 424.234 906.666 434.861 907.406 446.184C908.617 463.381 928.264 479.017 920.742 494.557C915.795 505.059 901.792 506.995 892.915 514.554C876.66 528.437 883.065 555.357 895.469 572.718C907.872 590.08 925.284 605.657 928.706 626.736C932.878 652.674 914.41 676.397 897.037 696.189C890.395 703.807 883.199 711.609 873.535 714.568C860.712 718.39 846.98 712.053 836.594 703.56C826.209 695.067 817.729 684.342 806.696 676.679C798.412 670.996 785.21 668.298 780.026 676.786C776.582 682.359 779.008 690.23 783.767 694.744C788.525 699.258 795.078 701.392 801.392 703.359C835.23 713.919 871.522 726.681 890.704 756.501C907.73 782.975 935.82 772.12 959.114 757.01C980.948 742.877 996.016 707.974 1026.76 712.545C1041.87 714.858 1055.48 727.512 1069.84 733.148C1081.56 737.875 1093.58 742.381 1103.52 750.283C1113.46 758.184 1121.13 769.979 1120.5 782.556C1119.66 803.019 1092.99 834.137 1077.96 846.876C1062.48 859.948 1042.06 867.028 1040.66 890.445C1040.22 898.035 1044.33 902.456 1046.76 909.404C1049.45 917.313 1049.82 925.68 1052.36 933.7C1063.17 968.512 1094.97 993.162 1079.6 1032.9C1066.19 1067.25 1040.66 1085.05 1012.29 1103.05C991.959 1112.11 936.992 1123.95 901.792 1107.55C866.592 1091.15 848.292 1075.55 843.292 1069.05" stroke="url(#paint49_linear_806_71934)" stroke-width="2" stroke-miterlimit="10"/>
<path d="M490.923 1022.19C498.126 997.896 515.34 972.804 540.664 971.05C560.115 969.768 578.01 982.909 597.495 983.215C618.42 983.597 636.412 969.569 654.123 958.403C671.833 947.238 695.007 938.444 712.98 949.22C723.424 955.479 730.369 967.697 742.222 970.597C748.85 972.213 755.945 970.599 762.56 968.651C772.612 965.748 782.775 962.069 793.248 961.734C803.739 961.27 815.019 964.482 821.452 972.932C832.199 987.151 824.282 1007.25 824.089 1025.04C823.824 1041.49 831.076 1057.98 843.342 1068.99" stroke="url(#paint50_linear_806_71934)" stroke-width="2" stroke-miterlimit="10"/>
</g>
</g>
<defs>
<filter id="filter0_f_806_71934" x="0.263672" y="0.722656" width="1921.52" height="1525.21" filterUnits="userSpaceOnUse" color-interpolation-filters="sRGB">
<feFlood flood-opacity="0" result="BackgroundImageFix"/>
<feBlend mode="normal" in="SourceGraphic" in2="BackgroundImageFix" result="shape"/>
<feGaussianBlur stdDeviation="200" result="effect1_foregroundBlur_806_71934"/>
</filter>
<linearGradient id="paint0_linear_806_71934" x1="658.727" y1="883.114" x2="810.001" y2="770.014" gradientUnits="userSpaceOnUse">
<stop stop-color="#86E7FF" stop-opacity="0.3"/>
<stop offset="1" stop-color="#86E7FF" stop-opacity="0.8"/>
</linearGradient>
<linearGradient id="paint1_linear_806_71934" x1="663.954" y1="879.171" x2="804.715" y2="773.931" gradientUnits="userSpaceOnUse">
<stop stop-color="#86E7FF" stop-opacity="0.3"/>
<stop offset="1" stop-color="#86E7FF" stop-opacity="0.8"/>
</linearGradient>
<linearGradient id="paint2_linear_806_71934" x1="625.531" y1="805.585" x2="857.647" y2="839.101" gradientUnits="userSpaceOnUse">
<stop stop-color="#26F7DD"/>
<stop offset="1" stop-color="#00B8DD"/>
</linearGradient>
<linearGradient id="paint3_linear_806_71934" x1="665.734" y1="802.154" x2="734.318" y2="750.877" gradientUnits="userSpaceOnUse">
<stop stop-color="#86E7FF" stop-opacity="0.3"/>
<stop offset="1" stop-color="#86E7FF" stop-opacity="0.8"/>
</linearGradient>
<linearGradient id="paint4_linear_806_71934" x1="670.348" y1="798.483" x2="728.98" y2="754.646" gradientUnits="userSpaceOnUse">
<stop stop-color="#86E7FF" stop-opacity="0.3"/>
<stop offset="1" stop-color="#86E7FF" stop-opacity="0.8"/>
</linearGradient>
<linearGradient id="paint5_linear_806_71934" x1="678.526" y1="787.093" x2="716.308" y2="758.845" gradientUnits="userSpaceOnUse">
<stop stop-color="#86E7FF" stop-opacity="0.3"/>
<stop offset="1" stop-color="#86E7FF" stop-opacity="0.8"/>
</linearGradient>
<linearGradient id="paint6_linear_806_71934" x1="693.859" y1="772.054" x2="705.278" y2="763.517" gradientUnits="userSpaceOnUse">
<stop stop-color="#86E7FF" stop-opacity="0.3"/>
<stop offset="1" stop-color="#86E7FF" stop-opacity="0.8"/>
</linearGradient>
<linearGradient id="paint7_linear_806_71934" x1="743.077" y1="897.553" x2="803.227" y2="852.582" gradientUnits="userSpaceOnUse">
<stop stop-color="#86E7FF" stop-opacity="0.3"/>
<stop offset="1" stop-color="#86E7FF" stop-opacity="0.8"/>
</linearGradient>
<linearGradient id="paint8_linear_806_71934" x1="760.501" y1="885.684" x2="793.314" y2="861.151" gradientUnits="userSpaceOnUse">
<stop stop-color="#86E7FF" stop-opacity="0.3"/>
<stop offset="1" stop-color="#86E7FF" stop-opacity="0.8"/>
</linearGradient>
<linearGradient id="paint9_linear_806_71934" x1="767.148" y1="882.449" x2="789.038" y2="866.083" gradientUnits="userSpaceOnUse">
<stop stop-color="#86E7FF" stop-opacity="0.3"/>
<stop offset="1" stop-color="#86E7FF" stop-opacity="0.8"/>
</linearGradient>
<linearGradient id="paint10_linear_806_71934" x1="816.622" y1="981.577" x2="1098.18" y2="771.072" gradientUnits="userSpaceOnUse">
<stop stop-color="#86E7FF" stop-opacity="0.3"/>
<stop offset="1" stop-color="#86E7FF" stop-opacity="0.8"/>
</linearGradient>
<linearGradient id="paint11_linear_806_71934" x1="827.056" y1="973.768" x2="1087.71" y2="778.891" gradientUnits="userSpaceOnUse">
<stop stop-color="#86E7FF" stop-opacity="0.3"/>
<stop offset="1" stop-color="#86E7FF" stop-opacity="0.8"/>
</linearGradient>
<linearGradient id="paint12_linear_806_71934" x1="857.092" y1="995.381" x2="1091.25" y2="820.31" gradientUnits="userSpaceOnUse">
<stop stop-color="#86E7FF" stop-opacity="0.3"/>
<stop offset="1" stop-color="#86E7FF" stop-opacity="0.8"/>
</linearGradient>
<linearGradient id="paint13_linear_806_71934" x1="905.145" y1="998.741" x2="1100.72" y2="852.518" gradientUnits="userSpaceOnUse">
<stop stop-color="#86E7FF" stop-opacity="0.3"/>
<stop offset="1" stop-color="#86E7FF" stop-opacity="0.8"/>
</linearGradient>
<linearGradient id="paint14_linear_806_71934" x1="946.391" y1="1007.83" x2="1001.05" y2="966.961" gradientUnits="userSpaceOnUse">
<stop stop-color="#86E7FF" stop-opacity="0.3"/>
<stop offset="1" stop-color="#86E7FF" stop-opacity="0.8"/>
</linearGradient>
<linearGradient id="paint15_linear_806_71934" x1="954.151" y1="1003.28" x2="992.319" y2="974.741" gradientUnits="userSpaceOnUse">
<stop stop-color="#86E7FF" stop-opacity="0.3"/>
<stop offset="1" stop-color="#86E7FF" stop-opacity="0.8"/>
</linearGradient>
<linearGradient id="paint16_linear_806_71934" x1="965.438" y1="990.063" x2="979.035" y2="979.897" gradientUnits="userSpaceOnUse">
<stop stop-color="#86E7FF" stop-opacity="0.3"/>
<stop offset="1" stop-color="#86E7FF" stop-opacity="0.8"/>
</linearGradient>
<linearGradient id="paint17_linear_806_71934" x1="955.18" y1="881.305" x2="986.17" y2="858.135" gradientUnits="userSpaceOnUse">
<stop stop-color="#86E7FF" stop-opacity="0.3"/>
<stop offset="1" stop-color="#86E7FF" stop-opacity="0.8"/>
</linearGradient>
<linearGradient id="paint18_linear_806_71934" x1="1069.35" y1="1083.23" x2="1155.22" y2="1019.03" gradientUnits="userSpaceOnUse">
<stop stop-color="#86E7FF" stop-opacity="0.3"/>
<stop offset="1" stop-color="#86E7FF" stop-opacity="0.8"/>
</linearGradient>
<linearGradient id="paint19_linear_806_71934" x1="1083.35" y1="1083.56" x2="1153.03" y2="1031.46" gradientUnits="userSpaceOnUse">
<stop stop-color="#86E7FF" stop-opacity="0.3"/>
<stop offset="1" stop-color="#86E7FF" stop-opacity="0.8"/>
</linearGradient>
<linearGradient id="paint20_linear_806_71934" x1="1109.27" y1="1058.59" x2="1161.71" y2="1066.16" gradientUnits="userSpaceOnUse">
<stop stop-color="#26F7DD"/>
<stop offset="1" stop-color="#00B8DD"/>
</linearGradient>
<linearGradient id="paint21_linear_806_71934" x1="692.268" y1="557.479" x2="1160.3" y2="207.554" gradientUnits="userSpaceOnUse">
<stop stop-color="#86E7FF" stop-opacity="0.3"/>
<stop offset="1" stop-color="#86E7FF" stop-opacity="0.8"/>
</linearGradient>
<linearGradient id="paint22_linear_806_71934" x1="706.603" y1="550.223" x2="1153.7" y2="215.948" gradientUnits="userSpaceOnUse">
<stop stop-color="#86E7FF" stop-opacity="0.3"/>
<stop offset="1" stop-color="#86E7FF" stop-opacity="0.8"/>
</linearGradient>
<linearGradient id="paint23_linear_806_71934" x1="813.578" y1="564.331" x2="891.517" y2="575.585" gradientUnits="userSpaceOnUse">
<stop stop-color="#26F7DD"/>
<stop offset="1" stop-color="#00B8DD"/>
</linearGradient>
<linearGradient id="paint24_linear_806_71934" x1="855.667" y1="400.983" x2="1115.66" y2="206.599" gradientUnits="userSpaceOnUse">
<stop stop-color="#86E7FF" stop-opacity="0.3"/>
<stop offset="1" stop-color="#86E7FF" stop-opacity="0.8"/>
</linearGradient>
<linearGradient id="paint25_linear_806_71934" x1="836.542" y1="642.582" x2="864.451" y2="621.716" gradientUnits="userSpaceOnUse">
<stop stop-color="#86E7FF" stop-opacity="0.3"/>
<stop offset="1" stop-color="#86E7FF" stop-opacity="0.8"/>
</linearGradient>
<linearGradient id="paint26_linear_806_71934" x1="863.563" y1="666.737" x2="1088.73" y2="498.388" gradientUnits="userSpaceOnUse">
<stop stop-color="#86E7FF" stop-opacity="0.3"/>
<stop offset="1" stop-color="#86E7FF" stop-opacity="0.8"/>
</linearGradient>
<linearGradient id="paint27_linear_806_71934" x1="867.097" y1="665.259" x2="1081.86" y2="504.694" gradientUnits="userSpaceOnUse">
<stop stop-color="#86E7FF" stop-opacity="0.3"/>
<stop offset="1" stop-color="#86E7FF" stop-opacity="0.8"/>
</linearGradient>
<linearGradient id="paint28_linear_806_71934" x1="879.229" y1="655.034" x2="1073.07" y2="510.112" gradientUnits="userSpaceOnUse">
<stop stop-color="#86E7FF" stop-opacity="0.3"/>
<stop offset="1" stop-color="#86E7FF" stop-opacity="0.8"/>
</linearGradient>
<linearGradient id="paint29_linear_806_71934" x1="954.369" y1="545.472" x2="1097.46" y2="566.132" gradientUnits="userSpaceOnUse">
<stop stop-color="#26F7DD"/>
<stop offset="1" stop-color="#00B8DD"/>
</linearGradient>
<linearGradient id="paint30_linear_806_71934" x1="987.71" y1="576.939" x2="1055.68" y2="526.123" gradientUnits="userSpaceOnUse">
<stop stop-color="#86E7FF" stop-opacity="0.3"/>
<stop offset="1" stop-color="#86E7FF" stop-opacity="0.8"/>
</linearGradient>
<linearGradient id="paint31_linear_806_71934" x1="999.045" y1="553.911" x2="1039.38" y2="523.751" gradientUnits="userSpaceOnUse">
<stop stop-color="#86E7FF" stop-opacity="0.3"/>
<stop offset="1" stop-color="#86E7FF" stop-opacity="0.8"/>
</linearGradient>
<linearGradient id="paint32_linear_806_71934" x1="1113.57" y1="619.95" x2="1326.89" y2="460.462" gradientUnits="userSpaceOnUse">
<stop stop-color="#86E7FF" stop-opacity="0.3"/>
<stop offset="1" stop-color="#86E7FF" stop-opacity="0.8"/>
</linearGradient>
<linearGradient id="paint33_linear_806_71934" x1="1126.35" y1="532.335" x2="1316.48" y2="559.79" gradientUnits="userSpaceOnUse">
<stop stop-color="#26F7DD"/>
<stop offset="1" stop-color="#00B8DD"/>
</linearGradient>
<linearGradient id="paint34_linear_806_71934" x1="1127.83" y1="602.463" x2="1298.56" y2="474.816" gradientUnits="userSpaceOnUse">
<stop stop-color="#86E7FF" stop-opacity="0.3"/>
<stop offset="1" stop-color="#86E7FF" stop-opacity="0.8"/>
</linearGradient>
<linearGradient id="paint35_linear_806_71934" x1="1156.27" y1="570.228" x2="1279.04" y2="478.435" gradientUnits="userSpaceOnUse">
<stop stop-color="#86E7FF" stop-opacity="0.3"/>
<stop offset="1" stop-color="#86E7FF" stop-opacity="0.8"/>
</linearGradient>
<linearGradient id="paint36_linear_806_71934" x1="1171.79" y1="571.535" x2="1276.05" y2="493.585" gradientUnits="userSpaceOnUse">
<stop stop-color="#86E7FF" stop-opacity="0.3"/>
<stop offset="1" stop-color="#86E7FF" stop-opacity="0.8"/>
</linearGradient>
<linearGradient id="paint37_linear_806_71934" x1="1192.61" y1="557.012" x2="1263.08" y2="504.326" gradientUnits="userSpaceOnUse">
<stop stop-color="#86E7FF" stop-opacity="0.3"/>
<stop offset="1" stop-color="#86E7FF" stop-opacity="0.8"/>
</linearGradient>
<linearGradient id="paint38_linear_806_71934" x1="1200.43" y1="547.522" x2="1240.94" y2="517.238" gradientUnits="userSpaceOnUse">
<stop stop-color="#86E7FF" stop-opacity="0.3"/>
<stop offset="1" stop-color="#86E7FF" stop-opacity="0.8"/>
</linearGradient>
<linearGradient id="paint39_linear_806_71934" x1="1029.18" y1="865.219" x2="1216.13" y2="725.451" gradientUnits="userSpaceOnUse">
<stop stop-color="#86E7FF" stop-opacity="0.3"/>
<stop offset="1" stop-color="#86E7FF" stop-opacity="0.8"/>
</linearGradient>
<linearGradient id="paint40_linear_806_71934" x1="1041.13" y1="858.287" x2="1206.61" y2="734.56" gradientUnits="userSpaceOnUse">
<stop stop-color="#86E7FF" stop-opacity="0.3"/>
<stop offset="1" stop-color="#86E7FF" stop-opacity="0.8"/>
</linearGradient>
<linearGradient id="paint41_linear_806_71934" x1="1048.73" y1="857.309" x2="1203.63" y2="741.497" gradientUnits="userSpaceOnUse">
<stop stop-color="#86E7FF" stop-opacity="0.3"/>
<stop offset="1" stop-color="#86E7FF" stop-opacity="0.8"/>
</linearGradient>
<linearGradient id="paint42_linear_806_71934" x1="1096" y1="833.246" x2="1184.88" y2="846.081" gradientUnits="userSpaceOnUse">
<stop stop-color="#26F7DD"/>
<stop offset="1" stop-color="#00B8DD"/>
</linearGradient>
<linearGradient id="paint43_linear_806_71934" x1="1111.62" y1="893.119" x2="1176.19" y2="844.844" gradientUnits="userSpaceOnUse">
<stop stop-color="#86E7FF" stop-opacity="0.3"/>
<stop offset="1" stop-color="#86E7FF" stop-opacity="0.8"/>
</linearGradient>
<linearGradient id="paint44_linear_806_71934" x1="1121.68" y1="887.013" x2="1146.27" y2="868.626" gradientUnits="userSpaceOnUse">
<stop stop-color="#86E7FF" stop-opacity="0.3"/>
<stop offset="1" stop-color="#86E7FF" stop-opacity="0.8"/>
</linearGradient>
<linearGradient id="paint45_linear_806_71934" x1="615.391" y1="1099.28" x2="793.85" y2="965.858" gradientUnits="userSpaceOnUse">
<stop stop-color="#86E7FF" stop-opacity="0.3"/>
<stop offset="1" stop-color="#86E7FF" stop-opacity="0.8"/>
</linearGradient>
<linearGradient id="paint46_linear_806_71934" x1="620.625" y1="1095.38" x2="788.626" y2="969.771" gradientUnits="userSpaceOnUse">
<stop stop-color="#86E7FF" stop-opacity="0.3"/>
<stop offset="1" stop-color="#86E7FF" stop-opacity="0.8"/>
</linearGradient>
<linearGradient id="paint47_linear_806_71934" x1="620.383" y1="1005.43" x2="796.498" y2="1030.86" gradientUnits="userSpaceOnUse">
<stop stop-color="#26F7DD"/>
<stop offset="1" stop-color="#00B8DD"/>
</linearGradient>
<linearGradient id="paint48_linear_806_71934" x1="695.791" y1="1045.67" x2="756.495" y2="1000.28" gradientUnits="userSpaceOnUse">
<stop stop-color="#86E7FF" stop-opacity="0.3"/>
<stop offset="1" stop-color="#86E7FF" stop-opacity="0.8"/>
</linearGradient>
<linearGradient id="paint49_linear_806_71934" x1="781.215" y1="653.763" x2="1258.58" y2="722.692" gradientUnits="userSpaceOnUse">
<stop stop-color="#26F7DD"/>
<stop offset="1" stop-color="#00B8DD"/>
</linearGradient>
<linearGradient id="paint50_linear_806_71934" x1="497.301" y1="968.754" x2="851.05" y2="1019.83" gradientUnits="userSpaceOnUse">
<stop stop-color="#26F7DD"/>
<stop offset="1" stop-color="#00B8DD"/>
</linearGradient>
</defs>
</svg>
