<svg width="2202" height="911" viewBox="0 0 2202 911" fill="none" xmlns="http://www.w3.org/2000/svg">
<g opacity="0.7">
<g opacity="0.25" filter="url(#filter0_f_1256_7137)">
<ellipse cx="785.094" cy="200.133" rx="785.094" ry="200.133" transform="matrix(0.996417 0.0845798 -0.737785 0.675036 466.237 254)" fill="#389989"/>
</g>
<mask id="mask0_1256_7137" style="mask-type:alpha" maskUnits="userSpaceOnUse" x="246" y="340" width="1702" height="259">
<ellipse opacity="0.3" cx="845.366" cy="159.389" rx="845.366" ry="159.389" transform="matrix(0.996417 0.0845798 -0.737785 0.675036 372.179 290.203)" fill="#389989"/>
</mask>
<g mask="url(#mask0_1256_7137)">
<path d="M797.052 550.494C776.147 549.653 755.854 544.909 745.716 538.441C738.274 533.765 735.792 528.84 733.254 524.025C732.361 522.25 731.272 520.467 730.183 518.683C725.319 511.362 715.652 506.316 701.463 503.781C695.213 502.632 687.523 501.93 678.254 501.557C668.196 501.152 657.712 501.179 646.609 501.237C640.973 501.235 634.914 501.272 629.109 501.206C624.91 501.15 620.514 501.085 616.373 500.918C583.24 499.585 561.341 494.832 557.544 488.171C554.361 482.656 565.238 477.596 573.823 474.238C575.857 473.422 578.116 472.559 580.346 471.751C590.371 467.946 599.887 464.346 602.389 460.294C603.184 459.148 603.248 457.86 603.508 456.58C603.745 454.57 604.038 452.449 606.36 450.298C615.707 441.585 652.249 437.894 684.345 438.119C688.149 438.16 692.179 438.154 695.786 438.187C712.469 438.241 728.306 438.373 742.506 438.945C783.133 440.579 805.111 446.345 815.445 458.263C818.135 461.233 819.781 464.273 821.484 467.203C823.886 471.115 825.98 474.846 829.962 478.429C840.395 487.826 864.299 496.868 899.116 504.665C901.818 505.279 904.549 505.838 907.251 506.451C924.252 510.165 941.816 513.958 950.887 519.765C957.514 524.072 955.99 529.734 947.064 533.751C940.001 536.889 929.565 538.77 917.361 539.008C914.317 539.054 911.105 539.037 907.555 538.894C905.583 538.815 903.61 538.735 901.667 538.601C899.892 538.53 898.342 538.411 896.567 538.34C895.187 538.284 893.806 538.229 892.792 538.244C879.576 538.105 867.697 540.825 855.113 543.741C841.851 546.798 827.913 549.997 809.874 550.618C805.618 550.671 801.391 550.669 797.052 550.494Z" stroke="url(#paint0_linear_1256_7137)" stroke-miterlimit="10"/>
<path d="M941.893 520.806C932.542 514.763 911.596 510.89 892.991 506.775C860.51 499.521 832.689 490.265 820.491 479.226C813.256 472.595 811.631 465.628 805.665 458.879C789.336 440.268 744.918 441.286 683.909 440.907C656.208 440.746 623.672 443.701 615.798 451.127C612.371 454.243 614.072 457.566 611.997 460.793C608.416 466.54 593.737 471.168 581.622 475.898C572.754 479.413 564.588 483.517 567.016 487.766C571.091 495.056 602.636 498.289 629.125 498.457C655.585 498.681 684.392 497.483 706.69 501.466C726.397 505.009 735.407 511.712 739.712 518.169C744.017 524.626 745.193 531.294 754.573 537.283C764.15 543.279 785.201 548.502 808.567 547.703C840.726 546.641 860.628 535.042 893.091 535.338C901.093 535.436 908.923 536.256 916.843 536.126C940.572 535.79 951.216 526.904 941.893 520.806Z" stroke="url(#paint1_linear_1256_7137)" stroke-miterlimit="10"/>
<path d="M801.326 542.25C790.676 541.822 779.11 538.887 773.015 535.107C767.229 531.508 764.998 527.266 762.654 522.852C761.593 521.013 760.758 519.128 759.331 517.219C752.874 507.533 738.708 500.679 717.34 496.845C707.402 495.043 695.91 493.907 682.302 493.359C670.074 492.867 657.759 492.933 645.866 492.959C640.23 492.957 634.763 493.018 629.55 492.976C626.534 492.967 623.351 492.895 620.195 492.768C605.798 492.189 588.449 490.312 586.55 486.982C585.518 485.088 589.026 482.593 597.639 479.18C599.644 478.419 601.678 477.603 603.88 476.85C615.118 472.645 627.656 467.876 631.381 461.854C632.461 460.158 632.723 458.485 632.872 457.032C633.078 455.469 633.255 453.962 634.445 452.831C637.928 449.605 655.699 446.393 683.006 446.537C687.007 446.586 690.84 446.572 694.644 446.613C711.101 446.714 725.36 446.783 737.785 447.283C762.437 448.275 777.529 450.622 785.987 460.332C788.425 463.011 790.016 465.768 791.748 468.643C794.093 472.665 796.579 476.805 801.065 480.969C813.293 491.954 840.487 502.418 880.202 511.254C882.904 511.868 885.803 512.489 888.702 513.111C903.367 516.282 917.3 519.312 923.169 523.139C926.034 524.993 925.23 527.71 921.472 529.523C918.817 530.763 916.167 530.824 915.378 530.793C914.561 530.816 913.378 530.768 911.603 530.697C910.025 530.633 908.447 530.57 906.898 530.451C904.926 530.372 902.785 530.23 900.418 530.134C897.854 530.031 895.656 529.999 893.458 529.967C868.83 529.705 851.223 533.766 835.677 537.348C825.18 539.731 815.333 542.028 805.891 542.378C804.707 542.33 803.101 542.322 801.326 542.25Z" stroke="url(#paint2_linear_1256_7137)" stroke-miterlimit="10"/>
<path d="M735.945 458.992C723.885 453.513 703.192 449.931 678.601 453.093C666.729 454.635 663.916 458.899 656.15 461.84C647.622 465.088 632.226 466.825 626.486 470.522C620.66 474.383 627.793 478.878 637.64 482.024C644.194 484.139 649.153 484.283 658.23 483.862C667.306 483.442 674.323 483.5 683.675 484.101C704.353 485.382 723.755 487.958 745.029 488.477C752.778 488.677 761.571 488.414 766.287 486.696C771.511 484.774 768.876 482.087 766.014 479.839C756.949 472.854 749.944 465.39 735.945 458.992Z" stroke="url(#paint3_linear_1256_7137)" stroke-miterlimit="10"/>
<path d="M740.9 485.562C722.053 484.635 704.366 482.633 685.858 481.439C683.52 481.289 681.153 481.194 678.984 481.107C664.389 480.519 648.033 482.554 638.419 478.184C634.203 476.219 633.681 473.729 636.792 471.61C641.884 467.999 656.292 466.615 664.312 463.572C667.559 462.356 669.849 461.045 672.11 459.789C675.502 457.906 678.357 456.282 682.897 455.679C689.158 454.865 695.133 454.6 700.853 454.83C714.461 455.378 723.461 458.602 727.509 460.504C737.741 465.236 744.531 470.783 750.786 476.197C753.059 478.028 754.994 479.733 757.69 481.524C759.627 482.837 760.125 484.596 756.062 485.443C753.128 486.054 749.127 486.005 745.577 485.862C744.056 485.689 742.478 485.625 740.9 485.562Z" stroke="url(#paint4_linear_1256_7137)" stroke-miterlimit="10"/>
<path d="M730.991 478.655C729.609 478.992 727.522 479.132 725.522 479.108C722.929 479.06 720.479 478.737 718.029 478.414C707.243 477.082 696.032 476.182 684.368 475.769C678.451 475.531 672.281 475.395 666.39 475.494C662.558 475.508 656.185 476.15 654.756 474.633C653.27 473.227 661.225 471.864 664.639 471.103C669.661 469.959 675.558 468.681 680.527 466.861C684.763 465.292 686.237 463.612 689.881 462.02C691.463 461.298 693.777 460.718 696.68 460.554C700.627 460.32 704.541 460.926 707.129 461.76C712.474 463.49 716.32 466.17 719.691 468.213C723.82 470.736 727.526 473.297 731.626 475.875C732.834 476.653 734.013 477.486 732.628 478.216C732.148 478.365 731.668 478.514 730.991 478.655Z" stroke="url(#paint5_linear_1256_7137)" stroke-miterlimit="10"/>
<path d="M708.338 473.03C707.858 473.179 707.181 473.32 706.364 473.344C705.546 473.367 704.56 473.327 703.771 473.295C699.433 473.121 695.179 472.781 690.926 472.442C689.968 472.347 688.785 472.3 688.11 472.048C687.238 471.788 687.014 471.443 687.579 471.129C688.201 470.705 690.456 470.627 691.473 470.22C692.715 469.765 693.423 469.176 694.131 468.587C695.007 468.061 698.285 466.398 700.562 467.443C701.04 467.687 701.095 467.97 701.375 468.205C702.101 469.525 704.264 470.79 707.161 471.805C708.005 472.119 709.017 472.497 708.621 472.873C708.367 472.975 708.367 472.975 708.338 473.03Z" stroke="url(#paint6_linear_1256_7137)" stroke-miterlimit="10"/>
<path d="M846.828 507.666C834.241 505.926 822.192 503.533 810.707 501.219C788.637 496.796 778.913 502.353 773.839 507.871C770.465 511.663 770.021 515.629 773.072 519.455C775.814 523.1 787.716 526.553 786.794 530.275C786.277 532.05 784.01 534.483 790.121 535.122C795.078 535.658 799.482 534.152 803.63 533.141C812.124 531.126 824.354 531.225 835.319 530.657C854.966 529.652 873.39 525.568 877.027 520.103C880.267 515.016 865.442 510.211 846.828 507.666Z" stroke="url(#paint7_linear_1256_7137)" stroke-miterlimit="10"/>
<path d="M806.23 526.176C806.033 526.168 805.864 526.106 805.667 526.098C800.683 525.224 799.936 522.781 797.435 521.39C795.412 520.242 793.192 519.087 792.605 518.278C790.003 514.751 789.097 510.282 795.427 507.002C800.43 504.341 810.414 507.997 816.298 509.076C823.28 510.367 830.487 511.611 838.203 512.65C850.227 514.313 858.835 517.128 857.416 519.09C855.541 521.933 844.508 524.575 831.682 525.237C829.624 525.322 827.144 525.447 824.692 525.517C819.167 525.687 811.664 526.956 806.23 526.176Z" stroke="url(#paint8_linear_1256_7137)" stroke-miterlimit="10"/>
<path d="M811.826 523.147C807.433 522.69 808.23 521.151 806.319 520.177C804.886 519.446 802.723 518.18 802.359 517.717C801.156 516.153 800.572 514.559 800.609 512.933C800.725 512.321 800.539 510.349 803.105 510.06C805.671 509.77 815.661 512.249 818.083 512.626C824.953 513.745 831.992 514.926 838.862 516.044C842.212 516.571 845.703 517.217 846.374 518.254C846.961 519.063 845.52 519.902 843.403 520.491C841.286 521.079 838.495 521.415 835.534 521.689C830.205 522.26 824.933 522.721 819.52 523.064C817.011 523.244 814.333 523.361 811.855 523.093C812.024 523.155 812.024 523.155 811.826 523.147Z" stroke="url(#paint9_linear_1256_7137)" stroke-miterlimit="10"/>
<path d="M1209.82 540.733C1190.5 532.549 1180.02 520.906 1203.14 513.589C1214.49 509.949 1231.69 508.229 1246.44 505.793C1286.72 499.165 1313.09 485.19 1299.83 472.705C1286.37 460.212 1226.89 452.601 1188.24 459.967C1164.32 464.559 1156.91 468.75 1128.73 469.916C1107.33 470.794 1080.23 469.479 1066.48 475.434C1057.38 479.388 1056.95 486.048 1040.09 486.716C1035.36 486.919 1030.57 486.445 1026.23 485.878C985.568 480.819 964.246 468.347 929.401 460.604C916.565 457.787 900.825 455.527 884.534 455.881C868.216 456.291 852.358 460.085 853.404 464.672C854.395 468.976 868.385 471.896 878.569 475.167C899.076 481.827 904.747 491.089 921.898 498.4C937.867 505.27 962.95 510.095 982.531 516.213C1044.14 535.245 976.957 556.892 896.494 547.819C891.931 547.299 887.229 546.661 882.241 546.572C846.117 545.96 903.716 556.806 904.807 558.197C907.832 561.685 904.938 565.328 906.299 568.917C908.913 575.531 926.58 581.067 947.416 584.375C968.252 587.682 991.888 589.082 1015.27 590.584C1056.93 593.326 1092.41 599.86 1135.46 601.087C1173.95 602.187 1215.95 599.613 1242.93 591.834C1266.81 584.995 1275.89 574.476 1266.13 565.33C1256.09 555.949 1228.93 548.909 1209.82 540.733Z" stroke="url(#paint10_linear_1256_7137)" stroke-miterlimit="10"/>
<path d="M1148.51 595.721C1144.9 595.688 1141.29 595.655 1137.54 595.504C1115.51 594.898 1094.95 592.612 1073.24 590.223C1056.28 588.363 1038.96 586.431 1019.89 585.159L1015.81 584.882C994.565 583.523 974.507 582.211 957.388 579.502C939.509 576.706 928.005 572.484 926.366 568.266C925.059 564.959 920.434 560.285 928.54 557.076C940.683 552.29 962.115 554.836 978.584 552.581C996.351 550.154 1011.11 546.147 1019.34 541.148C1034.35 531.989 1026.41 521.29 997.598 512.387C989.608 509.934 980.912 507.676 972.751 505.552C959.778 502.225 947.537 499.039 938.793 495.321C932.383 492.538 927.581 489.371 922.498 485.968C915.198 481.018 907.561 475.941 893.776 471.459C891.188 470.625 888.572 469.847 885.955 469.068C880.018 467.314 873.716 465.49 873.385 464.186C873.137 463.11 879.43 461.455 886.363 461.285C887.181 461.262 888.195 461.247 888.984 461.279C897.213 461.329 906.844 462.558 917.146 464.825C929.615 467.571 940.445 471.148 951.81 474.86C970.404 480.939 989.674 487.269 1018.23 490.83C1022.96 491.414 1029.44 492.123 1037.08 492.15C1039.08 492.174 1041.11 492.144 1042.97 492.05C1065.99 491.125 1073.66 485.262 1078.13 481.683C1079.8 480.403 1081.53 479.014 1083.34 478.245C1088 476.244 1096.23 475.902 1114.27 475.674C1119.96 475.567 1125.85 475.467 1131.8 475.258C1157.11 474.2 1170.2 471.08 1182.81 468.109C1187.87 466.909 1193.14 465.663 1199.63 464.409C1206.57 463.061 1214.94 462.444 1224.38 462.487C1249.27 462.647 1273.98 467.794 1280.96 474.134C1285.84 478.707 1283.93 483.96 1275.5 488.951C1267.1 493.888 1253.22 498.154 1236.69 500.912C1232.96 501.491 1229.24 502.071 1225.1 502.69C1212.91 504.444 1199.18 506.472 1188.37 509.852C1168.61 516.127 1158.22 528.782 1193.37 543.718C1199.98 546.509 1207.09 549.096 1214.24 551.628C1228.33 556.683 1241.57 561.425 1247.43 566.822C1255.17 574.035 1247.77 582.49 1229.09 587.854C1210.46 593.108 1181.39 595.978 1148.51 595.721Z" stroke="url(#paint11_linear_1256_7137)" stroke-miterlimit="10"/>
<path d="M1145.04 590.363C1129.18 589.893 1113.37 588.528 1097.94 587.234C1063.07 584.203 1028.39 581.181 993.523 578.151C980.425 577.006 956.094 573.839 947.346 570.906C940.791 568.791 940.135 565.005 948.569 563.493C953.026 562.662 958.86 562.673 964.355 562.557C997.302 561.919 1025.4 555.475 1037.99 547.117C1052.78 537.22 1046.53 525.578 1028.46 516.154C1014.02 508.672 982.125 502.226 960.684 496.202C957.87 495.415 955.056 494.629 953.991 493.576C952.926 492.523 954.427 491.181 958.036 490.821C963.111 490.352 967.415 491.759 970.621 492.954C991.21 500.235 1031.61 501.525 1061.31 498.231C1079.04 496.251 1087.15 492.257 1101.12 489.004C1108.23 487.326 1116.86 486.215 1125.09 485.087C1147.6 482.065 1170.07 479.098 1192.38 476.068C1207.07 474.135 1224.42 472.139 1238.86 474.179C1252.35 476.125 1257.39 481.153 1253.26 485.251C1249.12 489.349 1237.61 492.532 1225.25 495.009C1212.89 497.485 1199.02 499.396 1186.83 501.935C1163.33 506.881 1146.8 514.296 1141.04 522.311C1135.47 530.335 1140.67 538.961 1155.76 545.964C1168.55 551.978 1188.03 556.745 1202.11 562.586C1216.23 568.372 1224.67 576.174 1212.8 582.373C1202.85 587.584 1180.91 590.292 1159.64 590.558C1155.01 590.54 1150 590.507 1145.04 590.363Z" stroke="url(#paint12_linear_1256_7137)" stroke-miterlimit="10"/>
<path d="M1172.1 582.812C1165.14 582.644 1158.33 582.202 1151.54 581.704C1110.78 578.773 1070.18 575.906 1029.42 572.975C1024.94 572.682 1020.13 572.264 1017.88 571.164C1015.12 569.875 1017.25 568.108 1021.2 567.089C1025.15 566.07 1030.45 565.554 1035.41 564.912C1085.1 558.776 1099.81 542.816 1091.46 529.014C1089.28 525.447 1085.66 521.935 1080.78 518.54C1076.54 515.452 1043.15 509.171 1073.21 506.734C1078.9 506.233 1085.04 506.424 1091.16 506.278C1109.17 505.712 1120.08 500.596 1132.52 497.562C1145.41 494.434 1160.7 492.131 1176.04 490.112C1189.44 488.35 1211.2 487.15 1221.87 484.437C1225.11 483.614 1228.02 482.665 1231.91 482.148C1235.8 481.631 1241.35 481.799 1243.43 482.836C1244.87 483.567 1244.16 484.549 1242.38 485.262C1240.6 485.976 1237.92 486.486 1235.27 486.94C1211.01 491.406 1184.41 495.33 1165.13 501.455C1147.35 507.024 1134.91 513.93 1129.71 521.239C1122.73 531.226 1129.4 542.043 1148.04 550.76C1156.47 554.69 1166.46 557.954 1176.11 561.091C1183.17 563.395 1189.73 565.511 1195.21 567.751C1206.65 572.476 1213.97 580.12 1187.86 582.324C1182.95 582.856 1177.46 582.972 1172.1 582.812Z" stroke="url(#paint13_linear_1256_7137)" stroke-miterlimit="10"/>
<path d="M1172.27 573.953C1167.45 573.927 1161.84 573.477 1158.46 573.398C1141.98 572.959 1125.66 572.583 1109.18 572.144C1096.87 571.817 1082.38 571.795 1070.75 570.541C1066.75 570.1 1063.29 569.007 1063.72 567.79C1064.18 566.518 1070.16 565.468 1073.06 564.519C1077.72 562.911 1082.02 561.232 1085.74 559.474C1092.13 556.477 1096.8 553.298 1100.93 549.986C1103.36 548.008 1108.27 542.819 1118.07 542.933C1131.12 543.009 1128.65 550.877 1133.49 553.204C1144.03 558.509 1158.6 563.416 1173.23 567.82C1176.72 568.858 1180.18 569.951 1181.07 571.334C1182.58 573.47 1177.87 574.01 1172.27 573.953Z" stroke="url(#paint14_linear_1256_7137)" stroke-miterlimit="10"/>
<path d="M1166.74 570.252C1165.66 570.77 1162.81 570.824 1160.45 570.728C1146.56 570.338 1132.47 569.939 1118.58 569.549C1107.67 569.222 1095.89 569.814 1084.82 569.032C1077.44 568.51 1078.12 567.977 1081.62 566.266C1084.31 564.971 1087.53 563.81 1090.38 562.579C1095.12 560.413 1099.34 558.114 1102.96 555.791C1105.36 554.26 1107.07 550.57 1113.78 550.054C1121.59 549.359 1124.78 552.91 1126.86 554.34C1134.72 559.762 1147.52 564.597 1163.7 568.334C1165.67 568.806 1168.12 569.522 1166.74 570.252ZM1166.74 570.252C1166.76 570.197 1166.76 570.197 1166.74 570.252Z" stroke="url(#paint15_linear_1256_7137)" stroke-miterlimit="10"/>
<path d="M1127.22 565.296C1121.65 565.183 1106.96 566.332 1102.85 564.932C1098.24 563.344 1105.72 560.952 1109.13 559.799C1116.67 557.296 1121.5 561.194 1125.69 562.821C1127.04 563.324 1133.37 565.487 1127.22 565.296Z" stroke="url(#paint16_linear_1256_7137)" stroke-miterlimit="10"/>
<path d="M1105.98 524.323C1096.5 525.12 1100.82 519.121 1097.14 516.505C1094.81 514.784 1080.78 515.061 1085.84 511.898C1090.7 508.727 1089.28 511.868 1091.14 511.774C1106.07 511.31 1114.76 505.431 1125.74 506.771C1136.72 508.11 1111.55 515.513 1108.28 520.263C1107.17 521.622 1115.45 523.526 1105.98 524.323Z" stroke="url(#paint17_linear_1256_7137)" stroke-miterlimit="10"/>
<path d="M1298.38 557.089L1298.15 557.136C1294.79 557.787 1293.35 559.019 1293.17 560.134C1292.65 564.265 1300.54 568.847 1303.93 572.799C1307.96 577.45 1311.15 582.179 1313.55 586.876C1318.57 596.617 1325.46 608.957 1315.43 618.597C1313.33 620.701 1311.04 623.189 1315.79 624.896C1321.25 626.799 1331.65 626.544 1340.11 625.762C1359.53 624.019 1371.7 620.749 1386.82 617.206C1402.65 613.466 1423.57 611.166 1441.54 608.354C1449.21 607.148 1457.96 605.424 1456.81 602.965C1455.81 600.624 1446.32 599.513 1438.32 598.63C1376.11 591.638 1352.26 573.172 1314.82 559.154C1311.31 557.778 1305.32 555.742 1298.38 557.089Z" stroke="url(#paint18_linear_1256_7137)" stroke-miterlimit="10"/>
<path d="M1325.49 619.395C1325.44 617.934 1327.87 616.349 1328.56 615.029C1330.15 611.952 1330.73 608.889 1330.52 605.795C1330.22 599.779 1327.07 593.817 1324.08 587.917L1323.39 586.543C1320.23 580.581 1315.78 574.791 1309.93 569C1309.42 568.419 1308.78 567.72 1310.22 567.273C1315.24 565.736 1332.34 571.586 1334.42 572.623C1346.82 578.228 1359.39 583.896 1374.92 588.897C1392.16 594.472 1411.22 597.708 1434.03 601.094C1436.84 601.488 1439.32 602.149 1440.27 603.029C1441.62 604.318 1438.85 605.777 1434.82 606.569C1427.62 608.019 1416.94 608.823 1409.07 610.021C1399.03 611.525 1389.13 613.146 1380.21 615.2C1378.38 615.631 1376.77 616.016 1374.94 616.447C1366.22 618.509 1355.18 621.543 1344.33 622.677C1339 623.249 1332.23 623.089 1328.41 621.925C1326.24 621.052 1325.66 620.243 1325.49 619.395Z" stroke="url(#paint19_linear_1256_7137)" stroke-miterlimit="10"/>
<path d="M1340.19 610.055C1337.66 609.505 1336.74 608.177 1336.54 607.384C1336.25 604.847 1342.63 602.635 1342.53 600.106C1342.16 594.986 1333.37 590.199 1330.55 585.148C1330.13 584.402 1329.71 583.656 1330.28 582.949C1330.65 582.235 1332.03 581.505 1334.26 581.089C1342.87 579.64 1348.28 583.561 1350.73 585.062C1355.33 587.829 1363.21 590.11 1371.94 591.919C1379.93 593.588 1388.86 594.62 1397.17 596.077C1402.88 597.092 1404.11 598.993 1396.53 599.642C1387.25 600.447 1379.24 601.135 1371.18 602.718C1367.59 603.415 1364.15 604.23 1360.91 605.054C1357.86 605.885 1355.4 607.133 1352.01 607.838C1350.01 608.599 1346.05 610.403 1342.08 610.3C1341.52 610.221 1340.76 610.134 1340.19 610.055Z" stroke="url(#paint20_linear_1256_7137)" stroke-miterlimit="10"/>
<path d="M1473.79 262.455C1463.4 255.304 1443.85 249.523 1422.88 244.528C1313.62 218.361 1162.99 209.494 1019.01 209.536C988.804 209.555 957.775 209.989 930.533 213.606C897.651 218.006 873.563 227.192 868.324 237.305C859.095 255.506 931.393 268.29 920.199 285.233C913.265 295.895 887.148 305.112 892.751 316.447C895.621 322.566 911.794 328.267 907.816 334.391C903.296 341.559 874.391 345.277 860.718 351.46C831.197 364.916 880.573 385.026 845.028 397.286C834.017 401.051 817.493 403.024 804.034 406.073C790.575 409.122 780.007 414.364 787.847 418.663C801.783 426.35 846.478 420.91 873.792 424.927C893.981 427.928 899.717 435.509 918.042 439.388C939.068 443.881 971.486 441.931 989.579 436.544C1007.64 431.211 1013.89 423.439 1014.07 416.096C1014.24 409.931 1010.47 403.607 999.565 398.231C982.223 389.734 946.247 382.619 951.879 372.915C957.086 363.642 999.244 358.437 1003.27 349.117C1007.38 340.024 972.898 331.96 978.751 322.994C981.165 319.5 989.58 316.472 999.765 314.301C1043.8 305.076 1107.26 311.613 1152.19 320.491C1197.12 329.368 1241.3 340.853 1296.22 341.323C1345.93 341.753 1394.34 331.469 1405.94 318.021C1412.43 310.539 1409.12 302.158 1424.69 295.827C1435.87 291.34 1454.74 288.732 1466.65 284.387C1483.48 278.331 1484.18 269.606 1473.79 262.455Z" stroke="url(#paint21_linear_1256_7137)" stroke-miterlimit="10"/>
<path d="M946.717 436.502C942.378 436.327 938.773 435.901 935.677 435.272C930.244 434.099 925.662 432.063 920.742 429.902C913.039 426.506 904.38 422.623 888.668 420.307C881.938 419.307 874.417 418.668 865.345 418.302C856.47 417.945 847.819 417.934 839.365 417.93C832.517 417.935 825.895 417.893 820.57 417.679C812.681 417.362 811.754 416.819 811.136 416.458C808.944 415.247 814.201 412.485 822.186 410.674C826.305 409.718 831.185 408.848 836.291 407.932C846.276 406.145 857.39 404.124 866.227 401.057C890.225 392.821 884.87 382.562 880.129 373.45C876.42 366.231 872.906 359.413 883.443 354.619C887.426 352.759 894.171 351.01 901.17 349.16C914.236 345.702 929.165 341.758 933.143 335.634C936.44 330.436 930.321 325.926 924.735 321.942C921.816 319.805 919.037 317.785 918.173 315.955C915.442 310.346 922.768 305.143 931.086 299.193C936.771 295.214 942.571 291.015 945.526 286.477C952.346 276.034 934.189 267.168 918.141 259.284C903.694 252.194 890.035 245.529 893.794 238.274C898.037 230.085 918.115 222.42 944.934 218.842C969.158 215.609 998.89 215.347 1024.87 215.326C1067.17 215.289 1108.23 216.099 1146.88 217.655C1256.93 222.083 1347.31 232.621 1415.75 248.954C1430.61 252.525 1451.32 258.016 1461.12 264.75C1469.71 270.707 1467.96 277.201 1456.61 281.233C1452.37 282.802 1446.22 284.181 1439.59 285.71C1430.93 287.662 1421.31 289.912 1413.91 292.924C1400.89 298.236 1398.29 304.415 1396.09 309.825C1394.98 312.362 1394.15 314.741 1392.19 316.963C1382.75 327.804 1342.46 336.395 1302.39 336.017C1298.78 335.984 1295.21 335.896 1291.66 335.753C1256.75 334.348 1225.67 327.88 1192.77 321.057C1185.14 319.459 1177.14 317.791 1169.09 316.233C1138.6 310.181 1105.26 306.146 1075.48 304.947C1044.12 303.686 1015.62 305.456 993.475 310.12C978.099 313.373 967.846 317.617 964.863 322.21C960.545 328.601 970.181 334.095 978.524 338.975C984.733 342.535 990.435 345.907 989.18 348.718C987.84 351.694 978.948 354.478 968.419 357.701C955.716 361.623 941.32 366.093 937.905 372.296C932.812 381.349 952.445 388.142 969.659 394.165C976.635 396.634 983.301 398.922 987.938 401.241C995.948 405.211 999.979 410.254 999.862 416.309C999.834 421.414 996.415 428.402 980.947 432.998C972.198 435.507 958.156 436.962 946.717 436.502Z" stroke="url(#paint22_linear_1256_7137)" stroke-miterlimit="10"/>
<path d="M944.56 434.058C940.224 433.491 937.583 431.982 934.462 430.622C927.743 427.659 920.995 424.75 911.991 422.312C899.3 418.827 887.386 417.731 870.569 416.381C866.513 416.049 862.091 415.647 859.785 414.656C857.002 413.422 858.476 411.742 861.864 410.644C868.611 408.503 875.518 407.995 880.915 405.351C887.611 402.142 891.8 398.719 893.313 395.021C896.397 387.514 890.041 379.964 886.22 372.573C883.154 366.446 888.287 360.424 894.615 357.537C897.242 356.352 903.31 354.745 909.377 353.137C919.17 350.558 924.292 346.5 933.241 343.605C940.496 341.26 952.932 339.797 958.549 343.333C964.475 347.05 952.313 349.928 944.41 352.359C929.279 357.08 920.82 363.304 916.066 372.09C911.514 380.099 915.999 389.706 933.858 396.428C949.382 402.215 965.216 408.182 970.334 415.401C973.689 420.194 974.559 431.338 954.763 433.796C950.42 434.406 947.207 434.389 944.56 434.058Z" stroke="url(#paint23_linear_1256_7137)" stroke-miterlimit="10"/>
<path d="M949.875 425.744C940.016 424.954 933.531 420.373 926.131 418.336C917.492 415.968 891.093 414.85 892.131 410.515C892.391 409.235 902.392 404.7 904.795 403.169C908.698 400.689 912.655 398.492 923.268 400.546C938.638 403.521 947.274 411.724 950.629 416.516C952.727 419.462 954.906 423.028 949.875 425.744Z" stroke="url(#paint24_linear_1256_7137)" stroke-miterlimit="10"/>
<path d="M1060.18 461.939C1031.19 460.773 1016.25 454.617 1016.93 449.426C1017.25 446.858 1020.85 444.59 1023.42 443.123C1030.8 438.987 1041.41 435.206 1051.75 431.582C1069.25 425.385 1085.77 419.541 1083.44 412.771C1081.55 407.477 1068.58 402.971 1054.72 398.261C1051.65 397.184 1048.39 396.099 1045.15 394.959C1020.91 386.184 1015.49 377.213 1030.83 370.929C1035.46 368.983 1041.64 367.549 1047.39 366.153C1054.53 364.421 1060.94 362.939 1062.75 360.992C1064.17 359.422 1062.71 357.568 1061.12 355.596C1060.33 354.779 1059.77 353.915 1059.24 352.996C1054.8 345.635 1065.33 338.147 1085.02 334.339C1093.73 332.67 1103.54 331.998 1114.19 332.427C1135.1 333.268 1155.36 338.067 1174.92 342.67C1188.21 345.785 1200.76 348.759 1211.41 349.973C1217.49 350.667 1223.97 351.376 1230.08 352.015C1253.15 354.514 1277.17 357.108 1297.72 361.358C1316.97 365.387 1336.15 373.06 1347.32 381.42C1368.26 396.963 1357.79 410.176 1320 415.894C1297.26 419.355 1270.84 418.292 1247.34 417.402C1244.78 417.299 1242.41 417.204 1239.84 417.101C1209.81 416.004 1189.43 417.26 1178.9 420.876C1173.99 422.586 1171.15 424.941 1168.3 427.351L1167.9 427.728C1158.3 435.758 1148.57 442.099 1137.3 447.537C1120.69 455.509 1101.98 460.143 1079.85 461.665C1073.56 462.141 1066.88 462.209 1060.18 461.939Z" stroke="url(#paint25_linear_1256_7137)" stroke-miterlimit="10"/>
<path d="M1335.42 383.411C1324.64 375.459 1306.81 368.289 1289.19 364.606C1264.28 359.452 1233.83 356.824 1204.93 353.529C1169.95 349.54 1124.18 330.641 1088.15 337.608C1070.47 341.048 1062.82 347.642 1066.4 353.565C1068.24 356.613 1072.68 359.709 1069.9 362.739C1065.48 367.387 1046.25 369.53 1036.53 373.516C1021.42 379.753 1034.11 388.287 1050.54 394.278C1066.96 400.27 1088.15 406.004 1090.7 413.513C1094.84 425.742 1049.31 434.346 1029.69 445.396C1026.83 447.02 1024.51 448.778 1024.19 450.561C1023.2 457.142 1051.89 461.607 1074.87 460.006C1097.84 458.406 1114.19 452.892 1126 447.195C1138.6 441.138 1147.85 434.552 1155.92 427.92C1159.15 425.188 1162.21 422.393 1168.78 420.189C1184.51 414.706 1213.82 414.483 1238.73 415.373C1263.6 416.318 1290.62 417.798 1312.68 414.477C1351.77 408.588 1351.44 395.221 1335.42 383.411Z" stroke="url(#paint26_linear_1256_7137)" stroke-miterlimit="10"/>
<path d="M1064.45 453.695C1055.97 453.354 1046.59 451.63 1046.77 449.73C1046.94 449.007 1048.05 448.042 1050.28 446.841C1056.27 443.435 1065.59 440.219 1075.25 436.736C1094.7 429.888 1116.86 422.083 1113.26 411.951C1110.65 404.159 1093.21 398.183 1077.99 392.97C1074.93 391.893 1071.83 390.871 1068.93 389.856C1057.26 385.571 1046.62 379.308 1055.6 375.573C1057.91 374.6 1062.29 373.542 1066.89 372.436C1076.08 370.226 1087.34 367.537 1091.65 363.109C1094.88 359.592 1092.34 356.348 1090.26 353.739C1089.65 352.985 1089 352.286 1088.73 351.658C1086.24 347.518 1091.7 343.193 1102.2 341.202C1104.65 340.74 1106.93 340.608 1110.09 340.734C1122.51 341.234 1140.08 345.42 1155.89 349.086C1170.95 352.666 1185.33 355.994 1200.15 357.712C1206.62 358.422 1213.1 359.131 1219.38 359.833C1241.69 362.245 1262.67 364.492 1280.12 368.112C1294.85 371.173 1310.45 377.581 1319.6 384.401C1327.04 389.862 1329.91 395.196 1327.72 399.428C1325.47 403.77 1318.49 406.744 1306.03 408.655C1291.84 410.777 1272.49 410.054 1251.78 409.221C1249.21 409.118 1246.65 409.015 1244.09 408.912C1203.01 407.371 1173.4 409.714 1155.98 415.746C1147.63 418.664 1143.72 421.93 1140.21 424.818L1139.81 425.195C1130.9 432.692 1121.85 438.499 1111.62 443.474C1099.53 449.328 1086.46 452.786 1072.9 453.699C1070.22 453.815 1067.4 453.814 1064.45 453.695Z" stroke="url(#paint27_linear_1256_7137)" stroke-miterlimit="10"/>
<path d="M1144.78 403.176C1126.5 401.15 1126.03 394.286 1115.29 390.15C1106.04 386.636 1087.04 383.29 1086.86 378.57C1086.75 372.955 1113.77 368.6 1116.91 362.161C1118.59 358.918 1123.34 355.182 1134.59 354.457C1151.22 353.443 1174.09 361.376 1189.5 363.118C1196.14 363.891 1202.82 364.608 1209.13 365.255C1230.48 367.573 1248.58 369.536 1262.77 372.463C1281.12 376.288 1312.36 390.618 1294.71 396.697C1287.85 399.058 1276.09 399.987 1265.13 399.771C1240.62 399.289 1225.83 397.516 1200.1 399.005C1183.3 399.956 1165.09 404.779 1147.29 403.389C1146.7 403.365 1145.74 403.27 1144.78 403.176Z" stroke="url(#paint28_linear_1256_7137)" stroke-miterlimit="10"/>
<path d="M1155.33 394.848C1145.76 394.294 1145.1 391.294 1142.23 389.046C1138.36 386.029 1131.98 383.191 1122.97 381.146C1116.84 379.777 1110.34 377.944 1111.08 375.73C1111.4 374.732 1113.09 373.791 1114.96 372.912C1122.36 369.114 1129.77 365.316 1137.17 361.518C1145.65 357.202 1156.34 359.484 1166.19 361.844C1181.03 365.471 1198.99 367.316 1217.13 369.224C1244.59 372.181 1268.86 376.636 1280.03 384.604C1282.84 386.569 1282.15 389.066 1276.59 390.469C1268.44 392.61 1255.54 391.474 1244.66 390.699C1223.28 389.222 1199.94 389.966 1180.2 392.706C1173.26 393.662 1166.16 394.947 1158.35 394.857C1157.11 394.919 1156.12 394.88 1155.33 394.848Z" stroke="url(#paint29_linear_1256_7137)" stroke-miterlimit="10"/>
<path d="M1170.5 383.451C1161.58 382.418 1155.36 380.036 1149.68 377.788C1144.84 375.854 1139.87 373.802 1138.27 371.437C1132.26 362.442 1162.34 365.785 1178.48 367.669C1195.18 369.631 1212.81 371.351 1228.07 374.153C1232.29 374.94 1244.77 376.901 1242.25 378.651C1240.01 380.244 1207.03 382.115 1200.69 382.702C1191.78 383.578 1182.08 384.422 1173.01 383.664C1172.22 383.632 1171.26 383.538 1170.5 383.451Z" stroke="url(#paint30_linear_1256_7137)" stroke-miterlimit="10"/>
<path d="M1649.08 360.908C1644.36 351.741 1637.62 342.605 1626.03 333.89C1617.95 327.73 1606.79 321.67 1589.06 317.422C1572.77 313.512 1552.12 311.39 1532.07 309.293C1470.7 303.008 1478.04 330.797 1458.81 339.168C1443.16 346.057 1416.87 350.947 1388.11 352.427C1377.57 352.956 1366.44 353.069 1357.19 354.605C1347.94 356.14 1342.39 359.845 1349.03 362.188C1351.56 363.131 1355.73 363.636 1359.22 364.281C1378.65 367.98 1381.14 375.599 1378.99 382.077C1376.84 388.556 1372.01 395.543 1382.89 401.367C1389.66 405.006 1402.13 407.752 1407.38 411.61C1416.61 418.266 1401.89 425.697 1404.67 432.767C1407.09 438.98 1426.84 444.768 1449.36 444.44C1478.81 443.942 1494.73 434.595 1499.14 426.468C1503.55 418.342 1504.47 409.177 1525.89 403.587C1550.81 397.071 1592.34 398.518 1620.19 392.961C1637.23 389.607 1647.01 383.941 1650.56 378.249C1654.14 372.502 1651.95 366.634 1649.08 360.908Z" stroke="url(#paint31_linear_1256_7137)" stroke-miterlimit="10"/>
<path d="M1443.79 441.579C1429.4 441 1416.43 436.887 1414.51 432.433C1413.45 429.81 1415.3 427.023 1417.23 424.071C1420.13 419.642 1422.89 415.096 1416.6 410.523C1413.06 408.024 1407.46 406.003 1401.81 404.093C1397.9 402.701 1394.13 401.427 1391.63 400.036C1383.76 395.792 1385.68 390.539 1387.74 385.011C1388.02 384.068 1388.48 383.189 1388.74 382.302C1391.95 372.612 1383.73 365.548 1364.67 361.92C1363.57 361.707 1362.45 361.55 1361.55 361.345C1359.52 360.983 1357.66 360.684 1356.82 360.369C1356.65 360.306 1355.8 359.992 1356.15 359.332C1356.83 358.406 1359.37 357.386 1362.25 356.885C1367.55 355.976 1374.74 355.704 1382.35 355.393C1384.83 355.268 1387.28 355.199 1389.76 355.074C1420.99 353.469 1449.96 348.071 1467.14 340.57C1473.92 337.588 1477.49 333.019 1481.24 328.12C1489.67 317.294 1496.95 310.237 1519.43 311.141C1522.19 311.252 1525.29 311.489 1528.36 311.781C1547.48 313.729 1567.17 315.756 1582.4 319.398C1596.19 322.702 1606.96 327.568 1616.53 334.742C1626.35 342.207 1633.49 350.574 1639.07 361.179C1641.69 366.222 1644.08 372.097 1640.78 377.688C1637.29 383.27 1627.79 387.994 1614.36 390.595C1602.94 392.829 1588.53 393.82 1573.11 394.827C1553.94 396.075 1534.13 397.41 1518.94 401.456C1498.23 406.85 1494.41 415.001 1491.1 422.162C1490.42 423.481 1489.96 424.753 1489.14 425.954C1485.04 433.476 1470.96 441.214 1448.64 441.55C1447.15 441.714 1445.37 441.643 1443.79 441.579Z" stroke="url(#paint32_linear_1256_7137)" stroke-miterlimit="10"/>
<path d="M1436.13 431.9C1433.99 431.366 1432.58 430.58 1432.19 429.778C1431.38 428.231 1433.84 426.591 1434.81 425.115C1438.02 420.082 1442.06 413.848 1432.65 407.129C1424.03 400.835 1404.97 397.992 1404.98 390.586C1404.92 386.039 1408.33 381.407 1404.38 376.984C1400.79 373.024 1391.01 369.376 1392.13 365.269C1393.45 359.992 1411.99 356.474 1429.19 354.36C1447.88 352.083 1465.03 350.08 1477.51 345.42C1492 339.999 1498.06 333.342 1498.89 326.698C1499.1 324.743 1498.94 322.717 1502.61 321.069C1513.6 316.181 1536.4 320.745 1546.76 323.294C1559.08 326.315 1566.8 332.012 1573.35 336.091C1588.88 345.749 1598.38 356.175 1600.74 366.762C1601.87 371.577 1601.19 376.768 1590.92 380.674C1578.12 385.546 1554.67 386.903 1533.64 388.245C1507.2 389.93 1490.75 392.915 1474.38 398.877C1457.49 405.043 1453.05 413.224 1449.6 420.66C1448.2 424.138 1444.17 429.194 1436.13 431.9Z" stroke="url(#paint33_linear_1256_7137)" stroke-miterlimit="10"/>
<path d="M1445.43 404.221C1439.12 404.36 1435.28 401.287 1431.85 399.747C1428.14 397.97 1425.1 396.053 1425.2 393.924C1425.26 392.636 1425.55 391.301 1425.87 389.912C1426.59 386.574 1427.51 382.852 1424.07 379.01C1422.41 377.148 1419.86 375.474 1417.61 373.981C1414.75 372.127 1412.05 370.335 1412.51 369.063C1412.97 367.005 1422.43 364.693 1437.71 362.783L1440.3 362.438C1459.23 360.114 1478.99 357.711 1494.02 352.031C1509.72 346.211 1512.49 338.523 1517.32 331.536C1518 330.609 1518.94 329.581 1522.01 329.088C1524.41 328.735 1527.37 328.854 1529.56 329.279C1531.79 329.649 1533.47 330.278 1535.16 330.907C1563.62 342.04 1578.19 357.046 1581.28 370.524C1582.13 373.925 1582.14 378.189 1575.13 380.825C1567.09 383.924 1548.79 385.039 1531.09 386.178L1529.42 386.28C1512.57 387.341 1496.52 389.164 1482.92 392.095C1474.54 393.89 1467.77 396.086 1461.53 398.416C1457.26 400.04 1455.22 402.427 1449.52 403.712C1448.14 404.049 1446.64 404.214 1445.43 404.221Z" stroke="url(#paint34_linear_1256_7137)" stroke-miterlimit="10"/>
<path d="M1449.86 398.396C1447.8 398.481 1446.14 397.797 1446.18 395.779C1446.16 394.656 1446.42 393.376 1446.71 392.041C1447.95 386.536 1448.12 380.764 1439.08 375.687C1436.89 374.477 1434.78 373.101 1435.46 371.782C1436.43 369.521 1445.48 369.156 1451.71 368.396C1471.51 365.939 1494.07 363.2 1511.8 356.563C1521.8 352.813 1527.99 348.237 1529.79 343.597C1530.14 342.544 1530.77 341.335 1534.21 340.913C1537.19 340.584 1540.57 341.057 1542.4 341.803C1548.47 344.46 1552.03 348.475 1555.68 351.539C1562.08 356.678 1566.98 361.981 1570.02 367.378C1572.06 370.827 1573.2 374.463 1568.3 377.689C1560.44 382.759 1545.14 383.153 1528.25 383.876C1511.17 384.592 1492.16 387.474 1478.56 390.405C1472.89 391.636 1467.92 393.063 1463.32 394.561C1459.96 395.604 1453.75 398.272 1449.86 398.396Z" stroke="url(#paint35_linear_1256_7137)" stroke-miterlimit="10"/>
<path d="M1461.88 384.908C1461.09 384.876 1460.56 384.743 1460.02 384.609C1455.18 383.46 1457.25 380.233 1456.25 378.678C1454.77 376.486 1450.35 374.513 1449.27 372.337C1448.18 370.161 1456.01 370.196 1461.85 369.421C1466.19 368.81 1470.73 368.207 1474.91 367.534C1497.64 364.072 1519.42 359.338 1528.84 352.423C1529.49 351.944 1530.17 351.41 1531.92 351.144C1535.64 350.564 1537.21 352.199 1538.08 352.851C1540.47 354.462 1541.17 356.229 1542.71 357.918C1545.31 360.66 1547.47 363.496 1549.03 366.308C1550.98 369.529 1553.76 373.119 1543.85 375.526C1536.23 377.408 1525.07 377.576 1515.12 378.129C1502.46 378.854 1490.42 380.334 1480.07 382.442C1476.29 383.131 1467.48 385.358 1461.88 384.908Z" stroke="url(#paint36_linear_1256_7137)" stroke-miterlimit="10"/>
<path d="M1463.31 375.932C1463.08 375.979 1462.66 376.018 1462.43 376.065C1461.56 376.199 1460.52 376.269 1459.78 376.127C1458.86 375.978 1458.83 375.64 1459 375.31C1459.43 374.486 1460.08 373.614 1461.83 372.955C1464.85 371.786 1468.99 372.346 1472.91 371.774C1481.88 370.396 1488.85 368.207 1496.16 366.145C1500.62 364.922 1510.59 361.62 1518.1 363.044C1519.57 363.328 1520.5 363.87 1520.44 364.372C1520.23 365.542 1517.21 366.319 1518.33 367.654C1518.81 368.291 1519.9 368.896 1519.96 369.571C1519.84 370.184 1518.74 370.757 1516.96 371.078C1514.31 371.532 1509.49 371.507 1506.39 371.662C1504.33 371.748 1502.05 371.88 1499.99 371.966C1486.74 372.667 1475.21 374.335 1463.31 375.932Z" stroke="url(#paint37_linear_1256_7137)" stroke-miterlimit="10"/>
<path d="M1503.06 461.638C1495.18 455.486 1476.27 449.619 1454.07 448.95C1437.81 448.464 1421.03 450.146 1405.37 448.898C1382.92 447.153 1371.32 440.402 1354.74 435.864C1327.59 428.431 1286.51 426.89 1248.44 426.537C1241.03 426.463 1232.29 426.616 1228.17 428.358C1224.84 429.739 1225.9 431.577 1227.69 433.164C1234.17 438.923 1248.71 443.885 1267.27 446.932C1283.8 449.617 1302.92 450.779 1319.17 453.621C1351.6 459.415 1364.81 471.617 1355.57 482.074C1346.35 492.476 1318.15 501.048 1285.12 506.508C1265.55 509.704 1241.52 512.945 1237.49 519.179C1235.35 522.516 1240.24 525.911 1247.95 528.521C1255.65 531.132 1265.96 533.005 1276.38 534.659C1285.3 536.084 1295.38 537.612 1299 540.339C1302.31 542.885 1298.78 545.828 1301.04 548.444C1303.87 551.532 1313.87 553.617 1323.66 555.302C1333.26 556.979 1344.3 558.601 1355.66 558.048C1363.1 557.675 1369.56 556.476 1375.46 555.198C1400.82 549.766 1423.49 542.935 1433.12 534.458C1438.89 529.528 1439.99 524.298 1442.44 519.179C1448.11 507.456 1461.08 496.027 1480.64 485.48C1491.24 479.791 1507.08 474.088 1507.09 467.467C1506.84 465.606 1505.47 463.587 1503.06 461.638Z" stroke="url(#paint38_linear_1256_7137)" stroke-miterlimit="10"/>
<path d="M1349.44 552.187C1345.16 552.295 1341.04 552.073 1337.07 551.577C1328.6 550.45 1322.16 548.115 1320.28 545.515C1319.28 543.96 1319.68 542.405 1319.29 540.818C1318.19 535.556 1301.58 532.25 1286.49 529.904L1285.76 529.762C1277.76 528.486 1268.9 526.951 1262.9 524.915C1258.29 523.326 1255.85 521.433 1256.79 520.012C1258.55 516.997 1273.7 514.576 1288.42 512.195C1290.62 511.835 1292.79 511.529 1294.79 511.161C1335.75 504.393 1364.77 494.227 1374.5 483.228C1386.29 469.788 1367.86 455.636 1329.51 448.819C1319.38 447.009 1308.9 445.858 1298.79 444.777C1290.99 443.902 1283.35 443.09 1277.05 442.051C1270.38 440.941 1265.14 439.384 1260.39 437.678C1254.59 435.649 1240.19 431.59 1256.09 430.828C1261.24 430.586 1267.69 431.351 1272.23 431.926C1295.66 434.889 1320.54 434.263 1340.47 439.722C1344.88 440.909 1348.96 442.364 1353.41 443.889C1365.02 447.892 1377.96 452.452 1399.82 454.173C1402.33 454.386 1404.89 454.49 1407.65 454.601C1417.32 454.99 1426.7 454.75 1434.88 454.518C1440.99 454.371 1446.91 454.217 1451.87 454.36C1452.07 454.368 1452.26 454.376 1452.66 454.392C1464.89 454.884 1478.39 458.738 1484.43 463.413C1486.31 464.835 1487.23 466.163 1487.19 467.396C1487.12 471.433 1478.84 475.364 1471.3 478.651C1461.97 482.652 1454.51 486.953 1448.18 491.411C1435.95 500.233 1428.89 509.599 1422.86 518.895C1418.46 525.844 1414.16 532.965 1402.86 539.243C1394.55 543.622 1371.42 551.725 1349.44 552.187Z" stroke="url(#paint39_linear_1256_7137)" stroke-miterlimit="10"/>
<path d="M1345.34 549.216C1343.17 549.129 1341.26 548.94 1339.2 548.633C1333.82 547.743 1330.45 546.092 1329.33 544.364C1327.52 541.654 1329.95 539.283 1325.85 536.705C1322.17 534.481 1316.52 532.571 1309.91 530.958C1299.13 528.448 1284.25 527.232 1274.35 524.59C1269.93 523.402 1267.04 521.602 1268.91 519.938C1270.72 518.384 1276.08 517.365 1281.27 516.676C1328.84 510.343 1371.34 498.643 1384.33 484.073C1397.15 469.439 1376.94 454.038 1335.1 446.575C1324.24 444.623 1313.37 443.456 1302.69 442.297C1295.06 441.485 1288.02 440.697 1282.27 439.736C1278.75 439.146 1266.51 437.138 1267.47 435.662C1269.04 433.032 1291.34 436.622 1295.98 436.978C1310.58 437.958 1323 438.85 1333.78 441.753C1337.66 442.807 1341.77 444.206 1345.85 445.661C1357.8 449.789 1372.45 454.923 1397.21 456.874C1400.12 457.103 1403.05 457.277 1406.2 457.404C1417.05 457.84 1427.45 457.585 1435.62 457.353C1441.34 457.191 1446.64 457.067 1450.62 457.171L1451.01 457.187C1458.5 457.488 1469.65 460.462 1474.87 464.375C1476.33 465.443 1476.97 466.535 1476.94 467.376C1476.86 470.627 1469.43 474.087 1462.62 477.124C1453.3 481.125 1445.33 485.63 1438.66 490.355C1426.1 499.444 1418.83 509.195 1412.89 518.326L1412.15 519.362C1408.06 525.706 1403.85 532.27 1393.68 537.92C1386.95 541.577 1374.55 546.072 1361.58 548.186C1356.7 549.056 1350.86 549.439 1345.34 549.216Z" stroke="url(#paint40_linear_1256_7137)" stroke-miterlimit="10"/>
<path d="M1350.93 542.708C1346.37 542.188 1348.19 539.063 1346.62 537.429C1344.49 535.323 1341.32 533.288 1337.24 531.44C1328.69 527.73 1315.89 524.858 1300.62 523.627C1297.52 523.39 1294.06 523.082 1292.85 522.304C1291.33 521.345 1293.87 520.325 1296.27 519.58C1310.78 514.89 1328.08 511.041 1344.84 507.059C1361.6 503.076 1378.11 498.803 1389.86 493.609C1401.61 488.415 1408.52 482.072 1404.41 476.015C1402.82 473.651 1399.59 471.333 1398 468.968C1393.55 461.608 1414.34 463.061 1433.17 462.865C1440.05 462.805 1448.08 462.848 1452.8 464.216C1456.66 465.325 1457.35 467.092 1455.99 468.553C1454.6 470.068 1451.69 471.41 1448.81 472.696C1422.91 484.615 1405.17 497.872 1396.67 511.557C1393 517.469 1391.11 523.453 1384.71 529.199C1381.37 532.15 1377.43 535.078 1371.44 537.698C1367.8 539.291 1362.43 541.488 1356.54 542.373C1354.11 542.78 1352.25 542.874 1350.93 542.708Z" stroke="url(#paint41_linear_1256_7137)" stroke-miterlimit="10"/>
<path d="M1357.46 533.209C1357.07 533.193 1356.87 533.185 1356.5 533.114C1354.28 532.744 1354.2 531.338 1353.3 530.741C1351.56 529.437 1349.4 528.171 1346.79 527C1342.65 525.263 1336.91 523.909 1330.86 522.768C1326.83 521.989 1314.55 520.822 1314.79 519.204C1314.99 517.641 1324.24 516.498 1327.74 515.573C1333.3 514.17 1338.86 512.766 1344.59 511.426C1346.87 510.9 1349.16 510.375 1351.44 509.85C1361.55 507.451 1370.94 504.856 1379.44 502.055C1383.56 500.706 1388.98 499.185 1391.61 497.608C1392.8 496.87 1393.21 494.137 1397.74 494.32C1400.9 494.447 1384.88 506.707 1383.95 507.735C1380.26 511.346 1379.4 515.351 1376.67 519.057C1373.92 522.818 1370.77 526.562 1367.23 530.291C1366.43 531.045 1365.61 531.854 1363.89 532.458C1362.71 532.803 1359.8 533.359 1357.46 533.209Z" stroke="url(#paint42_linear_1256_7137)" stroke-miterlimit="10"/>
<path d="M1357.33 525.685C1355.22 525.88 1354.07 524.992 1353.93 524.482C1352.48 521.842 1344.9 520.92 1337.75 519.567C1336.65 519.354 1335.61 519.032 1335.39 518.686C1334.6 517.869 1337.54 517.258 1339.4 516.772C1342.17 516.097 1344.76 515.36 1347.33 514.678C1350.1 514.004 1352.69 513.267 1355.46 512.592C1356.87 512.2 1358.65 511.879 1360.09 511.432C1361.47 511.095 1362.51 510.632 1363.92 510.24C1364.63 510.044 1365.7 509.919 1366.49 509.95C1368.07 510.014 1369.22 510.509 1369.16 511.012C1369.1 511.514 1368.09 511.922 1367.66 512.354C1367.18 512.896 1366.89 513.445 1366.61 513.995C1365.81 515.141 1365.22 516.295 1364.42 517.442C1362.83 519.734 1361.47 521.98 1360.07 524.28C1359.85 524.72 1359.39 525.207 1358.26 525.442C1357.98 525.599 1357.56 525.638 1357.33 525.685Z" stroke="url(#paint43_linear_1256_7137)" stroke-miterlimit="10"/>
<path d="M874.094 592.983C871.58 588.898 856.268 585.421 860.94 581.457C862.751 579.902 867.379 578.742 870.712 577.361C877.095 574.756 878.523 571.223 874.199 568.3C869.875 565.376 859.968 563.126 848.783 562.564C829.175 561.55 810.527 565.289 790.63 565.61C747.566 566.346 715.802 551.49 672.934 552.626C644.157 553.376 625.122 560.97 601.904 565.759C573.917 571.59 516.894 568.959 499.258 578.517C494.764 580.973 494.041 584.311 501.584 586.073C505.89 587.088 512.004 587.334 517.583 587.446C568.19 588.473 621.425 582.872 668.402 588.185C684.962 590.029 699.261 593.13 714.859 595.665C746.056 600.736 782.084 603.476 818.182 603.75C831.229 603.826 844.842 603.589 856.208 601.858C867.545 600.182 876.244 596.604 874.094 592.983Z" stroke="url(#paint44_linear_1256_7137)" stroke-miterlimit="10"/>
<path d="M793.712 600.465C767.482 599.409 741.992 596.925 719.889 593.342C715.046 592.586 710.26 591.72 705.671 590.862C695.17 588.981 684.5 587.037 672.305 585.704C663.546 584.735 654.448 584.032 644.39 583.627C621.512 582.706 597.808 583.38 574.922 584.03C556.123 584.564 536.704 585.129 518.388 584.729C516.782 584.72 515.599 584.673 514.415 584.625C511.457 584.506 509.345 584.309 508.078 584.033C504.841 583.286 505.698 581.244 508.242 579.832C516.579 575.398 537.355 574.158 559.568 572.864C576.792 571.874 594.861 570.805 607.98 568.023C615.202 566.518 621.919 564.824 628.212 563.17C642.858 559.383 656.77 555.847 673.906 555.414C677.176 555.321 680.388 555.338 683.544 555.465C698.138 556.053 711.904 558.626 726.769 561.413C742.731 564.412 759.453 567.497 778.584 568.267C782.726 568.434 787.121 568.498 791.18 568.437C800.734 568.261 809.615 567.44 818.271 566.666C827.998 565.767 837.302 564.907 845.783 565.248C846.177 565.264 846.572 565.28 846.966 565.296C854.798 565.723 861.835 567.297 864.979 569.387C867.927 571.469 867.04 573.959 862.465 575.794C861.674 576.155 860.489 576.5 859.5 576.853C856.564 577.857 853.148 579.01 851.336 580.565C847.316 584.05 853.386 587.1 858.164 589.536C860.89 590.88 863.419 592.216 864.23 593.371C865.598 595.783 858.906 598.207 851.263 599.358C841.222 600.862 828.456 601.021 818.255 600.891C810.167 600.959 801.798 600.79 793.712 600.465Z" stroke="url(#paint45_linear_1256_7137)" stroke-miterlimit="10"/>
<path d="M796.304 595.071C778.247 593.783 759.708 593.037 743.492 590.14C724.685 586.802 705.399 583.614 684.613 581.374C657.914 578.505 628.19 577.196 600.591 579.172C595.573 579.531 590.695 580.008 585.453 580.021C567.136 580.014 576.089 576.334 586.859 575.365C597.658 574.341 610.423 574.574 619.902 572.599C627.801 570.953 634.969 569.165 641.713 567.417C648.909 565.574 657.521 562.554 666.628 561.686C678.695 560.545 694.298 562.295 704.716 563.948C718.09 566.113 729.853 569.056 743.482 571.119C768.711 574.883 800.413 575.093 826.358 571.648C829.375 571.265 832.45 570.771 835.691 570.734C838.932 570.696 842.705 571.184 843.461 572.056C843.965 572.638 843.032 573.273 842.324 573.862C837.064 577.41 827.151 581.387 830.765 585.292C833.566 588.434 845.211 592.382 836.515 595.567C830.303 597.841 820.47 597.39 812.077 596.491C806.754 595.884 801.543 595.45 796.304 595.071Z" stroke="url(#paint46_linear_1256_7137)" stroke-miterlimit="10"/>
<path d="M816.952 591.749C815.652 592.314 813.649 592.683 810.746 592.846C802.881 593.259 792.608 590.938 785.595 590.095C771.739 588.471 757.715 586.785 743.859 585.161C716.738 581.938 689.589 578.769 662.271 575.538C656.78 574.868 650.556 574.057 648.987 572.422C647.306 570.615 652.247 568.85 658.142 567.965C675.713 565.138 698.217 567.558 715.136 570.652C732.056 573.745 749.169 577.632 769.373 577.884C780.391 577.991 792.147 577.061 802.145 578.361C810.649 579.433 815.764 581.995 817.272 584.524C818.896 586.441 821.301 589.961 816.952 591.749Z" stroke="url(#paint47_linear_1256_7137)" stroke-miterlimit="10"/>
<path d="M1640.02 278.906C1600.88 274.414 1554.83 279.742 1525.08 288.196C1495.56 296.602 1477.94 307.676 1457.31 317.956C1436.69 328.235 1410.25 338.449 1371.2 343.106C1360.68 344.366 1349.38 345.201 1339.31 346.76C1330.54 348.146 1323.09 350.091 1314 351.296C1290.01 354.483 1261.02 351.745 1239.77 347.299C1218.74 342.806 1202.74 336.776 1182.48 331.977C1157.01 325.958 1125.01 322.034 1091.94 320.983C1074.72 320.403 1056.49 320.623 1041.23 322.87C1025.77 325.11 1013.97 329.628 1015.1 334.443C1016.95 341.755 1046.92 348.404 1035.45 355.012C1027.9 359.477 1006.53 360.301 992.99 363.515C968.188 369.418 977.961 380.865 996.886 388.247C1015.81 395.63 1042.38 402.253 1047.6 411.216C1053.97 422.245 1025.79 432.333 999.28 440.749C989.146 443.988 978.166 447.305 963.42 448.564C943.854 450.189 922.902 447.494 907.056 443.883C891.21 440.271 878.272 435.711 861.437 432.453C848.797 430.036 828.654 428.889 820.744 432.498C815.49 434.868 819.192 438.215 826.452 440.134C833.712 442.054 843.711 442.961 853.345 443.797C904.975 448.288 960.349 453.714 989.617 466.394C1015.59 477.651 1058.45 473.036 1094 466.611C1127.31 460.601 1150.3 445.76 1197.21 447.703C1220.26 448.687 1241.03 454.067 1262.94 456.464C1280.82 458.474 1299.16 460.39 1314.33 463.75C1329.5 467.11 1341.19 472.125 1340.24 477.473C1338.95 486.174 1298.27 499.406 1275.33 504.823C1251.71 510.381 1220.56 513.392 1218.42 523.349C1217.75 526.577 1224.03 528.456 1227.73 531.411C1231.83 534.774 1232.4 538.331 1236.27 541.741C1252.76 556.544 1301.29 567.025 1277.83 583.924C1257.38 598.531 1218.42 606.097 1175.13 613.75C1144.11 617.604 1060.24 622.637 1006.53 615.664C952.826 608.69 924.904 602.057 917.275 599.293" stroke="url(#paint48_linear_1256_7137)" stroke-width="2" stroke-miterlimit="10"/>
<path d="M379.63 579.369C390.62 569.039 416.886 558.369 455.525 557.623C485.202 557.078 512.507 562.666 542.237 562.796C574.165 562.959 601.617 556.994 628.639 552.246C655.662 547.498 691.021 543.759 718.444 548.341C734.38 551.002 744.976 556.198 763.061 557.43C773.174 558.118 783.999 557.431 794.092 556.603C809.429 555.369 824.937 553.804 840.916 553.662C856.924 553.464 874.135 554.83 883.95 558.423C900.347 564.47 888.268 573.017 887.973 580.58C887.569 587.577 898.634 594.587 917.349 599.268" stroke="url(#paint49_linear_1256_7137)" stroke-width="2" stroke-miterlimit="10"/>
<path d="M404.771 462.161C385.455 453.978 374.978 442.334 398.097 435.017C409.446 431.378 426.645 429.657 441.397 427.221C481.674 420.594 508.042 406.618 494.78 394.133C481.321 381.64 421.845 374.029 383.198 381.395C359.276 385.987 351.87 390.178 323.683 391.344C302.289 392.222 275.187 390.907 261.43 396.862C252.335 400.817 251.904 407.476 235.049 408.145C230.313 408.347 225.525 407.874 221.189 407.306C180.523 402.247 159.201 389.775 124.356 382.033C111.521 379.216 95.7798 376.955 79.4895 377.309C63.1708 377.719 47.3128 381.513 48.3589 386.1C49.3502 390.404 63.3401 393.324 73.5238 396.595C94.0315 403.256 99.7021 412.517 116.853 419.828C132.822 426.699 157.905 431.523 177.486 437.642C239.098 456.673 171.912 478.32 91.4488 469.247C86.8863 468.727 82.1837 468.089 77.1962 468C41.072 467.388 98.6708 478.234 99.7624 479.625C102.787 483.113 99.8929 486.756 101.254 490.346C103.868 496.959 121.535 502.496 142.371 505.803C163.207 509.11 186.843 510.51 210.224 512.012C251.889 514.754 287.361 521.288 330.414 522.515C368.903 523.615 410.906 521.041 437.889 513.262C461.766 506.424 470.841 495.904 461.083 486.758C451.045 477.377 423.889 470.337 404.771 462.161Z" stroke="url(#paint50_linear_1256_7137)" stroke-miterlimit="10"/>
<path d="M343.463 517.149C339.856 517.116 336.249 517.083 332.502 516.933C310.468 516.327 289.908 514.04 268.194 511.652C251.239 509.791 233.919 507.86 214.847 506.587L210.763 506.311C189.522 504.951 169.464 503.639 152.345 500.93C134.466 498.135 122.962 493.913 121.323 489.695C120.016 486.388 115.391 481.713 123.497 478.504C135.64 473.719 157.072 476.265 173.541 474.01C191.308 471.583 206.068 467.576 214.296 462.576C229.309 453.418 221.364 442.718 192.555 433.816C184.565 431.362 175.869 429.105 167.708 426.981C154.735 423.653 142.494 420.468 133.75 416.749C127.34 413.966 122.538 410.799 117.455 407.397C110.155 402.446 102.518 397.369 88.7333 392.887C86.1452 392.054 83.5286 391.275 80.912 390.496C74.9754 388.743 68.6728 386.918 68.3417 385.614C68.0939 384.538 74.3871 382.884 81.3204 382.714C82.1378 382.691 83.1523 382.675 83.9412 382.707C92.1697 382.758 101.801 383.987 112.103 386.253C124.572 388.999 135.402 392.577 146.767 396.289C165.361 402.367 184.631 408.697 213.187 412.259C217.918 412.842 224.396 413.552 232.033 413.578C234.033 413.603 236.062 413.572 237.923 413.479C260.951 412.554 268.62 406.691 273.092 403.111C274.761 401.832 276.488 400.442 278.296 399.674C282.956 397.673 291.187 397.331 309.223 397.103C314.917 396.995 320.807 396.896 326.754 396.686C352.066 395.629 365.159 392.508 377.771 389.537C382.822 388.338 388.099 387.091 394.587 385.837C401.527 384.49 409.9 383.873 419.34 383.916C444.223 384.076 468.937 389.222 475.92 395.563C480.799 400.135 478.882 405.389 470.457 410.38C462.061 415.316 448.173 419.583 431.645 422.34C427.922 422.92 424.199 423.499 420.053 424.118C407.869 425.872 394.134 427.9 383.323 431.281C363.563 437.555 353.18 450.211 388.325 465.147C394.933 467.938 402.048 470.524 409.192 473.056C423.284 478.112 436.531 482.853 442.392 488.251C450.131 495.464 442.73 503.919 424.045 509.283C405.418 514.537 376.348 517.407 343.463 517.149Z" stroke="url(#paint51_linear_1256_7137)" stroke-miterlimit="10"/>
<path d="M340.001 511.792C324.138 511.322 308.336 509.956 292.9 508.662C258.029 505.631 223.355 502.609 188.484 499.579C175.386 498.434 151.055 495.267 142.307 492.334C135.752 490.219 135.096 486.433 143.53 484.921C147.987 484.09 153.821 484.101 159.316 483.985C192.263 483.347 220.366 476.903 232.951 468.545C247.743 458.648 241.493 447.006 223.424 437.582C208.98 430.1 177.086 423.655 155.645 417.63C152.831 416.843 150.017 416.057 148.952 415.004C147.887 413.951 149.388 412.609 152.997 412.249C158.072 411.78 162.376 413.188 165.582 414.383C186.171 421.664 226.575 422.953 256.267 419.659C274.003 417.679 282.112 413.685 296.079 410.432C303.19 408.754 311.819 407.643 320.054 406.515C342.559 403.493 365.034 400.526 387.342 397.496C402.034 395.563 419.376 393.567 433.822 395.608C447.31 397.553 452.355 402.581 448.218 406.679C444.082 410.777 432.567 413.961 420.211 416.437C407.854 418.914 393.979 420.824 381.791 423.363C358.29 428.309 341.764 435.724 336.001 443.74C330.434 451.764 335.629 460.389 350.724 467.393C363.514 473.406 382.989 478.173 397.076 484.014C411.191 489.8 419.631 497.602 407.762 503.802C397.814 509.012 375.875 511.72 354.597 511.986C349.976 511.969 344.96 511.935 340.001 511.792Z" stroke="url(#paint52_linear_1256_7137)" stroke-miterlimit="10"/>
<path d="M367.063 504.24C360.103 504.073 353.286 503.63 346.497 503.132C305.735 500.202 265.143 497.334 224.381 494.403C219.902 494.111 215.085 493.692 212.837 492.592C210.082 491.303 212.205 489.537 216.156 488.517C220.107 487.498 225.408 486.982 230.371 486.34C280.058 480.204 294.77 464.244 286.419 450.442C284.24 446.875 280.624 443.363 275.738 439.969C271.5 436.881 238.112 430.599 268.165 428.162C273.86 427.662 280.003 427.853 286.119 427.706C304.129 427.14 315.034 422.024 327.479 418.99C340.374 415.862 355.66 413.56 371.001 411.54C384.397 409.778 406.159 408.578 416.825 405.865C420.071 405.042 422.978 404.093 426.87 403.576C430.762 403.06 436.312 403.227 438.392 404.264C439.825 404.995 439.116 405.977 437.336 406.691C435.557 407.405 432.877 407.914 430.226 408.368C405.966 412.835 379.371 416.758 360.091 422.884C342.307 428.452 329.87 435.358 324.674 442.667C317.687 452.654 324.364 463.471 343.001 472.188C351.433 476.118 361.42 479.382 371.069 482.519C378.13 484.823 384.684 486.939 390.168 489.179C401.612 493.904 408.925 501.549 382.818 503.752C377.912 504.284 372.416 504.4 367.063 504.24Z" stroke="url(#paint53_linear_1256_7137)" stroke-miterlimit="10"/>
<path d="M367.221 495.382C362.402 495.356 356.796 494.906 353.415 494.826C336.932 494.388 320.617 494.012 304.134 493.573C291.821 493.246 277.336 493.224 265.705 491.97C261.705 491.529 258.245 490.436 258.674 489.219C259.132 487.947 265.112 486.897 268.02 485.948C272.678 484.34 276.971 482.661 280.7 480.903C287.085 477.906 291.752 474.727 295.884 471.415C298.318 469.437 303.222 464.248 313.028 464.362C326.075 464.438 323.609 472.306 328.444 474.633C338.983 479.938 353.554 484.845 368.184 489.249C371.673 490.287 375.133 491.38 376.027 492.763C377.537 494.899 372.828 495.439 367.221 495.382Z" stroke="url(#paint54_linear_1256_7137)" stroke-miterlimit="10"/>
<path d="M361.693 491.68C360.619 492.198 357.773 492.251 355.406 492.156C341.515 491.765 327.427 491.367 313.536 490.976C302.632 490.65 290.849 491.242 279.779 490.459C272.398 489.938 273.077 489.404 276.581 487.694C279.265 486.399 282.484 485.238 285.337 484.006C290.083 481.841 294.294 479.541 297.914 477.218C300.318 475.688 302.028 471.997 308.738 471.482C316.548 470.786 319.741 474.337 321.819 475.768C329.68 481.19 342.476 486.025 358.66 489.762C360.63 490.234 363.078 490.95 361.693 491.68ZM361.693 491.68C361.721 491.625 361.721 491.625 361.693 491.68Z" stroke="url(#paint55_linear_1256_7137)" stroke-miterlimit="10"/>
<path d="M322.18 486.724C316.6 486.612 301.912 487.76 297.805 486.36C293.192 484.772 300.673 482.38 304.089 481.227C311.627 478.725 316.453 482.622 320.643 484.249C321.993 484.753 328.322 486.915 322.18 486.724Z" stroke="url(#paint56_linear_1256_7137)" stroke-miterlimit="10"/>
<path d="M300.929 445.751C291.456 446.548 295.772 440.55 292.095 437.933C289.765 436.212 275.729 436.489 280.791 433.326C285.655 430.155 284.229 433.296 286.09 433.203C301.028 432.738 309.711 426.859 320.694 428.199C331.677 429.539 306.5 436.942 303.234 441.692C302.127 443.05 310.402 444.954 300.929 445.751Z" stroke="url(#paint57_linear_1256_7137)" stroke-miterlimit="10"/>
<path d="M493.337 478.518L493.112 478.565C489.755 479.215 488.311 480.448 488.136 481.563C487.606 485.694 495.5 490.275 498.889 494.227C502.921 498.878 506.108 503.607 508.507 508.305C513.527 518.045 520.42 530.386 510.392 540.026C508.296 542.129 506 544.618 510.753 546.324C516.21 548.227 526.61 547.972 535.068 547.19C554.494 545.447 566.657 542.177 581.781 538.634C597.611 534.895 618.533 532.594 636.499 529.783C644.171 528.576 652.916 526.852 651.774 524.394C650.772 522.053 641.282 520.942 633.283 520.059C571.07 513.066 547.216 494.601 509.784 480.582C506.268 479.207 500.277 477.17 493.337 478.518Z" stroke="url(#paint58_linear_1256_7137)" stroke-miterlimit="10"/>
<path d="M520.445 540.823C520.397 539.362 522.829 537.777 523.512 536.458C525.107 533.38 525.687 530.317 525.479 527.223C525.173 521.207 522.021 515.245 519.037 509.346L518.34 507.971C515.188 502.009 510.739 496.219 504.88 490.429C504.376 489.847 503.732 489.148 505.171 488.701C510.196 487.164 527.298 493.014 529.378 494.051C541.775 499.656 554.341 505.324 569.87 510.325C587.114 515.9 606.175 519.136 628.983 522.523C631.799 522.917 634.275 523.577 635.229 524.457C636.574 525.746 633.805 527.205 629.771 527.997C622.577 529.447 611.892 530.251 604.023 531.449C593.983 532.953 584.083 534.575 575.166 536.629C573.332 537.06 571.724 537.444 569.89 537.875C561.171 539.937 550.136 542.971 539.28 544.106C533.951 544.677 527.189 544.517 523.362 543.353C521.197 542.48 520.61 541.671 520.445 540.823Z" stroke="url(#paint59_linear_1256_7137)" stroke-miterlimit="10"/>
<path d="M535.149 531.484C532.616 530.933 531.693 529.606 531.5 528.812C531.204 526.275 537.584 524.063 537.485 521.535C537.118 516.414 528.324 511.628 525.505 506.577C525.086 505.83 524.667 505.084 525.235 504.378C525.605 503.663 526.99 502.933 529.218 502.518C537.821 501.069 543.239 504.99 545.682 506.491C550.289 509.257 558.167 511.538 566.894 513.348C574.888 515.016 583.815 516.049 592.121 517.505C597.836 518.521 599.066 520.422 591.482 521.07C582.206 521.875 574.199 522.563 566.131 524.146C562.548 524.844 559.106 525.659 555.86 526.482C552.812 527.313 550.354 528.561 546.968 529.266C544.964 530.027 541.009 531.832 537.036 531.728C536.472 531.649 535.712 531.563 535.149 531.484Z" stroke="url(#paint60_linear_1256_7137)" stroke-miterlimit="10"/>
<path d="M668.747 183.883C658.359 176.732 638.805 170.951 617.837 165.955C508.582 139.789 357.948 130.922 213.973 130.964C183.763 130.982 152.734 131.417 125.492 135.034C92.61 139.434 68.5224 148.62 63.2825 158.733C54.0537 176.934 126.352 189.718 115.158 206.661C108.224 217.323 82.1073 226.54 87.7103 237.875C90.5799 243.994 106.753 249.694 102.775 255.819C98.2552 262.987 69.35 266.705 55.6772 272.888C26.1558 286.344 75.5323 306.454 39.9867 318.714C28.976 322.479 12.4515 324.451 -1.00711 327.501C-14.4657 330.55 -25.0336 335.792 -17.1944 340.091C-3.25839 347.777 41.4372 342.338 68.7507 346.355C88.94 349.355 94.676 356.936 113.001 360.816C134.027 365.309 166.445 363.359 184.538 357.971C202.603 352.639 208.844 344.866 209.025 337.523C209.199 331.358 205.429 325.035 194.524 319.659C177.182 311.162 141.206 304.047 146.838 294.343C152.045 285.07 194.203 279.865 198.227 270.545C202.334 261.452 167.857 253.388 173.71 244.421C176.124 240.928 184.539 237.9 194.724 235.729C238.763 226.504 302.219 233.041 347.147 241.918C392.075 250.796 436.257 262.28 491.178 262.751C540.886 263.18 589.3 252.897 600.898 239.449C607.392 231.967 604.084 223.586 619.645 217.255C630.829 212.767 649.696 210.16 661.612 205.814C678.44 199.759 679.135 191.034 668.747 183.883Z" stroke="url(#paint61_linear_1256_7137)" stroke-miterlimit="10"/>
<path d="M141.677 357.93C137.338 357.755 133.733 357.329 130.637 356.7C125.204 355.527 120.622 353.491 115.702 351.33C107.999 347.934 99.3401 344.051 83.6278 341.735C76.8981 340.735 69.3774 340.096 60.3052 339.73C51.4303 339.373 42.7789 339.362 34.3247 339.358C27.4768 339.363 20.8546 339.321 15.5296 339.107C7.64074 338.79 6.71371 338.247 6.09569 337.886C3.90414 336.675 9.16066 333.913 17.1455 332.102C21.2651 331.146 26.145 330.276 31.2507 329.36C41.2362 327.573 52.3503 325.552 61.1874 322.485C85.1854 314.249 79.8301 303.99 75.0886 294.878C71.3796 287.659 67.8656 280.841 78.4029 276.046C82.3864 274.187 89.131 272.438 96.1298 270.588C109.196 267.13 124.125 263.186 128.103 257.062C131.4 251.864 125.281 247.354 119.695 243.37C116.776 241.233 113.997 239.213 113.133 237.383C110.402 231.774 117.728 226.571 126.046 220.621C131.731 216.642 137.531 212.443 140.486 207.905C147.306 197.462 129.149 188.596 113.101 180.712C98.6543 173.622 84.9946 166.957 88.7536 159.702C92.9967 151.512 113.074 143.848 139.894 140.27C164.118 137.037 193.85 136.775 219.833 136.754C262.132 136.717 303.187 137.527 341.842 139.083C451.891 143.511 542.266 154.049 610.713 170.382C625.573 173.953 646.284 179.444 656.083 186.178C664.674 192.135 662.92 198.629 651.569 202.661C647.334 204.23 641.183 205.609 634.552 207.138C625.89 209.09 616.269 211.34 608.869 214.352C595.849 219.664 593.251 225.843 591.052 231.253C589.94 233.79 589.109 236.169 587.153 238.391C577.71 249.232 537.422 257.823 497.351 257.445C493.744 257.412 490.166 257.324 486.616 257.181C451.708 255.776 420.631 249.308 387.725 242.485C380.097 240.887 372.102 239.219 364.051 237.661C333.564 231.609 300.22 227.574 270.44 226.375C239.082 225.114 210.582 226.884 188.435 231.548C173.059 234.801 162.806 239.045 159.823 243.638C155.505 250.029 165.141 255.523 173.484 260.403C179.693 263.963 185.395 267.335 184.14 270.146C182.8 273.122 173.908 275.906 163.379 279.129C150.676 283.051 136.28 287.521 132.865 293.724C127.772 302.777 147.405 309.57 164.619 315.593C171.595 318.062 178.261 320.35 182.898 322.669C190.908 326.639 194.939 331.682 194.822 337.737C194.794 342.842 191.375 349.83 175.907 354.426C167.158 356.935 153.116 358.39 141.677 357.93Z" stroke="url(#paint62_linear_1256_7137)" stroke-miterlimit="10"/>
<path d="M255.131 383.367C226.139 382.201 211.209 376.045 211.885 370.855C212.209 368.287 215.8 366.018 218.372 364.551C225.75 360.415 236.366 356.634 246.7 353.01C264.205 346.813 280.722 340.97 278.392 334.199C276.504 328.905 263.537 324.399 249.67 319.689C246.604 318.612 243.341 317.527 240.106 316.387C215.862 307.612 210.443 298.641 225.779 292.357C230.411 290.411 236.591 288.977 242.347 287.581C249.486 285.849 255.891 284.367 257.705 282.42C259.123 280.85 257.667 278.996 256.072 277.024C255.287 276.207 254.728 275.343 254.198 274.424C249.757 267.063 260.28 259.576 279.971 255.767C288.688 254.098 298.498 253.427 309.148 253.855C330.054 254.696 350.318 259.496 369.878 264.098C383.163 267.214 395.715 270.187 406.361 271.401C412.444 272.095 418.922 272.805 425.034 273.443C448.1 275.942 472.124 278.536 492.673 282.786C511.927 286.815 531.104 294.488 542.275 302.849C563.214 318.392 552.744 331.605 514.951 337.322C492.219 340.783 465.791 339.72 442.293 338.831C439.729 338.727 437.363 338.632 434.799 338.529C404.764 337.433 384.383 338.688 373.852 342.304C368.939 344.014 366.109 346.369 363.249 348.779L362.853 349.156C353.256 357.186 343.528 363.527 332.254 368.965C315.641 376.937 296.932 381.571 274.803 383.093C268.516 383.569 261.836 383.637 255.131 383.367Z" stroke="url(#paint63_linear_1256_7137)" stroke-miterlimit="10"/>
<path d="M530.375 304.839C519.596 296.887 501.768 289.717 484.147 286.034C459.235 280.88 428.786 278.252 399.891 274.957C364.912 270.968 319.136 252.069 283.112 259.036C265.424 262.476 257.78 269.07 261.355 274.993C263.198 278.041 267.634 281.137 264.856 284.167C260.435 288.815 241.204 290.958 231.489 294.944C216.378 301.181 229.07 309.715 245.495 315.706C261.92 321.698 283.109 327.432 285.661 334.941C289.794 347.17 244.264 355.774 224.647 366.824C221.792 368.448 219.472 370.206 219.152 371.989C218.158 378.57 246.85 383.035 269.826 381.434C292.802 379.834 309.148 374.32 320.958 368.623C333.56 362.566 342.81 355.98 350.878 349.348C354.105 346.616 357.164 343.821 363.742 341.617C379.468 336.134 408.777 335.911 433.684 336.801C458.562 337.746 485.579 339.226 507.634 335.905C546.724 330.016 546.402 316.649 530.375 304.839Z" stroke="url(#paint64_linear_1256_7137)" stroke-miterlimit="10"/>
<path d="M259.404 375.123C250.924 374.782 241.549 373.058 241.728 371.158C241.901 370.435 243.006 369.47 245.238 368.269C251.231 364.863 260.548 361.647 270.205 358.164C289.658 351.317 311.822 343.512 308.213 333.379C305.606 325.587 288.167 319.612 272.949 314.398C269.883 313.321 266.789 312.299 263.892 311.285C252.22 306.999 241.573 300.736 250.555 297.001C252.871 296.028 257.245 294.97 261.844 293.865C271.043 291.654 282.302 288.965 286.609 284.537C289.84 281.02 287.293 277.776 285.222 275.168C284.606 274.413 283.962 273.714 283.684 273.086C281.198 268.946 286.66 264.621 297.154 262.631C299.608 262.168 301.891 262.036 305.047 262.163C317.472 262.663 335.034 266.848 350.852 270.514C365.909 274.094 380.291 277.422 395.105 279.14C401.583 279.85 408.06 280.559 414.341 281.261C436.647 283.674 457.629 285.921 475.082 289.541C489.804 292.602 505.409 299.009 514.559 305.829C521.998 311.291 524.871 316.624 522.679 320.857C520.429 325.199 513.452 328.172 500.986 330.083C486.8 332.205 467.444 331.483 446.735 330.649C444.172 330.546 441.608 330.443 439.044 330.34C397.965 328.799 368.363 331.143 350.943 337.175C342.585 340.093 338.679 343.358 335.169 346.247L334.772 346.623C325.855 354.12 316.806 359.927 306.578 364.902C294.485 370.756 281.418 374.214 267.859 375.127C265.181 375.244 262.363 375.242 259.404 375.123Z" stroke="url(#paint65_linear_1256_7137)" stroke-miterlimit="10"/>
<path d="M844.033 282.336C839.32 273.169 832.578 264.033 820.986 255.318C812.904 249.158 801.749 243.098 784.018 238.85C767.722 234.94 747.077 232.819 727.024 230.721C665.653 224.436 672.999 252.225 653.762 260.596C638.113 267.485 611.823 272.375 583.07 273.855C572.528 274.384 561.396 274.498 552.144 276.033C542.893 277.568 537.35 281.273 543.988 283.616C546.519 284.559 550.687 285.064 554.178 285.709C573.602 289.409 576.097 297.027 573.949 303.506C571.8 309.984 566.972 316.971 577.846 322.795C584.618 326.434 597.087 329.18 602.336 333.039C611.572 339.694 596.849 347.126 599.629 354.195C602.047 360.408 621.799 366.196 644.317 365.868C673.768 365.37 689.684 356.023 694.096 347.897C698.508 339.77 699.431 330.606 720.851 325.015C745.769 318.499 787.3 319.946 815.144 314.39C832.183 311.035 841.964 305.369 845.517 299.677C849.099 293.93 846.905 288.062 844.033 282.336Z" stroke="url(#paint66_linear_1256_7137)" stroke-miterlimit="10"/>
<path d="M638.751 363.007C624.354 362.428 611.385 358.315 609.464 353.861C608.407 351.238 610.254 348.451 612.186 345.498C615.085 341.07 617.843 336.524 611.555 331.951C608.018 329.452 602.421 327.431 596.767 325.521C592.857 324.129 589.088 322.855 586.588 321.464C578.72 317.22 580.636 311.967 582.695 306.439C582.982 305.496 583.438 304.617 583.696 303.73C586.905 294.04 578.686 286.976 559.627 283.348C558.529 283.135 557.403 282.978 556.502 282.773C554.475 282.411 552.617 282.112 551.773 281.797C551.605 281.734 550.761 281.42 551.103 280.76C551.784 279.834 554.326 278.814 557.203 278.313C562.506 277.404 569.693 277.132 577.304 276.821C579.784 276.696 582.236 276.627 584.717 276.502C615.95 274.897 644.92 269.499 662.094 261.998C668.874 259.016 672.449 254.447 676.196 249.548C684.624 238.722 691.904 231.665 714.387 232.569C717.149 232.68 720.247 232.917 723.317 233.209C742.441 235.157 762.129 237.184 777.355 240.826C791.145 244.13 801.912 248.996 811.483 256.17C821.306 263.635 828.447 272.002 834.025 282.607C836.647 287.65 839.039 293.525 835.74 299.115C832.244 304.698 822.749 309.422 809.321 312.023C797.896 314.257 783.491 315.248 768.07 316.255C748.901 317.503 729.083 318.838 713.9 322.884C693.186 328.278 689.366 336.429 686.058 343.59C685.375 344.909 684.917 346.181 684.093 347.382C679.995 354.904 665.919 362.642 643.598 362.978C642.104 363.142 640.329 363.071 638.751 363.007Z" stroke="url(#paint67_linear_1256_7137)" stroke-miterlimit="10"/>
<path d="M631.082 353.328C628.943 352.793 627.539 352.007 627.148 351.206C626.339 349.659 628.8 348.018 629.766 346.542C632.978 341.51 637.013 335.276 627.609 328.557C618.991 322.263 599.928 319.42 599.94 312.014C599.88 307.467 603.287 302.835 599.337 298.411C595.752 294.452 585.965 290.804 587.086 286.697C588.411 281.42 606.944 277.901 624.146 275.788C642.842 273.511 659.986 271.507 672.467 266.848C686.953 261.427 693.02 254.77 693.845 248.126C694.053 246.171 693.895 244.144 697.567 242.497C708.556 237.609 731.357 242.173 741.714 244.722C754.041 247.743 761.76 253.44 768.304 257.519C783.835 267.177 793.332 277.603 795.699 288.19C796.828 293.005 796.152 298.195 785.873 302.102C773.081 306.974 749.627 308.331 728.597 309.672C702.155 311.358 685.709 314.343 669.333 320.305C652.447 326.47 648.007 334.652 644.557 342.088C643.157 345.566 639.128 350.622 631.082 353.328Z" stroke="url(#paint68_linear_1256_7137)" stroke-miterlimit="10"/>
<path d="M698.021 383.067C690.135 376.914 671.229 371.047 649.027 370.378C632.769 369.893 615.993 371.574 600.331 370.327C577.88 368.582 566.278 361.831 549.704 357.292C522.55 349.859 481.471 348.318 443.401 347.965C435.99 347.891 427.254 348.044 423.13 349.786C419.797 351.167 420.858 353.005 422.653 354.592C429.132 360.352 443.674 365.313 462.229 368.36C478.756 371.045 497.884 372.208 514.129 375.05C546.562 380.843 559.769 393.045 550.526 403.502C541.311 413.904 513.112 422.476 480.083 427.936C460.509 431.132 436.481 434.373 432.446 440.607C430.314 443.944 435.2 447.339 442.907 449.95C450.614 452.56 460.918 454.434 471.336 456.087C480.262 457.512 490.342 459.04 493.963 461.767C497.274 464.313 493.736 467.256 496.004 469.873C498.834 472.96 508.827 475.045 518.624 476.73C528.225 478.407 539.263 480.029 550.623 479.477C558.064 479.103 564.524 477.904 570.421 476.626C595.785 471.194 618.45 464.364 628.078 455.886C633.853 450.956 634.952 445.726 637.403 440.607C643.075 428.884 656.043 417.455 675.601 406.908C686.199 401.219 702.039 395.516 702.047 388.896C701.803 387.034 700.434 385.015 698.021 383.067Z" stroke="url(#paint69_linear_1256_7137)" stroke-miterlimit="10"/>
<path d="M544.401 473.615C540.117 473.723 536.003 473.501 532.033 473.005C523.556 471.878 517.116 469.543 515.242 466.943C514.236 465.387 514.638 463.833 514.252 462.246C513.154 456.984 496.545 453.678 481.453 451.332L480.721 451.19C472.725 449.914 463.856 448.379 457.864 446.343C453.251 444.754 450.81 442.861 451.748 441.44C453.511 438.425 468.657 436.004 483.38 433.623C485.58 433.263 487.752 432.957 489.755 432.589C530.709 425.821 559.734 415.655 569.459 404.656C581.255 391.216 562.817 377.064 524.472 370.247C514.336 368.437 503.859 367.286 493.748 366.205C485.947 365.33 478.315 364.518 472.008 363.479C465.335 362.369 460.102 360.812 455.349 359.106C449.554 357.077 435.148 353.018 451.046 352.255C456.204 352.014 462.653 352.779 467.187 353.354C490.617 356.317 515.504 355.691 535.427 361.15C539.845 362.337 543.923 363.792 548.367 365.317C559.984 369.32 572.923 373.88 594.781 375.601C597.288 375.814 599.852 375.918 602.613 376.029C612.277 376.418 621.663 376.178 629.836 375.946C635.952 375.799 641.871 375.645 646.83 375.788C647.027 375.796 647.224 375.804 647.619 375.82C659.847 376.312 673.352 380.166 679.386 384.841C681.266 386.263 682.189 387.591 682.154 388.824C682.076 392.861 673.798 396.792 666.256 400.079C656.935 404.08 649.472 408.381 643.135 412.839C630.914 421.661 623.846 431.027 617.822 440.323C613.416 447.272 609.122 454.393 597.816 460.671C589.508 465.05 566.384 473.153 544.401 473.615Z" stroke="url(#paint70_linear_1256_7137)" stroke-miterlimit="10"/>
<path d="M540.3 470.645C538.13 470.557 536.215 470.368 534.159 470.061C528.782 469.171 525.409 467.52 524.291 465.792C522.474 463.082 524.91 460.711 520.81 458.134C517.13 455.91 511.476 453.999 504.862 452.386C494.083 449.876 479.21 448.661 469.305 446.018C464.887 444.83 461.994 443.03 463.863 441.366C465.675 439.812 471.035 438.793 476.224 438.104C523.798 431.771 566.302 420.071 579.287 405.501C592.104 390.867 571.897 375.466 530.061 368.003C519.194 366.051 508.322 364.884 497.648 363.725C490.015 362.913 482.975 362.125 477.231 361.164C473.712 360.574 461.464 358.566 462.43 357.09C463.994 354.46 486.294 358.05 490.942 358.406C505.534 359.386 517.957 360.278 528.734 363.181C532.617 364.235 536.724 365.635 540.803 367.089C552.757 371.217 567.411 376.352 592.171 378.302C595.073 378.531 598.003 378.705 601.158 378.832C612.005 379.268 622.405 379.013 630.579 378.781C636.301 378.619 641.599 378.495 645.572 378.599L645.966 378.615C653.461 378.917 664.604 381.89 669.825 385.803C671.284 386.872 671.927 387.964 671.894 388.804C671.82 392.055 664.39 395.515 657.582 398.552C648.261 402.553 640.289 407.058 633.613 411.783C621.052 420.872 613.785 430.623 607.846 439.754L607.108 440.79C603.016 447.134 598.809 453.698 588.634 459.348C581.907 463.005 569.512 467.5 556.537 469.615C551.657 470.484 545.822 470.867 540.3 470.645Z" stroke="url(#paint71_linear_1256_7137)" stroke-miterlimit="10"/>
<path d="M545.884 464.136C541.322 463.616 543.142 460.491 541.573 458.857C539.443 456.751 536.269 454.716 532.193 452.869C523.646 449.158 510.84 446.286 495.572 445.055C492.474 444.818 489.009 444.51 487.802 443.732C486.285 442.773 488.827 441.754 491.226 441.008C505.736 436.318 523.032 432.469 539.793 428.487C556.553 424.504 573.062 420.231 584.813 415.037C596.564 409.843 603.475 403.5 599.365 397.444C597.771 395.079 594.543 392.761 592.95 390.396C588.509 383.036 609.298 384.49 628.124 384.293C635 384.233 643.031 384.276 647.758 385.644C651.613 386.753 652.308 388.521 650.947 389.981C649.558 391.496 646.649 392.838 643.767 394.124C617.861 406.043 600.12 419.3 591.62 432.985C587.953 438.897 586.061 444.881 579.661 450.627C576.32 453.578 572.387 456.506 566.399 459.127C562.755 460.719 557.389 462.916 551.494 463.801C549.068 464.208 547.208 464.302 545.884 464.136Z" stroke="url(#paint72_linear_1256_7137)" stroke-miterlimit="10"/>
<path d="M552.419 454.636C552.024 454.621 551.827 454.613 551.461 454.542C549.237 454.172 549.16 452.766 548.261 452.169C546.521 450.864 544.358 449.599 541.744 448.428C537.61 446.69 531.869 445.337 525.816 444.196C521.791 443.417 509.51 442.249 509.744 440.632C509.95 439.069 519.199 437.926 522.699 437.001C528.258 435.597 533.817 434.194 539.545 432.853C541.831 432.328 544.116 431.803 546.401 431.278C556.503 428.879 565.901 426.283 574.399 423.483C578.52 422.134 583.939 420.613 586.568 419.035C587.756 418.298 588.165 415.565 592.701 415.747C595.857 415.874 579.841 428.135 578.905 429.163C575.222 432.774 574.355 436.779 571.63 440.485C568.876 444.245 565.728 447.99 562.185 451.719C561.392 452.473 560.57 453.281 558.848 453.885C557.662 454.23 554.757 454.787 552.419 454.636Z" stroke="url(#paint73_linear_1256_7137)" stroke-miterlimit="10"/>
<path d="M552.29 447.113C550.175 447.309 549.025 446.421 548.886 445.91C547.435 443.271 539.86 442.349 532.709 440.995C531.611 440.782 530.57 440.46 530.347 440.114C529.562 439.297 532.496 438.686 534.359 438.2C537.124 437.526 539.721 436.788 542.289 436.106C545.054 435.432 547.651 434.695 550.416 434.021C551.827 433.629 553.604 433.307 555.044 432.86C556.427 432.523 557.472 432.06 558.883 431.668C559.588 431.472 560.66 431.347 561.449 431.379C563.027 431.442 564.179 431.937 564.12 432.44C564.061 432.943 563.045 433.35 562.62 433.782C562.138 434.324 561.853 434.874 561.568 435.423C560.773 436.569 560.175 437.724 559.379 438.87C557.789 441.162 556.424 443.408 555.031 445.708C554.803 446.148 554.349 446.635 553.221 446.87C552.938 447.027 552.515 447.066 552.29 447.113Z" stroke="url(#paint74_linear_1256_7137)" stroke-miterlimit="10"/>
<path d="M834.978 200.335C795.832 195.842 749.784 201.171 720.036 209.624C690.514 218.031 672.897 229.105 652.27 239.384C631.643 249.664 605.21 259.878 566.155 264.534C555.637 265.794 544.332 266.63 534.263 268.188C525.492 269.575 518.041 271.519 508.961 272.725C484.962 275.911 455.979 273.174 434.727 268.728C413.7 264.235 397.698 258.204 377.434 253.405C351.963 247.387 319.971 243.462 286.893 242.412C269.677 241.831 251.443 242.051 236.186 244.299C220.73 246.538 208.927 251.057 210.056 255.872C211.905 263.184 241.881 269.833 230.404 276.44C222.856 280.906 201.49 281.729 187.946 284.944C163.144 290.847 172.917 302.293 191.843 309.676C210.768 317.058 237.335 323.682 242.556 332.645C248.922 343.674 220.743 353.762 194.236 362.177C184.102 365.416 173.122 368.734 158.376 369.992C138.81 371.617 117.859 368.923 102.012 365.311C86.1662 361.7 73.2278 357.139 56.3934 353.881C43.7534 351.465 23.6105 350.318 15.7004 353.927C10.446 356.296 14.1478 359.643 21.408 361.563C28.6682 363.482 38.6674 364.389 48.3006 365.226C99.9314 369.716 155.305 375.143 184.573 387.822C210.551 399.08 253.41 394.464 288.952 388.039C322.266 382.029 345.257 367.188 392.167 369.132C415.213 370.115 435.982 375.496 457.893 377.893C475.777 379.903 494.112 381.819 509.284 385.179C524.455 388.538 536.151 393.554 535.192 398.902C533.905 407.603 493.225 420.834 470.285 426.251C446.668 431.81 415.512 434.82 413.373 444.777C412.707 448.005 418.982 449.885 422.685 452.839C426.782 456.202 427.354 459.76 431.225 463.17C447.715 477.973 496.242 488.454 472.789 505.353C452.335 519.959 413.373 527.525 370.09 535.179C339.066 539.032 255.198 544.066 201.49 537.092C147.782 530.119 119.86 523.485 112.231 520.722" stroke="url(#paint75_linear_1256_7137)" stroke-width="2" stroke-miterlimit="10"/>
</g>
</g>
<defs>
<filter id="filter0_f_1256_7137" x="0.625" y="0.932129" width="2200.48" height="909.136" filterUnits="userSpaceOnUse" color-interpolation-filters="sRGB">
<feFlood flood-opacity="0" result="BackgroundImageFix"/>
<feBlend mode="normal" in="SourceGraphic" in2="BackgroundImageFix" result="shape"/>
<feGaussianBlur stdDeviation="152" result="effect1_foregroundBlur_1256_7137"/>
</filter>
<linearGradient id="paint0_linear_1256_7137" x1="635.665" y1="520.231" x2="679.561" y2="402.468" gradientUnits="userSpaceOnUse">
<stop stop-color="#86E7FF" stop-opacity="0.3"/>
<stop offset="1" stop-color="#86E7FF" stop-opacity="0.8"/>
</linearGradient>
<linearGradient id="paint1_linear_1256_7137" x1="643.64" y1="518.555" x2="684.485" y2="408.975" gradientUnits="userSpaceOnUse">
<stop stop-color="#86E7FF" stop-opacity="0.3"/>
<stop offset="1" stop-color="#86E7FF" stop-opacity="0.8"/>
</linearGradient>
<linearGradient id="paint2_linear_1256_7137" x1="585.016" y1="487.265" x2="870.045" y2="634.946" gradientUnits="userSpaceOnUse">
<stop stop-color="#26F7DD"/>
<stop offset="1" stop-color="#00B8DD"/>
</linearGradient>
<linearGradient id="paint3_linear_1256_7137" x1="646.356" y1="485.806" x2="666.257" y2="432.415" gradientUnits="userSpaceOnUse">
<stop stop-color="#86E7FF" stop-opacity="0.3"/>
<stop offset="1" stop-color="#86E7FF" stop-opacity="0.8"/>
</linearGradient>
<linearGradient id="paint4_linear_1256_7137" x1="653.395" y1="484.245" x2="670.408" y2="438.601" gradientUnits="userSpaceOnUse">
<stop stop-color="#86E7FF" stop-opacity="0.3"/>
<stop offset="1" stop-color="#86E7FF" stop-opacity="0.8"/>
</linearGradient>
<linearGradient id="paint5_linear_1256_7137" x1="665.873" y1="479.403" x2="676.836" y2="449.99" gradientUnits="userSpaceOnUse">
<stop stop-color="#86E7FF" stop-opacity="0.3"/>
<stop offset="1" stop-color="#86E7FF" stop-opacity="0.8"/>
</linearGradient>
<linearGradient id="paint6_linear_1256_7137" x1="689.272" y1="473.008" x2="692.586" y2="464.119" gradientUnits="userSpaceOnUse">
<stop stop-color="#86E7FF" stop-opacity="0.3"/>
<stop offset="1" stop-color="#86E7FF" stop-opacity="0.8"/>
</linearGradient>
<linearGradient id="paint7_linear_1256_7137" x1="764.366" y1="526.371" x2="781.821" y2="479.545" gradientUnits="userSpaceOnUse">
<stop stop-color="#86E7FF" stop-opacity="0.3"/>
<stop offset="1" stop-color="#86E7FF" stop-opacity="0.8"/>
</linearGradient>
<linearGradient id="paint8_linear_1256_7137" x1="790.951" y1="521.325" x2="800.472" y2="495.78" gradientUnits="userSpaceOnUse">
<stop stop-color="#86E7FF" stop-opacity="0.3"/>
<stop offset="1" stop-color="#86E7FF" stop-opacity="0.8"/>
</linearGradient>
<linearGradient id="paint9_linear_1256_7137" x1="801.093" y1="519.95" x2="807.445" y2="502.908" gradientUnits="userSpaceOnUse">
<stop stop-color="#86E7FF" stop-opacity="0.3"/>
<stop offset="1" stop-color="#86E7FF" stop-opacity="0.8"/>
</linearGradient>
<linearGradient id="paint10_linear_1256_7137" x1="876.588" y1="562.099" x2="958.289" y2="342.913" gradientUnits="userSpaceOnUse">
<stop stop-color="#86E7FF" stop-opacity="0.3"/>
<stop offset="1" stop-color="#86E7FF" stop-opacity="0.8"/>
</linearGradient>
<linearGradient id="paint11_linear_1256_7137" x1="892.505" y1="558.779" x2="968.14" y2="355.866" gradientUnits="userSpaceOnUse">
<stop stop-color="#86E7FF" stop-opacity="0.3"/>
<stop offset="1" stop-color="#86E7FF" stop-opacity="0.8"/>
</linearGradient>
<linearGradient id="paint12_linear_1256_7137" x1="938.335" y1="567.969" x2="1006.28" y2="385.678" gradientUnits="userSpaceOnUse">
<stop stop-color="#86E7FF" stop-opacity="0.3"/>
<stop offset="1" stop-color="#86E7FF" stop-opacity="0.8"/>
</linearGradient>
<linearGradient id="paint13_linear_1256_7137" x1="1011.65" y1="569.398" x2="1068.4" y2="417.145" gradientUnits="userSpaceOnUse">
<stop stop-color="#86E7FF" stop-opacity="0.3"/>
<stop offset="1" stop-color="#86E7FF" stop-opacity="0.8"/>
</linearGradient>
<linearGradient id="paint14_linear_1256_7137" x1="1074.59" y1="573.262" x2="1090.45" y2="530.709" gradientUnits="userSpaceOnUse">
<stop stop-color="#86E7FF" stop-opacity="0.3"/>
<stop offset="1" stop-color="#86E7FF" stop-opacity="0.8"/>
</linearGradient>
<linearGradient id="paint15_linear_1256_7137" x1="1086.43" y1="571.327" x2="1097.5" y2="541.613" gradientUnits="userSpaceOnUse">
<stop stop-color="#86E7FF" stop-opacity="0.3"/>
<stop offset="1" stop-color="#86E7FF" stop-opacity="0.8"/>
</linearGradient>
<linearGradient id="paint16_linear_1256_7137" x1="1103.65" y1="565.708" x2="1107.59" y2="555.123" gradientUnits="userSpaceOnUse">
<stop stop-color="#86E7FF" stop-opacity="0.3"/>
<stop offset="1" stop-color="#86E7FF" stop-opacity="0.8"/>
</linearGradient>
<linearGradient id="paint17_linear_1256_7137" x1="1088" y1="519.462" x2="1096.99" y2="495.337" gradientUnits="userSpaceOnUse">
<stop stop-color="#86E7FF" stop-opacity="0.3"/>
<stop offset="1" stop-color="#86E7FF" stop-opacity="0.8"/>
</linearGradient>
<linearGradient id="paint18_linear_1256_7137" x1="1262.19" y1="605.323" x2="1287.11" y2="538.474" gradientUnits="userSpaceOnUse">
<stop stop-color="#86E7FF" stop-opacity="0.3"/>
<stop offset="1" stop-color="#86E7FF" stop-opacity="0.8"/>
</linearGradient>
<linearGradient id="paint19_linear_1256_7137" x1="1283.55" y1="605.464" x2="1303.77" y2="551.215" gradientUnits="userSpaceOnUse">
<stop stop-color="#86E7FF" stop-opacity="0.3"/>
<stop offset="1" stop-color="#86E7FF" stop-opacity="0.8"/>
</linearGradient>
<linearGradient id="paint20_linear_1256_7137" x1="1323.1" y1="594.848" x2="1387.5" y2="628.216" gradientUnits="userSpaceOnUse">
<stop stop-color="#26F7DD"/>
<stop offset="1" stop-color="#00B8DD"/>
</linearGradient>
<linearGradient id="paint21_linear_1256_7137" x1="686.844" y1="381.768" x2="822.656" y2="17.4127" gradientUnits="userSpaceOnUse">
<stop stop-color="#86E7FF" stop-opacity="0.3"/>
<stop offset="1" stop-color="#86E7FF" stop-opacity="0.8"/>
</linearGradient>
<linearGradient id="paint22_linear_1256_7137" x1="708.717" y1="378.682" x2="838.454" y2="30.6226" gradientUnits="userSpaceOnUse">
<stop stop-color="#86E7FF" stop-opacity="0.3"/>
<stop offset="1" stop-color="#86E7FF" stop-opacity="0.8"/>
</linearGradient>
<linearGradient id="paint23_linear_1256_7137" x1="871.937" y1="384.681" x2="967.643" y2="434.269" gradientUnits="userSpaceOnUse">
<stop stop-color="#26F7DD"/>
<stop offset="1" stop-color="#00B8DD"/>
</linearGradient>
<linearGradient id="paint24_linear_1256_7137" x1="906.976" y1="417.954" x2="915.074" y2="396.228" gradientUnits="userSpaceOnUse">
<stop stop-color="#86E7FF" stop-opacity="0.3"/>
<stop offset="1" stop-color="#86E7FF" stop-opacity="0.8"/>
</linearGradient>
<linearGradient id="paint25_linear_1256_7137" x1="948.206" y1="428.225" x2="1013.54" y2="252.934" gradientUnits="userSpaceOnUse">
<stop stop-color="#86E7FF" stop-opacity="0.3"/>
<stop offset="1" stop-color="#86E7FF" stop-opacity="0.8"/>
</linearGradient>
<linearGradient id="paint26_linear_1256_7137" x1="953.596" y1="427.597" x2="1015.91" y2="260.411" gradientUnits="userSpaceOnUse">
<stop stop-color="#86E7FF" stop-opacity="0.3"/>
<stop offset="1" stop-color="#86E7FF" stop-opacity="0.8"/>
</linearGradient>
<linearGradient id="paint27_linear_1256_7137" x1="972.107" y1="423.249" x2="1028.35" y2="272.35" gradientUnits="userSpaceOnUse">
<stop stop-color="#86E7FF" stop-opacity="0.3"/>
<stop offset="1" stop-color="#86E7FF" stop-opacity="0.8"/>
</linearGradient>
<linearGradient id="paint28_linear_1256_7137" x1="1086.76" y1="376.661" x2="1262.46" y2="467.699" gradientUnits="userSpaceOnUse">
<stop stop-color="#26F7DD"/>
<stop offset="1" stop-color="#00B8DD"/>
</linearGradient>
<linearGradient id="paint29_linear_1256_7137" x1="1137.62" y1="390.042" x2="1157.35" y2="337.13" gradientUnits="userSpaceOnUse">
<stop stop-color="#86E7FF" stop-opacity="0.3"/>
<stop offset="1" stop-color="#86E7FF" stop-opacity="0.8"/>
</linearGradient>
<linearGradient id="paint30_linear_1256_7137" x1="1154.92" y1="380.25" x2="1166.63" y2="348.846" gradientUnits="userSpaceOnUse">
<stop stop-color="#86E7FF" stop-opacity="0.3"/>
<stop offset="1" stop-color="#86E7FF" stop-opacity="0.8"/>
</linearGradient>
<linearGradient id="paint31_linear_1256_7137" x1="1329.67" y1="408.331" x2="1391.57" y2="242.266" gradientUnits="userSpaceOnUse">
<stop stop-color="#86E7FF" stop-opacity="0.3"/>
<stop offset="1" stop-color="#86E7FF" stop-opacity="0.8"/>
</linearGradient>
<linearGradient id="paint32_linear_1256_7137" x1="1349.16" y1="371.076" x2="1582.63" y2="492.046" gradientUnits="userSpaceOnUse">
<stop stop-color="#26F7DD"/>
<stop offset="1" stop-color="#00B8DD"/>
</linearGradient>
<linearGradient id="paint33_linear_1256_7137" x1="1351.42" y1="400.895" x2="1400.96" y2="267.984" gradientUnits="userSpaceOnUse">
<stop stop-color="#86E7FF" stop-opacity="0.3"/>
<stop offset="1" stop-color="#86E7FF" stop-opacity="0.8"/>
</linearGradient>
<linearGradient id="paint34_linear_1256_7137" x1="1394.81" y1="387.188" x2="1430.44" y2="291.609" gradientUnits="userSpaceOnUse">
<stop stop-color="#86E7FF" stop-opacity="0.3"/>
<stop offset="1" stop-color="#86E7FF" stop-opacity="0.8"/>
</linearGradient>
<linearGradient id="paint35_linear_1256_7137" x1="1418.49" y1="387.744" x2="1448.74" y2="306.581" gradientUnits="userSpaceOnUse">
<stop stop-color="#86E7FF" stop-opacity="0.3"/>
<stop offset="1" stop-color="#86E7FF" stop-opacity="0.8"/>
</linearGradient>
<linearGradient id="paint36_linear_1256_7137" x1="1450.26" y1="381.568" x2="1470.71" y2="326.71" gradientUnits="userSpaceOnUse">
<stop stop-color="#86E7FF" stop-opacity="0.3"/>
<stop offset="1" stop-color="#86E7FF" stop-opacity="0.8"/>
</linearGradient>
<linearGradient id="paint37_linear_1256_7137" x1="1462.19" y1="377.533" x2="1473.95" y2="346.001" gradientUnits="userSpaceOnUse">
<stop stop-color="#86E7FF" stop-opacity="0.3"/>
<stop offset="1" stop-color="#86E7FF" stop-opacity="0.8"/>
</linearGradient>
<linearGradient id="paint38_linear_1256_7137" x1="1200.91" y1="512.622" x2="1255.15" y2="367.091" gradientUnits="userSpaceOnUse">
<stop stop-color="#86E7FF" stop-opacity="0.3"/>
<stop offset="1" stop-color="#86E7FF" stop-opacity="0.8"/>
</linearGradient>
<linearGradient id="paint39_linear_1256_7137" x1="1219.13" y1="509.675" x2="1267.15" y2="380.846" gradientUnits="userSpaceOnUse">
<stop stop-color="#86E7FF" stop-opacity="0.3"/>
<stop offset="1" stop-color="#86E7FF" stop-opacity="0.8"/>
</linearGradient>
<linearGradient id="paint40_linear_1256_7137" x1="1230.73" y1="509.259" x2="1275.67" y2="388.671" gradientUnits="userSpaceOnUse">
<stop stop-color="#86E7FF" stop-opacity="0.3"/>
<stop offset="1" stop-color="#86E7FF" stop-opacity="0.8"/>
</linearGradient>
<linearGradient id="paint41_linear_1256_7137" x1="1302.85" y1="499.027" x2="1412" y2="555.578" gradientUnits="userSpaceOnUse">
<stop stop-color="#26F7DD"/>
<stop offset="1" stop-color="#00B8DD"/>
</linearGradient>
<linearGradient id="paint42_linear_1256_7137" x1="1326.69" y1="524.486" x2="1345.42" y2="474.221" gradientUnits="userSpaceOnUse">
<stop stop-color="#86E7FF" stop-opacity="0.3"/>
<stop offset="1" stop-color="#86E7FF" stop-opacity="0.8"/>
</linearGradient>
<linearGradient id="paint43_linear_1256_7137" x1="1342.03" y1="521.89" x2="1349.17" y2="502.744" gradientUnits="userSpaceOnUse">
<stop stop-color="#86E7FF" stop-opacity="0.3"/>
<stop offset="1" stop-color="#86E7FF" stop-opacity="0.8"/>
</linearGradient>
<linearGradient id="paint44_linear_1256_7137" x1="569.539" y1="612.151" x2="621.323" y2="473.223" gradientUnits="userSpaceOnUse">
<stop stop-color="#86E7FF" stop-opacity="0.3"/>
<stop offset="1" stop-color="#86E7FF" stop-opacity="0.8"/>
</linearGradient>
<linearGradient id="paint45_linear_1256_7137" x1="577.528" y1="610.489" x2="626.277" y2="479.703" gradientUnits="userSpaceOnUse">
<stop stop-color="#86E7FF" stop-opacity="0.3"/>
<stop offset="1" stop-color="#86E7FF" stop-opacity="0.8"/>
</linearGradient>
<linearGradient id="paint46_linear_1256_7137" x1="577.159" y1="572.241" x2="793.42" y2="684.291" gradientUnits="userSpaceOnUse">
<stop stop-color="#26F7DD"/>
<stop offset="1" stop-color="#00B8DD"/>
</linearGradient>
<linearGradient id="paint47_linear_1256_7137" x1="692.217" y1="589.352" x2="709.832" y2="542.095" gradientUnits="userSpaceOnUse">
<stop stop-color="#86E7FF" stop-opacity="0.3"/>
<stop offset="1" stop-color="#86E7FF" stop-opacity="0.8"/>
</linearGradient>
<linearGradient id="paint48_linear_1256_7137" x1="822.559" y1="422.709" x2="1408.74" y2="726.426" gradientUnits="userSpaceOnUse">
<stop stop-color="#26F7DD"/>
<stop offset="1" stop-color="#00B8DD"/>
</linearGradient>
<linearGradient id="paint49_linear_1256_7137" x1="389.361" y1="556.647" x2="823.749" y2="781.715" gradientUnits="userSpaceOnUse">
<stop stop-color="#26F7DD"/>
<stop offset="1" stop-color="#00B8DD"/>
</linearGradient>
<linearGradient id="paint50_linear_1256_7137" x1="71.5436" y1="483.527" x2="153.244" y2="264.342" gradientUnits="userSpaceOnUse">
<stop stop-color="#86E7FF" stop-opacity="0.3"/>
<stop offset="1" stop-color="#86E7FF" stop-opacity="0.8"/>
</linearGradient>
<linearGradient id="paint51_linear_1256_7137" x1="87.4624" y1="480.207" x2="163.097" y2="277.294" gradientUnits="userSpaceOnUse">
<stop stop-color="#86E7FF" stop-opacity="0.3"/>
<stop offset="1" stop-color="#86E7FF" stop-opacity="0.8"/>
</linearGradient>
<linearGradient id="paint52_linear_1256_7137" x1="133.296" y1="489.397" x2="201.244" y2="307.107" gradientUnits="userSpaceOnUse">
<stop stop-color="#86E7FF" stop-opacity="0.3"/>
<stop offset="1" stop-color="#86E7FF" stop-opacity="0.8"/>
</linearGradient>
<linearGradient id="paint53_linear_1256_7137" x1="206.611" y1="490.826" x2="263.362" y2="338.573" gradientUnits="userSpaceOnUse">
<stop stop-color="#86E7FF" stop-opacity="0.3"/>
<stop offset="1" stop-color="#86E7FF" stop-opacity="0.8"/>
</linearGradient>
<linearGradient id="paint54_linear_1256_7137" x1="269.542" y1="494.691" x2="285.403" y2="452.138" gradientUnits="userSpaceOnUse">
<stop stop-color="#86E7FF" stop-opacity="0.3"/>
<stop offset="1" stop-color="#86E7FF" stop-opacity="0.8"/>
</linearGradient>
<linearGradient id="paint55_linear_1256_7137" x1="281.385" y1="492.754" x2="292.46" y2="463.041" gradientUnits="userSpaceOnUse">
<stop stop-color="#86E7FF" stop-opacity="0.3"/>
<stop offset="1" stop-color="#86E7FF" stop-opacity="0.8"/>
</linearGradient>
<linearGradient id="paint56_linear_1256_7137" x1="298.603" y1="487.136" x2="302.549" y2="476.551" gradientUnits="userSpaceOnUse">
<stop stop-color="#86E7FF" stop-opacity="0.3"/>
<stop offset="1" stop-color="#86E7FF" stop-opacity="0.8"/>
</linearGradient>
<linearGradient id="paint57_linear_1256_7137" x1="282.954" y1="440.891" x2="291.947" y2="416.765" gradientUnits="userSpaceOnUse">
<stop stop-color="#86E7FF" stop-opacity="0.3"/>
<stop offset="1" stop-color="#86E7FF" stop-opacity="0.8"/>
</linearGradient>
<linearGradient id="paint58_linear_1256_7137" x1="457.149" y1="526.751" x2="482.067" y2="459.902" gradientUnits="userSpaceOnUse">
<stop stop-color="#86E7FF" stop-opacity="0.3"/>
<stop offset="1" stop-color="#86E7FF" stop-opacity="0.8"/>
</linearGradient>
<linearGradient id="paint59_linear_1256_7137" x1="478.503" y1="526.893" x2="498.725" y2="472.643" gradientUnits="userSpaceOnUse">
<stop stop-color="#86E7FF" stop-opacity="0.3"/>
<stop offset="1" stop-color="#86E7FF" stop-opacity="0.8"/>
</linearGradient>
<linearGradient id="paint60_linear_1256_7137" x1="518.051" y1="516.276" x2="582.453" y2="549.645" gradientUnits="userSpaceOnUse">
<stop stop-color="#26F7DD"/>
<stop offset="1" stop-color="#00B8DD"/>
</linearGradient>
<linearGradient id="paint61_linear_1256_7137" x1="-118.197" y1="303.196" x2="17.6145" y2="-61.1595" gradientUnits="userSpaceOnUse">
<stop stop-color="#86E7FF" stop-opacity="0.3"/>
<stop offset="1" stop-color="#86E7FF" stop-opacity="0.8"/>
</linearGradient>
<linearGradient id="paint62_linear_1256_7137" x1="-96.3234" y1="300.11" x2="33.4142" y2="-47.9494" gradientUnits="userSpaceOnUse">
<stop stop-color="#86E7FF" stop-opacity="0.3"/>
<stop offset="1" stop-color="#86E7FF" stop-opacity="0.8"/>
</linearGradient>
<linearGradient id="paint63_linear_1256_7137" x1="143.16" y1="349.653" x2="208.499" y2="174.363" gradientUnits="userSpaceOnUse">
<stop stop-color="#86E7FF" stop-opacity="0.3"/>
<stop offset="1" stop-color="#86E7FF" stop-opacity="0.8"/>
</linearGradient>
<linearGradient id="paint64_linear_1256_7137" x1="148.554" y1="349.025" x2="210.872" y2="181.839" gradientUnits="userSpaceOnUse">
<stop stop-color="#86E7FF" stop-opacity="0.3"/>
<stop offset="1" stop-color="#86E7FF" stop-opacity="0.8"/>
</linearGradient>
<linearGradient id="paint65_linear_1256_7137" x1="167.065" y1="344.677" x2="223.312" y2="193.779" gradientUnits="userSpaceOnUse">
<stop stop-color="#86E7FF" stop-opacity="0.3"/>
<stop offset="1" stop-color="#86E7FF" stop-opacity="0.8"/>
</linearGradient>
<linearGradient id="paint66_linear_1256_7137" x1="524.623" y1="329.759" x2="586.523" y2="163.694" gradientUnits="userSpaceOnUse">
<stop stop-color="#86E7FF" stop-opacity="0.3"/>
<stop offset="1" stop-color="#86E7FF" stop-opacity="0.8"/>
</linearGradient>
<linearGradient id="paint67_linear_1256_7137" x1="544.112" y1="292.504" x2="777.589" y2="413.474" gradientUnits="userSpaceOnUse">
<stop stop-color="#26F7DD"/>
<stop offset="1" stop-color="#00B8DD"/>
</linearGradient>
<linearGradient id="paint68_linear_1256_7137" x1="546.379" y1="322.323" x2="595.921" y2="189.412" gradientUnits="userSpaceOnUse">
<stop stop-color="#86E7FF" stop-opacity="0.3"/>
<stop offset="1" stop-color="#86E7FF" stop-opacity="0.8"/>
</linearGradient>
<linearGradient id="paint69_linear_1256_7137" x1="395.867" y1="434.051" x2="450.113" y2="288.52" gradientUnits="userSpaceOnUse">
<stop stop-color="#86E7FF" stop-opacity="0.3"/>
<stop offset="1" stop-color="#86E7FF" stop-opacity="0.8"/>
</linearGradient>
<linearGradient id="paint70_linear_1256_7137" x1="414.089" y1="431.103" x2="462.109" y2="302.274" gradientUnits="userSpaceOnUse">
<stop stop-color="#86E7FF" stop-opacity="0.3"/>
<stop offset="1" stop-color="#86E7FF" stop-opacity="0.8"/>
</linearGradient>
<linearGradient id="paint71_linear_1256_7137" x1="425.682" y1="430.687" x2="470.631" y2="310.099" gradientUnits="userSpaceOnUse">
<stop stop-color="#86E7FF" stop-opacity="0.3"/>
<stop offset="1" stop-color="#86E7FF" stop-opacity="0.8"/>
</linearGradient>
<linearGradient id="paint72_linear_1256_7137" x1="497.805" y1="420.455" x2="606.951" y2="477.007" gradientUnits="userSpaceOnUse">
<stop stop-color="#26F7DD"/>
<stop offset="1" stop-color="#00B8DD"/>
</linearGradient>
<linearGradient id="paint73_linear_1256_7137" x1="521.644" y1="445.914" x2="540.38" y2="395.649" gradientUnits="userSpaceOnUse">
<stop stop-color="#86E7FF" stop-opacity="0.3"/>
<stop offset="1" stop-color="#86E7FF" stop-opacity="0.8"/>
</linearGradient>
<linearGradient id="paint74_linear_1256_7137" x1="536.991" y1="443.318" x2="544.128" y2="424.172" gradientUnits="userSpaceOnUse">
<stop stop-color="#86E7FF" stop-opacity="0.3"/>
<stop offset="1" stop-color="#86E7FF" stop-opacity="0.8"/>
</linearGradient>
<linearGradient id="paint75_linear_1256_7137" x1="17.5149" y1="344.137" x2="603.698" y2="647.854" gradientUnits="userSpaceOnUse">
<stop stop-color="#26F7DD"/>
<stop offset="1" stop-color="#00B8DD"/>
</linearGradient>
</defs>
</svg>
