<svg width="1922" height="1526" viewBox="0 0 1922 1526" fill="none" xmlns="http://www.w3.org/2000/svg">
<g opacity="0.7">
<mask id="mask0_1643_6932" style="mask-type:alpha" maskUnits="userSpaceOnUse" x="400" y="400" width="1122" height="726">
<ellipse opacity="0.3" cx="961.01" cy="763.328" rx="577.105" ry="335.743" transform="rotate(16.9402 961.01 763.328)" fill="#389989"/>
</mask>
<g mask="url(#mask0_1643_6932)">
<g opacity="0.65" filter="url(#filter0_f_1643_6932)">
<ellipse cx="961.01" cy="763.328" rx="577.105" ry="335.743" transform="rotate(16.9402 961.01 763.328)" fill="#389989"/>
</g>
<path d="M764.487 954.285C750.785 952.306 737.486 941.149 730.841 925.939C725.963 914.942 724.337 903.36 722.673 892.035C722.088 887.86 721.374 883.667 720.66 879.473C717.473 862.255 711.137 850.388 701.837 844.427C697.741 841.724 692.702 840.073 686.626 839.195C680.034 838.243 673.164 838.307 665.886 838.444C662.192 838.438 658.221 838.525 654.417 838.371C651.665 838.238 648.784 838.086 646.07 837.694C624.354 834.558 610.002 823.381 607.514 807.715C605.428 794.746 612.556 782.844 618.183 774.948C619.516 773.029 620.996 771 622.458 769.1C629.028 760.152 635.265 751.684 636.905 742.156C637.426 739.46 637.468 736.431 637.638 733.421C637.793 728.693 637.985 723.707 639.508 718.648C645.633 698.156 669.583 689.475 690.619 690.005C693.112 690.101 695.753 690.087 698.117 690.164C709.051 690.291 719.43 690.603 728.737 691.946C755.364 695.791 769.768 709.351 776.541 737.379C778.304 744.363 779.383 751.513 780.499 758.404C782.073 767.604 783.445 776.379 786.055 784.805C792.893 806.904 808.56 828.168 831.379 846.505C833.15 847.949 834.939 849.263 836.71 850.706C847.853 859.44 859.364 868.36 865.309 882.018C869.653 892.146 868.654 905.461 862.803 914.908C858.175 922.289 851.334 926.711 843.336 927.272C841.342 927.38 839.236 927.34 836.909 927.004C835.617 926.817 834.324 926.63 833.05 926.314C831.887 926.146 830.872 925.868 829.708 925.7C828.803 925.569 827.899 925.439 827.234 925.475C818.572 925.148 810.787 931.545 802.539 938.403C793.848 945.593 784.712 953.115 772.89 954.574C770.101 954.7 767.33 954.695 764.487 954.285Z" stroke="url(#paint0_linear_1643_6932)" stroke-miterlimit="10"/>
<path d="M859.414 884.465C853.285 870.253 839.558 861.146 827.364 851.468C806.076 834.407 787.843 812.641 779.847 786.679C775.106 771.084 774.041 754.7 770.131 738.829C759.429 695.058 730.317 697.453 690.332 696.561C672.178 696.183 650.853 703.132 645.693 720.597C643.447 727.926 644.562 735.74 643.202 743.329C640.854 756.845 631.234 767.727 623.294 778.853C617.482 787.118 612.13 796.77 613.722 806.764C616.392 823.908 637.067 831.511 654.427 831.907C671.769 832.432 690.649 829.616 705.263 838.983C718.179 847.314 724.084 863.077 726.905 878.263C729.727 893.449 730.497 909.131 736.645 923.214C742.922 937.316 756.719 949.6 772.033 947.721C793.11 945.222 806.154 917.944 827.429 918.641C832.674 918.871 837.806 920.799 842.996 920.493C858.549 919.704 865.525 898.807 859.414 884.465Z" stroke="url(#paint1_linear_1643_6932)" stroke-miterlimit="10"/>
<path d="M767.285 934.896C760.306 933.888 752.725 926.988 748.73 918.098C744.939 909.633 743.476 899.658 741.94 889.276C741.245 884.953 740.697 880.519 739.762 876.03C735.53 853.251 726.246 837.131 712.241 828.116C705.728 823.876 698.196 821.205 689.277 819.917C681.263 818.76 673.192 818.914 665.398 818.976C661.704 818.971 658.121 819.113 654.704 819.016C652.728 818.994 650.641 818.825 648.573 818.526C639.137 817.164 627.766 812.751 626.522 804.918C625.846 800.466 628.145 794.596 633.79 786.57C635.104 784.781 636.437 782.862 637.88 781.091C645.246 771.203 653.463 759.986 655.904 745.823C656.612 741.835 656.784 737.901 656.881 734.484C657.016 730.809 657.132 727.263 657.912 724.605C660.195 717.017 671.842 709.462 689.739 709.803C692.361 709.918 694.873 709.885 697.366 709.981C708.152 710.219 717.497 710.381 725.641 711.557C741.798 713.89 751.689 719.408 757.233 742.245C758.83 748.545 759.873 755.03 761.008 761.791C762.545 771.25 764.174 780.986 767.115 790.779C775.128 816.611 792.951 841.221 818.98 862.001C820.751 863.445 822.651 864.907 824.552 866.369C834.163 873.826 843.295 880.951 847.141 889.951C849.018 894.313 848.492 900.702 846.029 904.965C844.288 907.881 842.552 908.026 842.035 907.951C841.499 908.006 840.724 907.894 839.56 907.726C838.526 907.576 837.492 907.427 836.477 907.149C835.184 906.962 833.781 906.627 832.23 906.403C830.55 906.161 829.109 906.085 827.669 906.009C811.527 905.393 799.988 914.943 789.799 923.368C782.92 928.973 776.466 934.375 770.277 935.196C769.502 935.084 768.449 935.064 767.285 934.896Z" stroke="url(#paint2_linear_1643_6932)" stroke-miterlimit="10"/>
<path d="M724.436 739.092C716.532 726.207 702.97 717.783 686.853 725.22C679.072 728.847 677.229 738.873 672.139 745.792C666.55 753.43 656.459 757.515 652.697 766.208C648.879 775.289 653.554 785.861 660.007 793.258C664.303 798.233 667.553 798.571 673.502 797.582C679.45 796.594 684.049 796.73 690.179 798.143C703.731 801.155 716.447 807.214 730.39 808.435C735.468 808.905 741.232 808.285 744.322 804.245C747.746 799.725 746.019 793.406 744.143 788.121C738.202 771.693 733.611 754.14 724.436 739.092Z" stroke="url(#paint3_linear_1643_6932)" stroke-miterlimit="10"/>
<path d="M727.685 801.579C715.332 799.4 703.741 794.691 691.61 791.884C690.078 791.531 688.527 791.307 687.105 791.101C677.54 789.72 666.82 794.506 660.519 784.228C657.756 779.606 657.414 773.751 659.453 768.767C662.79 760.276 672.233 757.021 677.489 749.863C679.617 747.003 681.118 743.921 682.6 740.968C684.823 736.539 686.694 732.719 689.67 731.301C693.773 729.386 697.689 728.764 701.438 729.306C710.357 730.593 716.256 738.175 718.908 742.648C725.615 753.777 730.065 766.823 734.164 779.555C735.654 783.86 736.922 787.87 738.689 792.084C739.958 795.17 740.285 799.308 737.622 801.299C735.699 802.736 733.077 802.622 730.75 802.286C729.753 801.878 728.719 801.728 727.685 801.579Z" stroke="url(#paint4_linear_1643_6932)" stroke-miterlimit="10"/>
<path d="M721.191 785.335C720.285 786.127 718.917 786.458 717.606 786.4C715.907 786.287 714.301 785.527 712.696 784.768C705.627 781.636 698.279 779.519 690.634 778.547C686.756 777.987 682.712 777.667 678.852 777.902C676.34 777.935 672.163 779.443 671.227 775.877C670.253 772.569 675.466 769.364 677.704 767.575C680.995 764.884 684.86 761.879 688.117 757.599C690.893 753.909 691.859 749.958 694.247 746.213C695.284 744.515 696.801 743.151 698.704 742.766C701.29 742.215 703.855 743.641 705.552 745.602C709.055 749.67 711.575 755.972 713.785 760.778C716.491 766.71 718.92 772.735 721.607 778.797C722.398 780.627 723.171 782.586 722.264 784.302C721.949 784.652 721.635 785.003 721.191 785.335Z" stroke="url(#paint5_linear_1643_6932)" stroke-miterlimit="10"/>
<path d="M706.341 772.107C706.027 772.458 705.583 772.789 705.047 772.844C704.512 772.899 703.865 772.805 703.348 772.731C700.505 772.32 697.717 771.522 694.929 770.723C694.302 770.501 693.526 770.389 693.084 769.797C692.512 769.187 692.365 768.374 692.736 767.636C693.144 766.639 694.622 766.456 695.288 765.497C696.102 764.427 696.566 763.042 697.03 761.658C697.604 760.421 699.753 756.509 701.245 758.968C701.558 759.541 701.594 760.206 701.778 760.76C702.253 763.864 703.671 766.839 705.57 769.225C706.123 769.964 706.786 770.852 706.526 771.738C706.36 771.978 706.36 771.978 706.341 772.107Z" stroke="url(#paint6_linear_1643_6932)" stroke-miterlimit="10"/>
<path d="M797.108 853.565C788.858 849.47 780.962 843.844 773.435 838.402C758.97 828.001 752.597 841.068 749.271 854.047C747.06 862.964 746.769 872.291 748.769 881.288C750.566 889.861 758.366 897.981 757.762 906.734C757.423 910.908 755.937 916.631 759.943 918.133C763.191 919.394 766.078 915.852 768.797 913.474C774.363 908.735 782.378 908.969 789.565 907.632C802.442 905.268 814.517 895.664 816.9 882.813C819.024 870.848 809.307 859.548 797.108 853.565Z" stroke="url(#paint7_linear_1643_6932)" stroke-miterlimit="10"/>
<path d="M770.501 897.094C770.372 897.075 770.261 896.927 770.132 896.909C766.866 894.853 766.376 889.109 764.737 885.837C763.412 883.139 761.957 880.421 761.572 878.519C759.866 870.223 759.273 859.713 763.422 851.999C766.7 845.743 773.244 854.341 777.1 856.877C781.676 859.913 786.4 862.838 791.457 865.284C799.337 869.193 804.979 875.813 804.048 880.429C802.819 887.114 795.589 893.327 787.183 894.884C785.834 895.085 784.208 895.378 782.601 895.542C778.981 895.943 774.063 898.928 770.501 897.094Z" stroke="url(#paint8_linear_1643_6932)" stroke-miterlimit="10"/>
<path d="M774.169 889.97C771.289 888.894 771.812 885.275 770.559 882.983C769.62 881.264 768.202 878.288 767.964 877.198C767.175 873.522 766.793 869.772 766.817 865.949C766.893 864.508 766.771 859.872 768.452 859.191C770.134 858.51 776.682 864.338 778.269 865.227C782.772 867.856 787.385 870.634 791.887 873.263C794.083 874.504 796.371 876.022 796.811 878.461C797.196 880.364 796.251 882.338 794.864 883.721C793.476 885.105 791.647 885.896 789.707 886.54C786.214 887.883 782.758 888.967 779.211 889.774C777.567 890.197 775.812 890.471 774.187 889.841C774.298 889.989 774.298 889.989 774.169 889.97Z" stroke="url(#paint9_linear_1643_6932)" stroke-miterlimit="10"/>
<path d="M1035 931.328C1022.34 912.083 1015.48 884.7 1030.63 867.491C1038.07 858.933 1049.34 854.886 1059.01 849.157C1085.41 833.571 1102.69 800.703 1094 771.342C1085.18 741.963 1046.19 724.063 1020.87 741.386C1005.19 752.185 1000.33 762.041 981.86 764.783C967.839 766.849 950.076 763.756 941.06 777.761C935.099 787.061 934.817 802.722 923.769 804.294C920.666 804.77 917.528 803.657 914.686 802.323C888.034 790.425 874.059 761.093 851.222 742.885C842.81 736.26 832.493 730.944 821.817 731.777C811.121 732.74 800.728 741.664 801.414 752.451C802.063 762.573 811.232 769.439 817.907 777.133C831.347 792.796 835.064 814.577 846.304 831.771C856.771 847.929 873.21 859.276 886.043 873.664C926.424 918.421 882.39 969.33 829.655 947.993C826.664 946.769 823.582 945.268 820.313 945.06C796.638 943.621 834.388 969.129 835.103 972.399C837.086 980.602 835.189 989.169 836.081 997.611C837.794 1013.17 849.373 1026.18 863.029 1033.96C876.684 1041.74 892.175 1045.03 907.5 1048.57C934.806 1055.02 958.055 1070.38 986.272 1073.27C1011.5 1075.85 1039.03 1069.8 1056.71 1051.5C1072.36 1035.42 1078.31 1010.68 1071.91 989.175C1065.33 967.112 1047.53 950.555 1035 931.328Z" stroke="url(#paint10_linear_1643_6932)" stroke-miterlimit="10"/>
<path d="M994.824 1060.65C992.46 1060.57 990.096 1060.49 987.64 1060.14C973.199 1058.71 959.724 1053.34 945.493 1047.72C934.381 1043.34 923.029 1038.8 910.53 1035.81L907.853 1035.16C893.931 1031.96 880.786 1028.87 869.566 1022.5C857.848 1015.93 850.309 1006 849.234 996.08C848.378 988.303 845.347 977.309 850.659 969.763C858.618 958.509 872.664 964.496 883.458 959.193C895.102 953.485 904.776 944.061 910.168 932.304C920.008 910.765 914.8 885.602 895.919 864.666C890.683 858.896 884.984 853.587 879.635 848.592C871.132 840.767 863.109 833.274 857.379 824.53C853.177 817.985 850.03 810.537 846.699 802.535C841.915 790.892 836.909 778.953 827.875 768.412C826.179 766.452 824.464 764.621 822.749 762.79C818.858 758.665 814.727 754.374 814.51 751.308C814.348 748.777 818.473 744.886 823.017 744.487C823.552 744.432 824.217 744.396 824.734 744.471C830.127 744.59 836.439 747.481 843.191 752.81C851.363 759.268 858.462 767.682 865.91 776.411C878.097 790.706 890.726 805.593 909.441 813.97C912.542 815.341 916.788 817.01 921.793 817.073C923.104 817.13 924.434 817.058 925.653 816.838C940.746 814.663 945.772 800.874 948.703 792.456C949.797 789.448 950.929 786.18 952.113 784.372C955.168 779.667 960.562 778.862 972.383 778.326C976.115 778.073 979.975 777.839 983.873 777.346C1000.46 774.859 1009.04 767.521 1017.31 760.534C1020.62 757.713 1024.08 754.781 1028.33 751.833C1032.88 748.663 1038.37 747.212 1044.55 747.314C1060.86 747.689 1077.06 759.793 1081.64 774.704C1084.83 785.458 1083.58 797.812 1078.06 809.551C1072.55 821.16 1063.45 831.193 1052.62 837.678C1050.18 839.041 1047.74 840.404 1045.02 841.859C1037.04 845.985 1028.03 850.755 1020.95 858.704C1008 873.46 1001.19 903.223 1024.23 938.349C1028.56 944.913 1033.22 950.996 1037.9 956.95C1047.14 968.84 1055.82 979.99 1059.66 992.684C1064.73 1009.65 1059.88 1029.53 1047.64 1042.15C1035.43 1054.5 1016.38 1061.25 994.824 1060.65Z" stroke="url(#paint11_linear_1643_6932)" stroke-miterlimit="10"/>
<path d="M992.552 1048.05C982.156 1046.94 971.799 1043.73 961.683 1040.69C938.828 1033.56 916.103 1026.45 893.248 1019.33C884.664 1016.63 868.718 1009.19 862.984 1002.29C858.688 997.313 858.258 988.41 863.786 984.854C866.707 982.9 870.53 982.925 874.132 982.653C895.725 981.153 914.144 965.998 922.392 946.341C932.087 923.065 927.991 895.688 916.148 873.525C906.682 855.928 885.778 840.77 871.726 826.601C869.882 824.751 868.038 822.902 867.34 820.426C866.642 817.95 867.625 814.793 869.991 813.947C873.317 812.844 876.138 816.154 878.239 818.964C891.733 836.087 918.213 839.119 937.673 831.373C949.298 826.718 954.612 817.325 963.766 809.674C968.427 805.728 974.082 803.114 979.479 800.463C994.229 793.356 1008.96 786.378 1023.58 779.252C1033.21 774.705 1044.57 770.012 1054.04 774.81C1062.88 779.385 1066.19 791.211 1063.48 800.848C1060.77 810.485 1053.22 817.972 1045.12 823.796C1037.02 829.62 1027.93 834.113 1019.94 840.085C1004.54 851.716 993.708 869.154 989.93 888.005C986.282 906.875 989.687 927.16 999.58 943.631C1007.96 957.773 1020.73 968.985 1029.96 982.721C1039.21 996.329 1044.74 1014.68 1036.96 1029.26C1030.44 1041.51 1016.06 1047.88 1002.12 1048.5C999.09 1048.46 995.802 1048.38 992.552 1048.05Z" stroke="url(#paint12_linear_1643_6932)" stroke-miterlimit="10"/>
<path d="M1010.29 1030.29C1005.73 1029.89 1001.26 1028.85 996.812 1027.68C970.097 1020.79 943.493 1014.04 916.778 1007.15C913.842 1006.46 910.686 1005.48 909.212 1002.89C907.407 999.861 908.798 995.708 911.387 993.311C913.977 990.914 917.451 989.7 920.704 988.19C953.269 973.759 962.911 936.225 957.437 903.766C956.009 895.379 953.639 887.12 950.437 879.136C947.659 871.873 925.777 857.102 945.474 851.369C949.207 850.193 953.232 850.642 957.241 850.297C969.045 848.967 976.192 836.935 984.348 829.8C992.799 822.443 1002.82 817.028 1012.87 812.278C1021.65 808.136 1035.91 805.313 1042.91 798.933C1045.03 796.997 1046.94 794.765 1049.49 793.55C1052.04 792.335 1055.68 792.728 1057.04 795.168C1057.98 796.887 1057.51 799.195 1056.35 800.874C1055.18 802.553 1053.43 803.751 1051.69 804.82C1035.79 815.323 1018.36 824.55 1005.72 838.956C994.066 852.052 985.915 868.293 982.509 885.482C977.93 908.969 982.306 934.408 994.521 954.909C1000.05 964.152 1006.59 971.826 1012.92 979.205C1017.54 984.624 1021.84 989.598 1025.43 994.868C1032.93 1005.98 1037.73 1023.96 1020.62 1029.14C1017.4 1030.39 1013.8 1030.66 1010.29 1030.29Z" stroke="url(#paint13_linear_1643_6932)" stroke-miterlimit="10"/>
<path d="M1010.4 1009.45C1007.24 1009.39 1003.56 1008.34 1001.35 1008.15C990.545 1007.12 979.853 1006.23 969.05 1005.2C960.98 1004.43 951.486 1004.38 943.863 1001.43C941.242 1000.39 938.974 997.822 939.255 994.96C939.555 991.968 943.475 989.499 945.38 987.267C948.433 983.485 951.247 979.537 953.691 975.404C957.876 968.355 960.934 960.879 963.643 953.089C965.238 948.437 968.451 936.234 974.878 936.502C983.43 936.681 981.813 955.185 984.982 960.657C991.889 973.134 1001.44 984.673 1011.03 995.031C1013.31 997.472 1015.58 1000.04 1016.17 1003.29C1017.16 1008.32 1014.07 1009.59 1010.4 1009.45Z" stroke="url(#paint14_linear_1643_6932)" stroke-miterlimit="10"/>
<path d="M1006.77 1000.75C1006.07 1001.97 1004.2 1002.09 1002.65 1001.87C993.547 1000.95 984.313 1000.01 975.209 999.095C968.063 998.327 960.34 999.719 953.085 997.88C948.247 996.654 948.693 995.398 950.989 991.376C952.748 988.331 954.858 985.6 956.727 982.704C959.838 977.611 962.598 972.203 964.97 966.74C966.546 963.141 967.667 954.462 972.065 953.249C977.183 951.613 979.276 959.965 980.638 963.328C985.79 976.08 994.176 987.451 1004.78 996.24C1006.07 997.35 1007.68 999.033 1006.77 1000.75ZM1006.77 1000.75C1006.79 1000.62 1006.79 1000.62 1006.77 1000.75Z" stroke="url(#paint15_linear_1643_6932)" stroke-miterlimit="10"/>
<path d="M980.876 989.094C977.219 988.829 967.593 991.53 964.901 988.238C961.878 984.503 966.781 978.877 969.02 976.166C973.96 970.281 977.123 979.447 979.869 983.274C980.754 984.458 984.902 989.543 980.876 989.094Z" stroke="url(#paint16_linear_1643_6932)" stroke-miterlimit="10"/>
<path d="M966.947 892.736C960.739 894.61 963.567 880.504 961.157 874.35C959.63 870.303 950.431 870.954 953.748 863.515C956.936 856.059 956.002 863.445 957.221 863.225C967.012 862.132 972.703 848.307 979.901 851.457C987.099 854.608 970.598 872.018 968.457 883.189C967.732 886.383 973.156 890.861 966.947 892.736Z" stroke="url(#paint17_linear_1643_6932)" stroke-miterlimit="10"/>
<path d="M1093.05 969.795L1092.91 969.906C1090.71 971.435 1089.76 974.334 1089.65 976.956C1089.3 986.671 1094.47 997.446 1096.69 1006.74C1099.34 1017.68 1101.42 1028.8 1103 1039.85C1106.29 1062.75 1110.8 1091.78 1104.23 1114.45C1102.86 1119.39 1101.35 1125.25 1104.47 1129.26C1108.04 1133.73 1114.86 1133.13 1120.4 1131.3C1133.14 1127.2 1141.11 1119.51 1151.02 1111.17C1161.39 1102.38 1175.11 1096.97 1186.88 1090.36C1191.91 1087.52 1197.64 1083.47 1196.89 1077.68C1196.24 1072.18 1190.02 1069.57 1184.77 1067.49C1144 1051.04 1128.37 1007.62 1103.83 974.65C1101.53 971.415 1097.6 966.625 1093.05 969.795Z" stroke="url(#paint18_linear_1643_6932)" stroke-miterlimit="10"/>
<path d="M1110.82 1116.32C1110.79 1112.89 1112.39 1109.16 1112.83 1106.06C1113.88 1098.82 1114.26 1091.61 1114.12 1084.34C1113.92 1070.19 1111.86 1056.17 1109.9 1042.29L1109.44 1039.06C1107.38 1025.04 1104.46 1011.42 1100.62 997.806C1100.29 996.439 1099.87 994.794 1100.81 993.743C1104.11 990.128 1115.31 1003.89 1116.68 1006.33C1124.8 1019.51 1133.04 1032.84 1143.22 1044.6C1154.52 1057.71 1167.01 1065.32 1181.96 1073.28C1183.8 1074.21 1185.43 1075.76 1186.05 1077.83C1186.93 1080.86 1185.12 1084.3 1182.47 1086.16C1177.76 1089.57 1170.76 1091.46 1165.6 1094.28C1159.02 1097.81 1152.53 1101.63 1146.69 1106.46C1145.48 1107.47 1144.43 1108.37 1143.23 1109.39C1137.51 1114.24 1130.28 1121.37 1123.17 1124.04C1119.67 1125.38 1115.24 1125.01 1112.73 1122.27C1111.32 1120.22 1110.93 1118.32 1110.82 1116.32Z" stroke="url(#paint19_linear_1643_6932)" stroke-miterlimit="10"/>
<path d="M1120.46 1094.36C1118.8 1093.06 1118.19 1089.94 1118.07 1088.07C1117.87 1082.11 1122.06 1076.91 1121.99 1070.96C1121.75 1058.92 1115.99 1047.66 1114.14 1035.78C1113.86 1034.03 1113.59 1032.27 1113.96 1030.61C1114.2 1028.93 1115.11 1027.21 1116.57 1026.24C1122.21 1022.83 1125.76 1032.05 1127.36 1035.58C1130.38 1042.09 1135.55 1047.45 1141.26 1051.71C1146.5 1055.63 1152.36 1058.06 1157.8 1061.48C1161.54 1063.87 1162.35 1068.34 1157.38 1069.87C1151.3 1071.76 1146.05 1073.38 1140.76 1077.1C1138.42 1078.74 1136.16 1080.66 1134.03 1082.59C1132.04 1084.55 1130.42 1087.48 1128.21 1089.14C1126.89 1090.93 1124.3 1095.18 1121.7 1094.93C1121.33 1094.75 1120.83 1094.54 1120.46 1094.36Z" stroke="url(#paint20_linear_1643_6932)" stroke-miterlimit="10"/>
<path d="M1208.02 276.883C1201.21 260.066 1188.39 246.472 1174.65 234.723C1103.04 173.186 1004.32 152.333 909.958 152.431C890.159 152.475 869.822 153.497 851.968 162.003C830.417 172.351 814.63 193.955 811.196 217.738C805.147 260.541 852.532 290.607 845.195 330.453C840.65 355.527 823.534 377.203 827.206 403.86C829.086 418.251 839.686 431.657 837.079 446.059C834.117 462.917 815.172 471.662 806.211 486.202C786.863 517.848 819.224 565.142 795.928 593.975C788.711 602.829 777.881 607.467 769.061 614.638C760.24 621.81 753.314 634.137 758.452 644.247C767.585 662.324 796.879 649.532 814.78 658.978C828.012 666.035 831.771 683.864 843.781 692.987C857.562 703.554 878.808 698.969 890.666 686.298C902.506 673.757 906.597 655.478 906.715 638.209C906.829 623.711 904.358 608.839 897.211 596.196C885.845 576.213 862.267 559.481 865.958 536.658C869.371 514.851 897.001 502.611 899.638 480.691C902.33 459.308 879.733 440.343 883.57 419.256C885.152 411.04 890.667 403.919 897.342 398.813C926.205 377.118 967.794 392.492 997.24 413.369C1026.69 434.247 1055.64 461.256 1091.64 462.363C1124.22 463.373 1155.95 439.188 1163.55 407.562C1167.8 389.967 1165.64 370.257 1175.83 355.367C1183.16 344.814 1195.53 338.682 1203.34 328.462C1214.37 314.22 1214.82 293.701 1208.02 276.883Z" stroke="url(#paint21_linear_1643_6932)" stroke-miterlimit="10"/>
<path d="M862.574 686.201C859.73 685.79 857.368 684.789 855.338 683.309C851.778 680.551 848.775 675.763 845.55 670.679C840.501 662.693 834.827 653.561 824.529 648.115C820.118 645.763 815.189 644.259 809.243 643.401C803.427 642.561 797.757 642.534 792.216 642.526C787.728 642.537 783.387 642.438 779.897 641.934C774.727 641.188 774.12 639.913 773.715 639.062C772.278 636.216 775.723 629.72 780.957 625.461C783.656 623.212 786.855 621.167 790.201 619.011C796.746 614.81 804.03 610.056 809.821 602.843C825.55 583.474 822.04 559.347 818.932 537.918C816.501 520.941 814.198 504.906 821.104 493.631C823.715 489.258 828.136 485.146 832.723 480.794C841.286 472.662 851.07 463.387 853.678 448.984C855.839 436.761 851.828 426.153 848.167 416.784C846.254 411.757 844.432 407.008 843.866 402.704C842.076 389.514 846.878 377.276 852.329 363.284C856.056 353.926 859.857 344.05 861.794 333.378C866.263 308.82 854.363 287.969 843.845 269.428C834.377 252.754 825.425 237.079 827.888 220.017C830.669 200.757 843.828 182.733 861.405 174.318C877.282 166.715 896.768 166.097 913.797 166.049C941.52 165.962 968.427 167.868 993.761 171.526C1065.89 181.94 1125.12 206.723 1169.98 245.133C1179.72 253.533 1193.29 266.445 1199.71 282.283C1205.34 296.291 1204.19 311.564 1196.76 321.046C1193.98 324.736 1189.95 327.98 1185.6 331.575C1179.93 336.165 1173.62 341.457 1168.77 348.542C1160.24 361.033 1158.53 375.566 1157.09 388.289C1156.36 394.253 1155.82 399.849 1154.54 405.074C1148.35 430.571 1121.94 450.773 1095.68 449.884C1093.32 449.807 1090.97 449.6 1088.65 449.264C1065.77 445.961 1045.4 430.748 1023.83 414.703C1018.83 410.946 1013.59 407.022 1008.32 403.358C988.336 389.124 966.483 379.635 946.965 376.817C926.413 373.849 907.734 378.014 893.219 388.981C883.142 396.631 876.422 406.613 874.467 417.414C871.637 432.444 877.952 445.364 883.42 456.842C887.489 465.215 891.227 473.144 890.404 479.754C889.526 486.753 883.698 493.301 876.797 500.881C868.472 510.104 859.037 520.617 856.799 535.204C853.461 556.495 866.328 572.472 877.61 586.636C882.182 592.443 886.551 597.824 889.59 603.277C894.84 612.612 897.482 624.473 897.405 638.713C897.387 650.718 895.146 667.153 885.008 677.96C879.274 683.862 870.071 687.283 862.574 686.201Z" stroke="url(#paint22_linear_1643_6932)" stroke-miterlimit="10"/>
<path d="M861.162 680.454C858.319 679.12 856.589 675.572 854.543 672.373C850.14 665.404 845.717 658.563 839.816 652.829C831.498 644.634 823.69 642.055 812.668 638.881C810.01 638.101 807.111 637.155 805.6 634.825C803.776 631.923 804.743 627.972 806.963 625.389C811.385 620.354 815.911 619.16 819.448 612.941C823.837 605.394 826.583 597.345 827.575 588.648C829.596 570.994 825.43 553.239 822.926 535.855C820.916 521.446 824.28 507.285 828.428 500.494C830.149 497.708 834.126 493.928 838.103 490.148C844.521 484.081 847.878 474.537 853.743 467.731C858.498 462.215 866.648 458.774 870.33 467.091C874.214 475.833 866.243 482.599 861.063 488.317C851.147 499.42 845.602 514.058 842.487 534.721C839.503 553.555 842.443 576.148 854.147 591.957C864.322 605.566 874.699 619.6 878.053 636.578C880.253 647.848 880.823 674.057 867.849 679.837C865.002 681.273 862.897 681.233 861.162 680.454Z" stroke="url(#paint23_linear_1643_6932)" stroke-miterlimit="10"/>
<path d="M854.755 396.754C846.112 396.298 857.99 369.775 859.863 365.032C863.608 355.544 867.78 344.93 869.903 332.965C874.168 309.829 866.244 285.198 853.881 265.731C842.07 247.004 830.849 228.757 842.944 206.224C856.15 181.477 881.434 181.829 905.592 181.754C931.985 181.739 957.729 183.476 981.771 186.948C1043.81 195.907 1102.4 217.826 1150.42 259.066C1159.7 267.004 1168.92 276.252 1172.22 288.078C1178.82 311.858 1153.83 320.39 1142.64 336.719C1132.1 352.088 1130.18 369.095 1128.62 382.594C1127.99 387.912 1127.39 392.972 1126.4 397.052C1122.09 415.035 1102.68 429.782 1084.15 429.218C1082.45 429.105 1080.75 428.991 1078.94 428.73C1060.46 426.061 1041.99 412.31 1022.46 397.746C1017.46 393.989 1012.22 390.065 1006.94 386.4C985.28 371.001 961.544 360.844 939.958 357.727C924.059 355.432 906.437 356.846 891.448 363.786C883.667 367.413 876.456 372.574 870.647 378.992C866.558 383.548 861.829 396.193 855.013 396.792C855.142 396.81 854.884 396.773 854.755 396.754Z" stroke="url(#paint24_linear_1643_6932)" stroke-miterlimit="10"/>
<path d="M864.644 660.901C858.183 659.044 853.933 648.27 849.082 643.479C843.421 637.911 826.119 635.281 826.799 625.087C826.97 622.077 833.524 611.411 835.099 607.812C837.657 601.979 840.25 596.812 847.206 601.643C857.28 608.64 862.94 627.93 865.139 639.2C866.514 646.128 867.942 654.515 864.644 660.901Z" stroke="url(#paint25_linear_1643_6932)" stroke-miterlimit="10"/>
<path d="M936.935 746.024C917.934 743.281 908.148 728.804 908.591 716.597C908.804 710.558 911.157 705.223 912.843 701.772C917.678 692.046 924.636 683.154 931.409 674.632C942.882 660.058 953.707 646.315 952.18 630.392C950.943 617.941 942.444 607.346 933.355 596.269C931.346 593.735 929.207 591.183 927.087 588.502C911.198 567.866 907.647 546.769 917.698 531.99C920.734 527.414 924.784 524.04 928.556 520.758C933.235 516.684 937.433 513.199 938.622 508.621C939.551 504.928 938.597 500.568 937.551 495.93C937.037 494.009 936.671 491.977 936.323 489.815C933.412 472.505 940.31 454.896 953.215 445.939C958.928 442.013 965.357 440.435 972.337 441.443C986.039 443.421 999.32 454.707 1012.14 465.531C1020.85 472.858 1029.07 479.852 1036.05 482.707C1040.04 484.338 1044.28 486.007 1048.29 487.509C1063.41 493.386 1079.15 499.487 1092.62 509.48C1105.24 518.956 1117.81 537.001 1125.13 556.663C1138.85 593.217 1131.99 624.29 1107.22 637.736C1092.32 645.877 1075 643.376 1059.6 641.284C1057.92 641.041 1056.37 640.817 1054.69 640.575C1035 637.996 1021.65 640.95 1014.74 649.454C1011.52 653.475 1009.67 659.013 1007.8 664.681L1007.54 665.567C1001.25 684.452 994.87 699.365 987.481 712.154C976.593 730.902 964.331 741.799 949.827 745.379C945.707 746.499 941.329 746.659 936.935 746.024Z" stroke="url(#paint26_linear_1643_6932)" stroke-miterlimit="10"/>
<path d="M1117.33 561.343C1110.26 542.641 1098.58 525.779 1087.03 517.118C1070.7 504.996 1050.75 498.816 1031.81 491.067C1008.88 481.687 978.882 437.241 955.272 453.625C943.679 461.716 938.669 477.223 941.012 491.152C942.22 498.32 945.128 505.602 943.307 512.728C940.409 523.658 927.805 528.699 921.438 538.072C911.535 552.74 919.852 572.811 930.617 586.901C941.382 600.991 955.27 614.476 956.942 632.135C959.651 660.896 929.811 681.131 916.954 707.116C915.083 710.936 913.562 715.071 913.352 719.264C912.701 734.74 931.506 745.24 946.564 741.477C961.622 737.713 972.336 724.745 980.076 711.348C988.335 697.102 994.398 681.616 999.685 666.017C1001.8 659.593 1003.8 653.021 1008.12 647.837C1018.42 634.943 1037.63 634.417 1053.96 636.511C1070.26 638.733 1087.97 642.213 1102.42 634.404C1128.04 620.554 1127.83 589.118 1117.33 561.343Z" stroke="url(#paint27_linear_1643_6932)" stroke-miterlimit="10"/>
<path d="M939.734 726.636C934.176 725.833 928.032 721.779 928.15 717.31C928.263 715.611 928.987 713.34 930.45 710.517C934.378 702.507 940.484 694.943 946.813 686.753C959.563 670.648 974.089 652.293 971.724 628.464C970.015 610.139 958.585 596.085 948.612 583.825C946.602 581.292 944.574 578.888 942.675 576.502C935.026 566.425 928.048 551.694 933.935 542.912C935.453 540.624 938.319 538.135 941.333 535.535C947.362 530.336 954.741 524.012 957.564 513.599C959.682 505.328 958.013 497.698 956.655 491.564C956.252 489.79 955.829 488.146 955.647 486.668C954.018 476.932 957.598 466.761 964.475 462.08C966.084 460.993 967.58 460.681 969.648 460.98C977.792 462.155 989.302 471.998 999.669 480.621C1009.54 489.039 1018.96 496.866 1028.67 500.907C1032.92 502.576 1037.16 504.244 1041.28 505.894C1055.9 511.568 1069.65 516.852 1081.09 525.366C1090.74 532.565 1100.97 547.633 1106.96 563.673C1111.84 576.517 1113.72 589.06 1112.28 599.013C1110.81 609.225 1106.24 616.218 1098.07 620.712C1088.77 625.703 1076.08 624.003 1062.51 622.044C1060.83 621.801 1059.15 621.558 1057.47 621.316C1030.55 617.692 1011.15 623.204 999.728 637.39C994.251 644.252 991.691 651.931 989.39 658.725L989.13 659.611C983.286 677.24 977.355 690.899 970.652 702.598C962.726 716.365 954.162 724.497 945.275 726.644C943.52 726.919 941.673 726.916 939.734 726.636Z" stroke="url(#paint28_linear_1643_6932)" stroke-miterlimit="10"/>
<path d="M992.385 607.827C980.406 603.062 980.098 586.92 973.057 577.194C966.993 568.929 954.538 561.061 954.425 549.96C954.353 536.755 972.062 526.512 974.116 511.371C975.218 503.744 978.334 494.958 985.706 493.251C996.606 490.866 1011.59 509.525 1021.69 513.622C1026.05 515.438 1030.42 517.125 1034.56 518.646C1048.55 524.097 1060.42 528.714 1069.71 535.599C1081.74 544.593 1102.21 578.293 1090.65 592.59C1086.15 598.142 1078.45 600.329 1071.26 599.819C1055.2 598.687 1045.5 594.517 1028.64 598.019C1017.63 600.256 1005.7 611.596 994.028 608.328C993.641 608.272 993.013 608.05 992.385 607.827Z" stroke="url(#paint29_linear_1643_6932)" stroke-miterlimit="10"/>
<path d="M999.303 588.242C993.026 586.939 992.593 579.883 990.717 574.598C988.179 567.502 983.996 560.828 978.093 556.017C974.072 552.798 969.812 548.488 970.3 543.28C970.507 540.935 971.618 538.72 972.84 536.654C977.693 527.722 982.545 518.79 987.398 509.858C992.954 499.708 999.964 505.075 1006.42 510.625C1016.14 519.154 1027.92 523.494 1039.81 527.981C1057.8 534.934 1073.71 545.412 1081.03 564.151C1082.87 568.771 1082.42 574.644 1078.77 577.944C1073.43 582.979 1064.97 580.306 1057.85 578.486C1043.83 575.011 1028.54 576.761 1015.6 583.206C1011.05 585.452 1006.4 588.474 1001.28 588.263C1000.47 588.41 999.82 588.316 999.303 588.242Z" stroke="url(#paint30_linear_1643_6932)" stroke-miterlimit="10"/>
<path d="M1009.24 561.438C1003.39 559.01 999.318 553.408 995.595 548.12C992.425 543.572 989.163 538.746 988.119 533.185C984.18 512.032 1003.89 519.893 1014.47 524.323C1025.42 528.938 1036.97 532.982 1046.97 539.572C1049.74 541.423 1057.91 546.034 1056.26 550.151C1054.8 553.898 1033.18 558.298 1029.03 559.677C1023.19 561.736 1016.83 563.722 1010.89 561.94C1010.37 561.865 1009.74 561.642 1009.24 561.438Z" stroke="url(#paint31_linear_1643_6932)" stroke-miterlimit="10"/>
<path d="M1322.9 508.423C1319.81 486.865 1315.39 465.378 1307.79 444.884C1302.5 430.396 1295.19 416.145 1283.56 406.154C1272.88 396.959 1259.35 391.97 1246.21 387.037C1205.99 372.257 1210.8 437.609 1198.2 457.297C1187.94 473.497 1170.71 484.996 1151.86 488.477C1144.95 489.723 1137.66 489.989 1131.6 493.6C1125.53 497.211 1121.9 505.923 1126.25 511.433C1127.91 513.652 1130.64 514.838 1132.93 516.356C1145.66 525.056 1147.29 542.974 1145.89 558.209C1144.48 573.444 1141.31 589.877 1148.44 603.574C1152.88 612.132 1161.05 618.59 1164.49 627.664C1170.54 643.316 1160.89 660.792 1162.72 677.418C1164.3 692.029 1177.25 705.642 1192.01 704.87C1211.31 703.699 1221.74 681.717 1224.63 662.606C1227.52 643.494 1228.13 621.941 1242.16 608.794C1258.5 593.47 1285.72 596.873 1303.96 583.805C1315.13 575.917 1321.54 562.592 1323.87 549.205C1326.22 535.689 1324.78 521.89 1322.9 508.423Z" stroke="url(#paint32_linear_1643_6932)" stroke-miterlimit="10"/>
<path d="M1188.36 698.142C1178.92 696.779 1170.42 687.107 1169.16 676.633C1168.47 670.463 1169.68 663.908 1170.95 656.966C1172.85 646.552 1174.65 635.861 1170.53 625.105C1168.21 619.229 1164.55 614.476 1160.84 609.983C1158.28 606.71 1155.81 603.714 1154.17 600.443C1149.01 590.461 1150.27 578.107 1151.62 565.107C1151.81 562.891 1152.11 560.822 1152.27 558.736C1154.38 535.948 1148.99 519.335 1136.5 510.802C1135.78 510.302 1135.04 509.932 1134.45 509.451C1133.12 508.599 1131.91 507.896 1131.35 507.156C1131.24 507.008 1130.69 506.268 1130.91 504.717C1131.36 502.539 1133.03 500.14 1134.91 498.961C1138.39 496.824 1143.1 496.184 1148.08 495.453C1149.71 495.16 1151.32 494.996 1152.94 494.703C1173.41 490.929 1192.4 478.232 1203.66 460.593C1208.1 453.581 1210.44 442.835 1212.9 431.314C1218.42 405.853 1223.19 389.256 1237.93 391.384C1239.74 391.645 1241.77 392.202 1243.78 392.889C1256.32 397.469 1269.22 402.235 1279.2 410.802C1288.24 418.573 1295.29 430.016 1301.57 446.888C1308 464.443 1312.68 484.12 1316.34 509.06C1318.06 520.92 1319.63 534.737 1317.46 547.884C1315.17 561.013 1308.95 572.122 1300.15 578.24C1292.66 583.493 1283.22 585.824 1273.11 588.192C1260.55 591.128 1247.56 594.267 1237.61 603.782C1224.03 616.468 1221.53 635.636 1219.36 652.477C1218.91 655.579 1218.61 658.571 1218.07 661.396C1215.39 679.085 1206.16 697.282 1191.53 698.073C1190.55 698.459 1189.39 698.291 1188.36 698.142Z" stroke="url(#paint33_linear_1643_6932)" stroke-miterlimit="10"/>
<path d="M1183.33 675.379C1181.93 674.121 1181.01 672.273 1180.76 670.389C1180.23 666.75 1181.84 662.892 1182.47 659.421C1184.58 647.585 1187.22 632.924 1181.06 617.123C1175.41 602.321 1162.92 595.635 1162.92 578.218C1162.88 567.524 1165.12 556.63 1162.53 546.228C1160.18 536.916 1153.76 528.337 1154.5 518.678C1155.37 506.268 1167.51 497.994 1178.79 493.024C1191.04 487.668 1202.28 482.956 1210.46 471.998C1219.95 459.25 1223.93 443.594 1224.47 427.969C1224.6 423.371 1224.5 418.605 1226.91 414.73C1234.11 403.235 1249.05 413.97 1255.84 419.964C1263.92 427.068 1268.98 440.466 1273.27 450.058C1283.45 472.773 1289.67 497.291 1291.22 522.19C1291.96 533.513 1291.52 545.721 1284.78 554.908C1276.4 566.365 1261.03 569.556 1247.24 572.712C1229.91 576.675 1219.14 583.696 1208.4 597.716C1197.34 612.217 1194.43 631.457 1192.16 648.945C1191.25 657.125 1188.61 669.015 1183.33 675.379Z" stroke="url(#paint34_linear_1643_6932)" stroke-miterlimit="10"/>
<path d="M1189.43 610.284C1185.29 610.611 1182.77 603.385 1180.53 599.762C1178.09 595.584 1176.11 591.075 1176.17 586.07C1176.21 583.041 1176.4 579.901 1176.61 576.632C1177.08 568.784 1177.69 560.03 1175.43 550.995C1174.35 546.616 1172.67 542.68 1171.2 539.168C1169.32 534.807 1167.55 530.593 1167.85 527.601C1168.16 522.763 1174.35 517.324 1184.37 512.832L1186.07 512.022C1198.47 506.555 1211.43 500.905 1221.27 487.548C1231.56 473.859 1233.38 455.78 1236.55 439.347C1236.99 437.168 1237.61 434.75 1239.62 433.589C1241.19 432.76 1243.13 433.04 1244.57 434.04C1246.03 434.91 1247.13 436.389 1248.24 437.868C1266.89 464.049 1276.44 499.34 1278.46 531.037C1279.02 539.035 1279.03 549.064 1274.44 555.263C1269.16 562.55 1257.17 565.173 1245.57 567.852L1244.48 568.091C1233.43 570.586 1222.91 574.874 1214 581.768C1208.51 585.989 1204.07 591.154 1199.98 596.633C1197.19 600.452 1195.85 606.065 1192.11 609.088C1191.21 609.881 1190.23 610.267 1189.43 610.284Z" stroke="url(#paint35_linear_1643_6932)" stroke-miterlimit="10"/>
<path d="M1192.34 596.584C1190.99 596.786 1189.9 595.177 1189.93 590.43C1189.91 587.789 1190.08 584.779 1190.27 581.64C1191.08 568.694 1191.2 555.119 1185.27 543.179C1183.83 540.332 1182.45 537.098 1182.9 533.996C1183.54 528.678 1189.47 527.818 1193.55 526.033C1206.52 520.253 1221.31 513.811 1232.93 498.203C1239.48 489.385 1243.54 478.623 1244.72 467.71C1244.95 465.235 1245.36 462.391 1247.61 461.397C1249.57 460.625 1251.79 461.736 1252.99 463.493C1256.97 469.741 1259.3 479.183 1261.69 486.389C1265.88 498.475 1269.09 510.946 1271.09 523.638C1272.42 531.748 1273.17 540.3 1269.96 547.887C1264.81 559.81 1254.78 560.737 1243.71 562.438C1232.52 564.12 1220.06 570.898 1211.15 577.792C1207.43 580.686 1204.17 584.043 1201.16 587.566C1198.96 590.019 1194.88 596.293 1192.34 596.584Z" stroke="url(#paint36_linear_1643_6932)" stroke-miterlimit="10"/>
<path d="M1200.21 564.866C1199.7 564.791 1199.34 564.477 1198.99 564.162C1195.82 561.461 1197.18 553.872 1196.52 550.214C1195.55 545.059 1192.66 540.419 1191.95 535.302C1191.23 530.185 1196.37 530.267 1200.19 528.444C1203.04 527.008 1206.02 525.59 1208.75 524.006C1223.65 515.865 1237.92 504.731 1244.1 488.468C1244.53 487.342 1244.97 486.087 1246.12 485.461C1248.56 484.098 1249.59 487.941 1250.16 489.475C1251.72 493.263 1252.18 497.42 1253.19 501.392C1254.89 507.84 1256.31 514.51 1257.33 521.124C1258.61 528.698 1260.43 537.141 1253.94 542.802C1248.94 547.227 1241.63 547.622 1235.11 548.924C1226.81 550.629 1218.92 554.108 1212.13 559.066C1209.66 560.687 1203.89 565.924 1200.21 564.866Z" stroke="url(#paint37_linear_1643_6932)" stroke-miterlimit="10"/>
<path d="M1201.15 543.757C1201 543.867 1200.72 543.959 1200.57 544.07C1200 544.383 1199.32 544.548 1198.84 544.215C1198.23 543.863 1198.21 543.069 1198.32 542.293C1198.6 540.354 1199.03 538.305 1200.18 536.755C1202.16 534.006 1204.87 535.322 1207.44 533.977C1213.32 530.735 1217.89 525.589 1222.68 520.739C1225.6 517.862 1232.13 510.097 1237.06 513.447C1238.02 514.113 1238.63 515.389 1238.59 516.571C1238.46 519.322 1236.48 521.148 1237.21 524.289C1237.52 525.785 1238.24 527.208 1238.28 528.797C1238.2 530.237 1237.48 531.585 1236.31 532.34C1234.57 533.409 1231.42 533.348 1229.38 533.715C1228.04 533.916 1226.54 534.228 1225.19 534.429C1216.51 536.078 1208.95 540.001 1201.15 543.757Z" stroke="url(#paint38_linear_1643_6932)" stroke-miterlimit="10"/>
<path d="M1227.2 745.316C1222.03 730.847 1209.64 717.05 1195.09 715.477C1184.44 714.334 1173.44 718.289 1163.18 715.355C1148.46 711.251 1140.86 695.374 1130 684.701C1112.2 667.221 1085.28 663.597 1060.32 662.765C1055.47 662.592 1049.74 662.953 1047.04 667.049C1044.85 670.296 1045.55 674.619 1046.73 678.352C1050.97 691.896 1060.5 703.565 1072.66 710.731C1083.5 717.045 1096.03 719.779 1106.68 726.462C1127.94 740.088 1136.59 768.784 1130.53 793.376C1124.49 817.839 1106.01 837.998 1084.37 850.839C1071.54 858.355 1055.79 865.978 1053.14 880.639C1051.75 888.486 1054.95 896.47 1060 902.609C1065.05 908.749 1071.81 913.154 1078.63 917.043C1084.48 920.395 1091.09 923.988 1093.46 930.401C1095.63 936.388 1093.31 943.311 1094.8 949.463C1096.66 956.724 1103.2 961.629 1109.63 965.591C1115.92 969.534 1123.15 973.35 1130.6 972.05C1135.47 971.17 1139.71 968.351 1143.57 965.346C1160.2 952.572 1175.05 936.507 1181.36 916.57C1185.15 904.977 1185.87 892.677 1187.47 880.638C1191.19 853.068 1199.69 826.19 1212.51 801.386C1219.45 788.006 1229.84 774.594 1229.84 759.025C1229.68 754.647 1228.78 749.899 1227.2 745.316Z" stroke="url(#paint39_linear_1643_6932)" stroke-miterlimit="10"/>
<path d="M1126.52 958.265C1123.71 958.52 1121.02 957.998 1118.41 956.831C1112.86 954.181 1108.64 948.69 1107.41 942.574C1106.75 938.916 1107.01 935.26 1106.76 931.529C1106.04 919.153 1095.16 911.38 1085.26 905.861L1084.79 905.528C1079.54 902.528 1073.73 898.917 1069.81 894.128C1066.78 890.392 1065.18 885.939 1065.8 882.597C1066.95 875.506 1076.88 869.814 1086.53 864.214C1087.97 863.367 1089.39 862.648 1090.71 861.782C1117.55 845.865 1136.57 821.957 1142.94 796.091C1150.67 764.483 1138.59 731.202 1113.46 715.169C1106.82 710.911 1099.95 708.204 1093.32 705.664C1088.21 703.606 1083.21 701.696 1079.07 699.252C1074.7 696.641 1071.27 692.979 1068.16 688.967C1064.36 684.196 1054.92 674.651 1065.34 672.857C1068.72 672.29 1072.94 674.088 1075.92 675.44C1091.27 682.408 1107.58 680.937 1120.64 693.774C1123.53 696.567 1126.21 699.988 1129.12 703.576C1136.73 712.988 1145.21 723.713 1159.54 727.761C1161.18 728.262 1162.86 728.505 1164.67 728.766C1171.01 729.68 1177.16 729.117 1182.51 728.571C1186.52 728.226 1190.4 727.863 1193.65 728.2C1193.78 728.219 1193.91 728.237 1194.17 728.275C1202.18 729.432 1211.04 738.495 1214.99 749.491C1216.22 752.835 1216.83 755.958 1216.8 758.857C1216.75 768.35 1211.33 777.596 1206.38 785.327C1200.28 794.737 1195.38 804.851 1191.23 815.335C1183.22 836.083 1178.59 858.11 1174.64 879.972C1171.75 896.313 1168.94 913.06 1161.53 927.825C1156.08 938.123 1140.93 957.179 1126.52 958.265Z" stroke="url(#paint40_linear_1643_6932)" stroke-miterlimit="10"/>
<path d="M1123.83 951.28C1122.41 951.075 1121.16 950.63 1119.81 949.907C1116.28 947.815 1114.07 943.933 1113.34 939.869C1112.15 933.495 1113.75 927.92 1111.06 921.857C1108.65 916.627 1104.94 912.133 1100.61 908.341C1093.54 902.438 1083.79 899.579 1077.3 893.364C1074.41 890.571 1072.51 886.338 1073.74 882.424C1074.92 878.769 1078.44 876.374 1081.84 874.753C1113.02 859.859 1140.87 832.344 1149.38 798.078C1157.78 763.663 1144.54 727.443 1117.12 709.893C1110 705.302 1102.87 702.557 1095.88 699.832C1090.88 697.922 1086.26 696.068 1082.5 693.809C1080.19 692.421 1072.16 687.699 1072.8 684.227C1073.82 678.042 1088.44 686.486 1091.48 687.322C1101.05 689.626 1109.19 691.725 1116.25 698.551C1118.8 701.03 1121.49 704.322 1124.16 707.742C1132 717.451 1141.6 729.526 1157.83 734.112C1159.73 734.651 1161.65 735.06 1163.72 735.358C1170.83 736.385 1177.64 735.786 1183 735.24C1186.75 734.857 1190.22 734.567 1192.83 734.811L1193.09 734.849C1198 735.558 1205.3 742.55 1208.72 751.753C1209.68 754.266 1210.1 756.834 1210.08 758.811C1210.03 766.457 1205.16 774.595 1200.7 781.735C1194.59 791.146 1189.37 801.739 1184.99 812.851C1176.76 834.227 1171.99 857.158 1168.1 878.633L1167.62 881.07C1164.94 895.989 1162.18 911.425 1155.51 924.713C1151.1 933.313 1142.98 943.884 1134.47 948.858C1131.28 950.903 1127.45 951.803 1123.83 951.28Z" stroke="url(#paint41_linear_1643_6932)" stroke-miterlimit="10"/>
<path d="M1127.5 935.974C1124.51 934.75 1125.7 927.401 1124.67 923.558C1123.27 918.606 1121.19 913.82 1118.52 909.475C1112.92 900.749 1104.53 893.995 1094.52 891.099C1092.49 890.542 1090.22 889.818 1089.43 887.988C1088.43 885.734 1090.1 883.335 1091.67 881.583C1101.18 870.553 1112.52 861.501 1123.5 852.135C1134.49 842.769 1145.31 832.72 1153.01 820.504C1160.71 808.289 1165.24 793.373 1162.55 779.129C1161.5 773.568 1159.39 768.116 1158.34 762.555C1155.43 745.245 1169.06 748.664 1181.4 748.202C1185.9 748.061 1191.17 748.162 1194.26 751.38C1196.79 753.988 1197.25 758.144 1196.35 761.578C1195.44 765.142 1193.54 768.297 1191.65 771.323C1174.67 799.353 1163.04 830.53 1157.47 862.714C1155.07 876.618 1153.83 890.69 1149.63 904.203C1147.44 911.144 1144.87 918.029 1140.94 924.192C1138.55 927.938 1135.04 933.104 1131.17 935.185C1129.58 936.143 1128.36 936.363 1127.5 935.974Z" stroke="url(#paint42_linear_1643_6932)" stroke-miterlimit="10"/>
<path d="M1131.78 913.633C1131.52 913.595 1131.39 913.577 1131.15 913.41C1129.69 912.54 1129.64 909.234 1129.05 907.829C1127.91 904.761 1126.49 901.786 1124.78 899.031C1122.07 894.945 1118.31 891.763 1114.34 889.079C1111.7 887.246 1103.66 884.501 1103.81 880.696C1103.94 877.021 1110.01 874.334 1112.3 872.158C1115.94 868.857 1119.59 865.557 1123.34 862.404C1124.84 861.169 1126.34 859.934 1127.83 858.698C1134.45 853.057 1140.61 846.953 1146.18 840.367C1148.88 837.195 1152.44 833.617 1154.16 829.907C1154.94 828.172 1155.21 821.745 1158.18 822.175C1160.25 822.473 1149.75 851.307 1149.14 853.725C1146.72 862.218 1146.15 871.636 1144.37 880.351C1142.56 889.195 1140.5 898.002 1138.18 906.772C1137.66 908.544 1137.12 910.445 1135.99 911.866C1135.21 912.677 1133.31 913.986 1131.78 913.633Z" stroke="url(#paint43_linear_1643_6932)" stroke-miterlimit="10"/>
<path d="M1131.69 895.939C1130.31 896.399 1129.55 894.31 1129.46 893.11C1128.51 886.903 1123.55 884.734 1118.86 881.55C1118.14 881.051 1117.46 880.292 1117.31 879.479C1116.8 877.558 1118.72 876.12 1119.94 874.977C1121.75 873.391 1123.45 871.658 1125.14 870.053C1126.95 868.468 1128.65 866.734 1130.46 865.148C1131.39 864.226 1132.55 863.471 1133.5 862.42C1134.4 861.627 1135.09 860.538 1136.01 859.616C1136.48 859.155 1137.18 858.86 1137.69 858.935C1138.73 859.084 1139.48 860.249 1139.45 861.431C1139.41 862.613 1138.74 863.573 1138.46 864.588C1138.15 865.862 1137.96 867.154 1137.77 868.447C1137.25 871.143 1136.86 873.857 1136.34 876.553C1135.3 881.944 1134.4 887.225 1133.49 892.636C1133.34 893.67 1133.04 894.814 1132.3 895.367C1132.12 895.736 1131.84 895.828 1131.69 895.939Z" stroke="url(#paint44_linear_1643_6932)" stroke-miterlimit="10"/>
<path d="M814.981 1054.21C813.334 1044.6 803.299 1036.42 806.36 1027.1C807.548 1023.44 810.581 1020.71 812.765 1017.47C816.948 1011.34 817.884 1003.03 815.05 996.157C812.216 989.282 805.723 983.99 798.393 982.668C785.542 980.285 773.32 989.076 760.279 989.832C732.056 991.563 711.238 956.624 683.142 959.297C664.282 961.06 651.806 978.92 636.589 990.182C618.247 1003.9 580.874 997.707 569.315 1020.19C566.37 1025.96 565.896 1033.81 570.84 1037.96C573.662 1040.34 577.669 1040.92 581.326 1041.18C614.493 1043.6 649.383 1030.43 680.171 1042.92C691.025 1047.26 700.396 1054.55 710.62 1060.51C731.066 1072.44 754.678 1078.88 778.337 1079.53C786.888 1079.71 795.81 1079.15 803.259 1075.08C810.689 1071.14 816.391 1062.72 814.981 1054.21Z" stroke="url(#paint45_linear_1643_6932)" stroke-miterlimit="10"/>
<path d="M762.298 1071.8C745.106 1069.32 728.4 1063.48 713.915 1055.05C710.74 1053.27 707.604 1051.24 704.596 1049.22C697.714 1044.8 690.721 1040.22 682.728 1037.09C676.988 1034.81 671.025 1033.16 664.432 1032.2C649.438 1030.04 633.903 1031.62 618.904 1033.15C606.583 1034.41 593.855 1035.74 581.852 1034.8C580.799 1034.78 580.023 1034.66 579.248 1034.55C577.309 1034.27 575.924 1033.81 575.094 1033.16C572.973 1031.4 573.534 1026.6 575.201 1023.28C580.666 1012.85 594.282 1009.94 608.841 1006.89C620.129 1004.56 631.972 1002.05 640.57 995.507C645.303 991.968 649.705 987.985 653.829 984.094C663.429 975.188 672.546 966.872 683.777 965.854C685.92 965.636 688.026 965.676 690.094 965.975C699.659 967.356 708.681 973.409 718.423 979.962C728.885 987.014 739.845 994.271 752.383 996.081C755.097 996.473 757.978 996.625 760.638 996.482C766.9 996.066 772.721 994.136 778.393 992.316C784.769 990.201 790.867 988.179 796.425 988.981C796.683 989.019 796.942 989.056 797.2 989.093C802.333 990.098 806.945 993.799 809.006 998.715C810.938 1003.61 810.357 1009.47 807.358 1013.78C806.84 1014.63 806.063 1015.44 805.415 1016.27C803.491 1018.64 801.252 1021.35 800.064 1025C797.429 1033.2 801.408 1040.37 804.539 1046.1C806.326 1049.26 807.983 1052.4 808.515 1055.12C809.411 1060.79 805.026 1066.49 800.016 1069.2C793.436 1072.74 785.069 1073.11 778.383 1072.81C773.082 1072.96 767.597 1072.57 762.298 1071.8Z" stroke="url(#paint46_linear_1643_6932)" stroke-miterlimit="10"/>
<path d="M763.996 1059.12C752.162 1056.09 740.012 1054.33 729.384 1047.52C717.058 1039.67 704.418 1032.17 690.795 1026.91C673.296 1020.16 653.816 1017.08 635.727 1021.73C632.438 1022.57 629.241 1023.69 625.806 1023.72C613.801 1023.71 619.669 1015.05 626.727 1012.77C633.805 1010.36 642.171 1010.91 648.383 1006.27C653.561 1002.4 658.258 998.193 662.679 994.081C667.395 989.748 673.039 982.645 679.007 980.604C686.916 977.92 697.142 982.035 703.97 985.924C712.735 991.016 720.445 997.935 729.377 1002.79C745.912 1011.64 766.69 1012.13 783.694 1004.03C785.671 1003.13 787.686 1001.97 789.811 1001.88C791.935 1001.79 794.408 1002.94 794.903 1004.99C795.234 1006.36 794.622 1007.85 794.158 1009.24C790.71 1017.58 784.213 1026.94 786.582 1036.12C788.418 1043.51 796.05 1052.79 790.351 1060.28C786.279 1065.63 779.835 1064.57 774.334 1062.46C770.846 1061.03 767.43 1060.01 763.996 1059.12Z" stroke="url(#paint47_linear_1643_6932)" stroke-miterlimit="10"/>
<path d="M777.528 1051.31C776.676 1052.63 775.363 1053.5 773.461 1053.89C768.306 1054.86 761.573 1049.4 756.977 1047.41C747.896 1043.6 738.704 1039.63 729.623 1035.81C711.848 1028.23 694.055 1020.78 676.151 1013.18C672.552 1011.6 668.473 1009.7 667.444 1005.85C666.343 1001.6 669.581 997.453 673.444 995.371C684.961 988.721 699.709 994.414 710.798 1001.69C721.888 1008.96 733.103 1018.1 746.345 1018.7C753.566 1018.95 761.271 1016.76 767.823 1019.82C773.397 1022.34 776.75 1028.37 777.738 1034.31C778.802 1038.82 780.378 1047.1 777.528 1051.31Z" stroke="url(#paint48_linear_1643_6932)" stroke-miterlimit="10"/>
<path d="M1316.96 315.575C1291.31 305.009 1261.13 317.541 1241.63 337.422C1222.28 357.192 1210.74 383.235 1197.22 407.409C1183.7 431.584 1166.37 455.605 1140.78 466.556C1133.88 469.519 1126.48 471.484 1119.88 475.15C1114.13 478.41 1109.24 482.983 1103.29 485.819C1087.56 493.312 1068.57 486.874 1054.64 476.418C1040.86 465.851 1030.37 451.67 1017.09 440.383C1000.4 426.229 979.43 417 957.75 414.529C946.468 413.164 934.517 413.681 924.517 418.967C914.388 424.234 906.652 434.861 907.392 446.184C908.604 463.381 928.25 479.017 920.728 494.557C915.781 505.059 901.778 506.995 892.901 514.554C876.646 528.437 883.051 555.357 895.455 572.718C907.859 590.08 925.271 605.657 928.693 626.736C932.865 652.674 914.396 676.397 897.024 696.189C890.382 703.807 883.185 711.609 873.521 714.568C860.698 718.39 846.966 712.053 836.581 703.56C826.195 695.067 817.715 684.342 806.682 676.679C798.398 670.996 785.196 668.298 780.012 676.786C776.568 682.359 778.995 690.23 783.753 694.744C788.511 699.258 795.065 701.392 801.378 703.359C835.217 713.919 871.508 726.681 890.69 756.501C907.716 782.975 935.806 772.12 959.1 757.01C980.934 742.877 996.002 707.974 1026.75 712.545C1041.85 714.858 1055.46 727.512 1069.82 733.148C1081.54 737.875 1093.56 742.381 1103.5 750.283C1113.45 758.184 1121.11 769.979 1120.48 782.556C1119.64 803.019 1092.98 834.137 1077.95 846.876C1062.47 859.948 1042.05 867.028 1040.65 890.445C1040.21 898.035 1044.32 902.456 1046.75 909.404C1049.43 917.313 1049.81 925.68 1052.35 933.7C1063.15 968.512 1094.96 993.162 1079.59 1032.9C1066.18 1067.25 1040.65 1085.05 1012.28 1103.05C991.945 1112.11 936.978 1123.95 901.778 1107.55C866.578 1091.15 848.278 1075.55 843.278 1069.05" stroke="url(#paint49_linear_1643_6932)" stroke-width="2" stroke-miterlimit="10"/>
<path d="M490.909 1022.19C498.112 997.896 515.326 972.804 540.651 971.05C560.101 969.768 577.996 982.909 597.481 983.215C618.407 983.597 636.398 969.569 654.109 958.403C671.82 947.238 694.993 938.444 712.966 949.22C723.411 955.479 730.355 967.697 742.208 970.597C748.836 972.213 755.931 970.599 762.546 968.651C772.598 965.748 782.762 962.069 793.234 961.734C803.726 961.27 815.006 964.482 821.439 972.932C832.185 987.151 824.268 1007.25 824.075 1025.04C823.81 1041.49 831.063 1057.98 843.328 1068.99" stroke="url(#paint50_linear_1643_6932)" stroke-width="2" stroke-miterlimit="10"/>
</g>
</g>
<defs>
<filter id="filter0_f_1643_6932" x="0.25" y="0.722656" width="1921.52" height="1525.21" filterUnits="userSpaceOnUse" color-interpolation-filters="sRGB">
<feFlood flood-opacity="0" result="BackgroundImageFix"/>
<feBlend mode="normal" in="SourceGraphic" in2="BackgroundImageFix" result="shape"/>
<feGaussianBlur stdDeviation="200" result="effect1_foregroundBlur_1643_6932"/>
</filter>
<linearGradient id="paint0_linear_1643_6932" x1="658.714" y1="883.114" x2="809.987" y2="770.014" gradientUnits="userSpaceOnUse">
<stop stop-color="#86E7FF" stop-opacity="0.3"/>
<stop offset="1" stop-color="#86E7FF" stop-opacity="0.8"/>
</linearGradient>
<linearGradient id="paint1_linear_1643_6932" x1="663.94" y1="879.171" x2="804.701" y2="773.931" gradientUnits="userSpaceOnUse">
<stop stop-color="#86E7FF" stop-opacity="0.3"/>
<stop offset="1" stop-color="#86E7FF" stop-opacity="0.8"/>
</linearGradient>
<linearGradient id="paint2_linear_1643_6932" x1="625.517" y1="805.585" x2="857.633" y2="839.101" gradientUnits="userSpaceOnUse">
<stop stop-color="#26F7DD"/>
<stop offset="1" stop-color="#00B8DD"/>
</linearGradient>
<linearGradient id="paint3_linear_1643_6932" x1="665.72" y1="802.154" x2="734.304" y2="750.877" gradientUnits="userSpaceOnUse">
<stop stop-color="#86E7FF" stop-opacity="0.3"/>
<stop offset="1" stop-color="#86E7FF" stop-opacity="0.8"/>
</linearGradient>
<linearGradient id="paint4_linear_1643_6932" x1="670.334" y1="798.483" x2="728.966" y2="754.646" gradientUnits="userSpaceOnUse">
<stop stop-color="#86E7FF" stop-opacity="0.3"/>
<stop offset="1" stop-color="#86E7FF" stop-opacity="0.8"/>
</linearGradient>
<linearGradient id="paint5_linear_1643_6932" x1="678.513" y1="787.093" x2="716.294" y2="758.845" gradientUnits="userSpaceOnUse">
<stop stop-color="#86E7FF" stop-opacity="0.3"/>
<stop offset="1" stop-color="#86E7FF" stop-opacity="0.8"/>
</linearGradient>
<linearGradient id="paint6_linear_1643_6932" x1="693.846" y1="772.054" x2="705.264" y2="763.517" gradientUnits="userSpaceOnUse">
<stop stop-color="#86E7FF" stop-opacity="0.3"/>
<stop offset="1" stop-color="#86E7FF" stop-opacity="0.8"/>
</linearGradient>
<linearGradient id="paint7_linear_1643_6932" x1="743.063" y1="897.553" x2="803.214" y2="852.582" gradientUnits="userSpaceOnUse">
<stop stop-color="#86E7FF" stop-opacity="0.3"/>
<stop offset="1" stop-color="#86E7FF" stop-opacity="0.8"/>
</linearGradient>
<linearGradient id="paint8_linear_1643_6932" x1="760.487" y1="885.684" x2="793.3" y2="861.151" gradientUnits="userSpaceOnUse">
<stop stop-color="#86E7FF" stop-opacity="0.3"/>
<stop offset="1" stop-color="#86E7FF" stop-opacity="0.8"/>
</linearGradient>
<linearGradient id="paint9_linear_1643_6932" x1="767.134" y1="882.449" x2="789.025" y2="866.083" gradientUnits="userSpaceOnUse">
<stop stop-color="#86E7FF" stop-opacity="0.3"/>
<stop offset="1" stop-color="#86E7FF" stop-opacity="0.8"/>
</linearGradient>
<linearGradient id="paint10_linear_1643_6932" x1="816.609" y1="981.577" x2="1098.16" y2="771.072" gradientUnits="userSpaceOnUse">
<stop stop-color="#86E7FF" stop-opacity="0.3"/>
<stop offset="1" stop-color="#86E7FF" stop-opacity="0.8"/>
</linearGradient>
<linearGradient id="paint11_linear_1643_6932" x1="827.042" y1="973.768" x2="1087.69" y2="778.891" gradientUnits="userSpaceOnUse">
<stop stop-color="#86E7FF" stop-opacity="0.3"/>
<stop offset="1" stop-color="#86E7FF" stop-opacity="0.8"/>
</linearGradient>
<linearGradient id="paint12_linear_1643_6932" x1="857.079" y1="995.381" x2="1091.24" y2="820.31" gradientUnits="userSpaceOnUse">
<stop stop-color="#86E7FF" stop-opacity="0.3"/>
<stop offset="1" stop-color="#86E7FF" stop-opacity="0.8"/>
</linearGradient>
<linearGradient id="paint13_linear_1643_6932" x1="905.131" y1="998.741" x2="1100.71" y2="852.518" gradientUnits="userSpaceOnUse">
<stop stop-color="#86E7FF" stop-opacity="0.3"/>
<stop offset="1" stop-color="#86E7FF" stop-opacity="0.8"/>
</linearGradient>
<linearGradient id="paint14_linear_1643_6932" x1="946.378" y1="1007.83" x2="1001.04" y2="966.961" gradientUnits="userSpaceOnUse">
<stop stop-color="#86E7FF" stop-opacity="0.3"/>
<stop offset="1" stop-color="#86E7FF" stop-opacity="0.8"/>
</linearGradient>
<linearGradient id="paint15_linear_1643_6932" x1="954.137" y1="1003.28" x2="992.305" y2="974.741" gradientUnits="userSpaceOnUse">
<stop stop-color="#86E7FF" stop-opacity="0.3"/>
<stop offset="1" stop-color="#86E7FF" stop-opacity="0.8"/>
</linearGradient>
<linearGradient id="paint16_linear_1643_6932" x1="965.424" y1="990.063" x2="979.021" y2="979.897" gradientUnits="userSpaceOnUse">
<stop stop-color="#86E7FF" stop-opacity="0.3"/>
<stop offset="1" stop-color="#86E7FF" stop-opacity="0.8"/>
</linearGradient>
<linearGradient id="paint17_linear_1643_6932" x1="955.166" y1="881.305" x2="986.156" y2="858.135" gradientUnits="userSpaceOnUse">
<stop stop-color="#86E7FF" stop-opacity="0.3"/>
<stop offset="1" stop-color="#86E7FF" stop-opacity="0.8"/>
</linearGradient>
<linearGradient id="paint18_linear_1643_6932" x1="1069.34" y1="1083.23" x2="1155.21" y2="1019.03" gradientUnits="userSpaceOnUse">
<stop stop-color="#86E7FF" stop-opacity="0.3"/>
<stop offset="1" stop-color="#86E7FF" stop-opacity="0.8"/>
</linearGradient>
<linearGradient id="paint19_linear_1643_6932" x1="1083.33" y1="1083.56" x2="1153.02" y2="1031.46" gradientUnits="userSpaceOnUse">
<stop stop-color="#86E7FF" stop-opacity="0.3"/>
<stop offset="1" stop-color="#86E7FF" stop-opacity="0.8"/>
</linearGradient>
<linearGradient id="paint20_linear_1643_6932" x1="1109.25" y1="1058.59" x2="1161.7" y2="1066.16" gradientUnits="userSpaceOnUse">
<stop stop-color="#26F7DD"/>
<stop offset="1" stop-color="#00B8DD"/>
</linearGradient>
<linearGradient id="paint21_linear_1643_6932" x1="692.255" y1="557.479" x2="1160.29" y2="207.554" gradientUnits="userSpaceOnUse">
<stop stop-color="#86E7FF" stop-opacity="0.3"/>
<stop offset="1" stop-color="#86E7FF" stop-opacity="0.8"/>
</linearGradient>
<linearGradient id="paint22_linear_1643_6932" x1="706.589" y1="550.223" x2="1153.69" y2="215.948" gradientUnits="userSpaceOnUse">
<stop stop-color="#86E7FF" stop-opacity="0.3"/>
<stop offset="1" stop-color="#86E7FF" stop-opacity="0.8"/>
</linearGradient>
<linearGradient id="paint23_linear_1643_6932" x1="813.565" y1="564.331" x2="891.504" y2="575.585" gradientUnits="userSpaceOnUse">
<stop stop-color="#26F7DD"/>
<stop offset="1" stop-color="#00B8DD"/>
</linearGradient>
<linearGradient id="paint24_linear_1643_6932" x1="855.654" y1="400.983" x2="1115.65" y2="206.599" gradientUnits="userSpaceOnUse">
<stop stop-color="#86E7FF" stop-opacity="0.3"/>
<stop offset="1" stop-color="#86E7FF" stop-opacity="0.8"/>
</linearGradient>
<linearGradient id="paint25_linear_1643_6932" x1="836.529" y1="642.582" x2="864.437" y2="621.716" gradientUnits="userSpaceOnUse">
<stop stop-color="#86E7FF" stop-opacity="0.3"/>
<stop offset="1" stop-color="#86E7FF" stop-opacity="0.8"/>
</linearGradient>
<linearGradient id="paint26_linear_1643_6932" x1="863.549" y1="666.737" x2="1088.72" y2="498.388" gradientUnits="userSpaceOnUse">
<stop stop-color="#86E7FF" stop-opacity="0.3"/>
<stop offset="1" stop-color="#86E7FF" stop-opacity="0.8"/>
</linearGradient>
<linearGradient id="paint27_linear_1643_6932" x1="867.083" y1="665.259" x2="1081.84" y2="504.694" gradientUnits="userSpaceOnUse">
<stop stop-color="#86E7FF" stop-opacity="0.3"/>
<stop offset="1" stop-color="#86E7FF" stop-opacity="0.8"/>
</linearGradient>
<linearGradient id="paint28_linear_1643_6932" x1="879.216" y1="655.034" x2="1073.05" y2="510.112" gradientUnits="userSpaceOnUse">
<stop stop-color="#86E7FF" stop-opacity="0.3"/>
<stop offset="1" stop-color="#86E7FF" stop-opacity="0.8"/>
</linearGradient>
<linearGradient id="paint29_linear_1643_6932" x1="954.355" y1="545.472" x2="1097.44" y2="566.132" gradientUnits="userSpaceOnUse">
<stop stop-color="#26F7DD"/>
<stop offset="1" stop-color="#00B8DD"/>
</linearGradient>
<linearGradient id="paint30_linear_1643_6932" x1="987.696" y1="576.939" x2="1055.66" y2="526.123" gradientUnits="userSpaceOnUse">
<stop stop-color="#86E7FF" stop-opacity="0.3"/>
<stop offset="1" stop-color="#86E7FF" stop-opacity="0.8"/>
</linearGradient>
<linearGradient id="paint31_linear_1643_6932" x1="999.031" y1="553.911" x2="1039.37" y2="523.751" gradientUnits="userSpaceOnUse">
<stop stop-color="#86E7FF" stop-opacity="0.3"/>
<stop offset="1" stop-color="#86E7FF" stop-opacity="0.8"/>
</linearGradient>
<linearGradient id="paint32_linear_1643_6932" x1="1113.56" y1="619.95" x2="1326.88" y2="460.462" gradientUnits="userSpaceOnUse">
<stop stop-color="#86E7FF" stop-opacity="0.3"/>
<stop offset="1" stop-color="#86E7FF" stop-opacity="0.8"/>
</linearGradient>
<linearGradient id="paint33_linear_1643_6932" x1="1126.33" y1="532.335" x2="1316.47" y2="559.79" gradientUnits="userSpaceOnUse">
<stop stop-color="#26F7DD"/>
<stop offset="1" stop-color="#00B8DD"/>
</linearGradient>
<linearGradient id="paint34_linear_1643_6932" x1="1127.82" y1="602.463" x2="1298.55" y2="474.816" gradientUnits="userSpaceOnUse">
<stop stop-color="#86E7FF" stop-opacity="0.3"/>
<stop offset="1" stop-color="#86E7FF" stop-opacity="0.8"/>
</linearGradient>
<linearGradient id="paint35_linear_1643_6932" x1="1156.25" y1="570.228" x2="1279.03" y2="478.435" gradientUnits="userSpaceOnUse">
<stop stop-color="#86E7FF" stop-opacity="0.3"/>
<stop offset="1" stop-color="#86E7FF" stop-opacity="0.8"/>
</linearGradient>
<linearGradient id="paint36_linear_1643_6932" x1="1171.78" y1="571.535" x2="1276.04" y2="493.585" gradientUnits="userSpaceOnUse">
<stop stop-color="#86E7FF" stop-opacity="0.3"/>
<stop offset="1" stop-color="#86E7FF" stop-opacity="0.8"/>
</linearGradient>
<linearGradient id="paint37_linear_1643_6932" x1="1192.6" y1="557.012" x2="1263.07" y2="504.326" gradientUnits="userSpaceOnUse">
<stop stop-color="#86E7FF" stop-opacity="0.3"/>
<stop offset="1" stop-color="#86E7FF" stop-opacity="0.8"/>
</linearGradient>
<linearGradient id="paint38_linear_1643_6932" x1="1200.42" y1="547.522" x2="1240.92" y2="517.238" gradientUnits="userSpaceOnUse">
<stop stop-color="#86E7FF" stop-opacity="0.3"/>
<stop offset="1" stop-color="#86E7FF" stop-opacity="0.8"/>
</linearGradient>
<linearGradient id="paint39_linear_1643_6932" x1="1029.17" y1="865.219" x2="1216.11" y2="725.451" gradientUnits="userSpaceOnUse">
<stop stop-color="#86E7FF" stop-opacity="0.3"/>
<stop offset="1" stop-color="#86E7FF" stop-opacity="0.8"/>
</linearGradient>
<linearGradient id="paint40_linear_1643_6932" x1="1041.11" y1="858.287" x2="1206.6" y2="734.56" gradientUnits="userSpaceOnUse">
<stop stop-color="#86E7FF" stop-opacity="0.3"/>
<stop offset="1" stop-color="#86E7FF" stop-opacity="0.8"/>
</linearGradient>
<linearGradient id="paint41_linear_1643_6932" x1="1048.71" y1="857.309" x2="1203.61" y2="741.497" gradientUnits="userSpaceOnUse">
<stop stop-color="#86E7FF" stop-opacity="0.3"/>
<stop offset="1" stop-color="#86E7FF" stop-opacity="0.8"/>
</linearGradient>
<linearGradient id="paint42_linear_1643_6932" x1="1095.98" y1="833.246" x2="1184.87" y2="846.081" gradientUnits="userSpaceOnUse">
<stop stop-color="#26F7DD"/>
<stop offset="1" stop-color="#00B8DD"/>
</linearGradient>
<linearGradient id="paint43_linear_1643_6932" x1="1111.61" y1="893.119" x2="1176.18" y2="844.844" gradientUnits="userSpaceOnUse">
<stop stop-color="#86E7FF" stop-opacity="0.3"/>
<stop offset="1" stop-color="#86E7FF" stop-opacity="0.8"/>
</linearGradient>
<linearGradient id="paint44_linear_1643_6932" x1="1121.67" y1="887.013" x2="1146.26" y2="868.626" gradientUnits="userSpaceOnUse">
<stop stop-color="#86E7FF" stop-opacity="0.3"/>
<stop offset="1" stop-color="#86E7FF" stop-opacity="0.8"/>
</linearGradient>
<linearGradient id="paint45_linear_1643_6932" x1="615.377" y1="1099.28" x2="793.837" y2="965.858" gradientUnits="userSpaceOnUse">
<stop stop-color="#86E7FF" stop-opacity="0.3"/>
<stop offset="1" stop-color="#86E7FF" stop-opacity="0.8"/>
</linearGradient>
<linearGradient id="paint46_linear_1643_6932" x1="620.611" y1="1095.38" x2="788.612" y2="969.771" gradientUnits="userSpaceOnUse">
<stop stop-color="#86E7FF" stop-opacity="0.3"/>
<stop offset="1" stop-color="#86E7FF" stop-opacity="0.8"/>
</linearGradient>
<linearGradient id="paint47_linear_1643_6932" x1="620.37" y1="1005.43" x2="796.484" y2="1030.86" gradientUnits="userSpaceOnUse">
<stop stop-color="#26F7DD"/>
<stop offset="1" stop-color="#00B8DD"/>
</linearGradient>
<linearGradient id="paint48_linear_1643_6932" x1="695.777" y1="1045.67" x2="756.481" y2="1000.28" gradientUnits="userSpaceOnUse">
<stop stop-color="#86E7FF" stop-opacity="0.3"/>
<stop offset="1" stop-color="#86E7FF" stop-opacity="0.8"/>
</linearGradient>
<linearGradient id="paint49_linear_1643_6932" x1="781.201" y1="653.763" x2="1258.57" y2="722.692" gradientUnits="userSpaceOnUse">
<stop stop-color="#26F7DD"/>
<stop offset="1" stop-color="#00B8DD"/>
</linearGradient>
<linearGradient id="paint50_linear_1643_6932" x1="497.287" y1="968.754" x2="851.036" y2="1019.83" gradientUnits="userSpaceOnUse">
<stop stop-color="#26F7DD"/>
<stop offset="1" stop-color="#00B8DD"/>
</linearGradient>
</defs>
</svg>
