<svg width="24" height="24" viewBox="0 0 24 24" fill="none" xmlns="http://www.w3.org/2000/svg">
<path d="M19.8679 7.71447L15.3187 12L19.8679 16.2855C19.9501 16.1226 20 15.9424 20 15.75V8.25C20 8.05758 19.9501 7.87744 19.8679 7.71447Z" fill="#389989"/>
<path d="M18.6816 7H6.31836C6.11542 7 5.92543 7.04731 5.75354 7.12528L11.5679 12.6104C12.082 13.0978 12.918 13.0978 13.4321 12.6104L19.2465 7.12528C19.0746 7.04731 18.8846 7 18.6816 7Z" fill="#389989"/>
<path d="M5.13213 7.71447C5.04989 7.87744 5 8.05758 5 8.25V15.75C5 15.9424 5.04989 16.1226 5.13213 16.2855L9.68132 12L5.13213 7.71447Z" fill="#389989"/>
<path d="M14.6973 12.5892L14.0535 13.1996C13.1969 14.0117 11.8031 14.0117 10.9464 13.1996L10.3027 12.5892L5.75354 16.8747C5.92543 16.9527 6.11542 17 6.31836 17H18.6816C18.8846 17 19.0746 16.9527 19.2465 16.8747L14.6973 12.5892Z" fill="#389989"/>
</svg>
