<svg width="24" height="24" viewBox="0 0 24 24" fill="none" xmlns="http://www.w3.org/2000/svg">
<g clip-path="url(#clip0_1348_11103)">
<path d="M12 0.609375C5.38311 0.609375 0 5.99248 0 12.6094C0 17.0757 2.46203 21.1468 6.42516 23.2342C6.76885 23.4151 7.19402 23.2833 7.37511 22.9398C7.55602 22.5961 7.42418 22.1709 7.08049 21.99C3.58044 20.1465 1.40625 16.5522 1.40625 12.6094C1.40625 6.76793 6.15856 2.01562 12 2.01562C17.8414 2.01562 22.5937 6.76793 22.5937 12.6094C22.5937 16.6164 20.3679 20.2375 16.7849 22.0596C16.4388 22.2356 16.3009 22.6589 16.4769 23.005C16.601 23.249 16.848 23.3895 17.1042 23.3895C17.2115 23.3895 17.3203 23.3649 17.4225 23.3129C19.3681 22.3236 21.0109 20.8214 22.1729 18.969C23.3682 17.0632 24 14.8643 24 12.6094C24 5.99248 18.6168 0.609375 12 0.609375Z" fill="white"/>
<path d="M19.0567 17.0465C19.8947 15.7181 20.3377 14.1837 20.3377 12.6094C20.3377 8.01196 16.5974 4.27148 12 4.27148C7.4024 4.27148 3.66211 8.01196 3.66211 12.6094C3.66211 14.1837 4.10504 15.7179 4.94311 17.0465C5.75793 18.3378 6.90838 19.3819 8.27032 20.0658C8.61748 20.2399 9.04009 20.0998 9.21422 19.7528C9.38836 19.4057 9.24846 18.9831 8.9013 18.8089C6.53704 17.6219 5.06836 15.2464 5.06836 12.6094C5.06836 8.78722 8.17785 5.67773 12 5.67773C15.8219 5.67773 18.9314 8.78722 18.9314 12.6094C18.9314 15.2464 17.4627 17.622 15.0985 18.8089C14.7513 18.9832 14.6112 19.4057 14.7856 19.7528C14.909 19.9986 15.1569 20.1407 15.4145 20.1407C15.5205 20.1407 15.6282 20.1165 15.7295 20.0658C17.0914 19.3819 18.242 18.338 19.0567 17.0465Z" fill="white"/>
<path d="M16.6754 12.6092C16.6754 10.0311 14.5779 7.93359 11.9998 7.93359C9.42169 7.93359 7.32422 10.0311 7.32422 12.6092C7.32422 14.3882 8.31445 15.9906 9.90838 16.7906C10.0095 16.8413 10.1171 16.8655 10.2231 16.8655C10.4808 16.8655 10.7287 16.7234 10.8521 16.4776C11.0262 16.1305 10.8862 15.7081 10.5392 15.5337C9.42352 14.9738 8.73047 13.8532 8.73047 12.6092C8.73047 10.8065 10.1971 9.33984 11.9998 9.33984C13.8025 9.33984 15.2691 10.8065 15.2691 12.6092C15.2691 13.853 14.5763 14.9736 13.4606 15.5336C13.1136 15.7079 12.9736 16.1303 13.1477 16.4775C13.322 16.8244 13.7446 16.9645 14.0916 16.7904C15.6853 15.9902 16.6754 14.388 16.6754 12.6092Z" fill="white"/>
</g>
<defs>
<clipPath id="clip0_1348_11103">
<rect width="24" height="24" fill="white"/>
</clipPath>
</defs>
</svg>
