<svg width="174" height="166" viewBox="0 0 174 166" fill="none" xmlns="http://www.w3.org/2000/svg">
<g filter="url(#filter0_bd_1643_15410)">
<path d="M34.999 35.1381V83C34.999 109.51 56.0485 131 82.0142 131H138.385C138.46 131 138.521 130.938 138.521 130.862V83C138.521 56.4903 117.471 35 91.5054 35H35.1343C35.0596 35 34.999 35.0618 34.999 35.1381Z" fill="#10302C"/>
<path d="M35.499 83V35.5H91.5054C117.185 35.5 138.021 56.7567 138.021 83V130.5H82.0142C56.3343 130.5 35.499 109.243 35.499 83Z" stroke="url(#paint0_linear_1643_15410)"/>
</g>
<path d="M106.97 62.6234H66.6385C64.5961 62.6234 62.9346 64.285 62.9346 66.3273V101.79C62.9346 103.833 64.5961 105.494 66.6385 105.494H86.2588C86.7515 105.494 87.1509 105.095 87.1509 104.602C87.1509 104.109 86.7515 103.71 86.2588 103.71H66.6385C65.5799 103.71 64.7188 102.849 64.7188 101.79V71.4785H108.89V97.2463C108.89 97.7391 109.289 98.1384 109.782 98.1384C110.274 98.1384 110.674 97.7391 110.674 97.2463V66.3273C110.674 64.285 109.012 62.6234 106.97 62.6234ZM64.7188 69.6943V66.3273C64.7188 65.2689 65.5799 64.4076 66.6385 64.4076H106.97C108.028 64.4076 108.89 65.2688 108.89 66.3273V69.6943L64.7188 69.6943Z" fill="white" fill-opacity="0.8"/>
<path d="M68.8978 66.6345C68.8753 66.5809 68.8479 66.5286 68.8158 66.4811C68.7837 66.4311 68.7456 66.3859 68.7051 66.3455C68.4981 66.1373 68.1901 66.0421 67.8999 66.1016C67.8428 66.1122 67.7868 66.1301 67.7333 66.1515C67.6786 66.1742 67.6275 66.2015 67.5787 66.2336C67.5299 66.267 67.4847 66.3038 67.4431 66.3455C67.4026 66.3859 67.3646 66.4311 67.3325 66.481C67.3004 66.5285 67.273 66.5809 67.2504 66.6345C67.2278 66.688 67.2112 66.7451 67.1992 66.8009C67.1873 66.8593 67.1826 66.9176 67.1826 66.9759C67.1826 67.0341 67.1873 67.0924 67.1992 67.1496C67.2111 67.2066 67.2278 67.2626 67.2504 67.3173C67.273 67.3707 67.3003 67.4231 67.3325 67.4707C67.3646 67.5194 67.4026 67.5659 67.4431 67.6063C67.4847 67.6479 67.5299 67.6848 67.5787 67.7169C67.6274 67.749 67.6786 67.7775 67.7333 67.799C67.7868 67.8215 67.8427 67.8394 67.8998 67.8501C67.9569 67.8621 68.0164 67.868 68.0747 67.868C68.1318 67.868 68.1913 67.8621 68.2484 67.8501C68.3055 67.8394 68.3613 67.8215 68.4149 67.799C68.4696 67.7775 68.5208 67.749 68.5695 67.7169C68.6183 67.6848 68.6635 67.6479 68.7051 67.6063C68.7456 67.5659 68.7837 67.5194 68.8158 67.4707C68.8479 67.4231 68.8752 67.3707 68.8978 67.3173C68.9204 67.2626 68.9371 67.2066 68.9489 67.1496C68.9609 67.0924 68.9668 67.0341 68.9668 66.9759C68.9668 66.9176 68.9609 66.8593 68.9489 66.801C68.9371 66.7451 68.9204 66.688 68.8978 66.6345Z" fill="white"/>
<path d="M71.9664 66.6344C71.9438 66.5809 71.9165 66.5285 71.8844 66.481C71.8511 66.431 71.8142 66.3859 71.7726 66.3454C71.7321 66.3037 71.6869 66.2669 71.6369 66.2336C71.5894 66.2014 71.5371 66.1741 71.4835 66.1515C71.43 66.1301 71.3729 66.1122 71.317 66.1015C71.2016 66.0778 71.0826 66.0778 70.9684 66.1015C70.9113 66.1122 70.8555 66.1301 70.8008 66.1515C70.7472 66.1741 70.696 66.2014 70.6473 66.2336C70.5985 66.2669 70.5521 66.3037 70.5117 66.3454C70.4701 66.3859 70.4332 66.431 70.4011 66.481C70.3689 66.5285 70.3404 66.5809 70.319 66.6344C70.2964 66.688 70.2797 66.745 70.2679 66.8009C70.256 66.8592 70.25 66.9175 70.25 66.9758C70.25 67.034 70.256 67.0923 70.2679 67.1495C70.2797 67.2065 70.2964 67.2625 70.319 67.3172C70.3404 67.3707 70.3689 67.423 70.4011 67.4707C70.4332 67.5193 70.4701 67.5658 70.5117 67.6062C70.5521 67.6478 70.5985 67.6848 70.6473 67.7168C70.6961 67.749 70.7472 67.7775 70.8008 67.7989C70.8555 67.8215 70.9113 67.8394 70.9684 67.85C71.0255 67.862 71.0838 67.8679 71.1421 67.8679C71.2004 67.8679 71.2587 67.862 71.317 67.85C71.3729 67.8394 71.43 67.8215 71.4835 67.7989C71.5371 67.7774 71.5894 67.749 71.6369 67.7168C71.6869 67.6848 71.7321 67.6478 71.7726 67.6062C71.8142 67.5658 71.8511 67.5193 71.8844 67.4707C71.9165 67.423 71.9438 67.3707 71.9664 67.3172C71.9879 67.2625 72.0057 67.2065 72.0176 67.1495C72.0283 67.0923 72.0342 67.034 72.0342 66.9758C72.0342 66.9175 72.0283 66.8592 72.0176 66.8009C72.0057 66.745 71.989 66.688 71.9664 66.6344Z" fill="white"/>
<path d="M75.0345 66.6344C75.0131 66.5809 74.9846 66.5285 74.9525 66.481C74.9204 66.431 74.8835 66.3859 74.8418 66.3454C74.8014 66.3037 74.755 66.2669 74.7063 66.2336C74.6575 66.2014 74.6063 66.1741 74.5528 66.1515C74.4981 66.1301 74.4422 66.1122 74.3851 66.1015C74.2709 66.0778 74.1519 66.0778 74.0365 66.1015C73.9807 66.1122 73.9236 66.1301 73.87 66.1515C73.8165 66.1741 73.7642 66.2014 73.7166 66.2336C73.6679 66.2669 73.6215 66.3037 73.581 66.3454C73.5394 66.3859 73.5025 66.431 73.4692 66.481C73.4371 66.5285 73.4097 66.5809 73.3871 66.6344C73.3657 66.688 73.3478 66.745 73.3372 66.8009C73.3253 66.8592 73.3193 66.9175 73.3193 66.9758C73.3193 67.034 73.3253 67.0923 73.3372 67.1495C73.3478 67.2065 73.3657 67.2625 73.3871 67.3172C73.4097 67.3707 73.4371 67.423 73.4692 67.4707C73.5025 67.5193 73.5394 67.5658 73.581 67.6062C73.6215 67.6478 73.6679 67.6848 73.7166 67.7168C73.7642 67.749 73.8165 67.7775 73.87 67.7989C73.9236 67.8215 73.9807 67.8394 74.0365 67.85C74.0949 67.862 74.1531 67.8679 74.2114 67.8679C74.2697 67.8679 74.328 67.862 74.3851 67.85C74.4422 67.8394 74.4981 67.8215 74.5528 67.7989C74.6063 67.7774 74.6575 67.749 74.7063 67.7168C74.755 67.6848 74.8014 67.6478 74.8418 67.6062C74.8835 67.5658 74.9204 67.5193 74.9525 67.4707C74.9846 67.423 75.0131 67.3707 75.0345 67.3172C75.0571 67.2625 75.0749 67.2065 75.0857 67.1495C75.0975 67.0923 75.1035 67.034 75.1035 66.9758C75.1035 66.9175 75.0975 66.8592 75.0857 66.8009C75.0749 66.745 75.0571 66.688 75.0345 66.6344Z" fill="white"/>
<path d="M71.8689 76.1978C71.8582 76.1408 71.8403 76.0849 71.8189 76.0302C71.7963 75.9766 71.7689 75.9254 71.7368 75.8767C71.7035 75.828 71.6667 75.7828 71.625 75.7411C71.5846 75.7007 71.5382 75.6625 71.4895 75.6305C71.4418 75.5983 71.3895 75.571 71.336 75.5484C71.2813 75.5258 71.2254 75.5091 71.1683 75.4973C71.0541 75.4747 70.9352 75.4747 70.8197 75.4973C70.7639 75.5091 70.7068 75.5258 70.6532 75.5484C70.5997 75.571 70.5474 75.5983 70.4998 75.6305C70.4511 75.6625 70.4047 75.7006 70.3642 75.7411C70.3226 75.7828 70.2857 75.828 70.2524 75.8767C70.2203 75.9254 70.1929 75.9766 70.1703 76.0302C70.1489 76.0849 70.1311 76.1408 70.1204 76.1978C70.1085 76.255 70.1025 76.3144 70.1025 76.3715C70.1025 76.4298 70.1085 76.4893 70.1204 76.5464C70.1311 76.6034 70.1489 76.6594 70.1703 76.7129C70.1929 76.7676 70.2203 76.8188 70.2524 76.8676C70.2857 76.9163 70.3226 76.9616 70.3642 77.0031C70.4047 77.0436 70.4511 77.0817 70.4998 77.1137C70.5474 77.1459 70.5997 77.1732 70.6532 77.1959C70.7068 77.2184 70.7639 77.2351 70.8197 77.247C70.8781 77.2576 70.9363 77.2636 70.9946 77.2636C71.0529 77.2636 71.1112 77.2576 71.1683 77.247C71.2254 77.2351 71.2813 77.2184 71.336 77.1959C71.3895 77.1732 71.4418 77.1459 71.4895 77.1137C71.5382 77.0817 71.5846 77.0436 71.625 77.0031C71.7916 76.8366 71.8867 76.607 71.8867 76.3715C71.8867 76.3144 71.8808 76.255 71.8689 76.1978Z" fill="white" fill-opacity="0.8"/>
<path d="M76.188 77.2642H87.5553C88.048 77.2642 88.4474 76.8648 88.4474 76.3721C88.4474 75.8793 88.048 75.48 87.5553 75.48H76.188C75.6953 75.48 75.2959 75.8793 75.2959 76.3721C75.2959 76.8648 75.6953 77.2642 76.188 77.2642Z" fill="white" fill-opacity="0.8"/>
<path d="M71.625 93.2194C71.5846 93.1789 71.5382 93.142 71.4895 93.1088C71.4418 93.0766 71.3895 93.0493 71.336 93.0266C71.2825 93.0053 71.2254 92.9874 71.1695 92.9767C70.8792 92.9172 70.5712 93.0124 70.3642 93.2194C70.3226 93.2609 70.2857 93.3061 70.2524 93.3549C70.2203 93.4037 70.1929 93.4561 70.1703 93.5095C70.1489 93.5631 70.1311 93.6189 70.1204 93.6761C70.1085 93.7344 70.1025 93.7927 70.1025 93.8509C70.1025 93.9092 70.1085 93.9675 70.1204 94.0246C70.1311 94.0817 70.1489 94.1388 70.1703 94.1923C70.1929 94.2459 70.2203 94.297 70.2524 94.3458C70.2857 94.3945 70.3226 94.4409 70.3642 94.4813C70.5295 94.6479 70.7603 94.743 70.9946 94.743C71.0529 94.743 71.1112 94.7371 71.1695 94.7252C71.2254 94.7133 71.2825 94.6967 71.336 94.674C71.3895 94.6526 71.4418 94.6241 71.4895 94.592C71.5382 94.5598 71.5846 94.523 71.625 94.4813C71.6667 94.4409 71.7036 94.3945 71.7357 94.3457C71.7678 94.297 71.7963 94.2459 71.8177 94.1923C71.8403 94.1388 71.8582 94.0817 71.8689 94.0246C71.8808 93.9675 71.8867 93.9092 71.8867 93.8509C71.8867 93.6155 71.7916 93.3858 71.625 93.2194Z" fill="white" fill-opacity="0.8"/>
<path d="M95.3717 93.8508C95.3717 93.3581 94.9723 92.9587 94.4796 92.9587H76.188C75.6953 92.9587 75.2959 93.3581 75.2959 93.8508C75.2959 94.3436 75.6953 94.743 76.188 94.743H94.4796C94.9723 94.743 95.3717 94.3436 95.3717 93.8508Z" fill="white" fill-opacity="0.8"/>
<path d="M71.625 80.2445C71.5846 80.2029 71.5382 80.1659 71.4895 80.1339C71.4418 80.1017 71.3895 80.0731 71.336 80.0518C71.2825 80.0291 71.2254 80.0125 71.1695 80.0006C71.0541 79.9768 70.9352 79.9768 70.8198 80.0006C70.7639 80.0125 70.7068 80.0291 70.6532 80.0518C70.5998 80.0731 70.5474 80.1017 70.4998 80.1339C70.4511 80.1659 70.4047 80.2029 70.3642 80.2445C70.1977 80.411 70.1025 80.6406 70.1025 80.8749C70.1025 80.9332 70.1085 80.9915 70.1204 81.0497C70.1311 81.1068 70.1489 81.1627 70.1703 81.2163C70.1929 81.2698 70.2203 81.3221 70.2524 81.3709C70.2857 81.4197 70.3226 81.4648 70.3642 81.5065C70.4047 81.547 70.4511 81.585 70.4998 81.6171C70.5474 81.6492 70.5997 81.6766 70.6532 81.6991C70.7068 81.7218 70.7639 81.7384 70.8197 81.7504C70.8781 81.7611 70.9363 81.767 70.9946 81.767C71.0529 81.767 71.1112 81.7611 71.1695 81.7504C71.2254 81.7384 71.2825 81.7218 71.336 81.6991C71.3895 81.6766 71.4418 81.6492 71.4895 81.6171C71.5382 81.585 71.5846 81.547 71.625 81.5065C71.6667 81.4648 71.7035 81.4196 71.7368 81.3709C71.7689 81.3221 71.7963 81.2698 71.8189 81.2163C71.8403 81.1627 71.8581 81.1068 71.8689 81.0497C71.8808 80.9915 71.8867 80.9332 71.8867 80.8749C71.8867 80.6406 71.7916 80.411 71.625 80.2445Z" fill="white" fill-opacity="0.8"/>
<path d="M76.188 81.7674H94.4796C94.9723 81.7674 95.3717 81.368 95.3717 80.8753C95.3717 80.3825 94.9723 79.9832 94.4796 79.9832H76.188C75.6953 79.9832 75.2959 80.3825 75.2959 80.8753C75.2959 81.368 75.6953 81.7674 76.188 81.7674Z" fill="white" fill-opacity="0.8"/>
<path d="M71.8177 97.8345C71.7963 97.7809 71.7689 97.7287 71.7368 97.681C71.7035 97.6323 71.6667 97.5859 71.625 97.5455C71.5846 97.5038 71.5382 97.467 71.4895 97.4336C71.4418 97.4016 71.3895 97.3742 71.336 97.3528C71.2825 97.3301 71.2254 97.3124 71.1695 97.3017C71.0541 97.2779 70.9352 97.2779 70.8197 97.3017C70.7639 97.3124 70.7068 97.3301 70.6532 97.3528C70.5997 97.3742 70.5474 97.4016 70.4998 97.4336C70.4511 97.467 70.4047 97.5038 70.3642 97.5455C70.3226 97.5859 70.2857 97.6323 70.2524 97.681C70.2203 97.7287 70.1929 97.7809 70.1703 97.8345C70.1489 97.888 70.1311 97.9451 70.1204 98.0011C70.1085 98.0593 70.1025 98.1176 70.1025 98.1759C70.1025 98.2342 70.1085 98.2924 70.1204 98.3507C70.1311 98.4066 70.1489 98.4637 70.1703 98.5173C70.1929 98.5708 70.2203 98.6231 70.2524 98.6707C70.2857 98.7195 70.3226 98.7659 70.3642 98.8063C70.5295 98.9728 70.7603 99.068 70.9946 99.068C71.229 99.068 71.4597 98.9728 71.625 98.8063C71.6667 98.7659 71.7036 98.7195 71.7368 98.6707C71.769 98.6231 71.7963 98.5708 71.8177 98.5173C71.8403 98.4637 71.8582 98.4066 71.8689 98.3507C71.8808 98.2924 71.8867 98.2342 71.8867 98.1759C71.8867 98.1176 71.8808 98.0593 71.8689 98.0011C71.8581 97.9451 71.8403 97.888 71.8177 97.8345Z" fill="white" fill-opacity="0.8"/>
<path d="M76.188 97.2839C75.6953 97.2839 75.2959 97.6833 75.2959 98.176C75.2959 98.6688 75.6953 99.0682 76.188 99.0682H85.7088C86.2015 99.0682 86.6009 98.6688 86.6009 98.176C86.6009 97.6833 86.2015 97.2839 85.7088 97.2839H76.188Z" fill="white" fill-opacity="0.8"/>
<path d="M71.8689 85.0263C71.8582 84.9691 71.8403 84.9132 71.8189 84.8597C71.7963 84.805 71.7689 84.7539 71.7368 84.7051C71.7035 84.6563 71.6667 84.6111 71.625 84.5695C71.5846 84.529 71.5382 84.491 71.4895 84.4588C71.4418 84.4268 71.3895 84.3993 71.336 84.3768C71.2813 84.3542 71.2254 84.3375 71.1683 84.3256C71.0541 84.3019 70.9352 84.303 70.8197 84.3256C70.7639 84.3375 70.7068 84.3541 70.6532 84.3768C70.5997 84.3993 70.5474 84.4267 70.4998 84.4588C70.4511 84.491 70.4047 84.529 70.3642 84.5695C70.3226 84.6111 70.2857 84.6563 70.2524 84.7051C70.2203 84.7539 70.1929 84.805 70.1703 84.8597C70.1489 84.9132 70.1311 84.9691 70.1204 85.0263C70.1085 85.0833 70.1025 85.1428 70.1025 85.1999C70.1025 85.2582 70.1085 85.3177 70.1204 85.3747C70.1311 85.4319 70.1489 85.4878 70.1703 85.5413C70.1929 85.596 70.2203 85.6471 70.2524 85.6959C70.2857 85.7447 70.3226 85.7899 70.3642 85.8315C70.4047 85.8719 70.4511 85.91 70.4998 85.9422C70.5474 85.9742 70.5997 86.0017 70.6532 86.0242C70.7068 86.0468 70.7639 86.0635 70.8197 86.0753C70.8781 86.0873 70.9363 86.0932 70.9946 86.0932C71.0529 86.0932 71.1112 86.0873 71.1683 86.0753C71.2254 86.0635 71.2813 86.0468 71.336 86.0242C71.3895 86.0017 71.4418 85.9742 71.4895 85.9422C71.5382 85.91 71.5846 85.8719 71.625 85.8315C71.6667 85.7899 71.7036 85.7447 71.7368 85.6959C71.7689 85.6471 71.7963 85.596 71.8189 85.5413C71.8403 85.4878 71.8582 85.4319 71.8689 85.3747C71.8808 85.3177 71.8867 85.2582 71.8867 85.1999C71.8867 85.1428 71.8808 85.0833 71.8689 85.0263Z" fill="white" fill-opacity="0.8"/>
<path d="M87.0936 84.3083H78.8423C78.3496 84.3083 77.9502 84.7077 77.9502 85.2005C77.9502 85.6932 78.3496 86.0926 78.8423 86.0926H87.0936C87.5864 86.0926 87.9857 85.6932 87.9857 85.2005C87.9857 84.7077 87.5864 84.3083 87.0936 84.3083Z" fill="white" fill-opacity="0.8"/>
<path d="M71.8689 89.3511C71.8582 89.2941 71.8403 89.2382 71.8177 89.1846C71.7963 89.1311 71.7678 89.0787 71.7357 89.03C71.7035 88.9812 71.6667 88.9361 71.625 88.8944C71.5846 88.8539 71.5382 88.8158 71.4895 88.7838C71.4418 88.7516 71.3895 88.7243 71.336 88.7016C71.2825 88.6791 71.2254 88.6624 71.1695 88.6505C71.0541 88.6279 70.9352 88.6279 70.8197 88.6505C70.7639 88.6624 70.7068 88.6791 70.6532 88.7016C70.5997 88.7243 70.5474 88.7516 70.4998 88.7838C70.4511 88.8158 70.4047 88.8539 70.3642 88.8944C70.3226 88.9361 70.2857 88.9812 70.2524 89.03C70.2203 89.0787 70.1929 89.1311 70.1703 89.1846C70.1489 89.2382 70.1311 89.2941 70.1204 89.3511C70.1085 89.4094 70.1025 89.4677 70.1025 89.526C70.1025 89.5842 70.1085 89.6425 70.1204 89.6997C70.1311 89.7567 70.1489 89.8126 70.1703 89.8661C70.1929 89.9209 70.2203 89.9721 70.2524 90.0208C70.2857 90.0695 70.3226 90.1147 70.3642 90.1564C70.4047 90.198 70.4511 90.235 70.4998 90.267C70.5474 90.2992 70.5997 90.3265 70.6532 90.3491C70.7068 90.3717 70.7639 90.3884 70.8197 90.4002C70.8781 90.4121 70.9363 90.4169 70.9946 90.4169C71.0529 90.4169 71.1112 90.4121 71.1695 90.4002C71.2254 90.3884 71.2825 90.3717 71.336 90.3491C71.3895 90.3265 71.4418 90.2992 71.4895 90.267C71.5382 90.235 71.5846 90.198 71.625 90.1564C71.6667 90.1147 71.7035 90.0695 71.7357 90.0208C71.7678 89.9721 71.7963 89.9209 71.8177 89.8661C71.8403 89.8126 71.8581 89.7567 71.8689 89.6997C71.8808 89.6425 71.8867 89.5842 71.8867 89.526C71.8867 89.4677 71.8808 89.4094 71.8689 89.3511Z" fill="white" fill-opacity="0.8"/>
<path d="M87.0936 88.6335H78.8423C78.3496 88.6335 77.9502 89.0329 77.9502 89.5257C77.9502 90.0184 78.3496 90.4178 78.8423 90.4178H87.0936C87.5864 90.4178 87.9857 90.0184 87.9857 89.5257C87.9857 89.0329 87.5864 88.6335 87.0936 88.6335Z" fill="white" fill-opacity="0.8"/>
<path d="M94.4798 84.3083H91.4937C91.0009 84.3083 90.6016 84.7077 90.6016 85.2005C90.6016 85.6932 91.0009 86.0926 91.4937 86.0926H94.4798C94.9726 86.0926 95.3719 85.6932 95.3719 85.2005C95.3719 84.7077 94.9725 84.3083 94.4798 84.3083Z" fill="white" fill-opacity="0.8"/>
<path d="M104.217 66.0836H90.3335C89.8408 66.0836 89.4414 66.483 89.4414 66.9757C89.4414 67.4685 89.8408 67.8678 90.3335 67.8678H104.217C104.71 67.8678 105.109 67.4685 105.109 66.9757C105.109 66.483 104.71 66.0836 104.217 66.0836Z" fill="white"/>
<path d="M96.2688 100.207C95.9203 99.8584 95.3555 99.8585 95.0072 100.207L91.478 103.736C91.3108 103.903 91.2168 104.13 91.2168 104.367C91.2168 104.603 91.3108 104.83 91.478 104.997L95.0071 108.526C95.1813 108.701 95.4097 108.788 95.638 108.788C95.8662 108.788 96.0946 108.701 96.2688 108.526C96.6172 108.178 96.6172 107.613 96.2688 107.265L93.3705 104.367L96.2688 101.468C96.6172 101.12 96.6172 100.555 96.2688 100.207Z" fill="white"/>
<path d="M106.527 100.207C106.178 99.8586 105.614 99.8586 105.265 100.207C104.917 100.555 104.917 101.12 105.265 101.469L108.163 104.367L105.265 107.265C104.917 107.613 104.917 108.178 105.265 108.527C105.439 108.701 105.668 108.788 105.896 108.788C106.124 108.788 106.353 108.701 106.527 108.526L110.056 104.997C110.404 104.649 110.404 104.084 110.056 103.736L106.527 100.207Z" fill="white"/>
<path d="M102.395 98.4306C101.922 98.2908 101.426 98.5616 101.287 99.0344L98.1577 109.665C98.0185 110.138 98.2888 110.634 98.7615 110.773C98.8456 110.798 98.9303 110.81 99.0138 110.81C99.3993 110.81 99.7549 110.558 99.8692 110.169L102.999 99.5383C103.138 99.0656 102.867 98.5696 102.395 98.4306Z" fill="white"/>
<defs>
<filter id="filter0_bd_1643_15410" x="-45.001" y="-45" width="263.521" height="256" filterUnits="userSpaceOnUse" color-interpolation-filters="sRGB">
<feFlood flood-opacity="0" result="BackgroundImageFix"/>
<feGaussianBlur in="BackgroundImageFix" stdDeviation="40"/>
<feComposite in2="SourceAlpha" operator="in" result="effect1_backgroundBlur_1643_15410"/>
<feColorMatrix in="SourceAlpha" type="matrix" values="0 0 0 0 0 0 0 0 0 0 0 0 0 0 0 0 0 0 127 0" result="hardAlpha"/>
<feOffset/>
<feGaussianBlur stdDeviation="17.5"/>
<feColorMatrix type="matrix" values="0 0 0 0 0 0 0 0 0 0 0 0 0 0 0 0 0 0 0.25 0"/>
<feBlend mode="normal" in2="effect1_backgroundBlur_1643_15410" result="effect2_dropShadow_1643_15410"/>
<feBlend mode="normal" in="SourceGraphic" in2="effect2_dropShadow_1643_15410" result="shape"/>
</filter>
<linearGradient id="paint0_linear_1643_15410" x1="32.8347" y1="21.839" x2="195.383" y2="26.5463" gradientUnits="userSpaceOnUse">
<stop offset="0.0172482" stop-color="white" stop-opacity="0.11"/>
<stop offset="0.515625" stop-color="white"/>
<stop offset="1" stop-color="white" stop-opacity="0"/>
</linearGradient>
</defs>
</svg>
