<svg width="1235" height="1001" viewBox="0 0 1235 1001" fill="none" xmlns="http://www.w3.org/2000/svg">
<g opacity="0.7">
<mask id="mask0_13_42717" style="mask-type:alpha" maskUnits="userSpaceOnUse" x="400" y="-125" width="1122" height="726">
<ellipse opacity="0.3" cx="961.03" cy="238.328" rx="577.105" ry="335.743" transform="rotate(16.9402 961.03 238.328)" fill="#389989"/>
</mask>
<g mask="url(#mask0_13_42717)">
<g opacity="0.65" filter="url(#filter0_f_13_42717)">
<ellipse cx="961.03" cy="238.328" rx="577.105" ry="335.743" transform="rotate(16.9402 961.03 238.328)" fill="#389989"/>
</g>
<path d="M764.517 429.284C750.815 427.306 737.516 416.149 730.871 400.939C725.993 389.942 724.367 378.359 722.703 367.035C722.119 362.86 721.405 358.666 720.691 354.473C717.503 337.254 711.167 325.387 701.868 319.426C697.771 316.723 692.732 315.072 686.657 314.195C680.065 313.243 673.194 313.307 665.917 313.443C662.223 313.438 658.252 313.524 654.447 313.371C651.695 313.237 648.814 313.085 646.1 312.693C624.385 309.558 610.032 298.38 607.544 282.715C605.458 269.746 612.587 257.844 618.213 249.947C619.546 248.029 621.027 245.999 622.489 244.099C629.059 235.151 635.296 226.683 636.935 217.155C637.456 214.46 637.498 211.431 637.669 208.42C637.824 203.693 638.016 198.706 639.538 193.648C645.664 173.156 669.613 164.474 690.649 165.005C693.142 165.101 695.783 165.086 698.147 165.164C709.081 165.291 719.46 165.602 728.767 166.946C755.394 170.791 769.798 184.35 776.571 212.379C778.334 219.363 779.413 226.512 780.529 233.403C782.104 242.603 783.476 251.378 786.086 259.804C792.923 281.904 808.59 303.167 831.409 321.505C833.18 322.948 834.97 324.262 836.741 325.706C847.883 334.44 859.394 343.36 865.339 357.017C869.683 367.145 868.684 380.46 862.834 389.908C858.205 397.289 851.365 401.711 843.367 402.271C841.372 402.379 839.266 402.339 836.94 402.003C835.647 401.817 834.355 401.63 833.081 401.314C831.917 401.146 830.902 400.867 829.739 400.699C828.834 400.569 827.929 400.438 827.264 400.474C818.602 400.147 810.817 406.544 802.569 413.402C793.878 420.592 784.743 428.114 772.92 429.574C770.131 429.699 767.361 429.695 764.517 429.284Z" stroke="url(#paint0_linear_13_42717)" stroke-miterlimit="10"/>
<path d="M859.445 359.465C853.316 345.253 839.588 336.145 827.394 326.467C806.106 309.406 787.873 287.64 779.878 261.679C775.136 246.083 774.071 229.699 770.161 213.828C759.459 170.058 730.348 172.452 690.363 171.561C672.208 171.183 650.884 178.132 645.723 195.596C643.477 202.925 644.592 210.739 643.232 218.328C640.885 231.844 631.264 242.727 623.324 253.852C617.512 262.118 612.16 271.769 613.752 281.763C616.423 298.907 637.097 306.511 654.458 306.906C671.8 307.431 690.68 304.615 705.293 313.983C718.209 322.313 724.114 338.077 726.936 353.263C729.757 368.449 730.528 384.131 736.675 398.214C742.952 412.315 756.749 424.6 772.063 422.72C793.14 420.222 806.184 392.944 827.46 393.641C832.705 393.87 837.836 395.799 843.027 395.493C858.579 394.703 865.555 373.806 859.445 359.465Z" stroke="url(#paint1_linear_13_42717)" stroke-miterlimit="10"/>
<path d="M767.316 409.896C760.336 408.888 752.755 401.987 748.761 393.098C744.969 384.633 743.506 374.657 741.97 364.275C741.275 359.952 740.728 355.519 739.793 351.029C735.56 328.25 726.276 312.131 712.271 303.115C705.758 298.876 698.226 296.205 689.308 294.917C681.294 293.76 673.222 293.914 665.428 293.976C661.734 293.97 658.151 294.113 654.734 294.015C652.758 293.994 650.671 293.825 648.603 293.526C639.167 292.163 627.797 287.751 626.553 279.918C625.876 275.466 628.175 269.596 633.82 261.57C635.134 259.78 636.467 257.862 637.91 256.091C645.276 246.202 653.493 234.985 655.934 220.823C656.642 216.834 656.814 212.901 656.912 209.484C657.046 205.809 657.163 202.263 657.942 199.604C660.225 192.017 671.873 184.462 689.769 184.803C692.391 184.918 694.903 184.884 697.397 184.981C708.182 185.218 717.528 185.38 725.671 186.556C741.828 188.889 751.719 194.408 757.263 217.244C758.86 223.545 759.903 230.029 761.038 236.791C762.575 246.249 764.204 255.985 767.145 265.779C775.159 291.611 792.982 316.221 819.011 337.001C820.782 338.444 822.682 339.906 824.582 341.368C834.193 348.826 843.325 355.95 847.171 364.951C849.049 369.312 848.522 375.702 846.059 379.965C844.319 382.88 842.582 383.025 842.065 382.951C841.53 383.005 840.754 382.893 839.591 382.725C838.557 382.576 837.523 382.427 836.507 382.148C835.215 381.961 833.811 381.627 832.26 381.403C830.58 381.16 829.139 381.084 827.699 381.008C811.558 380.393 800.018 389.943 789.829 398.368C782.95 403.972 776.496 409.374 770.307 410.196C769.532 410.084 768.479 410.064 767.316 409.896Z" stroke="url(#paint2_linear_13_42717)" stroke-miterlimit="10"/>
<path d="M724.467 214.092C716.563 201.207 703 192.783 686.884 200.22C679.103 203.847 677.259 213.873 672.169 220.791C666.58 228.429 656.49 232.514 652.727 241.208C648.909 250.289 653.584 260.86 660.037 268.258C664.333 273.233 667.583 273.57 673.532 272.582C679.481 271.593 684.079 271.729 690.209 273.142C703.761 276.155 716.478 282.213 730.42 283.435C735.499 283.904 741.262 283.285 744.352 279.245C747.776 274.725 746.049 268.406 744.173 263.121C738.233 246.692 733.642 229.14 724.467 214.092Z" stroke="url(#paint3_linear_13_42717)" stroke-miterlimit="10"/>
<path d="M727.715 276.579C715.363 274.4 703.771 269.691 691.641 266.884C690.108 266.531 688.557 266.307 687.135 266.101C677.57 264.72 666.851 269.506 660.55 259.228C657.786 254.606 657.444 248.751 659.483 243.767C662.82 235.276 672.263 232.021 677.519 224.863C679.648 222.003 681.148 218.921 682.63 215.968C684.853 211.539 686.724 207.719 689.7 206.301C693.803 204.386 697.72 203.764 701.468 204.306C710.387 205.593 716.286 213.175 718.939 217.648C725.645 228.777 730.095 241.823 734.194 254.555C735.684 258.86 736.952 262.87 738.719 267.084C739.989 270.17 740.315 274.308 737.652 276.299C735.729 277.736 733.107 277.622 730.78 277.286C729.783 276.878 728.749 276.728 727.715 276.579Z" stroke="url(#paint4_linear_13_42717)" stroke-miterlimit="10"/>
<path d="M721.221 260.335C720.315 261.127 718.948 261.458 717.636 261.4C715.937 261.287 714.332 260.527 712.726 259.768C705.657 256.636 698.309 254.519 690.664 253.547C686.787 252.987 682.742 252.667 678.882 252.902C676.37 252.935 672.194 254.443 671.257 250.877C670.283 247.569 675.496 244.364 677.734 242.575C681.025 239.884 684.89 236.879 688.147 232.599C690.923 228.909 691.889 224.958 694.278 221.213C695.314 219.515 696.831 218.151 698.734 217.766C701.32 217.215 703.886 218.641 705.582 220.602C709.085 224.67 711.606 230.972 713.815 235.778C716.521 241.71 718.95 247.735 721.637 253.797C722.429 255.627 723.201 257.586 722.294 259.302C721.979 259.652 721.665 260.003 721.221 260.335Z" stroke="url(#paint5_linear_13_42717)" stroke-miterlimit="10"/>
<path d="M706.371 247.107C706.057 247.458 705.613 247.789 705.077 247.844C704.542 247.899 703.896 247.805 703.378 247.731C700.535 247.32 697.747 246.522 694.959 245.723C694.332 245.501 693.556 245.389 693.114 244.797C692.542 244.187 692.396 243.374 692.766 242.636C693.174 241.639 694.652 241.456 695.318 240.497C696.132 239.427 696.596 238.042 697.06 236.658C697.635 235.421 699.783 231.509 701.275 233.968C701.588 234.541 701.624 235.206 701.808 235.76C702.284 238.864 703.701 241.839 705.6 244.225C706.153 244.964 706.817 245.852 706.557 246.738C706.39 246.978 706.39 246.978 706.371 247.107Z" stroke="url(#paint6_linear_13_42717)" stroke-miterlimit="10"/>
<path d="M797.138 328.565C788.889 324.47 780.992 318.844 773.465 313.402C759 303.001 752.627 316.068 749.302 329.047C747.09 337.964 746.799 347.291 748.799 356.288C750.596 364.861 758.396 372.981 757.792 381.734C757.453 385.908 755.967 391.631 759.973 393.133C763.222 394.394 766.108 390.852 768.827 388.474C774.393 383.735 782.409 383.969 789.595 382.632C802.472 380.268 814.547 370.664 816.93 357.813C819.054 345.848 809.338 334.548 797.138 328.565Z" stroke="url(#paint7_linear_13_42717)" stroke-miterlimit="10"/>
<path d="M770.532 372.093C770.402 372.075 770.292 371.927 770.162 371.908C766.896 369.853 766.406 364.108 764.768 360.837C763.442 358.138 761.987 355.421 761.602 353.518C759.897 345.223 759.303 334.713 763.452 326.999C766.73 320.743 773.274 329.341 777.13 331.877C781.706 334.913 786.43 337.838 791.487 340.284C799.367 344.192 805.009 350.813 804.079 355.429C802.85 362.113 795.619 368.326 787.213 369.884C785.864 370.085 784.239 370.378 782.631 370.542C779.011 370.942 774.093 373.927 770.532 372.093Z" stroke="url(#paint8_linear_13_42717)" stroke-miterlimit="10"/>
<path d="M774.199 364.969C771.319 363.894 771.842 360.275 770.589 357.983C769.65 356.263 768.232 353.288 767.994 352.198C767.205 348.521 766.823 344.771 766.847 340.948C766.923 339.508 766.801 334.872 768.483 334.191C770.164 333.51 776.712 339.338 778.299 340.227C782.802 342.856 787.415 345.633 791.918 348.263C794.114 349.504 796.402 351.021 796.841 353.46C797.226 355.363 796.281 357.338 794.894 358.721C793.507 360.104 791.677 360.896 789.737 361.539C786.244 362.882 782.789 363.967 779.241 364.774C777.597 365.196 775.842 365.471 774.218 364.84C774.328 364.988 774.328 364.988 774.199 364.969Z" stroke="url(#paint9_linear_13_42717)" stroke-miterlimit="10"/>
<path d="M1035.03 406.328C1022.38 387.083 1015.51 359.7 1030.66 342.491C1038.1 333.933 1049.37 329.886 1059.04 324.157C1085.44 308.571 1102.72 275.703 1094.03 246.342C1085.21 216.963 1046.23 199.063 1020.9 216.386C1005.22 227.185 1000.36 237.041 981.89 239.783C967.869 241.849 950.106 238.756 941.09 252.761C935.129 262.061 934.847 277.722 923.8 279.294C920.696 279.77 917.558 278.657 914.716 277.323C888.064 265.425 874.09 236.093 851.252 217.885C842.84 211.26 832.523 205.944 821.847 206.777C811.152 207.74 800.758 216.664 801.444 227.451C802.094 237.573 811.263 244.439 817.937 252.133C831.378 267.796 835.094 289.577 846.334 306.771C856.801 322.929 873.24 334.276 886.073 348.664C926.454 393.421 882.42 444.33 829.685 422.993C826.695 421.769 823.612 420.268 820.344 420.06C796.668 418.621 834.418 444.129 835.133 447.399C837.116 455.602 835.219 464.169 836.111 472.611C837.824 488.165 849.403 501.185 863.059 508.963C876.715 516.74 892.206 520.033 907.53 523.565C934.837 530.015 958.085 545.38 986.302 548.267C1011.53 550.853 1039.06 544.8 1056.74 526.505C1072.39 510.423 1078.34 485.683 1071.94 464.175C1065.36 442.112 1047.56 425.555 1035.03 406.328Z" stroke="url(#paint10_linear_13_42717)" stroke-miterlimit="10"/>
<path d="M994.854 535.646C992.49 535.569 990.126 535.491 987.67 535.137C973.229 533.711 959.754 528.335 945.523 522.717C934.411 518.342 923.059 513.8 910.56 510.807L907.883 510.157C893.961 506.959 880.816 503.873 869.596 497.503C857.878 490.929 850.339 480.999 849.264 471.08C848.408 463.303 845.377 452.309 850.689 444.763C858.648 433.508 872.694 439.495 883.488 434.192C895.132 428.484 904.806 419.061 910.198 407.304C920.038 385.765 914.831 360.602 895.949 339.666C890.713 333.896 885.014 328.586 879.665 323.591C871.162 315.766 863.139 308.274 857.409 299.529C853.207 292.985 850.06 285.537 846.729 277.535C841.945 265.892 836.939 253.953 827.905 243.412C826.209 241.451 824.494 239.62 822.779 237.789C818.888 233.665 814.757 229.374 814.54 226.307C814.378 223.777 818.503 219.886 823.047 219.486C823.582 219.432 824.247 219.396 824.764 219.47C830.157 219.589 836.469 222.48 843.221 227.81C851.393 234.268 858.492 242.682 865.94 251.411C878.127 265.706 890.756 280.593 909.471 288.969C912.572 290.341 916.818 292.009 921.823 292.072C923.134 292.13 924.464 292.058 925.683 291.838C940.776 289.663 945.802 275.874 948.733 267.456C949.827 264.447 950.959 261.18 952.143 259.372C955.198 254.666 960.592 253.862 972.414 253.326C976.145 253.073 980.005 252.838 983.903 252.345C1000.49 249.859 1009.07 242.521 1017.34 235.533C1020.65 232.712 1024.11 229.781 1028.36 226.832C1032.91 223.662 1038.4 222.212 1044.58 222.313C1060.89 222.689 1077.09 234.792 1081.67 249.704C1084.86 260.458 1083.61 272.812 1078.09 284.55C1072.58 296.159 1063.48 306.193 1052.65 312.678C1050.21 314.041 1047.77 315.404 1045.05 316.859C1037.07 320.984 1028.06 325.754 1020.98 333.704C1008.03 348.46 1001.22 378.222 1024.26 413.349C1028.59 419.912 1033.25 425.996 1037.93 431.95C1047.17 443.84 1055.85 454.99 1059.69 467.684C1064.76 484.647 1059.91 504.531 1047.67 517.146C1035.46 529.502 1016.41 536.251 994.854 535.646Z" stroke="url(#paint11_linear_13_42717)" stroke-miterlimit="10"/>
<path d="M992.583 523.046C982.186 521.941 971.829 518.73 961.713 515.686C938.858 508.559 916.133 501.451 893.279 494.325C884.694 491.634 868.748 484.185 863.014 477.287C858.719 472.312 858.289 463.41 863.816 459.853C866.738 457.9 870.561 457.924 874.163 457.652C895.756 456.152 914.174 440.998 922.422 421.34C932.117 398.065 928.021 370.687 916.179 348.524C906.712 330.927 885.809 315.769 871.756 301.601C869.912 299.751 868.068 297.901 867.37 295.425C866.672 292.949 867.655 289.792 870.021 288.946C873.347 287.843 876.168 291.153 878.269 293.964C891.763 311.087 918.244 314.119 937.704 306.373C949.328 301.717 954.643 292.324 963.797 284.673C968.457 280.728 974.112 278.114 979.51 275.462C994.259 268.355 1008.99 261.377 1023.61 254.252C1033.24 249.704 1044.6 245.012 1054.07 249.81C1062.91 254.385 1066.22 266.21 1063.51 275.847C1060.8 285.484 1053.25 292.971 1045.15 298.796C1037.05 304.62 1027.96 309.113 1019.97 315.085C1004.57 326.716 993.738 344.153 989.961 363.005C986.312 381.875 989.717 402.16 999.61 418.631C1007.99 432.772 1020.76 443.984 1029.99 457.721C1039.24 471.328 1044.77 489.677 1036.99 504.256C1030.47 516.51 1016.09 522.879 1002.15 523.504C999.12 523.463 995.833 523.384 992.583 523.046Z" stroke="url(#paint12_linear_13_42717)" stroke-miterlimit="10"/>
<path d="M1010.32 505.288C1005.76 504.894 1001.29 503.853 996.843 502.682C970.128 495.79 943.523 489.045 916.809 482.153C913.873 481.465 910.716 480.482 909.242 477.894C907.437 474.862 908.829 470.708 911.418 468.311C914.007 465.914 917.481 464.7 920.734 463.191C953.299 448.76 962.941 411.226 957.468 378.767C956.04 370.38 953.67 362.12 950.468 354.137C947.69 346.874 925.807 332.102 945.504 326.37C949.237 325.193 953.263 325.642 957.271 325.298C969.075 323.967 976.222 311.936 984.378 304.8C992.83 297.444 1002.85 292.029 1012.9 287.279C1021.68 283.136 1035.94 280.314 1042.94 273.934C1045.06 271.998 1046.97 269.766 1049.52 268.55C1052.07 267.335 1055.71 267.729 1057.07 270.169C1058.01 271.888 1057.54 274.196 1056.38 275.875C1055.21 277.554 1053.46 278.752 1051.72 279.82C1035.82 290.324 1018.39 299.551 1005.75 313.956C994.097 327.052 985.946 343.293 982.54 360.483C977.961 383.969 982.337 409.408 994.551 429.909C1000.08 439.152 1006.62 446.827 1012.95 454.206C1017.57 459.624 1021.87 464.599 1025.46 469.868C1032.96 480.98 1037.76 498.958 1020.65 504.14C1017.43 505.391 1013.83 505.663 1010.32 505.288Z" stroke="url(#paint13_linear_13_42717)" stroke-miterlimit="10"/>
<path d="M1010.43 484.454C1007.27 484.394 1003.59 483.335 1001.38 483.147C990.575 482.115 979.883 481.231 969.08 480.199C961.01 479.43 951.517 479.378 943.893 476.43C941.272 475.392 939.004 472.821 939.286 469.959C939.586 466.968 943.505 464.499 945.411 462.267C948.464 458.485 951.277 454.537 953.721 450.403C957.906 443.354 960.965 435.879 963.673 428.089C965.268 423.437 968.482 411.233 974.909 411.502C983.46 411.681 981.844 430.185 985.012 435.656C991.919 448.134 1001.47 459.673 1011.06 470.03C1013.34 472.472 1015.61 475.042 1016.2 478.294C1017.19 483.319 1014.1 484.589 1010.43 484.454Z" stroke="url(#paint14_linear_13_42717)" stroke-miterlimit="10"/>
<path d="M1006.8 475.75C1006.1 476.968 1004.23 477.094 1002.68 476.87C993.577 475.951 984.344 475.014 975.24 474.095C968.093 473.327 960.371 474.719 953.115 472.88C948.278 471.654 948.723 470.398 951.019 466.376C952.778 463.331 954.888 460.6 956.758 457.704C959.868 452.611 962.628 447.203 965.001 441.74C966.576 438.141 967.697 429.462 972.095 428.249C977.213 426.613 979.306 434.965 980.668 438.328C985.82 451.08 994.207 462.451 1004.81 471.24C1006.1 472.35 1007.71 474.033 1006.8 475.75ZM1006.8 475.75C1006.82 475.62 1006.82 475.62 1006.8 475.75Z" stroke="url(#paint15_linear_13_42717)" stroke-miterlimit="10"/>
<path d="M980.906 464.094C977.25 463.829 967.623 466.53 964.931 463.238C961.908 459.503 966.811 453.877 969.05 451.166C973.99 445.281 977.153 454.447 979.899 458.274C980.784 459.458 984.932 464.543 980.906 464.094Z" stroke="url(#paint16_linear_13_42717)" stroke-miterlimit="10"/>
<path d="M966.977 367.735C960.769 369.61 963.597 355.503 961.187 349.349C959.66 345.302 950.462 345.953 953.779 338.515C956.967 331.058 956.032 338.444 957.251 338.225C967.042 337.131 972.733 323.306 979.931 326.457C987.13 329.608 970.629 347.018 968.488 358.189C967.763 361.383 973.186 365.861 966.977 367.735Z" stroke="url(#paint17_linear_13_42717)" stroke-miterlimit="10"/>
<path d="M1093.08 444.795L1092.94 444.906C1090.74 446.435 1089.79 449.334 1089.68 451.956C1089.33 461.671 1094.5 472.446 1096.72 481.739C1099.37 492.677 1101.45 503.799 1103.03 514.846C1106.32 537.753 1110.83 566.776 1104.26 589.446C1102.89 594.394 1101.38 600.246 1104.5 604.259C1108.08 608.734 1114.89 608.135 1120.43 606.296C1133.17 602.197 1141.14 594.507 1151.05 586.174C1161.43 577.379 1175.14 571.97 1186.91 565.357C1191.94 562.52 1197.67 558.466 1196.92 552.684C1196.27 547.179 1190.05 544.565 1184.8 542.489C1144.03 526.045 1128.4 482.618 1103.86 449.65C1101.56 446.415 1097.63 441.625 1093.08 444.795Z" stroke="url(#paint18_linear_13_42717)" stroke-miterlimit="10"/>
<path d="M1110.85 591.321C1110.82 587.885 1112.42 584.157 1112.86 581.055C1113.91 573.816 1114.29 566.614 1114.15 559.337C1113.95 545.189 1111.89 531.167 1109.93 517.294L1109.47 514.061C1107.41 500.04 1104.49 486.423 1100.65 472.805C1100.32 471.438 1099.9 469.794 1100.84 468.742C1104.14 465.127 1115.34 478.886 1116.71 481.326C1124.83 494.506 1133.07 507.835 1143.25 519.597C1154.55 532.709 1167.04 540.319 1181.99 548.283C1183.83 549.209 1185.46 550.763 1186.08 552.833C1186.96 555.863 1185.15 559.296 1182.5 561.157C1177.79 564.567 1170.79 566.459 1165.63 569.277C1159.05 572.813 1152.56 576.626 1146.72 581.457C1145.52 582.471 1144.46 583.374 1143.26 584.388C1137.54 589.237 1130.31 596.374 1123.2 599.041C1119.7 600.384 1115.27 600.008 1112.76 597.271C1111.35 595.219 1110.96 593.316 1110.85 591.321Z" stroke="url(#paint19_linear_13_42717)" stroke-miterlimit="10"/>
<path d="M1120.49 569.357C1118.83 568.062 1118.22 564.939 1118.1 563.074C1117.9 557.108 1122.09 551.906 1122.02 545.958C1121.78 533.916 1116.02 522.659 1114.17 510.781C1113.89 509.026 1113.62 507.271 1113.99 505.609C1114.23 503.929 1115.14 502.212 1116.6 501.236C1122.24 497.827 1125.79 507.049 1127.39 510.579C1130.41 517.085 1135.58 522.449 1141.29 526.705C1146.53 530.629 1152.39 533.057 1157.83 536.482C1161.57 538.87 1162.38 543.341 1157.41 544.867C1151.33 546.76 1146.08 548.377 1140.79 552.1C1138.45 553.74 1136.19 555.658 1134.06 557.594C1132.07 559.549 1130.45 562.483 1128.24 564.142C1126.92 565.931 1124.33 570.175 1121.73 569.931C1121.36 569.746 1120.86 569.542 1120.49 569.357Z" stroke="url(#paint20_linear_13_42717)" stroke-miterlimit="10"/>
<path d="M1208.05 -248.117C1201.24 -264.934 1188.42 -278.528 1174.68 -290.277C1103.07 -351.814 1004.35 -372.667 909.988 -372.569C890.189 -372.525 869.852 -371.503 851.998 -362.997C830.447 -352.649 814.66 -331.045 811.226 -307.262C805.178 -264.459 852.562 -234.393 845.225 -194.547C840.681 -169.473 823.564 -147.797 827.236 -121.14C829.117 -106.749 839.716 -93.3429 837.109 -78.9407C834.147 -62.0825 815.203 -53.3381 806.242 -38.7977C786.893 -7.15169 819.255 40.1419 795.958 68.9746C788.742 77.829 777.912 82.467 769.091 89.6384C760.27 96.8097 753.344 109.137 758.482 119.247C767.615 137.324 796.909 124.532 814.81 133.978C828.042 141.035 831.801 158.864 843.811 167.987C857.592 178.554 878.839 173.969 890.697 161.298C902.536 148.757 906.627 130.478 906.745 113.209C906.859 98.7111 904.388 83.8395 897.241 71.1956C885.876 51.213 862.297 34.4811 865.988 11.6585C869.401 -10.1488 897.031 -22.3894 899.668 -44.3087C902.36 -65.6922 879.764 -84.6574 883.6 -105.744C885.182 -113.96 890.697 -121.081 897.372 -126.187C926.236 -147.882 967.824 -132.508 997.27 -111.631C1026.72 -90.7528 1055.67 -63.7438 1091.67 -62.6369C1124.25 -61.6274 1155.98 -85.8116 1163.58 -117.438C1167.83 -135.033 1165.67 -154.743 1175.86 -169.633C1183.19 -180.186 1195.56 -186.318 1203.37 -196.538C1214.4 -210.78 1214.85 -231.299 1208.05 -248.117Z" stroke="url(#paint21_linear_13_42717)" stroke-miterlimit="10"/>
<path d="M862.604 161.2C859.761 160.79 857.398 159.789 855.369 158.308C851.808 155.551 848.805 150.763 845.58 145.679C840.532 137.693 834.857 128.56 824.559 123.115C820.148 120.762 815.219 119.259 809.274 118.4C803.457 117.56 797.787 117.533 792.246 117.525C787.758 117.537 783.418 117.438 779.928 116.934C774.757 116.187 774.15 114.912 773.745 114.062C772.308 111.215 775.754 104.719 780.987 100.461C783.687 98.2116 786.885 96.1664 790.231 94.0105C796.776 89.8093 804.06 85.0551 809.852 77.8423C825.58 58.473 822.07 34.3466 818.963 12.9174C816.532 -4.05968 814.229 -20.0946 821.135 -31.369C823.745 -35.7424 828.166 -39.8544 832.753 -44.2063C841.316 -52.3384 851.101 -61.6138 853.708 -76.0161C855.869 -88.2396 851.859 -98.8471 848.197 -108.217C846.284 -113.243 844.463 -117.993 843.897 -122.297C842.106 -135.487 846.908 -147.725 852.36 -161.716C856.086 -171.075 859.887 -180.95 861.824 -191.623C866.294 -216.18 854.394 -237.032 843.876 -255.572C834.407 -272.246 825.455 -287.922 827.918 -304.984C830.699 -324.243 843.858 -342.268 861.435 -350.682C877.312 -358.286 896.798 -358.903 913.827 -358.951C941.55 -359.039 968.457 -357.133 993.792 -353.475C1065.92 -343.06 1125.15 -318.278 1170.01 -279.867C1179.75 -271.468 1193.32 -258.556 1199.74 -242.718C1205.37 -228.709 1204.22 -213.437 1196.79 -203.955C1194.01 -200.265 1189.98 -197.02 1185.63 -193.425C1179.96 -188.835 1173.65 -183.544 1168.8 -176.459C1160.27 -163.968 1158.56 -149.435 1157.12 -136.712C1156.39 -130.747 1155.85 -125.152 1154.57 -119.927C1148.38 -94.4298 1121.97 -74.2271 1095.71 -75.1162C1093.35 -75.1936 1091 -75.4003 1088.68 -75.7363C1065.8 -79.0398 1045.43 -94.2523 1023.86 -110.298C1018.86 -114.055 1013.62 -117.978 1008.35 -121.643C988.367 -135.876 966.513 -145.365 946.995 -148.184C926.443 -151.151 907.764 -146.987 893.249 -136.019C883.172 -128.37 876.452 -118.388 874.497 -107.586C871.667 -92.5561 877.982 -79.6365 883.451 -68.1587C887.52 -59.7859 891.257 -51.8569 890.434 -45.2461C889.556 -38.2475 883.728 -31.6996 876.828 -24.1191C868.502 -14.8969 859.067 -4.38349 856.829 10.204C853.491 31.4943 866.358 47.4712 877.64 61.6358C882.212 67.4421 886.581 72.8233 889.621 78.2763C894.87 87.6113 897.512 99.4727 897.435 113.712C897.417 125.718 895.176 142.152 885.039 152.96C879.304 158.861 870.101 162.283 862.604 161.2Z" stroke="url(#paint22_linear_13_42717)" stroke-miterlimit="10"/>
<path d="M861.192 155.454C858.35 154.12 856.619 150.572 854.574 147.373C850.17 140.404 845.747 133.563 839.846 127.829C831.528 119.634 823.72 117.055 812.698 113.881C810.04 113.101 807.142 112.155 805.631 109.825C803.807 106.923 804.773 102.972 806.993 100.389C811.415 95.3538 815.942 94.1601 819.479 87.9412C823.867 80.3938 826.613 72.3453 827.605 63.6477C829.626 45.9939 825.46 28.2385 822.956 10.855C820.946 -3.55419 824.311 -17.7152 828.458 -24.5057C830.18 -27.292 834.156 -31.0722 838.133 -34.8525C844.551 -40.9193 847.908 -50.4629 853.773 -57.2693C858.528 -62.7845 866.679 -66.2261 870.36 -57.9093C874.244 -49.1674 866.273 -42.4011 861.093 -36.6833C851.177 -25.5797 845.633 -10.9417 842.517 9.72087C839.534 28.5552 842.473 51.1478 854.177 66.9568C864.352 80.5656 874.729 94.5995 878.084 111.578C880.283 122.848 880.853 149.057 867.879 154.837C865.032 156.273 862.927 156.233 861.192 155.454Z" stroke="url(#paint23_linear_13_42717)" stroke-miterlimit="10"/>
<path d="M864.675 135.901C858.213 134.044 853.963 123.27 849.113 118.479C843.451 112.911 826.149 110.281 826.829 100.087C827 97.0766 833.554 86.4111 835.13 82.812C837.687 76.9795 840.281 71.8119 847.236 76.6429C857.31 83.6395 862.97 102.93 865.169 114.2C866.544 121.128 867.972 129.515 864.675 135.901Z" stroke="url(#paint24_linear_13_42717)" stroke-miterlimit="10"/>
<path d="M936.965 221.024C917.964 218.281 908.179 203.804 908.622 191.597C908.834 185.558 911.188 180.223 912.874 176.772C917.709 167.046 924.667 158.154 931.439 149.632C942.912 135.058 953.738 121.315 952.21 105.392C950.973 92.9413 942.474 82.3455 933.386 71.2686C931.376 68.7353 929.238 66.1833 927.118 63.502C911.228 42.8662 907.677 21.7688 917.728 6.98988C920.764 2.41402 924.814 -0.959785 928.586 -4.24167C933.265 -8.31637 937.463 -11.8008 938.652 -16.3794C939.581 -20.0719 938.627 -24.4321 937.582 -29.0695C937.067 -30.9911 936.701 -33.0233 936.353 -35.1848C933.443 -52.495 940.34 -70.1045 953.245 -79.0612C958.958 -82.9866 965.388 -84.5653 972.368 -83.5574C986.069 -81.5791 999.35 -70.2927 1012.17 -59.4688C1020.88 -52.1418 1029.1 -45.1479 1036.08 -42.2931C1040.07 -40.6618 1044.31 -38.9932 1048.32 -37.4911C1063.44 -31.6136 1079.18 -25.5134 1092.65 -15.5197C1105.27 -6.0443 1117.84 12.0008 1125.16 31.6633C1138.88 68.2165 1132.02 99.2903 1107.25 112.736C1092.35 120.877 1075.03 118.376 1059.63 116.284C1057.95 116.041 1056.4 115.817 1054.72 115.575C1035.03 112.996 1021.68 115.95 1014.77 124.454C1011.55 128.475 1009.7 134.013 1007.83 139.681L1007.57 140.567C1001.28 159.452 994.9 174.365 987.511 187.154C976.623 205.902 964.362 216.799 949.858 220.379C945.737 221.499 941.36 221.659 936.965 221.024Z" stroke="url(#paint25_linear_13_42717)" stroke-miterlimit="10"/>
<path d="M1117.36 36.3424C1110.29 17.6407 1098.61 0.778999 1087.06 -7.88208C1070.73 -20.0041 1050.78 -26.1845 1031.84 -33.9333C1008.91 -43.3133 978.912 -87.759 955.302 -71.3752C943.709 -63.2846 938.699 -47.7778 941.042 -33.8483C942.251 -26.6803 945.158 -19.399 943.337 -12.2725C940.439 -1.34297 927.836 3.69869 921.468 13.0716C911.565 27.7399 919.883 47.8102 930.648 61.9001C941.413 75.99 955.3 89.4752 956.972 107.134C959.681 135.895 929.841 156.13 916.984 182.116C915.113 185.936 913.592 190.071 913.383 194.263C912.731 209.74 931.536 220.24 946.594 216.476C961.653 212.713 972.366 199.745 980.106 186.348C988.365 172.102 994.428 156.615 999.715 141.016C1001.83 134.592 1003.83 128.02 1008.15 122.837C1018.45 109.942 1037.66 109.417 1053.99 111.51C1070.29 113.732 1088 117.213 1102.45 109.404C1128.07 95.5531 1127.86 64.1178 1117.36 36.3424Z" stroke="url(#paint26_linear_13_42717)" stroke-miterlimit="10"/>
<path d="M939.765 201.636C934.207 200.833 928.062 196.779 928.18 192.31C928.293 190.611 929.017 188.34 930.48 185.517C934.408 177.507 940.514 169.943 946.843 161.753C959.593 145.648 974.119 127.293 971.754 103.464C970.045 85.1393 958.615 71.0853 948.642 58.8251C946.633 56.2917 944.604 53.8876 942.706 51.5022C935.056 41.4249 928.078 26.6942 933.965 17.9116C935.483 15.6237 938.349 13.1346 941.364 10.535C947.393 5.33566 954.771 -0.988246 957.594 -11.4008C959.712 -19.6719 958.043 -27.3023 956.686 -33.4362C956.282 -35.2099 955.86 -36.8543 955.677 -38.3321C954.048 -48.068 957.628 -58.2392 964.506 -62.9201C966.114 -64.0074 967.611 -64.3191 969.679 -64.0205C977.822 -62.8447 989.332 -53.0016 999.699 -44.3792C1009.57 -35.9608 1018.99 -28.134 1028.7 -24.0931C1032.95 -22.4244 1037.19 -20.7558 1041.31 -19.1058C1055.93 -13.4321 1069.68 -8.14766 1081.12 0.365505C1090.77 7.56464 1101 22.6326 1106.99 38.6731C1111.87 51.5167 1113.75 64.0603 1112.31 74.0132C1110.84 84.2246 1106.27 91.2176 1098.1 95.7119C1088.8 100.703 1076.11 99.0033 1062.54 97.0436C1060.86 96.8009 1059.18 96.5583 1057.5 96.3157C1030.58 92.6921 1011.18 98.2037 999.759 112.39C994.281 119.252 991.721 126.931 989.421 133.725L989.161 134.611C983.316 152.24 977.385 165.899 970.682 177.598C962.756 191.365 954.193 199.497 945.306 201.644C943.551 201.919 941.704 201.916 939.765 201.636Z" stroke="url(#paint27_linear_13_42717)" stroke-miterlimit="10"/>
<path d="M992.416 82.827C980.436 78.0623 980.128 61.9195 973.087 52.194C967.023 43.929 954.568 36.0608 954.456 24.9605C954.383 11.7547 972.092 1.51237 974.147 -13.6295C975.248 -21.2557 978.364 -30.0425 985.736 -31.749C996.636 -34.1337 1011.62 -15.4754 1021.72 -11.3785C1026.08 -9.56192 1030.45 -7.87461 1034.59 -6.35389C1048.58 -0.902816 1060.45 3.71394 1069.75 10.5986C1081.77 19.5928 1102.24 53.2934 1090.68 67.5898C1086.18 73.1424 1078.48 75.3286 1071.29 74.8192C1055.23 73.6868 1045.54 69.5166 1028.67 73.0189C1017.66 75.2556 1005.73 86.5963 994.059 83.3281C993.671 83.2721 993.043 83.0496 992.416 82.827Z" stroke="url(#paint28_linear_13_42717)" stroke-miterlimit="10"/>
<path d="M999.334 63.2416C993.056 61.9393 992.623 54.8833 990.747 49.5982C988.209 42.5021 984.027 35.8284 978.124 31.0174C974.102 27.7977 969.842 23.4879 970.33 18.2803C970.537 15.9349 971.648 13.7203 972.871 11.6535C977.723 2.72164 982.575 -6.21026 987.428 -15.1422C992.984 -25.292 999.994 -19.9253 1006.45 -14.3748C1016.17 -5.84571 1027.95 -1.50613 1039.84 2.98136C1057.83 9.9345 1073.74 20.4121 1081.06 39.1512C1082.9 43.7713 1082.45 49.6439 1078.8 52.9444C1073.46 57.9786 1065 55.3063 1057.88 53.4855C1043.86 50.0106 1028.57 51.7607 1015.63 58.2055C1011.08 60.4519 1006.43 63.4739 1001.31 63.263C1000.5 63.4096 999.851 63.3163 999.334 63.2416Z" stroke="url(#paint29_linear_13_42717)" stroke-miterlimit="10"/>
<path d="M1009.27 36.4385C1003.42 34.0102 999.348 28.4078 995.625 23.1199C992.456 18.5717 989.194 13.7462 988.149 8.18536C984.21 -12.9681 1003.92 -5.10736 1014.5 -0.677248C1025.45 3.93812 1037 7.98185 1047 14.572C1049.77 16.4231 1057.94 21.0343 1056.29 25.1505C1054.83 28.8976 1033.21 33.2978 1029.06 34.6767C1023.22 36.7365 1016.86 38.7216 1010.92 36.9396C1010.4 36.8649 1009.77 36.6424 1009.27 36.4385Z" stroke="url(#paint30_linear_13_42717)" stroke-miterlimit="10"/>
<path d="M1322.93 -16.5768C1319.84 -38.1353 1315.42 -59.6219 1307.82 -80.116C1302.53 -94.604 1295.22 -108.855 1283.59 -118.846C1272.91 -128.041 1259.38 -133.03 1246.24 -137.963C1206.02 -152.743 1210.83 -87.3912 1198.23 -67.7033C1187.97 -51.5025 1170.74 -40.0035 1151.89 -36.5227C1144.99 -35.2772 1137.69 -35.0111 1131.63 -31.4002C1125.56 -27.7894 1121.93 -19.0773 1126.28 -13.5668C1127.94 -11.348 1130.67 -10.1618 1132.96 -8.64389C1145.69 0.0559137 1147.32 17.9737 1145.92 33.2089C1144.51 48.4441 1141.34 64.8771 1148.47 78.5737C1152.91 87.1317 1161.08 93.5899 1164.52 102.664C1170.57 118.316 1160.93 135.792 1162.75 152.418C1164.33 167.029 1177.28 180.642 1192.04 179.87C1211.34 178.699 1221.77 156.717 1224.66 137.606C1227.55 118.494 1228.16 96.9415 1242.2 83.7939C1258.53 68.4703 1285.75 71.8728 1303.99 58.8054C1315.16 50.9173 1321.57 37.592 1323.9 24.2052C1326.25 10.6891 1324.81 -3.10978 1322.93 -16.5768Z" stroke="url(#paint31_linear_13_42717)" stroke-miterlimit="10"/>
<path d="M1188.39 173.142C1178.95 171.779 1170.45 162.107 1169.19 151.633C1168.5 145.463 1169.71 138.908 1170.98 131.966C1172.88 121.552 1174.68 110.861 1170.56 100.105C1168.25 94.2286 1164.58 89.4765 1160.87 84.9828C1158.31 81.7099 1155.84 78.7141 1154.2 75.4425C1149.04 65.4613 1150.3 53.1071 1151.65 40.1066C1151.84 37.8906 1152.14 35.8225 1152.3 33.7357C1154.41 10.9476 1149.02 -5.66458 1136.53 -14.1978C1135.81 -14.6976 1135.07 -15.068 1134.48 -15.5491C1133.15 -16.4007 1131.94 -17.1044 1131.38 -17.844C1131.27 -17.9919 1130.72 -18.7316 1130.94 -20.2827C1131.39 -22.4614 1133.06 -24.8599 1134.94 -26.0391C1138.42 -28.1763 1143.13 -28.8157 1148.12 -29.5469C1149.74 -29.84 1151.35 -30.0038 1152.97 -30.2969C1173.44 -34.0708 1192.43 -46.7676 1203.69 -64.4075C1208.13 -71.4192 1210.47 -82.1649 1212.93 -93.6861C1218.45 -119.147 1223.22 -135.744 1237.96 -133.616C1239.77 -133.355 1241.8 -132.798 1243.81 -132.111C1256.35 -127.531 1269.25 -122.765 1279.23 -114.198C1288.27 -106.427 1295.32 -94.9842 1301.6 -78.1122C1308.03 -60.5565 1312.71 -40.8795 1316.37 -15.9403C1318.09 -4.0803 1319.66 9.73721 1317.49 22.8842C1315.2 36.0125 1308.98 47.1218 1300.18 53.2404C1292.69 58.4929 1283.25 60.8243 1273.14 63.1916C1260.58 66.1278 1247.59 69.2666 1237.64 78.7818C1224.06 91.4684 1221.56 110.636 1219.39 127.477C1218.94 130.579 1218.64 133.571 1218.1 136.396C1215.42 154.085 1206.19 172.282 1191.56 173.073C1190.58 173.459 1189.42 173.291 1188.39 173.142Z" stroke="url(#paint32_linear_13_42717)" stroke-miterlimit="10"/>
<path d="M1183.36 150.379C1181.96 149.121 1181.04 147.273 1180.79 145.388C1180.26 141.749 1181.87 137.891 1182.5 134.42C1184.61 122.584 1187.25 107.924 1181.09 92.1229C1175.44 77.3204 1162.95 70.6341 1162.95 53.2174C1162.91 42.5236 1165.15 31.63 1162.56 21.2278C1160.21 11.9156 1153.79 3.33615 1154.53 -6.32226C1155.4 -18.7324 1167.54 -27.0069 1178.82 -31.9767C1191.07 -37.3329 1202.31 -42.0441 1210.49 -53.0027C1219.98 -65.7508 1223.96 -81.4069 1224.5 -97.0312C1224.63 -101.63 1224.53 -106.395 1226.94 -110.27C1234.14 -121.766 1249.08 -111.031 1255.87 -105.037C1263.95 -97.9322 1269.01 -84.5343 1273.3 -74.9422C1283.48 -52.2279 1289.7 -27.7096 1291.25 -2.81043C1291.99 8.51246 1291.55 20.7201 1284.81 29.9077C1276.43 41.3646 1261.06 44.5552 1247.27 47.7112C1229.94 51.6745 1219.17 58.6951 1208.43 72.7158C1197.37 87.2161 1194.46 106.457 1192.2 123.944C1191.28 132.125 1188.64 144.015 1183.36 150.379Z" stroke="url(#paint33_linear_13_42717)" stroke-miterlimit="10"/>
<path d="M1189.46 85.2845C1185.32 85.6107 1182.8 78.3854 1180.56 74.762C1178.13 70.5842 1176.14 66.0747 1176.2 61.0695C1176.24 58.0406 1176.43 54.9011 1176.64 51.6323C1177.11 43.7835 1177.72 35.0299 1175.46 25.995C1174.38 21.6161 1172.7 17.6796 1171.23 14.1681C1169.35 9.80653 1167.58 5.59284 1167.88 2.60124C1168.19 -2.2373 1174.38 -7.67645 1184.4 -12.1679L1186.1 -12.978C1198.5 -18.4448 1211.46 -24.0954 1221.3 -37.4524C1231.59 -51.1413 1233.41 -69.2201 1236.58 -85.6532C1237.02 -87.8319 1237.64 -90.2505 1239.65 -91.411C1241.22 -92.2398 1243.16 -91.9598 1244.6 -90.9603C1246.06 -90.09 1247.16 -88.6108 1248.27 -87.1316C1266.92 -60.9508 1276.47 -25.6598 1278.49 6.03682C1279.05 14.0349 1279.06 24.0638 1274.47 30.2627C1269.19 37.5502 1257.2 40.1732 1245.6 42.8523L1244.51 43.0908C1233.46 45.586 1222.94 49.8736 1214.03 56.7677C1208.54 60.9889 1204.1 66.1537 1200.01 71.633C1197.22 75.452 1195.88 81.0646 1192.14 84.088C1191.24 84.8808 1190.26 85.2672 1189.46 85.2845Z" stroke="url(#paint34_linear_13_42717)" stroke-miterlimit="10"/>
<path d="M1192.37 71.584C1191.02 71.7851 1189.93 70.1766 1189.96 65.43C1189.94 62.7888 1190.11 59.7786 1190.3 56.6391C1191.11 43.6932 1191.23 30.1183 1185.3 18.1781C1183.86 15.3317 1182.48 12.0975 1182.93 8.99526C1183.57 3.67702 1189.5 2.81787 1193.58 1.03248C1206.55 -4.74739 1221.34 -11.1894 1232.96 -26.7971C1239.51 -35.6156 1243.57 -46.3772 1244.75 -57.2909C1244.98 -59.7654 1245.39 -62.6091 1247.65 -63.6031C1249.6 -64.3758 1251.82 -63.2643 1253.02 -61.5079C1257 -55.2593 1259.33 -45.8179 1261.72 -38.6112C1265.91 -26.5259 1269.12 -14.0542 1271.12 -1.36265C1272.45 6.74745 1273.2 15.2999 1269.99 22.886C1264.84 34.8095 1254.81 35.7364 1243.74 37.4374C1232.55 39.1197 1220.09 45.8977 1211.18 52.7919C1207.46 55.686 1204.21 59.0425 1201.19 62.5657C1198.99 65.0188 1194.92 71.2923 1192.37 71.584Z" stroke="url(#paint35_linear_13_42717)" stroke-miterlimit="10"/>
<path d="M1200.24 39.8657C1199.73 39.791 1199.37 39.4765 1199.02 39.162C1195.85 36.4607 1197.21 28.8718 1196.55 25.2138C1195.58 20.0594 1192.69 15.4192 1191.98 10.3021C1191.26 5.18501 1196.4 5.26661 1200.22 3.4439C1203.07 2.00757 1206.05 0.589903 1208.78 -0.994351C1223.68 -9.13542 1237.96 -20.2695 1244.13 -36.5318C1244.56 -37.6578 1245 -38.913 1246.15 -39.5393C1248.59 -40.9023 1249.62 -37.0591 1250.19 -35.5253C1251.75 -31.7367 1252.21 -27.5804 1253.22 -23.608C1254.92 -17.1596 1256.34 -10.4899 1257.36 -3.87634C1258.64 3.69806 1260.46 12.1413 1253.97 17.8017C1248.97 22.2268 1241.66 22.6221 1235.14 23.9237C1226.84 25.6288 1218.95 29.1077 1212.16 34.0657C1209.69 35.6873 1203.92 40.924 1200.24 39.8657Z" stroke="url(#paint36_linear_13_42717)" stroke-miterlimit="10"/>
<path d="M1201.18 18.7566C1201.03 18.8672 1200.75 18.9591 1200.6 19.0697C1200.03 19.3828 1199.35 19.548 1198.87 19.2149C1198.26 18.863 1198.24 18.0688 1198.35 17.2933C1198.63 15.3544 1199.06 13.3049 1200.21 11.7552C1202.19 9.00626 1204.9 10.3217 1207.47 8.97727C1213.35 5.7355 1217.92 0.589402 1222.71 -4.26085C1225.63 -7.13768 1232.16 -14.9035 1237.09 -11.5531C1238.05 -10.8868 1238.66 -9.61145 1238.62 -8.42946C1238.49 -5.67772 1236.51 -3.85222 1237.24 -0.711313C1237.55 0.785182 1238.27 2.2084 1238.31 3.79683C1238.23 5.23733 1237.51 6.58452 1236.34 7.34001C1234.6 8.40862 1231.45 8.34846 1229.41 8.71479C1228.07 8.91592 1226.57 9.22765 1225.22 9.42879C1216.54 11.078 1208.98 15.0006 1201.18 18.7566Z" stroke="url(#paint37_linear_13_42717)" stroke-miterlimit="10"/>
<path d="M1227.23 220.316C1222.06 205.847 1209.67 192.05 1195.12 190.476C1184.47 189.334 1173.47 193.288 1163.21 190.354C1148.49 186.251 1140.89 170.374 1130.03 159.701C1112.23 142.22 1085.31 138.597 1060.36 137.765C1055.5 137.591 1049.77 137.952 1047.07 142.048C1044.88 145.296 1045.58 149.619 1046.76 153.351C1051 166.896 1060.53 178.564 1072.69 185.73C1083.53 192.045 1096.06 194.778 1106.71 201.462C1127.97 215.087 1136.62 243.784 1130.56 268.376C1124.52 292.839 1106.04 312.998 1084.4 325.839C1071.57 333.355 1055.82 340.977 1053.18 355.638C1051.78 363.486 1054.98 371.469 1060.03 377.609C1065.08 383.748 1071.84 388.154 1078.66 392.043C1084.51 395.395 1091.12 398.988 1093.49 405.4C1095.66 411.387 1093.34 418.31 1094.83 424.463C1096.69 431.724 1103.23 436.628 1109.66 440.59C1115.95 444.534 1123.18 448.349 1130.63 447.049C1135.5 446.17 1139.74 443.351 1143.6 440.346C1160.23 427.572 1175.08 411.507 1181.39 391.569C1185.18 379.976 1185.9 367.677 1187.5 355.637C1191.22 328.068 1199.72 301.189 1212.54 276.386C1219.48 263.006 1229.87 249.594 1229.87 234.024C1229.71 229.647 1228.81 224.899 1227.23 220.316Z" stroke="url(#paint38_linear_13_42717)" stroke-miterlimit="10"/>
<path d="M1126.55 433.265C1123.74 433.519 1121.05 432.998 1118.44 431.83C1112.89 429.181 1108.67 423.689 1107.44 417.574C1106.78 413.916 1107.04 410.259 1106.79 406.528C1106.07 394.153 1095.19 386.379 1085.3 380.86L1084.82 380.527C1079.57 377.527 1073.76 373.917 1069.84 369.127C1066.81 365.392 1065.21 360.938 1065.83 357.596C1066.98 350.506 1076.91 344.814 1086.56 339.214C1088 338.366 1089.42 337.648 1090.74 336.782C1117.58 320.865 1136.6 296.957 1142.97 271.091C1150.71 239.483 1138.62 206.201 1113.49 190.169C1106.85 185.911 1099.98 183.204 1093.35 180.664C1088.24 178.606 1083.24 176.696 1079.1 174.252C1074.73 171.641 1071.3 167.979 1068.19 163.966C1064.39 159.195 1054.95 149.651 1065.37 147.857C1068.75 147.289 1072.97 149.087 1075.95 150.44C1091.3 157.407 1107.61 155.936 1120.67 168.773C1123.56 171.567 1126.24 174.988 1129.15 178.575C1136.76 187.987 1145.24 198.712 1159.57 202.76C1161.21 203.262 1162.89 203.504 1164.7 203.765C1171.04 204.68 1177.19 204.117 1182.55 203.571C1186.55 203.226 1190.43 202.862 1193.68 203.2C1193.81 203.218 1193.94 203.237 1194.2 203.274C1202.21 204.431 1211.07 213.495 1215.02 224.49C1216.25 227.835 1216.86 230.957 1216.83 233.857C1216.78 243.35 1211.36 252.595 1206.41 260.326C1200.31 269.737 1195.41 279.85 1191.26 290.335C1183.25 311.082 1178.62 333.109 1174.67 354.971C1171.78 371.312 1168.97 388.06 1161.56 402.824C1156.11 413.122 1140.96 432.178 1126.55 433.265Z" stroke="url(#paint39_linear_13_42717)" stroke-miterlimit="10"/>
<path d="M1123.86 426.28C1122.44 426.074 1121.19 425.629 1119.84 424.907C1116.31 422.814 1114.1 418.933 1113.37 414.868C1112.18 408.494 1113.78 402.919 1111.09 396.857C1108.68 391.627 1104.97 387.133 1100.64 383.34C1093.57 377.438 1083.82 374.579 1077.33 368.363C1074.44 365.57 1072.54 361.338 1073.77 357.424C1074.95 353.769 1078.47 351.373 1081.87 349.753C1113.05 334.858 1140.9 307.344 1149.41 273.077C1157.81 238.663 1144.57 202.443 1117.15 184.892C1110.03 180.301 1102.9 177.557 1095.91 174.831C1090.91 172.922 1086.29 171.068 1082.53 168.809C1080.22 167.42 1072.19 162.698 1072.83 159.227C1073.85 153.041 1088.47 161.485 1091.51 162.321C1101.08 164.626 1109.22 166.725 1116.28 173.551C1118.83 176.03 1121.52 179.321 1124.19 182.742C1132.03 192.45 1141.63 204.525 1157.86 209.112C1159.76 209.65 1161.68 210.059 1163.75 210.358C1170.86 211.384 1177.67 210.785 1183.03 210.239C1186.78 209.857 1190.25 209.567 1192.86 209.811L1193.12 209.848C1198.03 210.557 1205.33 217.55 1208.75 226.753C1209.71 229.266 1210.13 231.834 1210.11 233.81C1210.06 241.456 1205.19 249.594 1200.73 256.735C1194.62 266.145 1189.4 276.739 1185.02 287.851C1176.79 309.226 1172.02 332.158 1168.13 353.632L1167.65 356.069C1164.97 370.989 1162.21 386.425 1155.54 399.713C1151.13 408.313 1143.01 418.884 1134.5 423.858C1131.31 425.903 1127.48 426.802 1123.86 426.28Z" stroke="url(#paint40_linear_13_42717)" stroke-miterlimit="10"/>
<path d="M1127.53 410.974C1124.54 409.75 1125.73 402.401 1124.7 398.558C1123.3 393.606 1121.22 388.82 1118.55 384.475C1112.95 375.749 1104.56 368.995 1094.55 366.099C1092.52 365.542 1090.25 364.818 1089.46 362.988C1088.46 360.734 1090.13 358.335 1091.7 356.583C1101.21 345.553 1112.55 336.501 1123.53 327.135C1134.52 317.769 1145.34 307.72 1153.04 295.504C1160.74 283.289 1165.27 268.373 1162.58 254.129C1161.53 248.568 1159.42 243.116 1158.37 237.555C1155.46 220.245 1169.09 223.664 1181.43 223.202C1185.93 223.061 1191.2 223.162 1194.29 226.38C1196.82 228.988 1197.28 233.144 1196.38 236.578C1195.47 240.142 1193.57 243.297 1191.68 246.323C1174.7 274.353 1163.07 305.53 1157.5 337.714C1155.1 351.618 1153.86 365.69 1149.66 379.203C1147.47 386.144 1144.9 393.029 1140.97 399.192C1138.58 402.938 1135.07 408.104 1131.2 410.185C1129.61 411.143 1128.39 411.363 1127.53 410.974Z" stroke="url(#paint41_linear_13_42717)" stroke-miterlimit="10"/>
<path d="M1131.81 388.633C1131.55 388.595 1131.42 388.577 1131.18 388.41C1129.72 387.54 1129.67 384.234 1129.08 382.829C1127.94 379.761 1126.52 376.786 1124.81 374.031C1122.1 369.945 1118.34 366.763 1114.37 364.079C1111.73 362.246 1103.69 359.501 1103.84 355.696C1103.97 352.021 1110.04 349.334 1112.33 347.158C1115.97 343.857 1119.62 340.557 1123.37 337.404C1124.87 336.169 1126.37 334.934 1127.86 333.698C1134.48 328.057 1140.64 321.953 1146.21 315.367C1148.91 312.195 1152.47 308.617 1154.19 304.907C1154.97 303.172 1155.24 296.745 1158.21 297.175C1160.28 297.473 1149.78 326.307 1149.17 328.725C1146.75 337.218 1146.18 346.636 1144.4 355.351C1142.59 364.195 1140.53 373.002 1138.21 381.772C1137.69 383.544 1137.15 385.445 1136.02 386.866C1135.24 387.677 1133.34 388.986 1131.81 388.633Z" stroke="url(#paint42_linear_13_42717)" stroke-miterlimit="10"/>
<path d="M1131.72 370.938C1130.34 371.398 1129.58 369.31 1129.49 368.109C1128.54 361.902 1123.58 359.734 1118.89 356.55C1118.17 356.05 1117.49 355.292 1117.34 354.479C1116.83 352.557 1118.75 351.12 1119.97 349.976C1121.78 348.391 1123.48 346.657 1125.17 345.053C1126.98 343.467 1128.68 341.734 1130.49 340.148C1131.42 339.226 1132.58 338.47 1133.53 337.419C1134.43 336.626 1135.12 335.538 1136.04 334.616C1136.51 334.154 1137.21 333.86 1137.73 333.935C1138.76 334.084 1139.51 335.249 1139.48 336.431C1139.44 337.613 1138.77 338.572 1138.49 339.587C1138.18 340.861 1137.99 342.154 1137.8 343.447C1137.28 346.142 1136.89 348.857 1136.37 351.552C1135.33 356.944 1134.43 362.225 1133.52 367.635C1133.37 368.669 1133.07 369.814 1132.33 370.367C1132.15 370.736 1131.87 370.828 1131.72 370.938Z" stroke="url(#paint43_linear_13_42717)" stroke-miterlimit="10"/>
<path d="M815.012 529.206C813.364 519.6 803.329 511.421 806.39 502.098C807.578 498.443 810.611 495.714 812.795 492.467C816.979 486.342 817.915 478.032 815.081 471.157C812.247 464.282 805.753 458.99 798.423 457.667C785.572 455.284 773.35 464.076 760.31 464.832C732.086 466.562 711.268 431.624 683.172 434.296C664.312 436.06 651.837 453.919 636.619 465.181C618.277 478.895 580.904 472.707 569.345 495.185C566.4 500.962 565.927 508.81 570.87 512.955C573.692 515.342 577.699 515.92 581.356 516.184C614.523 518.598 649.414 505.427 680.202 517.922C691.055 522.26 700.427 529.551 710.65 535.513C731.096 547.438 754.709 553.883 778.367 554.528C786.918 554.707 795.84 554.148 803.289 550.077C810.72 546.136 816.421 537.723 815.012 529.206Z" stroke="url(#paint44_linear_13_42717)" stroke-miterlimit="10"/>
<path d="M762.328 546.802C745.137 544.32 728.431 538.477 713.945 530.051C710.771 528.273 707.634 526.237 704.627 524.219C697.744 519.795 690.751 515.222 682.759 512.089C677.018 509.809 671.055 508.156 664.463 507.204C649.469 505.039 633.934 506.622 618.934 508.151C606.613 509.407 593.886 510.736 581.882 509.795C580.829 509.775 580.054 509.663 579.278 509.551C577.339 509.271 575.955 508.807 575.125 508.159C573.003 506.401 573.564 501.6 575.232 498.278C580.696 487.851 594.312 484.935 608.871 481.891C620.159 479.562 632.002 477.05 640.6 470.506C645.333 466.967 649.735 462.984 653.86 459.094C663.459 450.187 672.577 441.871 683.808 440.854C685.95 440.635 688.056 440.676 690.124 440.974C699.689 442.355 708.712 448.408 718.454 454.961C728.915 462.014 739.875 469.27 752.413 471.081C755.128 471.473 758.009 471.625 760.668 471.481C766.93 471.066 772.751 469.135 778.424 467.315C784.799 465.201 790.897 463.178 796.455 463.981C796.713 464.018 796.972 464.056 797.23 464.093C802.363 465.098 806.975 468.799 809.036 473.715C810.968 478.612 810.387 484.466 807.388 488.783C806.87 489.632 806.093 490.444 805.445 491.274C803.521 493.635 801.282 496.347 800.095 500.002C797.46 508.198 801.438 515.37 804.569 521.101C806.356 524.262 808.014 527.404 808.545 530.12C809.442 535.791 805.056 541.492 800.047 544.199C793.466 547.735 785.099 548.111 778.413 547.805C773.112 547.963 767.628 547.567 762.328 546.802Z" stroke="url(#paint45_linear_13_42717)" stroke-miterlimit="10"/>
<path d="M764.027 534.116C752.192 531.088 740.042 529.334 729.414 522.521C717.088 514.671 704.448 507.172 690.825 501.906C673.326 495.157 653.846 492.08 635.757 496.726C632.468 497.571 629.272 498.692 625.836 498.724C613.831 498.706 619.699 490.053 626.758 487.773C633.835 485.364 642.201 485.912 648.414 481.268C653.591 477.397 658.288 473.193 662.709 469.081C667.425 464.748 673.069 457.645 679.038 455.604C686.947 452.92 697.172 457.035 704 460.924C712.766 466.016 720.475 472.935 729.407 477.788C745.943 486.641 766.72 487.134 783.724 479.033C785.702 478.131 787.717 476.971 789.841 476.882C791.965 476.792 794.438 477.941 794.934 479.992C795.264 481.359 794.652 482.854 794.188 484.239C790.741 492.582 784.244 501.936 786.612 511.119C788.448 518.51 796.081 527.793 790.381 535.283C786.309 540.633 779.865 539.57 774.365 537.457C770.876 536.029 767.461 535.008 764.027 534.116Z" stroke="url(#paint46_linear_13_42717)" stroke-miterlimit="10"/>
<path d="M777.558 526.306C776.706 527.634 775.394 528.5 773.491 528.885C768.336 529.856 761.603 524.398 757.007 522.415C747.926 518.596 738.734 514.63 729.653 510.812C711.878 503.231 694.085 495.779 676.181 488.18C672.582 486.605 668.503 484.696 667.475 480.853C666.373 476.603 669.611 472.453 673.475 470.371C684.991 463.721 699.739 469.414 710.829 476.689C721.918 483.964 733.134 493.105 746.375 493.697C753.596 493.948 761.301 491.762 767.854 494.819C773.428 497.339 776.78 503.366 777.768 509.314C778.833 513.822 780.409 522.099 777.558 526.306Z" stroke="url(#paint47_linear_13_42717)" stroke-miterlimit="10"/>
<path d="M1316.99 -209.425C1291.34 -219.991 1261.16 -207.459 1241.66 -187.578C1222.31 -167.808 1210.77 -141.765 1197.25 -117.591C1183.73 -93.416 1166.41 -69.3949 1140.81 -58.4441C1133.91 -55.4809 1126.51 -53.5158 1119.91 -49.8503C1114.16 -46.5899 1109.27 -42.0168 1103.32 -39.1815C1087.59 -31.6881 1068.6 -38.1256 1054.67 -48.5818C1040.89 -59.1486 1030.4 -73.3304 1017.12 -84.6168C1000.43 -98.771 979.46 -108 957.781 -110.471C946.498 -111.836 934.547 -111.319 924.548 -106.033C914.418 -100.766 906.682 -90.1391 907.422 -78.8163C908.634 -61.6194 928.28 -45.9831 920.758 -30.4432C915.811 -19.9415 901.808 -18.0048 892.932 -10.4457C876.676 3.43731 883.081 30.3569 895.485 47.7184C907.889 65.0799 925.301 80.6574 928.723 101.736C932.895 127.674 914.427 151.397 897.054 171.189C890.412 178.807 883.216 186.609 873.552 189.568C860.728 193.39 846.996 187.053 836.611 178.56C826.225 170.067 817.746 159.342 806.712 151.679C798.428 145.996 785.227 143.298 780.042 151.786C776.599 157.359 779.025 165.23 783.783 169.744C788.541 174.258 795.095 176.392 801.408 178.359C835.247 188.919 871.539 201.681 890.721 231.501C907.746 257.975 935.836 247.12 959.131 232.01C980.964 217.877 996.032 182.974 1026.78 187.545C1041.88 189.858 1055.49 202.512 1069.85 208.148C1081.57 212.875 1093.59 217.381 1103.53 225.283C1113.48 233.184 1121.14 244.979 1120.52 257.556C1119.67 278.019 1093.01 309.137 1077.98 321.876C1062.5 334.948 1042.08 342.028 1040.68 365.445C1040.24 373.035 1044.35 377.456 1046.78 384.404C1049.46 392.313 1049.84 400.68 1052.38 408.7C1063.18 443.512 1094.99 468.162 1079.62 507.903C1066.21 542.255 1040.68 560.047 1012.31 578.047C991.975 587.11 937.008 598.947 901.808 582.547C866.608 566.147 848.308 550.547 843.308 544.047" stroke="url(#paint48_linear_13_42717)" stroke-width="2" stroke-miterlimit="10"/>
<path d="M490.94 497.191C498.142 472.896 515.357 447.803 540.681 446.05C560.131 444.768 578.027 457.908 597.512 458.214C618.437 458.597 636.429 444.569 654.139 433.403C671.85 422.237 695.024 413.444 712.997 424.22C723.441 430.478 730.386 442.697 742.239 445.596C748.867 447.213 755.961 445.598 762.576 443.65C772.628 440.747 782.792 437.069 793.265 436.734C803.756 436.269 815.036 439.481 821.469 447.932C832.215 462.151 824.299 482.252 824.106 500.038C823.841 516.494 831.093 532.979 843.358 543.987" stroke="url(#paint49_linear_13_42717)" stroke-width="2" stroke-miterlimit="10"/>
</g>
</g>
<defs>
<filter id="filter0_f_13_42717" x="0.270752" y="-524.277" width="1921.52" height="1525.21" filterUnits="userSpaceOnUse" color-interpolation-filters="sRGB">
<feFlood flood-opacity="0" result="BackgroundImageFix"/>
<feBlend mode="normal" in="SourceGraphic" in2="BackgroundImageFix" result="shape"/>
<feGaussianBlur stdDeviation="200" result="effect1_foregroundBlur_13_42717"/>
</filter>
<linearGradient id="paint0_linear_13_42717" x1="658.744" y1="358.113" x2="810.018" y2="245.013" gradientUnits="userSpaceOnUse">
<stop stop-color="#86E7FF" stop-opacity="0.3"/>
<stop offset="1" stop-color="#86E7FF" stop-opacity="0.8"/>
</linearGradient>
<linearGradient id="paint1_linear_13_42717" x1="663.97" y1="354.17" x2="804.731" y2="248.93" gradientUnits="userSpaceOnUse">
<stop stop-color="#86E7FF" stop-opacity="0.3"/>
<stop offset="1" stop-color="#86E7FF" stop-opacity="0.8"/>
</linearGradient>
<linearGradient id="paint2_linear_13_42717" x1="625.547" y1="280.585" x2="857.664" y2="314.101" gradientUnits="userSpaceOnUse">
<stop stop-color="#26F7DD"/>
<stop offset="1" stop-color="#00B8DD"/>
</linearGradient>
<linearGradient id="paint3_linear_13_42717" x1="665.75" y1="277.153" x2="734.334" y2="225.876" gradientUnits="userSpaceOnUse">
<stop stop-color="#86E7FF" stop-opacity="0.3"/>
<stop offset="1" stop-color="#86E7FF" stop-opacity="0.8"/>
</linearGradient>
<linearGradient id="paint4_linear_13_42717" x1="670.365" y1="273.483" x2="728.997" y2="229.646" gradientUnits="userSpaceOnUse">
<stop stop-color="#86E7FF" stop-opacity="0.3"/>
<stop offset="1" stop-color="#86E7FF" stop-opacity="0.8"/>
</linearGradient>
<linearGradient id="paint5_linear_13_42717" x1="678.543" y1="262.093" x2="716.325" y2="233.845" gradientUnits="userSpaceOnUse">
<stop stop-color="#86E7FF" stop-opacity="0.3"/>
<stop offset="1" stop-color="#86E7FF" stop-opacity="0.8"/>
</linearGradient>
<linearGradient id="paint6_linear_13_42717" x1="693.876" y1="247.054" x2="705.294" y2="238.517" gradientUnits="userSpaceOnUse">
<stop stop-color="#86E7FF" stop-opacity="0.3"/>
<stop offset="1" stop-color="#86E7FF" stop-opacity="0.8"/>
</linearGradient>
<linearGradient id="paint7_linear_13_42717" x1="743.093" y1="372.553" x2="803.244" y2="327.582" gradientUnits="userSpaceOnUse">
<stop stop-color="#86E7FF" stop-opacity="0.3"/>
<stop offset="1" stop-color="#86E7FF" stop-opacity="0.8"/>
</linearGradient>
<linearGradient id="paint8_linear_13_42717" x1="760.518" y1="360.683" x2="793.331" y2="336.151" gradientUnits="userSpaceOnUse">
<stop stop-color="#86E7FF" stop-opacity="0.3"/>
<stop offset="1" stop-color="#86E7FF" stop-opacity="0.8"/>
</linearGradient>
<linearGradient id="paint9_linear_13_42717" x1="767.164" y1="357.449" x2="789.055" y2="341.082" gradientUnits="userSpaceOnUse">
<stop stop-color="#86E7FF" stop-opacity="0.3"/>
<stop offset="1" stop-color="#86E7FF" stop-opacity="0.8"/>
</linearGradient>
<linearGradient id="paint10_linear_13_42717" x1="816.639" y1="456.577" x2="1098.19" y2="246.072" gradientUnits="userSpaceOnUse">
<stop stop-color="#86E7FF" stop-opacity="0.3"/>
<stop offset="1" stop-color="#86E7FF" stop-opacity="0.8"/>
</linearGradient>
<linearGradient id="paint11_linear_13_42717" x1="827.072" y1="448.767" x2="1087.72" y2="253.891" gradientUnits="userSpaceOnUse">
<stop stop-color="#86E7FF" stop-opacity="0.3"/>
<stop offset="1" stop-color="#86E7FF" stop-opacity="0.8"/>
</linearGradient>
<linearGradient id="paint12_linear_13_42717" x1="857.109" y1="470.38" x2="1091.27" y2="295.309" gradientUnits="userSpaceOnUse">
<stop stop-color="#86E7FF" stop-opacity="0.3"/>
<stop offset="1" stop-color="#86E7FF" stop-opacity="0.8"/>
</linearGradient>
<linearGradient id="paint13_linear_13_42717" x1="905.162" y1="473.742" x2="1100.74" y2="327.518" gradientUnits="userSpaceOnUse">
<stop stop-color="#86E7FF" stop-opacity="0.3"/>
<stop offset="1" stop-color="#86E7FF" stop-opacity="0.8"/>
</linearGradient>
<linearGradient id="paint14_linear_13_42717" x1="946.408" y1="482.828" x2="1001.07" y2="441.961" gradientUnits="userSpaceOnUse">
<stop stop-color="#86E7FF" stop-opacity="0.3"/>
<stop offset="1" stop-color="#86E7FF" stop-opacity="0.8"/>
</linearGradient>
<linearGradient id="paint15_linear_13_42717" x1="954.167" y1="478.277" x2="992.336" y2="449.741" gradientUnits="userSpaceOnUse">
<stop stop-color="#86E7FF" stop-opacity="0.3"/>
<stop offset="1" stop-color="#86E7FF" stop-opacity="0.8"/>
</linearGradient>
<linearGradient id="paint16_linear_13_42717" x1="965.454" y1="465.063" x2="979.051" y2="454.897" gradientUnits="userSpaceOnUse">
<stop stop-color="#86E7FF" stop-opacity="0.3"/>
<stop offset="1" stop-color="#86E7FF" stop-opacity="0.8"/>
</linearGradient>
<linearGradient id="paint17_linear_13_42717" x1="955.196" y1="356.305" x2="986.187" y2="333.135" gradientUnits="userSpaceOnUse">
<stop stop-color="#86E7FF" stop-opacity="0.3"/>
<stop offset="1" stop-color="#86E7FF" stop-opacity="0.8"/>
</linearGradient>
<linearGradient id="paint18_linear_13_42717" x1="1069.37" y1="558.229" x2="1155.24" y2="494.027" gradientUnits="userSpaceOnUse">
<stop stop-color="#86E7FF" stop-opacity="0.3"/>
<stop offset="1" stop-color="#86E7FF" stop-opacity="0.8"/>
</linearGradient>
<linearGradient id="paint19_linear_13_42717" x1="1083.36" y1="558.56" x2="1153.05" y2="506.459" gradientUnits="userSpaceOnUse">
<stop stop-color="#86E7FF" stop-opacity="0.3"/>
<stop offset="1" stop-color="#86E7FF" stop-opacity="0.8"/>
</linearGradient>
<linearGradient id="paint20_linear_13_42717" x1="1109.28" y1="533.591" x2="1161.73" y2="541.164" gradientUnits="userSpaceOnUse">
<stop stop-color="#26F7DD"/>
<stop offset="1" stop-color="#00B8DD"/>
</linearGradient>
<linearGradient id="paint21_linear_13_42717" x1="692.285" y1="32.4791" x2="1160.32" y2="-317.446" gradientUnits="userSpaceOnUse">
<stop stop-color="#86E7FF" stop-opacity="0.3"/>
<stop offset="1" stop-color="#86E7FF" stop-opacity="0.8"/>
</linearGradient>
<linearGradient id="paint22_linear_13_42717" x1="706.62" y1="25.2223" x2="1153.72" y2="-309.052" gradientUnits="userSpaceOnUse">
<stop stop-color="#86E7FF" stop-opacity="0.3"/>
<stop offset="1" stop-color="#86E7FF" stop-opacity="0.8"/>
</linearGradient>
<linearGradient id="paint23_linear_13_42717" x1="813.595" y1="39.3314" x2="891.534" y2="50.5853" gradientUnits="userSpaceOnUse">
<stop stop-color="#26F7DD"/>
<stop offset="1" stop-color="#00B8DD"/>
</linearGradient>
<linearGradient id="paint24_linear_13_42717" x1="836.559" y1="117.582" x2="864.467" y2="96.7163" gradientUnits="userSpaceOnUse">
<stop stop-color="#86E7FF" stop-opacity="0.3"/>
<stop offset="1" stop-color="#86E7FF" stop-opacity="0.8"/>
</linearGradient>
<linearGradient id="paint25_linear_13_42717" x1="863.579" y1="141.737" x2="1088.75" y2="-26.6116" gradientUnits="userSpaceOnUse">
<stop stop-color="#86E7FF" stop-opacity="0.3"/>
<stop offset="1" stop-color="#86E7FF" stop-opacity="0.8"/>
</linearGradient>
<linearGradient id="paint26_linear_13_42717" x1="867.113" y1="140.258" x2="1081.87" y2="-20.3062" gradientUnits="userSpaceOnUse">
<stop stop-color="#86E7FF" stop-opacity="0.3"/>
<stop offset="1" stop-color="#86E7FF" stop-opacity="0.8"/>
</linearGradient>
<linearGradient id="paint27_linear_13_42717" x1="879.246" y1="130.034" x2="1073.08" y2="-14.8882" gradientUnits="userSpaceOnUse">
<stop stop-color="#86E7FF" stop-opacity="0.3"/>
<stop offset="1" stop-color="#86E7FF" stop-opacity="0.8"/>
</linearGradient>
<linearGradient id="paint28_linear_13_42717" x1="954.386" y1="20.4715" x2="1097.47" y2="41.1323" gradientUnits="userSpaceOnUse">
<stop stop-color="#26F7DD"/>
<stop offset="1" stop-color="#00B8DD"/>
</linearGradient>
<linearGradient id="paint29_linear_13_42717" x1="987.726" y1="51.9387" x2="1055.69" y2="1.12273" gradientUnits="userSpaceOnUse">
<stop stop-color="#86E7FF" stop-opacity="0.3"/>
<stop offset="1" stop-color="#86E7FF" stop-opacity="0.8"/>
</linearGradient>
<linearGradient id="paint30_linear_13_42717" x1="999.061" y1="28.9109" x2="1039.4" y2="-1.24941" gradientUnits="userSpaceOnUse">
<stop stop-color="#86E7FF" stop-opacity="0.3"/>
<stop offset="1" stop-color="#86E7FF" stop-opacity="0.8"/>
</linearGradient>
<linearGradient id="paint31_linear_13_42717" x1="1113.59" y1="94.95" x2="1326.91" y2="-64.5379" gradientUnits="userSpaceOnUse">
<stop stop-color="#86E7FF" stop-opacity="0.3"/>
<stop offset="1" stop-color="#86E7FF" stop-opacity="0.8"/>
</linearGradient>
<linearGradient id="paint32_linear_13_42717" x1="1126.36" y1="7.33547" x2="1316.5" y2="34.7896" gradientUnits="userSpaceOnUse">
<stop stop-color="#26F7DD"/>
<stop offset="1" stop-color="#00B8DD"/>
</linearGradient>
<linearGradient id="paint33_linear_13_42717" x1="1127.85" y1="77.4627" x2="1298.58" y2="-50.1847" gradientUnits="userSpaceOnUse">
<stop stop-color="#86E7FF" stop-opacity="0.3"/>
<stop offset="1" stop-color="#86E7FF" stop-opacity="0.8"/>
</linearGradient>
<linearGradient id="paint34_linear_13_42717" x1="1156.28" y1="45.2282" x2="1279.06" y2="-46.5655" gradientUnits="userSpaceOnUse">
<stop stop-color="#86E7FF" stop-opacity="0.3"/>
<stop offset="1" stop-color="#86E7FF" stop-opacity="0.8"/>
</linearGradient>
<linearGradient id="paint35_linear_13_42717" x1="1171.81" y1="46.5341" x2="1276.07" y2="-31.415" gradientUnits="userSpaceOnUse">
<stop stop-color="#86E7FF" stop-opacity="0.3"/>
<stop offset="1" stop-color="#86E7FF" stop-opacity="0.8"/>
</linearGradient>
<linearGradient id="paint36_linear_13_42717" x1="1192.63" y1="32.0116" x2="1263.1" y2="-20.6744" gradientUnits="userSpaceOnUse">
<stop stop-color="#86E7FF" stop-opacity="0.3"/>
<stop offset="1" stop-color="#86E7FF" stop-opacity="0.8"/>
</linearGradient>
<linearGradient id="paint37_linear_13_42717" x1="1200.45" y1="22.5217" x2="1240.95" y2="-7.76171" gradientUnits="userSpaceOnUse">
<stop stop-color="#86E7FF" stop-opacity="0.3"/>
<stop offset="1" stop-color="#86E7FF" stop-opacity="0.8"/>
</linearGradient>
<linearGradient id="paint38_linear_13_42717" x1="1029.2" y1="340.218" x2="1216.14" y2="200.451" gradientUnits="userSpaceOnUse">
<stop stop-color="#86E7FF" stop-opacity="0.3"/>
<stop offset="1" stop-color="#86E7FF" stop-opacity="0.8"/>
</linearGradient>
<linearGradient id="paint39_linear_13_42717" x1="1041.14" y1="333.286" x2="1206.63" y2="209.56" gradientUnits="userSpaceOnUse">
<stop stop-color="#86E7FF" stop-opacity="0.3"/>
<stop offset="1" stop-color="#86E7FF" stop-opacity="0.8"/>
</linearGradient>
<linearGradient id="paint40_linear_13_42717" x1="1048.74" y1="332.308" x2="1203.64" y2="216.496" gradientUnits="userSpaceOnUse">
<stop stop-color="#86E7FF" stop-opacity="0.3"/>
<stop offset="1" stop-color="#86E7FF" stop-opacity="0.8"/>
</linearGradient>
<linearGradient id="paint41_linear_13_42717" x1="1096.01" y1="308.246" x2="1184.9" y2="321.081" gradientUnits="userSpaceOnUse">
<stop stop-color="#26F7DD"/>
<stop offset="1" stop-color="#00B8DD"/>
</linearGradient>
<linearGradient id="paint42_linear_13_42717" x1="1111.64" y1="368.119" x2="1176.21" y2="319.844" gradientUnits="userSpaceOnUse">
<stop stop-color="#86E7FF" stop-opacity="0.3"/>
<stop offset="1" stop-color="#86E7FF" stop-opacity="0.8"/>
</linearGradient>
<linearGradient id="paint43_linear_13_42717" x1="1121.7" y1="362.013" x2="1146.29" y2="343.625" gradientUnits="userSpaceOnUse">
<stop stop-color="#86E7FF" stop-opacity="0.3"/>
<stop offset="1" stop-color="#86E7FF" stop-opacity="0.8"/>
</linearGradient>
<linearGradient id="paint44_linear_13_42717" x1="615.407" y1="574.283" x2="793.867" y2="440.858" gradientUnits="userSpaceOnUse">
<stop stop-color="#86E7FF" stop-opacity="0.3"/>
<stop offset="1" stop-color="#86E7FF" stop-opacity="0.8"/>
</linearGradient>
<linearGradient id="paint45_linear_13_42717" x1="620.642" y1="570.376" x2="788.642" y2="444.771" gradientUnits="userSpaceOnUse">
<stop stop-color="#86E7FF" stop-opacity="0.3"/>
<stop offset="1" stop-color="#86E7FF" stop-opacity="0.8"/>
</linearGradient>
<linearGradient id="paint46_linear_13_42717" x1="620.4" y1="480.426" x2="796.514" y2="505.855" gradientUnits="userSpaceOnUse">
<stop stop-color="#26F7DD"/>
<stop offset="1" stop-color="#00B8DD"/>
</linearGradient>
<linearGradient id="paint47_linear_13_42717" x1="695.807" y1="520.668" x2="756.511" y2="475.283" gradientUnits="userSpaceOnUse">
<stop stop-color="#86E7FF" stop-opacity="0.3"/>
<stop offset="1" stop-color="#86E7FF" stop-opacity="0.8"/>
</linearGradient>
<linearGradient id="paint48_linear_13_42717" x1="781.232" y1="128.763" x2="1258.6" y2="197.692" gradientUnits="userSpaceOnUse">
<stop stop-color="#26F7DD"/>
<stop offset="1" stop-color="#00B8DD"/>
</linearGradient>
<linearGradient id="paint49_linear_13_42717" x1="497.317" y1="443.754" x2="851.066" y2="494.833" gradientUnits="userSpaceOnUse">
<stop stop-color="#26F7DD"/>
<stop offset="1" stop-color="#00B8DD"/>
</linearGradient>
</defs>
</svg>
