<svg width="25" height="25" viewBox="0 0 25 25" fill="none" xmlns="http://www.w3.org/2000/svg">
<path d="M20.3779 15.1785V12.5535C20.3779 10.6895 18.8669 9.17847 17.0029 9.17847H15.5029C14.8816 9.17847 14.3779 8.67479 14.3779 8.05347V6.55347C14.3779 4.68951 12.8669 3.17847 11.0029 3.17847H9.12793M9.87793 15.1785L12.8779 18.1785M12.8779 18.1785L15.8779 15.1785M12.8779 18.1785L12.8779 12.1785M11.3779 3.17847H6.50293C5.88161 3.17847 5.37793 3.68215 5.37793 4.30347V21.5535C5.37793 22.1748 5.88161 22.6785 6.50293 22.6785H19.2529C19.8742 22.6785 20.3779 22.1748 20.3779 21.5535V12.1785C20.3779 7.2079 16.3485 3.17847 11.3779 3.17847Z" stroke="white" stroke-width="1.5" stroke-linecap="round" stroke-linejoin="round"/>
</svg>
