<svg width="25" height="25" viewBox="0 0 25 25" fill="none" xmlns="http://www.w3.org/2000/svg">
<path d="M2.77307 6.52953C3.56638 5.82923 4.60851 5.4043 5.74989 5.4043H19.2499C20.3913 5.4043 21.4334 5.82924 22.2267 6.52953C22.0423 5.04955 20.7798 3.9043 19.2499 3.9043H5.74989C4.21995 3.9043 2.9575 5.04955 2.77307 6.52953Z" fill="white"/>
<path d="M2.77307 9.52953C3.56638 8.82923 4.60851 8.4043 5.74989 8.4043H19.2499C20.3913 8.4043 21.4334 8.82924 22.2267 9.52953C22.0423 8.04955 20.7798 6.9043 19.2499 6.9043H5.74989C4.21995 6.9043 2.9575 8.04955 2.77307 9.52953Z" fill="white"/>
<path d="M5.75 9.9043C4.09315 9.9043 2.75 11.2474 2.75 12.9043V18.9043C2.75 20.5612 4.09315 21.9043 5.75 21.9043H19.25C20.9069 21.9043 22.25 20.5611 22.25 18.9043V12.9043C22.25 11.2474 20.9069 9.9043 19.25 9.9043H15.5C15.0858 9.9043 14.75 10.2401 14.75 10.6543C14.75 11.8969 13.7426 12.9043 12.5 12.9043C11.2574 12.9043 10.25 11.8969 10.25 10.6543C10.25 10.2401 9.91421 9.9043 9.5 9.9043H5.75Z" fill="white"/>
</svg>
