<svg width="25" height="25" viewBox="0 0 25 25" fill="none" xmlns="http://www.w3.org/2000/svg">
<path d="M13.5682 9.61689C14.0172 9.83138 14.438 10.1246 14.8099 10.4965C16.5673 12.2538 16.5673 15.1031 14.8099 16.8604L10.3099 21.3604C8.55255 23.1178 5.70331 23.1178 3.94595 21.3604C2.18859 19.6031 2.18859 16.7538 3.94595 14.9965L5.70292 13.2395M19.0529 12.6174L20.8099 10.8604C22.5673 9.10309 22.5673 6.25385 20.8099 4.49649C19.0526 2.73913 16.2033 2.73913 14.446 4.49649L9.94595 8.99649C8.18859 10.7538 8.18859 13.6031 9.94595 15.3604C10.3179 15.7324 10.7387 16.0256 11.1877 16.24" stroke="#A7D7CF" stroke-width="1.5" stroke-linecap="round" stroke-linejoin="round"/>
</svg>
