<svg width="22" height="22" viewBox="0 0 22 22" fill="none" xmlns="http://www.w3.org/2000/svg">
<path d="M10.4712 9.51754H14.349L10.4712 6.85907V9.51754Z" fill="#A7D7CF"/>
<path d="M17.875 14.8672V6.61719H13.1154C12.8231 6.61719 12.5865 6.40098 12.5865 6.13379V2.75H7.82692C7.53461 2.75 7.29808 2.96621 7.29808 3.2334V5.65039H9.94231C10.2837 5.65039 10.6219 5.75377 10.8947 5.94117L15.1249 8.84108C15.5221 9.11255 15.7596 9.54639 15.7596 10.001V15.3506H17.3462C17.6385 15.3506 17.875 15.1344 17.875 14.8672Z" fill="#A7D7CF"/>
<path d="M13.6442 5.65035H17.5221L13.6442 2.99189V5.65035Z" fill="#A7D7CF"/>
<path d="M4.65385 19.25H14.1731C14.4654 19.25 14.7019 19.0338 14.7019 18.7666V10.4844H9.94231C9.65 10.4844 9.41346 10.2682 9.41346 10.001V6.61719H4.65385C4.36154 6.61719 4.125 6.8334 4.125 7.10059V18.7666C4.125 19.0338 4.36154 19.25 4.65385 19.25Z" fill="#A7D7CF"/>
</svg>
