<svg width="12" height="12" viewBox="0 0 12 12" fill="none" xmlns="http://www.w3.org/2000/svg">
<g clip-path="url(#clip0_1432_7175)">
<path d="M9.14461 2.19796C8.90754 1.95494 8.6198 1.8334 8.28121 1.8334C7.94278 1.8334 7.65502 1.95487 7.41802 2.19796C7.1811 2.44098 7.06265 2.73608 7.06265 3.08337C7.06265 3.30906 7.1175 3.51849 7.22753 3.71161C7.33754 3.90476 7.48552 4.05562 7.67185 4.16408C7.67185 4.38976 7.65395 4.58841 7.61805 4.75982C7.58199 4.93123 7.5228 5.08199 7.44032 5.21229C7.35761 5.34252 7.2721 5.45311 7.18317 5.54431C7.09422 5.6355 6.96938 5.72115 6.80859 5.80148C6.64783 5.88178 6.49855 5.94898 6.36106 6.00332C6.22358 6.05748 6.03838 6.12149 5.80564 6.1953C5.38242 6.32991 5.05664 6.45351 4.8281 6.56643V3.33066C5.0143 3.22222 5.16242 3.07138 5.27243 2.87823C5.38242 2.68509 5.43742 2.47564 5.43742 2.24995C5.43742 1.90277 5.31898 1.6076 5.08198 1.36458C4.84507 1.12159 4.55735 1 4.21877 1C3.88016 1 3.59244 1.1215 3.35544 1.36458C3.11852 1.6076 3 1.90277 3 2.24995C3 2.47564 3.055 2.68509 3.16499 2.87823C3.275 3.07138 3.42309 3.22222 3.60932 3.33066V8.66934C3.42309 8.77773 3.275 8.92873 3.16499 9.12181C3.055 9.31503 3 9.52448 3 9.75009C3 10.0973 3.11843 10.3924 3.35544 10.6354C3.59244 10.8784 3.88022 11 4.21877 11C4.55728 11 4.84507 10.8784 5.08198 10.6354C5.31892 10.3924 5.43742 10.0973 5.43742 9.75009C5.43742 9.52448 5.38242 9.31503 5.27243 9.12181C5.1624 8.92873 5.0143 8.77773 4.8281 8.66934V8.50007C4.8281 8.20064 4.9159 7.98369 5.0915 7.84917C5.26709 7.71447 5.62573 7.56043 6.16746 7.38688C6.73882 7.20021 7.16841 7.02432 7.45615 6.85934C8.40401 6.30825 8.88221 5.40977 8.89064 4.16406C9.07697 4.05562 9.22496 3.90473 9.33496 3.71159C9.44491 3.51844 9.5 3.30904 9.5 3.08335C9.50007 2.73615 9.38154 2.44105 9.14461 2.19796ZM4.65048 10.193C4.53194 10.3145 4.38807 10.3753 4.21885 10.3753C4.04953 10.3753 3.90566 10.3145 3.78716 10.193C3.66872 10.0715 3.60943 9.92388 3.60943 9.75032C3.60943 9.57663 3.66866 9.42913 3.78716 9.30755C3.90566 9.18605 4.04953 9.12526 4.21885 9.12526C4.38807 9.12526 4.53196 9.18612 4.65048 9.30755C4.76899 9.42913 4.82819 9.57663 4.82819 9.75032C4.82817 9.92388 4.76899 10.0715 4.65048 10.193ZM4.65048 2.69275C4.53194 2.81429 4.38807 2.87504 4.21885 2.87504C4.04953 2.87504 3.90566 2.81429 3.78716 2.69275C3.66872 2.57121 3.60943 2.42371 3.60943 2.25004C3.60943 2.07642 3.66866 1.92881 3.78716 1.80738C3.90566 1.68586 4.04953 1.62509 4.21885 1.62509C4.38807 1.62509 4.53196 1.68588 4.65048 1.80738C4.76899 1.92881 4.82819 2.07642 4.82819 2.25004C4.82817 2.42371 4.76899 2.57128 4.65048 2.69275ZM8.71291 3.52615C8.59445 3.64762 8.45065 3.70842 8.28137 3.70842C8.112 3.70842 7.96811 3.64762 7.84974 3.52615C7.73128 3.40468 7.67201 3.25709 7.67201 3.08344C7.67201 2.90982 7.73128 2.7623 7.84974 2.64074C7.96819 2.51917 8.112 2.45847 8.28137 2.45847C8.45065 2.45847 8.59445 2.51919 8.71291 2.64074C8.83137 2.76219 8.89064 2.90979 8.89064 3.08344C8.89064 3.25707 8.83146 3.40468 8.71291 3.52615Z" fill="white" fill-opacity="0.4"/>
</g>
<defs>
<clipPath id="clip0_1432_7175">
<rect width="12" height="12" fill="white"/>
</clipPath>
</defs>
</svg>
