<svg width="180" height="151" viewBox="0 0 180 151" fill="none" xmlns="http://www.w3.org/2000/svg">
<path opacity="0.8" d="M76.4193 91.6068C76.0164 91.2578 75.3792 91.0677 74.8829 91.1492C73.202 91.4245 69.3398 92.488 67.0502 96.5505C64.3639 101.317 67.7045 104.989 68.4075 105.683C67.3827 106.923 66.5783 107.723 66.245 108.041C65.2013 107.367 64.0973 106.64 62.9449 105.867C61.0771 104.623 59.1025 103.245 57.0344 101.776C56.5234 101.406 56.005 101.03 55.4806 100.65C55.2181 100.46 54.9543 100.269 54.6891 100.076C54.4281 99.8814 54.1657 99.6858 53.9019 99.4887C53.3743 99.0951 52.8407 98.6968 52.302 98.2949C51.7864 97.899 51.2652 97.4989 50.7404 97.0956C51.3154 96.6131 52.4346 95.6486 53.808 94.3448C54.9691 94.4875 61.1632 95.0261 63.9854 90.7546C66.3772 87.1355 64.4711 84.3699 63.4491 83.2746C63.1503 82.9546 62.6088 82.7456 62.1438 82.7718C60.5688 82.8612 56.8687 83.421 54.0253 86.5788C50.6704 90.3043 53.0469 93.6183 53.5345 94.2209C52.1934 95.4934 51.0981 96.4386 50.5184 96.9253C49.495 96.1435 48.4923 95.3341 47.4651 94.5197C46.9163 94.0906 46.3942 93.6463 45.8551 93.2057C45.3206 92.7633 44.7764 92.3209 44.2428 91.8724C42.5053 90.3932 40.7655 88.8845 39.0878 87.35C39.3815 87.1677 39.8728 86.8583 40.5109 86.4407C41.2098 85.9836 42.0873 85.3933 43.0674 84.7046C44.0329 84.8846 49.8601 85.7916 53.1358 82.1724C55.8779 79.1426 54.4751 76.6044 53.6689 75.5828C53.4332 75.2845 52.9548 75.069 52.5156 75.0644C51.0276 75.0483 47.4831 75.3181 44.3814 77.9161C40.8009 80.9151 42.4151 83.8961 42.8363 84.5453C40.9966 85.8394 39.5289 86.7722 38.8917 87.1686C38.5929 86.8942 38.2913 86.6203 37.9976 86.344C35.2012 83.7447 32.5686 81.0942 30.1833 78.4828C30.6212 78.2793 31.907 77.6509 33.5341 76.5865C33.8955 76.3498 34.2776 76.0837 34.6671 75.8043C35.5953 75.9332 40.353 76.4175 42.6839 73.2219C44.6678 70.5019 43.2838 68.3675 42.5283 67.5176C42.3073 67.2695 41.8944 67.1024 41.532 67.1153C40.3055 67.1594 37.412 67.5301 35.0934 69.8919C32.4268 72.6077 34.0028 75.1077 34.4153 75.6643C32.3384 77.1551 30.5848 78.0261 30.0111 78.295C29.0126 77.1974 28.054 76.1063 27.153 75.0308C26.5264 74.285 25.9265 73.5474 25.351 72.8186C25.3589 72.8099 25.3681 72.802 25.369 72.7901C25.3722 72.7413 25.311 72.6869 25.2318 72.6667C25.0315 72.4116 24.834 72.1579 24.6402 71.9056C24.8644 71.5659 25.8446 70.0751 27.0329 68.205C28.0112 68.2335 32.4637 68.1631 33.7914 64.6158C34.936 61.5565 33.0972 59.4838 32.1745 58.6818C31.9047 58.4474 31.477 58.319 31.1433 58.3728C30.013 58.5556 27.415 59.2651 25.8662 61.9874C24.0596 65.1627 26.2571 67.6189 26.7456 68.1065C25.6761 69.7897 24.7774 71.1621 24.4505 71.6589C22.5781 69.2054 21.0077 66.8818 19.7435 64.7916C19.5119 64.4132 19.2849 64.0426 19.063 63.6803C18.8425 63.3179 18.6661 62.9625 18.4732 62.6167C18.4221 62.5224 18.3738 62.434 18.3231 62.341C18.7803 62.0652 20.4124 60.8148 18.9585 57.6809C17.6749 54.9144 15.5506 53.4204 14.6271 52.873C14.3545 52.7114 14.0065 52.6653 13.7883 52.7616C13.0415 53.0907 11.5567 54.134 12.513 57.0326C13.6373 60.4409 17.3577 62.0657 18.0851 62.3548C18.1325 62.445 18.1772 62.5302 18.2251 62.6218C18.412 62.9685 18.5819 63.3253 18.796 63.689C19.0114 64.0527 19.232 64.4247 19.4571 64.805C20.8203 67.1346 22.5592 69.7574 24.6706 72.5304C23.4888 72.2454 20.5671 71.5442 17.2113 70.7625C16.7785 70.2708 14.5221 67.9964 8.82891 66.7386C3.91927 65.654 1.30976 66.1737 0.35813 66.4762C0.0772901 66.5655 0.00454568 66.7999 0.183178 67.0407C0.7932 67.8643 2.70061 69.7938 7.85609 71.2302C13.8269 72.8941 16.6303 71.314 17.1864 70.937C20.7324 71.7629 23.7981 72.5 24.8405 72.7518C25.4344 73.5267 26.055 74.3126 26.7069 75.1072C27.7971 76.4414 28.9697 77.7991 30.2059 79.1665C29.4301 79.2328 27.281 79.399 24.3221 79.4902C23.7222 79.0625 20.4838 76.9594 14.6133 76.83C9.60605 76.7195 7.52323 77.9032 6.82251 78.4626C6.6158 78.6278 6.6738 78.9096 6.96201 79.1421C7.94771 79.9363 10.6884 81.6881 16.1031 82.1416C22.3783 82.6669 24.0753 80.2351 24.3773 79.6826C27.4201 79.5901 29.6194 79.4179 30.3721 79.353C32.5401 81.7401 34.9088 84.1553 37.4092 86.53C37.9529 87.0521 38.5072 87.5705 39.0666 88.0866C38.3618 88.1907 36.2242 88.4973 33.2601 88.8417C32.4627 88.385 28.4546 86.3095 22.2213 86.838C16.8646 87.2925 14.9687 88.9342 14.3748 89.6773C14.1994 89.8964 14.3375 90.2229 14.7067 90.4636C15.9705 91.2873 19.3599 93.0372 25.2428 92.9406C32.186 92.8264 33.2495 89.6405 33.39 89.0309C36.4373 88.6768 38.6145 88.3629 39.2637 88.2666C40.684 89.5714 42.142 90.8582 43.5992 92.1243C44.1286 92.5787 44.6691 93.0266 45.1995 93.4751C45.735 93.9212 46.2534 94.3715 46.7985 94.8065C47.8786 95.6804 48.9315 96.5505 50.0116 97.3861C50.1455 97.4911 50.2767 97.5938 50.4098 97.6983C49.9172 97.8764 48.5203 98.3612 46.3063 98.9814C45.3432 98.5371 40.3493 96.4658 33.6331 97.8746C27.8929 99.079 26.2778 101.31 25.8363 102.287C25.706 102.575 25.9491 102.955 26.4215 103.204C28.0374 104.054 32.2431 105.774 38.6606 104.941C46.3321 103.945 46.5089 99.846 46.4845 99.1628C48.7353 98.5325 50.1446 98.0413 50.6253 97.8672C50.9526 98.1237 51.2813 98.381 51.605 98.6347C52.1409 99.0426 52.6717 99.4464 53.1966 99.846C53.459 100.046 53.7205 100.245 53.9801 100.442C54.2444 100.637 54.5068 100.832 54.7679 101.025C55.29 101.41 55.8061 101.792 56.3148 102.168C58.3746 103.66 60.3428 105.06 62.2065 106.326C63.4601 107.184 64.6562 107.984 65.7814 108.723C65.3104 108.914 63.8652 109.482 61.6415 110.205C60.8428 109.842 55.1426 107.446 47.6516 109.247C41.4565 110.737 39.8235 113.269 39.399 114.372C39.2738 114.697 39.5611 115.116 40.091 115.382C41.9045 116.29 46.595 118.105 53.5515 117.013C61.7161 115.731 61.8193 111.289 61.7571 110.406C64.0876 109.651 65.5825 109.06 66.0222 108.881C68.1253 110.258 69.9655 111.413 71.4245 112.308C72.5685 113.01 73.4806 113.553 74.109 113.921C74.7338 114.288 75.0846 114.485 75.0846 114.485L75.7825 113.846C75.7825 113.846 75.4561 113.667 74.8346 113.308C74.214 112.952 73.3075 112.423 72.1666 111.737C70.6478 110.823 68.71 109.63 66.4876 108.198C66.815 107.886 67.6327 107.076 68.6768 105.812C69.7482 105.858 76.829 105.951 78.8612 100.45C80.5458 95.8857 77.7972 92.8001 76.4193 91.6068Z" fill="#020C0C"/>
<g opacity="0.7">
<path d="M62.0702 107.976C62.0702 107.976 57.9538 117.059 45.2695 117.205C35.5515 117.316 31.495 113.153 30.1295 111.2C29.7303 110.629 29.7828 109.862 30.2575 109.352C31.8647 107.624 36.3729 103.817 45.5343 102.858C57.4911 101.607 62.0702 107.976 62.0702 107.976Z" fill="url(#paint0_radial_1034_17838)"/>
</g>
<g opacity="0.7">
<path d="M74.8689 102.253C74.8689 102.253 84.3829 105.241 92.9485 95.8843C99.5105 88.7155 99.1123 82.9168 98.5671 80.5965C98.4079 79.9183 97.8011 79.4464 97.1049 79.4597C94.7454 79.5058 88.9026 80.3271 82.08 86.5162C73.1751 94.5938 74.8689 102.253 74.8689 102.253Z" fill="url(#paint1_linear_1034_17838)"/>
</g>
<g opacity="0.7">
<path d="M67.5622 79.5187C67.5622 79.5187 75.4377 83.2198 83.9426 76.1352C90.4585 70.7072 90.7951 65.6466 90.5962 63.5766C90.5382 62.9717 90.069 62.4924 89.4655 62.422C87.4199 62.1844 82.2714 62.2088 75.6454 66.7589C66.9969 72.6975 67.5622 79.5187 67.5622 79.5187Z" fill="url(#paint2_linear_1034_17838)"/>
</g>
<g opacity="0.7">
<path d="M63.7061 60.8824C63.7061 60.8824 70.53 64.915 78.8507 59.2209C85.2253 54.8582 85.9652 50.298 85.9629 48.4039C85.9619 47.8501 85.578 47.3754 85.0365 47.2598C83.2019 46.869 78.5312 46.4486 72.1317 50.0056C63.7793 54.6482 63.7061 60.8824 63.7061 60.8824Z" fill="url(#paint3_radial_1034_17838)"/>
</g>
<g opacity="0.7">
<path d="M61.9432 44.0389C61.9432 44.0389 67.9205 47.0558 74.6146 41.7908C79.7434 37.7573 80.1117 33.872 80.0035 32.2754C79.9717 31.8085 79.6213 31.4301 79.1587 31.3629C77.5906 31.1359 73.6302 31.0433 68.4356 34.3996C61.6559 38.7803 61.9432 44.0389 61.9432 44.0389Z" fill="url(#paint4_radial_1034_17838)"/>
</g>
<g opacity="0.7">
<path d="M59.8309 29.5614C59.8309 29.5614 66.2138 31.583 71.9798 25.3148C76.3973 20.5124 76.1395 16.6184 75.7771 15.06C75.6712 14.6046 75.2647 14.2865 74.7974 14.2943C73.2132 14.3215 69.2888 14.8634 64.6982 19.0074C58.7057 24.4161 59.8309 29.5614 59.8309 29.5614Z" fill="url(#paint5_radial_1034_17838)"/>
</g>
<g opacity="0.7">
<path d="M54.0419 85.6522C54.0419 85.6522 50.049 93.7473 38.57 93.5023C29.7755 93.315 26.2291 89.4288 25.0514 87.6208C24.7071 87.0927 24.7775 86.4003 25.2218 85.9533C26.7273 84.4377 30.9182 81.1274 39.2343 80.5317C50.0885 79.755 54.0419 85.6522 54.0419 85.6522Z" fill="url(#paint6_radial_1034_17838)"/>
</g>
<g opacity="0.7">
<path d="M47.709 65.6171C47.709 65.6171 43.3022 71.9502 33.6307 70.2799C26.2211 69.0005 23.7189 65.2635 22.9541 63.5854C22.7304 63.095 22.8782 62.5191 23.311 62.1977C24.7764 61.1084 28.7408 58.8447 35.8461 59.4018C45.1193 60.1287 47.709 65.6171 47.709 65.6171Z" fill="url(#paint7_radial_1034_17838)"/>
</g>
<path d="M45.7056 47.8698C45.7056 47.8698 41.0418 52.814 32.8335 50.1004C26.5445 48.0213 24.8507 44.4404 24.4028 42.8787C24.2716 42.4225 24.4755 41.94 24.894 41.7162C26.3125 40.9579 30.061 39.5017 36.1787 40.911C44.1633 42.7512 45.7056 47.8698 45.7056 47.8698Z" fill="url(#paint8_radial_1034_17838)"/>
<g opacity="0.7">
<path d="M45.3537 31.6489C45.3537 31.6489 39.7885 34.7165 33.2573 29.9542C28.2533 26.3056 27.7699 22.633 27.8173 21.1151C27.8312 20.6713 28.1502 20.3002 28.5871 20.2206C30.0668 19.9512 33.8199 19.7266 38.8626 22.7306C45.4449 26.6513 45.3537 31.6489 45.3537 31.6489Z" fill="url(#paint9_radial_1034_17838)"/>
</g>
<g opacity="0.7">
<path d="M54.7721 17.8237C54.7721 17.8237 50.7925 14.0987 52.9434 7.50676C54.5916 2.45625 57.4585 1.08704 58.7094 0.722868C59.0749 0.616517 59.4626 0.778115 59.6435 1.11328C60.2558 2.24861 61.4354 5.25038 60.324 10.1614C58.8728 16.5715 54.7721 17.8237 54.7721 17.8237Z" fill="url(#paint10_radial_1034_17838)"/>
</g>
<path opacity="0.7" d="M38.0298 110.399C38.0293 110.303 38.1057 110.225 38.2029 110.225C53.7324 110.144 66.5663 106.955 68.5898 106.426C67.9144 104.924 67.21 103.302 66.4913 101.568C65.4126 99.0104 64.3353 96.202 63.2345 93.2191C62.9697 92.4696 62.7013 91.7094 62.4302 90.9406C62.2943 90.5562 62.1581 90.169 62.0209 89.7799C61.8915 89.3881 61.7612 88.9936 61.6305 88.5976C61.369 87.8053 61.1042 87.0042 60.8372 86.1953C60.683 85.6949 60.526 85.1866 60.3699 84.6802C58.4786 85.1023 47.7091 87.3417 32.2776 87.2943C32.1819 87.2943 32.1041 87.216 32.1041 87.1202C32.1045 87.0236 32.1837 86.9462 32.2781 86.9467C47.6014 86.9936 58.3133 84.7814 60.2668 84.3464C60.2032 84.1401 60.1406 83.9376 60.0766 83.7304C59.5513 82.0776 59.0937 80.3741 58.6057 78.6582C58.3538 77.8023 58.1494 76.9271 57.9206 76.0547C57.6996 75.1799 57.4662 74.3038 57.2526 73.4189C56.6799 70.9581 56.1265 68.4633 55.6375 65.9477C53.5952 65.95 40.7171 65.8933 28.4927 64.194C28.3974 64.1807 28.3311 64.0932 28.3445 63.9984C28.3574 63.9031 28.4458 63.8368 28.5402 63.8501C40.6075 65.5273 53.319 65.601 55.568 65.6005C55.3774 64.6061 55.1955 63.6093 55.0303 62.6089C54.2448 58.051 53.6634 53.4581 53.3042 48.9619C51.1924 48.7999 40.5873 47.8547 30.2634 44.5845C30.1718 44.5555 30.1211 44.4579 30.1506 44.3667C30.1796 44.2751 30.2772 44.224 30.3684 44.2535C40.5836 47.4887 51.0741 48.4398 53.2798 48.6111C53.0805 46.037 52.9511 43.4943 52.9014 41.0105C52.8687 39.5308 52.8655 38.0736 52.8857 36.6409C50.5842 35.1644 38.4727 27.4284 32.6634 24.3543C32.5787 24.3097 32.546 24.2043 32.5912 24.1196C32.6353 24.0344 32.7408 24.0012 32.8259 24.0473C38.5086 27.0541 50.1966 34.5046 52.8922 36.2316C52.9815 31.1074 53.3857 26.3235 53.9709 22.1196C54.063 21.4332 54.1528 20.761 54.2411 20.104C54.3309 19.4475 54.4686 18.8135 54.5754 18.1911C54.8024 16.9494 55.0178 15.7712 55.2199 14.664C55.4755 13.5678 55.7149 12.5425 55.9359 11.5941C56.1665 10.6484 56.3447 9.77093 56.5657 8.99425C57.4662 5.89211 57.9809 4.11914 57.9809 4.11914L58.0951 4.15459C58.0951 4.15459 57.6057 5.93171 56.7489 9.04121C56.539 9.81927 56.3732 10.6982 56.1559 11.6447C55.9483 12.5936 55.7236 13.6203 55.4838 14.7165C55.2973 15.8233 55.0984 17.0009 54.8889 18.2426C54.7909 18.8642 54.6624 19.4977 54.5818 20.1537C54.5031 20.8098 54.4225 21.4815 54.3401 22.167C53.8668 25.9487 53.545 30.1935 53.4723 34.7284C55.5519 32.9918 66.1437 24.12 71.9681 18.7113C72.039 18.6469 72.1482 18.6501 72.214 18.7205C72.2794 18.791 72.2752 18.901 72.2048 18.9664C66.111 24.6251 54.8102 34.0659 53.4672 35.1856C53.4612 35.6524 53.4585 36.122 53.458 36.5948C53.5367 36.6478 53.5598 36.7532 53.5082 36.8333C53.4953 36.8531 53.476 36.8642 53.4576 36.8766C53.4599 38.2283 53.4833 39.6007 53.5331 40.993C53.6007 43.0007 53.725 45.0481 53.8926 47.1162C55.8111 46.5145 65.6575 43.1748 75.5224 35.2514C75.5983 35.1892 75.7065 35.2031 75.7668 35.2781C75.8272 35.3531 75.8152 35.4623 75.7406 35.5221C69.9406 40.1808 64.1447 43.2632 59.945 45.1407C56.8806 46.5112 54.667 47.2396 53.923 47.4707C54.3337 52.3932 55.0128 57.4414 55.9455 62.445C56.0408 62.9763 56.1476 63.5044 56.2503 64.0338C58.9712 62.8745 69.9751 58.0588 80.1746 51.7749C80.2543 51.7243 80.3629 51.7501 80.4141 51.832C80.4642 51.9135 80.4389 52.0208 80.357 52.0714C72.2002 57.0966 63.531 61.1844 58.9768 63.2212C57.7751 63.7585 56.8617 64.1521 56.318 64.3833C56.9022 67.3431 57.5891 70.2754 58.3018 73.1588C58.5265 74.0349 58.77 74.9028 59.0016 75.7688C59.241 76.6329 59.4556 77.4989 59.7175 78.3461C60.1977 79.9501 60.6521 81.5407 61.1595 83.09C64.3256 81.3257 75.108 75.1265 84.9876 67.2363C85.0626 67.1751 85.1718 67.1889 85.2321 67.2639C85.2919 67.3385 85.2795 67.4486 85.2044 67.5084C75.2425 75.4645 64.3647 81.7037 61.2681 83.4274C61.5264 84.2257 61.7824 85.0181 62.0361 85.8021C62.3123 86.6018 62.5862 87.3937 62.857 88.1773C62.9923 88.5691 63.1272 88.9586 63.2607 89.3458C63.4025 89.7302 63.5429 90.1128 63.6829 90.4931C63.9628 91.2532 64.2395 92.0041 64.5125 92.7449C65.646 95.6918 66.7537 98.4643 67.8587 100.988C68.5341 102.556 69.1966 104.032 69.8342 105.408C71.8862 104.146 82.3919 97.4073 93.4519 85.3058C93.5168 85.2363 93.6264 85.2299 93.6978 85.2948C93.7682 85.3597 93.7733 85.4697 93.7088 85.5406C82.5701 97.7282 71.9783 104.5 69.9825 105.726C71.3443 108.649 72.5855 111.107 73.5795 112.997C74.3263 114.416 74.9358 115.518 75.3589 116.261C75.7811 117.008 76.0118 117.386 76.0118 117.386L74.5187 118.276C74.5187 118.276 74.2752 117.863 73.8581 117.1C73.4363 116.335 72.8337 115.21 72.098 113.764C71.1601 111.919 70.0023 109.55 68.7353 106.747C66.8928 107.232 53.9262 110.49 38.2052 110.571C38.1085 110.573 38.0298 110.495 38.0298 110.399Z" fill="url(#paint11_linear_1034_17838)"/>
<path d="M136.888 67.7632C136.889 67.7517 136.889 67.7401 136.889 67.7291C137.635 42.1957 130.03 34.5822 123.084 40.536C120.008 43.1726 118.875 47.4027 119.902 51.3221C120.239 52.6052 120.436 53.9468 120.252 55.4297C120.017 57.3201 119.05 58.5442 117.81 59.3324C115.165 61.0133 113.364 63.7453 112.993 66.8571C112.791 68.5481 112.63 70.3068 112.512 72.1318C110.558 102.548 102.727 120.916 100.533 128.214C99.8574 130.463 102.43 132.274 104.318 130.876C109.443 127.081 123.126 115.583 131.043 95.9867C132.154 93.2353 131.993 90.1562 130.753 87.4606C130.274 86.4206 130.039 85.0997 130.185 83.4216C130.518 79.5782 132.589 76.5286 134.779 73.6511C136.072 71.9523 136.825 69.8975 136.888 67.7632Z" fill="url(#paint12_linear_1034_17838)"/>
<path opacity="0.7" d="M124.839 70.0603L136.935 65.2289C136.935 65.1594 136.937 65.0876 136.937 65.0185L124.866 69.8402C125.708 62.752 126.256 55.2273 126.51 47.309L134.261 45.1769C134.237 45.1152 134.212 45.0558 134.188 44.9951L126.517 47.1055C126.603 44.3496 126.652 41.544 126.667 38.6946C126.602 38.7056 126.537 38.7204 126.472 38.7337C126.426 46.8357 126.09 54.249 125.534 61.0154L119.99 56.5961C119.968 56.6619 119.945 56.7263 119.921 56.7899L125.513 61.2488C124.77 70.1878 123.643 78.0002 122.299 84.7961L112.278 75.3778C112.272 75.4607 112.265 75.5431 112.258 75.626L122.254 85.0207C119.969 96.4928 117.068 105.058 114.355 111.256C114.193 111.625 114.032 111.987 113.87 112.344L107.974 103.384C107.954 103.472 107.933 103.558 107.913 103.646L113.775 112.554C108.319 124.501 102.78 129.52 101.255 130.746C101.305 130.79 101.356 130.831 101.41 130.871C102.52 129.972 105.541 127.239 109.112 121.631L114.494 121.724C114.512 121.705 114.529 121.686 114.547 121.667C114.582 121.63 114.617 121.593 114.653 121.555C114.66 121.547 114.667 121.54 114.674 121.532L109.235 121.438C110.927 118.758 112.738 115.435 114.524 111.358C116.413 107.043 118.093 102.308 119.556 97.1899L131.221 95.5417C131.248 95.4721 131.276 95.4031 131.303 95.3336L119.616 96.985C121.117 91.7047 122.388 86.0184 123.416 79.9615C123.957 76.765 124.432 73.4626 124.839 70.0603Z" fill="url(#paint13_linear_1034_17838)"/>
<path opacity="0.8" d="M177.024 114.646C179.484 109.876 180.242 106.328 179.791 103.92C179.786 103.899 179.782 103.879 179.778 103.858H179.776C179.247 101.187 177.215 99.9406 174.375 99.9958C174.375 99.994 174.376 99.9926 174.377 99.9912C174.312 99.9926 174.247 99.9953 174.182 99.9981L174.182 99.9995C173.064 100.044 171.828 100.281 170.512 100.712C166.912 101.888 164.718 104.046 164.639 106.192C164.613 106.895 164.442 107.619 163.873 108.39C163.699 108.625 163.495 108.836 163.267 109.028C163.249 109.043 163.231 109.059 163.212 109.074C162.496 109.655 161.553 110.037 160.532 110.281C157.594 110.983 155.168 112.3 153.989 113.92C153.348 114.8 152.727 115.719 152.13 116.676C142.176 132.628 129.902 141.79 125.891 145.495C125.329 146.014 125.426 146.53 125.897 146.885C125.896 146.885 125.895 146.885 125.894 146.885C125.929 146.912 125.966 146.938 126.006 146.962C126.006 146.962 126.007 146.962 126.008 146.961C126.6 147.333 127.643 147.482 128.744 147.172C131.245 146.467 135.604 145.124 140.764 143.051H140.766C140.788 143.043 140.81 143.034 140.832 143.025C140.874 143.008 140.918 142.991 140.961 142.973C140.97 142.969 140.979 142.966 140.987 142.962H140.986C147.829 140.198 156.044 136.155 163.216 130.61C163.311 130.536 163.401 130.462 163.49 130.387H163.501C163.546 130.352 163.59 130.318 163.634 130.283H163.61C165.092 128.978 165.631 127.475 165.217 126.079C165.044 125.495 165.175 124.779 165.76 123.902C167.098 121.892 169.862 120.426 172.692 119.059C174.363 118.252 175.62 117.218 176.249 116.093C176.252 116.087 176.256 116.082 176.259 116.076C176.512 115.623 176.747 115.182 176.972 114.75C176.99 114.715 177.009 114.68 177.027 114.645L177.024 114.646Z" fill="#020C0C"/>
<path d="M173.458 71.2265C173.46 71.2118 173.462 71.1975 173.465 71.1828C178.626 38.5133 170.113 27.4832 160.211 33.9863C155.827 36.866 153.676 42.1127 154.35 47.3151C154.57 49.0186 154.603 50.7736 154.123 52.6478C153.51 55.0368 152.066 56.4502 150.344 57.2582C146.67 58.9815 143.907 62.1941 142.919 66.1291C142.381 68.2671 141.884 70.4996 141.433 72.8241C133.916 111.566 120.834 133.866 116.816 142.878C115.577 145.656 118.583 148.405 121.238 146.92C128.446 142.89 147.91 130.376 161.304 106.512C163.185 103.161 163.484 99.1803 162.335 95.5137C161.892 94.0994 161.808 92.3641 162.271 90.233C163.331 85.3514 166.493 81.776 169.78 78.4409C171.721 76.4723 173.026 73.9571 173.458 71.2265Z" fill="url(#paint14_linear_1034_17838)"/>
<path opacity="0.7" d="M157.605 72.1929L173.935 67.9793C173.947 67.89 173.96 67.7984 173.972 67.7095L157.675 71.9143C159.924 62.9495 161.867 53.3761 163.497 43.2479L173.802 41.7857C173.781 41.7024 173.759 41.6223 173.738 41.5403L163.538 42.9878C164.103 39.4626 164.628 35.8674 165.116 32.2104C165.031 32.2141 164.945 32.222 164.859 32.2289C163.466 42.6269 161.814 52.0925 159.986 60.6908L153.594 54.1022C153.554 54.1827 153.514 54.2619 153.473 54.3397L159.922 60.9869C157.495 72.3448 154.762 82.1926 151.917 90.6993L140.597 76.9538C140.575 77.0592 140.553 77.1637 140.53 77.2691L151.822 90.9801C146.999 105.337 141.862 115.86 137.358 123.373C137.089 123.821 136.822 124.258 136.555 124.69L130.459 112.213C130.418 112.322 130.378 112.429 130.337 112.538L136.399 124.944C127.425 139.39 119.486 144.923 117.325 146.247C117.382 146.312 117.441 146.373 117.503 146.433C119.077 145.461 123.407 142.449 128.917 135.834L135.812 136.84C135.838 136.818 135.864 136.798 135.89 136.776C135.941 136.734 135.993 136.692 136.044 136.649C136.054 136.641 136.065 136.631 136.075 136.623L129.105 135.607C131.72 132.444 134.592 128.475 137.557 123.532C140.694 118.302 143.631 112.497 146.353 106.165L161.604 105.968C161.651 105.884 161.698 105.799 161.745 105.715L146.463 105.911C149.26 99.3768 151.828 92.283 154.146 84.6732C155.368 80.659 156.521 76.4957 157.605 72.1929Z" fill="url(#paint15_linear_1034_17838)"/>
<path d="M72.2812 9.45043L75.0473 7.86852L75.0478 7.87773C75.2614 7.76677 75.5312 7.77598 75.8295 7.94863L121.228 34.1998C121.91 34.5944 122.463 35.6528 122.462 36.563L122.387 148.044C122.387 148.546 122.215 148.891 121.949 149.04L121.957 149.044L119.195 150.625L119.083 144.881L78.2618 121.277C77.579 120.882 77.0261 119.824 77.027 118.913L77.0988 12.1654C76.9925 12.5001 76.9114 12.7445 76.8999 12.7519C76.8608 12.7777 72.2812 9.45043 72.2812 9.45043Z" fill="url(#paint16_linear_1034_17838)"/>
<path d="M122.431 36.1826L111.212 42.6456L109.141 41.4477L121.448 34.3572C121.936 34.7568 122.323 35.4787 122.431 36.1826Z" fill="url(#paint17_linear_1034_17838)"/>
<path d="M73.0199 124.29L118.418 150.542C119.101 150.936 119.655 150.518 119.655 149.608L119.73 38.1265C119.731 37.2158 119.178 36.1578 118.495 35.7628L73.0973 9.51166C72.4145 9.11711 71.8607 9.53514 71.8602 10.4458L71.7852 121.927C71.7842 122.837 72.3372 123.895 73.0199 124.29Z" fill="url(#paint18_linear_1034_17838)"/>
<path d="M118.495 35.7628L73.0973 9.51167C72.6913 9.27687 72.334 9.33488 72.1084 9.60789C72.2999 9.55679 72.5251 9.58993 72.7686 9.73035L118.167 35.9815C118.849 36.3761 119.402 37.4345 119.401 38.3452L119.326 149.826C119.326 150.195 119.232 150.478 119.078 150.664C119.424 150.571 119.655 150.193 119.656 149.607L119.731 38.126C119.731 37.2158 119.178 36.1579 118.495 35.7628Z" fill="white"/>
<path d="M72.8174 119.226L118.595 145.697L118.681 42.9046L72.9035 16.4338L72.8174 119.226Z" fill="#0B5447"/>
<path d="M90.9746 24.1689L99.6341 29.1936C99.8869 29.3395 100.102 29.3837 100.195 29.1457C100.227 29.0656 100.244 28.9675 100.245 28.8538C100.245 28.4031 99.9711 27.8792 99.6332 27.684L90.882 22.6238C90.8558 22.6086 90.8305 22.5777 90.8042 22.5851C90.5285 22.662 90.4824 22.7154 90.4824 23.1311L90.5211 23.2481C90.5211 23.6983 90.6367 23.9732 90.9746 24.1689Z" fill="#196F67"/>
<path d="M90.8027 22.5881C90.7714 22.6678 90.7543 22.7654 90.7539 22.8786C90.7534 23.3293 91.0273 23.8533 91.3653 24.0485L100.116 29.1087C100.144 29.1243 100.17 29.1335 100.196 29.1441C100.103 29.3826 99.8853 29.4622 99.6321 29.3158L90.8809 24.2556C90.543 24.0604 90.2695 23.5365 90.2695 23.0858C90.27 22.6714 90.503 22.4675 90.8027 22.5881Z" fill="#BCBEFF"/>
<path opacity="0.7" d="M113.544 104.224L78.293 83.8722V57.9341L113.544 78.2862V104.224Z" fill="url(#paint19_radial_1034_17838)"/>
<path opacity="0.7" d="M78.293 57.9341L95.9187 83.8694L113.544 78.2862L78.293 57.9341Z" fill="url(#paint20_linear_1034_17838)"/>
<path opacity="0.7" d="M113.544 104.224L95.9187 78.2891L78.293 83.8723L113.544 104.224Z" fill="url(#paint21_linear_1034_17838)"/>
<defs>
<radialGradient id="paint0_radial_1034_17838" cx="0" cy="0" r="1" gradientUnits="userSpaceOnUse" gradientTransform="translate(39.8566 102.676) scale(35.1594 27.4693)">
<stop stop-color="#43E0DE"/>
<stop offset="1" stop-color="#0E8583"/>
</radialGradient>
<linearGradient id="paint1_linear_1034_17838" x1="72.8954" y1="95.6348" x2="100.592" y2="87.3748" gradientUnits="userSpaceOnUse">
<stop stop-color="#42E8E0"/>
<stop offset="0.1507" stop-color="#43E3E0"/>
<stop offset="0.3285" stop-color="#45D5DF"/>
<stop offset="0.5199" stop-color="#49BDDD"/>
<stop offset="0.7209" stop-color="#4E9CDB"/>
<stop offset="0.9274" stop-color="#5472D8"/>
<stop offset="1" stop-color="#5761D7"/>
</linearGradient>
<linearGradient id="paint2_linear_1034_17838" x1="66.6329" y1="73.5644" x2="91.5502" y2="69.6755" gradientUnits="userSpaceOnUse">
<stop stop-color="#42E8E0"/>
<stop offset="0.1507" stop-color="#43E3E0"/>
<stop offset="0.3285" stop-color="#45D5DF"/>
<stop offset="0.5199" stop-color="#49BDDD"/>
<stop offset="0.7209" stop-color="#4E9CDB"/>
<stop offset="0.9274" stop-color="#5472D8"/>
<stop offset="1" stop-color="#5761D7"/>
</linearGradient>
<radialGradient id="paint3_radial_1034_17838" cx="0" cy="0" r="1" gradientUnits="userSpaceOnUse" gradientTransform="translate(70.6125 46.9866) scale(24.2964 28.8885)">
<stop stop-color="#43E0DE"/>
<stop offset="1" stop-color="#0E8583"/>
</radialGradient>
<radialGradient id="paint4_radial_1034_17838" cx="0" cy="0" r="1" gradientUnits="userSpaceOnUse" gradientTransform="translate(67.5507 31.2498) scale(19.7333 25.8036)">
<stop stop-color="#43E0DE"/>
<stop offset="1" stop-color="#0E8583"/>
</radialGradient>
<radialGradient id="paint5_radial_1034_17838" cx="0" cy="0" r="1" gradientUnits="userSpaceOnUse" gradientTransform="translate(64.7775 14.2736) scale(17.6967 29.4885)">
<stop stop-color="#43E0DE"/>
<stop offset="1" stop-color="#0E8583"/>
</radialGradient>
<radialGradient id="paint6_radial_1034_17838" cx="0" cy="0" r="1" gradientUnits="userSpaceOnUse" gradientTransform="translate(33.8974 80.4439) scale(31.8846 24.6965)">
<stop stop-color="#43E0DE"/>
<stop offset="1" stop-color="#0E8583"/>
</radialGradient>
<radialGradient id="paint7_radial_1034_17838" cx="0" cy="0" r="1" gradientUnits="userSpaceOnUse" gradientTransform="translate(30.5643 59.3001) scale(27.1365 21.2873)">
<stop stop-color="#43E0DE"/>
<stop offset="1" stop-color="#0E8583"/>
</radialGradient>
<radialGradient id="paint8_radial_1034_17838" cx="0" cy="0" r="1" gradientUnits="userSpaceOnUse" gradientTransform="translate(30.9859 40.306) scale(23.2981 20.0537)">
<stop stop-color="#43E0DE"/>
<stop offset="1" stop-color="#0E8583"/>
</radialGradient>
<radialGradient id="paint9_radial_1034_17838" cx="0" cy="0" r="1" gradientUnits="userSpaceOnUse" gradientTransform="translate(33.257 20.0581) scale(19.1466 23.7499)">
<stop stop-color="#43E0DE"/>
<stop offset="1" stop-color="#0E8583"/>
</radialGradient>
<radialGradient id="paint10_radial_1034_17838" cx="0" cy="0" r="1" gradientUnits="userSpaceOnUse" gradientTransform="translate(54.9362 0.66775) scale(9.25405 32.4324)">
<stop stop-color="#43E0DE"/>
<stop offset="1" stop-color="#0E8583"/>
</radialGradient>
<linearGradient id="paint11_linear_1034_17838" x1="97.7268" y1="71.8379" x2="24.8668" y2="50.5697" gradientUnits="userSpaceOnUse">
<stop stop-color="#42E8E0"/>
<stop offset="0.1507" stop-color="#43E3E0"/>
<stop offset="0.3285" stop-color="#45D5DF"/>
<stop offset="0.5199" stop-color="#49BDDD"/>
<stop offset="0.7209" stop-color="#4E9CDB"/>
<stop offset="0.9274" stop-color="#5472D8"/>
<stop offset="1" stop-color="#5761D7"/>
</linearGradient>
<linearGradient id="paint12_linear_1034_17838" x1="71.8908" y1="38.4973" x2="151.618" y2="38.4973" gradientUnits="userSpaceOnUse">
<stop stop-color="#43E0DE"/>
<stop offset="1" stop-color="#0E8583"/>
</linearGradient>
<linearGradient id="paint13_linear_1034_17838" x1="107.072" y1="83.9167" x2="134.194" y2="87.2864" gradientUnits="userSpaceOnUse">
<stop stop-color="#42E8E0"/>
<stop offset="0.1507" stop-color="#43E3E0"/>
<stop offset="0.3285" stop-color="#45D5DF"/>
<stop offset="0.5199" stop-color="#49BDDD"/>
<stop offset="0.7209" stop-color="#4E9CDB"/>
<stop offset="0.9274" stop-color="#5472D8"/>
<stop offset="1" stop-color="#5761D7"/>
</linearGradient>
<linearGradient id="paint14_linear_1034_17838" x1="70.826" y1="32.0502" x2="198.532" y2="32.0502" gradientUnits="userSpaceOnUse">
<stop stop-color="#43E0DE"/>
<stop offset="1" stop-color="#0E8583"/>
</linearGradient>
<linearGradient id="paint15_linear_1034_17838" x1="132.509" y1="87.0643" x2="166.783" y2="95.8575" gradientUnits="userSpaceOnUse">
<stop stop-color="#42E8E0"/>
<stop offset="0.1507" stop-color="#43E3E0"/>
<stop offset="0.3285" stop-color="#45D5DF"/>
<stop offset="0.5199" stop-color="#49BDDD"/>
<stop offset="0.7209" stop-color="#4E9CDB"/>
<stop offset="0.9274" stop-color="#5472D8"/>
<stop offset="1" stop-color="#5761D7"/>
</linearGradient>
<linearGradient id="paint16_linear_1034_17838" x1="-53.1527" y1="147.231" x2="122.516" y2="67.7578" gradientUnits="userSpaceOnUse">
<stop stop-color="#1E9290"/>
<stop offset="1" stop-color="#8BFAF8"/>
</linearGradient>
<linearGradient id="paint17_linear_1034_17838" x1="115.783" y1="42.6486" x2="115.789" y2="34.353" gradientUnits="userSpaceOnUse">
<stop stop-color="#C0BFF6"/>
<stop offset="0.2938" stop-color="#C5C4F7"/>
<stop offset="0.6399" stop-color="#D3D2F9"/>
<stop offset="1" stop-color="#E9E9FD"/>
</linearGradient>
<linearGradient id="paint18_linear_1034_17838" x1="95.7177" y1="137.416" x2="145.477" y2="51.3656" gradientUnits="userSpaceOnUse">
<stop stop-color="#93E4E3"/>
<stop offset="1" stop-color="#CFFEFE"/>
</linearGradient>
<radialGradient id="paint19_radial_1034_17838" cx="0" cy="0" r="1" gradientUnits="userSpaceOnUse" gradientTransform="translate(76.2179 53.1308) rotate(30.0007) scale(47.5608 41.1894)">
<stop stop-color="#3DE7E4"/>
<stop offset="1" stop-color="#247E7E"/>
</radialGradient>
<linearGradient id="paint20_linear_1034_17838" x1="79.4995" y1="62.1904" x2="111" y2="79.6904" gradientUnits="userSpaceOnUse">
<stop stop-color="#3ED8D6"/>
<stop offset="1" stop-color="#217271"/>
</linearGradient>
<linearGradient id="paint21_linear_1034_17838" x1="79.4995" y1="82.5454" x2="111" y2="100.045" gradientUnits="userSpaceOnUse">
<stop stop-color="#3ED8D6"/>
<stop offset="1" stop-color="#217271"/>
</linearGradient>
</defs>
</svg>
