<svg width="150" height="117" viewBox="0 0 150 117" fill="none" xmlns="http://www.w3.org/2000/svg">
<g filter="url(#filter0_bd_1348_10449)">
<path d="M35 35.945V67.7596C35 75.5715 40.5347 81.9043 49.8293 81.9043H114.952C114.978 81.9043 115 81.8861 115 81.8636V50.049C115 42.2371 109.465 35.9043 100.171 35.9043H35.0484C35.0217 35.9043 35 35.9225 35 35.945Z" fill="#031815"/>
<path d="M35.5 67.7596V36.4043H100.171C104.7 36.4043 108.275 37.9447 110.716 40.3998C113.16 42.8571 114.5 46.2624 114.5 50.049V81.4043H49.8293C45.2999 81.4043 41.7252 79.8639 39.2837 77.4088C36.84 74.9515 35.5 71.5462 35.5 67.7596Z" stroke="url(#paint0_linear_1348_10449)" stroke-opacity="0.15"/>
</g>
<defs>
<filter id="filter0_bd_1348_10449" x="-45" y="-44.0957" width="240" height="206" filterUnits="userSpaceOnUse" color-interpolation-filters="sRGB">
<feFlood flood-opacity="0" result="BackgroundImageFix"/>
<feGaussianBlur in="BackgroundImageFix" stdDeviation="40"/>
<feComposite in2="SourceAlpha" operator="in" result="effect1_backgroundBlur_1348_10449"/>
<feColorMatrix in="SourceAlpha" type="matrix" values="0 0 0 0 0 0 0 0 0 0 0 0 0 0 0 0 0 0 127 0" result="hardAlpha"/>
<feOffset/>
<feGaussianBlur stdDeviation="17.5"/>
<feColorMatrix type="matrix" values="0 0 0 0 0 0 0 0 0 0 0 0 0 0 0 0 0 0 0.25 0"/>
<feBlend mode="normal" in2="effect1_backgroundBlur_1348_10449" result="effect2_dropShadow_1348_10449"/>
<feBlend mode="normal" in="SourceGraphic" in2="effect2_dropShadow_1348_10449" result="shape"/>
</filter>
<linearGradient id="paint0_linear_1348_10449" x1="17.6057" y1="-17.5286" x2="347.137" y2="-7.96347" gradientUnits="userSpaceOnUse">
<stop offset="0.0172482" stop-color="white" stop-opacity="0.11"/>
<stop offset="0.515625" stop-color="white"/>
<stop offset="1" stop-color="white" stop-opacity="0"/>
</linearGradient>
</defs>
</svg>
