<svg width="162" height="108" viewBox="0 0 162 108" fill="none" xmlns="http://www.w3.org/2000/svg">
<g filter="url(#filter0_bd_1348_10427)">
<path d="M35 35.0328V60.6371C35 66.9242 42.5347 72.0208 51.8293 72.0208H126.952C126.978 72.0208 127 72.0062 127 71.9881V46.3837C127 40.0967 119.465 35 110.171 35H35.0484C35.0217 35 35 35.0147 35 35.0328Z" fill="#389989"/>
<path d="M35.5 60.6371V35.5H110.171C114.732 35.5 118.838 36.7513 121.791 38.7484C124.746 40.7473 126.5 43.456 126.5 46.3837V71.5208H51.8293C47.2684 71.5208 43.1616 70.2695 40.2093 68.2725C37.2542 66.2735 35.5 63.5648 35.5 60.6371Z" stroke="url(#paint0_linear_1348_10427)"/>
</g>
<defs>
<filter id="filter0_bd_1348_10427" x="-45" y="-45" width="252" height="197.021" filterUnits="userSpaceOnUse" color-interpolation-filters="sRGB">
<feFlood flood-opacity="0" result="BackgroundImageFix"/>
<feGaussianBlur in="BackgroundImageFix" stdDeviation="40"/>
<feComposite in2="SourceAlpha" operator="in" result="effect1_backgroundBlur_1348_10427"/>
<feColorMatrix in="SourceAlpha" type="matrix" values="0 0 0 0 0 0 0 0 0 0 0 0 0 0 0 0 0 0 127 0" result="hardAlpha"/>
<feOffset/>
<feGaussianBlur stdDeviation="17.5"/>
<feColorMatrix type="matrix" values="0 0 0 0 0 0 0 0 0 0 0 0 0 0 0 0 0 0 0.25 0"/>
<feBlend mode="normal" in2="effect1_backgroundBlur_1348_10427" result="effect2_dropShadow_1348_10427"/>
<feBlend mode="normal" in="SourceGraphic" in2="effect2_dropShadow_1348_10427" result="shape"/>
</filter>
<linearGradient id="paint0_linear_1348_10427" x1="33.7088" y1="29.9247" x2="130.571" y2="34.2642" gradientUnits="userSpaceOnUse">
<stop offset="0.0172482" stop-color="white" stop-opacity="0.11"/>
<stop offset="0.515625" stop-color="white"/>
<stop offset="1" stop-color="white" stop-opacity="0"/>
</linearGradient>
</defs>
</svg>
