<svg width="162" height="108" viewBox="0 0 162 108" fill="none" xmlns="http://www.w3.org/2000/svg">
<g filter="url(#filter0_bd_1348_10434)">
<path d="M35 35.0331V60.8875C35 67.2359 42.5347 72.3824 51.8293 72.3824H126.952C126.978 72.3824 127 72.3675 127 72.3493V46.4949C127 40.1464 119.465 35 110.171 35H35.0484C35.0217 35 35 35.0148 35 35.0331Z" fill="#389989"/>
<path d="M35.5 60.8875V35.5H110.171C114.731 35.5 118.837 36.7633 121.789 38.7796C124.743 40.7977 126.5 43.5342 126.5 46.4949V71.8824H51.8293C47.2694 71.8824 43.1633 70.6191 40.2112 68.6027C37.2566 66.5846 35.5 63.8482 35.5 60.8875Z" stroke="url(#paint0_linear_1348_10434)"/>
</g>
<defs>
<filter id="filter0_bd_1348_10434" x="-45" y="-45" width="252" height="197.382" filterUnits="userSpaceOnUse" color-interpolation-filters="sRGB">
<feFlood flood-opacity="0" result="BackgroundImageFix"/>
<feGaussianBlur in="BackgroundImageFix" stdDeviation="40"/>
<feComposite in2="SourceAlpha" operator="in" result="effect1_backgroundBlur_1348_10434"/>
<feColorMatrix in="SourceAlpha" type="matrix" values="0 0 0 0 0 0 0 0 0 0 0 0 0 0 0 0 0 0 127 0" result="hardAlpha"/>
<feOffset/>
<feGaussianBlur stdDeviation="17.5"/>
<feColorMatrix type="matrix" values="0 0 0 0 0 0 0 0 0 0 0 0 0 0 0 0 0 0 0.25 0"/>
<feBlend mode="normal" in2="effect1_backgroundBlur_1348_10434" result="effect2_dropShadow_1348_10434"/>
<feBlend mode="normal" in="SourceGraphic" in2="effect2_dropShadow_1348_10434" result="shape"/>
</filter>
<linearGradient id="paint0_linear_1348_10434" x1="33.7088" y1="29.8751" x2="130.574" y2="34.1728" gradientUnits="userSpaceOnUse">
<stop offset="0.0172482" stop-color="white" stop-opacity="0.11"/>
<stop offset="0.515625" stop-color="white"/>
<stop offset="1" stop-color="white" stop-opacity="0"/>
</linearGradient>
</defs>
</svg>
