<svg width="2825" height="38" viewBox="0 0 2825 38" fill="none" xmlns="http://www.w3.org/2000/svg">
<path fill-rule="evenodd" clip-rule="evenodd" d="M589.259 1.99976C567.966 1.99976 551.658 8.84271 534.872 15.8868L533.889 16.2989C516.869 23.4403 499.595 30.6615 477.536 30.6615C467.828 30.6615 458.11 29.3002 448.02 26.3949L448.002 26.4563C438.72 23.7517 430.083 20.1343 421.509 16.5371L420.941 16.2989L420.94 16.2983C404.003 9.19218 387.427 2.23799 366.14 2.23799C344.847 2.23799 328.539 9.08115 311.753 16.1252L310.771 16.5371C293.75 23.6785 276.476 30.8998 254.417 30.8998C232.358 30.8998 215.084 23.6787 198.063 16.5371L197.496 16.2989L197.494 16.2983C180.556 9.19218 163.982 2.23799 142.694 2.23799C121.401 2.23799 105.094 9.08095 88.3071 16.125L88.1547 16.1891L87.3249 16.5371C70.3041 23.6785 53.0304 30.8998 30.9711 30.8998C21.2633 30.8998 11.5455 29.5386 1.45538 26.6332L0 31.5279C10.5465 34.5648 20.7539 35.9998 30.9711 35.9998C54.1523 35.9998 72.2883 28.3904 89.2206 21.286L90.1874 20.8803C107.086 13.7891 122.525 7.33799 142.694 7.33799C162.856 7.33799 178.56 13.8985 195.622 21.0571L196.168 21.286C213.1 28.3904 231.236 35.9998 254.417 35.9998C277.598 35.9998 295.734 28.3904 312.666 21.286L313.633 20.8805C330.532 13.7896 345.971 7.33799 366.14 7.33799C386.302 7.33799 402.005 13.8985 419.068 21.0571L419.613 21.286C436.546 28.3902 454.682 35.9998 477.863 35.9998C501.044 35.9998 519.18 28.3904 536.112 21.286L537.079 20.8803C553.978 13.7891 569.417 7.33799 589.586 7.33799V7.10038C609.591 7.17073 625.217 13.6989 642.187 20.8189L642.732 21.0478C659.665 28.1522 677.801 35.7615 700.982 35.7615C724.163 35.7615 742.299 28.152 759.231 21.0476L760.198 20.6421C777.097 13.5509 792.536 7.09976 812.705 7.09976C832.867 7.09976 848.57 13.6601 865.633 20.8189L866.134 21.0291C877.483 25.7908 889.413 30.7964 902.993 33.5689C910.697 35.2128 918.261 35.9998 925.828 35.9998C949.009 35.9998 967.145 28.3902 984.078 21.2858L985.044 20.8803C1001.94 13.7891 1017.38 7.33799 1037.55 7.33799C1057.71 7.33799 1073.42 13.8985 1090.48 21.0571L1090.89 21.2285L1091.02 21.286C1107.96 28.3904 1126.09 35.9998 1149.27 35.9998C1172.45 35.9998 1190.59 28.3902 1207.52 21.286L1208.49 20.8803C1225.39 13.7894 1240.83 7.33799 1261 7.33799C1281.16 7.33799 1296.86 13.8985 1313.92 21.0571L1314.47 21.2858C1331.4 28.3902 1349.54 35.9998 1372.72 35.9998C1395.9 35.9998 1414.04 28.3904 1430.97 21.286L1431.94 20.8803C1448.83 13.7891 1464.27 7.33799 1484.44 7.33799V7.10038C1504.45 7.17073 1520.07 13.6989 1537.04 20.8189L1537.59 21.0476C1554.52 28.152 1572.66 35.7615 1595.84 35.7615C1619.02 35.7615 1637.16 28.152 1654.09 21.0476L1655.05 20.6421C1671.95 13.5509 1687.39 7.09976 1707.56 7.09976C1727.72 7.09976 1743.43 13.6601 1760.49 20.8189L1760.9 20.9901L1761.03 21.0474C1769.82 24.7329 1778.93 28.5544 1788.89 31.3789L1788.85 31.5279C1799.4 34.5648 1809.6 35.9998 1819.82 35.9998C1843 35.9998 1861.14 28.3904 1878.07 21.2862L1879.04 20.8803C1895.94 13.7891 1911.37 7.33799 1931.54 7.33799C1951.71 7.33799 1967.41 13.8985 1984.47 21.0571L1984.88 21.2285L1985.02 21.2858C2001.95 28.3902 2020.09 35.9998 2043.27 35.9998C2066.45 35.9998 2084.58 28.3904 2101.52 21.2862L2102.48 20.8803C2119.38 13.7894 2134.82 7.33799 2154.99 7.33799C2175.15 7.33799 2190.85 13.8985 2207.92 21.0571L2208.46 21.286C2225.4 28.3904 2243.53 35.9998 2266.71 35.9998C2289.89 35.9998 2308.03 28.3904 2324.96 21.2862L2325.93 20.8803C2342.83 13.7891 2358.27 7.33799 2378.44 7.33799V7.10038C2398.44 7.17073 2414.07 13.6989 2431.04 20.8189L2431.58 21.0474L2431.58 21.048C2448.52 28.1522 2466.65 35.7615 2489.83 35.7615C2513.01 35.7615 2531.15 28.1522 2548.08 21.0478L2549.05 20.6421C2565.95 13.5509 2581.39 7.09976 2601.55 7.09976C2621.72 7.09976 2637.42 13.6601 2654.48 20.8189L2654.89 20.9903L2655.03 21.0476C2671.96 28.152 2690.1 35.7615 2713.28 35.7615C2736.46 35.7615 2754.59 28.1522 2771.53 21.0478L2772.49 20.6419C2789.39 13.5509 2804.83 7.09976 2825 7.09976V1.99976C2803.71 1.99976 2787.4 8.84271 2770.61 15.8868L2769.63 16.2989C2752.61 23.4403 2735.34 30.6615 2713.28 30.6615C2691.22 30.6615 2673.94 23.4403 2656.92 16.2987L2656.36 16.0607C2639.42 8.95415 2622.84 1.99976 2601.55 1.99976C2580.26 1.99976 2563.95 8.84292 2547.17 15.8872L2547.01 15.9507L2546.19 16.2989C2529.16 23.4403 2511.89 30.6615 2489.83 30.6615C2467.77 30.6615 2450.5 23.4403 2433.48 16.2989L2432.91 16.0609C2415.97 8.95436 2399.4 1.99976 2378.11 1.99976C2356.82 1.99976 2340.51 8.84271 2323.72 15.887L2322.74 16.2989C2305.72 23.4403 2288.44 30.6615 2266.39 30.6615C2256.68 30.6615 2246.96 29.3002 2236.87 26.3949L2236.85 26.4563C2227.57 23.7517 2218.93 20.1343 2210.36 16.5369L2209.95 16.3657L2209.79 16.2991C2192.85 9.19259 2176.28 2.23799 2154.99 2.23799C2133.7 2.23799 2117.39 9.08136 2100.6 16.1254L2099.62 16.5371C2082.6 23.6785 2065.33 30.8998 2043.27 30.8998C2021.21 30.8998 2003.93 23.6787 1986.91 16.5373L1986.5 16.3657L1986.35 16.2993C1969.41 9.19259 1952.83 2.23799 1931.54 2.23799C1931.36 2.23799 1931.19 2.23861 1931.01 2.23944V1.99976C1909.71 1.99976 1893.41 8.84271 1876.62 15.8868L1875.64 16.2989C1858.62 23.4403 1841.34 30.6615 1819.28 30.6615C1797.23 30.6615 1779.95 23.4403 1762.93 16.2987L1762.36 16.0607C1745.42 8.95415 1728.85 1.99976 1707.56 1.99976C1686.27 1.99976 1669.96 8.84271 1653.17 15.8868L1652.19 16.2989C1635.17 23.4403 1617.9 30.6615 1595.84 30.6615C1573.78 30.6615 1556.51 23.4403 1539.48 16.2989L1538.92 16.0607C1521.98 8.95415 1505.4 1.99976 1484.12 1.99976C1462.82 1.99976 1446.52 8.84271 1429.73 15.8868L1428.75 16.2989C1411.73 23.4403 1394.45 30.6615 1372.39 30.6615C1362.68 30.6615 1352.97 29.3002 1342.88 26.3949L1342.86 26.4566C1333.58 23.7517 1324.94 20.1343 1316.37 16.5371L1315.8 16.2989C1298.86 9.19238 1282.29 2.23799 1261 2.23799C1239.7 2.23799 1223.4 9.08095 1206.61 16.125L1205.63 16.5371C1188.61 23.6785 1171.33 30.8998 1149.27 30.8998C1127.21 30.8998 1109.94 23.6787 1092.92 16.5371L1092.35 16.2989C1075.41 9.19238 1058.84 2.23799 1037.55 2.23799C1037.08 2.23799 1036.61 2.24152 1036.15 2.24795V1.99976C1014.86 1.99976 998.551 8.8425 981.764 15.8865L980.781 16.2989C963.76 23.4403 946.487 30.6615 924.427 30.6615C917.176 30.6615 910.44 29.8794 904.067 28.5795C901.504 28.032 898.921 27.3844 896.312 26.6332L896.29 26.7077C886.345 23.9599 877.186 20.1222 868.074 16.2989L867.506 16.0607C850.568 8.95415 833.993 1.99976 812.705 1.99976C791.411 1.99976 775.104 8.84271 758.317 15.887L758.165 15.9507L757.335 16.2989C740.315 23.4403 723.041 30.6615 700.982 30.6615C678.922 30.6615 661.649 23.4403 644.628 16.2989L644.06 16.0607C627.122 8.95415 610.547 1.99976 589.259 1.99976Z" fill="#10312D"/>
<mask id="path-2-inside-1_806_73473" fill="white">
<path d="M0 33.5605C10.3122 36.5792 20.2689 37.9998 30.2255 37.9998C52.8634 37.9998 70.5754 30.4446 87.5614 23.1992L87.8317 23.0839L88.3908 22.8454C105.25 15.653 121.131 8.87826 141.882 8.87826C162.628 8.87826 178.776 15.7662 195.794 23.025L195.932 23.0839L196.203 23.1992C213.189 30.4446 230.901 37.9998 253.538 37.9998C276.176 37.9998 293.888 30.4446 310.874 23.1991L311.145 23.0839L311.704 22.8454C328.563 15.653 344.444 8.87826 365.195 8.87826C385.941 8.87826 402.089 15.7662 419.107 23.025L419.245 23.0839L419.515 23.1991C436.501 30.4446 454.214 37.9998 476.851 37.9998C499.489 37.9998 517.201 30.4447 534.187 23.1992L534.458 23.0839L535.017 22.8453C551.877 15.653 567.757 8.87826 588.508 8.87826C609.254 8.87826 625.402 15.7662 642.42 23.025L642.558 23.0839L642.828 23.1991C659.815 30.4446 677.527 37.9998 700.164 37.9998L700.342 37.9996L700.52 37.9998C723.158 37.9998 740.87 30.4446 757.856 23.1992L758.126 23.0839L758.685 22.8453C775.545 15.653 791.426 8.87826 812.176 8.87826C832.923 8.87826 849.071 15.7662 866.089 23.025L866.227 23.0839L866.497 23.1992C883.483 30.4447 901.195 37.9998 923.833 37.9998C946.471 37.9998 964.183 30.4446 981.169 23.1991L981.439 23.0839L981.998 22.8454C998.858 15.653 1014.74 8.87826 1035.49 8.87826C1033.8 8.79187 1037.24 -0.000244141 1035.49 -0.000244141C1012.85 -0.000244141 995.14 7.55489 978.154 14.8004L977.883 14.9156L977.324 15.1541C960.465 22.3465 944.584 29.1213 923.833 29.1213C903.087 29.1213 886.939 22.2334 869.921 14.9746L869.783 14.9156L869.512 14.8004C852.526 7.55489 834.814 -0.000244141 812.176 -0.000244141C789.539 -0.000244141 771.827 7.55486 754.841 14.8003L754.57 14.9156L754.011 15.1541C737.151 22.3465 721.271 29.1213 700.52 29.1213L700.336 29.1211L700.164 29.1213C679.418 29.1213 663.27 22.2333 646.252 14.9745L646.114 14.9156L645.844 14.8004C628.858 7.55489 611.146 -0.000244141 588.508 -0.000244141C565.87 -0.000244141 548.158 7.55486 531.172 14.8003L530.902 14.9156L530.343 15.1542C513.483 22.3465 497.602 29.1213 476.851 29.1213C456.105 29.1213 439.957 22.2333 422.939 14.9745L422.801 14.9156L422.531 14.8004C405.545 7.55489 387.833 -0.000244141 365.195 -0.000244141C342.557 -0.000244141 324.845 7.55491 307.859 14.8004L307.589 14.9156L307.03 15.1541C290.17 22.3465 274.289 29.1213 253.538 29.1213C232.792 29.1213 216.644 22.2333 199.626 14.9745L199.488 14.9156L199.218 14.8004C182.232 7.55489 164.52 -0.000244141 141.882 -0.000244141C119.244 -0.000244141 101.532 7.55488 84.5461 14.8003L84.2758 14.9156L83.7167 15.1541C66.857 22.3465 50.9763 29.1213 30.2255 29.1213C21.1578 29.1213 12.0902 27.8783 2.48916 25.0371L0 33.5605Z"/>
</mask>
<path d="M0 33.5605C10.3122 36.5792 20.2689 37.9998 30.2255 37.9998C52.8634 37.9998 70.5754 30.4446 87.5614 23.1992L87.8317 23.0839L88.3908 22.8454C105.25 15.653 121.131 8.87826 141.882 8.87826C162.628 8.87826 178.776 15.7662 195.794 23.025L195.932 23.0839L196.203 23.1992C213.189 30.4446 230.901 37.9998 253.538 37.9998C276.176 37.9998 293.888 30.4446 310.874 23.1991L311.145 23.0839L311.704 22.8454C328.563 15.653 344.444 8.87826 365.195 8.87826C385.941 8.87826 402.089 15.7662 419.107 23.025L419.245 23.0839L419.515 23.1991C436.501 30.4446 454.214 37.9998 476.851 37.9998C499.489 37.9998 517.201 30.4447 534.187 23.1992L534.458 23.0839L535.017 22.8453C551.877 15.653 567.757 8.87826 588.508 8.87826C609.254 8.87826 625.402 15.7662 642.42 23.025L642.558 23.0839L642.828 23.1991C659.815 30.4446 677.527 37.9998 700.164 37.9998L700.342 37.9996L700.52 37.9998C723.158 37.9998 740.87 30.4446 757.856 23.1992L758.126 23.0839L758.685 22.8453C775.545 15.653 791.426 8.87826 812.176 8.87826C832.923 8.87826 849.071 15.7662 866.089 23.025L866.227 23.0839L866.497 23.1992C883.483 30.4447 901.195 37.9998 923.833 37.9998C946.471 37.9998 964.183 30.4446 981.169 23.1991L981.439 23.0839L981.998 22.8454C998.858 15.653 1014.74 8.87826 1035.49 8.87826C1033.8 8.79187 1037.24 -0.000244141 1035.49 -0.000244141C1012.85 -0.000244141 995.14 7.55489 978.154 14.8004L977.883 14.9156L977.324 15.1541C960.465 22.3465 944.584 29.1213 923.833 29.1213C903.087 29.1213 886.939 22.2334 869.921 14.9746L869.783 14.9156L869.512 14.8004C852.526 7.55489 834.814 -0.000244141 812.176 -0.000244141C789.539 -0.000244141 771.827 7.55486 754.841 14.8003L754.57 14.9156L754.011 15.1541C737.151 22.3465 721.271 29.1213 700.52 29.1213L700.336 29.1211L700.164 29.1213C679.418 29.1213 663.27 22.2333 646.252 14.9745L646.114 14.9156L645.844 14.8004C628.858 7.55489 611.146 -0.000244141 588.508 -0.000244141C565.87 -0.000244141 548.158 7.55486 531.172 14.8003L530.902 14.9156L530.343 15.1542C513.483 22.3465 497.602 29.1213 476.851 29.1213C456.105 29.1213 439.957 22.2333 422.939 14.9745L422.801 14.9156L422.531 14.8004C405.545 7.55489 387.833 -0.000244141 365.195 -0.000244141C342.557 -0.000244141 324.845 7.55491 307.859 14.8004L307.589 14.9156L307.03 15.1541C290.17 22.3465 274.289 29.1213 253.538 29.1213C232.792 29.1213 216.644 22.2333 199.626 14.9745L199.488 14.9156L199.218 14.8004C182.232 7.55489 164.52 -0.000244141 141.882 -0.000244141C119.244 -0.000244141 101.532 7.55488 84.5461 14.8003L84.2758 14.9156L83.7167 15.1541C66.857 22.3465 50.9763 29.1213 30.2255 29.1213C21.1578 29.1213 12.0902 27.8783 2.48916 25.0371L0 33.5605Z" fill="#389989"/>
<path d="M700.342 37.9996L700.341 38.4996L700.343 38.4996L700.342 37.9996ZM700.336 29.1211L700.336 29.6211L700.337 29.6211L700.336 29.1211ZM672.642 25.5166C682.224 28.3521 691.281 29.6043 700.336 29.6211L700.337 28.6211C691.379 28.6045 682.416 27.3661 672.926 24.5577L672.642 25.5166ZM700.337 29.6211C709.401 29.6031 718.46 28.1752 728.034 25.5189L727.767 24.5553C718.261 27.1925 709.293 28.6033 700.335 28.6211L700.337 29.6211ZM700.343 37.4996C690.495 37.4829 680.642 36.0686 670.435 33.0806L670.154 34.0404C680.449 37.0539 690.395 38.4827 700.341 38.4996L700.343 37.4996ZM730.252 33.08C719.865 36.0689 710.187 37.4829 700.341 37.4996L700.343 38.4996C710.288 38.4827 720.06 37.0536 730.528 34.041L730.252 33.08ZM0 33.5605L-0.959904 33.2802L-1.24005 34.2395L-0.28094 34.5202L0 33.5605ZM2.48916 25.0371L2.77291 24.0782L1.81059 23.7935L1.52925 24.7568L2.48916 25.0371ZM1035.49 8.87826V9.87826L1035.54 7.87957L1035.49 8.87826ZM642.828 23.1991L643.221 22.2793V22.2793L642.828 23.1991ZM700.164 37.9998V38.9998H700.165L700.164 37.9998ZM700.342 37.9996L700.343 36.9996H700.341L700.342 37.9996ZM700.52 37.9998L700.519 38.9998H700.52V37.9998ZM757.856 23.1992L757.464 22.2793V22.2793L757.856 23.1992ZM758.126 23.0839L758.519 24.0037L758.519 24.0037L758.126 23.0839ZM758.685 22.8453L759.078 23.7651V23.7651L758.685 22.8453ZM866.089 23.025L865.696 23.9448L865.696 23.9448L866.089 23.025ZM866.227 23.0839L866.619 22.164L866.619 22.164L866.227 23.0839ZM866.497 23.1992L866.89 22.2794V22.2794L866.497 23.1992ZM981.169 23.1991L980.777 22.2793V22.2793L981.169 23.1991ZM981.439 23.0839L981.832 24.0037L981.832 24.0037L981.439 23.0839ZM981.998 22.8454L982.391 23.7653V23.7652L981.998 22.8454ZM978.154 14.8004L978.546 15.7202V15.7202L978.154 14.8004ZM977.883 14.9156L977.491 13.9958V13.9958L977.883 14.9156ZM977.324 15.1541L976.932 14.2342L976.932 14.2343L977.324 15.1541ZM869.921 14.9746L869.529 15.8944L869.529 15.8944L869.921 14.9746ZM869.783 14.9156L870.175 13.9958L870.175 13.9958L869.783 14.9156ZM869.512 14.8004L869.12 15.7202V15.7202L869.512 14.8004ZM754.841 14.8003L755.233 15.7201V15.7201L754.841 14.8003ZM754.57 14.9156L754.178 13.9958L754.178 13.9958L754.57 14.9156ZM754.011 15.1541L753.619 14.2343V14.2343L754.011 15.1541ZM700.52 29.1213L700.519 30.1213H700.52V29.1213ZM700.336 29.1211L700.337 28.1211L700.335 28.1211L700.336 29.1211ZM700.164 29.1213V30.1213H700.165L700.164 29.1213ZM646.252 14.9745L646.645 14.0547L646.645 14.0547L646.252 14.9745ZM646.114 14.9156L645.722 15.8355L645.722 15.8355L646.114 14.9156ZM645.844 14.8004L645.452 15.7202V15.7202L645.844 14.8004ZM531.172 14.8003L531.564 15.7201V15.7201L531.172 14.8003ZM530.902 14.9156L530.509 13.9958V13.9958L530.902 14.9156ZM530.343 15.1542L529.95 14.2344L529.95 14.2344L530.343 15.1542ZM422.939 14.9745L423.331 14.0546L423.331 14.0546L422.939 14.9745ZM422.801 14.9156L422.409 15.8355L422.409 15.8355L422.801 14.9156ZM422.531 14.8004L422.139 15.7202L422.139 15.7202L422.531 14.8004ZM307.859 14.8004L308.251 15.7202L308.251 15.7202L307.859 14.8004ZM307.589 14.9156L307.196 13.9958L307.196 13.9958L307.589 14.9156ZM307.03 15.1541L306.637 14.2343L306.637 14.2343L307.03 15.1541ZM199.626 14.9745L199.234 15.8943L199.234 15.8943L199.626 14.9745ZM199.488 14.9156L199.881 13.9958L199.881 13.9958L199.488 14.9156ZM199.218 14.8004L198.826 15.7202V15.7202L199.218 14.8004ZM84.5461 14.8003L84.9384 15.7202V15.7202L84.5461 14.8003ZM84.2758 14.9156L83.8834 13.9958L83.8834 13.9958L84.2758 14.9156ZM83.7167 15.1541L83.3243 14.2343L83.3243 14.2343L83.7167 15.1541ZM87.5614 23.1992L87.9538 24.119H87.9538L87.5614 23.1992ZM87.8317 23.0839L88.2241 24.0037L88.2241 24.0037L87.8317 23.0839ZM88.3908 22.8454L88.7832 23.7652L88.7832 23.7652L88.3908 22.8454ZM195.794 23.025L195.402 23.9448L195.402 23.9448L195.794 23.025ZM195.932 23.0839L196.325 22.1641L196.325 22.164L195.932 23.0839ZM196.203 23.1992L196.595 22.2794L196.595 22.2794L196.203 23.1992ZM310.874 23.1991L311.267 24.1189V24.1189L310.874 23.1991ZM311.145 23.0839L311.537 24.0037L311.145 23.0839ZM311.704 22.8454L312.096 23.7652L312.096 23.7652L311.704 22.8454ZM419.107 23.025L419.5 22.1052L419.5 22.1052L419.107 23.025ZM419.245 23.0839L418.853 24.0037L418.853 24.0037L419.245 23.0839ZM419.515 23.1991L419.123 24.1189V24.1189L419.515 23.1991ZM534.187 23.1992L534.58 24.119L534.58 24.119L534.187 23.1992ZM534.458 23.0839L534.065 22.1641L534.065 22.1641L534.458 23.0839ZM535.017 22.8453L535.409 23.7652L535.409 23.7651L535.017 22.8453ZM642.42 23.025L642.812 22.1052L642.812 22.1052L642.42 23.025ZM642.558 23.0839L642.166 24.0037L642.166 24.0037L642.558 23.0839ZM30.2255 36.9998C20.3672 36.9998 10.5051 35.5937 0.28094 32.6008L-0.28094 34.5202C10.1194 37.5647 20.1705 38.9998 30.2255 38.9998V36.9998ZM0.959904 33.8408L3.44906 25.3175L1.52925 24.7568L-0.959904 33.2802L0.959904 33.8408ZM2.2054 25.996C11.8987 28.8645 21.0619 30.1213 30.2255 30.1213V28.1213C21.2538 28.1213 12.2817 26.8921 2.77291 24.0782L2.2054 25.996ZM1035.49 0.999756C1035.37 0.999756 1035.21 0.95332 1035.09 0.840117C1034.98 0.74634 1034.96 0.662238 1034.97 0.6808C1034.99 0.737181 1035.01 0.926561 1034.99 1.31422C1034.95 2.05934 1034.75 3.08741 1034.53 4.21565C1034.32 5.29568 1034.09 6.4736 1034.02 7.38625C1033.99 7.82938 1033.99 8.32422 1034.11 8.7472C1034.18 8.9661 1034.29 9.23687 1034.52 9.46607C1034.77 9.71722 1035.09 9.85907 1035.44 9.87696L1035.54 7.87957C1035.68 7.88666 1035.83 7.9497 1035.94 8.06256C1036.03 8.15348 1036.05 8.2265 1036.04 8.19673C1036.02 8.12235 1035.99 7.91613 1036.02 7.52285C1036.07 6.76268 1036.27 5.72637 1036.49 4.59757C1036.7 3.51699 1036.93 2.34163 1036.99 1.43552C1037.01 0.997576 1037.01 0.499397 1036.87 0.0746211C1036.8 -0.147395 1036.68 -0.420474 1036.43 -0.643084C1036.16 -0.88512 1035.83 -1.00024 1035.49 -1.00024V0.999756ZM642.436 24.119C659.413 31.3604 677.298 38.9998 700.164 38.9998V36.9998C677.755 36.9998 660.216 29.5289 643.221 22.2793L642.436 24.119ZM700.165 38.9998L700.343 38.9996L700.341 36.9996L700.164 36.9998L700.165 38.9998ZM700.341 38.9996L700.519 38.9998L700.521 36.9998L700.343 36.9996L700.341 38.9996ZM700.52 38.9998C723.387 38.9998 741.272 31.3604 758.248 24.119L757.464 22.2793C740.468 29.5289 722.929 36.9998 700.52 36.9998V38.9998ZM758.248 24.119L758.519 24.0037L757.734 22.1641L757.464 22.2793L758.248 24.119ZM758.519 24.0037L759.078 23.7651L758.293 21.9255L757.734 22.1641L758.519 24.0037ZM759.078 23.7651C775.949 16.568 791.655 9.87826 812.176 9.87826V7.87826C791.196 7.87826 775.141 14.738 758.293 21.9255L759.078 23.7651ZM812.176 9.87826C832.692 9.87826 848.665 16.6803 865.696 23.9448L866.481 22.1052C849.477 14.8521 833.153 7.87826 812.176 7.87826V9.87826ZM865.696 23.9448L865.834 24.0037L866.619 22.164L866.481 22.1051L865.696 23.9448ZM865.834 24.0037L866.105 24.1191L866.89 22.2794L866.619 22.164L865.834 24.0037ZM866.105 24.1191C883.081 31.3604 900.966 38.9998 923.833 38.9998V36.9998C901.424 36.9998 883.885 29.5289 866.89 22.2794L866.105 24.1191ZM923.833 38.9998C946.699 38.9998 964.585 31.3604 981.561 24.119L980.777 22.2793C963.781 29.5289 946.242 36.9998 923.833 36.9998V38.9998ZM981.561 24.119L981.832 24.0037L981.047 22.164L980.777 22.2793L981.561 24.119ZM981.832 24.0037L982.391 23.7653L981.606 21.9256L981.047 22.1641L981.832 24.0037ZM982.391 23.7652C999.262 16.568 1014.97 9.87826 1035.49 9.87826V7.87826C1014.51 7.87826 998.454 14.7381 981.606 21.9256L982.391 23.7652ZM1035.49 -1.00024C1012.62 -1.00024 994.738 6.63914 977.761 13.8805L978.546 15.7202C995.542 8.47064 1013.08 0.999756 1035.49 0.999756V-1.00024ZM977.761 13.8805L977.491 13.9958L978.276 15.8355L978.546 15.7202L977.761 13.8805ZM977.491 13.9958L976.932 14.2342L977.717 16.0739L978.276 15.8355L977.491 13.9958ZM976.932 14.2343C960.061 21.4315 944.354 28.1213 923.833 28.1213V30.1213C944.813 30.1213 960.868 23.2614 977.717 16.0739L976.932 14.2343ZM923.833 28.1213C903.317 28.1213 887.344 21.3193 870.313 14.0548L869.529 15.8944C886.533 23.1475 902.857 30.1213 923.833 30.1213V28.1213ZM870.313 14.0548L870.175 13.9958L869.39 15.8354L869.529 15.8944L870.313 14.0548ZM870.175 13.9958L869.905 13.8805L869.12 15.7202L869.39 15.8355L870.175 13.9958ZM869.905 13.8805C852.928 6.63914 835.043 -1.00024 812.176 -1.00024V0.999756C834.586 0.999756 852.124 8.47064 869.12 15.7202L869.905 13.8805ZM812.176 -1.00024C789.31 -1.00024 771.425 6.63911 754.448 13.8805L755.233 15.7201C772.229 8.4706 789.767 0.999756 812.176 0.999756V-1.00024ZM754.448 13.8805L754.178 13.9958L754.963 15.8355L755.233 15.7201L754.448 13.8805ZM754.178 13.9958L753.619 14.2343L754.404 16.0739L754.963 15.8354L754.178 13.9958ZM753.619 14.2343C736.748 21.4315 721.041 28.1213 700.52 28.1213V30.1213C721.5 30.1213 737.555 23.2615 754.404 16.0739L753.619 14.2343ZM700.521 28.1213L700.337 28.1211L700.336 30.1211L700.519 30.1213L700.521 28.1213ZM700.335 28.1211L700.163 28.1213L700.165 30.1213L700.337 30.1211L700.335 28.1211ZM700.164 28.1213C679.649 28.1213 663.676 21.3192 646.645 14.0547L645.86 15.8944C662.864 23.1474 679.188 30.1213 700.164 30.1213V28.1213ZM646.645 14.0547L646.506 13.9958L645.722 15.8355L645.86 15.8944L646.645 14.0547ZM646.506 13.9958L646.236 13.8805L645.452 15.7202L645.722 15.8355L646.506 13.9958ZM646.236 13.8805C629.26 6.63914 611.374 -1.00024 588.508 -1.00024V0.999756C610.917 0.999756 628.456 8.47064 645.452 15.7202L646.236 13.8805ZM588.508 -1.00024C565.641 -1.00024 547.756 6.63911 530.78 13.8805L531.564 15.7201C548.56 8.4706 566.099 0.999756 588.508 0.999756V-1.00024ZM530.78 13.8805L530.509 13.9958L531.294 15.8355L531.564 15.7201L530.78 13.8805ZM530.509 13.9958L529.95 14.2344L530.735 16.074L531.294 15.8355L530.509 13.9958ZM529.95 14.2344C513.079 21.4316 497.373 28.1213 476.851 28.1213V30.1213C497.832 30.1213 513.887 23.2615 530.735 16.074L529.95 14.2344ZM476.851 28.1213C456.336 28.1213 440.363 21.3192 423.331 14.0546L422.547 15.8943C439.551 23.1474 455.875 30.1213 476.851 30.1213V28.1213ZM423.331 14.0546L423.193 13.9958L422.409 15.8355L422.547 15.8943L423.331 14.0546ZM423.193 13.9958L422.923 13.8805L422.139 15.7202L422.409 15.8355L423.193 13.9958ZM422.923 13.8805C405.947 6.63914 388.061 -1.00024 365.195 -1.00024V0.999756C387.604 0.999756 405.143 8.47064 422.139 15.7202L422.923 13.8805ZM365.195 -1.00024C342.328 -1.00024 324.443 6.63916 307.467 13.8806L308.251 15.7202C325.247 8.47066 342.786 0.999756 365.195 0.999756V-1.00024ZM307.467 13.8806L307.196 13.9958L307.981 15.8355L308.251 15.7202L307.467 13.8806ZM307.196 13.9958L306.637 14.2343L307.422 16.0739L307.981 15.8354L307.196 13.9958ZM306.637 14.2343C289.766 21.4315 274.06 28.1213 253.538 28.1213V30.1213C274.519 30.1213 290.574 23.2615 307.422 16.0739L306.637 14.2343ZM253.538 28.1213C233.023 28.1213 217.05 21.3192 200.019 14.0547L199.234 15.8943C216.238 23.1474 232.562 30.1213 253.538 30.1213V28.1213ZM200.019 14.0547L199.881 13.9958L199.096 15.8354L199.234 15.8943L200.019 14.0547ZM199.881 13.9958L199.61 13.8805L198.826 15.7202L199.096 15.8355L199.881 13.9958ZM199.61 13.8805C182.634 6.63914 164.749 -1.00024 141.882 -1.00024V0.999756C164.291 0.999756 181.83 8.47064 198.826 15.7202L199.61 13.8805ZM141.882 -1.00024C119.015 -1.00024 101.13 6.63913 84.1537 13.8805L84.9384 15.7202C101.934 8.47063 119.473 0.999756 141.882 0.999756V-1.00024ZM84.1537 13.8805L83.8834 13.9958L84.6681 15.8355L84.9384 15.7202L84.1537 13.8805ZM83.8834 13.9958L83.3243 14.2343L84.1091 16.0739L84.6681 15.8354L83.8834 13.9958ZM83.3243 14.2343C66.4533 21.4315 50.7469 28.1213 30.2255 28.1213V30.1213C51.2057 30.1213 67.2607 23.2615 84.1091 16.0739L83.3243 14.2343ZM30.2255 38.9998C53.092 38.9998 70.9773 31.3604 87.9538 24.119L87.1691 22.2793C70.1735 29.5289 52.6348 36.9998 30.2255 36.9998V38.9998ZM87.9538 24.119L88.2241 24.0037L87.4393 22.1641L87.1691 22.2793L87.9538 24.119ZM88.2241 24.0037L88.7832 23.7652L87.9984 21.9256L87.4393 22.1641L88.2241 24.0037ZM88.7832 23.7652C105.654 16.568 121.361 9.87826 141.882 9.87826V7.87826C120.902 7.87826 104.847 14.738 87.9984 21.9256L88.7832 23.7652ZM141.882 9.87826C162.398 9.87826 178.371 16.6803 195.402 23.9448L196.187 22.1052C179.182 14.8521 162.858 7.87826 141.882 7.87826V9.87826ZM195.402 23.9448L195.54 24.0037L196.325 22.164L196.187 22.1052L195.402 23.9448ZM195.54 24.0037L195.81 24.119L196.595 22.2794L196.325 22.1641L195.54 24.0037ZM195.81 24.119C212.787 31.3604 230.672 38.9998 253.538 38.9998V36.9998C231.129 36.9998 213.59 29.5289 196.595 22.2794L195.81 24.119ZM253.538 38.9998C276.405 38.9998 294.29 31.3603 311.267 24.1189L310.482 22.2793C293.487 29.5289 275.948 36.9998 253.538 36.9998V38.9998ZM311.267 24.1189L311.537 24.0037L310.752 22.1641L310.482 22.2793L311.267 24.1189ZM311.537 24.0037L312.096 23.7652L311.311 21.9256L310.752 22.1641L311.537 24.0037ZM312.096 23.7652C328.967 16.568 344.673 9.87826 365.195 9.87826V7.87826C344.215 7.87826 328.16 14.738 311.311 21.9256L312.096 23.7652ZM365.195 9.87826C385.711 9.87826 401.684 16.6803 418.715 23.9448L419.5 22.1052C402.495 14.8521 386.171 7.87826 365.195 7.87826V9.87826ZM418.715 23.9448L418.853 24.0037L419.638 22.1641L419.5 22.1052L418.715 23.9448ZM418.853 24.0037L419.123 24.1189L419.908 22.2793L419.638 22.1641L418.853 24.0037ZM419.123 24.1189C436.099 31.3603 453.985 38.9998 476.851 38.9998V36.9998C454.442 36.9998 436.903 29.5288 419.908 22.2793L419.123 24.1189ZM476.851 38.9998C499.718 38.9998 517.603 31.3604 534.58 24.119L533.795 22.2794C516.799 29.5289 499.261 36.9998 476.851 36.9998V38.9998ZM534.58 24.119L534.85 24.0037L534.065 22.1641L533.795 22.2794L534.58 24.119ZM534.85 24.0037L535.409 23.7652L534.625 21.9255L534.065 22.1641L534.85 24.0037ZM535.409 23.7651C552.28 16.568 567.987 9.87826 588.508 9.87826V7.87826C567.528 7.87826 551.473 14.738 534.624 21.9255L535.409 23.7651ZM588.508 9.87826C609.024 9.87826 624.997 16.6803 642.028 23.9448L642.812 22.1052C625.808 14.8521 609.484 7.87826 588.508 7.87826V9.87826ZM642.028 23.9448L642.166 24.0037L642.951 22.1641L642.812 22.1052L642.028 23.9448ZM642.166 24.0037L642.436 24.119L643.221 22.2793L642.951 22.164L642.166 24.0037Z" fill="#020C0C" mask="url(#path-2-inside-1_806_73473)"/>
</svg>
