<svg width="25" height="25" viewBox="0 0 25 25" fill="none" xmlns="http://www.w3.org/2000/svg">
<g clip-path="url(#clip0_1009_14140)">
<path d="M12.5 0.904297C5.87264 0.904297 0.5 6.27694 0.5 12.9043C0.5 18.5318 4.37456 23.2541 9.60128 24.551V16.5715H7.12688V12.9043H9.60128V11.3241C9.60128 7.23982 11.4498 5.3467 15.4597 5.3467C16.22 5.3467 17.5318 5.49598 18.0685 5.64478V8.96878C17.7853 8.93902 17.2933 8.92414 16.6822 8.92414C14.7147 8.92414 13.9544 9.66958 13.9544 11.6073V12.9043H17.8741L17.2006 16.5715H13.9544V24.8165C19.8963 24.0989 24.5005 19.0397 24.5005 12.9043C24.5 6.27694 19.1274 0.904297 12.5 0.904297Z" fill="white"/>
</g>
<defs>
<clipPath id="clip0_1009_14140">
<rect width="24" height="24" fill="white" transform="translate(0.5 0.904297)"/>
</clipPath>
</defs>
</svg>
