<svg width="25" height="25" viewBox="0 0 25 25" fill="none" xmlns="http://www.w3.org/2000/svg">
<g clip-path="url(#clip0_1009_14148)">
<path d="M17.5725 0.904297H13.5278V17.2521C13.5278 19.2 11.9722 20.8 10.0363 20.8C8.10034 20.8 6.54469 19.2 6.54469 17.2521C6.54469 15.3391 8.06577 13.7738 9.93257 13.7043V9.59996C5.81872 9.6695 2.5 13.0434 2.5 17.2521C2.5 21.4956 5.88786 24.9043 10.0708 24.9043C14.2538 24.9043 17.6416 21.4608 17.6416 17.2521V8.8695C19.1627 9.98256 21.0295 10.6434 23 10.6782V6.57386C19.9579 6.46952 17.5725 3.96516 17.5725 0.904297Z" fill="white"/>
</g>
<defs>
<clipPath id="clip0_1009_14148">
<rect width="24" height="24" fill="white" transform="translate(0.5 0.904297)"/>
</clipPath>
</defs>
</svg>
