<svg width="25" height="25" viewBox="0 0 25 25" fill="none" xmlns="http://www.w3.org/2000/svg">
<g clip-path="url(#clip0_1009_14145)">
<path d="M20.817 5.05987C19.2873 4.35799 17.647 3.84087 15.9319 3.5447C15.9007 3.53898 15.8695 3.55327 15.8534 3.58184C15.6424 3.95705 15.4087 4.44655 15.2451 4.8313C13.4004 4.55513 11.5652 4.55513 9.75832 4.8313C9.59465 4.438 9.35248 3.95705 9.14057 3.58184C9.12449 3.55422 9.09328 3.53994 9.06205 3.5447C7.34791 3.83993 5.70756 4.35704 4.17693 5.05987C4.16368 5.06558 4.15233 5.07512 4.14479 5.08749C1.03339 9.73585 0.18105 14.27 0.59918 18.7478C0.601072 18.7698 0.61337 18.7907 0.630398 18.804C2.68321 20.3116 4.67171 21.2268 6.62328 21.8334C6.65451 21.8429 6.68761 21.8315 6.70748 21.8058C7.16913 21.1754 7.58064 20.5106 7.93348 19.8116C7.9543 19.7707 7.93442 19.7221 7.89186 19.7059C7.23913 19.4583 6.6176 19.1564 6.01973 18.8136C5.97244 18.7859 5.96865 18.7183 6.01216 18.6859C6.13797 18.5916 6.26382 18.4936 6.38396 18.3945C6.40569 18.3764 6.43598 18.3726 6.46153 18.384C10.3893 20.1773 14.6415 20.1773 18.523 18.384C18.5485 18.3717 18.5788 18.3755 18.6015 18.3936C18.7216 18.4926 18.8475 18.5916 18.9742 18.6859C19.0177 18.7183 19.0149 18.7859 18.9676 18.8136C18.3697 19.163 17.7482 19.4583 17.0945 19.7049C17.052 19.7211 17.033 19.7707 17.0538 19.8116C17.4143 20.5097 17.8258 21.1744 18.2789 21.8048C18.2978 21.8315 18.3319 21.8429 18.3631 21.8334C20.3241 21.2268 22.3126 20.3116 24.3654 18.804C24.3834 18.7907 24.3948 18.7707 24.3967 18.7488C24.8971 13.5719 23.5585 9.07493 20.8482 5.08843C20.8416 5.07512 20.8303 5.06558 20.817 5.05987ZM8.52002 16.0213C7.3375 16.0213 6.36313 14.9356 6.36313 13.6023C6.36313 12.2691 7.3186 11.1834 8.52002 11.1834C9.73087 11.1834 10.6958 12.2786 10.6769 13.6023C10.6769 14.9356 9.72141 16.0213 8.52002 16.0213ZM16.4947 16.0213C15.3123 16.0213 14.3379 14.9356 14.3379 13.6023C14.3379 12.2691 15.2933 11.1834 16.4947 11.1834C17.7056 11.1834 18.6705 12.2786 18.6516 13.6023C18.6516 14.9356 17.7056 16.0213 16.4947 16.0213Z" fill="white"/>
</g>
<defs>
<clipPath id="clip0_1009_14145">
<rect width="24" height="24" fill="white" transform="translate(0.5 0.904297)"/>
</clipPath>
</defs>
</svg>
