<svg width="25" height="25" viewBox="0 0 25 25" fill="none" xmlns="http://www.w3.org/2000/svg">
<g clip-path="url(#clip0_1009_14135)">
<path d="M12.5 3.06523C15.7063 3.06523 16.0859 3.0793 17.3469 3.13555C18.5188 3.18711 19.1516 3.38398 19.5734 3.54805C20.1313 3.76367 20.5344 4.02617 20.9516 4.44336C21.3734 4.86523 21.6313 5.26367 21.8469 5.82148C22.0109 6.24336 22.2078 6.88086 22.2594 8.04805C22.3156 9.31367 22.3297 9.69336 22.3297 12.8949C22.3297 16.1012 22.3156 16.4809 22.2594 17.7418C22.2078 18.9137 22.0109 19.5465 21.8469 19.9684C21.6313 20.5262 21.3687 20.9293 20.9516 21.3465C20.5297 21.7684 20.1313 22.0262 19.5734 22.2418C19.1516 22.4059 18.5141 22.6027 17.3469 22.6543C16.0813 22.7105 15.7016 22.7246 12.5 22.7246C9.29375 22.7246 8.91406 22.7105 7.65313 22.6543C6.48125 22.6027 5.84844 22.4059 5.42656 22.2418C4.86875 22.0262 4.46563 21.7637 4.04844 21.3465C3.62656 20.9246 3.36875 20.5262 3.15313 19.9684C2.98906 19.5465 2.79219 18.909 2.74063 17.7418C2.68438 16.4762 2.67031 16.0965 2.67031 12.8949C2.67031 9.68867 2.68438 9.30898 2.74063 8.04805C2.79219 6.87617 2.98906 6.24336 3.15313 5.82148C3.36875 5.26367 3.63125 4.86055 4.04844 4.44336C4.47031 4.02148 4.86875 3.76367 5.42656 3.54805C5.84844 3.38398 6.48594 3.18711 7.65313 3.13555C8.91406 3.0793 9.29375 3.06523 12.5 3.06523ZM12.5 0.904297C9.24219 0.904297 8.83438 0.918359 7.55469 0.974609C6.27969 1.03086 5.40313 1.23711 4.64375 1.53242C3.85156 1.8418 3.18125 2.24961 2.51563 2.91992C1.84531 3.58555 1.4375 4.25586 1.12813 5.04336C0.832812 5.80742 0.626563 6.6793 0.570313 7.9543C0.514063 9.23867 0.5 9.64648 0.5 12.9043C0.5 16.1621 0.514063 16.5699 0.570313 17.8496C0.626563 19.1246 0.832812 20.0012 1.12813 20.7605C1.4375 21.5527 1.84531 22.223 2.51563 22.8887C3.18125 23.5543 3.85156 23.9668 4.63906 24.2715C5.40313 24.5668 6.275 24.773 7.55 24.8293C8.82969 24.8855 9.2375 24.8996 12.4953 24.8996C15.7531 24.8996 16.1609 24.8855 17.4406 24.8293C18.7156 24.773 19.5922 24.5668 20.3516 24.2715C21.1391 23.9668 21.8094 23.5543 22.475 22.8887C23.1406 22.223 23.5531 21.5527 23.8578 20.7652C24.1531 20.0012 24.3594 19.1293 24.4156 17.8543C24.4719 16.5746 24.4859 16.1668 24.4859 12.909C24.4859 9.65117 24.4719 9.24336 24.4156 7.96367C24.3594 6.68867 24.1531 5.81211 23.8578 5.05273C23.5625 4.25586 23.1547 3.58555 22.4844 2.91992C21.8188 2.2543 21.1484 1.8418 20.3609 1.53711C19.5969 1.2418 18.725 1.03555 17.45 0.979297C16.1656 0.918359 15.7578 0.904297 12.5 0.904297Z" fill="white"/>
<path d="M12.5 6.74023C9.09688 6.74023 6.33594 9.50117 6.33594 12.9043C6.33594 16.3074 9.09688 19.0684 12.5 19.0684C15.9031 19.0684 18.6641 16.3074 18.6641 12.9043C18.6641 9.50117 15.9031 6.74023 12.5 6.74023ZM12.5 16.9027C10.2922 16.9027 8.50156 15.1121 8.50156 12.9043C8.50156 10.6965 10.2922 8.90586 12.5 8.90586C14.7078 8.90586 16.4984 10.6965 16.4984 12.9043C16.4984 15.1121 14.7078 16.9027 12.5 16.9027Z" fill="white"/>
<path d="M20.3469 6.49668C20.3469 7.29356 19.7 7.93575 18.9078 7.93575C18.1109 7.93575 17.4688 7.28887 17.4688 6.49668C17.4688 5.69981 18.1156 5.05762 18.9078 5.05762C19.7 5.05762 20.3469 5.70449 20.3469 6.49668Z" fill="white"/>
</g>
<defs>
<clipPath id="clip0_1009_14135">
<rect width="24" height="24" fill="white" transform="translate(0.5 0.904297)"/>
</clipPath>
</defs>
</svg>
